<svg width="64" height="64" viewBox="0 0 64 64" fill="none" xmlns="http://www.w3.org/2000/svg">
<g clip-path="url(#clip0_1_434)">
<path d="M7.30707 36.6554C3.99419 35.9942 0.774818 38.1449 0.120257 41.4577C-0.534304 44.7706 1.60972 47.99 4.9226 48.6445C8.23548 49.3058 11.4549 47.1551 12.1094 43.8422C12.7707 40.536 10.62 37.3166 7.30707 36.6554Z" fill="black"/>
<path d="M43.2879 43.8155C37.7708 42.7201 32.4075 46.3001 31.3054 51.8238C30.21 57.3408 33.79 62.7042 39.3137 63.8063C44.8308 64.9017 50.1942 61.3216 51.2962 55.7979C52.3916 50.2742 48.8116 44.9108 43.2879 43.8155Z" fill="black"/>
<path d="M54.0414 0.24044C47.4156 -1.08204 40.9769 3.21936 39.6544 9.83844L38.4722 15.8297C37.5972 20.2513 33.2958 23.1233 28.8742 22.2484L24.88 21.4335C20.4784 20.5585 17.6064 16.2772 18.4814 11.8556L18.6817 10.8537C19.4365 6.99978 16.9318 3.23272 13.0779 2.47797C9.19728 1.70986 5.45025 4.21456 4.67546 8.08849C3.90068 11.9424 6.42541 15.6894 10.2793 16.4642L11.2812 16.6712C15.7028 17.5462 18.5749 21.8476 17.6799 26.2492L17.2925 28.2463C16.4175 32.6679 19.2895 36.9693 23.6911 37.8443C28.1128 38.7193 32.4142 35.8472 33.2891 31.4256L33.6765 29.4285C34.5515 25.0269 38.8529 22.1549 43.2545 23.0298L49.2658 24.2321C55.8915 25.5345 62.3303 21.2331 63.6327 14.6141C64.9686 7.98162 60.6672 1.54288 54.0414 0.24044Z" fill="black"/>
</g>
<defs>
<clipPath id="clip0_1_434">
<rect width="63.8798" height="64" fill="white"/>
</clipPath>
</defs>
</svg>
