<svg width="64" height="64" viewBox="0 0 64 64" fill="none" xmlns="http://www.w3.org/2000/svg">
<g clip-path="url(#clip0_1_435)">
<path d="M7.307 36.6554C3.99413 35.9942 0.774756 38.1449 0.120196 41.4577C-0.534365 44.7706 1.60966 47.99 4.92253 48.6445C8.23541 49.3058 11.4548 47.1551 12.1093 43.8422C12.7706 40.536 10.6199 37.3166 7.307 36.6554Z" fill="#E89C2E"/>
<path d="M43.2878 43.8155C37.7708 42.7201 32.4074 46.3001 31.3053 51.8238C30.2099 57.3408 33.79 62.7042 39.3137 63.8063C44.8307 64.9017 50.1941 61.3216 51.2961 55.798C52.3915 50.2743 48.8115 44.9109 43.2878 43.8155Z" fill="#E89C2E"/>
<path d="M54.0413 0.24044C47.4155 -1.08204 40.9768 3.21936 39.6543 9.83844L38.4721 15.8297C37.5971 20.2513 33.2957 23.1233 28.8741 22.2484L24.88 21.4335C20.4784 20.5585 17.6063 16.2772 18.4813 11.8556L18.6817 10.8537C19.4364 6.99978 16.9317 3.23272 13.0778 2.47797C9.19722 1.70986 5.45019 4.21456 4.6754 8.08849C3.90062 11.9424 6.42535 15.6894 10.2792 16.4642L11.2811 16.6712C15.7027 17.5462 18.5748 21.8476 17.6798 26.2492L17.2924 28.2463C16.4174 32.6679 19.2895 36.9693 23.6911 37.8443C28.1127 38.7193 32.4141 35.8472 33.2891 31.4256L33.6764 29.4285C34.5514 25.0269 38.8528 22.1549 43.2544 23.0298L49.2657 24.2321C55.8914 25.5345 62.3302 21.2331 63.6326 14.6141C64.9685 7.98162 60.6671 1.54288 54.0413 0.24044Z" fill="#E89C2E"/>
</g>
<defs>
<clipPath id="clip0_1_435">
<rect width="63.8798" height="64" fill="white"/>
</clipPath>
</defs>
</svg>
