<svg width="284" height="64" viewBox="0 0 284 64" fill="none" xmlns="http://www.w3.org/2000/svg">
<g clip-path="url(#clip0_1_425)">
<path d="M7.30372 36.6588C3.9875 35.9976 0.771472 38.1516 0.110232 41.4578C-0.551008 44.764 1.60303 47.9901 4.90923 48.6513C8.22545 49.3125 11.4415 47.1585 12.1027 43.8523C12.774 40.5361 10.6199 37.31 7.30372 36.6588Z" fill="#E89C2E"/>
<path d="M43.2912 43.8122C37.7709 42.7101 32.4108 46.2969 31.3087 51.8172C30.2067 57.3376 33.7934 62.6976 39.3137 63.7997C44.8341 64.9018 50.1941 61.315 51.2962 55.7947C52.3883 50.2743 48.8116 44.9143 43.2912 43.8122Z" fill="#E89C2E"/>
<path d="M54.0413 0.240509C47.4189 -1.08197 40.9768 3.21609 39.6544 9.8385L38.4722 15.8297C37.6005 20.248 33.2924 23.1234 28.8742 22.2518L24.8767 21.4403C20.4784 20.5586 17.603 16.2806 18.4747 11.8623L18.675 10.8604C19.4264 7.01321 16.9217 3.23613 13.0745 2.48472C9.19727 1.70325 5.45024 4.21797 4.67879 8.08522C3.90735 11.9324 6.43208 15.6895 10.2793 16.4609L11.2812 16.6613C15.6995 17.5329 18.5748 21.841 17.6832 26.2393L17.2924 28.233C16.4208 32.6513 19.2862 36.9594 23.6944 37.831C28.1127 38.7126 32.4208 35.8373 33.2924 31.4089L33.6832 29.4152C34.5548 25.017 38.8629 22.1416 43.2611 23.0132L49.2724 24.2155C55.8948 25.5179 62.3369 21.2198 63.6393 14.5974C64.9618 7.98503 60.6638 1.54295 54.0413 0.240509Z" fill="#E89C2E"/>
<path d="M80.6111 28.0326C78.9781 28.0326 77.6656 28.5636 76.6637 29.6256C75.6618 30.6876 75.0808 32.2205 74.9004 34.2443H85.9111C85.9011 33.022 85.7007 31.95 85.32 31.0182C84.9393 30.0865 84.3582 29.3551 83.5867 28.8341C82.8052 28.2931 81.8134 28.0326 80.6111 28.0326ZM80.6212 24.4559C82.695 24.4559 84.4684 24.8867 85.9511 25.7584C87.4339 26.62 88.5761 27.8523 89.3675 29.4353C90.159 31.0182 90.5598 32.9018 90.5598 35.0859V37.6607H74.8002C74.8503 40.0251 75.4715 41.8485 76.6737 43.1209C77.876 44.3933 79.5491 45.0345 81.7132 45.0345C83.206 45.0345 84.5385 44.8943 85.7207 44.6037C86.9029 44.3132 88.1252 43.8924 89.3876 43.3313V47.1986C88.2154 47.7496 87.0232 48.1403 85.8209 48.3908C84.6186 48.6413 83.1759 48.7715 81.5028 48.7715C79.2185 48.7715 77.2047 48.3207 75.4815 47.419C73.7483 46.5173 72.4058 45.1748 71.4339 43.4015C70.4621 41.6181 69.9812 39.414 69.9812 36.7891C69.9812 34.1842 70.422 31.96 71.3037 30.1266C72.1853 28.2931 73.4176 26.8905 75.0206 25.9187C76.6136 24.9368 78.4771 24.4559 80.6212 24.4559Z" fill="#29283E"/>
<path d="M120.476 48.7514C118.282 48.7514 116.378 48.3206 114.755 47.459C113.132 46.5974 111.88 45.2749 111.008 43.4916C110.126 41.7082 109.686 39.454 109.686 36.7289C109.686 33.8836 110.167 31.5592 111.118 29.7458C112.07 27.9424 113.403 26.5999 115.096 25.7383C116.789 24.8767 118.733 24.4459 120.917 24.4459C122.269 24.4459 123.502 24.5761 124.634 24.8466C125.756 25.1171 126.708 25.4377 127.489 25.8285L126.086 29.6055C125.255 29.2649 124.383 28.9844 123.472 28.7439C122.56 28.5035 121.698 28.3832 120.867 28.3832C119.444 28.3832 118.262 28.6938 117.32 29.325C116.378 29.9562 115.677 30.8779 115.216 32.1102C114.755 33.3425 114.515 34.8654 114.515 36.6788C114.515 38.4421 114.745 39.9249 115.216 41.1271C115.687 42.3394 116.378 43.2511 117.29 43.8723C118.202 44.4935 119.344 44.804 120.696 44.804C121.969 44.804 123.111 44.6538 124.133 44.3532C125.145 44.0526 126.096 43.6719 126.978 43.191V47.2887C126.116 47.7796 125.185 48.1403 124.173 48.3807C123.161 48.6312 121.929 48.7514 120.476 48.7514Z" fill="#29283E"/>
<path d="M136.225 36.5586C136.225 38.3019 136.446 39.7947 136.877 41.047C137.307 42.2894 137.979 43.2512 138.89 43.9124C139.802 44.5737 140.974 44.9043 142.407 44.9043C143.83 44.9043 145.002 44.5737 145.914 43.9124C146.825 43.2512 147.497 42.2894 147.917 41.047C148.348 39.7947 148.559 38.3019 148.559 36.5586C148.559 34.8154 148.348 33.3326 147.917 32.1103C147.487 30.888 146.825 29.9462 145.914 29.295C145.002 28.6438 143.83 28.3232 142.377 28.3232C140.243 28.3232 138.69 29.0345 137.698 30.4672C136.716 31.8999 136.225 33.9237 136.225 36.5586ZM153.398 36.5586C153.398 38.5023 153.147 40.2255 152.636 41.7383C152.125 43.2512 151.394 44.5236 150.422 45.5655C149.45 46.6075 148.288 47.3989 146.925 47.94C145.563 48.481 144.03 48.7515 142.317 48.7515C140.714 48.7515 139.251 48.481 137.909 47.94C136.576 47.3989 135.424 46.6075 134.442 45.5655C133.47 44.5236 132.719 43.2512 132.188 41.7383C131.657 40.2255 131.386 38.5023 131.386 36.5586C131.386 33.9838 131.827 31.7897 132.719 29.9863C133.611 28.1829 134.883 26.8103 136.536 25.8686C138.189 24.9268 140.163 24.4559 142.447 24.4559C144.601 24.4559 146.505 24.9268 148.148 25.8786C149.791 26.8304 151.073 28.203 151.995 30.0063C152.937 31.8097 153.398 33.9938 153.398 36.5586Z" fill="#29283E"/>
<path d="M171.471 24.4559C174.136 24.4559 176.2 25.1372 177.673 26.4998C179.136 27.8623 179.877 30.0464 179.877 33.0521V48.3307H175.198V33.8335C175.198 31.9901 174.808 30.6075 174.036 29.6857C173.255 28.764 172.063 28.3031 170.44 28.3031C168.105 28.3031 166.482 29.0045 165.56 30.4171C164.639 31.8298 164.188 33.8736 164.188 36.5586V48.3307H159.489V24.8867H163.166L163.827 28.1128H164.088C164.589 27.2912 165.22 26.61 165.981 26.079C166.743 25.538 167.594 25.1372 168.526 24.8667C169.458 24.5862 170.44 24.4559 171.471 24.4559Z" fill="#29283E"/>
<path d="M190.647 36.5586C190.647 38.3019 190.868 39.7947 191.299 41.047C191.729 42.2894 192.401 43.2512 193.312 43.9124C194.224 44.5737 195.396 44.9043 196.829 44.9043C198.252 44.9043 199.424 44.5737 200.336 43.9124C201.247 43.2512 201.919 42.2894 202.339 41.047C202.77 39.7947 202.981 38.3019 202.981 36.5586C202.981 34.8154 202.77 33.3326 202.339 32.1103C201.909 30.888 201.247 29.9462 200.336 29.295C199.424 28.6438 198.252 28.3232 196.799 28.3232C194.665 28.3232 193.112 29.0345 192.12 30.4672C191.138 31.8999 190.647 33.9237 190.647 36.5586ZM207.81 36.5586C207.81 38.5023 207.559 40.2255 207.048 41.7383C206.537 43.2512 205.806 44.5236 204.834 45.5655C203.862 46.6075 202.7 47.3989 201.337 47.94C199.975 48.481 198.442 48.7515 196.729 48.7515C195.126 48.7515 193.663 48.481 192.321 47.94C190.988 47.3989 189.836 46.6075 188.854 45.5655C187.882 44.5236 187.131 43.2512 186.6 41.7383C186.069 40.2255 185.798 38.5023 185.798 36.5586C185.798 33.9838 186.239 31.7897 187.131 29.9863C188.023 28.1829 189.295 26.8103 190.948 25.8686C192.601 24.9268 194.575 24.4559 196.859 24.4559C199.013 24.4559 200.917 24.9268 202.56 25.8786C204.203 26.8304 205.485 28.203 206.407 30.0063C207.349 31.8097 207.81 33.9938 207.81 36.5586Z" fill="#29283E"/>
<path d="M240.18 24.4559C242.795 24.4559 244.769 25.1372 246.091 26.4897C247.424 27.8423 248.085 30.0164 248.085 33.002V48.3307H243.406V33.7433C243.406 31.94 243.046 30.5774 242.324 29.6657C241.603 28.754 240.521 28.3031 239.078 28.3031C237.044 28.3031 235.572 28.9343 234.68 30.2067C233.778 31.4791 233.337 33.3326 233.337 35.7571V48.3207H228.649V33.7433C228.649 32.5411 228.488 31.5292 228.168 30.7277C227.847 29.9262 227.366 29.315 226.735 28.9143C226.094 28.5135 225.292 28.3031 224.311 28.3031C222.908 28.3031 221.786 28.6137 220.944 29.2449C220.113 29.8661 219.512 30.7878 219.141 32.0101C218.77 33.2224 218.59 34.7152 218.59 36.4885V48.3407H213.891V24.8968H217.568L218.229 28.0827H218.49C218.96 27.2712 219.562 26.5899 220.273 26.0589C220.984 25.5279 221.786 25.1272 222.657 24.8567C223.529 24.5862 224.451 24.4559 225.413 24.4559C227.166 24.4559 228.649 24.7665 229.841 25.3877C231.043 26.0088 231.935 26.9606 232.516 28.233H232.857C233.598 26.9406 234.63 25.9888 235.942 25.3777C237.275 24.7665 238.687 24.4559 240.18 24.4559Z" fill="#29283E"/>
<path d="M260.078 24.8867V48.3307H255.379V24.8867H260.078Z" fill="#29283E"/>
<path d="M276.989 48.7514C274.795 48.7514 272.892 48.3206 271.269 47.459C269.646 46.5974 268.393 45.2749 267.522 43.4916C266.64 41.7082 266.199 39.454 266.199 36.7289C266.199 33.8836 266.68 31.5592 267.632 29.7458C268.584 27.9424 269.916 26.5999 271.609 25.7383C273.302 24.8767 275.246 24.4459 277.43 24.4459C278.783 24.4459 280.015 24.5761 281.147 24.8466C282.269 25.1171 283.221 25.4377 284.002 25.8285L282.6 29.6055C281.768 29.2649 280.897 28.9844 279.985 28.7439C279.073 28.5035 278.212 28.3832 277.38 28.3832C275.957 28.3832 274.775 28.6938 273.833 29.325C272.892 29.9562 272.19 30.8779 271.729 32.1102C271.269 33.3425 271.028 34.8654 271.028 36.6788C271.028 38.4421 271.259 39.9249 271.729 41.1271C272.2 42.3394 272.892 43.2511 273.803 43.8723C274.715 44.4935 275.857 44.804 277.21 44.804C278.482 44.804 279.624 44.6538 280.646 44.3532C281.658 44.0526 282.61 43.6719 283.491 43.191V47.2887C282.63 47.7796 281.698 48.1403 280.686 48.3807C279.664 48.6312 278.442 48.7514 276.989 48.7514Z" fill="#29283E"/>
<path d="M257.733 21.4202C259.283 21.4202 260.538 20.1643 260.538 18.615C260.538 17.0657 259.283 15.8097 257.733 15.8097C256.184 15.8097 254.928 17.0657 254.928 18.615C254.928 20.1643 256.184 21.4202 257.733 21.4202Z" fill="#29283E"/>
<path d="M100.058 39.6544C101.745 39.6544 103.113 38.2863 103.113 36.5987C103.113 34.9111 101.745 33.543 100.058 33.543C98.37 33.543 97.0019 34.9111 97.0019 36.5987C97.0019 38.2863 98.37 39.6544 100.058 39.6544Z" fill="#29283E"/>
</g>
<defs>
<clipPath id="clip0_1_425">
<rect width="283.992" height="64" fill="white"/>
</clipPath>
</defs>
</svg>
