<svg width="160" height="121" viewBox="0 0 160 121" fill="none" xmlns="http://www.w3.org/2000/svg">
<g clip-path="url(#clip0_9_51134)">
<path d="M159.724 74.4609C162.625 42.7719 142.239 28.7168 114.022 30.2232C85.8054 31.7296 90.4045 7.08706 63.8012 0.873563C37.198 -5.33993 2.53132 22.7482 0.175515 48.4951C-2.72385 80.1849 30.6429 111.687 74.7008 118.857C118.759 126.027 156.826 106.151 159.724 74.4609Z" fill="#BEBEBE" fill-opacity="0.14"/>
<path d="M79.1356 103.568C84.1864 103.568 88.2809 100.7 88.2809 97.1621C88.2809 93.624 84.1864 90.7559 79.1356 90.7559C74.0848 90.7559 69.9902 93.624 69.9902 97.1621C69.9902 100.7 74.0848 103.568 79.1356 103.568Z" fill="#30384D"/>
<path d="M139.496 22.1172H21.9764C21.2187 22.1172 20.6045 22.7319 20.6045 23.4901V100.365C20.6045 101.123 21.2187 101.738 21.9764 101.738H139.496C140.254 101.738 140.868 101.123 140.868 100.365V23.4901C140.868 22.7319 140.254 22.1172 139.496 22.1172Z" fill="#30384D"/>
<path d="M134.466 17.084L137.978 22.1633V98.9465H23.8926V42.0281L134.466 17.084Z" fill="#CED3DF"/>
<path d="M79.1352 100.824C81.6606 100.824 83.7079 99.1845 83.7079 97.1627C83.7079 95.1409 81.6606 93.502 79.1352 93.502C76.6098 93.502 74.5625 95.1409 74.5625 97.1627C74.5625 99.1845 76.6098 100.824 79.1352 100.824Z" fill="#CED3DF"/>
<path d="M83.7088 17.084H134.466V94.4163H83.7088C79.1357 94.4163 79.1357 98.9921 79.1357 98.9921V21.6616C79.1355 21.0605 79.2535 20.4653 79.4832 19.9098C79.7129 19.3544 80.0497 18.8497 80.4744 18.4246C80.8991 17.9995 81.4033 17.6623 81.9583 17.4323C82.5133 17.2022 83.1081 17.0839 83.7088 17.084Z" fill="white"/>
<path d="M74.563 17.084H23.8057V94.4163H74.563C79.1357 94.4163 79.1357 98.9921 79.1357 98.9921V21.6616C79.136 21.0606 79.0179 20.4654 78.7882 19.91C78.5585 19.3546 78.2217 18.85 77.7971 18.4249C77.3724 17.9998 76.8683 17.6625 76.3134 17.4325C75.7585 17.2024 75.1637 17.084 74.563 17.084Z" fill="#CED3DF"/>
<path d="M45.1512 34.9296L41.6627 31.2994L38.1738 34.9296V17.127H45.1512V34.9296Z" fill="#4573D2"/>
<path d="M124.404 29.7422H89.1934V31.1151H124.404V29.7422Z" fill="#E2E5EC"/>
<path d="M124.404 34.7754H89.1934V36.1483H124.404V34.7754Z" fill="#E2E5EC"/>
<path d="M124.404 39.8086H89.1934V41.1815H124.404V39.8086Z" fill="#E2E5EC"/>
<path d="M124.404 44.8418H89.1934V46.2147H124.404V44.8418Z" fill="#E2E5EC"/>
<path d="M124.404 49.877H89.1934V51.2498H124.404V49.877Z" fill="#E2E5EC"/>
<path d="M124.404 54.9102H89.1934V56.283H124.404V54.9102Z" fill="#E2E5EC"/>
<path d="M124.404 59.9434H89.1934V61.3162H124.404V59.9434Z" fill="#E2E5EC"/>
<path d="M124.404 64.9766H89.1934V66.3495H124.404V64.9766Z" fill="#E2E5EC"/>
<path d="M124.404 70.0098H89.1934V71.3827H124.404V70.0098Z" fill="#E2E5EC"/>
<path d="M124.404 75.043H89.1934V76.4159H124.404V75.043Z" fill="#E2E5EC"/>
<path d="M124.404 80.0762H89.1934V81.4491H124.404V80.0762Z" fill="#E2E5EC"/>
</g>
<defs>
<clipPath id="clip0_9_51134">
<rect width="160" height="120.32" fill="white"/>
</clipPath>
</defs>
</svg>
