<svg width="160" height="135" viewBox="0 0 160 135" fill="none" xmlns="http://www.w3.org/2000/svg">
<g clip-path="url(#clip0_9_51116)">
<path d="M159.725 74.338C162.626 42.7005 142.231 28.669 114.002 30.1748C85.7729 31.6805 90.3736 7.07488 63.7598 0.872026C37.1459 -5.33083 2.46178 22.7108 0.10364 48.4163C-2.79689 80.0538 55.9961 64.2238 74.6614 118.661C89.7069 162.538 156.825 105.976 159.725 74.338Z" fill="#BEBEBE" fill-opacity="0.14"/>
<path d="M119.661 17.3008H45.6523V114.049H119.661V17.3008Z" fill="#D5A882"/>
<path d="M115.872 22.2559H49.4424V109.095H115.872V22.2559Z" fill="#BA8B67"/>
<path d="M115.872 109.095H49.4409L49.415 104.096L110.413 104.082L109.805 22.3246L115.872 22.2559L115.872 109.095Z" fill="#A7795A"/>
<path d="M83.7373 104.029L108.553 100.863L110.089 97.1741L115.526 94.4385L115.559 84.9425L118.401 81.0678L117.171 78.8301L115.516 81.4995L107.645 93.3102L89.1666 101.634L84.18 102.9L83.7373 104.029Z" fill="#393939" fill-opacity="0.18"/>
<path d="M63.8239 43.3768L42.4326 98.5176L80.6039 113.284L101.995 58.1432L63.8239 43.3768Z" fill="white"/>
<path d="M66.3543 58.8253L65.9971 59.7461L85.3601 67.2366L85.7173 66.3159L66.3543 58.8253Z" fill="#E2E5EC"/>
<path d="M90.6355 68.2179L90.2783 69.1387L109.641 76.6292L109.999 75.7084L90.6355 68.2179Z" fill="#E2E5EC"/>
<path d="M65.0447 62.2023L64.6875 63.123L84.0505 70.6136L84.4077 69.6928L65.0447 62.2023Z" fill="#E2E5EC"/>
<path d="M89.3259 71.5949L88.9688 72.5156L108.332 80.0061L108.689 79.0854L89.3259 71.5949Z" fill="#E2E5EC"/>
<path d="M63.7351 65.5773L63.3779 66.498L82.741 73.9886L83.0981 73.0678L63.7351 65.5773Z" fill="#E2E5EC"/>
<path d="M88.0154 74.9699L87.6582 75.8906L107.021 83.3811L107.378 82.4604L88.0154 74.9699Z" fill="#E2E5EC"/>
<path d="M62.4256 68.9543L62.0684 69.875L81.4314 77.3655L81.7886 76.4448L62.4256 68.9543Z" fill="#E2E5EC"/>
<path d="M86.7058 78.3468L86.3486 79.2676L105.712 86.7581L106.069 85.8373L86.7058 78.3468Z" fill="#E2E5EC"/>
<path d="M61.116 72.3293L60.7588 73.25L80.1218 80.7405L80.479 79.8198L61.116 72.3293Z" fill="#E2E5EC"/>
<path d="M85.3963 81.7218L85.0391 82.6426L104.402 90.1331L104.759 89.2123L85.3963 81.7218Z" fill="#E2E5EC"/>
<path d="M59.8054 75.7062L59.4482 76.627L78.8113 84.1175L79.1685 83.1967L59.8054 75.7062Z" fill="#E2E5EC"/>
<path d="M84.0867 85.0988L83.7295 86.0195L103.093 93.51L103.45 92.5893L84.0867 85.0988Z" fill="#E2E5EC"/>
<path d="M58.4959 79.0812L58.1387 80.002L77.5017 87.4925L77.8589 86.5717L58.4959 79.0812Z" fill="#E2E5EC"/>
<path d="M82.7771 88.4738L82.4199 89.3945L101.783 96.885L102.14 95.9643L82.7771 88.4738Z" fill="#E2E5EC"/>
<path d="M57.1863 82.4582L56.8291 83.3789L76.1921 90.8694L76.5493 89.9487L57.1863 82.4582Z" fill="#E2E5EC"/>
<path d="M55.8767 85.8332L55.5195 86.7539L74.8826 94.2444L75.2397 93.3237L55.8767 85.8332Z" fill="#E2E5EC"/>
<path d="M54.5672 89.2101L54.21 90.1309L73.573 97.6214L73.9302 96.7006L54.5672 89.2101Z" fill="#E2E5EC"/>
<path d="M53.2576 92.5851L52.9004 93.5059L72.2634 100.996L72.6206 100.076L53.2576 92.5851Z" fill="#E2E5EC"/>
<path d="M70.6519 87.3023L65.1963 101.365L78.9084 106.67L84.3639 92.6067L70.6519 87.3023Z" fill="white"/>
<path d="M72.8591 96.8188L72.6104 97.4596L73.0825 97.6422L73.3311 97.0014C73.8313 97.1553 74.2525 97.163 74.5948 97.0243C74.9419 96.8875 75.2184 96.5539 75.4241 96.0236C75.5041 95.8173 75.5496 95.6344 75.5606 95.4749C75.5716 95.3154 75.5568 95.1713 75.5162 95.0426C75.4776 94.9091 75.415 94.786 75.3286 94.6735C75.247 94.5629 75.1489 94.4515 75.034 94.3394L74.5427 93.8782L75.0828 92.486C75.1954 92.5748 75.2516 92.6925 75.2512 92.8392C75.2528 92.981 75.2198 93.1462 75.1523 93.3347L76.1703 93.7284L76.2103 93.6253C76.2731 93.4633 76.3154 93.2961 76.337 93.1237C76.3586 92.9513 76.3426 92.7814 76.2888 92.6137C76.2351 92.4461 76.1359 92.2863 75.9913 92.1343C75.8534 91.9794 75.6516 91.8363 75.3857 91.7052L75.5829 91.197L75.1108 91.0144L74.9136 91.5226C74.452 91.4005 74.0521 91.4181 73.714 91.5753C73.3827 91.7295 73.1285 92.035 72.9513 92.4917C72.8199 92.8305 72.7861 93.1507 72.8502 93.4522C72.9161 93.7488 73.1038 94.0303 73.4132 94.2969L73.7306 94.5721L73.1534 96.0601C73.0646 95.9975 73.0011 95.9277 72.9631 95.8509C72.9318 95.771 72.9167 95.6861 72.9177 95.5961C72.9186 95.5062 72.9323 95.4126 72.9587 95.3155C72.9919 95.2154 73.0285 95.1138 73.0685 95.0106L72.0505 94.6169L71.9905 94.7715C71.9162 94.9631 71.8629 95.1514 71.8307 95.3366C71.8033 95.5237 71.8146 95.706 71.8646 95.8834C71.9164 96.0559 72.0196 96.2201 72.174 96.3759C72.3354 96.5286 72.5637 96.6763 72.8591 96.8188ZM74.6107 92.3034L74.1535 93.482C73.9659 93.2513 73.9254 92.9984 74.0321 92.7234C74.1502 92.4189 74.3431 92.279 74.6107 92.3034ZM73.6255 96.2427L74.1313 94.9389C74.2453 95.0677 74.3158 95.1995 74.3427 95.3342C74.3746 95.4707 74.3543 95.6323 74.2819 95.8189C74.2286 95.9564 74.1456 96.0683 74.0329 96.1546C73.9271 96.2379 73.7913 96.2673 73.6255 96.2427Z" fill="#4573D2"/>
<path d="M55.5988 63.4644L52.71 70.7863L87.4183 87.5708L94.678 54.8184L55.5988 63.4644Z" fill="#393939" fill-opacity="0.18"/>
<path d="M70.85 9.875L103.455 12.7864L102.552 17.4527L91.5714 74.1984L49.4611 66.1748L49.4561 58.4579L57.3065 17.4527L70.85 9.875Z" fill="white"/>
<path d="M63.303 21.341L62.6641 24.6426L65.9703 25.2806L66.6092 21.979L63.303 21.341Z" fill="#4573D2"/>
<path d="M69.8069 16.0894L67.9541 25.6641L71.2603 26.3021L73.1132 16.7274L69.8069 16.0894Z" fill="#4573D2"/>
<path d="M74.5858 19.7503L73.2441 26.6836L76.5504 27.3216L77.8921 20.3883L74.5858 19.7503Z" fill="#4573D2"/>
<path d="M79.6203 22.0923L78.5342 27.7051L81.8404 28.3431L82.9266 22.7303L79.6203 22.0923Z" fill="#4573D2"/>
<path d="M85.677 19.1519L83.8242 28.7266L87.1305 29.3646L88.9833 19.7899L85.677 19.1519Z" fill="#C98A30"/>
<path d="M91.5421 17.2L89.1143 29.7461L92.4205 30.3841L94.8483 17.838L91.5421 17.2Z" fill="#4573D2"/>
<path d="M62.0251 27.9452L61.7695 29.2656L91.5261 35.0077L91.7816 33.6872L62.0251 27.9452Z" fill="#E2E5EC"/>
<path d="M61.1305 32.5663L60.875 33.8867L90.6316 39.6288L90.8871 38.3083L61.1305 32.5663Z" fill="#E2E5EC"/>
<path d="M60.236 37.1893L59.9805 38.5098L89.7371 44.2518L89.9926 42.9313L60.236 37.1893Z" fill="#E2E5EC"/>
<path d="M59.3415 41.8104L59.0859 43.1309L88.8425 48.8729L89.0981 47.5524L59.3415 41.8104Z" fill="#E2E5EC"/>
<path d="M58.4469 46.4334L58.1914 47.7539L75.7148 51.1353L75.9703 49.8149L58.4469 46.4334Z" fill="#E2E5EC"/>
<path d="M57.5524 51.0565L57.2969 52.377L74.8202 55.7584L75.0758 54.4379L57.5524 51.0565Z" fill="#E2E5EC"/>
<path d="M56.6579 55.6776L56.4023 56.998L73.9257 60.3795L74.1812 59.059L56.6579 55.6776Z" fill="#E2E5EC"/>
<path d="M55.7643 60.3006L55.5088 61.6211L73.0322 65.0025L73.2877 63.6821L55.7643 60.3006Z" fill="#E2E5EC"/>
<path d="M80.7475 81.667L80.2139 84.4246L82.2427 84.8161L82.7763 82.0584C84.8972 82.3143 86.5946 82.039 87.8687 81.2327C89.1639 80.4304 90.0323 78.8882 90.474 76.606C90.6457 75.7185 90.6958 74.95 90.6242 74.3005C90.5526 73.651 90.3886 73.0823 90.1322 72.5944C89.88 72.0854 89.5394 71.6361 89.1106 71.2465C88.7029 70.8609 88.2277 70.4842 87.6851 70.1165L85.377 68.6189L86.5363 62.6282C87.0531 62.9033 87.3639 63.3359 87.469 63.9261C87.5781 64.4952 87.5655 65.1832 87.4312 65.9903L91.8059 66.8345L91.8917 66.3907C92.0267 65.6934 92.075 64.9903 92.0368 64.2815C91.9986 63.5726 91.8108 62.9007 91.4733 62.2657C91.1358 61.6306 90.6214 61.0601 89.9301 60.554C89.2641 60.0309 88.3495 59.6024 87.1865 59.2683L87.6097 57.0812L85.5809 56.6897L85.1577 58.8768C83.2148 58.7211 81.6213 59.0822 80.3772 59.9601C79.1583 60.8209 78.3587 62.2339 77.9784 64.1991C77.6963 65.6572 77.7932 66.9692 78.2691 68.1351C78.7491 69.2799 79.7073 70.2759 81.1437 71.123L82.6183 71.9994L81.3793 78.4022C80.9771 78.2149 80.6716 77.9806 80.463 77.6993C80.2796 77.4008 80.1572 77.0703 80.0959 76.7078C80.0345 76.3452 80.0215 75.9591 80.0569 75.5494C80.1176 75.1227 80.1908 74.6875 80.2767 74.2437L75.9021 73.3996L75.7733 74.0652C75.6138 74.8893 75.5365 75.6855 75.5413 76.4536C75.5672 77.2258 75.7449 77.9506 76.0742 78.6279C76.4076 79.2841 76.941 79.8693 77.6746 80.3835C78.4334 80.8806 79.4577 81.3085 80.7475 81.667ZM84.5075 62.2367L83.5261 67.3082C82.605 66.5167 82.259 65.5293 82.488 64.3459C82.7415 63.0358 83.4147 62.3327 84.5075 62.2367ZM83.4081 78.7937L84.4938 73.1833C85.0453 73.6185 85.424 74.0971 85.6299 74.6191C85.857 75.1452 85.8928 75.8097 85.7374 76.6127C85.6229 77.2044 85.3707 77.7147 84.9808 78.1436C84.6161 78.5555 84.0919 78.7722 83.4081 78.7937Z" fill="#E2E5EC"/>
<path d="M63.0283 44.121L98.9254 34.2051L107.609 39.0993L118.052 77.9946L106.306 97.5977L79.1348 104.565L63.0283 44.121Z" fill="white"/>
<path d="M100.791 40.6998L89.4053 43.7246L89.7514 45.0238L101.137 41.999L100.791 40.6998Z" fill="#E2E5EC"/>
<path d="M102.003 45.2506L90.6172 48.2754L90.9633 49.5746L102.349 46.5498L102.003 45.2506Z" fill="#E2E5EC"/>
<path d="M103.215 49.7995L91.8301 52.8242L92.1762 54.1234L103.562 51.0986L103.215 49.7995Z" fill="#E2E5EC"/>
<path d="M104.428 54.3483L93.043 57.373L93.3891 58.6722L104.774 55.6475L104.428 54.3483Z" fill="#E2E5EC"/>
<path d="M105.633 58.9018L76.3564 66.6797L76.7026 67.9789L105.979 60.2009L105.633 58.9018Z" fill="#E2E5EC"/>
<path d="M106.846 63.4506L77.5693 71.2285L77.9155 72.5277L107.192 64.7498L106.846 63.4506Z" fill="#E2E5EC"/>
<path d="M108.058 67.9994L78.7812 75.7773L79.1274 77.0765L108.404 69.2986L108.058 67.9994Z" fill="#E2E5EC"/>
<path d="M97.2339 75.7478L79.9932 80.3281L80.3393 81.6273L97.58 77.0469L97.2339 75.7478Z" fill="#E2E5EC"/>
<path d="M82.3038 60.228C80.7503 60.6408 79.0961 60.4204 77.7053 59.6154C76.3145 58.8103 75.3009 57.4865 74.8875 55.9352C74.4741 54.3838 74.6947 52.732 75.5009 51.3432C76.3071 49.9543 77.6328 48.9421 79.1863 48.5293L80.7451 54.3784L86.6025 52.8219C86.8077 53.5892 86.8595 54.3894 86.755 55.1768C86.6505 55.9642 86.3918 56.7233 85.9935 57.4108C85.5952 58.0982 85.0652 58.7007 84.4338 59.1836C83.8024 59.6666 83.0818 60.0206 82.3134 60.2255L82.3038 60.228Z" fill="#4573D2"/>
<path d="M81.4611 53.143L79.9023 47.2935C81.4557 46.8807 83.1097 47.1008 84.5005 47.9056C85.8913 48.7103 86.9051 50.0338 87.3189 51.5848L81.4611 53.143Z" fill="#4369B6"/>
<path d="M118.07 78.0215L102.152 82.3374L106.278 97.6695C106.278 97.6695 118.101 78.0627 118.07 78.0215Z" fill="#E2E5EC"/>
<path d="M107.804 38.9672L100.734 40.6583C100.734 40.6583 98.9494 33.983 98.9749 33.9922L107.804 38.9672Z" fill="#E2E5EC"/>
<path d="M49.4502 58.5566L51.301 63.4471L49.4548 66.2735L49.4502 58.5566Z" fill="#E2E5EC"/>
<path d="M82.6748 103.272L82.7607 103.572L84.0124 103.359L84.1818 102.9L82.6748 103.272Z" fill="#393939" fill-opacity="0.18"/>
</g>
<defs>
<clipPath id="clip0_9_51116">
<rect width="160" height="134.72" fill="white"/>
</clipPath>
</defs>
</svg>
