<svg width="600" height="306" viewBox="0 0 600 306" fill="none" xmlns="http://www.w3.org/2000/svg">
<g clip-path="url(#clip0_9_51184)">
<path d="M715.218 -139.506H-122.492V306.301H715.218V-139.506Z" fill="#BEBEBE" fill-opacity="0.14"/>
<path d="M247.615 93.3128C247.615 93.3128 265.15 101.541 276.877 99.2556L259.946 90.9265C259.946 90.9265 284.83 98.538 300.277 92.5209L279.675 86.361C279.675 86.361 309.87 92.9601 317.458 84.5395L304.031 79.7756C304.031 79.7756 327.132 74.9544 333.717 67.9452L314.789 69.8895C314.789 69.8895 338.034 60.386 343.613 54.7888L343.659 54.9034C335.758 54.6962 312.371 63.8415 312.371 63.8415L327.416 52.1985C317.815 51.6623 297.76 64.0994 297.76 64.0994L305.086 53.6077C293.784 52.7419 275.578 76.125 275.578 76.125L286.253 57.4601C270.917 63.7533 258.146 86.4243 258.146 86.4243L264.664 68.7179C254.595 75.1489 247.569 93.1982 247.569 93.1982" fill="#4573D2"/>
<path d="M247.615 93.3117C247.615 93.3117 251.477 93.4699 256.618 91.0345C262.12 88.4277 274.701 82.6541 282.301 79.8065C291.962 76.1867 293.77 80.8437 303.127 74.395C321.075 62.0239 340.583 54.4135 343.611 54.7888L343.657 54.9034C335.756 54.6962 312.368 63.8415 312.368 63.8415L327.414 52.1985C317.813 51.6623 297.757 64.0994 297.757 64.0994L305.084 53.6077C293.782 52.7419 275.576 76.125 275.576 76.125L286.253 57.459C270.917 63.7522 258.146 86.4232 258.146 86.4232L264.664 68.7168C254.595 75.1478 247.569 93.1976 247.569 93.1976" fill="#393939" fill-opacity="0.18"/>
<path d="M356.857 93.2691C356.857 93.2691 339.902 101.225 328.563 99.0156L344.931 90.9615C344.931 90.9615 320.87 98.3212 305.935 92.5047L325.855 86.5498C325.855 86.5498 296.659 92.9307 289.321 84.7889L302.304 80.1821C302.304 80.1821 279.968 75.5207 273.602 68.7435L291.902 70.6234C291.902 70.6234 269.427 61.4345 264.033 56.022L263.988 56.1322C271.627 55.9321 294.241 64.7743 294.241 64.7743L279.695 53.5144C288.979 52.9957 308.37 65.0218 308.37 65.0218L301.285 54.8789C312.213 54.0412 329.816 76.6483 329.816 76.6483L319.494 58.5996C334.323 64.6851 346.674 86.606 346.674 86.606L340.374 69.4876C350.11 75.7064 356.903 93.1588 356.903 93.1588" fill="#4573D2"/>
<path d="M356.857 93.2691C356.857 93.2691 353.122 93.4223 348.152 91.0673C342.831 88.5465 330.667 82.9658 323.316 80.2102C313.974 76.7106 312.227 81.2138 303.179 74.9784C285.824 63.0163 266.962 55.6577 264.035 56.0198L263.99 56.13C271.629 55.9299 294.243 64.7721 294.243 64.7721L279.695 53.5144C288.979 52.9957 308.37 65.0218 308.37 65.0218L301.285 54.8789C312.213 54.0412 329.816 76.6483 329.816 76.6483L319.494 58.5996C334.323 64.6851 346.674 86.606 346.674 86.606L340.374 69.4876C350.11 75.7064 356.903 93.1588 356.903 93.1588" fill="#393939" fill-opacity="0.18"/>
<path d="M206.575 127.051C206.575 127.051 229.71 126.963 241.2 118.498L218.664 118.167C218.664 118.167 249.417 113.653 263.012 99.2574L237.624 103.149C237.624 103.149 273.592 94.827 277.476 81.8552L260.546 83.5813C260.546 83.5813 283.014 66.5604 286.536 55.6272L267.101 67.408C267.101 67.408 287.327 45.2595 290.488 36.3633L290.598 36.4636C281.964 40.2818 261.398 62.1162 261.398 62.1162L271.686 41.8514C261.049 46.1837 245.762 69.8677 245.762 69.8677L248.303 54.795C235.661 59.6422 227.972 94.1943 227.972 94.1943L229.945 68.5858C216.611 83.2236 214.421 114.229 214.421 114.229L212.398 91.782C204.82 103.874 206.469 126.951 206.469 126.951" fill="#4573D2"/>
<path d="M206.575 127.051C206.575 127.051 210.826 125.246 215.128 119.987C219.733 114.359 230.36 101.69 237.108 94.7289C245.685 85.8795 250.019 89.982 256.819 78.2349C269.865 55.7 287.028 37.5069 290.488 36.3633L290.598 36.4636C281.964 40.2818 261.398 62.1162 261.398 62.1162L271.686 41.8514C261.049 46.1837 245.762 69.8677 245.762 69.8677L248.303 54.795C235.661 59.6422 227.972 94.1943 227.972 94.1943L229.945 68.5858C216.611 83.2236 214.421 114.229 214.421 114.229L212.398 91.782C204.82 103.874 206.469 126.951 206.469 126.951" fill="#393939" fill-opacity="0.18"/>
<path d="M206.676 185.354C206.676 185.354 225.445 171.828 229.869 158.261L211.344 171.097C211.344 171.097 233.737 149.542 236.426 129.924L218.035 147.853C218.035 147.853 242.456 120.166 238.073 107.356L225.303 118.605C225.303 118.605 233.684 91.6924 230.19 80.7498L221.231 101.637C221.231 101.637 224.806 71.8558 222.203 62.7832L222.349 62.8019C217.546 70.9283 213.512 100.651 213.512 100.651L210.095 78.1827C203.96 87.8935 205.3 116.05 205.3 116.05L198.602 102.31C191.136 113.605 204.974 146.186 204.974 146.186L191.687 124.205C189.352 143.868 205.6 170.365 205.6 170.365L190.901 153.28C191.769 167.524 206.53 185.338 206.53 185.338" fill="#4573D2"/>
<path d="M206.676 185.355C206.676 185.355 209.083 181.415 209.525 174.635C209.999 167.378 211.277 150.893 212.719 141.305C214.55 129.118 220.461 129.935 219.162 116.424C216.67 90.5049 220.054 65.7204 222.203 62.7812L222.349 62.8C217.546 70.9263 213.512 100.649 213.512 100.649L210.095 78.1807C203.96 87.8915 205.3 116.048 205.3 116.048L198.602 102.308C191.136 113.603 204.974 146.184 204.974 146.184L191.687 124.203C189.352 143.866 205.6 170.363 205.6 170.363L190.901 153.278C191.769 167.522 206.53 185.336 206.53 185.336" fill="#393939" fill-opacity="0.18"/>
<path d="M250.084 246.879C250.084 246.879 257.05 224.817 252.488 211.295L245.305 232.658C245.305 232.658 250.378 201.992 240.81 184.655L236.779 210.021C236.779 210.021 239.813 173.227 228.643 165.575L225.128 182.226C225.128 182.226 215.764 155.639 206.423 148.954L211.721 171.054C211.721 171.054 196.791 145.038 189.28 139.319L189.409 139.246C190.414 148.633 204.942 174.875 204.942 174.875L188.777 158.901C189.659 170.353 207.56 192.129 207.56 192.129L193.979 185.116C194.743 198.633 225.308 216.487 225.308 216.487L201.519 206.803C211.397 223.964 240.259 235.499 240.259 235.499L218.265 230.584C227.472 241.487 249.954 246.948 249.954 246.948" fill="#4573D2"/>
<path d="M250.084 246.878C250.084 246.878 249.659 242.28 245.962 236.58C242.005 230.478 233.176 216.497 228.602 207.948C222.788 197.082 228.016 194.205 218.902 184.148C201.415 164.855 189.318 142.964 189.283 139.321L189.412 139.248C190.417 148.635 204.945 174.877 204.945 174.877L188.779 158.903C189.661 170.355 207.563 192.131 207.563 192.131L193.982 185.117C194.745 198.635 225.311 216.488 225.311 216.488L201.522 206.805C211.4 223.966 240.262 235.501 240.262 235.501L218.267 230.586C227.475 241.489 249.957 246.95 249.957 246.95" fill="#393939" fill-opacity="0.18"/>
<path d="M301.172 262.232C301.172 262.232 295.127 239.901 283.988 230.98L289.473 252.84C289.473 252.84 277.191 224.288 259.779 214.86L270.078 238.388C270.078 238.388 252.773 205.778 239.238 205.366L245.267 221.281C245.267 221.281 223.033 203.954 211.561 203.369L227.951 219.114C227.951 219.114 201.339 205.273 191.93 204.513L191.999 204.383C197.912 211.742 224.307 225.989 224.307 225.989L202.076 221.269C209.002 230.431 235.826 239.1 235.826 239.1L220.607 240.528C228.547 251.495 263.914 250.024 263.914 250.024L238.662 254.713C256.242 263.827 286.763 257.957 286.763 257.957L265.594 265.693C279.231 269.901 301.104 262.362 301.104 262.362" fill="#4573D2"/>
<path d="M301.172 262.233C301.172 262.233 298.332 258.592 292.143 255.789C285.519 252.788 270.539 245.784 262.076 241.057C251.315 235.05 254.163 229.804 241.061 226.26C215.926 219.459 193.926 207.561 191.93 204.513L191.999 204.383C197.912 211.743 224.307 225.99 224.307 225.99L202.076 221.269C209.002 230.432 235.826 239.101 235.826 239.101L220.607 240.528C228.547 251.496 263.914 250.025 263.914 250.025L238.662 254.714C256.242 263.828 286.763 257.958 286.763 257.958L265.594 265.694C279.231 269.901 301.104 262.363 301.104 262.363" fill="#393939" fill-opacity="0.18"/>
<path d="M394.93 126.795C394.93 126.795 371.795 126.706 360.306 118.241L382.842 117.91C382.842 117.91 352.089 113.397 338.494 99.001L363.882 102.892C363.882 102.892 327.913 94.57 324.03 81.5982L340.96 83.3249C340.96 83.3249 318.494 66.304 314.97 55.3708L334.405 67.1516C334.405 67.1516 314.179 45.0031 311.018 36.1074L310.908 36.2077C319.542 40.0254 340.108 61.8603 340.108 61.8603L329.822 41.595C340.459 45.9273 355.746 69.6113 355.746 69.6113L353.205 54.5392C365.847 59.3858 373.536 93.9379 373.536 93.9379L371.563 68.3299C384.897 82.9672 387.087 113.972 387.087 113.972L389.109 91.5256C396.688 103.618 395.038 126.694 395.038 126.694" fill="#4573D2"/>
<path d="M394.93 126.795C394.93 126.795 390.68 124.989 386.378 119.731C381.772 114.102 371.146 101.434 364.398 94.473C355.82 85.6236 351.487 89.7256 344.687 77.9784C331.641 55.4436 314.478 37.2505 311.018 36.1074L310.908 36.2077C319.542 40.0254 340.108 61.8603 340.108 61.8603L329.822 41.595C340.459 45.9273 355.746 69.6113 355.746 69.6113L353.205 54.5392C365.847 59.3858 373.536 93.9379 373.536 93.9379L371.563 68.3299C384.897 82.9672 387.087 113.972 387.087 113.972L389.109 91.5256C396.688 103.618 395.038 126.694 395.038 126.694" fill="#393939" fill-opacity="0.18"/>
<path d="M394.83 185.097C394.83 185.097 376.06 171.572 371.637 158.004L390.162 170.84C390.162 170.84 367.768 149.285 365.08 129.668L383.471 147.597C383.471 147.597 359.05 119.909 363.433 107.099L376.203 118.349C376.203 118.349 367.822 91.4357 371.315 80.4937L380.275 101.38C380.275 101.38 376.699 71.598 379.302 62.5254L379.156 62.5441C383.959 70.671 387.993 100.394 387.993 100.394L391.41 77.9254C397.545 87.6362 396.205 115.792 396.205 115.792L402.903 102.052C410.37 113.346 396.533 145.926 396.533 145.926L409.819 123.948C412.155 143.61 395.906 170.107 395.906 170.107L410.605 153.022C409.738 167.266 394.976 185.08 394.976 185.08" fill="#4573D2"/>
<path d="M394.83 185.097C394.83 185.097 392.423 181.157 391.98 174.377C391.507 167.12 390.228 150.635 388.787 141.047C386.956 128.86 381.044 129.677 382.343 116.166C384.835 90.2471 381.453 65.4659 379.303 62.5234L379.157 62.5422C383.96 70.669 387.994 100.392 387.994 100.392L391.411 77.9235C397.545 87.6343 396.206 115.79 396.206 115.79L402.904 102.051C410.37 113.346 396.533 145.926 396.533 145.926L409.819 123.947C412.155 143.61 395.906 170.107 395.906 170.107L410.605 153.022C409.738 167.266 394.976 185.08 394.976 185.08" fill="#393939" fill-opacity="0.18"/>
<path d="M351.422 246.622C351.422 246.622 344.456 224.56 349.017 211.038L356.2 232.401C356.2 232.401 351.126 201.736 360.694 184.398L364.725 209.764C364.725 209.764 361.694 172.97 372.861 165.318L376.376 181.97C376.376 181.97 385.74 155.382 395.081 148.697L389.783 170.797C389.783 170.797 404.713 144.784 412.224 139.062L412.095 138.99C411.09 148.376 396.562 174.619 396.562 174.619L412.727 158.645C411.846 170.097 393.944 191.873 393.944 191.873L407.525 184.859C406.761 198.377 376.196 216.23 376.196 216.23L399.985 206.547C390.107 223.707 361.245 235.242 361.245 235.242L383.239 230.328C374.032 241.231 351.55 246.692 351.55 246.692" fill="#4573D2"/>
<path d="M351.422 246.622C351.422 246.622 351.846 242.024 355.543 236.323C359.501 230.222 368.329 216.241 372.904 207.691C378.718 196.825 373.49 193.949 382.603 183.892C400.091 164.6 412.188 142.708 412.222 139.064L412.094 138.992C411.089 148.378 396.561 174.621 396.561 174.621L412.726 158.647C411.844 170.099 393.943 191.875 393.943 191.875L407.524 184.861C406.76 198.379 376.195 216.232 376.195 216.232L399.984 206.549C390.106 223.709 361.244 235.244 361.244 235.244L383.238 230.33C374.031 241.233 351.549 246.694 351.549 246.694" fill="#393939" fill-opacity="0.18"/>
<path d="M300.334 261.977C300.334 261.977 306.379 239.645 317.518 230.725L312.032 252.584C312.032 252.584 324.315 224.032 341.727 214.604L331.427 238.133C331.427 238.133 348.733 205.522 362.268 205.111L356.239 221.025C356.239 221.025 378.473 203.699 389.944 203.113L373.555 218.858C373.555 218.858 400.167 205.019 409.576 204.256L409.507 204.126C403.594 211.485 377.199 225.73 377.199 225.73L399.429 221.01C392.503 230.173 365.681 238.841 365.681 238.841L380.899 240.269C372.96 251.236 337.593 249.765 337.593 249.765L362.845 254.455C345.264 263.569 314.744 257.699 314.744 257.699L335.912 265.435C322.276 269.642 300.403 262.104 300.403 262.104" fill="#4573D2"/>
<path d="M300.334 261.977C300.334 261.977 303.173 258.336 309.362 255.533C315.988 252.533 330.967 245.528 339.43 240.801C350.19 234.794 347.343 229.549 360.445 226.004C385.58 219.203 407.58 207.306 409.576 204.257L409.507 204.127C403.594 211.486 377.199 225.731 377.199 225.731L399.429 221.011C392.503 230.174 365.681 238.842 365.681 238.842L380.899 240.27C372.96 251.237 337.593 249.766 337.593 249.766L362.845 254.456C345.264 263.569 314.744 257.699 314.744 257.699L335.912 265.436C322.276 269.643 300.403 262.105 300.403 262.105" fill="#393939" fill-opacity="0.18"/>
<path d="M243.234 202.606L231.528 202.275L227.596 213.305L224.294 202.07L212.589 201.739L222.254 195.126L218.952 183.891L228.227 191.039L237.891 184.426L233.959 195.456L243.234 202.606Z" fill="#E89C2E"/>
<path d="M243.234 202.605L231.528 202.274L227.596 213.305L224.294 202.07L212.589 201.739L222.254 195.126L218.952 183.891C218.949 183.153 224.518 189.8 225.525 193.175C226.561 196.647 228.382 198.696 232.585 199.312C236.788 199.927 243.234 202.605 243.234 202.605Z" fill="#393939" fill-opacity="0.18"/>
<path d="M337.153 59.5715L314.727 76.1692L323.581 102.627L300.866 86.4245L278.439 103.022L286.827 76.4122L264.111 60.2092L292.011 59.9634L300.399 33.3535L309.254 59.8118L337.153 59.5715Z" fill="#E89C2E"/>
<g opacity="0.18">
<path d="M337.153 59.5708C337.153 59.5708 325.819 63.1531 321.507 67.0319C317.195 70.9107 305.881 70.6489 302.75 71.992C299.823 73.2464 295.204 73.9325 292.118 84.5334C290.202 91.1204 281.222 97.1172 278.406 103.013L286.827 76.4153L264.111 60.2151L292.011 59.9693L300.398 33.3594L309.254 59.8177L337.153 59.5708Z" fill="#393939" fill-opacity="0.18"/>
</g>
<path d="M274.476 263.37C286.646 263.37 296.511 253.505 296.511 241.335C296.511 229.166 286.646 219.301 274.476 219.301C262.307 219.301 252.442 229.166 252.442 241.335C252.442 253.505 262.307 263.37 274.476 263.37Z" fill="#C98A30"/>
<path d="M253.48 235.769C256.652 224.02 299.198 235.507 296.026 247.255C294.503 252.897 290.801 257.703 285.735 260.615C280.668 263.528 274.652 264.309 269.01 262.785C263.368 261.262 258.562 257.56 255.65 252.494C252.737 247.427 251.957 241.411 253.48 235.769Z" fill="#393939" fill-opacity="0.18"/>
<path d="M233.931 102.783C240.417 102.783 245.675 97.5248 245.675 91.0388C245.675 84.5528 240.417 79.2949 233.931 79.2949C227.445 79.2949 222.187 84.5528 222.187 91.0388C222.187 97.5248 227.445 102.783 233.931 102.783Z" fill="#C98A30"/>
<path d="M238.215 80.2836C244.23 82.7118 235.437 104.492 229.423 102.064C226.534 100.898 224.228 98.6324 223.01 95.7657C221.792 92.8989 221.763 89.6657 222.929 86.7775C224.095 83.8892 226.36 81.5824 229.227 80.3646C232.094 79.1468 235.327 79.1176 238.215 80.2836Z" fill="#393939" fill-opacity="0.18"/>
<path d="M298.09 282.099C307.809 282.099 315.688 274.22 315.688 264.501C315.688 254.781 307.809 246.902 298.09 246.902C288.37 246.902 280.491 254.781 280.491 264.501C280.491 274.22 288.37 282.099 298.09 282.099Z" fill="#E89C2E"/>
<path d="M280.792 261.364C282.537 251.803 317.162 258.123 315.417 267.684C315.002 269.958 314.143 272.127 312.889 274.069C311.636 276.011 310.012 277.686 308.111 279.001C306.21 280.315 304.069 281.242 301.81 281.728C299.55 282.215 297.217 282.252 294.944 281.837C292.67 281.422 290.501 280.563 288.559 279.309C286.618 278.056 284.942 276.432 283.628 274.531C282.314 272.63 281.387 270.489 280.9 268.23C280.414 265.971 280.377 263.638 280.792 261.364Z" fill="#393939" fill-opacity="0.18"/>
<path d="M357.267 206.203L346.914 228.505L364.926 245.242L340.517 242.288L330.165 264.589L325.431 240.462L301.022 237.508L322.506 225.549L317.772 201.422L335.783 218.159L357.267 206.203Z" fill="#E89C2E"/>
<path d="M357.267 206.203L346.914 228.505L364.926 245.242L340.516 242.288L330.165 264.589L325.431 240.462L301.022 237.509C299.597 236.902 317.037 231.68 324.384 232.536C331.939 233.418 337.401 231.605 342.075 224.009C346.748 216.413 357.267 206.203 357.267 206.203Z" fill="#393939" fill-opacity="0.18"/>
<path d="M388.292 168.377C395.12 168.377 400.656 162.842 400.656 156.013C400.656 149.184 395.12 143.648 388.292 143.648C381.463 143.648 375.927 149.184 375.927 156.013C375.927 162.842 381.463 168.377 388.292 168.377Z" fill="#C98A30"/>
<path d="M378.303 162.998C374.415 157.385 394.745 143.307 398.633 148.921C399.557 150.256 400.21 151.76 400.553 153.347C400.896 154.934 400.923 156.573 400.633 158.17C400.342 159.768 399.74 161.292 398.861 162.657C397.981 164.022 396.841 165.2 395.507 166.125C394.172 167.049 392.668 167.701 391.081 168.044C389.494 168.387 387.855 168.415 386.257 168.124C384.66 167.834 383.135 167.232 381.77 166.352C380.406 165.473 379.227 164.333 378.303 162.998Z" fill="#393939" fill-opacity="0.18"/>
<path d="M206.854 164.539C210.838 164.539 214.067 161.309 214.067 157.325C214.067 153.341 210.838 150.111 206.854 150.111C202.87 150.111 199.64 153.341 199.64 157.325C199.64 161.309 202.87 164.539 206.854 164.539Z" fill="#C98A30"/>
<path d="M209.485 150.719C213.177 152.21 207.776 165.588 204.084 164.097C202.32 163.373 200.914 161.981 200.174 160.225C199.433 158.468 199.418 156.49 200.132 154.722C200.845 152.954 202.23 151.541 203.982 150.791C205.735 150.041 207.713 150.015 209.485 150.719Z" fill="#393939" fill-opacity="0.18"/>
<path d="M279.435 87.8628C283.419 87.8628 286.649 84.6332 286.649 80.6492C286.649 76.6652 283.419 73.4355 279.435 73.4355C275.451 73.4355 272.222 76.6652 272.222 80.6492C272.222 84.6332 275.451 87.8628 279.435 87.8628Z" fill="#C98A30"/>
<path d="M285.558 77.0328C287.568 80.4729 275.112 87.751 273.102 84.3115C272.137 82.6598 271.868 80.6923 272.353 78.8419C272.838 76.9914 274.039 75.4096 275.691 74.4444C277.342 73.4792 279.31 73.2097 281.16 73.6951C283.011 74.1805 284.593 75.3811 285.558 77.0328Z" fill="#393939" fill-opacity="0.18"/>
<path d="M302.119 95.7281C306.103 95.7281 309.332 92.4984 309.332 88.5144C309.332 84.5304 306.103 81.3008 302.119 81.3008C298.135 81.3008 294.905 84.5304 294.905 88.5144C294.905 92.4984 298.135 95.7281 302.119 95.7281Z" fill="#C98A30"/>
<path d="M308.316 91.9998C306.347 95.4631 293.805 88.3332 295.774 84.8699C296.727 83.2224 298.294 82.0185 300.131 81.5206C301.968 81.0228 303.928 81.2713 305.583 82.2121C307.237 83.1528 308.453 84.7095 308.965 86.5429C309.477 88.3763 309.244 90.3378 308.316 91.9998Z" fill="#393939" fill-opacity="0.18"/>
<path d="M347.024 94.14L361.647 100.14L371.871 88.0859L370.684 103.848L385.307 109.847L369.951 113.589L368.764 129.351L360.46 115.904L345.103 119.646L355.327 107.592L347.024 94.14Z" fill="#E89C2E"/>
<path d="M347.023 94.14L361.647 100.14L371.871 88.0859L370.685 103.848L385.308 109.847L369.951 113.589L368.765 129.351C368.417 130.284 364.556 119.236 364.891 114.493C365.237 109.616 363.915 106.161 358.901 103.379C353.886 100.598 347.023 94.14 347.023 94.14Z" fill="#393939" fill-opacity="0.18"/>
<path d="M367.671 214.447C371.655 214.447 374.885 211.217 374.885 207.233C374.885 203.249 371.655 200.02 367.671 200.02C363.687 200.02 360.458 203.249 360.458 207.233C360.458 211.217 363.687 214.447 367.671 214.447Z" fill="#C98A30"/>
<path d="M363.594 213.059C360.342 210.759 368.668 198.979 371.921 201.278C373.467 202.389 374.511 204.066 374.825 205.943C375.14 207.82 374.7 209.746 373.602 211.3C372.503 212.854 370.835 213.911 368.96 214.241C367.085 214.57 365.156 214.146 363.594 213.059Z" fill="#393939" fill-opacity="0.18"/>
<path d="M237.699 145.008L231.681 137.726L222.897 141.198L227.962 133.226L221.944 125.946L231.093 128.299L236.157 120.326L236.747 129.75L245.895 132.103L237.112 135.575L237.699 145.008Z" fill="#E89C2E"/>
<path d="M237.699 145.007L231.681 137.725L222.897 141.197L227.962 133.225L221.944 125.945L231.093 128.298L236.157 120.325C236.604 119.931 235.527 126.842 234.015 129.247C232.459 131.72 232.182 133.913 234.042 136.791C235.901 139.669 237.699 145.007 237.699 145.007Z" fill="#393939" fill-opacity="0.18"/>
<path d="M391.032 155.863L398.764 164.658L409.517 160.021L403.543 170.092L411.275 178.886L399.85 176.317L393.877 186.391L392.79 174.731L381.365 172.161L392.118 167.524L391.032 155.863Z" fill="#E89C2E"/>
<path d="M391.032 155.863L398.764 164.658L409.518 160.021L403.543 170.093L411.276 178.887L399.851 176.317L393.877 186.391C393.338 186.895 394.411 178.289 396.195 175.254C398.029 172.13 398.289 169.402 395.876 165.905C393.463 162.409 391.032 155.863 391.032 155.863Z" fill="#393939" fill-opacity="0.18"/>
<path d="M290.053 177.538V173.7C289.979 170.675 290.713 167.685 292.179 165.038C293.597 162.584 296.19 159.973 299.959 157.207C303.589 154.614 305.984 152.505 307.142 150.88C308.287 149.296 308.895 147.388 308.879 145.434C308.933 144.437 308.732 143.443 308.297 142.545C307.861 141.648 307.205 140.875 306.39 140.299C304.73 139.124 302.414 138.536 299.44 138.536C294.253 138.536 288.341 140.23 281.703 143.619L276.049 132.261C283.523 128.001 291.98 125.766 300.583 125.777C307.705 125.777 313.367 127.489 317.568 130.912C321.769 134.335 323.87 138.899 323.87 144.604C323.96 148.069 323.061 151.487 321.277 154.458C319.548 157.225 316.263 160.336 311.422 163.794C308.103 166.249 306.003 168.116 305.121 169.395C304.177 170.898 303.716 172.653 303.798 174.426V177.538H290.053Z" fill="#4573D2"/>
<path d="M296.692 173.342C296.802 168.511 298.258 167.335 301.156 163.871C304.531 159.833 310.617 158.304 311.15 155.442C312.114 150.264 313.111 149.309 315.606 147.374C319.643 144.241 319.626 137.267 315.19 137.042C309.967 136.778 310.417 133.639 308.53 131.341C305.397 127.523 299.605 126.534 295.88 126.03C295.8 126.019 298.466 125.779 300.649 125.779C307.771 125.779 313.433 127.491 317.634 130.914C321.835 134.337 323.936 138.901 323.936 144.606C324.026 148.071 323.127 151.489 321.343 154.46C319.614 157.227 316.329 160.338 311.488 163.796C308.169 166.25 306.069 168.118 305.187 169.397C304.243 170.9 303.782 172.655 303.864 174.428V177.54H296.878C296.738 176.145 296.676 174.743 296.692 173.342Z" fill="#4369B6"/>
<path d="M288.458 195.276C288.458 192.373 289.236 190.178 290.791 188.689C292.347 187.201 294.612 186.458 297.586 186.459C300.455 186.459 302.677 187.22 304.25 188.741C305.824 190.263 306.61 192.441 306.61 195.276C306.61 198.007 305.815 200.16 304.224 201.733C302.634 203.306 300.421 204.093 297.586 204.093C294.681 204.093 292.434 203.323 290.843 201.785C289.253 200.246 288.458 198.076 288.458 195.276Z" fill="#4573D2"/>
<path d="M298.825 191.289C300.452 188.882 294.655 186.406 297.628 186.406C300.498 186.406 302.72 187.167 304.293 188.688C305.866 190.21 306.652 192.388 306.653 195.223C306.653 197.954 305.857 200.107 304.267 201.68C302.676 203.253 300.463 204.04 297.628 204.04C295.899 204.04 300.179 202.552 297.896 199.652C295.48 196.587 296.595 194.588 298.825 191.289Z" fill="#4369B6"/>
</g>
<defs>
<clipPath id="clip0_9_51184">
<rect width="600" height="305.144" fill="white"/>
</clipPath>
</defs>
</svg>
