<svg width="160" height="133" viewBox="0 0 160 133" fill="none" xmlns="http://www.w3.org/2000/svg">
<g clip-path="url(#clip0_9_51128)">
<path d="M8.33294 29.6722C47.4 -10.4231 115.001 -16.4341 97.5726 55.0004C102.722 59.9332 106.91 23.9422 143.352 29.6722C162.221 32.6389 161.94 57.4969 157.506 67.9368C139.259 101.799 111.492 128.603 82.6137 129.47C59.6027 130.161 86.428 83.6027 80.1437 84.195C76.5579 84.5338 70.8063 122.707 40.929 130.782C8.44014 139.563 -4.95684 113.06 8.02783 79.4462C12.6403 59.2463 -12.3897 55.383 8.33294 29.6722Z" fill="#BEBEBE" fill-opacity="0.14"/>
<g filter="url(#filter0_d_9_51128)">
<path d="M60.8836 1.04794L6.80309 16.7886C5.61634 17.134 4.93489 18.3741 5.28103 19.5584L26.7997 93.1835C27.1459 94.3678 28.3885 95.0478 29.5753 94.7024L83.6558 78.9617C84.8425 78.6163 85.524 77.3762 85.1778 76.1919L63.6591 2.56683C63.313 1.38256 62.0703 0.70252 60.8836 1.04794Z" fill="#30384D"/>
</g>
<path d="M12.0068 24.9944L57.8502 7.04492L83.1948 71.5076L37.35 89.4573L12.0068 24.9944Z" fill="#CED3DF"/>
<g filter="url(#filter1_d_9_51128)">
<path d="M76.7586 65.8701L67.8914 80.2657L28.2937 89.6968L11.0625 17.6391L62.3061 5.43555L76.7586 65.8701Z" fill="white"/>
</g>
<path d="M42.5602 3.53927L23.9562 9.01789C23.3634 9.19246 23.0246 9.81356 23.1996 10.4051L24.9943 16.4745C25.1693 17.066 25.7917 17.4041 26.3845 17.2295L44.9885 11.7509C45.5813 11.5763 45.9201 10.9552 45.7452 10.3636L43.9504 4.29433C43.7754 3.70274 43.153 3.36469 42.5602 3.53927Z" fill="#B0B5C0"/>
<path d="M34.7691 12.049C33.6776 12.37 32.5031 12.2452 31.5039 11.702C30.5047 11.1588 29.7626 10.2418 29.4409 9.15266L28.4919 5.93877C28.1814 4.85297 28.3133 3.68873 28.8588 2.6995C29.4044 1.71028 30.3195 0.976182 31.4048 0.657022C32.4902 0.337861 33.658 0.459483 34.6539 0.99541C35.6498 1.53134 36.3933 2.43817 36.7224 3.5185L37.6714 6.73263C37.9929 7.8217 37.8678 8.99362 37.3235 9.99061C36.7792 10.9876 35.8604 11.728 34.7691 12.049ZM31.816 2.04987C31.4301 2.15849 31.1032 2.41535 30.9068 2.76414C30.7104 3.11293 30.6606 3.5252 30.7683 3.91058C30.8922 4.28868 31.159 4.6037 31.5119 4.78881C31.8647 4.97391 32.276 5.01453 32.6584 4.90206C33.0408 4.78959 33.3642 4.53286 33.5601 4.18636C33.756 3.83985 33.8088 3.43082 33.7075 3.04606C33.5886 2.66396 33.3227 2.34452 32.9681 2.15778C32.6135 1.97103 32.1992 1.93223 31.816 2.04987Z" fill="#CED3DF"/>
<path fill-rule="evenodd" clip-rule="evenodd" d="M55.9204 16.9916C55.9475 17.1046 55.8776 17.2181 55.7644 17.245L22.416 25.1867C22.3028 25.2136 22.1891 25.1439 22.1621 25.0309C22.135 24.9179 22.2049 24.8045 22.3181 24.7775L55.6665 16.8359C55.7797 16.8089 55.8934 16.8786 55.9204 16.9916Z" fill="#8A90A7"/>
<path fill-rule="evenodd" clip-rule="evenodd" d="M36.6348 23.9897C36.6618 24.1027 36.592 24.2161 36.4787 24.2431L22.8252 27.4945C22.7119 27.5214 22.5983 27.4517 22.5712 27.3387C22.5442 27.2257 22.6141 27.1123 22.7273 27.0853L36.3809 23.8339C36.4941 23.807 36.6078 23.8767 36.6348 23.9897Z" fill="#8A90A7"/>
<path fill-rule="evenodd" clip-rule="evenodd" d="M45.5529 24.2573C45.58 24.3702 45.5101 24.4837 45.3969 24.5107L23.4843 29.729C23.3711 29.756 23.2574 29.6862 23.2304 29.5733C23.2034 29.4603 23.2733 29.3468 23.3865 29.3199L45.299 24.1015C45.4122 24.0745 45.5259 24.1443 45.5529 24.2573Z" fill="#8A90A7"/>
<path fill-rule="evenodd" clip-rule="evenodd" d="M52.3741 32.1381C52.4011 32.2511 52.3312 32.3645 52.218 32.3915L26.2353 38.579C26.1221 38.6059 26.0084 38.5362 25.9814 38.4232C25.9544 38.3102 26.0243 38.1968 26.1375 38.1698L52.1202 31.9824C52.2334 31.9554 52.3471 32.0251 52.3741 32.1381Z" fill="#8A90A7"/>
<path fill-rule="evenodd" clip-rule="evenodd" d="M56.6044 33.5366C56.6314 33.6495 56.5615 33.763 56.4483 33.7899L26.6445 40.8874C26.5313 40.9144 26.4176 40.8446 26.3906 40.7317C26.3636 40.6187 26.4334 40.5052 26.5467 40.4783L56.3504 33.3808C56.4636 33.3538 56.5773 33.4236 56.6044 33.5366Z" fill="#8A90A7"/>
<path fill-rule="evenodd" clip-rule="evenodd" d="M60.8081 34.9252C60.8352 35.0382 60.7653 35.1517 60.6521 35.1786L27.3037 43.1203C27.1905 43.1472 27.0768 43.0775 27.0497 42.9645C27.0227 42.8515 27.0926 42.7381 27.2058 42.7111L60.5542 34.7695C60.6674 34.7425 60.7811 34.8122 60.8081 34.9252Z" fill="#8A90A7"/>
<path fill-rule="evenodd" clip-rule="evenodd" d="M47.7362 46.2729C47.7632 46.3859 47.6933 46.4993 47.5801 46.5263L29.7031 50.7835C29.5899 50.8105 29.4762 50.7408 29.4492 50.6278C29.4221 50.5148 29.492 50.4014 29.6052 50.3744L47.4823 46.1171C47.5955 46.0902 47.7092 46.1599 47.7362 46.2729Z" fill="#8A90A7"/>
<path fill-rule="evenodd" clip-rule="evenodd" d="M63.6167 44.8959C63.6438 45.0089 63.5739 45.1224 63.4607 45.1493L30.1123 53.091C29.999 53.1179 29.8854 53.0482 29.8583 52.9352C29.8313 52.8222 29.9012 52.7088 30.0144 52.6818L63.3628 44.7402C63.476 44.7132 63.5897 44.7829 63.6167 44.8959Z" fill="#8A90A7"/>
<path fill-rule="evenodd" clip-rule="evenodd" d="M57.7955 48.6733C57.8225 48.7863 57.7526 48.8997 57.6394 48.9267L30.7724 55.3249C30.6592 55.3519 30.5455 55.2821 30.5185 55.1692C30.4915 55.0562 30.5614 54.9427 30.6746 54.9158L57.5415 48.5175C57.6548 48.4905 57.7684 48.5603 57.7955 48.6733Z" fill="#8A90A7"/>
<path fill-rule="evenodd" clip-rule="evenodd" d="M55.7481 57.3959C55.7751 57.5089 55.7052 57.6224 55.592 57.6493L33.1718 62.9885C33.0586 63.0154 32.9449 62.9457 32.9179 62.8327C32.8909 62.7197 32.9608 62.6063 33.074 62.5793L55.4941 57.2402C55.6074 57.2132 55.721 57.2829 55.7481 57.3959Z" fill="#8A90A7"/>
<path fill-rule="evenodd" clip-rule="evenodd" d="M67.0855 57.101C67.1125 57.214 67.0426 57.3274 66.9294 57.3544L33.581 65.2961C33.4678 65.323 33.3541 65.2533 33.3271 65.1403C33.3001 65.0273 33.37 64.9139 33.4832 64.8869L66.8316 56.9452C66.9448 56.9183 67.0585 56.988 67.0855 57.101Z" fill="#8A90A7"/>
<path fill-rule="evenodd" clip-rule="evenodd" d="M46.8959 64.3002C46.9229 64.4132 46.853 64.5267 46.7398 64.5536L34.2402 67.5303C34.127 67.5573 34.0133 67.4875 33.9863 67.3746C33.9593 67.2616 34.0291 67.1481 34.1424 67.1212L46.642 64.1445C46.7552 64.1175 46.8689 64.1872 46.8959 64.3002Z" fill="#8A90A7"/>
<path fill-rule="evenodd" clip-rule="evenodd" d="M62.9159 68.7299C62.9429 68.8429 62.873 68.9563 62.7598 68.9833L36.2656 75.2927C36.1524 75.3197 36.0387 75.25 36.0117 75.137C35.9846 75.024 36.0545 74.9105 36.1677 74.8836L62.6619 68.5742C62.7752 68.5472 62.8888 68.6169 62.9159 68.7299Z" fill="#8A90A7"/>
<path fill-rule="evenodd" clip-rule="evenodd" d="M59.6298 71.9174C59.6568 72.0304 59.587 72.1438 59.4737 72.1708L36.6748 77.6002C36.5615 77.6272 36.4479 77.5574 36.4208 77.4445C36.3938 77.3315 36.4637 77.218 36.5769 77.1911L59.3759 71.7617C59.4891 71.7347 59.6028 71.8044 59.6298 71.9174Z" fill="#8A90A7"/>
<path fill-rule="evenodd" clip-rule="evenodd" d="M68.0529 72.3022C68.0799 72.4152 68.0101 72.5286 67.8968 72.5556L37.3339 79.8338C37.2207 79.8608 37.107 79.7911 37.08 79.6781C37.053 79.5651 37.1229 79.4516 37.2361 79.4247L67.799 72.1464C67.9122 72.1195 68.0259 72.1892 68.0529 72.3022Z" fill="#8A90A7"/>
<path d="M99.1567 125.508C124.855 125.508 145.687 105.1 145.687 79.9258C145.687 54.7515 124.855 34.3438 99.1567 34.3438C73.4585 34.3438 52.626 54.7515 52.626 79.9258C52.626 105.1 73.4585 125.508 99.1567 125.508Z" fill="#4573D2"/>
<path d="M99.1565 118.836C121.093 118.836 138.876 101.415 138.876 79.9257C138.876 58.4363 121.093 41.0156 99.1565 41.0156C77.2197 41.0156 59.4365 58.4363 59.4365 79.9257C59.4365 101.415 77.2197 118.836 99.1565 118.836Z" fill="white"/>
<path d="M134.274 83.7426C136.703 45.9684 98.8203 40.7246 98.8203 40.7246C120.757 40.7246 138.54 58.1453 138.54 79.6347C138.54 101.124 120.757 118.544 98.8203 118.544C98.8203 118.544 132.296 114.501 134.274 83.7426Z" fill="#393939" fill-opacity="0.18"/>
<path d="M142.54 79.9258C142.54 42.7407 99.1562 34.3438 99.1562 34.3438C124.854 34.3438 145.687 54.7515 145.687 79.9258C145.687 105.1 124.853 125.508 99.1562 125.508C99.1562 125.508 142.54 117.974 142.54 79.9258Z" fill="#4369B6"/>
<path d="M72.7013 64.6552L64.7882 60.4004L63.8867 62.0065L71.795 66.2584C72.0809 65.7122 72.3846 65.1812 72.7013 64.6552Z" fill="#7B8093"/>
<path d="M84.013 53.7444L79.3322 46.1973L77.7314 47.1484L82.4123 54.6961C82.9362 54.363 83.4697 54.0458 84.013 53.7444Z" fill="#7B8093"/>
<path d="M99.1564 49.8177C99.4717 49.8177 99.7799 49.8547 100.094 49.8639V41.0156H98.2217V49.8639C98.535 49.8547 98.8411 49.8177 99.1564 49.8177Z" fill="#7B8093"/>
<path d="M114.744 54.0096L119.087 46.2579L117.448 45.375L113.106 53.1216C113.665 53.4006 114.207 53.6988 114.744 54.0096Z" fill="#7B8093"/>
<path d="M125.883 65.0933L133.587 60.5085L132.617 58.9414L124.912 63.5269C125.252 64.0384 125.575 64.5605 125.883 65.0933Z" fill="#7B8093"/>
<path d="M68.4221 79.9256C68.4221 79.6165 68.4597 79.3167 68.4691 79.0098H59.4365V80.8439H68.4691C68.4597 80.536 68.4221 80.2354 68.4221 79.9256Z" fill="#7B8093"/>
<path d="M114.298 106.108L118.979 113.655L120.579 112.704L115.899 105.156C115.376 105.489 114.842 105.806 114.298 106.108Z" fill="#7B8093"/>
<path d="M125.612 95.1962L133.525 99.4518L134.427 97.8457L126.52 93.5938C126.234 94.1388 125.929 94.6705 125.612 95.1962Z" fill="#7B8093"/>
<path d="M129.844 79.0098C129.853 79.3167 129.892 79.6165 129.892 79.9256C129.892 80.2347 129.854 80.536 129.844 80.8439H138.876V79.0098H129.844Z" fill="#7B8093"/>
<path d="M72.4303 94.7598L64.7266 99.3447L65.6967 100.912L73.4017 96.3264C73.0617 95.8149 72.7379 95.2927 72.4303 94.7598Z" fill="#7B8093"/>
<path d="M83.5689 105.842L79.2256 113.594L80.8649 114.477L85.2062 106.73C84.6484 106.452 84.1056 106.153 83.5689 105.842Z" fill="#7B8093"/>
<path d="M99.1564 110.033C98.8411 110.033 98.535 109.996 98.2217 109.987V118.835H100.093V109.986C99.7799 109.996 99.4729 110.033 99.1564 110.033Z" fill="#7B8093"/>
<g filter="url(#filter2_d_9_51128)">
<path d="M98.2781 83.3372C97.5519 82.9568 97.4198 81.8125 97.9829 80.7812L109.36 63.043L100.612 82.1591C100.049 83.1901 99.0042 83.7177 98.2781 83.3372Z" fill="#444C61"/>
</g>
<g filter="url(#filter3_d_9_51128)">
<path d="M98.6871 83.4444C97.4458 83.4423 96.4643 82 96.4948 80.2228L99.2883 48.4688L100.99 80.2313C100.958 82.0078 99.9274 83.4466 98.6871 83.4444Z" fill="#444C61"/>
</g>
<path d="M99.157 83.7096C100.967 83.7096 102.434 82.2723 102.434 80.4993C102.434 78.7263 100.967 77.2891 99.157 77.2891C97.3471 77.2891 95.8799 78.7263 95.8799 80.4993C95.8799 82.2723 97.3471 83.7096 99.157 83.7096Z" fill="#4369B6"/>
</g>
<defs>
<filter id="filter0_d_9_51128" x="5.19043" y="0.957031" width="92.6721" height="106.431" filterUnits="userSpaceOnUse" color-interpolation-filters="sRGB">
<feFlood flood-opacity="0" result="BackgroundImageFix"/>
<feColorMatrix in="SourceAlpha" type="matrix" values="0 0 0 0 0 0 0 0 0 0 0 0 0 0 0 0 0 0 127 0" result="hardAlpha"/>
<feOffset dx="7.133" dy="7.133"/>
<feGaussianBlur stdDeviation="2.731"/>
<feColorMatrix type="matrix" values="0 0 0 0 0 0 0 0 0 0 0 0 0 0 0 0 0 0 0.22 0"/>
<feBlend mode="normal" in2="BackgroundImageFix" result="effect1_dropShadow_9_51128"/>
<feBlend mode="normal" in="SourceGraphic" in2="effect1_dropShadow_9_51128" result="shape"/>
</filter>
<filter id="filter1_d_9_51128" x="11.0625" y="5.43555" width="78.2913" height="96.8567" filterUnits="userSpaceOnUse" color-interpolation-filters="sRGB">
<feFlood flood-opacity="0" result="BackgroundImageFix"/>
<feColorMatrix in="SourceAlpha" type="matrix" values="0 0 0 0 0 0 0 0 0 0 0 0 0 0 0 0 0 0 127 0" result="hardAlpha"/>
<feOffset dx="7.133" dy="7.133"/>
<feGaussianBlur stdDeviation="2.731"/>
<feColorMatrix type="matrix" values="0 0 0 0 0 0 0 0 0 0 0 0 0 0 0 0 0 0 0.22 0"/>
<feBlend mode="normal" in2="BackgroundImageFix" result="effect1_dropShadow_9_51128"/>
<feBlend mode="normal" in="SourceGraphic" in2="effect1_dropShadow_9_51128" result="shape"/>
</filter>
<filter id="filter2_d_9_51128" x="97.6338" y="63.043" width="21.5906" height="30.283" filterUnits="userSpaceOnUse" color-interpolation-filters="sRGB">
<feFlood flood-opacity="0" result="BackgroundImageFix"/>
<feColorMatrix in="SourceAlpha" type="matrix" values="0 0 0 0 0 0 0 0 0 0 0 0 0 0 0 0 0 0 127 0" result="hardAlpha"/>
<feOffset dx="7.133" dy="7.133"/>
<feGaussianBlur stdDeviation="1.366"/>
<feColorMatrix type="matrix" values="0 0 0 0 0 0 0 0 0 0 0 0 0 0 0 0 0 0 0.22 0"/>
<feBlend mode="normal" in2="BackgroundImageFix" result="effect1_dropShadow_9_51128"/>
<feBlend mode="normal" in="SourceGraphic" in2="effect1_dropShadow_9_51128" result="shape"/>
</filter>
<filter id="filter3_d_9_51128" x="96.4941" y="48.4688" width="14.3611" height="44.8416" filterUnits="userSpaceOnUse" color-interpolation-filters="sRGB">
<feFlood flood-opacity="0" result="BackgroundImageFix"/>
<feColorMatrix in="SourceAlpha" type="matrix" values="0 0 0 0 0 0 0 0 0 0 0 0 0 0 0 0 0 0 127 0" result="hardAlpha"/>
<feOffset dx="7.133" dy="7.133"/>
<feGaussianBlur stdDeviation="1.366"/>
<feColorMatrix type="matrix" values="0 0 0 0 0 0 0 0 0 0 0 0 0 0 0 0 0 0 0.22 0"/>
<feBlend mode="normal" in2="BackgroundImageFix" result="effect1_dropShadow_9_51128"/>
<feBlend mode="normal" in="SourceGraphic" in2="effect1_dropShadow_9_51128" result="shape"/>
</filter>
<clipPath id="clip0_9_51128">
<rect width="160" height="132.48" fill="white"/>
</clipPath>
</defs>
</svg>
