<svg width="160" height="133" viewBox="0 0 160 133" fill="none" xmlns="http://www.w3.org/2000/svg">
<g clip-path="url(#clip0_9_51237)">
<path d="M8.33301 29.7334C47.3982 -10.4457 115.001 -16.468 97.5727 55.1141C102.722 60.0573 106.909 23.9913 143.354 29.7334C162.223 32.7061 161.941 57.6158 157.508 68.0775C139.26 102.009 111.495 128.87 82.6152 129.739C59.6045 130.431 86.4296 83.7759 80.1453 84.3694C76.5595 84.7083 70.8084 122.962 40.9307 131.054C8.43966 139.853 -4.95702 113.295 8.02696 79.6107C12.6402 59.369 -12.3897 55.4977 8.33301 29.7334Z" fill="#BEBEBE" fill-opacity="0.14"/>
<g filter="url(#filter0_d_9_51237)">
<path d="M60.8365 0.89231L6.80044 16.8165C5.61462 17.1659 4.93661 18.4105 5.28607 19.5963L27.0104 93.3142C27.3598 94.5 28.6044 95.178 29.7902 94.8285L83.8262 78.9044C85.0121 78.5549 85.6901 77.3103 85.3406 76.1245L63.6163 2.40668C63.2669 1.22086 62.0223 0.542854 60.8365 0.89231Z" fill="#30384D"/>
</g>
<path d="M12.0068 25.046L57.8482 7.06055L83.1921 71.6575L37.3488 89.6429L12.0068 25.046Z" fill="#CED3DF"/>
<g filter="url(#filter1_d_9_51237)">
<path d="M76.7584 66.0069L67.8912 80.4324L28.2934 89.8822L11.0625 17.6764L62.3065 5.44727L76.7584 66.0069Z" fill="white"/>
</g>
<path d="M42.5638 3.5526L23.9554 9.03711C23.3625 9.21185 23.0235 9.83416 23.1982 10.4271L24.9913 16.5106C25.166 17.1035 25.7883 17.4425 26.3812 17.2677L44.9896 11.7832C45.5825 11.6085 45.9215 10.9862 45.7467 10.3933L43.9537 4.30973C43.779 3.71683 43.1567 3.37785 42.5638 3.5526Z" fill="#B0B5C0"/>
<path d="M34.7679 12.0732C33.6765 12.3949 32.502 12.2698 31.5028 11.7255C30.5036 11.1813 29.7615 10.2624 29.4398 9.17105L28.4905 5.95022C28.3291 5.40919 28.2761 4.84163 28.3345 4.28007C28.393 3.71851 28.5616 3.17401 28.8309 2.67777C29.1002 2.18153 29.4647 1.74331 29.9037 1.38825C30.3426 1.03318 30.8474 0.768242 31.3889 0.608624C31.9305 0.449007 32.4982 0.397847 33.0596 0.458078C33.6209 0.51831 34.1649 0.688747 34.6603 0.95962C35.1556 1.23049 35.5926 1.59648 35.9463 2.03658C36.2999 2.47669 36.5632 2.98227 36.7211 3.52434L37.6704 6.74516C37.992 7.8366 37.8669 9.01111 37.3226 10.0103C36.7783 11.0095 35.8593 11.7516 34.7679 12.0732ZM31.815 2.05338C31.4291 2.16226 31.1021 2.41968 30.9057 2.76922C30.7092 3.11876 30.6594 3.53192 30.767 3.91817C30.8914 4.29657 31.1582 4.61168 31.511 4.79676C31.8637 4.98184 32.2746 5.02236 32.6567 4.90973C33.0387 4.79709 33.362 4.54016 33.5579 4.19334C33.7538 3.84652 33.807 3.43706 33.7063 3.05169C33.5875 2.66878 33.3216 2.34864 32.9671 2.16149C32.6125 1.97434 32.1982 1.93546 31.815 2.05338Z" fill="#CED3DF"/>
<path fill-rule="evenodd" clip-rule="evenodd" d="M55.9195 17.0272C55.9465 17.1404 55.8766 17.2541 55.7634 17.2812L22.4151 25.2395C22.3018 25.2665 22.1881 25.1966 22.1611 25.0834C22.1341 24.9701 22.204 24.8564 22.3172 24.8294L55.6655 16.871C55.7787 16.844 55.8925 16.9139 55.9195 17.0272Z" fill="#8A90A7"/>
<path fill-rule="evenodd" clip-rule="evenodd" d="M36.6338 24.0389C36.6608 24.1521 36.5909 24.2659 36.4776 24.2929L22.8243 27.5511C22.711 27.5782 22.5973 27.5083 22.5703 27.395C22.5432 27.2818 22.6131 27.168 22.7264 27.141L36.3798 23.8828C36.493 23.8557 36.6067 23.9256 36.6338 24.0389Z" fill="#8A90A7"/>
<path fill-rule="evenodd" clip-rule="evenodd" d="M45.553 24.3065C45.58 24.4197 45.5101 24.5334 45.3969 24.5605L23.4844 29.7895C23.3712 29.8165 23.2574 29.7466 23.2304 29.6334C23.2034 29.5201 23.2733 29.4064 23.3865 29.3794L45.299 24.1503C45.4122 24.1233 45.526 24.1932 45.553 24.3065Z" fill="#8A90A7"/>
<path fill-rule="evenodd" clip-rule="evenodd" d="M52.3731 32.2049C52.4001 32.3182 52.3302 32.4319 52.2169 32.4589L26.2344 38.6594C26.1212 38.6864 26.0074 38.6165 25.9804 38.5033C25.9534 38.39 26.0233 38.2763 26.1365 38.2493L52.1191 32.0488C52.2323 32.0217 52.346 32.0916 52.3731 32.2049Z" fill="#8A90A7"/>
<path fill-rule="evenodd" clip-rule="evenodd" d="M56.6033 33.6053C56.6303 33.7185 56.5604 33.8323 56.4471 33.8593L26.6436 40.9717C26.5303 40.9987 26.4166 40.9288 26.3896 40.8155C26.3626 40.7023 26.4325 40.5886 26.5457 40.5615L56.3492 33.4492C56.4625 33.4221 56.5762 33.492 56.6033 33.6053Z" fill="#8A90A7"/>
<path fill-rule="evenodd" clip-rule="evenodd" d="M60.8082 34.9979C60.8352 35.1111 60.7653 35.2248 60.652 35.2519L27.3038 43.2102C27.1905 43.2372 27.0768 43.1673 27.0498 43.0541C27.0227 42.9408 27.0926 42.8271 27.2059 42.8001L60.5542 34.8417C60.6674 34.8147 60.7811 34.8846 60.8082 34.9979Z" fill="#8A90A7"/>
<path fill-rule="evenodd" clip-rule="evenodd" d="M47.7364 46.369C47.7635 46.4822 47.6936 46.5959 47.5803 46.623L29.7032 50.8891C29.5899 50.9162 29.4762 50.8463 29.4492 50.733C29.4221 50.6197 29.492 50.506 29.6053 50.479L47.4824 46.2128C47.5957 46.1858 47.7094 46.2557 47.7364 46.369Z" fill="#8A90A7"/>
<path fill-rule="evenodd" clip-rule="evenodd" d="M63.6168 44.9901C63.6438 45.1033 63.5739 45.217 63.4606 45.2441L30.1123 53.2024C29.9991 53.2294 29.8854 53.1595 29.8583 53.0463C29.8313 52.933 29.9012 52.8193 30.0145 52.7922L63.3628 44.8339C63.476 44.8069 63.5897 44.8768 63.6168 44.9901Z" fill="#8A90A7"/>
<path fill-rule="evenodd" clip-rule="evenodd" d="M57.7945 48.7752C57.8216 48.8885 57.7517 49.0022 57.6384 49.0292L30.7715 55.4407C30.6583 55.4677 30.5446 55.3978 30.5175 55.2846C30.4905 55.1713 30.5604 55.0576 30.6737 55.0306L57.5405 48.6191C57.6538 48.5921 57.7675 48.662 57.7945 48.7752Z" fill="#8A90A7"/>
<path fill-rule="evenodd" clip-rule="evenodd" d="M55.7473 57.5155C55.7743 57.6287 55.7044 57.7424 55.5912 57.7695L33.1709 63.1197C33.0577 63.1467 32.944 63.0768 32.9169 62.9636C32.8899 62.8503 32.9598 62.7366 33.0731 62.7096L55.4933 57.3593C55.6065 57.3323 55.7203 57.4022 55.7473 57.5155Z" fill="#8A90A7"/>
<path fill-rule="evenodd" clip-rule="evenodd" d="M67.0845 57.2186C67.1116 57.3318 67.0417 57.4456 66.9284 57.4726L33.5801 65.4309C33.4669 65.4579 33.3531 65.388 33.3261 65.2748C33.2991 65.1615 33.369 65.0478 33.4822 65.0208L66.8305 57.0624C66.9438 57.0354 67.0575 57.1053 67.0845 57.2186Z" fill="#8A90A7"/>
<path fill-rule="evenodd" clip-rule="evenodd" d="M46.8958 64.4334C46.9228 64.5467 46.8529 64.6604 46.7397 64.6874L34.2403 67.6704C34.127 67.6975 34.0133 67.6276 33.9863 67.5143C33.9592 67.401 34.0291 67.2873 34.1424 67.2603L46.6418 64.2773C46.7551 64.2503 46.8688 64.3202 46.8958 64.4334Z" fill="#8A90A7"/>
<path fill-rule="evenodd" clip-rule="evenodd" d="M62.9148 68.8729C62.9418 68.9861 62.8719 69.0998 62.7586 69.1269L36.2647 75.4493C36.1514 75.4763 36.0377 75.4064 36.0107 75.2931C35.9837 75.1799 36.0536 75.0662 36.1668 75.0391L62.6608 68.7167C62.774 68.6897 62.8877 68.7596 62.9148 68.8729Z" fill="#8A90A7"/>
<path fill-rule="evenodd" clip-rule="evenodd" d="M59.6288 72.0662C59.6558 72.1795 59.5859 72.2932 59.4727 72.3202L36.6739 77.7609C36.5606 77.7879 36.4469 77.718 36.4199 77.6048C36.3928 77.4915 36.4627 77.3778 36.576 77.3508L59.3748 71.9101C59.4881 71.8831 59.6018 71.953 59.6288 72.0662Z" fill="#8A90A7"/>
<path fill-rule="evenodd" clip-rule="evenodd" d="M68.0528 72.451C68.0799 72.5643 68.01 72.678 67.8967 72.705L37.334 79.9985C37.2208 80.0256 37.1071 79.9557 37.08 79.8424C37.053 79.7292 37.1229 79.6154 37.2362 79.5884L67.7988 72.2949C67.9121 72.2678 68.0258 72.3377 68.0528 72.451Z" fill="#8A90A7"/>
<path d="M99.1566 125.768C124.855 125.768 145.687 105.318 145.687 80.0912C145.687 54.8644 124.855 34.4141 99.1566 34.4141C73.4585 34.4141 52.626 54.8644 52.626 80.0912C52.626 105.318 73.4585 125.768 99.1566 125.768Z" fill="#4573D2"/>
<path d="M99.1562 119.082C121.093 119.082 138.876 101.625 138.876 80.0906C138.876 58.5565 121.093 41.0996 99.1562 41.0996C77.2196 41.0996 59.4365 58.5565 59.4365 80.0906C59.4365 101.625 77.2196 119.082 99.1562 119.082Z" fill="white"/>
<path d="M134.274 83.9161C136.703 46.0632 98.8203 40.8066 98.8203 40.8066C120.757 40.8066 138.54 58.2638 138.54 79.798C138.54 101.332 120.757 118.791 98.8203 118.791C98.8203 118.791 132.295 114.738 134.274 83.9161Z" fill="#393939" fill-opacity="0.18"/>
<path d="M142.54 80.0918C142.54 42.8291 99.1562 34.416 99.1562 34.416C124.854 34.416 145.687 54.8661 145.687 80.0918C145.687 105.317 124.854 125.768 99.1562 125.768C99.1562 125.769 142.54 118.219 142.54 80.0918Z" fill="#4369B6"/>
<path d="M72.7009 64.7892L64.7873 60.5254L63.8857 62.1348L71.794 66.3957C72.0792 65.8488 72.384 65.3162 72.7009 64.7892Z" fill="#7B8093"/>
<path d="M84.0144 53.8535L79.3339 46.291L77.7344 47.2439L82.4152 54.8074C82.9372 54.4736 83.4703 54.1556 84.0144 53.8535Z" fill="#7B8093"/>
<path d="M99.1567 49.9198C99.473 49.9198 99.7801 49.9569 100.094 49.9662V41.0977H98.2217V49.9645C98.535 49.9569 98.8411 49.9198 99.1567 49.9198Z" fill="#7B8093"/>
<path d="M114.745 54.1213L119.088 46.3534L117.448 45.4688L113.109 53.2316C113.665 53.5112 114.207 53.81 114.745 54.1213Z" fill="#7B8093"/>
<path d="M125.883 65.2272L133.587 60.6328L132.616 59.0625L124.911 63.6576C125.251 64.1701 125.575 64.6933 125.883 65.2272Z" fill="#7B8093"/>
<path d="M68.4223 80.0897C68.4223 79.7797 68.4601 79.4793 68.4693 79.1719H59.4365V81.0092H68.4693C68.4601 80.7011 68.4223 80.4001 68.4223 80.0897Z" fill="#7B8093"/>
<path d="M114.298 106.327L118.978 113.889L120.578 112.937L115.895 105.373C115.374 105.707 114.842 106.025 114.298 106.327Z" fill="#7B8093"/>
<path d="M125.611 95.3919L133.524 99.6554L134.426 98.046L126.518 93.7852C126.233 94.332 125.928 94.865 125.611 95.3919Z" fill="#7B8093"/>
<path d="M129.844 79.1719C129.854 79.4793 129.891 79.7797 129.891 80.0897C129.891 80.3997 129.853 80.7011 129.844 81.0098H138.877V79.1719H129.844Z" fill="#7B8093"/>
<path d="M72.4305 94.9551L64.7266 99.5495L65.6974 101.12L73.4023 96.5247C73.0623 96.0122 72.7383 95.489 72.4305 94.9551Z" fill="#7B8093"/>
<path d="M83.5679 106.061L79.2246 113.828L80.8642 114.713L85.2032 106.95C84.6477 106.671 84.1052 106.372 83.5679 106.061Z" fill="#7B8093"/>
<path d="M99.1567 110.261C98.8411 110.261 98.535 110.224 98.2217 110.215V119.082H100.094V110.215C99.7801 110.224 99.473 110.261 99.1567 110.261Z" fill="#7B8093"/>
<g filter="url(#filter2_d_9_51237)">
<path d="M98.278 83.5106C97.5519 83.1294 97.4198 81.9824 97.9829 80.9493L109.359 63.1738L100.612 82.3298C100.049 83.3626 99.003 83.8925 98.278 83.5106Z" fill="#444C61"/>
</g>
<g filter="url(#filter3_d_9_51237)">
<path d="M98.6853 83.6178C97.4438 83.6158 96.4624 82.1704 96.4929 80.3894L99.2864 48.5684L100.988 80.399C100.957 82.178 99.9267 83.6201 98.6853 83.6178Z" fill="#444C61"/>
</g>
<path d="M99.157 83.8829C100.967 83.8829 102.434 82.4427 102.434 80.6661C102.434 78.8894 100.967 77.4492 99.157 77.4492C97.3471 77.4492 95.8799 78.8894 95.8799 80.6661C95.8799 82.4427 97.3471 83.8829 99.157 83.8829Z" fill="#4369B6"/>
</g>
<defs>
<filter id="filter0_d_9_51237" x="5.19434" y="0.800781" width="89.4613" height="103.342" filterUnits="userSpaceOnUse" color-interpolation-filters="sRGB">
<feFlood flood-opacity="0" result="BackgroundImageFix"/>
<feColorMatrix in="SourceAlpha" type="matrix" values="0 0 0 0 0 0 0 0 0 0 0 0 0 0 0 0 0 0 127 0" result="hardAlpha"/>
<feOffset dx="5.223" dy="5.223"/>
<feGaussianBlur stdDeviation="2"/>
<feColorMatrix type="matrix" values="0 0 0 0 0 0 0 0 0 0 0 0 0 0 0 0 0 0 0.22 0"/>
<feBlend mode="normal" in2="BackgroundImageFix" result="effect1_dropShadow_9_51237"/>
<feBlend mode="normal" in="SourceGraphic" in2="effect1_dropShadow_9_51237" result="shape"/>
</filter>
<filter id="filter1_d_9_51237" x="11.0625" y="5.44727" width="74.9193" height="93.6585" filterUnits="userSpaceOnUse" color-interpolation-filters="sRGB">
<feFlood flood-opacity="0" result="BackgroundImageFix"/>
<feColorMatrix in="SourceAlpha" type="matrix" values="0 0 0 0 0 0 0 0 0 0 0 0 0 0 0 0 0 0 127 0" result="hardAlpha"/>
<feOffset dx="5.223" dy="5.223"/>
<feGaussianBlur stdDeviation="2"/>
<feColorMatrix type="matrix" values="0 0 0 0 0 0 0 0 0 0 0 0 0 0 0 0 0 0 0.22 0"/>
<feBlend mode="normal" in2="BackgroundImageFix" result="effect1_dropShadow_9_51237"/>
<feBlend mode="normal" in="SourceGraphic" in2="effect1_dropShadow_9_51237" result="shape"/>
</filter>
<filter id="filter2_d_9_51237" x="97.6338" y="63.1738" width="18.9486" height="27.6839" filterUnits="userSpaceOnUse" color-interpolation-filters="sRGB">
<feFlood flood-opacity="0" result="BackgroundImageFix"/>
<feColorMatrix in="SourceAlpha" type="matrix" values="0 0 0 0 0 0 0 0 0 0 0 0 0 0 0 0 0 0 127 0" result="hardAlpha"/>
<feOffset dx="5.223" dy="5.223"/>
<feGaussianBlur stdDeviation="1"/>
<feColorMatrix type="matrix" values="0 0 0 0 0 0 0 0 0 0 0 0 0 0 0 0 0 0 0.22 0"/>
<feBlend mode="normal" in2="BackgroundImageFix" result="effect1_dropShadow_9_51237"/>
<feBlend mode="normal" in="SourceGraphic" in2="effect1_dropShadow_9_51237" result="shape"/>
</filter>
<filter id="filter3_d_9_51237" x="96.4922" y="48.5684" width="11.7191" height="42.2718" filterUnits="userSpaceOnUse" color-interpolation-filters="sRGB">
<feFlood flood-opacity="0" result="BackgroundImageFix"/>
<feColorMatrix in="SourceAlpha" type="matrix" values="0 0 0 0 0 0 0 0 0 0 0 0 0 0 0 0 0 0 127 0" result="hardAlpha"/>
<feOffset dx="5.223" dy="5.223"/>
<feGaussianBlur stdDeviation="1"/>
<feColorMatrix type="matrix" values="0 0 0 0 0 0 0 0 0 0 0 0 0 0 0 0 0 0 0.22 0"/>
<feBlend mode="normal" in2="BackgroundImageFix" result="effect1_dropShadow_9_51237"/>
<feBlend mode="normal" in="SourceGraphic" in2="effect1_dropShadow_9_51237" result="shape"/>
</filter>
<clipPath id="clip0_9_51237">
<rect width="160" height="132.756" fill="white"/>
</clipPath>
</defs>
</svg>
