<svg width="600" height="341" viewBox="0 0 600 341" fill="none" xmlns="http://www.w3.org/2000/svg">
<g clip-path="url(#clip0_9_51201)">
<path d="M600 255.57C600 211.207 556.852 192.4 511.45 187.291C479.176 183.659 454.486 175.648 434.653 164.884C340.194 113.631 355.673 0 184.181 0C113.042 0 0.143961 54.6636 0.143961 158.976C-2.44194 253.395 25.488 356.006 391.554 339.011C503.481 333.819 600 355.986 600 255.57Z" fill="#BEBEBE" fill-opacity="0.14"/>
<path d="M498.644 80.8112C497.634 80.0647 495.586 81.126 494.07 83.179C492.555 85.232 492.143 87.5031 493.153 88.2473C493.63 88.6004 494.821 87.8898 495.813 87.2242C496.209 86.9578 496.68 86.8265 497.156 86.85C497.632 86.8735 498.088 87.0506 498.455 87.3547C500.701 89.0498 502.739 91.0038 504.526 93.1763L506.638 90.3161C504.096 89.1368 501.662 87.7381 499.364 86.1359C498.961 85.8757 498.654 85.4912 498.489 85.0409C498.324 84.5905 498.311 84.0987 498.451 83.64C498.795 82.4999 499.121 81.162 498.644 80.8112Z" fill="#4369B6"/>
<path d="M485.022 97.786C483.198 97.5791 481.379 100.421 480.959 104.134C480.538 107.846 481.678 111.024 483.504 111.23C484.368 111.327 485.357 109.553 486.131 107.986C486.436 107.359 486.937 106.848 487.557 106.529C488.177 106.21 488.883 106.1 489.571 106.216C493.29 106.848 500.229 108.134 501.531 109.15L502.114 103.979C498.03 104.346 493.922 104.355 489.836 104.006C489.136 103.969 488.466 103.706 487.927 103.256C487.389 102.806 487.012 102.193 486.852 101.51C486.452 99.8165 485.885 97.8827 485.022 97.786Z" fill="#4369B6"/>
<path d="M489.542 119.805C487.858 120.54 487.702 123.91 489.195 127.335C490.689 130.76 493.265 132.941 494.947 132.208C495.746 131.862 495.714 129.829 495.599 128.086C495.551 127.39 495.729 126.698 496.107 126.111C496.484 125.525 497.042 125.076 497.695 124.832C501.232 123.519 507.884 121.165 509.518 121.394L507.441 116.625C504.087 118.984 500.533 121.045 496.82 122.784C496.196 123.101 495.486 123.207 494.796 123.085C494.107 122.963 493.476 122.621 492.998 122.109C491.793 120.85 490.333 119.46 489.542 119.805Z" fill="#4369B6"/>
<path d="M497.124 142.465C496.033 143.942 497.585 146.94 500.591 149.159C503.598 151.378 506.917 151.979 508.012 150.508C508.529 149.809 507.488 148.066 506.516 146.614C506.126 146.035 505.934 145.346 505.967 144.65C506.001 143.953 506.259 143.286 506.703 142.748C509.109 139.843 513.694 134.478 515.225 133.857L511.038 130.768C509.315 134.488 507.268 138.05 504.922 141.412C504.541 142.001 503.978 142.45 503.32 142.691C502.661 142.931 501.942 142.952 501.27 142.748C499.597 142.244 497.639 141.768 497.124 142.465Z" fill="#4369B6"/>
<path d="M517.211 157.131C517.004 158.957 519.846 160.776 523.559 161.194C527.271 161.612 530.448 160.474 530.655 158.649C530.752 157.785 528.978 156.796 527.411 156.024C526.784 155.718 526.273 155.218 525.954 154.597C525.635 153.977 525.525 153.27 525.641 152.582C526.273 148.865 527.559 141.926 528.564 140.624L523.392 140.039C523.76 144.123 523.769 148.231 523.419 152.316C523.384 153.017 523.121 153.688 522.671 154.226C522.22 154.764 521.607 155.142 520.923 155.3C519.241 155.703 517.308 156.278 517.211 157.131Z" fill="#4369B6"/>
<path d="M539.926 149.875C540.662 151.559 544.032 151.714 547.457 150.221C550.881 148.728 553.063 146.151 552.33 144.469C551.983 143.671 549.951 143.703 548.208 143.817C547.512 143.866 546.819 143.688 546.233 143.31C545.646 142.932 545.198 142.375 544.954 141.722C543.641 138.187 541.287 131.533 541.516 129.898L536.744 131.976C539.105 135.329 541.167 138.883 542.906 142.596C543.222 143.221 543.327 143.931 543.206 144.62C543.084 145.309 542.742 145.941 542.231 146.419C540.972 147.624 539.582 149.084 539.926 149.875Z" fill="#4369B6"/>
<path d="M563.921 143.05C565.398 144.143 568.396 142.589 570.615 139.585C572.835 136.581 573.435 133.257 571.964 132.164C571.265 131.649 569.522 132.691 568.07 133.662C567.491 134.052 566.802 134.244 566.106 134.21C565.409 134.176 564.742 133.918 564.204 133.473C561.299 131.067 555.934 126.484 555.313 124.953L552.224 129.138C555.944 130.863 559.505 132.909 562.869 135.254C563.458 135.636 563.907 136.198 564.148 136.858C564.389 137.517 564.409 138.236 564.204 138.908C563.701 140.579 563.224 142.537 563.921 143.05Z" fill="#4369B6"/>
<path d="M572.922 120.396C574.373 120.56 575.818 118.3 576.151 115.35C576.484 112.4 575.58 109.872 574.128 109.708C573.453 109.632 572.655 111.041 572.041 112.287C571.798 112.786 571.401 113.192 570.908 113.446C570.415 113.699 569.853 113.787 569.307 113.695C566.057 113.294 562.866 112.511 559.799 111.363L559.336 115.471C562.582 115.181 565.848 115.174 569.095 115.451C569.652 115.48 570.185 115.689 570.613 116.046C571.04 116.404 571.34 116.891 571.467 117.434C571.787 118.781 572.239 120.319 572.922 120.396Z" fill="#4369B6"/>
<path d="M574.449 97.5497C576.133 96.8144 576.288 93.4437 574.795 90.0191C573.302 86.5945 570.725 84.4111 569.043 85.1464C568.245 85.4927 568.277 87.5254 568.391 89.2681C568.44 89.9639 568.262 90.6567 567.884 91.2431C567.506 91.8295 566.949 92.2781 566.296 92.5218C562.759 93.835 556.107 96.1893 554.472 95.9599L556.55 100.729C559.904 98.3705 563.458 96.3089 567.17 94.568C567.795 94.2516 568.505 94.1463 569.194 94.2679C569.883 94.3896 570.515 94.7316 570.993 95.2426C572.198 96.5041 573.658 97.8937 574.449 97.5497Z" fill="#4369B6"/>
<path d="M560.575 79.1761C561.666 77.6988 560.125 74.7014 557.108 72.482C554.09 70.2626 550.78 69.6622 549.687 71.1328C549.172 71.8321 550.214 73.5748 551.185 75.0274C551.575 75.6058 551.767 76.2948 551.733 76.9915C551.699 77.6882 551.441 78.3552 550.996 78.8928C548.59 81.798 544.007 87.1631 542.476 87.7838L546.661 90.8733C548.386 87.1539 550.433 83.5921 552.777 80.2284C553.159 79.6397 553.722 79.191 554.381 78.9501C555.04 78.7092 555.759 78.6891 556.431 78.8928C558.102 79.3987 560.067 79.8732 560.575 79.1761Z" fill="#4369B6"/>
<path d="M541.687 62.5834C541.892 60.7575 539.049 58.9384 535.337 58.5201C531.624 58.1019 528.447 59.2397 528.243 61.0656C528.144 61.929 529.918 62.9184 531.485 63.6897C532.112 63.9952 532.624 64.4958 532.943 65.1164C533.262 65.737 533.371 66.4443 533.255 67.1323C532.625 70.8492 531.337 77.7884 530.331 79.0904L535.503 79.675C535.136 75.5912 535.127 71.483 535.476 67.3976C535.512 66.6967 535.775 66.0263 536.225 65.488C536.675 64.9496 537.289 64.5726 537.972 64.4137C539.663 64.0112 541.595 63.4423 541.687 62.5834Z" fill="#4369B6"/>
<path d="M517.732 64.9684C516.993 63.2707 513.593 63.1155 510.141 64.6198C506.69 66.1242 504.488 68.7213 505.228 70.419C505.579 71.224 507.625 71.1925 509.383 71.0778C510.085 71.0283 510.784 71.2072 511.375 71.5878C511.966 71.9684 512.419 72.5302 512.664 73.1893C513.986 76.7533 516.361 83.4609 516.132 85.1069L520.939 83.0089C518.56 79.6287 516.482 76.0464 514.728 72.3033C514.406 71.6735 514.298 70.9559 514.419 70.2589C514.541 69.562 514.886 68.9236 515.403 68.4402C516.678 67.2327 518.077 65.7689 517.732 64.9684Z" fill="#4369B6"/>
<path d="M529.769 143.405C548.414 143.405 563.528 128.291 563.528 109.647C563.528 91.0028 548.414 75.8887 529.769 75.8887C511.125 75.8887 496.011 91.0028 496.011 109.647C496.011 128.291 511.125 143.405 529.769 143.405Z" fill="#4573D2"/>
<path d="M530.824 110.331C544.909 98.1168 538.096 77.0046 539.647 77.4161C557.67 82.1921 567.703 101.519 562.394 119.391C559.844 127.973 553.989 135.191 546.118 139.457C538.246 143.723 529.002 144.687 520.42 142.138C520.42 142.138 510.492 127.965 530.824 110.331Z" fill="#4369B6"/>
<path d="M105.392 103.209C104.772 102.76 103.51 103.405 102.577 104.669C101.644 105.932 101.39 107.329 102.012 107.788C102.307 108.012 103.04 107.563 103.649 107.158C103.893 106.994 104.183 106.913 104.477 106.928C104.77 106.942 105.051 107.05 105.277 107.237C106.66 108.28 107.914 109.483 109.015 110.821L110.317 109.06C108.751 108.336 107.252 107.475 105.837 106.488C105.588 106.329 105.399 106.092 105.297 105.815C105.196 105.537 105.188 105.234 105.275 104.952C105.487 104.259 105.682 103.434 105.392 103.209Z" fill="#4369B6"/>
<path d="M97.0093 113.669C95.885 113.541 94.7607 115.292 94.5089 117.577C94.257 119.861 94.9586 121.818 96.0829 121.944C96.6136 122.004 97.223 120.911 97.6974 119.947C97.8859 119.561 98.194 119.247 98.5757 119.051C98.9575 118.855 99.3924 118.787 99.8156 118.859C102.332 119.166 104.803 119.77 107.178 120.657L107.537 117.473C105.023 117.701 102.494 117.706 99.9797 117.489C99.5483 117.467 99.1358 117.305 98.8044 117.028C98.4729 116.751 98.2407 116.374 98.1426 115.953C97.8885 114.919 97.54 113.727 97.0093 113.669Z" fill="#4369B6"/>
<path d="M99.7886 127.22C98.7543 127.67 98.6643 129.747 99.5772 131.857C100.49 133.966 102.082 135.306 103.117 134.854C103.607 134.629 103.589 133.39 103.519 132.318C103.489 131.889 103.598 131.463 103.831 131.102C104.064 130.741 104.407 130.465 104.81 130.316C107.144 129.327 109.586 128.616 112.086 128.198L110.807 125.264C108.742 126.715 106.555 127.984 104.27 129.055C103.885 129.251 103.447 129.317 103.022 129.242C102.597 129.168 102.207 128.958 101.911 128.643C101.185 127.863 100.286 127.009 99.7886 127.22Z" fill="#4369B6"/>
<path d="M104.457 141.169C103.782 142.08 104.74 143.924 106.591 145.291C108.441 146.658 110.485 147.027 111.155 146.116C111.475 145.687 110.834 144.614 110.236 143.719C109.996 143.363 109.877 142.939 109.898 142.511C109.918 142.082 110.077 141.671 110.35 141.34C111.877 139.316 113.638 137.48 115.596 135.869L113.019 133.965C111.957 136.255 110.697 138.447 109.253 140.517C109.019 140.88 108.673 141.157 108.267 141.306C107.861 141.454 107.418 141.466 107.004 141.34C105.979 141.034 104.783 140.742 104.457 141.169Z" fill="#4369B6"/>
<path d="M116.82 150.206C116.694 151.33 118.443 152.455 120.728 152.706C123.012 152.958 124.969 152.257 125.094 151.132C125.155 150.6 124.065 149.99 123.1 149.516C122.714 149.328 122.399 149.02 122.202 148.638C122.006 148.256 121.938 147.821 122.009 147.397C122.318 144.881 122.922 142.411 123.808 140.036L120.626 139.676C120.852 142.19 120.857 144.718 120.642 147.233C120.62 147.665 120.458 148.077 120.181 148.408C119.904 148.74 119.527 148.972 119.106 149.07C118.07 149.307 116.88 149.666 116.82 150.206Z" fill="#4369B6"/>
<path d="M130.804 145.731C131.253 146.768 133.329 146.856 135.438 145.943C137.547 145.03 138.887 143.44 138.438 142.403C138.213 141.913 136.972 141.931 135.899 142.001C135.471 142.031 135.045 141.922 134.684 141.69C134.323 141.457 134.047 141.114 133.898 140.712C132.908 138.378 132.197 135.935 131.78 133.434L128.843 134.713C130.294 136.777 131.563 138.965 132.634 141.25C132.831 141.634 132.898 142.072 132.824 142.498C132.75 142.924 132.538 143.314 132.223 143.609C131.447 144.344 130.59 145.243 130.804 145.731Z" fill="#4369B6"/>
<path d="M145.572 141.53C146.472 142.205 148.325 141.247 149.692 139.396C151.059 137.546 151.428 135.502 150.519 134.829C150.088 134.512 149.015 135.153 148.12 135.751C147.764 135.991 147.34 136.109 146.912 136.089C146.483 136.068 146.072 135.909 145.741 135.637C143.718 134.109 141.881 132.348 140.27 130.391L138.368 132.968C140.657 134.029 142.85 135.289 144.92 136.732C145.283 136.966 145.559 137.313 145.707 137.719C145.855 138.124 145.867 138.567 145.741 138.98C145.435 140.008 145.143 141.211 145.572 141.53Z" fill="#4369B6"/>
<path d="M151.104 127.585C152.003 127.686 152.887 126.294 153.092 124.48C153.296 122.665 152.741 121.107 151.848 121.008C151.426 120.96 150.949 121.828 150.562 122.595C150.413 122.903 150.169 123.154 149.865 123.31C149.561 123.466 149.215 123.519 148.878 123.461C146.88 123.212 144.917 122.73 143.032 122.024L142.746 124.554C144.745 124.378 146.755 124.378 148.754 124.554C149.097 124.57 149.426 124.698 149.689 124.919C149.953 125.139 150.137 125.44 150.214 125.775C150.414 126.595 150.69 127.538 151.104 127.585Z" fill="#4369B6"/>
<path d="M152.053 113.522C153.087 113.073 153.177 110.995 152.264 108.888C151.351 106.781 149.755 105.436 148.725 105.888C148.233 106.113 148.253 107.352 148.323 108.425C148.352 108.853 148.243 109.28 148.01 109.641C147.778 110.002 147.434 110.278 147.032 110.428C144.698 111.417 142.256 112.128 139.755 112.544L141.035 115.481C143.099 114.029 145.286 112.761 147.571 111.69C147.956 111.493 148.394 111.426 148.82 111.5C149.245 111.575 149.635 111.786 149.93 112.101C150.654 112.879 151.554 113.736 152.053 113.522Z" fill="#4369B6"/>
<path d="M143.515 102.214C144.19 101.314 143.232 99.4593 141.381 98.0944C139.53 96.7295 137.489 96.3585 136.816 97.2669C136.499 97.6986 137.14 98.7712 137.738 99.6639C137.978 100.02 138.096 100.445 138.075 100.874C138.054 101.303 137.895 101.714 137.621 102.045C136.095 104.069 134.335 105.905 132.378 107.516L134.955 109.418C136.015 107.128 137.275 104.936 138.719 102.866C138.953 102.503 139.3 102.227 139.705 102.078C140.111 101.93 140.554 101.917 140.967 102.043C141.993 102.351 143.2 102.643 143.515 102.214Z" fill="#4369B6"/>
<path d="M131.89 92.0009C132.016 90.8766 130.266 89.7523 127.982 89.5004C125.697 89.2486 123.741 89.9501 123.615 91.0744C123.554 91.6051 124.647 92.2145 125.612 92.6889C125.997 92.8774 126.311 93.1855 126.508 93.5673C126.704 93.949 126.771 94.3839 126.7 94.8071C126.391 97.3231 125.787 99.7941 124.901 102.169L128.083 102.529C127.858 100.015 127.852 97.4861 128.067 94.9713C128.09 94.5401 128.252 94.1279 128.529 93.7966C128.806 93.4653 129.183 93.2329 129.603 93.1341C130.642 92.8801 131.829 92.5315 131.89 92.0009Z" fill="#4369B6"/>
<path d="M117.15 93.469C116.7 92.4257 114.602 92.329 112.477 93.2442C110.353 94.1593 108.99 95.7896 109.444 96.8239C109.669 97.3186 110.921 97.3006 112.003 97.2287C112.436 97.1976 112.867 97.3077 113.232 97.5425C113.597 97.7772 113.876 98.1239 114.027 98.5306C115.024 100.884 115.74 103.347 116.161 105.868L119.12 104.577C117.656 102.496 116.377 100.291 115.297 97.9865C115.099 97.599 115.032 97.1577 115.107 96.7289C115.181 96.3002 115.394 95.9073 115.711 95.6097C116.494 94.8676 117.357 93.9615 117.15 93.469Z" fill="#4369B6"/>
<path d="M124.55 141.748C136.026 141.748 145.33 132.445 145.33 120.969C145.33 109.493 136.026 100.189 124.55 100.189C113.074 100.189 103.771 109.493 103.771 120.969C103.771 132.445 113.074 141.748 124.55 141.748Z" fill="#4573D2"/>
<path d="M125.2 121.391C133.868 113.871 129.675 100.879 130.63 101.131C133.262 101.883 135.717 103.153 137.851 104.865C139.986 106.578 141.757 108.7 143.061 111.106C144.365 113.513 145.176 116.155 145.445 118.878C145.715 121.602 145.439 124.352 144.633 126.967C143.063 132.25 139.459 136.692 134.614 139.318C129.768 141.943 124.079 142.536 118.796 140.967C118.796 140.967 112.684 132.245 125.2 121.391Z" fill="#4369B6"/>
<path d="M78.7844 221.815C78.3661 220.765 76.2929 220.605 74.1545 221.46C72.0161 222.314 70.6264 223.859 71.0469 224.909C71.2448 225.406 72.4973 225.426 73.5721 225.388C74.0011 225.371 74.424 225.493 74.7778 225.737C75.1316 225.98 75.3972 226.331 75.5351 226.737C76.4538 229.103 77.0893 231.569 77.4285 234.083L80.4056 232.892C79.0144 230.783 77.8106 228.557 76.8079 226.238C76.6234 225.847 76.5711 225.407 76.6587 224.983C76.7463 224.56 76.9691 224.176 77.2936 223.89C78.0986 223.182 78.9823 222.31 78.7844 221.815Z" fill="#4369B6"/>
<path d="M60.2941 228.363C58.9922 227.34 56.2466 228.655 54.1667 231.299C52.0867 233.944 51.4503 236.921 52.75 237.946C53.3661 238.43 54.9672 237.539 56.3006 236.705C56.8331 236.371 57.4591 236.218 58.0857 236.267C58.7123 236.317 59.3062 236.568 59.7792 236.982C62.3291 239.23 67.0377 243.503 67.5526 244.903L70.4533 241.218C67.1494 239.562 63.9968 237.62 61.0316 235.414C60.5129 235.053 60.1252 234.534 59.9265 233.934C59.7279 233.334 59.729 232.686 59.9298 232.086C60.4245 230.596 60.9057 228.844 60.2941 228.363Z" fill="#4369B6"/>
<path d="M53.3077 247.381C51.6684 247.156 49.9505 249.657 49.4693 252.989C48.9881 256.322 49.919 259.216 51.5673 259.452C52.343 259.564 53.2829 257.992 54.0205 256.603C54.3145 256.048 54.7794 255.602 55.3464 255.332C55.9134 255.062 56.5523 254.982 57.1685 255.103C60.501 255.778 66.7184 257.127 67.8629 258.078L68.5375 253.434C64.8476 253.653 61.1457 253.547 57.4744 253.117C56.8446 253.065 56.2489 252.809 55.7766 252.389C55.3043 251.969 54.9809 251.407 54.8547 250.788C54.5377 249.25 54.079 247.494 53.3077 247.381Z" fill="#4369B6"/>
<path d="M48.3675 268.349C46.8294 268.963 46.5978 271.996 47.8481 275.124C49.0983 278.252 51.3581 280.296 52.8962 279.673C53.6225 279.38 53.6517 277.55 53.5978 275.976C53.5726 275.348 53.7519 274.728 54.1086 274.21C54.4654 273.692 54.9804 273.303 55.5765 273.102C58.7965 272.019 64.8565 270.08 66.3226 270.332L64.5822 265.977C61.4959 268.01 58.2372 269.77 54.8435 271.234C54.2715 271.503 53.6277 271.579 53.0087 271.452C52.3896 271.324 51.8287 270.999 51.4099 270.525C50.3665 269.352 49.0915 268.059 48.3675 268.349Z" fill="#4369B6"/>
<path d="M56.8043 289.116C55.7811 290.418 57.0943 293.163 59.7409 295.243C62.3876 297.323 65.3625 297.96 66.3878 296.66C66.8713 296.044 65.9808 294.443 65.1466 293.109C64.8111 292.575 64.6576 291.946 64.709 291.317C64.7605 290.688 65.0142 290.092 65.4322 289.619C67.6808 287.07 71.9531 282.361 73.354 281.846L69.6685 278.945C68.0126 282.249 66.0707 285.402 63.8649 288.367C63.5038 288.886 62.9844 289.273 62.3844 289.472C61.7844 289.671 61.1362 289.67 60.537 289.469C59.0371 288.985 57.2855 288.495 56.8043 289.116Z" fill="#4369B6"/>
<path d="M77.6556 294.341C77.4307 295.98 79.9312 297.698 83.2636 298.179C86.596 298.661 89.4922 297.73 89.7283 296.082C89.8385 295.308 88.269 294.366 86.8771 293.628C86.3221 293.334 85.8765 292.869 85.6064 292.302C85.3363 291.735 85.2559 291.097 85.3773 290.48C86.0519 287.148 87.401 280.93 88.3522 279.786L83.7111 279.111C83.9283 282.8 83.8222 286.502 83.394 290.172C83.341 290.802 83.085 291.398 82.6646 291.871C82.2442 292.343 81.6819 292.666 81.0622 292.792C79.5264 293.102 77.768 293.561 77.6556 294.341Z" fill="#4369B6"/>
<path d="M99.2849 300.488C99.8988 302.026 102.932 302.258 106.058 301.008C109.183 299.758 111.23 297.498 110.607 295.96C110.317 295.233 108.486 295.204 106.912 295.258C106.284 295.281 105.666 295.101 105.148 294.745C104.631 294.389 104.242 293.876 104.038 293.282C102.955 290.059 101.016 283.999 101.268 282.533L96.9126 284.274C98.9455 287.36 100.705 290.619 102.17 294.012C102.439 294.584 102.515 295.228 102.388 295.847C102.26 296.466 101.935 297.027 101.462 297.446C100.286 298.489 98.9949 299.764 99.2849 300.488Z" fill="#4369B6"/>
<path d="M116.925 287.394C117.96 288.208 120.141 287.169 121.796 285.06C123.451 282.951 123.957 280.59 122.92 279.776C122.43 279.391 121.157 280.1 120.098 280.763C119.674 281.029 119.176 281.151 118.678 281.11C118.179 281.07 117.707 280.869 117.332 280.538C115.032 278.69 112.958 276.576 111.153 274.242L108.848 277.165C111.474 278.483 113.98 280.027 116.336 281.782C116.75 282.067 117.059 282.48 117.218 282.957C117.376 283.434 117.374 283.95 117.213 284.426C116.826 285.62 116.444 287.012 116.925 287.394Z" fill="#4369B6"/>
<path d="M128.942 270.607C130.581 270.846 132.299 268.334 132.778 265.001C133.257 261.669 132.328 258.773 130.682 258.537C129.906 258.427 128.967 259.996 128.227 261.388C127.933 261.943 127.468 262.389 126.901 262.659C126.334 262.929 125.695 263.009 125.079 262.888C121.746 262.213 115.531 260.864 114.387 259.913L113.712 264.554C117.402 264.337 121.104 264.443 124.775 264.871C125.405 264.924 126 265.18 126.472 265.6C126.943 266.02 127.266 266.582 127.392 267.201C127.719 268.739 128.168 270.506 128.942 270.607Z" fill="#4369B6"/>
<path d="M127.028 249.947C128.566 249.334 128.798 246.3 127.548 243.172C126.297 240.045 124.038 238.001 122.5 238.623C121.773 238.916 121.744 240.746 121.8 242.32C121.823 242.948 121.643 243.567 121.287 244.085C120.93 244.602 120.416 244.991 119.821 245.194C116.599 246.278 110.541 248.216 109.073 247.964L110.816 252.32C113.901 250.285 117.159 248.526 120.552 247.063C121.124 246.793 121.768 246.717 122.387 246.845C123.006 246.972 123.567 247.297 123.986 247.771C125.02 248.945 126.304 250.238 127.028 249.947Z" fill="#4369B6"/>
<path d="M120.424 228.271C121.449 226.969 120.134 224.224 117.487 222.144C114.841 220.064 111.866 219.427 110.841 220.727C110.357 221.343 111.248 222.944 112.082 224.278C112.416 224.81 112.569 225.436 112.519 226.063C112.47 226.689 112.219 227.283 111.805 227.756C109.557 230.306 105.284 235.015 103.883 235.53L107.569 238.43C109.225 235.126 111.168 231.974 113.375 229.009C113.735 228.49 114.255 228.101 114.855 227.902C115.455 227.703 116.103 227.704 116.703 227.905C118.191 228.402 119.943 228.883 120.424 228.271Z" fill="#4369B6"/>
<path d="M100.929 218.73C101.167 217.078 98.6373 215.346 95.2757 214.863C91.914 214.379 88.9976 215.324 88.7547 216.977C88.6423 217.757 90.2253 218.706 91.6284 219.45C92.1907 219.744 92.6421 220.212 92.9147 220.785C93.1873 221.358 93.2662 222.003 93.1395 222.625C92.4649 225.984 91.1 232.251 90.1421 233.407L94.8214 234.082C94.6029 230.362 94.7097 226.63 95.1407 222.929C95.193 222.293 95.4504 221.692 95.8743 221.215C96.2981 220.738 96.8654 220.413 97.4905 220.286C99.0443 219.972 100.816 219.508 100.929 218.73Z" fill="#4369B6"/>
<path d="M88.9593 289.115C105.766 289.115 119.39 275.491 119.39 258.684C119.39 241.878 105.766 228.254 88.9593 228.254C72.1531 228.254 58.5289 241.878 58.5289 258.684C58.5289 275.491 72.1531 289.115 88.9593 289.115Z" fill="#4573D2"/>
<path d="M89.4405 259.714C106.033 257.036 110.827 237.624 111.821 238.674C114.517 241.639 116.594 245.112 117.931 248.89C119.268 252.668 119.839 256.675 119.608 260.675C119.378 264.676 118.352 268.591 116.59 272.191C114.828 275.79 112.366 279.002 109.347 281.638C106.364 284.297 102.886 286.342 99.1128 287.656C95.3392 288.971 91.3436 289.529 87.3542 289.299C83.3648 289.07 79.4597 288.056 75.8619 286.317C72.2641 284.579 69.044 282.148 66.3856 279.165C66.3856 279.165 65.4929 263.577 89.4405 259.714Z" fill="#4369B6"/>
<path d="M263.534 82.0332C261.981 79.3349 256.28 79.7217 250.801 82.8832C245.321 86.0447 242.143 90.7938 243.697 93.4876C244.432 94.7603 247.844 94.3241 250.756 93.8002C251.917 93.5861 253.117 93.7536 254.175 94.2776C255.234 94.8017 256.095 95.6541 256.629 96.7076C259.507 102.406 264.724 113.152 264.661 115.947L272.29 111.542C270.406 110.417 263.521 100.278 259.905 94.8458C259.25 93.8553 258.934 92.6785 259.006 91.4929C259.077 90.3073 259.533 89.1772 260.303 88.2731C262.201 86.02 264.263 83.3014 263.534 82.0332Z" fill="#4369B6"/>
<path d="M215.792 107.101C211.852 104.825 204.904 109.48 200.277 117.496C195.649 125.512 195.091 133.857 199.031 136.132C200.897 137.207 204.902 134.158 208.205 131.365C209.52 130.244 211.163 129.578 212.888 129.467C214.613 129.356 216.328 129.807 217.775 130.752C225.596 135.867 240.079 145.66 242.031 149.255L248.478 138.091C245.269 138.046 229.117 130.239 220.568 125.994C219.013 125.219 217.752 123.959 216.975 122.405C216.198 120.851 215.948 119.086 216.262 117.377C217.024 113.127 217.649 108.173 215.792 107.101Z" fill="#4369B6"/>
<path d="M204.245 161.582C199.696 161.582 196.006 169.088 196.006 178.343C196.006 187.598 199.696 195.104 204.245 195.104C206.4 195.104 208.342 190.461 209.806 186.389C210.385 184.76 211.476 183.362 212.914 182.404C214.353 181.446 216.063 180.979 217.789 181.073C227.118 181.592 244.547 182.831 248.046 184.972V172.079C245.246 173.653 227.359 174.959 217.827 175.557C216.093 175.663 214.371 175.202 212.922 174.243C211.473 173.285 210.374 171.881 209.793 170.244C208.324 166.185 206.391 161.582 204.245 161.582Z" fill="#4369B6"/>
<path d="M199.031 220.556C195.091 222.832 195.658 231.174 200.277 239.191C204.895 247.207 211.852 251.861 215.792 249.586C217.658 248.509 217.02 243.515 216.242 239.258C215.929 237.558 216.174 235.803 216.941 234.254C217.708 232.705 218.955 231.446 220.496 230.664C228.836 226.45 244.556 218.802 248.649 218.91L242.204 207.746C240.56 210.501 225.722 220.586 217.773 225.868C216.323 226.827 214.601 227.29 212.866 227.184C211.131 227.079 209.477 226.413 208.153 225.285C204.866 222.501 200.888 219.484 199.031 220.556Z" fill="#4369B6"/>
<path d="M230.129 273.752C227.853 277.692 232.508 284.64 240.524 289.268C248.541 293.895 256.885 294.453 259.161 290.513C260.236 288.647 257.187 284.644 254.394 281.339C253.272 280.024 252.606 278.381 252.495 276.656C252.385 274.931 252.835 273.216 253.78 271.769C258.895 263.948 268.688 249.465 272.286 247.513L261.119 241.066C261.077 244.275 253.267 260.427 249.022 268.976C248.247 270.533 246.987 271.795 245.432 272.572C243.876 273.349 242.11 273.598 240.401 273.282C236.155 272.52 231.202 271.895 230.129 273.752Z" fill="#4369B6"/>
<path d="M288.905 279.763C288.905 284.315 296.411 288.002 305.666 288.002C314.922 288.002 322.428 284.315 322.428 279.763C322.428 277.612 317.784 275.667 313.712 274.203C312.083 273.624 310.685 272.534 309.727 271.095C308.769 269.656 308.302 267.946 308.396 266.22C308.916 256.891 310.155 239.462 312.295 235.963H299.402C300.976 238.762 302.282 256.65 302.88 266.182C302.987 267.917 302.526 269.64 301.568 271.09C300.609 272.541 299.205 273.64 297.567 274.223C293.508 275.678 288.905 277.621 288.905 279.763Z" fill="#4369B6"/>
<path d="M350.157 288.024C352.433 291.964 360.775 291.397 368.792 286.778C376.808 282.16 381.462 275.202 379.187 271.263C378.11 269.399 373.116 270.035 368.859 270.813C367.159 271.127 365.404 270.882 363.855 270.115C362.306 269.348 361.046 268.1 360.265 266.559C356.051 258.219 348.403 242.499 348.511 238.406L337.347 244.851C340.102 246.494 350.187 261.333 355.469 269.282C356.428 270.731 356.891 272.454 356.785 274.189C356.68 275.924 356.014 277.578 354.886 278.901C352.102 282.2 349.085 286.167 350.157 288.024Z" fill="#4369B6"/>
<path d="M393.029 245.479C396.162 247.278 401.684 243.588 405.363 237.216C409.042 230.843 409.485 224.212 406.352 222.402C404.87 221.548 401.686 223.976 399.06 226.193C398.014 227.084 396.708 227.612 395.337 227.7C393.966 227.787 392.604 227.429 391.453 226.679C385.238 222.613 373.725 214.829 372.174 211.971L367.049 220.846C369.599 220.88 382.438 227.088 389.234 230.461C390.471 231.077 391.473 232.079 392.091 233.316C392.708 234.552 392.907 235.956 392.656 237.315C392.051 240.69 391.554 244.627 393.029 245.479Z" fill="#4369B6"/>
<path d="M419.122 195.104C423.671 195.104 427.361 187.601 427.361 178.343C427.361 169.086 423.671 161.582 419.122 161.582C416.968 161.582 415.025 166.225 413.561 170.298C412.982 171.926 411.892 173.324 410.453 174.282C409.015 175.24 407.305 175.707 405.579 175.613C396.249 175.094 378.82 173.855 375.322 171.716V184.61C378.121 183.036 396.009 181.732 405.541 181.131C407.275 181.025 408.998 181.486 410.448 182.445C411.898 183.403 412.997 184.807 413.579 186.445C415.043 190.501 416.977 195.104 419.122 195.104Z" fill="#4369B6"/>
<path d="M405.815 139.638C409.754 137.362 409.188 129.02 404.569 121.004C399.951 112.988 392.993 108.333 389.054 110.609C387.187 111.686 387.826 116.68 388.604 120.936C388.917 122.636 388.672 124.392 387.905 125.941C387.138 127.489 385.891 128.749 384.35 129.531C376.01 133.744 360.29 141.392 356.197 141.284L362.642 152.448C364.283 149.694 379.124 139.609 387.073 134.327C388.522 133.367 390.245 132.905 391.98 133.011C393.715 133.116 395.369 133.782 396.692 134.909C399.98 137.702 403.958 140.72 405.815 139.638Z" fill="#4369B6"/>
<path d="M379.338 83.2615C381.613 79.3219 376.959 72.3737 368.942 67.7461C360.926 63.1185 352.584 62.5608 350.308 66.5004C349.231 68.3667 352.28 72.3692 355.075 75.6747C356.196 76.9901 356.862 78.6331 356.972 80.358C357.082 82.0829 356.631 83.7972 355.687 85.2447C350.573 93.0654 340.778 107.549 337.183 109.5L348.347 115.947C348.392 112.738 356.202 96.5867 360.445 88.0375C361.22 86.4811 362.48 85.2192 364.035 84.4424C365.59 83.6655 367.356 83.416 369.066 83.7314C373.32 84.4937 378.274 85.1188 379.338 83.2615Z" fill="#4369B6"/>
<path d="M322.565 64.957C322.565 60.3676 315 56.6484 305.666 56.6484C296.332 56.6484 288.768 60.3676 288.768 64.957C288.768 67.1269 293.45 69.0855 297.556 70.5628C299.198 71.1464 300.607 72.2456 301.573 73.6961C302.538 75.1466 303.009 76.8706 302.914 78.6106C302.39 88.0165 301.142 105.594 298.986 109.115H311.983C310.409 106.293 309.08 88.2526 308.477 78.6488C308.369 76.8994 308.833 75.1623 309.8 73.7C310.766 72.2376 312.182 71.1293 313.833 70.5426C317.926 69.0697 322.565 67.1179 322.565 64.957Z" fill="#4369B6"/>
<path d="M305.666 261.981C351.859 261.981 389.306 224.535 389.306 178.342C389.306 132.15 351.859 94.7031 305.666 94.7031C259.474 94.7031 222.027 132.15 222.027 178.342C222.027 224.535 259.474 261.981 305.666 261.981Z" fill="#4573D2"/>
<path d="M307.382 180.94C351.455 167.143 356.896 112.45 360.013 114.921C396.216 143.613 399.87 197.445 370.114 232.775C355.823 249.741 335.379 260.336 313.278 262.229C291.177 264.123 269.228 257.161 252.26 242.873C252.26 242.873 243.747 200.858 307.382 180.94Z" fill="#4369B6"/>
<path d="M312.633 190.438H298.48C298.443 188.403 298.424 187.163 298.424 186.719C298.424 182.131 299.183 178.357 300.7 175.397C302.217 172.437 305.251 169.107 309.802 165.406C314.353 161.706 317.073 159.283 317.961 158.136C319.33 156.323 320.015 154.324 320.015 152.141C320.015 149.107 318.793 146.517 316.351 144.371C313.946 142.188 310.69 141.096 306.583 141.096C302.624 141.096 299.312 142.225 296.648 144.482C293.984 146.739 292.152 150.18 291.153 154.805L276.834 153.029C277.241 146.406 280.053 140.782 285.27 136.157C290.524 131.531 297.406 129.219 305.917 129.219C314.871 129.219 321.994 131.568 327.285 136.268C332.577 140.93 335.222 146.369 335.222 152.585C335.222 156.026 334.242 159.283 332.281 162.354C330.357 165.425 326.212 169.606 319.848 174.897C316.555 177.635 314.501 179.837 313.687 181.502C312.91 183.167 312.559 186.146 312.633 190.438ZM298.48 211.418V195.822H314.076V211.418H298.48Z" fill="white"/>
<path d="M7.7869 50.0143C7.36642 49.7017 6.51195 50.1447 5.87784 51.0014C5.24373 51.8582 5.07509 52.8003 5.49558 53.1174C5.6957 53.2658 6.19264 52.9667 6.60639 52.6901C6.77131 52.5791 6.9677 52.5244 7.16626 52.5341C7.36482 52.5439 7.55492 52.6175 7.7082 52.7441C8.64628 53.4518 9.49763 54.2677 10.2446 55.1748L11.1261 53.9808C10.066 53.4887 9.05105 52.9049 8.09271 52.2359C7.92466 52.1274 7.79648 51.9671 7.72753 51.7793C7.65857 51.5915 7.65258 51.3863 7.71045 51.1948C7.84987 50.7181 7.98703 50.1605 7.7869 50.0143Z" fill="#4369B6"/>
<path d="M2.10468 57.0981C1.3424 57.0126 0.582373 58.1999 0.406982 59.7492C0.231591 61.2985 0.708295 62.6229 1.47057 62.7106C1.83035 62.7511 2.24409 62.009 2.56564 61.3614C2.69318 61.0995 2.90206 60.886 3.16105 60.7526C3.42004 60.6193 3.71524 60.5733 4.0025 60.6217C5.7079 60.8288 7.38277 61.2372 8.99216 61.8381L9.23726 59.6795C7.53264 59.8322 5.81795 59.836 4.11268 59.6907C3.82018 59.6759 3.54043 59.5663 3.3157 59.3785C3.09097 59.1907 2.93346 58.9349 2.86696 58.6496C2.69606 57.9458 2.4712 57.1386 2.10468 57.0981Z" fill="#4369B6"/>
<path d="M3.98901 66.2876C3.2852 66.5934 3.22224 68.0011 3.8451 69.4357C4.46796 70.8703 5.5428 71.7742 6.24436 71.4594C6.57716 71.3155 6.56591 70.4678 6.51644 69.7392C6.49817 69.4503 6.57334 69.1631 6.73086 68.9201C6.88838 68.6771 7.11988 68.4913 7.39115 68.3901C8.97462 67.7205 10.6312 67.239 12.3268 66.9554L11.4656 64.9609C10.0658 65.9449 8.58288 66.8049 7.03362 67.5311C6.77297 67.6644 6.47603 67.7092 6.18763 67.6589C5.89923 67.6086 5.63502 67.4659 5.43486 67.2523C4.92893 66.7238 4.31956 66.1437 3.98901 66.2876Z" fill="#4369B6"/>
<path d="M7.1528 75.7453C6.70308 76.3614 7.34618 77.6116 8.59865 78.5381C9.85113 79.4645 11.2408 79.7163 11.695 79.1002C11.9198 78.8079 11.4701 78.0793 11.0699 77.4745C10.9069 77.2329 10.8265 76.9452 10.8407 76.6541C10.8549 76.3631 10.9629 76.0845 11.1486 75.86C12.1849 74.4881 13.3788 73.2428 14.7059 72.1498L12.9587 70.8613C12.2389 72.4131 11.3849 73.8991 10.4065 75.3023C10.2474 75.5481 10.0125 75.7355 9.73751 75.8361C9.46248 75.9367 9.16219 75.9451 8.88198 75.86C8.18491 75.6531 7.36867 75.4552 7.1528 75.7453Z" fill="#4369B6"/>
<path d="M15.5356 81.865C15.4502 82.6273 16.6352 83.3851 18.1845 83.5604C19.7338 83.7358 21.0604 83.2614 21.1459 82.4991C21.1886 82.1393 20.4466 81.7256 19.7967 81.404C19.5352 81.2761 19.3221 81.0671 19.1892 80.8082C19.0563 80.5492 19.0107 80.2542 19.0592 79.9672C19.2701 78.2611 19.6807 76.5856 20.2824 74.9753L18.126 74.7324C18.275 76.4366 18.275 78.1506 18.126 79.8547C18.1111 80.1476 18.0012 80.4275 17.8129 80.6523C17.6246 80.8771 17.3683 81.0344 17.0826 81.1005C16.3833 81.2691 15.5761 81.5052 15.5356 81.865Z" fill="#4369B6"/>
<path d="M25.0157 78.8374C25.3238 79.5412 26.7292 79.6041 28.1638 78.9813C29.5984 78.3584 30.5046 77.2836 30.1875 76.582C30.0436 76.2492 29.1959 76.2605 28.4673 76.3099C28.1784 76.3282 27.8912 76.253 27.6482 76.0955C27.4053 75.938 27.2194 75.7065 27.1182 75.4352C26.4478 73.8482 25.9663 72.1878 25.6836 70.4883L23.6935 71.3562C24.6775 72.756 25.5375 74.239 26.2637 75.7882C26.397 76.0489 26.4418 76.3458 26.3915 76.6342C26.3412 76.9226 26.1985 77.1869 25.9849 77.387C25.452 77.8974 24.8718 78.5068 25.0157 78.8374Z" fill="#4369B6"/>
<path d="M35.031 75.9906C35.6471 76.4403 36.8974 75.7972 37.8238 74.5425C38.7502 73.2877 39.002 71.9026 38.3837 71.4484C38.0936 71.2235 37.3651 71.6732 36.7579 72.0712C36.5166 72.2337 36.2293 72.3138 35.9387 72.2996C35.6482 72.2854 35.37 72.1777 35.1457 71.9925C33.7734 70.9576 32.5281 69.7643 31.4355 68.4375L30.1448 70.1847C31.6978 70.9035 33.1847 71.7575 34.588 72.7368C34.8339 72.896 35.0212 73.1308 35.1218 73.4059C35.2224 73.6809 35.2308 73.9812 35.1457 74.2614C34.9388 74.9585 34.7409 75.7792 35.031 75.9906Z" fill="#4369B6"/>
<path d="M38.7862 66.5347C39.3911 66.6022 39.9959 65.66 40.1353 64.4278C40.2748 63.1955 39.8948 62.1432 39.2899 62.0735C39.0043 62.042 38.676 62.6311 38.4197 63.1506C38.3178 63.3583 38.1516 63.5276 37.9458 63.6334C37.74 63.7391 37.5056 63.7756 37.2774 63.7374C35.9215 63.5701 34.5901 63.2433 33.3108 62.7638L33.1175 64.4795C34.4723 64.3607 35.8349 64.3607 37.1897 64.4795C37.422 64.4914 37.6442 64.5786 37.8226 64.7279C38.0011 64.8772 38.1262 65.0804 38.1791 65.307C38.314 65.8601 38.5006 66.501 38.7862 66.5347Z" fill="#4369B6"/>
<path d="M39.4248 56.9982C40.1264 56.6924 40.1916 55.2848 39.5687 53.8502C38.9458 52.4156 37.871 51.5094 37.1672 51.8152C36.8344 51.9613 36.8479 52.8091 36.8951 53.5354C36.9134 53.8243 36.8382 54.1115 36.6807 54.3545C36.5232 54.5974 36.2917 54.7833 36.0204 54.8845C34.438 55.5553 32.7821 56.0376 31.087 56.3214L31.9549 58.3114C33.3558 57.3362 34.8387 56.4845 36.3869 55.766C36.6476 55.6327 36.9445 55.5878 37.2329 55.6381C37.5213 55.6884 37.7855 55.8312 37.9857 56.0448C38.4849 56.562 39.0942 57.1444 39.4248 56.9982Z" fill="#4369B6"/>
<path d="M33.6369 49.3335C34.0866 48.7151 33.4435 47.4649 32.1888 46.5384C30.9341 45.612 29.5489 45.3624 29.0947 45.9785C28.8698 46.2709 29.3196 46.9972 29.7176 47.6043C29.8803 47.8453 29.9608 48.1326 29.947 48.4231C29.9332 48.7136 29.8259 48.9919 29.6411 49.2165C28.6048 50.5884 27.4109 51.8337 26.0838 52.9267L27.831 54.2174C28.5503 52.6646 29.4043 51.1779 30.3831 49.7742C30.5423 49.5284 30.7771 49.341 31.0522 49.2404C31.3272 49.1398 31.6275 49.1314 31.9077 49.2165C32.6025 49.4256 33.421 49.6235 33.6369 49.3335Z" fill="#4369B6"/>
<path d="M25.7533 42.407C25.8387 41.6447 24.6537 40.8847 23.1044 40.7115C21.5551 40.5384 20.2284 41.0106 20.143 41.7729C20.1025 42.1326 20.8423 42.5464 21.4922 42.8679C21.7536 42.9958 21.9668 43.2049 22.0997 43.4638C22.2326 43.7228 22.2782 44.0178 22.2297 44.3048C22.0188 46.0109 21.6082 47.6864 21.0065 49.2967L23.1629 49.5396C23.0129 47.8347 23.0129 46.1199 23.1629 44.415C23.1782 44.1229 23.288 43.8436 23.4757 43.6194C23.6635 43.3951 23.9191 43.2379 24.204 43.1715C24.9055 43.0029 25.7128 42.7645 25.7533 42.407Z" fill="#4369B6"/>
<path d="M15.7537 43.3994C15.4457 42.691 14.0268 42.6258 12.5854 43.2532C11.1441 43.8806 10.2266 44.9734 10.5347 45.6772C10.6809 46.0145 11.5353 46.001 12.2684 45.9515C12.5614 45.9316 12.853 46.0068 13.0998 46.1661C13.3465 46.3253 13.5352 46.56 13.6378 46.8352C14.3149 48.4303 14.801 50.0999 15.0859 51.8091L17.0916 50.9344C16.099 49.5234 15.2314 48.0284 14.499 46.4665C14.363 46.2038 14.317 45.9038 14.3682 45.6125C14.4194 45.3211 14.5649 45.0547 14.7823 44.8542C15.3152 44.3505 15.8999 43.7366 15.7537 43.3994Z" fill="#4369B6"/>
<path d="M20.7771 76.1385C28.5587 76.1385 34.8669 69.8303 34.8669 62.0487C34.8669 54.2672 28.5587 47.959 20.7771 47.959C12.9955 47.959 6.68734 54.2672 6.68734 62.0487C6.68734 69.8303 12.9955 76.1385 20.7771 76.1385Z" fill="#4573D2"/>
<path d="M21.2178 62.335C27.0957 57.2374 24.2512 48.4251 24.901 48.5982C26.6855 49.107 28.3504 49.967 29.7982 51.1276C31.246 52.2882 32.4476 53.7262 33.3324 55.3573C34.2172 56.9883 34.7676 58.7795 34.9511 60.626C35.1347 62.4725 34.9478 64.337 34.4014 66.1104C33.8747 67.8839 33.0038 69.5364 31.8384 70.9734C30.673 72.4103 29.236 73.6037 27.6094 74.4853C25.9828 75.3669 24.1985 75.9194 22.3584 76.1113C20.5182 76.3033 18.6583 76.1309 16.8848 75.604C16.8848 75.604 12.7316 69.6946 21.2178 62.335Z" fill="#4369B6"/>
<path d="M483.063 237.637C482.443 237.188 481.181 237.831 480.248 239.094C479.315 240.358 479.061 241.755 479.682 242.216C479.976 242.44 480.711 241.991 481.321 241.586C481.563 241.42 481.853 241.338 482.147 241.352C482.44 241.367 482.721 241.476 482.947 241.665C484.33 242.708 485.585 243.911 486.686 245.249L487.986 243.488C486.422 242.762 484.924 241.901 483.509 240.916C483.261 240.755 483.072 240.518 482.971 240.241C482.869 239.963 482.861 239.66 482.947 239.378C483.156 238.676 483.356 237.853 483.063 237.637Z" fill="#4369B6"/>
<path d="M474.678 248.085C473.554 247.959 472.43 249.708 472.178 251.993C471.926 254.277 472.628 256.233 473.752 256.359C474.285 256.42 474.894 255.327 475.369 254.365C475.557 253.979 475.865 253.664 476.246 253.467C476.628 253.27 477.063 253.203 477.487 253.274C480.003 253.583 482.474 254.187 484.849 255.073L485.206 251.891C482.693 252.117 480.165 252.122 477.651 251.907C477.22 251.885 476.807 251.724 476.476 251.446C476.144 251.169 475.912 250.792 475.814 250.371C475.56 249.335 475.209 248.145 474.678 248.085Z" fill="#4369B6"/>
<path d="M477.46 261.64C476.423 262.09 476.336 264.168 477.249 266.275C478.162 268.381 479.751 269.726 480.788 269.274C481.278 269.049 481.26 267.81 481.188 266.738C481.159 266.309 481.269 265.883 481.501 265.522C481.734 265.161 482.077 264.885 482.479 264.734C484.813 263.745 487.257 263.035 489.758 262.618L488.476 259.682C486.413 261.134 484.226 262.402 481.941 263.473C481.557 263.67 481.119 263.737 480.693 263.663C480.267 263.588 479.877 263.377 479.583 263.061C478.845 262.283 477.948 261.427 477.46 261.64Z" fill="#4369B6"/>
<path d="M482.128 275.587C481.453 276.487 482.411 278.34 484.262 279.707C486.113 281.074 488.154 281.443 488.827 280.534C489.144 280.103 488.503 279.03 487.905 278.137C487.665 277.781 487.547 277.356 487.568 276.927C487.589 276.498 487.748 276.087 488.022 275.756C489.548 273.733 491.309 271.896 493.265 270.285L490.689 268.383C489.628 270.673 488.368 272.865 486.924 274.935C486.69 275.298 486.343 275.574 485.938 275.723C485.532 275.871 485.089 275.884 484.676 275.758C483.648 275.455 482.443 275.158 482.128 275.587Z" fill="#4369B6"/>
<path d="M494.491 284.614C494.365 285.738 496.114 286.862 498.399 287.116C500.684 287.37 502.64 286.667 502.766 285.542C502.826 285.012 501.734 284.402 500.769 283.926C500.383 283.737 500.069 283.429 499.873 283.047C499.676 282.666 499.609 282.231 499.681 281.807C499.988 279.292 500.592 276.821 501.48 274.448L498.296 274.088C498.523 276.601 498.529 279.129 498.314 281.643C498.291 282.075 498.129 282.487 497.852 282.818C497.575 283.15 497.198 283.382 496.778 283.48C495.741 283.734 494.552 284.085 494.491 284.614Z" fill="#4369B6"/>
<path d="M508.473 280.148C508.922 281.184 511 281.272 513.107 280.373C515.214 279.473 516.559 277.868 516.107 276.831C515.882 276.341 514.643 276.359 513.57 276.431C513.142 276.46 512.716 276.35 512.355 276.118C511.994 275.885 511.717 275.542 511.567 275.14C510.578 272.805 509.868 270.362 509.451 267.861L506.514 269.143C507.969 271.206 509.238 273.393 510.308 275.68C510.504 276.064 510.57 276.502 510.495 276.927C510.421 277.352 510.211 277.741 509.896 278.036C509.116 278.763 508.261 279.66 508.473 280.148Z" fill="#4369B6"/>
<path d="M523.248 275.948C524.148 276.622 526.003 275.665 527.37 273.814C528.737 271.963 529.106 269.919 528.195 269.249C527.766 268.932 526.691 269.573 525.798 270.169C525.443 270.41 525.019 270.529 524.59 270.508C524.161 270.487 523.75 270.328 523.419 270.054C521.396 268.527 519.559 266.767 517.946 264.811L516.044 267.385C518.334 268.447 520.526 269.708 522.596 271.152C522.959 271.386 523.235 271.733 523.384 272.138C523.532 272.544 523.545 272.987 523.419 273.4C523.107 274.426 522.814 275.631 523.248 275.948Z" fill="#4369B6"/>
<path d="M528.782 262.001C529.682 262.102 530.565 260.712 530.77 258.896C530.975 257.079 530.417 255.523 529.524 255.424C529.101 255.376 528.625 256.244 528.24 257.011C528.091 257.319 527.847 257.57 527.543 257.726C527.239 257.882 526.893 257.935 526.556 257.877C524.558 257.63 522.595 257.149 520.71 256.442L520.424 258.972C522.422 258.792 524.432 258.787 526.43 258.959C526.774 258.974 527.103 259.102 527.367 259.323C527.63 259.543 527.815 259.844 527.892 260.18C528.083 261.009 528.362 261.963 528.782 262.001Z" fill="#4369B6"/>
<path d="M529.722 247.94C530.759 247.491 530.846 245.413 529.947 243.304C529.047 241.195 527.442 239.854 526.405 240.306C525.915 240.52 525.933 241.77 526.005 242.843C526.035 243.271 525.925 243.698 525.692 244.059C525.46 244.42 525.117 244.696 524.714 244.846C522.38 245.834 519.938 246.544 517.438 246.962L518.717 249.897C520.781 248.444 522.968 247.175 525.254 246.106C525.639 245.91 526.077 245.844 526.502 245.918C526.927 245.992 527.317 246.202 527.613 246.517C528.337 247.297 529.234 248.152 529.722 247.94Z" fill="#4369B6"/>
<path d="M521.186 236.633C521.861 235.733 520.903 233.878 519.052 232.511C517.202 231.144 515.158 230.775 514.488 231.683C514.168 232.115 514.809 233.188 515.407 234.083C515.648 234.438 515.767 234.862 515.746 235.291C515.725 235.72 515.566 236.131 515.293 236.462C513.765 238.485 512.004 240.322 510.047 241.933L512.624 243.837C513.684 241.547 514.944 239.355 516.388 237.285C516.622 236.922 516.969 236.645 517.374 236.497C517.78 236.348 518.223 236.336 518.636 236.462C519.664 236.768 520.869 237.06 521.186 236.633Z" fill="#4369B6"/>
<path d="M509.561 226.42C509.687 225.296 507.938 224.171 505.653 223.917C503.368 223.663 501.412 224.367 501.284 225.491C501.225 226.022 502.316 226.631 503.281 227.106C503.667 227.294 503.982 227.602 504.179 227.984C504.375 228.367 504.443 228.802 504.371 229.226C504.062 231.741 503.459 234.212 502.572 236.586L505.754 236.946C505.529 234.432 505.524 231.903 505.738 229.388C505.761 228.957 505.923 228.545 506.2 228.214C506.477 227.883 506.854 227.651 507.274 227.553C508.311 227.297 509.5 226.948 509.561 226.42Z" fill="#4369B6"/>
<path d="M494.812 227.889C494.363 226.843 492.265 226.746 490.14 227.664C488.015 228.581 486.659 230.189 487.115 231.235C487.34 231.729 488.591 231.709 489.672 231.639C490.105 231.608 490.535 231.718 490.9 231.953C491.265 232.187 491.544 232.533 491.696 232.939C492.693 235.292 493.408 237.755 493.828 240.276L496.789 238.986C495.324 236.906 494.045 234.701 492.966 232.397C492.768 232.009 492.701 231.568 492.776 231.138C492.85 230.709 493.062 230.316 493.38 230.018C494.165 229.285 495.026 228.381 494.812 227.889Z" fill="#4369B6"/>
<path d="M502.222 276.166C513.698 276.166 523.001 266.863 523.001 255.387C523.001 243.911 513.698 234.607 502.222 234.607C490.746 234.607 481.442 243.911 481.442 255.387C481.442 266.863 490.746 276.166 502.222 276.166Z" fill="#4573D2"/>
<path d="M502.869 255.809C511.54 248.289 507.346 235.295 508.302 235.547C510.933 236.299 513.388 237.569 515.523 239.282C517.657 240.995 519.428 243.117 520.732 245.524C522.036 247.93 522.846 250.573 523.116 253.296C523.385 256.02 523.108 258.77 522.302 261.385C520.732 266.668 517.128 271.11 512.283 273.736C507.438 276.361 501.748 276.955 496.465 275.385C496.465 275.385 490.356 266.663 502.869 255.809Z" fill="#4369B6"/>
</g>
<defs>
<clipPath id="clip0_9_51201">
<rect width="600" height="340.875" fill="white"/>
</clipPath>
</defs>
</svg>
