<svg width="160" height="121" viewBox="0 0 160 121" fill="none" xmlns="http://www.w3.org/2000/svg">
<g clip-path="url(#clip0_304_10103)">
<path d="M159.725 74.408C162.624 42.7397 142.24 28.6949 114.023 30.1999C85.8057 31.7048 90.4046 7.07943 63.8027 0.870847C37.2008 -5.33774 2.53153 22.731 0.175508 48.4616C-2.72376 80.1299 30.6421 111.611 74.7003 118.775C118.759 125.94 156.826 106.076 159.725 74.408Z" fill="#BEBEBE" fill-opacity="0.14"/>
<path d="M71.7774 11.4837L22.4153 24.7184C21.5215 24.9581 20.9912 25.8769 21.2308 26.7708L40.9745 100.409C41.2141 101.303 42.133 101.833 43.0268 101.594L92.3889 88.359C93.2828 88.1194 93.8131 87.2005 93.5734 86.3067L73.8298 12.6682C73.5901 11.7743 72.6712 11.244 71.7774 11.4837Z" fill="white"/>
<path d="M71.7774 11.4837L22.4153 24.7184C21.5215 24.9581 20.9912 25.8769 21.2308 26.7708L40.9745 100.409C41.2141 101.303 42.133 101.833 43.0268 101.594L92.3889 88.359C93.2828 88.1194 93.8131 87.2005 93.5734 86.3067L73.8298 12.6682C73.5901 11.7743 72.6712 11.244 71.7774 11.4837Z" fill="white"/>
<path d="M59.7857 23.372L32.2724 30.7488C31.602 30.9285 31.2043 31.6177 31.384 32.288C31.5638 32.9584 32.2529 33.3562 32.9233 33.1764L60.4366 25.7997C61.107 25.6199 61.5047 24.9308 61.325 24.2604C61.1452 23.59 60.4561 23.1923 59.7857 23.372Z" fill="#E2E5EC"/>
<path d="M67.7987 22.5238C67.6189 21.8535 66.9299 21.4558 66.2596 21.6355C65.5893 21.8152 65.1916 22.5043 65.3713 23.1746C65.551 23.8449 66.2401 24.2426 66.9104 24.0629C67.5807 23.8832 67.9784 23.1941 67.7987 22.5238Z" fill="#E2E5EC"/>
<path d="M62.0172 31.6943L34.5039 39.071C33.8335 39.2508 33.4357 39.9399 33.6155 40.6103C33.7952 41.2807 34.4844 41.6784 35.1548 41.4987L62.6681 34.1219C63.3384 33.9422 63.7362 33.253 63.5564 32.5827C63.3767 31.9123 62.6875 31.5145 62.0172 31.6943Z" fill="#E2E5EC"/>
<path d="M70.0301 30.848C69.8504 30.1777 69.1613 29.78 68.491 29.9597C67.8207 30.1395 67.423 30.8285 67.6028 31.4988C67.7825 32.1691 68.4715 32.5668 69.1418 32.3871C69.8121 32.2074 70.2098 31.5183 70.0301 30.848Z" fill="#E2E5EC"/>
<path d="M64.2486 40.0185L36.7353 47.3953C36.0649 47.575 35.6672 48.2641 35.8469 48.9345C36.0267 49.6049 36.7158 50.0026 37.3862 49.8229L64.8995 42.4461C65.5699 42.2664 65.9676 41.5773 65.7879 40.9069C65.6081 40.2365 64.919 39.8388 64.2486 40.0185Z" fill="#E2E5EC"/>
<path d="M72.2616 39.1722C72.0818 38.5019 71.3928 38.1043 70.7225 38.284C70.0522 38.4637 69.6545 39.1528 69.8342 39.8231C70.0139 40.4933 70.703 40.891 71.3733 40.7113C72.0436 40.5316 72.4413 39.8425 72.2616 39.1722Z" fill="#E2E5EC"/>
<path d="M66.481 48.3427L38.9677 55.7195C38.2974 55.8992 37.8996 56.5884 38.0794 57.2587C38.2591 57.9291 38.9482 58.3269 39.6186 58.1471L67.1319 50.7704C67.8023 50.5906 68.2 49.9015 68.0203 49.2311C67.8406 48.5607 67.1514 48.163 66.481 48.3427Z" fill="#E2E5EC"/>
<path d="M74.493 47.4945C74.3133 46.8242 73.6242 46.4265 72.9539 46.6062C72.2836 46.786 71.8859 47.475 72.0656 48.1453C72.2454 48.8156 72.9344 49.2133 73.6047 49.0336C74.275 48.8539 74.6727 48.1648 74.493 47.4945Z" fill="#E2E5EC"/>
<path d="M68.7125 56.665L41.1992 64.0417C40.5288 64.2215 40.1311 64.9106 40.3108 65.581C40.4905 66.2514 41.1797 66.6491 41.8501 66.4694L69.3634 59.0926C70.0337 58.9129 70.4315 58.2237 70.2517 57.5534C70.072 56.883 69.3828 56.4852 68.7125 56.665Z" fill="#E2E5EC"/>
<path d="M76.7244 55.8187C76.5447 55.1484 75.8557 54.7507 75.1854 54.9305C74.5151 55.1102 74.1174 55.7992 74.2971 56.4695C74.4768 57.1398 75.1659 57.5375 75.8362 57.3578C76.5065 57.1781 76.9042 56.489 76.7244 55.8187Z" fill="#E2E5EC"/>
<path d="M57.1873 68.6776L43.4306 72.366C42.7602 72.5457 42.3625 73.2349 42.5422 73.9052C42.722 74.5756 43.4111 74.9733 44.0815 74.7936L57.8382 71.1052C58.5085 70.9255 58.9063 70.2363 58.7265 69.566C58.5468 68.8956 57.8576 68.4978 57.1873 68.6776Z" fill="#E2E5EC"/>
<g clip-path="url(#clip1_304_10103)">
<path d="M123.77 77.3149C138.042 77.3149 149.612 65.7088 149.612 51.3918C149.612 37.0749 138.042 25.4688 123.77 25.4688C109.498 25.4688 97.9277 37.0749 97.9277 51.3918C97.9277 65.7088 109.498 77.3149 123.77 77.3149Z" fill="#F6F6F6"/>
<path fill-rule="evenodd" clip-rule="evenodd" d="M123.77 25.4678C109.497 25.4678 97.9274 37.074 97.9274 51.3909C97.9274 65.7078 109.497 77.314 123.77 77.314C138.042 77.314 149.612 65.7078 149.612 51.3909C149.612 37.074 138.042 25.4678 123.77 25.4678ZM97.1729 51.3909C97.1729 36.656 109.081 24.7109 123.77 24.7109C138.459 24.7109 150.367 36.656 150.367 51.3909C150.367 66.1258 138.459 78.0709 123.77 78.0709C109.081 78.0709 97.1729 66.1258 97.1729 51.3909Z" fill="white"/>
<path d="M128.56 69.4218C137.728 69.4218 145.16 61.9667 145.16 52.7705C145.16 43.5742 137.728 36.1191 128.56 36.1191C119.393 36.1191 111.961 43.5742 111.961 52.7705C111.961 61.9667 119.393 69.4218 128.56 69.4218Z" fill="#DBDBDB"/>
<path d="M110.616 80.0059C110.424 79.4121 106.932 67.5672 104.491 58.4075C102.474 58.1941 100.3 55.9189 99.2615 52.7124C98.0226 48.8902 98.8665 45.1856 101.144 44.4431C103.422 43.7006 106.275 46.1988 107.514 50.0229C108.553 53.2294 108.128 56.3507 106.62 57.7134C110.016 66.5629 114.128 78.2046 114.322 78.7976C114.462 79.2811 114.406 79.8006 114.165 80.2424C113.924 80.6842 113.518 81.0121 113.036 81.1538C112.831 81.2208 112.617 81.2549 112.402 81.255C112.011 81.2633 111.627 81.1469 111.306 80.9224C110.985 80.6979 110.743 80.377 110.616 80.0059Z" fill="#E2E5EC"/>
<path d="M113.844 78.9424C113.945 79.2976 113.904 79.6788 113.727 80.0029C113.623 80.1933 113.476 80.3535 113.303 80.4756C113.396 80.2454 113.469 80.0068 113.52 79.7617C113.655 79.0982 113.624 78.4112 113.43 77.7627C113.659 78.4131 113.805 78.8265 113.844 78.9424ZM105.144 46.6699C105.907 47.5728 106.583 48.768 107.039 50.1768C107.538 51.7186 107.682 53.2274 107.527 54.499C107.378 55.7277 106.955 56.6869 106.361 57.2686C106.382 57.146 106.427 57.0295 106.494 56.8994C106.54 56.8099 106.595 56.719 106.659 56.6123C106.721 56.5095 106.794 56.3902 106.863 56.2637C107.006 56.0044 107.146 55.6961 107.224 55.3066C107.443 54.2036 107.676 51.055 105.144 46.6699Z" fill="#B0B5C0" stroke="#CED3DF"/>
<path d="M146.028 48.9316L126.41 48.9316C125.056 48.9316 123.958 50.033 123.958 51.3915C123.958 52.75 125.056 53.8514 126.41 53.8514L146.028 53.8514C147.382 53.8514 148.48 52.75 148.48 51.3915C148.48 50.033 147.382 48.9316 146.028 48.9316Z" fill="#DBDBDB"/>
<path d="M146.593 48.9316L131.126 48.9316C130.084 48.9316 129.239 49.7788 129.239 50.8238C129.239 51.8689 130.084 52.716 131.126 52.716L146.593 52.716C147.635 52.716 148.48 51.8689 148.48 50.8238C148.48 49.7788 147.635 48.9316 146.593 48.9316Z" fill="white"/>
<path d="M123.769 67.8539C132.833 67.8539 140.18 60.4836 140.18 51.3918C140.18 42.3 132.833 34.9297 123.769 34.9297C114.706 34.9297 107.358 42.3 107.358 51.3918C107.358 60.4836 114.706 67.8539 123.769 67.8539Z" fill="white"/>
<path d="M109.622 51.5819C109.622 47.7679 111.133 44.1101 113.821 41.4132C116.51 38.7163 120.156 37.2012 123.958 37.2012C127.76 37.2012 131.406 38.7163 134.095 41.4132C136.784 44.1101 138.294 47.7679 138.294 51.5819C138.294 55.3959 136.784 59.0537 134.095 61.7506C131.406 64.4475 127.76 65.9626 123.958 65.9626C120.156 65.9626 116.51 64.4475 113.821 61.7506C111.133 59.0537 109.622 55.3959 109.622 51.5819Z" fill="#2D2B34"/>
<path opacity="0.467" d="M109.622 51.5819C109.622 47.7679 111.133 44.1101 113.821 41.4132C116.51 38.7163 120.156 37.2012 123.958 37.2012C125.935 37.1985 127.89 37.6072 129.701 38.4015C128.053 38.6755 126.443 39.1456 124.906 39.8018C123.638 40.3433 122.425 41.007 121.284 41.7837C120.152 42.5555 119.096 43.4342 118.13 44.4078C117.163 45.3818 116.292 46.4463 115.527 47.5866C114.756 48.7375 114.098 49.9602 113.562 51.2378C112.485 53.805 111.916 56.558 111.889 59.3432C110.405 57.0285 109.618 54.3338 109.622 51.5819Z" fill="#444C61"/>
</g>
<path d="M62.5487 77.0849L86.7734 98.916L90.2666 95.0399L66.0418 73.2088L62.5487 77.0849Z" fill="#E2E5EC"/>
<path d="M62.5487 77.0849L86.7734 98.916L88.52 96.9779L64.2953 75.1469L62.5487 77.0849Z" fill="#CED3DF"/>
<path d="M57.5118 69.0348L66.04 73.2103L62.549 77.0843L57.5118 69.0348Z" fill="#F6F6F6"/>
<path d="M57.5113 69.0352L61.7758 71.1218L60.0304 73.0588L57.5113 69.0352Z" fill="#30384D"/>
<path d="M90.266 95.0406L92.5037 97.0568C92.5915 97.1358 92.6628 97.2313 92.7136 97.3379C92.7643 97.4445 92.7936 97.56 92.7998 97.6779C92.8059 97.7959 92.7888 97.9138 92.7493 98.0251C92.7098 98.1364 92.6488 98.2388 92.5698 98.3265L90.2806 100.867C90.2015 100.955 90.1059 101.026 89.9993 101.077C89.8927 101.128 89.7771 101.157 89.6592 101.163C89.5412 101.169 89.4233 101.152 89.312 101.113C89.2007 101.073 89.0982 101.012 89.0105 100.933L86.7728 98.9168L90.266 95.0406Z" fill="#4573D2"/>
</g>
<defs>
<clipPath id="clip0_304_10103">
<rect width="160" height="120.238" fill="white"/>
</clipPath>
<clipPath id="clip1_304_10103">
<rect width="53.1937" height="56.5445" fill="white" transform="translate(97.1729 24.7109)"/>
</clipPath>
</defs>
</svg>
