<svg width="160" height="121" viewBox="0 0 160 121" fill="none" xmlns="http://www.w3.org/2000/svg">
<g clip-path="url(#clip0_620_2569)">
<path d="M159.725 74.409C162.625 42.7412 142.24 28.696 114.023 30.2013C85.8058 31.7067 90.4048 7.08088 63.8029 0.872712C37.201 -5.33545 2.53172 22.7324 0.175696 48.4627C-2.72525 80.1314 30.6423 111.612 74.7005 118.776C118.759 125.941 156.826 106.078 159.725 74.409Z" fill="#BEBEBE" fill-opacity="0.14"/>
<path d="M75.5388 40.7415L66.4916 74.5483C66.1327 75.8894 66.929 77.2675 68.2701 77.6264L126.839 93.3002C128.18 93.6591 129.558 92.8628 129.917 91.5217L138.964 57.715C139.323 56.3739 138.527 54.9958 137.186 54.6369L78.6169 38.9631C77.2758 38.6042 75.8977 39.4004 75.5388 40.7415Z" fill="#CED3DF"/>
<path d="M78.796 39.0106L137.009 54.589C137.7 54.7741 138.289 55.2262 138.647 55.8458C139.005 56.4654 139.102 57.2018 138.918 57.8931L136.886 62.0047L102.787 65.9138L75.1985 45.4963L75.4923 40.9194C75.6773 40.2282 76.1293 39.6388 76.7488 39.2808C77.3684 38.9228 78.1048 38.8256 78.796 39.0106Z" fill="#E2E5EC"/>
<path d="M71.7774 11.4837L22.4153 24.7184C21.5215 24.9581 20.9912 25.8769 21.2308 26.7708L40.9745 100.409C41.2141 101.303 42.133 101.833 43.0268 101.594L92.3889 88.359C93.2828 88.1194 93.8131 87.2005 93.5734 86.3067L73.8298 12.6682C73.5901 11.7743 72.6712 11.244 71.7774 11.4837Z" fill="white"/>
<path d="M71.7774 11.4837L22.4153 24.7184C21.5215 24.9581 20.9912 25.8769 21.2308 26.7708L40.9745 100.409C41.2141 101.303 42.133 101.833 43.0268 101.594L92.3889 88.359C93.2828 88.1194 93.8131 87.2005 93.5734 86.3067L73.8298 12.6682C73.5901 11.7743 72.6712 11.244 71.7774 11.4837Z" fill="white"/>
<path d="M59.7857 23.372L32.2724 30.7488C31.602 30.9285 31.2043 31.6177 31.384 32.288C31.5638 32.9584 32.2529 33.3562 32.9233 33.1764L60.4366 25.7997C61.107 25.6199 61.5047 24.9308 61.325 24.2604C61.1452 23.59 60.4561 23.1923 59.7857 23.372Z" fill="#E2E5EC"/>
<path d="M67.7987 22.5238C67.6189 21.8535 66.9299 21.4558 66.2596 21.6355C65.5893 21.8152 65.1916 22.5043 65.3713 23.1746C65.551 23.8449 66.2401 24.2426 66.9104 24.0629C67.5807 23.8832 67.9784 23.1941 67.7987 22.5238Z" fill="#E2E5EC"/>
<path d="M62.0172 31.6943L34.5039 39.071C33.8335 39.2508 33.4357 39.9399 33.6155 40.6103C33.7952 41.2807 34.4844 41.6784 35.1548 41.4987L62.6681 34.1219C63.3384 33.9422 63.7362 33.253 63.5564 32.5827C63.3767 31.9123 62.6875 31.5145 62.0172 31.6943Z" fill="#E2E5EC"/>
<path d="M70.0301 30.848C69.8504 30.1777 69.1613 29.78 68.491 29.9597C67.8207 30.1395 67.423 30.8285 67.6028 31.4988C67.7825 32.1691 68.4715 32.5668 69.1418 32.3871C69.8121 32.2074 70.2098 31.5183 70.0301 30.848Z" fill="#E2E5EC"/>
<path d="M64.2486 40.0185L36.7353 47.3953C36.0649 47.575 35.6672 48.2641 35.8469 48.9345C36.0267 49.6049 36.7158 50.0026 37.3862 49.8229L64.8995 42.4461C65.5699 42.2664 65.9676 41.5773 65.7879 40.9069C65.6081 40.2365 64.919 39.8388 64.2486 40.0185Z" fill="#E2E5EC"/>
<path d="M72.2616 39.1722C72.0818 38.5019 71.3928 38.1043 70.7225 38.284C70.0522 38.4637 69.6545 39.1528 69.8342 39.8231C70.0139 40.4933 70.703 40.891 71.3733 40.7113C72.0436 40.5316 72.4413 39.8425 72.2616 39.1722Z" fill="#E2E5EC"/>
<path d="M66.481 48.3427L38.9677 55.7195C38.2974 55.8992 37.8996 56.5884 38.0794 57.2587C38.2591 57.9291 38.9482 58.3269 39.6186 58.1471L67.1319 50.7704C67.8023 50.5906 68.2 49.9015 68.0203 49.2311C67.8406 48.5607 67.1514 48.163 66.481 48.3427Z" fill="#E2E5EC"/>
<path d="M74.493 47.4945C74.3133 46.8242 73.6242 46.4265 72.9539 46.6062C72.2836 46.786 71.8859 47.475 72.0656 48.1453C72.2454 48.8156 72.9344 49.2133 73.6047 49.0336C74.275 48.8539 74.6727 48.1648 74.493 47.4945Z" fill="#E2E5EC"/>
<path d="M68.7125 56.665L41.1992 64.0417C40.5288 64.2215 40.1311 64.9106 40.3108 65.581C40.4905 66.2514 41.1797 66.6491 41.8501 66.4694L69.3634 59.0926C70.0337 58.9129 70.4315 58.2237 70.2517 57.5534C70.072 56.883 69.3828 56.4852 68.7125 56.665Z" fill="#E2E5EC"/>
<path d="M76.7244 55.8187C76.5447 55.1484 75.8557 54.7507 75.1854 54.9305C74.5151 55.1102 74.1174 55.7992 74.2971 56.4695C74.4768 57.1398 75.1659 57.5375 75.8362 57.3578C76.5065 57.1781 76.9042 56.489 76.7244 55.8187Z" fill="#E2E5EC"/>
<path d="M57.1873 68.6776L43.4306 72.366C42.7602 72.5457 42.3625 73.2349 42.5422 73.9052C42.722 74.5756 43.4111 74.9733 44.0815 74.7936L57.8382 71.1052C58.5085 70.9255 58.9063 70.2363 58.7265 69.566C58.5468 68.8956 57.8576 68.4978 57.1873 68.6776Z" fill="#E2E5EC"/>
<path d="M59.4187 76.9998L45.6621 80.6882C44.9917 80.868 44.5939 81.5571 44.7737 82.2275C44.9534 82.8979 45.6426 83.2956 46.313 83.1159L60.0696 79.4275C60.74 79.2478 61.1377 78.5586 60.958 77.8882C60.7782 77.2179 60.0891 76.8201 59.4187 76.9998Z" fill="#E2E5EC"/>
<path d="M61.6502 85.3241L47.8935 89.0124C47.2231 89.1922 46.8254 89.8813 47.0051 90.5517C47.1849 91.2221 47.874 91.6198 48.5444 91.4401L62.301 87.7517C62.9714 87.572 63.3692 86.8828 63.1894 86.2124C63.0097 85.5421 62.3205 85.1443 61.6502 85.3241Z" fill="#E2E5EC"/>
<path d="M51.7211 64.7121C55.4968 66.805 58.6013 68.2529 60.3209 69.0558C61.5973 69.6537 62.6495 70.1198 63.3296 70.4183C63.1664 70.8022 63.0073 71.188 62.8441 71.572C62.1479 71.4108 61.0311 71.1505 59.6574 70.8245C52.6344 69.1578 52.8088 69.0658 50.1393 68.5228C47.9612 68.0792 46.5821 67.8831 43.9992 67.1933C41.0293 66.3953 39.5876 65.7783 39.1325 64.467C38.9262 63.8775 38.8704 62.9962 39.2149 62.1509C39.538 61.3741 40.1223 60.8197 40.6293 60.5365C41.94 59.809 43.5374 60.4555 46.0454 61.6848C48.6124 62.946 50.227 63.8823 51.72 64.7091L51.7211 64.7121Z" fill="#7C532D"/>
<path d="M52.2293 64.9303C55.8786 66.9189 58.9204 68.3161 60.3514 68.9675C61.6171 69.5458 62.6689 70.0019 63.3719 70.2986C63.2391 70.6106 63.1045 70.9267 62.9718 71.2387C62.2829 71.0613 61.1761 70.7738 59.8162 70.4123C52.8581 68.5766 53.0244 68.5079 50.386 67.8859C48.8253 67.5186 47.6815 67.2852 46.1921 66.9014C45.3059 66.673 44.8639 66.5618 44.3109 66.3875C41.9263 65.6339 40.3541 65.1362 39.793 63.8476C39.4391 63.0337 39.6253 62.2238 39.6699 62.0456C39.7357 61.7889 40.0014 60.8854 40.7443 60.4402C41.7831 59.814 43.1983 60.414 45.6663 61.5C46.1852 61.7273 46.6857 61.9682 48.1618 62.7408C50.1198 63.7678 51.3849 64.4709 52.2304 64.9332L52.2293 64.9303Z" fill="#8F5F33"/>
<path d="M67.0439 72.4633C67.4604 71.3564 66.8689 70.1095 65.7228 69.6783C64.5768 69.2472 63.3101 69.795 62.8937 70.902C62.4772 72.0089 63.0687 73.2558 64.2148 73.6869C65.3609 74.1181 66.6275 73.5702 67.0439 72.4633Z" fill="#C98A30"/>
<path d="M83.2373 86.0909C85.1289 85.3858 86.0907 83.2808 85.3856 81.3892C84.6805 79.4976 82.5754 78.5357 80.6838 79.2409C78.7922 79.946 77.8304 82.051 78.5355 83.9426C79.2406 85.8342 81.3457 86.7961 83.2373 86.0909Z" fill="#C98A30"/>
<path d="M84.0818 79.6884C85.2772 80.5387 85.8494 82.0285 85.5362 83.4545C85.2159 84.9068 84.0365 86.0229 82.5643 86.2721C83.2106 84.9811 83.8615 83.2238 84.0374 81.0951C84.0789 80.6016 84.0894 80.1332 84.0818 79.6884Z" fill="#E89C2E"/>
<path d="M86.1757 67.0399C85.6379 67.0418 85.2732 67.2552 84.7126 67.5483C84.7126 67.5483 84.5656 67.6233 83.2524 68.2541C82.7902 68.4769 82.0745 68.6427 79.0088 67.7593C76.909 67.1553 76.6728 66.9101 74.7779 66.4317C73.5405 66.1188 72.9022 65.9596 72.0522 65.9365C71.263 65.9143 69.8604 65.8717 68.3965 66.6395C67.0285 67.3581 66.3022 68.4165 65.6207 69.4144C64.9477 70.399 64.5476 71.3121 64.3079 71.9602C64.0601 72.6046 63.7611 73.5541 63.6181 74.7417C63.4725 75.9403 63.3216 77.215 63.8762 78.6575C64.4711 80.1994 65.5542 81.0915 66.1627 81.5951C66.8194 82.1379 67.4028 82.4388 68.5418 83.0205C70.2835 83.9095 70.6228 83.8806 72.5983 84.8103C75.4841 86.168 75.9152 86.7647 76.1143 87.2357C76.6842 88.5749 76.7455 88.7304 76.7455 88.7304C76.9758 89.3211 77.1075 89.7196 77.5103 90.0777C77.6606 90.2102 77.8851 90.4059 78.2312 90.4586C78.6205 90.5188 79.0139 90.3823 79.2716 90.1617C79.2716 90.1617 79.3529 90.091 79.4229 90.0077C79.8044 89.5322 82.5773 81.9824 83.589 79.2156C84.6512 76.467 87.5425 68.9639 87.571 68.3541C87.5742 68.2452 87.5615 68.1389 87.5615 68.1389C87.5127 67.8003 87.3074 67.4393 86.9738 67.2304C86.6748 67.0423 86.3784 67.0418 86.1798 67.0417L86.1757 67.0399Z" fill="#C98A30"/>
<path d="M86.2225 67.0377C85.6951 67.0223 85.3481 67.2021 84.8069 67.4476C84.8069 67.4476 84.6654 67.5105 83.4015 68.0388C82.959 68.2239 82.2618 68.3492 79.2345 67.4514C77.1601 66.8346 76.9206 66.6075 75.049 66.1103C73.8271 65.7849 73.1977 65.6224 72.3647 65.5728C71.5896 65.5251 70.2155 65.4416 68.8101 66.0866C67.493 66.6887 66.8201 67.6194 66.1853 68.4989C65.5591 69.3651 65.1983 70.1761 64.986 70.7534C64.7657 71.3269 64.503 72.1754 64.4046 73.2386C64.3047 74.3159 64.1961 75.4604 64.7893 76.7808C65.4225 78.1906 66.5109 79.0336 67.1223 79.5092C67.7839 80.0198 68.364 80.3119 69.4954 80.8729C71.2289 81.7312 71.5608 81.7186 73.5276 82.6246C76.396 83.9451 76.8375 84.4974 77.0493 84.9301C77.6523 86.1593 77.7181 86.2997 77.7181 86.2997C77.9636 86.841 78.1061 87.2052 78.5111 87.5423C78.6622 87.6677 78.8881 87.8494 79.2305 87.9102C79.6132 87.9796 79.9925 87.8685 80.2383 87.6793C80.2383 87.6793 80.3171 87.6197 80.3803 87.5456C80.737 87.1299 83.1997 80.4093 84.0982 77.9438C85.0483 75.4995 87.6272 68.8197 87.632 68.2726C87.6326 68.1748 87.6132 68.0777 87.6132 68.0777C87.5536 67.7734 87.3413 67.4386 87.008 67.2397C86.7123 67.0605 86.4185 67.0488 86.2247 67.0436L86.2225 67.0377Z" fill="#E89C2E"/>
<path d="M66.9786 72.2271C67.3551 71.2262 66.7617 70.0766 65.6532 69.6596C64.5446 69.2425 63.3406 69.7159 62.9641 70.7169C62.5875 71.7178 63.1809 72.8674 64.2895 73.2844C65.398 73.7015 66.602 73.2281 66.9786 72.2271Z" fill="#E89C2E"/>
<path d="M62.8556 69.6209L62.0183 71.8466C61.9613 71.9982 62.0379 72.1673 62.1896 72.2244L62.7032 72.4176C62.8548 72.4746 63.0239 72.398 63.081 72.2463L63.9183 70.0207C63.9753 69.8691 63.8987 69.6999 63.747 69.6429L63.2334 69.4496C63.0818 69.3926 62.9127 69.4693 62.8556 69.6209Z" fill="#8F5F33"/>
<path d="M63.0842 72.2435C63.0761 72.2667 63.0401 72.3508 62.944 72.4001C62.8313 72.4589 62.7203 72.4229 62.7041 72.4155L62.1913 72.2229C62.1722 72.2166 62.08 72.1769 62.0314 72.0738C61.984 71.9737 62.0097 71.88 62.0149 71.8578C62.0668 71.7173 62.1188 71.5768 62.1737 71.4351C62.2193 71.3138 62.265 71.1924 62.3136 71.07C62.2901 71.1965 62.2673 71.343 62.2452 71.5095C62.2238 71.6689 62.2136 71.777 62.2788 71.8705C62.3009 71.9027 62.3256 71.9238 62.3532 71.9438C62.5438 72.0848 62.9754 72.2134 63.0883 72.2453L63.0842 72.2435Z" fill="#7C532D"/>
</g>
<defs>
<clipPath id="clip0_620_2569">
<rect width="160" height="120.238" fill="white"/>
</clipPath>
</defs>
</svg>
