<svg width="160" height="121" viewBox="0 0 160 121" fill="none" xmlns="http://www.w3.org/2000/svg">
<g clip-path="url(#clip0_9_51112)">
<path d="M0.274605 74.4611C-2.62468 42.7715 17.7604 28.717 45.9792 30.2235C74.198 31.7301 69.5972 7.08739 96.1992 0.872003C122.801 -5.34338 157.468 22.7486 159.825 48.4954C162.724 80.1853 129.358 111.687 85.2993 118.857C41.2404 126.027 3.17389 106.151 0.274605 74.4611Z" fill="#BEBEBE" fill-opacity="0.14"/>
<path d="M9.97884 20.2318L59.7621 12.6692C60.0235 12.6312 60.2898 12.6454 60.5456 12.7111C60.8014 12.7769 61.0417 12.8927 61.2524 13.0521C61.4631 13.2114 61.6402 13.411 61.7732 13.6393C61.9063 13.8676 61.9927 14.12 62.0276 14.382L71.8843 83.506C71.9629 84.0365 71.8296 84.5766 71.5132 85.0095C71.1969 85.4424 70.7229 85.7332 70.1939 85.8191L20.4099 93.3827C20.1486 93.4208 19.8822 93.4065 19.6264 93.3408C19.3706 93.2751 19.1304 93.1592 18.9196 92.9999C18.7089 92.8406 18.5319 92.641 18.3988 92.4127C18.2657 92.1844 18.1793 91.9319 18.1445 91.6699L8.28777 22.5453C8.20897 22.0146 8.34227 21.4742 8.65879 21.0412C8.97531 20.6082 9.44957 20.3174 9.97884 20.2318Z" fill="#30384D"/>
<path d="M13.5361 28.2993L56.3393 17.8535L70.55 79.2173L27.7461 89.6634L13.5361 28.2993Z" fill="#CED3DF"/>
<path d="M65.5788 73.3201L55.9116 85.2002L19.7109 88.7401L13.6367 21.5416L60.484 16.959L65.5788 73.3201Z" fill="white"/>
<path d="M26.1282 15.3782L43.2721 12.7741C43.4027 12.755 43.5359 12.7622 43.6638 12.795C43.7917 12.8279 43.9118 12.8858 44.0172 12.9655C44.1225 13.0451 44.211 13.1449 44.2775 13.2591C44.344 13.3733 44.3872 13.4995 44.4046 13.6305L45.2183 19.3349C45.2577 19.6003 45.191 19.8705 45.0327 20.0871C44.8744 20.3036 44.6372 20.449 44.3725 20.4917L27.2287 23.0962C27.098 23.1152 26.9649 23.108 26.837 23.0751C26.709 23.0422 26.5889 22.9843 26.4836 22.9046C26.3782 22.8249 26.2897 22.725 26.2232 22.6109C26.1567 22.4967 26.1135 22.3704 26.0962 22.2394L25.2825 16.535C25.2432 16.2696 25.3099 15.9994 25.4682 15.7829C25.6265 15.5664 25.8636 15.421 26.1282 15.3782Z" fill="#E2E5EC"/>
<path d="M35.3011 19.4722C34.8001 19.5451 34.2897 19.5178 33.7994 19.3918C33.3091 19.2659 32.8486 19.0438 32.4447 18.7384C32.0409 18.433 31.7016 18.0503 31.4466 17.6127C31.1916 17.1751 31.026 16.6912 30.9594 16.189L30.5288 13.1692C30.3777 12.1516 30.6334 11.1156 31.2404 10.2854C31.8475 9.4552 32.7569 8.89781 33.7718 8.73397C34.2698 8.65848 34.7779 8.68359 35.2661 8.80782C35.7543 8.93206 36.2127 9.1529 36.6142 9.4573C37.0202 9.76428 37.3616 10.1485 37.6189 10.5878C37.8762 11.0271 38.0443 11.513 38.1135 12.0174L38.5441 15.0377C38.6952 16.0551 38.4396 17.0912 37.8325 17.9213C37.2254 18.7514 36.3159 19.3086 35.3011 19.4722ZM33.9613 10.0753C33.6033 10.129 33.2807 10.3214 33.0632 10.6111C32.8458 10.9007 32.7508 11.2643 32.7989 11.6233C32.8282 11.8018 32.8927 11.9726 32.9885 12.1259C33.0843 12.2792 33.2096 12.4119 33.3571 12.5164C33.5046 12.6208 33.6714 12.6949 33.8477 12.7344C34.024 12.7738 34.2065 12.7779 34.3844 12.7462C34.7303 12.6792 35.0381 12.4839 35.2461 12.1993C35.454 11.9148 35.5468 11.562 35.5057 11.2119C35.4797 11.0354 35.419 10.8659 35.3271 10.713C35.2352 10.5602 35.114 10.4271 34.9704 10.3214C34.8268 10.2157 34.6637 10.1395 34.4905 10.0973C34.3173 10.0551 34.1374 10.0476 33.9613 10.0753Z" fill="#CED3DF"/>
<path d="M22.8057 29.2472L53.9281 26.2461L54.038 27.4804L22.9174 30.4819L22.8057 29.2472Z" fill="#E2E5EC"/>
<path d="M23.209 33.774L50.6895 31.1738L50.7994 32.4081L23.3189 35.0083L23.209 33.774Z" fill="#E2E5EC"/>
<path d="M23.6113 38.2997L51.0918 35.6992L51.2017 36.9335L23.7212 39.5337L23.6113 38.2997Z" fill="#E2E5EC"/>
<path d="M24.0146 42.8248L51.4951 40.2246L51.605 41.4589L24.1245 44.0591L24.0146 42.8248Z" fill="#E2E5EC"/>
<path d="M24.418 47.3521L51.8985 44.752L52.0084 45.9862L24.5279 48.5868L24.418 47.3521Z" fill="#E2E5EC"/>
<path d="M24.8213 51.8775L52.3018 49.2773L52.4117 50.5116L24.9312 53.1118L24.8213 51.8775Z" fill="#E2E5EC"/>
<path d="M25.2236 56.4049L52.7041 53.8047L52.814 55.039L25.3335 57.6391L25.2236 56.4049Z" fill="#E2E5EC"/>
<path d="M25.627 60.9301L53.1067 58.3281L53.2166 59.5624L25.7369 62.1658L25.627 60.9301Z" fill="#E2E5EC"/>
<path d="M26.0303 65.4556L53.7619 62.8594L53.8718 64.0937L26.1402 66.6899L26.0303 65.4556Z" fill="#E2E5EC"/>
<path d="M26.4336 69.9833L54.2236 67.3633L54.3335 68.5976L26.5435 71.2176L26.4336 69.9833Z" fill="#E2E5EC"/>
<path d="M26.8359 74.5093L54.6458 71.873L54.7557 73.1073L26.9458 75.7436L26.8359 74.5093Z" fill="#E2E5EC"/>
<path d="M53.2355 37.3238L52.9473 34.1868L56.048 33.8262L56.3362 36.9633L53.2355 37.3238Z" fill="#F6F6F6"/>
<path d="M52.7658 32.5133L52.4775 29.3762L55.5782 29.0156L55.8665 32.1527L52.7658 32.5133Z" fill="#F6F6F6"/>
<path fill-rule="evenodd" clip-rule="evenodd" d="M56.1139 32.9298C56.2727 32.9895 56.3531 33.1666 56.2935 33.3254L54.9743 36.8418C54.9373 36.9405 54.8524 37.0132 54.7493 37.0347C54.6463 37.0561 54.5394 37.0232 54.4662 36.9475L53.2202 35.6592C53.1023 35.5372 53.1055 35.3427 53.2273 35.2247C53.3491 35.1067 53.5435 35.1099 53.6614 35.2319L54.57 36.1713L55.7186 33.1095C55.7782 32.9506 55.9552 32.8702 56.1139 32.9298Z" fill="#4573D2"/>
<path fill-rule="evenodd" clip-rule="evenodd" d="M55.7145 28.1837C55.8733 28.2434 55.9536 28.4205 55.8941 28.5793L54.5749 32.0958C54.5379 32.1944 54.453 32.2671 54.3499 32.2886C54.2469 32.31 54.14 32.2771 54.0668 32.2014L52.8208 30.9131C52.7029 30.7911 52.706 30.5967 52.8279 30.4787C52.9497 30.3607 53.1441 30.3638 53.262 30.4858L54.1706 31.4252L55.3192 28.3634C55.3788 28.2045 55.5558 28.1241 55.7145 28.1837Z" fill="#4573D2"/>
<path d="M54.1193 46.482L53.8311 43.345L56.9318 42.9844L57.22 46.1215L54.1193 46.482Z" fill="#F6F6F6"/>
<path d="M53.6496 41.6715L53.3613 38.5344L56.462 38.1738L56.7503 41.3109L53.6496 41.6715Z" fill="#F6F6F6"/>
<path fill-rule="evenodd" clip-rule="evenodd" d="M56.9977 42.09C57.1565 42.1496 57.2369 42.3267 57.1773 42.4856L55.8581 46.002C55.8211 46.1006 55.7362 46.1734 55.6331 46.1948C55.5301 46.2163 55.4232 46.1834 55.35 46.1077L54.104 44.8193C53.9861 44.6974 53.9892 44.5029 54.1111 44.3849C54.2329 44.2669 54.4273 44.2701 54.5452 44.392L55.4538 45.3314L56.6024 42.2696C56.662 42.1108 56.839 42.0304 56.9977 42.09Z" fill="#4573D2"/>
<path fill-rule="evenodd" clip-rule="evenodd" d="M56.5993 37.3419C56.758 37.4016 56.8384 37.5787 56.7788 37.7375L55.4596 41.254C55.4226 41.3526 55.3377 41.4253 55.2347 41.4468C55.1316 41.4682 55.0248 41.4353 54.9516 41.3596L53.7055 40.0713C53.5876 39.9493 53.5908 39.7549 53.7126 39.6369C53.8345 39.5189 54.0288 39.522 54.1468 39.644L55.0553 40.5834L56.204 37.5216C56.2636 37.3627 56.4406 37.2823 56.5993 37.3419Z" fill="#4573D2"/>
<path d="M55.0236 56.0738L54.7354 52.9368L57.8361 52.5762L58.1243 55.7133L55.0236 56.0738Z" fill="#F6F6F6"/>
<path d="M54.5549 51.2633L54.2666 48.1262L57.3673 47.7656L57.6556 50.9027L54.5549 51.2633Z" fill="#F6F6F6"/>
<path d="M55.9074 65.232L55.6191 62.095L58.7199 61.7344L59.0081 64.8715L55.9074 65.232Z" fill="#F6F6F6"/>
<path d="M55.4377 60.4215L55.1494 57.2844L58.2501 56.9238L58.5384 60.0609L55.4377 60.4215Z" fill="#F6F6F6"/>
<path d="M56.343 70.1637L56.0547 67.0266L59.1554 66.666L59.4437 69.8031L56.343 70.1637Z" fill="#F6F6F6"/>
<path d="M56.7121 74.7691L56.4238 71.6321L59.5245 71.2715L59.8128 74.4086L56.7121 74.7691Z" fill="#F6F6F6"/>
<path d="M55.9108 85.2005L54.9307 74.3617L65.5779 73.3203L55.9108 85.2005Z" fill="#E2E5EC"/>
<path d="M99.0679 26.1563L148.563 35.4197C148.823 35.4699 149.069 35.5711 149.289 35.7174C149.509 35.8638 149.698 36.0524 149.845 36.2723C149.991 36.4922 150.093 36.739 150.143 36.9985C150.194 37.2579 150.192 37.5248 150.139 37.7837L136.7 106.301C136.599 106.828 136.296 107.294 135.854 107.599C135.413 107.904 134.869 108.022 134.341 107.928L84.8461 98.665C84.5868 98.6149 84.3399 98.5137 84.12 98.3673C83.9 98.221 83.7113 98.0324 83.5647 97.8124C83.4182 97.5925 83.3167 97.3457 83.2663 97.0862C83.2158 96.8268 83.2173 96.5599 83.2707 96.301L96.7095 27.7839C96.8097 27.2568 97.1135 26.7904 97.5549 26.4857C97.9963 26.1811 98.5399 26.0627 99.0679 26.1563Z" fill="#30384D"/>
<path d="M99.7724 34.9453L143.626 39.1858L136.851 101.81L92.998 97.5694L99.7724 34.9453Z" fill="#CED3DF"/>
<path d="M134.098 94.6036L121.061 102.636L85.7139 94.0512L102.091 28.5977L147.833 39.7072L134.098 94.6036Z" fill="white"/>
<path d="M115.914 26.8945L132.958 30.0846C133.088 30.1097 133.211 30.1603 133.321 30.2335C133.431 30.3067 133.526 30.401 133.599 30.5109C133.672 30.6209 133.723 30.7443 133.748 30.874C133.773 31.0037 133.773 31.1372 133.746 31.2666L132.637 36.9209C132.587 37.1844 132.435 37.4176 132.214 37.5698C131.993 37.7221 131.722 37.7812 131.458 37.7344L114.414 34.5447C114.284 34.5196 114.161 34.4689 114.051 34.3958C113.941 34.3226 113.846 34.2283 113.773 34.1183C113.7 34.0084 113.649 33.885 113.624 33.7553C113.599 33.6255 113.599 33.4921 113.626 33.3627L114.735 27.7083C114.785 27.4448 114.937 27.2116 115.158 27.0593C115.378 26.907 115.65 26.8478 115.914 26.8945Z" fill="#E2E5EC"/>
<path d="M123.229 33.781C122.732 33.6847 122.259 33.4907 121.837 33.2102C121.416 32.9297 121.054 32.5682 120.773 32.1468C120.493 31.7254 120.298 31.2524 120.201 30.7553C120.105 30.2581 120.107 29.7467 120.21 29.2506L120.797 26.2578C120.989 25.2475 121.571 24.3536 122.417 23.7696C123.263 23.1857 124.304 22.9588 125.316 23.138C125.812 23.2307 126.283 23.4217 126.703 23.6999C127.123 23.978 127.483 24.3376 127.762 24.7574C128.045 25.181 128.241 25.6562 128.339 26.1558C128.438 26.6554 128.437 27.1695 128.336 27.6687L127.749 30.6616C127.557 31.6719 126.975 32.5659 126.129 33.1498C125.283 33.7337 124.241 33.9604 123.229 33.781ZM125.055 24.4678C124.7 24.4005 124.332 24.4759 124.031 24.6776C123.73 24.8794 123.521 25.1914 123.448 25.5463C123.417 25.7246 123.422 25.9072 123.462 26.0837C123.502 26.2602 123.577 26.4269 123.682 26.5742C123.787 26.7216 123.92 26.8465 124.074 26.9419C124.227 27.0372 124.398 27.101 124.577 27.1296C124.926 27.1804 125.28 27.0973 125.57 26.8971C125.86 26.697 126.064 26.3945 126.14 26.0504C126.174 25.8751 126.173 25.6949 126.136 25.5202C126.1 25.3454 126.029 25.1797 125.928 25.0325C125.827 24.8853 125.698 24.7596 125.548 24.6627C125.399 24.5658 125.231 24.4995 125.055 24.4678Z" fill="#CED3DF"/>
<path d="M108.213 38.8945L138.586 46.3157L138.284 47.5175L107.91 40.0974L108.213 38.8945Z" fill="#E2E5EC"/>
<path d="M107.104 43.3008L133.907 49.8995L133.605 51.1013L106.802 44.5026L107.104 43.3008Z" fill="#E2E5EC"/>
<path d="M105.996 47.707L132.799 54.3057L132.497 55.5075L105.693 48.9089L105.996 47.707Z" fill="#E2E5EC"/>
<path d="M104.887 52.1152L131.691 58.7139L131.388 59.9157L104.585 53.3171L104.887 52.1152Z" fill="#E2E5EC"/>
<path d="M103.778 56.5215L130.581 63.1202L130.279 64.322L103.476 57.7233L103.778 56.5215Z" fill="#E2E5EC"/>
<path d="M102.669 60.9277L129.472 67.5264L129.17 68.7283L102.366 62.1296L102.669 60.9277Z" fill="#E2E5EC"/>
<path d="M101.56 65.334L128.364 71.9327L128.061 73.1345L101.258 66.5358L101.56 65.334Z" fill="#E2E5EC"/>
<path d="M100.452 69.7402L127.255 76.3389L126.953 77.5407L100.149 70.9421L100.452 69.7402Z" fill="#E2E5EC"/>
<path d="M99.3424 74.1465L126.381 80.8339L126.079 82.0357L99.04 75.3483L99.3424 74.1465Z" fill="#E2E5EC"/>
<path d="M98.234 78.5527L125.336 85.2358L125.034 86.4376L97.9316 79.7546L98.234 78.5527Z" fill="#E2E5EC"/>
<path d="M97.1252 82.959L124.252 89.6334L123.95 90.8352L96.8232 84.1601L97.1252 82.959Z" fill="#E2E5EC"/>
<path d="M134.288 56.5473L135.049 53.4902L138.096 54.1721L137.334 57.2291L134.288 56.5473Z" fill="#F6F6F6"/>
<path d="M135.428 51.852L136.189 48.7949L139.235 49.4768L138.474 52.5338L135.428 51.852Z" fill="#F6F6F6"/>
<path fill-rule="evenodd" clip-rule="evenodd" d="M138.452 53.3505C138.582 53.4592 138.6 53.6529 138.491 53.7832L136.088 56.6679C136.021 56.7488 135.917 56.7895 135.812 56.7758C135.708 56.7621 135.618 56.6958 135.574 56.6002L134.821 54.9729C134.75 54.8189 134.817 54.6363 134.971 54.5651C135.125 54.4938 135.307 54.5609 135.379 54.7149L135.927 55.9015L138.019 53.3898C138.128 53.2595 138.321 53.2419 138.452 53.3505Z" fill="#4573D2"/>
<path fill-rule="evenodd" clip-rule="evenodd" d="M139.636 48.7353C139.767 48.8439 139.784 49.0377 139.676 49.168L137.273 52.0527C137.205 52.1336 137.101 52.1743 136.997 52.1606C136.893 52.1468 136.803 52.0805 136.758 51.985L136.006 50.3576C135.935 50.2037 136.002 50.0211 136.156 49.9498C136.31 49.8786 136.492 49.9457 136.563 50.0996L137.112 51.2862L139.204 48.7746C139.312 48.6443 139.506 48.6267 139.636 48.7353Z" fill="#4573D2"/>
<path d="M132.109 65.4867L132.871 62.4297L135.917 63.1115L135.156 66.1686L132.109 65.4867Z" fill="#F6F6F6"/>
<path d="M133.249 60.7895L134.01 57.7324L137.057 58.415L136.295 61.472L133.249 60.7895Z" fill="#F6F6F6"/>
<path fill-rule="evenodd" clip-rule="evenodd" d="M136.272 62.288C136.402 62.3967 136.42 62.5904 136.311 62.7207L133.909 65.6054C133.841 65.6863 133.737 65.727 133.633 65.7133C133.528 65.6996 133.438 65.6333 133.394 65.5377L132.642 63.9104C132.571 63.7564 132.638 63.5738 132.791 63.5026C132.945 63.4313 133.128 63.4984 133.199 63.6524L133.748 64.839L135.84 62.3273C135.948 62.197 136.142 62.1794 136.272 62.288Z" fill="#4573D2"/>
<path fill-rule="evenodd" clip-rule="evenodd" d="M137.458 57.6747C137.588 57.7834 137.605 57.9771 137.497 58.1074L135.094 60.9921C135.027 61.073 134.923 61.1137 134.818 61.1C134.714 61.0863 134.624 61.02 134.58 60.9244L133.827 59.2971C133.756 59.1431 133.823 58.9605 133.977 58.8893C134.131 58.818 134.313 58.8851 134.385 59.0391L134.933 60.2257L137.025 57.714C137.134 57.5837 137.327 57.5661 137.458 57.6747Z" fill="#4573D2"/>
<path d="M129.807 74.8422L130.568 71.7852L133.614 72.467L132.853 75.5241L129.807 74.8422Z" fill="#F6F6F6"/>
<path d="M130.947 70.1449L131.709 67.0879L134.755 67.7698L133.994 70.8268L130.947 70.1449Z" fill="#F6F6F6"/>
<path d="M127.628 83.7797L128.389 80.7227L131.436 81.4045L130.674 84.4616L127.628 83.7797Z" fill="#F6F6F6"/>
<path d="M128.767 79.0824L129.528 76.0254L132.574 76.7073L131.812 79.7643L128.767 79.0824Z" fill="#F6F6F6"/>
<path d="M126.415 88.5805L127.176 85.5234L130.223 86.2053L129.461 89.2623L126.415 88.5805Z" fill="#F6F6F6"/>
<path d="M125.249 93.0512L126.01 89.9941L129.057 90.676L128.295 93.733L125.249 93.0512Z" fill="#F6F6F6"/>
<path d="M121.061 102.635L123.702 92.0781L134.098 94.6022L121.061 102.635Z" fill="#E2E5EC"/>
<path d="M108.296 52.9393C107.798 50.332 106.285 48.0294 104.091 46.538C101.896 45.0466 99.1998 44.4884 96.5942 44.9863L81.2077 47.9265C79.9177 48.1729 78.6889 48.6712 77.5914 49.393C76.4939 50.1147 75.5492 51.0458 74.8113 52.1329C74.0735 53.2201 73.5569 54.442 73.291 55.729C73.0251 57.016 73.0153 58.3428 73.2619 59.6336C73.76 62.2408 75.2726 64.5433 77.467 66.0347C79.6614 67.5262 82.3579 68.0844 84.9635 67.5866L100.35 64.6464C101.64 64.4 102.869 63.9017 103.966 63.18C105.064 62.4582 106.009 61.5272 106.746 60.44C107.484 59.3529 108.001 58.1309 108.267 56.8439C108.533 55.5569 108.542 54.2301 108.296 52.9393ZM84.6403 63.1976C83.1728 63.4781 81.654 63.1639 80.418 62.324C79.1819 61.4841 78.3299 60.1872 78.0494 58.7188C77.9104 57.9918 77.916 57.2446 78.0657 56.5198C78.2154 55.795 78.5063 55.1068 78.9218 54.4946C79.3374 53.8823 79.8694 53.3579 80.4874 52.9514C81.1055 52.5449 81.7976 52.2643 82.524 52.1255L96.9862 49.362C98.4536 49.0817 99.9721 49.3961 101.208 50.236C102.444 51.0759 103.295 52.3725 103.576 53.8408C103.715 54.5677 103.71 55.3149 103.56 56.0397C103.411 56.7645 103.12 57.4528 102.704 58.0651C102.289 58.6774 101.757 59.2019 101.139 59.6085C100.521 60.0151 99.829 60.2958 99.1025 60.4348L84.6403 63.1976Z" fill="#4369B6"/>
<path d="M86.2569 56.5121C86.0231 55.2187 85.5369 53.984 84.8261 52.8786C84.1154 51.7732 83.1941 50.8187 82.1147 50.0696C81.0353 49.3205 79.819 48.7915 78.5354 48.5128C77.2517 48.234 75.9257 48.2111 74.6331 48.4452L59.2171 51.2372C57.9246 51.4712 56.6908 51.9578 55.5862 52.669C54.4815 53.3803 53.5277 54.3022 52.7792 55.3824C52.0306 56.4625 51.502 57.6795 51.2235 58.9641C50.945 60.2486 50.9221 61.5755 51.156 62.8689C51.3899 64.1623 51.8761 65.397 52.5868 66.5024C53.2975 67.6078 54.2189 68.5623 55.2983 69.3114C56.3777 70.0604 57.5939 70.5894 58.8776 70.8681C60.1613 71.1467 61.4873 71.1697 62.7798 70.9355L78.1958 68.1439C80.8062 67.671 83.1219 66.1799 84.6336 63.9986C86.1454 61.8172 86.7293 59.1243 86.2569 56.5121ZM62.5002 66.5429C61.7722 66.6747 61.0255 66.6617 60.3025 66.5048C59.5796 66.3478 58.8946 66.0498 58.2867 65.6279C57.6788 65.206 57.1599 64.6685 56.7597 64.0459C56.3594 63.4233 56.0856 62.728 55.9539 61.9995C55.8222 61.2711 55.8351 60.5238 55.992 59.8004C56.1489 59.077 56.4466 58.3916 56.8683 57.7833C57.2899 57.175 57.8271 56.6558 58.4492 56.2553C59.0714 55.8548 59.7662 55.5809 60.4942 55.4491L74.9837 52.8248C75.7117 52.693 76.4584 52.706 77.1814 52.8629C77.9043 53.0199 78.5892 53.3179 79.1971 53.7398C79.8049 54.1617 80.3238 54.6993 80.724 55.3218C81.1242 55.9444 81.398 56.6397 81.5297 57.3682C81.6614 58.0966 81.6484 58.8439 81.4916 59.5673C81.3347 60.2908 81.0369 60.9762 80.6153 61.5845C80.1937 62.1928 79.6565 62.7121 79.0344 63.1126C78.4122 63.5131 77.7174 63.7871 76.9894 63.9189L62.5002 66.5429Z" fill="#4573D2"/>
<path d="M85.7012 51.5173L82.5367 52.1235C81.5004 52.3173 80.5392 52.798 79.7621 53.511C79.2649 53.9809 78.8522 54.533 78.542 55.143C78.4172 55.3925 78.3116 55.6512 78.226 55.9168C77.3906 55.7391 76.5658 55.5146 75.7555 55.2443C75.0265 54.9257 74.3885 54.4299 73.8994 53.802C74.3005 52.8434 74.8569 51.9575 75.5462 51.1802C75.9914 50.6706 76.4833 50.2038 77.0156 49.7862C77.936 49.0724 78.9809 48.5361 80.0972 48.2046C81.001 47.9543 81.9185 47.7569 82.8452 47.6133C82.8452 47.6133 85.2292 49.0455 85.7012 51.5173Z" fill="#4369B6"/>
</g>
<defs>
<clipPath id="clip0_9_51112">
<rect width="160" height="120.32" fill="white"/>
</clipPath>
</defs>
</svg>
