<svg width="600" height="302" viewBox="0 0 600 302" fill="none" xmlns="http://www.w3.org/2000/svg">
<g clip-path="url(#clip0_9_42788)">
<path d="M473.675 199.437C480.159 128.567 434.568 97.1355 371.46 100.506C308.352 103.876 318.639 48.7643 259.148 34.8711C199.658 20.9778 122.11 83.789 116.84 141.372C110.352 212.244 184.979 282.694 283.516 298.727C382.053 314.761 467.19 270.309 473.675 199.437Z" fill="#BEBEBE" fill-opacity="0.14"/>
<path fill-rule="evenodd" clip-rule="evenodd" d="M298.601 29.0903C399.712 29.2327 500.594 19.4896 599.811 0L599.998 0.956438C500.72 20.4582 399.774 30.2074 298.601 30.065C198.381 30.2026 98.3828 20.6391 0.003479 1.50829L0.189303 0.551499C98.5072 19.6704 198.443 29.2278 298.6 29.0903H298.601Z" fill="#8A90A7"/>
<path d="M170.554 21.8423L125.908 18.0391L120.785 78.2523L165.431 82.0555L170.554 21.8423Z" fill="#4573D2"/>
<path d="M140.531 67.0541L134.867 66.5667L137.841 31.6016L157.56 33.281L157.148 38.1115L143.092 36.9195L142.162 47.8497L155.332 48.9716L154.919 53.8265L141.749 52.7047L140.531 67.0541Z" fill="white"/>
<path d="M230.762 25.6683L185.999 23.7852L183.462 84.1557L228.225 86.0388L230.762 25.6683Z" fill="#4573D2"/>
<path d="M216.514 72.7127L213.42 62.8293L200.024 62.263L196.186 71.8549L190.146 71.5996L204.751 36.9492L210.985 37.2124L222.609 72.971L216.514 72.7127ZM212.124 57.8242L209.243 48.1416C209.031 47.4918 208.742 46.4707 208.376 45.0782C208.011 43.6857 207.762 42.6661 207.629 42.0196C207.041 44.1862 206.318 46.3139 205.464 48.3902L201.915 57.3924L212.124 57.8242Z" fill="white"/>
<path d="M288.549 27.1578L243.752 26.1641L242.414 86.5802L287.21 87.574L288.549 27.1578Z" fill="#4573D2"/>
<path d="M258.062 60.0697L257.752 74.0838L252.021 73.9562L252.8 38.873L262.705 39.0933C267.23 39.194 270.56 40.1161 272.697 41.8595C274.833 43.6029 275.864 46.1868 275.789 49.6112C275.691 53.9792 273.353 57.0404 268.775 58.7948L278.336 74.54L271.81 74.3957L263.725 60.1945L258.062 60.0697ZM258.168 55.3191L262.149 55.4068C264.818 55.4659 266.764 55.011 267.985 54.0422C268.615 53.507 269.114 52.8341 269.443 52.0755C269.771 51.3168 269.922 50.4927 269.882 49.6668C269.973 48.8489 269.85 48.0214 269.526 47.2652C269.201 46.509 268.686 45.85 268.031 45.3528C266.266 44.3299 264.245 43.835 262.208 43.9268L258.419 43.843L258.168 55.3191Z" fill="white"/>
<path d="M347.827 26.3216L303.019 26.9941L303.925 87.4251L348.733 86.7526L347.827 26.3216Z" fill="#4573D2"/>
<path d="M334.687 39.0233L340.634 38.9336L328.882 74.2068L322.838 74.2974L310.077 39.3946L315.977 39.305L323.621 61.0114C324.02 62.0452 324.448 63.3773 324.905 65.0076C325.361 66.638 325.659 67.8541 325.799 68.6559C325.989 67.4369 326.288 66.0236 326.695 64.416C327.102 62.8084 327.436 61.6193 327.697 60.8486L334.687 39.0233Z" fill="white"/>
<path d="M409.236 23.7285L364.473 25.7461L367.191 86.1167L411.954 84.099L409.236 23.7285Z" fill="#4573D2"/>
<path d="M399.261 71.8205L379.445 72.7152L377.863 37.6594L397.679 36.7637L397.899 41.6079L383.808 42.2444L384.238 51.7876L397.443 51.1911L397.659 55.9875L384.455 56.5841L384.951 67.5893L399.042 66.9529L399.261 71.8205Z" fill="white"/>
<path d="M468.387 18.0483L423.739 21.8281L428.83 82.044L473.479 78.2642L468.387 18.0483Z" fill="#4573D2"/>
<path d="M440.685 68.1596L437.73 33.1924L443.442 32.7051L445.983 62.7705L460.778 61.518L461.193 66.4207L440.685 68.1596Z" fill="white"/>
<path d="M253.318 167.035L255.969 203.229L225.48 211.465L227.247 223.179C227.247 223.179 259.958 224.076 262.813 216.769C265.668 209.462 266.789 174.772 266.789 174.772L253.318 167.035Z" fill="#EABBAE"/>
<path d="M266.737 176.354C266.737 176.354 264.853 187.206 262.574 195.238C261.966 197.383 261.452 199.22 261.016 200.783C260.256 203.522 258.832 206.03 256.869 208.085C254.906 210.139 252.465 211.676 249.765 212.558L226.784 220.101L227.247 223.18C227.247 223.18 259.958 224.076 262.813 216.769C265.668 209.462 268.32 180.042 268.32 180.042L266.737 176.354Z" fill="#D1A79C"/>
<path d="M277.346 118.533L310.842 118.1L309.5 152.046L274.53 151.313L277.346 118.533Z" fill="#A7795A"/>
<path d="M277.346 118.533L310.842 118.1L309.5 152.046L274.53 151.313L277.346 118.533Z" fill="#393939" fill-opacity="0.18"/>
<path d="M281.119 131.173L281.398 150.947C281.398 150.947 274.241 155.848 272.106 156.728L293.036 191.284L306.384 151.956C306.384 151.956 301.611 152.332 301.611 148.563C301.611 144.794 301.909 130.412 301.909 130.412L281.119 131.173Z" fill="#D1A79C"/>
<path d="M336.624 100.123C335.384 101.961 334.624 104.08 334.413 106.287C334.201 108.494 334.545 110.719 335.412 112.76C335.789 113.568 335.999 114.444 336.031 115.336C336.064 116.228 335.917 117.117 335.6 117.951C334.587 120.329 328.132 120.215 333.906 128.758C336.997 133.331 331.77 133.094 333.1 136.225C334.689 139.972 338.586 137.369 338.586 140.8C338.586 151.739 376.425 147.811 377.009 139.343C377.488 132.423 375.63 134.131 375.96 131.786C376.297 129.398 380.087 131.226 378.666 125.067C378.261 123.313 376.426 123.003 376.426 121.079C376.426 120.097 378.018 116.972 377.151 115.185C375.615 112.018 376.188 110.206 375.891 108.552C375.068 103.954 374.527 102.899 374.527 102.899L336.77 99.918L336.624 100.123Z" fill="#444C61"/>
<path d="M336.624 100.123C335.384 101.961 334.624 104.08 334.413 106.287C334.201 108.494 334.545 110.719 335.412 112.76C336.072 114.395 346.311 115.154 345.573 116.888C344.56 119.267 339.443 116.408 345.217 124.951C348.308 129.524 342.703 133.082 344.033 136.214C345.622 139.96 338.586 137.369 338.586 140.8C338.586 151.739 376.425 147.811 377.009 139.343C377.488 132.423 375.63 134.131 375.96 131.786C376.297 129.398 380.086 131.226 378.666 125.067C378.261 123.313 376.426 123.003 376.426 121.079C376.426 120.097 378.018 116.972 377.151 115.185C375.614 112.018 376.188 110.206 375.891 108.552C375.068 103.954 374.527 102.899 374.527 102.899L336.77 99.918L336.624 100.123Z" fill="#30384D"/>
<path d="M345.476 133.12L346.979 157.147L347.499 181.354H369.231L369.062 124.213L345.476 133.12Z" fill="#BA8B67"/>
<path d="M315.277 213.529C315.277 213.529 318.131 211.86 317.696 209.825C317.26 207.79 312.838 208.447 312.838 208.447L313.273 213.525L315.277 213.529Z" fill="#EABBAE"/>
<path d="M215.917 115.648L214.762 139.199C214.762 139.199 224.291 179.941 238.008 168.24C238.008 168.24 243.784 157.26 243.062 154.514C242.341 151.769 243.125 153.504 243.125 153.504C243.125 153.504 236.827 149.827 236.827 146.793C236.827 145.291 237.175 140.682 237.69 136.036C238.216 131.297 238.909 126.532 238.909 126.532L215.917 115.648Z" fill="#D1A79C"/>
<path d="M314.508 179.163L325.774 215.634C325.774 215.634 333.947 224.918 362.664 213.866L360.013 204.802L333.885 205.243L325.331 163.467L314.508 179.163Z" fill="#EABBAE"/>
<path d="M321.933 171.363C321.933 171.363 321.786 179.102 323.258 184.431C324.889 190.338 328.141 196.56 327.698 200.426C326.853 207.78 330.009 211.084 330.009 211.084C330.009 211.084 332.209 213.214 339.107 209.69C343.795 207.295 351.215 209.763 362.664 213.866L360.013 204.802L333.885 205.243L325.331 163.467L321.933 171.363Z" fill="#D1A79C"/>
<path d="M281.394 148.555C281.394 148.555 266.662 153.004 257.974 154.414C257.974 154.414 251.674 161.691 251.457 168.211L261.88 174.948C261.88 174.948 265.79 203.856 265.79 212.549C265.79 221.242 255.799 248.628 255.799 248.628C255.799 248.628 274.696 267.755 324.002 251.237C324.002 251.237 314.661 231.023 314.444 212.114C314.227 193.205 320.507 172.775 320.507 172.775L328.129 171.905C328.129 171.905 327.852 155.185 317.485 151.911C307.118 148.637 301.608 148.561 301.608 148.561L292.823 178.866C292.753 179.089 292.615 179.284 292.427 179.424C292.239 179.564 292.012 179.641 291.778 179.644C291.545 179.647 291.316 179.576 291.124 179.441C290.933 179.306 290.789 179.114 290.714 178.893L281.394 148.555Z" fill="#4573D2"/>
<path d="M316.857 188.08C316.857 188.08 314.669 194.547 309.971 197.448C302.056 202.335 308.251 209.918 307.871 218.557C307.491 227.195 297.529 227.501 297.874 235.863C298.219 244.226 299.335 254.535 299.335 254.535C299.335 254.535 308.208 254.974 324.008 251.236C325.1 250.978 315.631 234.16 314.772 217.804C314.263 207.848 314.965 197.868 316.86 188.081" fill="#4369B6"/>
<path d="M313.959 219.974C313.959 219.974 308.684 222.952 310.443 224.305C310.929 224.697 311.507 224.959 312.122 225.066C312.737 225.173 313.369 225.123 313.959 224.919C313.959 224.919 311.495 226.08 312.022 227.82C312.549 229.561 315.375 229.054 315.375 229.054C315.375 229.054 313.349 230.215 314.507 231.811C314.748 232.246 315.132 232.584 315.593 232.769C316.055 232.955 316.566 232.975 317.04 232.826C317.04 232.826 314.938 236.019 317.04 236.019C319.142 236.019 321.173 235.003 320.231 233.77C319.289 232.537 318.418 232.681 318.418 232.681C318.418 232.681 320.739 230.578 319.724 229.27C319.492 228.912 319.182 228.612 318.818 228.391C318.454 228.171 318.045 228.035 317.621 227.995C317.621 227.995 319.579 226.223 318.781 225.134C318.562 224.823 318.267 224.573 317.924 224.408C317.582 224.243 317.202 224.168 316.823 224.192C317.243 223.85 317.555 223.394 317.722 222.879C317.89 222.365 317.905 221.812 317.766 221.289C317.181 219.62 314.803 218.176 314.803 218.176L313.959 219.974Z" fill="#EABBAE"/>
<path d="M234.996 163.974L223.494 144.938L208.914 139.188L205.7 141.567L177.814 156.144C177.814 156.144 179.53 178.465 184.249 196.068C188.969 213.671 193.902 249.513 193.902 249.513C193.902 249.513 236.086 251.657 251.46 251.016C251.46 251.016 257.336 214.191 255.972 197.571C254.885 184.331 254.239 175.543 254.239 175.543L257.064 155.555L237.86 142.228L234.996 163.974Z" fill="#444C61"/>
<path d="M346.079 143.058L334.374 146.993L322.362 155.104L327.359 165.776L328.132 171.905L327.084 172.025L327.29 175.945L325.367 184.948C324.831 187.453 324.979 190.057 325.794 192.485C326.609 194.914 328.062 197.079 330 198.752L330.761 202.98L332.771 219.895L326.867 248.239C326.867 248.239 372.832 255.968 398.1 249.088L389.325 218.443L393.041 189.092L393.565 184.957L394.042 181.185L398.092 149.189L369.061 138.408C369.061 138.408 368.743 159.935 357.353 159.935C349.986 159.936 346.079 143.058 346.079 143.058Z" fill="#FFBD3B"/>
<path d="M382.63 145.443C382.63 145.443 394.174 147.248 398.091 149.188C405.724 152.97 430.943 177.686 430.943 177.686L449.998 151.29L458.507 158.258L436.848 195.368C433.227 198.691 429.602 197.823 426.011 196.086C417.668 192.054 402.526 184.259 395.104 177.463C384.542 167.793 360.222 154.407 382.63 145.443Z" fill="#FFBD3B"/>
<path d="M242.253 98.2035V111.763C242.253 111.763 244.42 108.211 245.604 111.002C246.787 113.794 245.434 116.753 244.42 118.277C243.406 119.802 242.253 119.244 242.253 119.244C242.253 119.244 240.792 133.552 231.538 135.515C222.284 137.478 220.615 133.468 217.578 130.466C212.598 125.541 213.097 118.121 213.097 118.121C213.097 118.121 210.606 120.558 209.172 117.841C207.995 115.608 206.622 106.161 212.319 109.295C212.319 109.295 211.442 92.0356 215 89.6125C218.559 87.1894 225.101 85.8385 235.673 89.8513C239.796 91.4186 242.253 93.2374 242.253 98.2035Z" fill="#EABBAE"/>
<path d="M226.297 97.2291C222.714 95.5493 219.568 93.063 217.105 89.9647C217.105 89.9647 220.482 96.6238 217.105 98.8549C211.827 102.34 219.137 105.88 216.285 108.322C214.968 109.449 213.752 113.196 213.752 113.196L210.949 108.753C210.949 108.753 205.878 88.0621 215.09 86.217C215.79 85.3875 216.38 84.47 216.843 83.4878C218.332 77.9379 227.216 82.4878 233.957 82.8202C253.193 83.7705 244.234 109.985 244.234 109.985C242.734 110.957 241.575 112.376 240.922 114.042C240.361 112.106 240.233 110.071 240.547 108.081C241.286 103.793 239.086 100.781 236.7 100.883C228.768 101.224 228.593 98.2505 226.297 97.2291Z" fill="#444C61"/>
<path d="M213.317 132.406L207.734 138.584L214.762 156.85C214.762 156.85 222.296 145.568 225.484 150.403C228.672 155.238 234.996 163.974 234.996 163.974L227.057 149.329L213.317 132.406Z" fill="#7B8093"/>
<path d="M234.996 163.975L237.69 136.037L247.185 148.806C247.185 148.806 247.779 155.499 247.185 157.134C247.185 157.134 244.633 149.161 243.172 151.78L234.996 163.975Z" fill="#7B8093"/>
<path d="M201.634 159.419C196.538 156.444 181.334 155.033 178.353 155.857C176.573 156.352 174.99 158.928 169.73 165.948C165.92 171.033 161.555 177.332 157.936 182.675L136.677 159.437L124.097 169.098L154.753 207.564C155.224 208.156 155.813 208.644 156.483 208.995C157.152 209.347 157.888 209.554 158.642 209.605C159.397 209.656 160.154 209.549 160.864 209.291C161.575 209.032 162.224 208.629 162.77 208.105C172.149 199.128 190.448 182.426 197.487 175.106C207.435 164.759 201.634 159.419 201.634 159.419Z" fill="#444C61"/>
<path d="M341.082 113.802C341.082 113.802 337.036 109.868 337.381 114.958C337.726 120.048 338.19 125.949 341.082 124.329C341.082 124.329 343.219 131.384 344.027 132.425C344.835 133.466 349.47 140.652 355.944 140.305C362.418 139.958 367.909 135.248 368.486 130.968C368.72 128.779 369.224 126.626 369.985 124.56C369.985 124.56 371.951 125.486 372.875 122.941C373.8 120.396 376.577 113.107 371.835 113.57C371.835 113.57 373.222 105.009 372.645 101.077C372.067 97.1437 365.361 88.93 359.465 88.698C353.569 88.466 346.517 89.854 343.048 95.0598C339.579 100.266 340.505 101.54 341.082 113.802Z" fill="#D5A882"/>
<path d="M363.76 92.7741C363.76 92.7741 362.999 98.1973 358.305 99.0121C356.422 99.3415 353.509 100.926 353.63 102.836C353.824 105.823 351.659 106.109 350.794 106.202C345.472 106.775 346.605 109.406 345.196 111.285C343.971 112.922 342.761 113.922 341.077 113.797L339.501 111.442C339.501 111.442 336.669 113.995 335.472 109.276C334.274 104.556 332.641 96.5949 339.163 93.1932C341.116 92.1727 342.618 84.9531 347.083 85.152C351.547 85.3508 350.828 86.7982 357.264 85.0058C363.7 83.2133 365.095 88.6745 365.095 88.6745C365.095 88.6745 369.924 88.2388 372.358 91.042C372.996 91.777 373.417 94.8687 374.077 95.7907C375.177 97.3259 376.61 98.9146 376.4 100.969C376.124 103.727 375.149 105.076 375.952 106.915C377.579 110.649 373.414 113.809 373.414 113.809L371.338 115.184C371.338 115.184 373.097 107.184 369.916 106.528C365.887 105.698 367.571 103.117 365.176 100.718C362.782 98.3191 363.76 92.7741 363.76 92.7741Z" fill="#444C61"/>
<path d="M252.301 245.363C252.301 245.363 237.495 248.092 230.141 247.534C230.141 247.534 229.633 249.873 229.041 259.23C228.56 265.697 227.677 272.128 226.398 278.485L258.943 276.581C258.943 276.581 254.278 246.189 252.301 245.363Z" fill="#30384D"/>
<path d="M299.334 254.535C303.224 257.707 305.916 262.111 306.969 267.021C308.917 275.48 304.206 283.776 306.969 288.819C309.733 293.862 334.28 297.928 334.28 297.928L324.007 251.24C317.507 253.869 299.334 254.535 299.334 254.535Z" fill="#393939" fill-opacity="0.18"/>
<path d="M226.297 97.2285C236.843 95.8932 237.189 90.7575 235.666 89.8511C232.813 88.1512 226.634 87.1093 232.641 85.9065C232.641 85.9065 227.209 82.4873 233.95 82.8196C253.186 83.77 244.228 109.984 244.228 109.984C242.727 110.957 241.569 112.376 240.916 114.041C240.355 112.106 240.227 110.071 240.541 108.081C241.279 103.792 239.08 100.78 236.693 100.883C228.768 101.224 226.297 97.2285 226.297 97.2285Z" fill="#30384D"/>
<path d="M278.81 121.582C278.81 121.582 277.203 134.384 285.137 140.35C289.794 143.852 297.102 142.826 299.981 140.198C303.837 136.679 304.669 135.17 304.842 127.567C305.014 119.965 306.619 108.083 299.022 104.108C291.424 100.134 284.274 103.433 280.992 109.135C277.711 114.837 278.81 121.582 278.81 121.582Z" fill="#EABBAE"/>
<path d="M298.693 98.9085C297.423 96.4807 295.481 94.4706 293.099 93.1188C289.705 91.2971 281.132 91.9667 278.531 99.5966C277.346 103.071 273.012 103.024 271.187 106.357C268.642 111.007 270.677 114.57 272.101 120.9C273.082 125.26 267.588 131.231 266.354 134.854C264.468 140.391 269.34 142.593 265.323 146.623C258.783 153.182 267.197 159.958 272.751 160.073C278.304 160.188 282.321 159.75 282.406 151.995C282.451 147.872 279.208 147.165 278.633 144.964C278.293 143.661 279.984 139.7 280.158 137.556C280.392 134.231 279.861 130.897 278.607 127.809C277.082 124.788 275.866 122.384 278.714 120.547C280.688 119.273 284.578 117.359 284.145 112.192C283.778 107.805 290.185 110.34 293.534 108.906C294.58 108.42 295.512 107.719 296.269 106.848C297.026 105.977 297.591 104.956 297.927 103.852C298.792 104.749 305.098 106.539 304.387 118.46C304.192 121.774 303.687 125.166 304.841 127.563C304.875 127.633 304.957 127.697 304.938 127.773C304.283 130.94 303.975 132.325 305.341 134.304C306.322 135.727 303.852 138.144 303.867 139.697C303.894 142.823 305.328 142.702 305.096 145.091C304.983 146.242 302.661 149.459 302.89 152.076C303.233 156.06 307.008 159.289 312.835 158.955C318.771 158.614 323.433 152.867 320.759 146.985C319.178 143.508 314.087 145.408 315.76 139.174C317.416 133.017 315.132 132.118 314.505 128.796C314.181 127.086 316.363 125.057 315.531 120.654C314.505 115.218 310.245 115.757 310.523 112.205C311.296 102.363 307.029 95.9386 298.693 98.9085Z" fill="#B5896B"/>
<path d="M298.693 98.9093C297.423 96.4816 295.481 94.4714 293.099 93.1197C289.705 91.298 298.468 94.9804 295.868 102.609C294.683 106.085 287.053 101.2 285.229 104.533C282.683 109.184 273.55 106.027 274.974 112.357C275.955 116.718 276.209 124.124 274.974 127.749C273.089 133.287 280.017 136.803 276 140.832C269.459 147.392 267.198 159.959 272.752 160.075C278.305 160.191 282.322 159.752 282.407 151.997C282.452 147.874 279.209 147.166 278.634 144.966C278.294 143.662 279.985 139.702 280.159 137.558C280.393 134.233 279.862 130.899 278.608 127.811C277.083 124.789 275.867 122.386 278.715 120.549C280.689 119.275 284.579 117.361 284.146 112.193C283.779 107.807 290.186 110.342 293.535 108.908C294.581 108.422 295.513 107.72 296.27 106.85C297.027 105.979 297.592 104.958 297.928 103.854C298.793 104.751 305.099 106.541 304.388 118.462C304.193 121.776 303.688 125.168 304.842 127.564C304.876 127.635 304.958 127.699 304.939 127.775C304.283 130.942 303.976 132.327 305.342 134.305C306.323 135.728 303.853 138.146 303.868 139.699C303.895 142.825 305.329 142.704 305.097 145.093C304.984 146.243 302.662 149.461 302.891 152.078C303.234 156.061 307.009 159.291 312.836 158.957C318.772 158.616 323.434 152.868 320.76 146.987C319.179 143.509 314.088 145.41 315.761 139.176C317.417 133.019 315.133 132.12 314.506 128.798C314.182 127.088 316.364 125.058 315.532 120.656C314.505 115.22 310.246 115.759 310.523 112.207C311.296 102.364 307.029 95.9395 298.693 98.9093Z" fill="#A7795A"/>
<path d="M278.675 119.724C278.675 119.724 276.302 116.295 274.984 118.669C273.666 121.044 275.336 129.391 278.675 127.55C282.014 125.709 278.675 119.724 278.675 119.724Z" fill="#EABBAE"/>
<path d="M305.055 119.724C305.055 119.724 307.428 116.295 308.746 118.669C310.064 121.044 308.394 129.391 305.055 127.55C301.716 125.709 305.055 119.724 305.055 119.724Z" fill="#EABBAE"/>
<path d="M363.76 92.7731C363.76 92.7731 362.999 98.1963 358.305 99.0111C356.422 99.3406 353.509 100.925 353.63 102.835C353.824 105.822 351.659 106.108 350.794 106.201C345.472 106.774 346.605 109.405 345.196 111.284C343.972 112.921 342.761 113.921 341.078 113.796L339.501 111.441C339.501 111.441 345.816 109.153 344.62 104.433C343.424 99.7139 343.043 95.0548 354.316 94.9788C356.52 94.9642 356.626 89.886 361.09 90.0858C365.554 90.2857 350.828 86.7904 357.264 84.9979C363.7 83.2055 365.095 88.6667 365.095 88.6667C365.095 88.6667 369.924 88.231 372.358 91.0342C372.996 91.7691 373.417 94.8609 374.077 95.7829C375.177 97.3181 376.61 98.9068 376.4 100.961C376.124 103.719 375.149 105.068 375.952 106.907C377.579 110.641 373.414 113.801 373.414 113.801L371.338 115.176C371.338 115.176 373.098 107.176 369.916 106.52C365.887 105.691 367.571 103.109 365.176 100.71C362.782 98.3113 363.76 92.7731 363.76 92.7731Z" fill="#30384D"/>
<path d="M134.089 161.483C134.089 161.483 135.063 154.626 132.574 149.852C129.677 144.288 129.052 137.971 128.631 137.158C127.858 135.665 126.407 137.353 125.967 141.794C125.528 146.235 126.287 147.721 126.287 147.721C122.476 143.739 118.381 140.04 114.034 136.653C107.215 131.242 106.188 139.033 106.999 146.168C107.336 149.13 107.037 152.594 111.682 157.021C116.328 161.448 126.176 167.567 126.176 167.567L134.089 161.483Z" fill="#EABBAE"/>
<path d="M257.065 155.549C254.088 160.736 252.589 166.64 252.73 172.62C252.879 180.472 251.725 192.543 244.84 202.875C233.541 219.827 241.918 231.129 236.268 236.195C232.961 239.061 230.786 243.016 230.136 247.346C237.577 247.628 245.023 246.961 252.296 245.364C252.296 245.364 256.298 220.309 256.131 208.135C255.963 195.962 254.234 175.537 254.234 175.537L257.059 155.549H257.065Z" fill="#30384D"/>
<path d="M234.996 163.975C234.996 163.975 232.618 159.795 224.873 158.007C217.127 156.218 216.83 154.281 216.83 154.281C216.83 154.281 220.404 149.959 223.085 149.362C225.766 148.766 228.15 154.431 228.15 154.431L234.996 163.976" fill="#30384D"/>
<path d="M182.639 189.418C182.639 189.418 192.27 190.703 194.838 208.691C197.405 226.679 201.098 227.964 203.987 237.761C206.876 247.557 205.433 246.111 205.433 246.111L193.222 244.785C193.222 244.785 188.098 211.098 187.295 208.368C186.493 205.638 182.64 189.416 182.64 189.416" fill="#30384D"/>
<path d="M127.357 166.592C127.357 166.592 132.958 181.908 141.002 184.104C149.046 186.3 145.536 191.714 151.24 196.397C156.944 201.08 155.628 198.593 161.186 200.642C166.744 202.691 170.108 201.447 170.108 201.447L162.769 208.104C162.22 208.621 161.57 209.019 160.86 209.273C160.15 209.527 159.395 209.632 158.643 209.581C157.891 209.531 157.157 209.325 156.487 208.978C155.818 208.631 155.227 208.149 154.752 207.563C150.655 203.274 124.096 169.097 124.096 169.097L127.357 166.592Z" fill="#30384D"/>
<path d="M263.945 192.504C266.633 195.511 270.077 197.744 273.918 198.97C274.228 199.057 274.51 199.223 274.737 199.451C274.963 199.68 275.127 199.963 275.211 200.274C275.295 200.585 275.298 200.912 275.218 201.224C275.138 201.535 274.978 201.821 274.755 202.053C272.202 204.661 268.058 208.438 265.557 208.338L263.945 192.504Z" fill="#4369B6"/>
<path d="M392.725 191.578C392.725 191.578 392.174 195.331 388.058 199.449C381.922 205.583 369.259 199.619 369.259 199.619C369.069 204.671 382.561 206.391 376.408 213.333C371.441 218.941 381.644 222.763 377.875 229.67C374.927 235.074 375.909 235.512 375.909 235.512C375.909 235.512 380.623 234.578 392.974 231.186L389.325 218.444L392.263 195.246" fill="#DBA53B"/>
<path d="M330.203 198.723C330.203 198.723 333.598 202.548 345.593 200.584C345.593 200.584 335.311 205.408 330.723 203.87L330.203 198.723Z" fill="#DBA53B"/>
<path d="M130.589 144.035C130.952 146.515 131.493 150.336 130.802 153.763C130.306 156.223 129.146 154.25 128.791 159.436C128.746 160.173 128.848 160.911 129.091 161.607C129.335 162.303 129.715 162.944 130.209 163.491L134.089 160.507C134.222 159.451 134.284 158.388 134.276 157.323C134.276 154.485 134.276 152.45 130.589 144.035Z" fill="#D1A79C"/>
<path d="M450.931 154.002C450.931 154.002 450.103 148.146 452.225 144.068C454.699 139.317 455.233 133.922 455.592 133.228C456.253 131.952 457.493 133.39 457.868 137.186C458.243 140.981 457.595 142.248 457.595 142.248C460.85 138.847 464.347 135.687 468.06 132.794C473.886 128.172 474.761 134.826 474.069 140.921C473.777 143.449 474.037 146.408 470.068 150.189C466.1 153.97 457.691 159.196 457.691 159.196L450.931 154.002Z" fill="#D5A882"/>
<path d="M453.921 139.932C453.4 142.672 453.338 145.48 453.739 148.24C454.162 150.341 455.152 148.658 455.456 153.086C455.495 153.715 455.408 154.345 455.2 154.94C454.992 155.534 454.668 156.081 454.245 156.548L450.933 154C450.82 153.098 450.767 152.189 450.774 151.28C450.774 148.857 450.774 147.119 453.923 139.932" fill="#BA8B67"/>
<path d="M358.169 299.307C359.28 299.131 360.384 298.946 361.481 298.751L360.689 276.764L358.169 299.307Z" fill="#F6F6F6"/>
<path d="M375.914 235.598C375.914 235.544 375.909 235.51 375.909 235.51L374.448 235.882C374.94 235.789 375.428 235.694 375.914 235.598Z" fill="#F6F6F6"/>
<path d="M254.726 252.998C253.715 248.253 252.847 245.216 252.301 245.362C233.009 250.56 193.225 244.787 193.225 244.787L189.859 263.285C207.263 274.444 226.043 283.29 245.728 289.602L254.726 252.998Z" fill="#444C61"/>
<path d="M283.516 298.727C296.981 300.936 310.606 302.03 324.251 301.996C323.682 295.141 322.712 281.492 322.806 269.105C322.91 263.723 323.489 258.36 324.536 253.079L324.005 251.235C324.005 251.235 294.444 260.278 255.802 248.627L254.73 252.997C257.006 263.677 260.005 283.006 261.678 294.193C268.805 295.996 276.085 297.508 283.516 298.727Z" fill="#30384D"/>
<path d="M261.674 294.193C260.001 283.007 256.999 263.678 254.726 252.998L245.728 289.6C250.944 291.288 256.26 292.819 261.674 294.193Z" fill="#30384D"/>
<path d="M392.974 231.184C393.208 231.651 393.42 232.104 393.643 232.563C393.225 231.679 392.974 231.184 392.974 231.184Z" fill="#F6F6F6"/>
<path d="M402.508 264.158C402.296 258.501 401.279 252.903 399.488 247.533C400.917 252.429 401.88 257.448 402.365 262.525C402.421 263.031 402.467 263.581 402.508 264.158Z" fill="#F6F6F6"/>
<path d="M388.004 292.169C392.848 290.585 397.538 288.824 402.076 286.885C402.109 285.145 402.143 283.298 402.179 281.393C400.18 283.073 393.098 288.378 388.004 292.169Z" fill="#30384D"/>
<path d="M377.84 278.709C376.043 270.887 389.14 261.684 382.682 251.515C376.507 241.789 375.961 236.317 375.914 235.596C375.43 235.691 374.939 235.786 374.443 235.879L373.031 236.237L374.443 235.879C360.385 238.511 341.604 239.876 330.251 231.988C327.821 238.864 325.911 245.913 324.536 253.076L338.481 301.493C342.182 301.248 345.84 300.917 349.456 300.5C351.381 298.551 353.279 295.302 353.422 289.974C353.72 278.931 353.799 277.783 357.294 275.612C359.229 274.41 360.69 276.757 360.69 276.757L361.482 298.744C368.359 297.544 375.168 295.977 381.879 294.049C380.929 290.752 379.111 284.255 377.84 278.709Z" fill="#444C61"/>
<path d="M324.251 301.995C329.057 301.976 333.8 301.81 338.481 301.495L324.536 253.078C323.489 258.359 322.91 263.722 322.806 269.104C322.712 281.49 323.686 295.136 324.251 301.995Z" fill="#444C61"/>
<path d="M357.803 299.365L358.166 299.307L360.69 276.764L357.803 299.365Z" fill="#F6F6F6"/>
<path d="M360.69 276.765C360.69 276.765 359.229 274.418 357.294 275.62C353.799 277.791 353.72 278.94 353.422 289.982C353.279 295.307 351.376 298.559 349.456 300.509C352.267 300.184 355.05 299.804 357.803 299.37L360.69 276.765Z" fill="#30384D"/>
<path d="M393.643 232.562C395.923 237.417 397.876 242.418 399.487 247.534C397.959 242.389 396.004 237.381 393.643 232.562Z" fill="#F6F6F6"/>
<path d="M402.179 281.394C402.386 281.246 402.571 281.069 402.728 280.868C402.728 280.456 402.954 270.465 402.508 264.16C402.508 264.445 402.514 264.731 402.508 265.012C402.392 270.161 402.28 276.005 402.179 281.394Z" fill="#F6F6F6"/>
<path d="M392.974 231.184L375.909 235.51C375.909 235.51 375.909 235.544 375.914 235.599C381.684 234.473 387.381 232.998 392.974 231.184Z" fill="#F6F6F6"/>
<path d="M374.443 235.883L373.031 236.241L374.443 235.883Z" fill="#F6F6F6"/>
<path d="M382.682 251.519C389.137 261.684 376.043 270.887 377.84 278.713C379.114 284.259 380.929 290.75 381.879 294.06C383.946 293.464 385.987 292.834 388.004 292.172C393.098 288.382 400.18 283.076 402.179 281.396C402.276 276.009 402.395 270.165 402.508 265.014C402.514 264.734 402.508 264.447 402.508 264.162C402.467 263.585 402.421 263.036 402.369 262.53C401.884 257.453 400.921 252.433 399.492 247.538C397.881 242.422 395.928 237.421 393.648 232.567C393.425 232.108 393.213 231.655 392.978 231.188C387.386 233.002 381.689 234.477 375.918 235.603C375.96 236.32 376.507 241.792 382.682 251.519Z" fill="#30384D"/>
</g>
<defs>
<clipPath id="clip0_9_42788">
<rect width="600" height="302" fill="white"/>
</clipPath>
</defs>
</svg>
