<svg width="593" height="364" viewBox="0 0 593 364" fill="none" xmlns="http://www.w3.org/2000/svg">
<g clip-path="url(#clip0_2603_314)">
<path opacity="0.14" d="M592.39 248.53C592.39 170.3 523.55 97.49 429.57 137.57C349.02 171.93 381.05 0 179.18 0C109.97 0 0.140001 58.31 0.140001 169.58C-2.38 270.3 24.79 379.75 380.92 361.62C489.81 356.08 592.39 355.64 592.39 248.53Z" fill="#BEBEBE"/>
<mask id="mask0_2603_314" style="mask-type:luminance" maskUnits="userSpaceOnUse" x="-1" y="0" width="594" height="364">
<path d="M592.39 248.53C592.39 170.3 523.55 97.49 429.57 137.57C349.02 171.93 381.05 0 179.18 0C109.97 0 0.140001 58.31 0.140001 169.58C-2.38 270.3 24.79 379.75 380.92 361.62C489.81 356.08 592.39 355.64 592.39 248.53Z" fill="white"/>
</mask>
<g mask="url(#mask0_2603_314)">
<path d="M531.62 275.36H63.85L93.85 243.27H501.62L531.62 275.36Z" fill="#B0B5C0"/>
<path opacity="0.29" d="M208.14 243.279C208.14 243.279 201.38 252.169 206.7 252.439C212.02 252.709 217.01 249.819 218.78 249.709C220.55 249.599 220.33 252.449 220.33 252.449C220.33 252.449 207.36 267.109 207.25 270.099C207.14 273.089 211.91 274.759 214.01 273.429C216.11 272.099 218.18 271.399 221.91 270.749C225.64 270.099 226.64 268.589 229.53 269.509C232.42 270.429 232.63 270.769 237.95 271.819C243.27 272.869 243.97 272.539 245.12 271.819C245.6 271.509 250.59 266.379 256.18 260.549C257.29 259.389 261.58 261.999 262.34 260.549C268.99 247.829 272.65 243.279 272.65 243.279H208.14Z" fill="#84878A"/>
<path opacity="0.29" d="M270.38 243.539C270.38 243.539 246.47 273.449 246.36 276.439C246.25 279.429 251.02 281.099 253.12 279.769C255.22 278.439 257.29 277.739 261.02 277.089C264.75 276.439 265.75 274.929 268.64 275.849C271.53 276.769 271.74 277.109 277.06 278.159C282.38 279.209 283.08 278.879 284.23 278.159C285.38 277.439 309.19 243.539 309.19 243.539" fill="#84878A"/>
<path opacity="0.29" d="M90.07 253.25C89.31 254.25 88.45 257.65 93.7 259.11C98.95 260.57 108.93 259.79 108.93 259.79C108.93 259.79 108.15 269.75 114.14 270.76C120.13 271.78 148.21 272.71 158.65 270.27C163.41 269.16 172.26 263.76 175.11 263.22C181.32 262.06 190.63 265.39 196.61 262.06C202.59 258.73 214.01 243.26 214.01 243.26L103.16 243.15L90.06 253.24L90.07 253.25Z" fill="#84878A"/>
<path d="M531.62 300.029H63.85V390.109H531.62V300.029Z" fill="#B0B5C0"/>
<path d="M531.62 288.02H63.85V300.03H531.62V288.02Z" fill="#84878A"/>
<path d="M548.04 275.359H47.43V288.029H548.04V275.359Z" fill="#B0B5C0"/>
<path opacity="0.6" d="M540.66 -15.4902H47.43V162.52H540.66V-15.4902Z" fill="#CED3DF"/>
<path opacity="0.6" d="M332.03 -7.0293H70.57C63.3903 -7.0293 57.57 -1.209 57.57 5.9707V141.581C57.57 148.76 63.3903 154.581 70.57 154.581H332.03C339.21 154.581 345.03 148.76 345.03 141.581V5.9707C345.03 -1.209 339.21 -7.0293 332.03 -7.0293Z" fill="white"/>
<path opacity="0.6" d="M519.94 -7.0293H366.88C359.7 -7.0293 353.88 -1.209 353.88 5.9707V141.581C353.88 148.76 359.7 154.581 366.88 154.581H519.94C527.12 154.581 532.94 148.76 532.94 141.581V5.9707C532.94 -1.209 527.12 -7.0293 519.94 -7.0293Z" fill="white"/>
<path opacity="0.6" d="M212.29 19.2402H75.32C73.3428 19.2402 71.74 20.8431 71.74 22.8202V22.8302C71.74 24.8074 73.3428 26.4102 75.32 26.4102H212.29C214.267 26.4102 215.87 24.8074 215.87 22.8302V22.8202C215.87 20.8431 214.267 19.2402 212.29 19.2402Z" fill="#CED3DF"/>
<path opacity="0.6" d="M212.29 45.1797H75.32C73.3428 45.1797 71.74 46.7825 71.74 48.7597V48.7697C71.74 50.7469 73.3428 52.3497 75.32 52.3497H212.29C214.267 52.3497 215.87 50.7469 215.87 48.7697V48.7597C215.87 46.7825 214.267 45.1797 212.29 45.1797Z" fill="#CED3DF"/>
<path opacity="0.6" d="M212.29 71.1191H75.32C73.3428 71.1191 71.74 72.722 71.74 74.6991V74.7091C71.74 76.6863 73.3428 78.2891 75.32 78.2891H212.29C214.267 78.2891 215.87 76.6863 215.87 74.7091V74.6991C215.87 72.722 214.267 71.1191 212.29 71.1191Z" fill="#CED3DF"/>
<path opacity="0.6" d="M212.29 97.0488H75.32C73.3428 97.0488 71.74 98.6516 71.74 100.629V100.639C71.74 102.616 73.3428 104.219 75.32 104.219H212.29C214.267 104.219 215.87 102.616 215.87 100.639V100.629C215.87 98.6516 214.267 97.0488 212.29 97.0488Z" fill="#CED3DF"/>
<path opacity="0.6" d="M212.29 122.99H75.32C73.3428 122.99 71.74 124.593 71.74 126.57V126.58C71.74 128.557 73.3428 130.16 75.32 130.16H212.29C214.267 130.16 215.87 128.557 215.87 126.58V126.57C215.87 124.593 214.267 122.99 212.29 122.99Z" fill="#CED3DF"/>
<path opacity="0.6" d="M317.59 19.2402H299.58C297.603 19.2402 296 20.8431 296 22.8202V22.8302C296 24.8074 297.603 26.4102 299.58 26.4102H317.59C319.567 26.4102 321.17 24.8074 321.17 22.8302V22.8202C321.17 20.8431 319.567 19.2402 317.59 19.2402Z" fill="#CED3DF"/>
<path opacity="0.6" d="M317.59 45.1797H299.58C297.603 45.1797 296 46.7825 296 48.7597V48.7697C296 50.7469 297.603 52.3497 299.58 52.3497H317.59C319.567 52.3497 321.17 50.7469 321.17 48.7697V48.7597C321.17 46.7825 319.567 45.1797 317.59 45.1797Z" fill="#CED3DF"/>
<path opacity="0.6" d="M317.59 71.1191H299.58C297.603 71.1191 296 72.722 296 74.6991V74.7091C296 76.6863 297.603 78.2891 299.58 78.2891H317.59C319.567 78.2891 321.17 76.6863 321.17 74.7091V74.6991C321.17 72.722 319.567 71.1191 317.59 71.1191Z" fill="#CED3DF"/>
<path opacity="0.6" d="M317.59 97.0488H299.58C297.603 97.0488 296 98.6516 296 100.629V100.639C296 102.616 297.603 104.219 299.58 104.219H317.59C319.567 104.219 321.17 102.616 321.17 100.639V100.629C321.17 98.6516 319.567 97.0488 317.59 97.0488Z" fill="#CED3DF"/>
<path opacity="0.6" d="M317.59 122.99H299.58C297.603 122.99 296 124.593 296 126.57V126.58C296 128.557 297.603 130.16 299.58 130.16H317.59C319.567 130.16 321.17 128.557 321.17 126.58V126.57C321.17 124.593 319.567 122.99 317.59 122.99Z" fill="#CED3DF"/>
<path opacity="0.6" d="M270.7 19.2402H252.69C250.713 19.2402 249.11 20.8431 249.11 22.8202V22.8302C249.11 24.8074 250.713 26.4102 252.69 26.4102H270.7C272.677 26.4102 274.28 24.8074 274.28 22.8302V22.8202C274.28 20.8431 272.677 19.2402 270.7 19.2402Z" fill="#CED3DF"/>
<path opacity="0.6" d="M270.7 45.1797H252.69C250.713 45.1797 249.11 46.7825 249.11 48.7597V48.7697C249.11 50.7469 250.713 52.3497 252.69 52.3497H270.7C272.677 52.3497 274.28 50.7469 274.28 48.7697V48.7597C274.28 46.7825 272.677 45.1797 270.7 45.1797Z" fill="#CED3DF"/>
<path opacity="0.6" d="M270.7 71.1191H252.69C250.713 71.1191 249.11 72.722 249.11 74.6991V74.7091C249.11 76.6863 250.713 78.2891 252.69 78.2891H270.7C272.677 78.2891 274.28 76.6863 274.28 74.7091V74.6991C274.28 72.722 272.677 71.1191 270.7 71.1191Z" fill="#CED3DF"/>
<path opacity="0.6" d="M470.25 19.2402H370.98C369.003 19.2402 367.4 20.8431 367.4 22.8202V22.8302C367.4 24.8074 369.003 26.4102 370.98 26.4102H470.25C472.227 26.4102 473.83 24.8074 473.83 22.8302V22.8202C473.83 20.8431 472.227 19.2402 470.25 19.2402Z" fill="#CED3DF"/>
<path opacity="0.6" d="M470.25 45.1797H370.98C369.003 45.1797 367.4 46.7825 367.4 48.7597V48.7697C367.4 50.7469 369.003 52.3497 370.98 52.3497H470.25C472.227 52.3497 473.83 50.7469 473.83 48.7697V48.7597C473.83 46.7825 472.227 45.1797 470.25 45.1797Z" fill="#CED3DF"/>
<path opacity="0.6" d="M470.25 71.1191H370.98C369.003 71.1191 367.4 72.722 367.4 74.6991V74.7091C367.4 76.6863 369.003 78.2891 370.98 78.2891H470.25C472.227 78.2891 473.83 76.6863 473.83 74.7091V74.6991C473.83 72.722 472.227 71.1191 470.25 71.1191Z" fill="#CED3DF"/>
<path opacity="0.6" d="M513.38 19.2402H501.95C499.973 19.2402 498.37 20.8431 498.37 22.8202V22.8302C498.37 24.8074 499.973 26.4102 501.95 26.4102H513.38C515.357 26.4102 516.96 24.8074 516.96 22.8302V22.8202C516.96 20.8431 515.357 19.2402 513.38 19.2402Z" fill="#CED3DF"/>
<path opacity="0.6" d="M513.38 45.1797H501.95C499.973 45.1797 498.37 46.7825 498.37 48.7597V48.7697C498.37 50.7469 499.973 52.3497 501.95 52.3497H513.38C515.357 52.3497 516.96 50.7469 516.96 48.7697V48.7597C516.96 46.7825 515.357 45.1797 513.38 45.1797Z" fill="#CED3DF"/>
<path opacity="0.6" d="M513.38 71.1191H501.95C499.973 71.1191 498.37 72.722 498.37 74.6991V74.7091C498.37 76.6863 499.973 78.2891 501.95 78.2891H513.38C515.357 78.2891 516.96 76.6863 516.96 74.7091V74.6991C516.96 72.722 515.357 71.1191 513.38 71.1191Z" fill="#CED3DF"/>
<path opacity="0.6" d="M470.25 93.4707H370.98C369.003 93.4707 367.4 95.0735 367.4 97.0507V97.0607C367.4 99.0379 369.003 100.641 370.98 100.641H470.25C472.227 100.641 473.83 99.0379 473.83 97.0607V97.0507C473.83 95.0735 472.227 93.4707 470.25 93.4707Z" fill="#CED3DF"/>
<path opacity="0.6" d="M470.25 119.41H370.98C369.003 119.41 367.4 121.013 367.4 122.99V123C367.4 124.977 369.003 126.58 370.98 126.58H470.25C472.227 126.58 473.83 124.977 473.83 123V122.99C473.83 121.013 472.227 119.41 470.25 119.41Z" fill="#CED3DF"/>
<path opacity="0.6" d="M513.38 93.4707H501.95C499.973 93.4707 498.37 95.0735 498.37 97.0507V97.0607C498.37 99.0379 499.973 100.641 501.95 100.641H513.38C515.357 100.641 516.96 99.0379 516.96 97.0607V97.0507C516.96 95.0735 515.357 93.4707 513.38 93.4707Z" fill="#CED3DF"/>
<path opacity="0.6" d="M513.38 119.41H501.95C499.973 119.41 498.37 121.013 498.37 122.99V123C498.37 124.977 499.973 126.58 501.95 126.58H513.38C515.357 126.58 516.96 124.977 516.96 123V122.99C516.96 121.013 515.357 119.41 513.38 119.41Z" fill="#CED3DF"/>
<path opacity="0.6" d="M270.7 97.0488H252.69C250.713 97.0488 249.11 98.6516 249.11 100.629V100.639C249.11 102.616 250.713 104.219 252.69 104.219H270.7C272.677 104.219 274.28 102.616 274.28 100.639V100.629C274.28 98.6516 272.677 97.0488 270.7 97.0488Z" fill="#CED3DF"/>
<path opacity="0.6" d="M270.7 122.99H252.69C250.713 122.99 249.11 124.593 249.11 126.57V126.58C249.11 128.557 250.713 130.16 252.69 130.16H270.7C272.677 130.16 274.28 128.557 274.28 126.58V126.57C274.28 124.593 272.677 122.99 270.7 122.99Z" fill="#CED3DF"/>
<path d="M229.68 247.91C229.01 248.08 221.53 247.99 220.45 247.91C219.37 247.83 216.46 248.66 214.96 248.82C213.46 248.98 211.22 250.65 210.14 251.06C209.06 251.47 205.82 250.06 206.73 246.99C207.64 243.92 209.81 241.59 210.06 240.84C210.31 240.09 213.3 234.44 215.05 233.03C216.8 231.62 220.37 227.63 223.61 227.88C226.85 228.13 227.68 228.79 231.59 231.62C235.5 234.45 238.82 238.66 238.99 239.51C239.16 240.36 242.07 243.84 242.32 245.84C242.57 247.84 241.57 250.41 239.74 250C237.91 249.59 237.25 249.5 235 248.25C232.75 247 229.68 247.92 229.68 247.92V247.91Z" fill="#D99C58"/>
<mask id="mask1_2603_314" style="mask-type:luminance" maskUnits="userSpaceOnUse" x="206" y="227" width="37" height="25">
<path d="M229.68 247.91C229.01 248.08 221.53 247.99 220.45 247.91C219.37 247.83 216.46 248.66 214.96 248.82C213.46 248.98 211.22 250.65 210.14 251.06C209.06 251.47 205.82 250.06 206.73 246.99C207.64 243.92 209.81 241.59 210.06 240.84C210.31 240.09 213.3 234.44 215.05 233.03C216.8 231.62 220.37 227.63 223.61 227.88C226.85 228.13 227.68 228.79 231.59 231.62C235.5 234.45 238.82 238.66 238.99 239.51C239.16 240.36 242.07 243.84 242.32 245.84C242.57 247.84 241.57 250.41 239.74 250C237.91 249.59 237.25 249.5 235 248.25C232.75 247 229.68 247.92 229.68 247.92V247.91Z" fill="white"/>
</mask>
<g mask="url(#mask1_2603_314)">
<path d="M209.48 241.05C209.48 241.05 212.89 246.29 213.14 248.28C213.39 250.27 214.64 249.19 214.64 249.19C214.64 249.19 211.81 240.46 210.48 239.71C209.15 238.96 209.48 241.04 209.48 241.04V241.05Z" fill="#C7844C"/>
<path d="M216.04 231.661C215.85 231.501 213.88 231.581 214.63 232.411C215.38 233.241 218.62 237.481 219.78 248.621C220.94 259.761 222.61 237.061 216.04 231.661Z" fill="#C7844C"/>
<path d="M232.5 231.591C232.5 231.591 230.01 229.741 230.09 230.081C230.17 230.421 229.84 244.131 229.01 245.961C228.18 247.791 230.59 246.541 231.5 242.721C232.41 238.901 232.5 231.601 232.5 231.601V231.591Z" fill="#C7844C"/>
<path d="M239.74 239.56L238.83 238.41C238.83 238.41 233.93 249.28 234.01 249.49C234.09 249.7 235.84 248.53 235.84 248.53C235.84 248.53 237 242.8 239.75 239.56H239.74Z" fill="#C7844C"/>
</g>
<path d="M250.34 257.6C249.67 257.77 242.19 257.68 241.11 257.6C240.03 257.52 237.12 258.35 235.62 258.51C234.12 258.67 231.88 260.34 230.8 260.75C229.72 261.16 226.48 259.75 227.39 256.68C228.3 253.61 230.47 251.28 230.72 250.53C230.97 249.78 233.96 244.13 235.71 242.72C237.46 241.31 241.03 237.32 244.27 237.57C247.51 237.82 248.34 238.48 252.25 241.31C256.16 244.14 259.48 248.35 259.65 249.2C259.82 250.05 262.73 253.53 262.98 255.53C263.23 257.53 262.23 260.1 260.4 259.69C258.57 259.28 257.91 259.19 255.66 257.94C253.41 256.69 250.34 257.61 250.34 257.61V257.6Z" fill="#D99C58"/>
<mask id="mask2_2603_314" style="mask-type:luminance" maskUnits="userSpaceOnUse" x="227" y="237" width="37" height="24">
<path d="M250.34 257.6C249.67 257.77 242.19 257.68 241.11 257.6C240.03 257.52 237.12 258.35 235.62 258.51C234.12 258.67 231.88 260.34 230.8 260.75C229.72 261.16 226.48 259.75 227.39 256.68C228.3 253.61 230.47 251.28 230.72 250.53C230.97 249.78 233.96 244.13 235.71 242.72C237.46 241.31 241.03 237.32 244.27 237.57C247.51 237.82 248.34 238.48 252.25 241.31C256.16 244.14 259.48 248.35 259.65 249.2C259.82 250.05 262.73 253.53 262.98 255.53C263.23 257.53 262.23 260.1 260.4 259.69C258.57 259.28 257.91 259.19 255.66 257.94C253.41 256.69 250.34 257.61 250.34 257.61V257.6Z" fill="white"/>
</mask>
<g mask="url(#mask2_2603_314)">
<path d="M230.14 250.739C230.14 250.739 233.55 255.979 233.8 257.969C234.05 259.959 235.3 258.879 235.3 258.879C235.3 258.879 232.47 250.149 231.14 249.399C229.81 248.649 230.14 250.729 230.14 250.729V250.739Z" fill="#C7844C"/>
<path d="M236.71 241.341C236.52 241.181 234.55 241.261 235.3 242.091C236.05 242.921 239.29 247.161 240.45 258.301C241.61 269.441 243.28 246.741 236.71 241.341Z" fill="#C7844C"/>
<path d="M253.17 241.28C253.17 241.28 250.68 239.43 250.76 239.77C250.84 240.11 250.51 253.82 249.68 255.65C248.85 257.48 251.26 256.23 252.17 252.41C253.08 248.59 253.17 241.29 253.17 241.29V241.28Z" fill="#C7844C"/>
<path d="M260.4 249.25L259.49 248.1C259.49 248.1 254.59 258.97 254.67 259.18C254.75 259.39 256.5 258.22 256.5 258.22C256.5 258.22 257.66 252.49 260.41 249.25H260.4Z" fill="#C7844C"/>
</g>
<path d="M231.68 268.959C231.01 269.129 223.53 269.039 222.45 268.959C221.37 268.879 218.46 269.709 216.96 269.869C215.46 270.029 213.22 271.699 212.14 272.109C211.06 272.519 207.82 271.109 208.73 268.039C209.64 264.969 211.81 262.639 212.06 261.889C212.31 261.139 215.3 255.489 217.05 254.079C218.8 252.669 222.37 248.679 225.61 248.929C228.85 249.179 229.68 249.839 233.59 252.669C237.5 255.499 240.82 259.709 240.99 260.559C241.16 261.409 244.07 264.889 244.32 266.889C244.57 268.889 243.57 271.459 241.74 271.049C239.91 270.639 239.25 270.549 237 269.299C234.75 268.049 231.68 268.969 231.68 268.969V268.959Z" fill="#D19962"/>
<mask id="mask3_2603_314" style="mask-type:luminance" maskUnits="userSpaceOnUse" x="208" y="248" width="37" height="25">
<path d="M231.68 268.959C231.01 269.129 223.53 269.039 222.45 268.959C221.37 268.879 218.46 269.709 216.96 269.869C215.46 270.029 213.22 271.699 212.14 272.109C211.06 272.519 207.82 271.109 208.73 268.039C209.64 264.969 211.81 262.639 212.06 261.889C212.31 261.139 215.3 255.489 217.05 254.079C218.8 252.669 222.37 248.679 225.61 248.929C228.85 249.179 229.68 249.839 233.59 252.669C237.5 255.499 240.82 259.709 240.99 260.559C241.16 261.409 244.07 264.889 244.32 266.889C244.57 268.889 243.57 271.459 241.74 271.049C239.91 270.639 239.25 270.549 237 269.299C234.75 268.049 231.68 268.969 231.68 268.969V268.959Z" fill="white"/>
</mask>
<g mask="url(#mask3_2603_314)">
<path d="M211.48 262.099C211.48 262.099 214.89 267.339 215.14 269.329C215.39 271.319 216.64 270.239 216.64 270.239C216.64 270.239 213.81 261.509 212.48 260.759C211.15 260.009 211.48 262.089 211.48 262.089V262.099Z" fill="#C18856"/>
<path d="M218.05 252.7C217.86 252.54 215.89 252.62 216.64 253.45C217.39 254.28 220.63 258.52 221.79 269.66C222.95 280.8 224.62 258.1 218.05 252.7Z" fill="#C18856"/>
<path d="M234.51 252.64C234.51 252.64 232.02 250.79 232.1 251.13C232.18 251.47 231.85 265.18 231.02 267.01C230.19 268.84 232.6 267.59 233.51 263.77C234.42 259.95 234.51 252.65 234.51 252.65V252.64Z" fill="#C18856"/>
<path d="M241.74 260.609L240.83 259.459C240.83 259.459 235.93 270.329 236.01 270.539C236.09 270.749 237.84 269.579 237.84 269.579C237.84 269.579 239 263.849 241.75 260.609H241.74Z" fill="#C18856"/>
</g>
<path d="M271.89 274.949C271.22 275.119 263.74 275.029 262.66 274.949C261.58 274.869 258.67 275.699 257.17 275.859C255.67 276.019 253.43 277.689 252.35 278.099C251.27 278.509 248.03 277.099 248.94 274.029C249.85 270.959 252.02 268.629 252.27 267.879C252.52 267.129 255.51 261.479 257.26 260.069C259.01 258.659 262.58 254.669 265.82 254.919C269.06 255.169 269.89 255.829 273.8 258.659C277.71 261.489 281.03 265.699 281.2 266.549C281.37 267.399 284.28 270.879 284.53 272.879C284.78 274.879 283.78 277.449 281.95 277.039C280.12 276.629 279.46 276.539 277.21 275.289C274.96 274.039 271.89 274.959 271.89 274.959V274.949Z" fill="#D99C58"/>
<mask id="mask4_2603_314" style="mask-type:luminance" maskUnits="userSpaceOnUse" x="248" y="254" width="37" height="25">
<path d="M271.89 274.949C271.22 275.119 263.74 275.029 262.66 274.949C261.58 274.869 258.67 275.699 257.17 275.859C255.67 276.019 253.43 277.689 252.35 278.099C251.27 278.509 248.03 277.099 248.94 274.029C249.85 270.959 252.02 268.629 252.27 267.879C252.52 267.129 255.51 261.479 257.26 260.069C259.01 258.659 262.58 254.669 265.82 254.919C269.06 255.169 269.89 255.829 273.8 258.659C277.71 261.489 281.03 265.699 281.2 266.549C281.37 267.399 284.28 270.879 284.53 272.879C284.78 274.879 283.78 277.449 281.95 277.039C280.12 276.629 279.46 276.539 277.21 275.289C274.96 274.039 271.89 274.959 271.89 274.959V274.949Z" fill="white"/>
</mask>
<g mask="url(#mask4_2603_314)">
<path d="M251.69 268.089C251.69 268.089 255.1 273.329 255.35 275.319C255.6 277.309 256.85 276.229 256.85 276.229C256.85 276.229 254.02 267.499 252.69 266.749C251.36 265.999 251.69 268.079 251.69 268.079V268.089Z" fill="#C7844C"/>
<path d="M258.26 258.7C258.07 258.54 256.1 258.62 256.85 259.45C257.6 260.28 260.84 264.52 262 275.66C263.16 286.8 264.83 264.1 258.26 258.7Z" fill="#C7844C"/>
<path d="M274.72 258.63C274.72 258.63 272.23 256.78 272.31 257.12C272.39 257.46 272.06 271.17 271.23 273C270.4 274.83 272.81 273.58 273.72 269.76C274.63 265.94 274.72 258.64 274.72 258.64V258.63Z" fill="#C7844C"/>
<path d="M281.95 266.599L281.04 265.449C281.04 265.449 276.14 276.319 276.22 276.529C276.3 276.739 278.05 275.569 278.05 275.569C278.05 275.569 279.21 269.839 281.96 266.599H281.95Z" fill="#C7844C"/>
</g>
<path d="M161.95 247.83H120.66C120.66 247.83 112.48 240.88 120.66 233.11C128.84 225.34 144.78 222.89 154.18 227.8C163.58 232.71 166.44 236.79 166.04 239.25C165.64 241.71 161.95 247.84 161.95 247.84V247.83Z" fill="#D19962"/>
<mask id="mask5_2603_314" style="mask-type:luminance" maskUnits="userSpaceOnUse" x="117" y="225" width="50" height="23">
<path d="M161.95 247.83H120.66C120.66 247.83 112.48 240.88 120.66 233.11C128.84 225.34 144.78 222.89 154.18 227.8C163.58 232.71 166.44 236.79 166.04 239.25C165.64 241.71 161.95 247.84 161.95 247.84V247.83Z" fill="white"/>
</mask>
<g mask="url(#mask5_2603_314)">
<path d="M120.96 224.071C120.35 223.611 131.15 234.721 132.07 237.791C132.99 240.861 134.91 234.571 120.96 224.071Z" fill="#8F5F33"/>
<path d="M127.93 222.61C127.32 222.15 138.12 233.26 139.04 236.33C139.96 239.4 141.88 233.11 127.93 222.61Z" fill="#8F5F33"/>
<path d="M137.26 222.61C136.65 222.15 147.45 233.26 148.37 236.33C149.29 239.4 151.21 233.11 137.26 222.61Z" fill="#8F5F33"/>
<path d="M146.79 222.61C146.18 222.15 156.98 233.26 157.9 236.33C158.82 239.4 160.74 233.11 146.79 222.61Z" fill="#8F5F33"/>
</g>
<path d="M137.43 258.23H96.14C96.14 258.23 87.96 251.28 96.14 243.51C104.32 235.74 120.26 233.29 129.66 238.2C139.06 243.11 141.92 247.19 141.52 249.65C141.12 252.11 137.43 258.24 137.43 258.24V258.23Z" fill="#DEA560"/>
<mask id="mask6_2603_314" style="mask-type:luminance" maskUnits="userSpaceOnUse" x="90" y="236" width="50" height="24">
<path d="M135 259.109H93.71C93.71 259.109 85.53 252.159 93.71 244.389C101.89 236.619 117.83 234.169 127.23 239.079C136.63 243.989 139.49 248.069 139.09 250.529C138.69 252.989 135 259.119 135 259.119V259.109Z" fill="white"/>
</mask>
<g mask="url(#mask6_2603_314)">
<path d="M94 235.35C93.39 234.89 104.19 246 105.11 249.07C106.03 252.14 107.95 245.85 94 235.35Z" fill="#8F5F33"/>
<path d="M100.98 233.889C100.37 233.429 111.17 244.539 112.09 247.609C113.01 250.679 114.93 244.389 100.98 233.889Z" fill="#8F5F33"/>
<path d="M110.3 233.889C109.69 233.429 120.49 244.539 121.41 247.609C122.33 250.679 124.25 244.389 110.3 233.889Z" fill="#8F5F33"/>
<path d="M119.83 233.889C119.22 233.429 130.02 244.539 130.94 247.609C131.86 250.679 133.78 244.389 119.83 233.889Z" fill="#8F5F33"/>
</g>
<path d="M194 262.07H152.71C152.71 262.07 144.53 255.12 152.71 247.35C160.89 239.58 176.83 237.13 186.23 242.04C195.63 246.95 198.49 251.03 198.09 253.49C197.69 255.95 194 262.08 194 262.08V262.07Z" fill="#DEA560"/>
<mask id="mask7_2603_314" style="mask-type:luminance" maskUnits="userSpaceOnUse" x="149" y="239" width="50" height="24">
<path d="M194 262.07H152.71C152.71 262.07 144.53 255.12 152.71 247.35C160.89 239.58 176.83 237.13 186.23 242.04C195.63 246.95 198.49 251.03 198.09 253.49C197.69 255.95 194 262.08 194 262.08V262.07Z" fill="white"/>
</mask>
<g mask="url(#mask7_2603_314)">
<path d="M153 238.311C152.39 237.851 163.19 248.961 164.11 252.031C165.03 255.101 166.95 248.811 153 238.311Z" fill="#8F5F33"/>
<path d="M159.98 236.85C159.37 236.39 170.17 247.5 171.09 250.57C172.01 253.64 173.93 247.35 159.98 236.85Z" fill="#8F5F33"/>
<path d="M169.3 236.85C168.69 236.39 179.49 247.5 180.41 250.57C181.33 253.64 183.25 247.35 169.3 236.85Z" fill="#8F5F33"/>
<path d="M178.84 236.85C178.23 236.39 189.03 247.5 189.95 250.57C190.87 253.64 192.79 247.35 178.84 236.85Z" fill="#8F5F33"/>
</g>
<path d="M156.14 269.51H114.85C114.85 269.51 106.67 262.56 114.85 254.79C123.03 247.02 138.97 244.57 148.37 249.48C157.77 254.39 160.63 258.47 160.23 260.93C159.83 263.39 156.14 269.52 156.14 269.52V269.51Z" fill="#D19962"/>
<mask id="mask8_2603_314" style="mask-type:luminance" maskUnits="userSpaceOnUse" x="111" y="246" width="50" height="24">
<path d="M156.14 269.51H114.85C114.85 269.51 106.67 262.56 114.85 254.79C123.03 247.02 138.97 244.57 148.37 249.48C157.77 254.39 160.63 258.47 160.23 260.93C159.83 263.39 156.14 269.52 156.14 269.52V269.51Z" fill="white"/>
</mask>
<g mask="url(#mask8_2603_314)">
<path d="M115.15 245.75C114.54 245.29 125.34 256.4 126.26 259.47C127.18 262.54 129.1 256.25 115.15 245.75Z" fill="#8F5F33"/>
<path d="M122.12 244.289C121.51 243.829 132.31 254.939 133.23 258.009C134.15 261.079 136.07 254.789 122.12 244.289Z" fill="#8F5F33"/>
<path d="M131.45 244.289C130.84 243.829 141.64 254.939 142.56 258.009C143.48 261.079 145.4 254.789 131.45 244.289Z" fill="#8F5F33"/>
<path d="M140.98 244.289C140.37 243.829 151.17 254.939 152.09 258.009C153.01 261.079 154.93 254.789 140.98 244.289Z" fill="#8F5F33"/>
</g>
<g opacity="0.5">
<path opacity="0.25" d="M531.7 206.189H67.24V274.789H531.7V206.189Z" fill="#E3EEF9"/>
<path d="M531.7 206.189H67.24V274.789H531.7V206.189Z" stroke="#7B8093" stroke-width="4" stroke-miterlimit="10"/>
<path opacity="0.5" d="M104.19 208.16H152.64L100.66 272.62H69.48V250.46L104.19 208.16Z" fill="white"/>
<path opacity="0.5" d="M245.35 272.62H263.53L309.2 208.16H286.14L245.35 272.62Z" fill="white"/>
<path opacity="0.5" d="M465.93 272.62H484.11L523.02 208.16H506.72L465.93 272.62Z" fill="white"/>
<path opacity="0.5" d="M458.28 272.62H464L503.24 208.16H498.12L458.28 272.62Z" fill="white"/>
</g>
<path d="M177.76 139.16C177.76 139.16 170.96 122.52 161.12 118.18C151.28 113.84 145.18 113.49 144.71 118.18C144.24 122.87 148.23 139.16 148.23 139.16H177.76Z" fill="#A7795A"/>
<mask id="mask9_2603_314" style="mask-type:luminance" maskUnits="userSpaceOnUse" x="144" y="114" width="34" height="26">
<path d="M177.76 139.16C177.76 139.16 170.96 122.52 161.12 118.18C151.28 113.84 145.18 113.49 144.71 118.18C144.24 122.87 148.23 139.16 148.23 139.16H177.76Z" fill="white"/>
</mask>
<g mask="url(#mask9_2603_314)">
<path d="M168.51 122.871C168.16 122.991 155.74 125.571 155.38 128.031C155.38 128.031 171.32 127.561 172.84 128.731L168.5 122.871H168.51Z" fill="#8F5F33"/>
<path d="M174.35 131.422C174 131.542 161.58 134.122 161.22 136.582C161.22 136.582 177.16 136.112 178.68 137.282L174.34 131.422H174.35Z" fill="#8F5F33"/>
</g>
<path d="M161.22 139.16C161.22 139.16 153.31 119.79 141.85 114.74C130.39 109.69 123.3 109.28 122.75 114.74C122.2 120.2 126.84 139.16 126.84 139.16H161.22Z" fill="#BA8B67"/>
<mask id="mask10_2603_314" style="mask-type:luminance" maskUnits="userSpaceOnUse" x="122" y="110" width="40" height="30">
<path d="M161.22 139.16C161.22 139.16 153.31 119.79 141.85 114.74C130.39 109.69 123.3 109.28 122.75 114.74C122.2 120.2 126.84 139.16 126.84 139.16H161.22Z" fill="white"/>
</mask>
<g mask="url(#mask10_2603_314)">
<path d="M150.44 120.189C150.03 120.329 135.57 123.329 135.16 126.189C135.16 126.189 153.71 125.639 155.49 127.009L150.44 120.189Z" fill="#D5A882"/>
<path d="M157.24 130.15C156.83 130.29 142.37 133.29 141.96 136.15C141.96 136.15 160.51 135.6 162.29 136.97L157.24 130.15Z" fill="#D5A882"/>
</g>
<path d="M118.54 135.85L123.62 140.09L130.64 136.76L137.21 204.89H113.8L118.54 135.85Z" fill="#A7795A"/>
<path d="M180.34 138.32L130.64 136.76L137.21 204.89H189.72L180.34 138.32Z" fill="#AF8162"/>
</g>
<path opacity="0.29" d="M432.15 225.189C432.15 225.189 425.39 234.079 430.71 234.349C436.03 234.619 441.02 231.729 442.79 231.619C444.56 231.509 444.34 234.359 444.34 234.359C444.34 234.359 431.37 249.019 431.26 252.009C431.15 254.999 435.92 256.669 438.02 255.339C440.12 254.009 442.19 253.309 445.92 252.659C449.65 252.009 450.65 250.499 453.54 251.419C456.43 252.339 456.64 252.679 461.96 253.729C467.28 254.779 467.98 254.449 469.13 253.729C469.61 253.419 474.6 248.289 480.19 242.459C481.3 241.299 485.59 243.909 486.35 242.459C493 229.739 496.66 225.189 496.66 225.189H432.15Z" fill="#84878A"/>
<path d="M453.69 229.83C453.02 230 445.54 229.91 444.46 229.83C443.38 229.75 440.47 230.58 438.97 230.74C437.47 230.9 435.23 232.57 434.15 232.98C433.07 233.39 429.83 231.98 430.74 228.91C431.65 225.84 433.82 223.51 434.07 222.76C434.32 222.01 437.31 216.36 439.06 214.95C440.81 213.54 444.38 209.55 447.62 209.8C450.86 210.05 451.69 210.71 455.6 213.54C459.51 216.37 462.83 220.58 463 221.43C463.17 222.28 466.08 225.76 466.33 227.76C466.58 229.76 465.58 232.33 463.75 231.92C461.92 231.51 461.26 231.42 459.01 230.17C456.76 228.92 453.69 229.84 453.69 229.84V229.83Z" fill="#D99C58"/>
<mask id="mask11_2603_314" style="mask-type:luminance" maskUnits="userSpaceOnUse" x="430" y="209" width="37" height="25">
<path d="M453.69 229.83C453.02 230 445.54 229.91 444.46 229.83C443.38 229.75 440.47 230.58 438.97 230.74C437.47 230.9 435.23 232.57 434.15 232.98C433.07 233.39 429.83 231.98 430.74 228.91C431.65 225.84 433.82 223.51 434.07 222.76C434.32 222.01 437.31 216.36 439.06 214.95C440.81 213.54 444.38 209.55 447.62 209.8C450.86 210.05 451.69 210.71 455.6 213.54C459.51 216.37 462.83 220.58 463 221.43C463.17 222.28 466.08 225.76 466.33 227.76C466.58 229.76 465.58 232.33 463.75 231.92C461.92 231.51 461.26 231.42 459.01 230.17C456.76 228.92 453.69 229.84 453.69 229.84V229.83Z" fill="white"/>
</mask>
<g mask="url(#mask11_2603_314)">
<path d="M433.49 222.97C433.49 222.97 436.9 228.21 437.15 230.2C437.4 232.19 438.65 231.11 438.65 231.11C438.65 231.11 435.82 222.38 434.49 221.63C433.16 220.88 433.49 222.96 433.49 222.96V222.97Z" fill="#C7844C"/>
<path d="M440.06 213.571C439.87 213.411 437.9 213.491 438.65 214.321C439.4 215.151 442.64 219.391 443.8 230.531C444.96 241.671 446.63 218.971 440.06 213.571Z" fill="#C7844C"/>
<path d="M456.52 213.511C456.52 213.511 454.03 211.661 454.11 212.001C454.19 212.341 453.86 226.051 453.03 227.881C452.2 229.711 454.61 228.461 455.52 224.641C456.43 220.821 456.52 213.521 456.52 213.521V213.511Z" fill="#C7844C"/>
<path d="M463.75 221.47L462.84 220.32C462.84 220.32 457.94 231.19 458.02 231.4C458.1 231.61 459.85 230.44 459.85 230.44C459.85 230.44 461.01 224.71 463.76 221.47H463.75Z" fill="#C7844C"/>
</g>
<path d="M474.35 239.51C473.68 239.68 466.2 239.59 465.12 239.51C464.04 239.43 461.13 240.26 459.63 240.42C458.13 240.58 455.89 242.25 454.81 242.66C453.73 243.07 450.49 241.66 451.4 238.59C452.31 235.52 454.48 233.19 454.73 232.44C454.98 231.69 457.97 226.04 459.72 224.63C461.47 223.22 465.04 219.23 468.28 219.48C471.52 219.73 472.35 220.39 476.26 223.22C480.17 226.05 483.49 230.26 483.66 231.11C483.83 231.96 486.74 235.44 486.99 237.44C487.24 239.44 486.24 242.01 484.41 241.6C482.58 241.19 481.92 241.1 479.67 239.85C477.42 238.6 474.35 239.52 474.35 239.52V239.51Z" fill="#D99C58"/>
<mask id="mask12_2603_314" style="mask-type:luminance" maskUnits="userSpaceOnUse" x="451" y="219" width="37" height="24">
<path d="M474.35 239.51C473.68 239.68 466.2 239.59 465.12 239.51C464.04 239.43 461.13 240.26 459.63 240.42C458.13 240.58 455.89 242.25 454.81 242.66C453.73 243.07 450.49 241.66 451.4 238.59C452.31 235.52 454.48 233.19 454.73 232.44C454.98 231.69 457.97 226.04 459.72 224.63C461.47 223.22 465.04 219.23 468.28 219.48C471.52 219.73 472.35 220.39 476.26 223.22C480.17 226.05 483.49 230.26 483.66 231.11C483.83 231.96 486.74 235.44 486.99 237.44C487.24 239.44 486.24 242.01 484.41 241.6C482.58 241.19 481.92 241.1 479.67 239.85C477.42 238.6 474.35 239.52 474.35 239.52V239.51Z" fill="white"/>
</mask>
<g mask="url(#mask12_2603_314)">
<path d="M454.15 232.65C454.15 232.65 457.56 237.89 457.81 239.88C458.06 241.87 459.31 240.79 459.31 240.79C459.31 240.79 456.48 232.06 455.15 231.31C453.82 230.56 454.15 232.64 454.15 232.64V232.65Z" fill="#C7844C"/>
<path d="M460.72 223.261C460.53 223.101 458.56 223.181 459.31 224.011C460.06 224.841 463.3 229.081 464.46 240.221C465.62 251.361 467.29 228.661 460.72 223.261Z" fill="#C7844C"/>
<path d="M477.18 223.19C477.18 223.19 474.69 221.34 474.77 221.68C474.85 222.02 474.52 235.73 473.69 237.56C472.86 239.39 475.27 238.14 476.18 234.32C477.09 230.5 477.18 223.2 477.18 223.2V223.19Z" fill="#C7844C"/>
<path d="M484.41 231.16L483.5 230.01C483.5 230.01 478.6 240.88 478.68 241.09C478.76 241.3 480.51 240.13 480.51 240.13C480.51 240.13 481.67 234.4 484.42 231.16H484.41Z" fill="#C7844C"/>
</g>
<path d="M455.7 250.869C455.03 251.039 447.55 250.949 446.47 250.869C445.39 250.789 442.48 251.619 440.98 251.779C439.48 251.939 437.24 253.609 436.16 254.019C435.08 254.429 431.84 253.019 432.75 249.949C433.66 246.879 435.83 244.549 436.08 243.799C436.33 243.049 439.32 237.399 441.07 235.989C442.82 234.579 446.39 230.589 449.63 230.839C452.87 231.089 453.7 231.749 457.61 234.579C461.52 237.409 464.84 241.619 465.01 242.469C465.18 243.319 468.09 246.799 468.34 248.799C468.59 250.799 467.59 253.369 465.76 252.959C463.93 252.549 463.27 252.459 461.02 251.209C458.77 249.959 455.7 250.879 455.7 250.879V250.869Z" fill="#D19962"/>
<mask id="mask13_2603_314" style="mask-type:luminance" maskUnits="userSpaceOnUse" x="432" y="230" width="37" height="25">
<path d="M455.7 250.869C455.03 251.039 447.55 250.949 446.47 250.869C445.39 250.789 442.48 251.619 440.98 251.779C439.48 251.939 437.24 253.609 436.16 254.019C435.08 254.429 431.84 253.019 432.75 249.949C433.66 246.879 435.83 244.549 436.08 243.799C436.33 243.049 439.32 237.399 441.07 235.989C442.82 234.579 446.39 230.589 449.63 230.839C452.87 231.089 453.7 231.749 457.61 234.579C461.52 237.409 464.84 241.619 465.01 242.469C465.18 243.319 468.09 246.799 468.34 248.799C468.59 250.799 467.59 253.369 465.76 252.959C463.93 252.549 463.27 252.459 461.02 251.209C458.77 249.959 455.7 250.879 455.7 250.879V250.869Z" fill="white"/>
</mask>
<g mask="url(#mask13_2603_314)">
<path d="M435.49 244.009C435.49 244.009 438.9 249.249 439.15 251.239C439.4 253.229 440.65 252.149 440.65 252.149C440.65 252.149 437.82 243.419 436.49 242.669C435.16 241.919 435.49 243.999 435.49 243.999V244.009Z" fill="#C18856"/>
<path d="M442.06 234.62C441.87 234.46 439.9 234.54 440.65 235.37C441.4 236.2 444.64 240.44 445.8 251.58C446.96 262.72 448.63 240.02 442.06 234.62Z" fill="#C18856"/>
<path d="M458.52 234.55C458.52 234.55 456.03 232.7 456.11 233.04C456.19 233.38 455.86 247.09 455.03 248.92C454.2 250.75 456.61 249.5 457.52 245.68C458.43 241.86 458.52 234.56 458.52 234.56V234.55Z" fill="#C18856"/>
<path d="M465.75 242.519L464.84 241.369C464.84 241.369 459.94 252.239 460.02 252.449C460.1 252.659 461.85 251.489 461.85 251.489C461.85 251.489 463.01 245.759 465.76 242.519H465.75Z" fill="#C18856"/>
</g>
<mask id="mask14_2603_314" style="mask-type:luminance" maskUnits="userSpaceOnUse" x="-1" y="0" width="594" height="364">
<path d="M592.39 248.53C592.39 170.3 523.55 97.49 429.57 137.57C349.02 171.93 381.05 0 179.18 0C109.97 0 0.140001 58.31 0.140001 169.58C-2.38 270.3 24.79 379.75 380.92 361.62C489.81 356.08 592.39 355.64 592.39 248.53Z" fill="white"/>
</mask>
<g mask="url(#mask14_2603_314)">
<path d="M398.47 322.76L392.11 387.97L529.88 385.17C529.88 385.17 534.12 322.32 529.88 311.74L398.47 322.76Z" fill="#3B434F"/>
<path d="M447.26 355.631L467.41 368.881C467.41 368.881 465.82 385.851 467.41 387.971H452.56C452.56 387.971 459.45 371.531 447.26 355.631Z" fill="#323748"/>
<path d="M397.94 319.311L398.03 327.261C398.03 327.261 421.69 334.171 454.91 331.511C472.63 330.091 493.97 336.391 513.04 329.071C519.73 326.501 524.39 328.921 530.95 326.851V310.811L397.95 319.301L397.94 319.311Z" fill="#323947"/>
</g>
<path d="M372.8 157.991C365.72 168.141 357.05 177.091 347.14 184.471C328.03 198.351 320.41 225.471 304.9 240.371C289.4 255.231 306.8 266.711 313.02 261.181C319.25 255.631 351.14 235.711 357.03 224.891C362.92 214.061 368.57 204.331 373.03 200.631C375.14 198.921 385.9 188.431 397.73 176.541C404.33 169.611 393.94 147.091 372.79 158.001L372.8 157.991Z" fill="#D5A882"/>
<path d="M315.88 244.832C334.68 237.002 372.49 182.902 390.15 156.432C398.98 160.392 402.13 171.912 397.73 176.542C385.9 188.432 375.14 198.922 373.03 200.632C368.57 204.312 362.92 214.062 357.03 224.892C352.62 232.992 333.59 246.232 321.72 254.682C311.96 254.122 298.36 252.102 315.88 244.832Z" fill="#BA8B67"/>
<path d="M394.65 179.56C388.16 173.78 383.59 164.19 372.78 158.19C373.72 147.03 403.05 92.2804 448.71 99.3504C494.36 106.39 395.03 179.57 394.65 179.57V179.56Z" fill="#4573D2"/>
<path d="M394.69 179.621C390.76 176.111 387.52 171.181 383.17 166.521C387.21 159.571 397 141.281 404.9 139.651C410.66 138.441 424.88 143.161 434.28 146.691C421.76 158.471 408.54 169.431 394.69 179.611V179.621Z" fill="#4369B6"/>
<path d="M395.43 319.851C395.43 319.851 393.52 196.281 393.99 172.381C394.46 148.491 397.09 96.6515 456.51 95.1715C515.93 93.6615 545.09 120.411 539.97 195.911C537.56 230.971 530.99 280.801 534.54 321.811C534.54 321.811 514.59 320.041 506.1 324.261C490.39 332.081 474.97 323.201 444.29 325.201C415.69 327.061 395.44 319.851 395.44 319.851H395.43Z" fill="#4573D2"/>
<path d="M523.96 140.911C527.3 103.921 537.85 209.011 523.96 251.641C512.66 280.681 450.67 262.751 430.55 256.491C430.74 255.931 441.47 218.511 453.24 209.061C465 199.611 485.13 206.451 489.76 168.111C494.39 129.771 520.62 177.931 523.96 140.901V140.911Z" fill="#4369B6"/>
<path d="M397.29 237.4C397.29 237.4 378.23 218.38 374.96 214.88C371.86 211.37 367.63 209.07 363 208.34C357.43 207.16 346.87 205.81 342.57 205.4C338.26 204.95 336.22 207.84 339.31 211.06C342.41 214.26 367.32 240.57 367.32 240.57L397.29 237.4Z" fill="#444C61"/>
<path d="M363.46 236.361L340.51 212.321C340.51 212.321 337.56 208.701 342.07 209.321C346.58 209.911 358.64 211.621 361.54 212.151C364.44 212.651 368.9 213.861 371.54 216.661C374.18 219.461 389.87 235.591 389.87 235.591L363.47 236.351L363.46 236.361Z" fill="#30384D"/>
<path d="M338.02 273.661C331.23 277.421 309.8 281.511 308.3 281.511C306.8 281.511 281.95 264.461 284.61 253.691C287.27 242.921 296.31 234.981 301.33 233.641C306.35 232.321 320.24 235.381 319.27 245.031C318.29 254.651 313.24 255.941 313.24 255.941C313.24 255.941 324.14 254.601 324.9 258.831C325.66 263.061 333.86 266.211 335.45 266.431C337.04 266.651 344.8 269.881 338.02 273.671V273.661Z" fill="#BA8B67"/>
<path d="M367.69 285.8L334.67 277.81L284.41 241.4L321.87 246.48L367.68 285.8H367.69Z" fill="white"/>
<path d="M338.02 273.66C331.23 277.42 309.8 281.51 308.3 281.51C306.8 281.51 281.95 264.43 284.61 253.69C287.27 242.92 295.32 254.87 295.32 254.87C295.32 254.87 324.14 254.59 324.9 258.83C325.66 263.07 333.86 266.21 335.45 266.43C337.04 266.65 344.8 269.88 338.02 273.67V273.66Z" fill="#D5A882"/>
<path d="M291.02 267.74C290.33 266.51 289.72 265.24 289.17 263.95C301.63 265.83 314.35 265.02 326.46 261.57C329.02 263.9 332.1 265.55 335.45 266.42C336.86 266.62 343.14 269.2 339.77 272.42L334.89 275.06C326.23 278.37 309.6 281.51 308.29 281.51C307.37 281.51 297.76 275.14 291.01 267.74H291.02Z" fill="#BA8B67"/>
<path d="M425.43 111.27C427.73 120.39 428.22 136.99 439.4 135.22C450.58 133.48 470.5 121.34 473.97 109C477.44 96.6898 470.24 97.4698 467.45 91.9998C464.67 86.5598 463.47 69.5898 463.47 69.5898L425.42 111.27H425.43Z" fill="#D5A882"/>
<path d="M472.14 113.291C472.14 113.291 451.27 101.761 455.75 90.4911C460.23 79.1911 459.34 74.8711 459.34 74.8711L464.1 76.0811C464.71 81.4611 465.81 88.7911 467.47 92.0111C470.26 97.4811 477.45 96.6911 473.98 109.031C473.55 110.521 472.93 111.951 472.14 113.291Z" fill="#BA8B67"/>
<path d="M424.68 17.4813C407.2 22.2213 400.28 36.6913 398.83 57.0013C397.38 77.3113 404.08 73.6313 404.04 81.4613C404 89.2913 409.69 91.9013 414.9 104.431C420.11 116.971 428.96 120.951 443.01 111.831C457.07 102.741 460.54 77.1713 460.54 77.1713C462.34 76.7813 464.03 75.9913 465.47 74.8413C466.91 73.6913 468.06 72.2313 468.83 70.5513C471.2 64.9413 474.55 54.9813 470.38 51.6513C466.21 48.3113 458.97 52.7213 458.97 52.7213C458.97 52.7213 465.08 28.5713 456.5 19.7613C447.92 10.9513 424.68 17.4913 424.68 17.4913V17.4813Z" fill="#D5A882"/>
<path d="M456.84 65.9707C452.73 65.9107 449.1 57.4207 447.75 52.1407C446.4 46.8607 447.92 36.6607 436.33 40.1907C424.74 43.7307 399.64 64.6807 398.18 45.2107C396.71 25.7507 411.13 14.8107 426.68 11.6107C442.23 8.44068 460.69 15.8707 466.5 27.5707C472.31 39.2707 472.09 54.4707 472.09 54.4707C472.09 54.4707 468.74 46.4807 459.11 52.7007C454.59 55.4807 456.85 65.9707 456.85 65.9707H456.84Z" fill="#444C61"/>
<path d="M456.84 65.9707C452.73 65.9107 449.1 57.4207 447.75 52.1407C446.4 46.8607 447.92 36.6607 436.33 40.1907C424.74 43.7307 399.64 64.6807 398.18 45.2107C396.71 25.7507 411.13 14.8107 426.68 11.6107C442.23 8.44068 460.69 15.8707 466.5 27.5707C472.31 39.2707 472.09 54.4707 472.09 54.4707C472.09 54.4707 468.74 46.4807 459.11 52.7007C454.59 55.4807 456.85 65.9707 456.85 65.9707H456.84Z" fill="#444C61"/>
<path d="M408.09 92.0804C412.61 99.0104 416.39 105.15 419.84 105.15C423.29 105.15 430.35 103.97 433.27 102.37C436.19 100.77 456.25 84.2204 453.93 71.5504C451.61 58.8704 452.73 61.5104 454.65 61.4204C456.57 61.3404 456.84 65.3504 457.58 67.8204C458.31 70.2904 460.14 75.5604 460.14 77.3804C460.14 79.2004 459.01 102.93 447.42 110.89C435.84 118.85 426.54 121.91 421.75 117.76C416.97 113.64 411.48 100.46 408.09 92.0704V92.0804Z" fill="#444C61"/>
<path d="M414.64 105.41C415.52 100.2 415.56 99.46 417.95 98.51C421.35 97.5 424.91 97.11 428.45 97.3C430.78 97.61 438.98 105.4 438.98 105.4L444.28 100.52C444.28 100.52 434.35 94.4 430.87 94.07C427.39 93.73 420.58 95.11 417.19 96.29C413.8 97.47 412.62 102.77 412.62 102.77L414.64 105.4V105.41Z" fill="#444C61"/>
<path d="M460.72 51.751C460.66 38.201 458.2 17.621 431.25 11.001C445.67 9.91099 461.24 17.001 466.48 27.581C472.28 39.251 472.07 54.481 472.07 54.481C472.07 54.481 469.1 47.391 460.71 51.761L460.72 51.751Z" fill="#30384D"/>
<path d="M496.78 201.021C498.75 219.031 498.86 274.281 514.65 274.051C530.44 273.831 534.19 252.881 535.41 245.161C536.17 240.361 538.62 216.751 539.77 195.261C540.7 178.521 495.19 182.161 496.79 201.011L496.78 201.021Z" fill="#D5A882"/>
<path d="M503.95 261.011C511.23 260.341 516.48 258.431 518.37 254.561C522.57 245.891 526.85 222.591 528.11 198.891C532.08 197.961 535.97 196.761 539.77 195.271C538.63 216.781 536.17 240.371 535.41 245.171C534.19 252.881 530.44 273.831 514.65 274.061H514.55C509.7 274.061 506.34 268.821 503.95 261.021V261.011Z" fill="#BA8B67"/>
<path d="M539.76 195.271C539.76 195.271 518.67 204.251 496.7 201.191C496.63 201.441 480.12 126.281 512.27 118.871C544.43 111.491 539.76 195.271 539.76 195.271Z" fill="#4573D2"/>
<path d="M518.37 139.481C513.12 134.351 478.5 116.931 472.14 113.281C473.19 111.871 473.54 110.191 474.91 105.401C476.21 100.861 470.31 95.3613 470.31 95.3613C470.31 95.3613 487.93 97.6213 489.91 98.1413C492.46 98.8113 502.2 102.311 503.88 102.951C515.55 107.371 525.67 120.631 529.72 127.021C531.55 130.361 533.12 133.841 534.39 137.431C541.72 160.181 539.76 195.261 539.76 195.261C535.97 196.771 532.08 198.011 528.1 198.961C529.43 173.971 527.4 148.531 518.37 139.471V139.481Z" fill="#4369B6"/>
<path d="M507.75 237.65C477.53 236.67 463.3 243.82 438.73 236.05C414.17 228.31 410.92 217.37 396.81 216.47C388.18 215.94 383.59 218.94 381.34 221.41C381.32 221.41 386.56 226.68 386.56 226.68C388.27 226.26 389.89 225.59 391.38 224.63C391.38 224.63 395.69 226.11 397.34 226.03C398.99 225.92 398.31 230.4 387.91 229.95C377.51 229.53 374.18 228.52 368.25 226.03C362.32 223.5 362.44 229.45 362.44 229.45C360.5 228.5 358.33 228.16 356.19 228.5C352.98 229.12 355.6 237.17 361.53 241.88C367.46 246.59 369.59 245.7 386.81 256.19C404.03 266.68 415.49 256.33 430.11 261.94C444.73 267.55 488.74 274.67 511.94 274.64C535.14 274.59 537.96 238.66 507.74 237.65H507.75Z" fill="#D5A882"/>
<path d="M430.11 261.941C429.95 261.881 429.8 261.831 429.65 261.771L429.32 261.661C426.27 260.621 423.06 260.121 419.83 260.151H419.78C417.95 260.151 416.14 260.291 414.32 260.461C413.59 260.511 412.87 260.571 412.14 260.661L411.55 260.711L410.87 260.771C408.76 260.961 406.61 261.131 404.41 261.131H404.18C398.48 261.181 392.88 259.701 387.95 256.871C387.64 256.681 387.32 256.511 387 256.311L386.81 256.201C384.19 254.601 381.92 253.281 379.93 252.131C389.43 253.501 399.08 253.471 408.57 252.051C417.11 250.791 434.54 253.651 453.09 256.511C481.77 260.941 513.1 265.371 518.35 254.581C520.09 250.571 521.43 246.391 522.33 242.131C535.93 251.971 530.35 274.611 511.93 274.661H511.7C488.44 274.661 444.67 267.571 430.1 261.961L430.11 261.941Z" fill="#BA8B67"/>
<path d="M235.29 204.429H214.52L213.51 164.299H236.3L235.29 204.429Z" fill="#CED3DF"/>
<path d="M236.02 190.269H213.59L213.16 177.229H236.46L236.02 190.269Z" fill="#444C61"/>
<path d="M213.55 164.879L213.51 166.129H236.25L236.29 164.709L213.55 164.879Z" fill="#BA8B67"/>
<path d="M212.84 161.619H236.83L237.29 165.469H212.38L212.84 161.619Z" fill="#D5A882"/>
<path d="M263.01 204.429H242.23L241.22 164.299H264.01L263.01 204.429Z" fill="#CED3DF"/>
<path d="M263.73 190.269H241.31L240.87 177.229H264.17L263.73 190.269Z" fill="#444C61"/>
<path d="M241.26 164.879L241.22 166.129H263.97L264 164.709L241.26 164.879Z" fill="#BA8B67"/>
<path d="M240.56 161.619H264.54L265 165.469H240.09L240.56 161.619Z" fill="#D5A882"/>
</g>
<defs>
<clipPath id="clip0_2603_314">
<rect width="592.39" height="363.61" fill="white"/>
</clipPath>
</defs>
</svg>
