<svg width="580" height="357" viewBox="0 0 580 357" fill="none" xmlns="http://www.w3.org/2000/svg">
<g clip-path="url(#clip0_2603_315)">
<g opacity="0.14">
<path d="M579.9 243.29C579.9 166.71 512.52 95.44 420.51 134.67C341.66 168.3 373.02 0 175.4 0C107.66 0 0.139982 57.08 0.139982 166.01C-2.32002 264.6 24.27 371.75 372.89 354C479.48 348.57 579.9 348.15 579.9 243.3V243.29Z" fill="#BEBEBE"/>
</g>
<mask id="mask0_2603_315" style="mask-type:luminance" maskUnits="userSpaceOnUse" x="0" y="0" width="580" height="357">
<path d="M579.9 243.569C579.9 166.989 512.52 95.7193 420.51 134.949C341.66 168.579 373.02 0.279297 175.4 0.279297C107.66 0.279297 0.139982 57.3593 0.139982 166.279C-2.32002 264.869 24.27 372.019 372.89 354.269C479.48 348.839 579.9 348.419 579.9 243.569Z" fill="white"/>
</mask>
<g mask="url(#mask0_2603_315)">
<path d="M135.89 143.299C147.74 144.099 159.15 166.179 167.35 185.849C164.27 207.539 160.46 212.409 143.71 205.069C136.02 192.059 128.33 178.509 126.54 174.149C122.79 165.019 115.33 141.919 135.9 143.299H135.89Z" fill="#DBDBDB"/>
<path d="M178.69 215.319C188.72 221.789 210.25 223.899 225.53 223.169C240.81 222.399 242.19 219.519 247.96 223.169C253.73 226.789 252.03 225.389 250.3 228.329C248.57 231.279 248.98 228.869 241.07 230.179C233.16 231.459 239.82 237.679 239.82 237.679C239.82 237.679 195.42 245.339 180.13 242.809C164.85 240.279 168.76 239.439 163.69 236.239C158.6 233.039 168.66 208.849 178.68 215.319H178.69Z" fill="#C9A89E"/>
<path d="M167.35 185.818C173.28 200.038 175.23 205.008 178.79 215.098C182.38 225.158 180.33 249.958 162.16 234.868C161.04 233.748 152.36 219.718 143.71 205.078C143.42 204.978 160.02 195.078 167.35 185.828V185.818Z" fill="#C9A89E"/>
<path d="M64.37 315.179C63.3 289.729 63.93 265.979 60.22 255.559C53.11 235.569 36.9 187.479 37.15 177.549C37.44 167.619 43.69 146.919 87.51 137.089C131.37 127.249 154.69 154.639 155.49 172.879C155.97 184.279 160.96 265.079 164.76 325.549L64.36 315.189L64.37 315.179Z" fill="white"/>
<path d="M63.4199 269.268C63.1299 268.848 62.84 268.398 62.52 267.918C62.2299 263.718 61.4599 259.558 60.2099 255.548C53.07 235.528 36.8899 187.468 37.1399 177.538C37.4299 167.608 43.68 146.948 87.5 137.078C93.3899 135.728 99.4199 135.028 105.47 134.998C106.62 135.668 107.84 136.308 109.03 136.918C94.3599 135.348 96.7599 139.548 88.8099 145.378C80.8599 151.178 55.49 165.148 51.36 183.758C47.26 202.378 74.07 263.718 83.62 269.268C92.69 274.488 147.47 269.808 161.21 269.298L161.88 279.778C159.06 279.268 156.24 278.938 153.39 278.818C147.5 278.178 102.42 283.148 88.8 284.678C86.14 285.058 83.4799 285.288 80.79 285.418C74.61 285.388 72.59 282.438 63.3899 269.268H63.4199Z" fill="#DBDBDB"/>
<path d="M88.86 258.088C88.86 258.088 37.79 197.758 60.44 184.018C83.06 170.238 90.52 219.808 101.67 222.718C112.79 225.638 122.21 241.848 121.24 260.848L88.85 258.088H88.86Z" fill="#DBDBDB"/>
<path d="M78.4799 251.62C78.5399 251.81 65.8599 250.4 63.3599 261.9C60.8299 273.43 66.9799 351.32 66.9799 351.32L168.47 328.25C168.47 328.25 160.04 243.38 160.2 221.76C160.26 208.66 157.54 195.68 152.22 183.7C152.22 183.7 148.73 185.08 147.29 184.28C144.44 163.78 123.13 137.44 123.13 137.44C123.13 137.44 119.25 136.64 119.22 136.51C143.12 172.17 142.19 185.3 142.19 185.3C136.33 186.9 130.37 188.09 124.35 188.85C114.1 190.2 101.19 190.58 101.19 190.58C101.19 190.58 87.9899 156.52 72.2899 141.5C72.4799 141.53 69.1799 142.46 66.9999 143.52C67.0299 143.58 126.11 203.85 78.4699 251.61L78.4799 251.62Z" fill="#464C5F"/>
<path d="M63.36 261.9C65.86 250.4 78.55 251.81 78.48 251.62C88.76 241.3 94.0499 230.41 96.07 219.68C97.7399 221.06 99.63 222.08 101.64 222.72C112.79 225.64 122.18 241.85 121.25 260.85L163.6 275.2C164.37 284.49 165.2 293.69 165.94 301.73L63.8699 304.74C62.8399 285.81 62.2 267.1 63.36 261.91V261.9Z" fill="#32384B"/>
<path d="M122.34 128.788C123.24 140.898 129.9 157.048 111.22 156.918C92.57 156.788 82.96 150.158 76.72 139.968C80.08 138.588 89.89 137.538 86.14 116.168C88.38 109.118 122.34 128.788 122.34 128.788Z" fill="#E2BDB0"/>
<path d="M76.6799 139.969C80.0799 138.589 89.8799 137.569 86.1299 116.169C85.6799 115.909 85.2999 115.589 84.9399 115.239C84.7799 113.349 84.5899 112.129 84.5899 112.129C84.5899 112.129 91.3199 109.789 99.3599 115.399C107.4 121.009 109.68 131.159 117.94 135.289C103.3 133.749 87.1199 145.989 84.0399 148.619L84.0099 148.649C81.1299 146.179 78.6299 143.239 76.6699 139.969H76.6799Z" fill="#C9A89E"/>
<path d="M126.66 70.3885C137.39 84.1285 139.8 89.1985 140.28 93.0085C140.79 96.8585 139.09 99.3885 139.25 102.719C139.41 106.049 141.08 110.569 136.98 122.039C132.88 133.539 137.46 139.209 128.11 140.199C118.72 141.189 90.9799 135.009 90.6599 115.629C69.7999 104.899 82.2299 96.7885 84.3499 82.9485C86.4999 69.0785 126.67 70.3885 126.67 70.3885H126.66Z" fill="#E2BDB0"/>
<path d="M94.0799 100.879C96.4199 109.209 101.03 108.219 100.94 106.069C100.84 103.889 96.6199 95.6295 99.2699 92.0995C101.93 88.6095 107.95 77.5495 117.08 78.8995C126.24 80.2795 140.27 85.3995 139.57 78.8995C138.83 72.4295 126.24 54.9695 108.37 55.2195C90.5299 55.5095 71.2399 60.1194 68.1299 80.0194C65.0499 99.9494 86.5499 119.139 86.5499 119.139C86.6499 117.059 86.5199 114.939 86.1299 112.859C86.1299 112.829 75.6899 106.969 79.6899 98.2795C83.7299 89.5995 93.3699 95.8795 94.0699 100.869L94.0799 100.879Z" fill="#464C5F"/>
<path d="M68.1299 80.0294C70.0799 67.4694 78.4799 60.9994 88.8599 57.8594C86.1699 59.9694 83.8299 62.5094 81.9699 65.3594C77.6399 72.2194 82.6099 80.3194 86.0999 85.1594C88.0199 87.8794 87.0599 91.0494 85.3299 93.9694C83.1799 94.0594 81.0999 95.2494 79.6899 98.2894C75.6899 106.969 86.1299 112.839 86.1299 112.869C86.3899 114.369 86.5499 115.909 86.5799 117.419L85.9699 118.609C82.5399 115.339 65.3399 97.9794 68.1299 80.0394V80.0294Z" fill="#32384B"/>
<path d="M37.0199 196.739C38.0799 205.419 41.1199 215.709 44.9699 226.079C65.2799 238.289 72.8099 237.129 84.4999 219.929C82.5099 207.879 80.1399 195.259 77.8399 187.479C72.1699 168.449 61.9799 158.649 50.7399 159.289C39.4899 159.959 33.5699 167.779 37.0299 196.739H37.0199Z" fill="white"/>
<path d="M44.97 226.079C41.13 215.699 38.08 205.419 37.02 196.739C33.59 167.779 39.49 159.959 50.73 159.319C55.6 159.099 60.34 160.729 64.03 163.899C58.07 169.629 53.04 176.329 51.38 183.759C49.23 193.499 55.58 214.999 63.46 234.059C58.53 233.389 52.66 230.699 44.97 226.079Z" fill="#DBDBDB"/>
<path d="M68.64 92.0088C68.64 92.0088 115.45 48.1488 133.32 67.4688C133.32 67.6988 118.04 45.1388 88.05 55.3888C58.06 65.6388 68.64 92.0088 68.64 92.0088Z" fill="#444C61"/>
<path d="M88.0599 55.4185C89.2799 54.9985 90.46 54.6185 91.62 54.3285L92.04 54.2285C87.65 56.6585 83.9 60.1585 81.1799 64.3485C77.8499 69.5985 80.0299 75.6285 82.8099 80.3385C77.8799 83.9885 73.17 87.8985 68.65 92.0285C68.65 92.0285 58.0799 65.6585 88.0599 55.4085V55.4185Z" fill="#30384D"/>
<path d="M243.61 175.498C243.61 175.498 232.74 148.888 217 141.958C201.26 135.028 191.51 134.458 190.76 141.958C190.01 149.458 196.38 175.498 196.38 175.498H243.6H243.61Z" fill="#A7795A"/>
<mask id="mask1_2603_315" style="mask-type:luminance" maskUnits="userSpaceOnUse" x="190" y="136" width="54" height="40">
<path d="M243.61 175.498C243.61 175.498 232.74 148.888 217 141.958C201.26 135.028 191.51 134.458 190.76 141.958C190.01 149.458 196.38 175.498 196.38 175.498H243.6H243.61Z" fill="white"/>
</mask>
<g mask="url(#mask1_2603_315)">
<path d="M228.81 149.449C228.25 149.639 208.38 153.759 207.82 157.699C207.82 157.699 233.31 156.949 235.74 158.819L228.81 149.449Z" fill="#8F5F33"/>
<path d="M238.15 163.129C237.59 163.319 217.72 167.439 217.16 171.379C217.16 171.379 242.65 170.629 245.08 172.499L238.15 163.129Z" fill="#8F5F33"/>
</g>
<path d="M217.16 175.499C217.16 175.499 204.51 144.519 186.18 136.449C167.86 128.379 156.51 127.719 155.64 136.449C154.77 145.179 162.18 175.499 162.18 175.499H217.15H217.16Z" fill="#BA8B67"/>
<mask id="mask2_2603_315" style="mask-type:luminance" maskUnits="userSpaceOnUse" x="155" y="130" width="63" height="46">
<path d="M217.16 175.499C217.16 175.499 204.51 144.519 186.18 136.449C167.86 128.379 156.51 127.719 155.64 136.449C154.77 145.179 162.18 175.499 162.18 175.499H217.15H217.16Z" fill="white"/>
</mask>
<g mask="url(#mask2_2603_315)">
<path d="M199.92 145.18C199.27 145.4 176.14 150.2 175.49 154.78C175.49 154.78 205.16 153.91 207.99 156.09L199.92 145.18Z" fill="#D5A882"/>
<path d="M210.8 161.1C210.15 161.32 187.02 166.12 186.37 170.7C186.37 170.7 216.04 169.83 218.87 172.01L210.8 161.1Z" fill="#D5A882"/>
</g>
<path d="M148.91 170.209L157.03 176.989L168.26 171.659L178.77 280.599H141.33L148.91 170.209Z" fill="#A7795A"/>
<path d="M247.73 174.158L168.26 171.658L178.77 280.598H262.72L247.73 174.158Z" fill="#AF8162"/>
<path d="M67.7799 268.659C65.1199 276.089 71.91 284.519 79.41 285.189C86.94 285.859 147.42 278.399 156.07 278.999C164.72 279.639 163.41 280.919 172.18 286.429C180.96 291.969 192.36 285.849 192.36 285.849C192.36 285.849 206.23 287.669 206.65 281.039C203.06 279.659 199.28 278.859 195.44 278.599C190.47 278.599 182.3 263.449 182.3 263.449C184.77 263.509 187.17 263.829 189.54 264.409C193.1 265.339 205.08 261.909 196.08 259.289C187.08 256.659 178.91 251.149 171.48 254.739C164.02 258.329 148.73 260.829 138.67 260.919C128.61 261.009 97.69 255.759 88.66 254.739C79.63 253.709 70.3999 261.209 67.7699 268.639L67.7799 268.659Z" fill="#E2BDB0"/>
<path d="M193.84 285.029C179.33 282.339 171.73 269.619 162.19 269.619C152.65 269.619 92.61 275.129 82.58 270.739C72.55 266.319 64.83 266.669 67.3 274.619C69.77 282.599 74.7 286.439 88.19 285.259C101.71 284.039 146.72 278.879 152.62 279.489C158.48 280.099 160.89 279.359 166.04 282.209C171.2 285.059 173.15 290.729 185.29 288.229C197.43 285.729 193.84 285.029 193.84 285.029Z" fill="#C9A89E"/>
<path d="M45.29 226.8C51.92 244.07 59.77 260.89 68.74 277.07C70.73 280.43 79.6 287.39 87.03 281.84C94.46 276.3 89.88 255.12 89.88 255.12C89.88 255.12 87.77 238.39 84.82 220.65C68.32 217.57 54.19 222.73 45.29 226.8Z" fill="#E2BDB0"/>
<path d="M69.25 277.839C68.9 277.229 68.48 276.559 68.03 275.819C59.35 260.019 51.76 243.619 45.28 226.799C49.64 224.779 54.15 223.119 58.8 221.869C58.86 221.999 58.9 222.159 58.96 222.319C66.87 244.419 68.03 270.249 89.43 272.169C90.01 272.239 90.55 272.299 91.06 272.359C90.68 276.329 89.52 279.979 87.02 281.839C85.26 283.189 83.08 283.919 80.87 283.919C75.84 283.919 71.16 280.329 69.24 277.829L69.25 277.839Z" fill="#C9A89E"/>
<path d="M240.48 300.358H214.14L212.86 249.488H241.75L240.48 300.358Z" fill="#CED3DF"/>
<path d="M241.4 282.407H212.97L212.42 265.877H241.95L241.4 282.407Z" fill="#444C61"/>
<path d="M212.91 250.228L212.86 251.818H241.7L241.74 250.018L212.91 250.228Z" fill="#BA8B67"/>
<path d="M212.02 246.088H242.42L243.01 250.968H211.43L212.02 246.088Z" fill="#D5A882"/>
<path d="M275.61 300.358H249.27L248 249.488H276.89L275.61 300.358Z" fill="#CED3DF"/>
<path d="M276.53 282.407H248.1L247.55 265.877H277.08L276.53 282.407Z" fill="#444C61"/>
<path d="M248.04 250.228L248 251.818H276.83L276.87 250.018L248.04 250.228Z" fill="#BA8B67"/>
<path d="M247.15 246.088H277.55L278.14 250.968H246.56L247.15 246.088Z" fill="#D5A882"/>
<path d="M631.51 300.979H-34.11V472.029H631.51V300.979Z" fill="#CDD3E0"/>
<path d="M446.34 372.708C446.77 368.578 224.84 321.289 128.6 300.979H500.32L486.88 372.708C476.87 373.988 466.77 374.788 456.63 375.048C450.63 375.048 446.15 374.468 446.34 372.708Z" fill="#AFB5C1"/>
</g>
<path d="M402.64 300.96L398.49 353.01C398.49 353.01 431.58 351.45 443.8 350.05C449.79 349.36 459.91 348.63 467.48 347.59C475.06 346.55 480.73 345.38 484.33 344.69C509.32 339.89 522.47 333.86 522.47 333.86C522.47 333.86 526.34 300.57 522.47 290.92L402.64 300.97V300.96Z" fill="#444C61"/>
<path d="M453.71 349.069C453.54 343.809 452.02 337.329 447.12 330.939L465.49 343.029C465.49 343.029 465.29 345.139 465.12 347.899" fill="#30384D"/>
<path d="M402.15 297.82L402.23 305.07C402.23 305.07 423.81 311.38 454.1 308.95C470.26 307.66 489.72 313.4 507.1 306.73C513.2 304.39 517.45 306.6 523.43 304.71V290.09L402.14 297.84L402.15 297.82Z" fill="#30384D"/>
<path d="M379.23 150.709C372.77 159.969 364.87 168.129 355.83 174.849C338.4 187.509 331.45 212.239 317.32 225.819C303.18 239.369 319.05 249.839 324.73 244.799C330.41 239.739 359.49 221.579 364.86 211.709C370.23 201.839 375.38 192.959 379.45 189.589C381.37 188.029 391.19 178.469 401.98 167.619C408 161.299 398.52 140.769 379.24 150.709H379.23Z" fill="#D5A882"/>
<path d="M327.33 229.889C344.47 222.749 378.95 173.419 395.06 149.279C403.11 152.889 405.98 163.399 401.97 167.619C391.18 178.459 381.37 188.029 379.45 189.589C375.38 192.939 370.23 201.839 364.86 211.709C360.84 219.099 343.49 231.169 332.66 238.869C323.76 238.359 311.36 236.509 327.34 229.889H327.33Z" fill="#BA8B67"/>
<path d="M399.16 170.379C393.24 165.109 389.07 156.359 379.22 150.889C380.08 140.709 406.83 90.7895 448.46 97.2295C490.09 103.649 399.51 170.379 399.16 170.379Z" fill="#4573D2"/>
<path d="M399.19 170.428C395.6 167.228 392.65 162.728 388.68 158.488C392.37 152.148 401.29 135.468 408.49 133.988C413.75 132.888 426.71 137.188 435.28 140.408C423.87 151.148 411.81 161.148 399.18 170.428H399.19Z" fill="#4369B6"/>
<path d="M399.87 298.308C399.87 298.308 398.13 185.628 398.55 163.828C398.98 142.038 401.38 94.7783 455.56 93.4183C509.74 92.0383 536.34 116.438 531.67 185.288C529.47 217.258 523.48 262.698 526.72 300.088C526.72 300.088 508.53 298.468 500.78 302.328C486.45 309.458 472.4 301.368 444.42 303.178C418.34 304.868 399.87 298.298 399.87 298.298V298.308Z" fill="#4573D2"/>
<path d="M401.56 223.119C401.56 223.119 384.18 205.779 381.19 202.579C378.36 199.379 374.5 197.289 370.28 196.619C365.2 195.549 355.57 194.319 351.65 193.939C347.72 193.529 345.86 196.169 348.68 199.109C351.51 202.029 374.22 226.019 374.22 226.019L401.55 223.129L401.56 223.119Z" fill="#444C61"/>
<path d="M370.71 222.169L349.78 200.249C349.78 200.249 347.09 196.949 351.2 197.509C355.32 198.049 366.31 199.609 368.95 200.099C371.59 200.559 375.66 201.659 378.07 204.219C380.48 206.779 394.79 221.479 394.79 221.479L370.71 222.169Z" fill="#30384D"/>
<path d="M347.51 256.189C341.32 259.619 321.77 263.349 320.41 263.349C319.05 263.349 296.38 247.799 298.81 237.979C301.23 228.159 309.48 220.919 314.06 219.689C318.64 218.489 331.31 221.269 330.42 230.069C329.53 238.839 324.92 240.019 324.92 240.019C324.92 240.019 334.86 238.789 335.56 242.649C336.25 246.509 343.73 249.379 345.18 249.579C346.63 249.779 353.71 252.729 347.52 256.179L347.51 256.189Z" fill="#BA8B67"/>
<path d="M374.57 267.26L344.46 259.97L298.63 226.77L332.79 231.4L374.57 267.26Z" fill="white"/>
<path d="M347.51 256.188C341.32 259.618 321.77 263.348 320.41 263.348C319.05 263.348 296.38 247.768 298.81 237.978C301.23 228.158 308.58 239.048 308.58 239.048C308.58 239.048 334.86 238.798 335.55 242.658C336.24 246.518 343.72 249.388 345.17 249.588C346.62 249.788 353.7 252.738 347.51 256.188Z" fill="#D5A882"/>
<path d="M304.65 250.79C304.02 249.67 303.46 248.51 302.96 247.34C314.32 249.05 325.92 248.31 336.97 245.17C339.3 247.29 342.12 248.8 345.17 249.59C346.45 249.77 352.18 252.12 349.11 255.06L344.66 257.47C336.76 260.49 321.6 263.35 320.4 263.35C319.56 263.35 310.8 257.55 304.64 250.79H304.65Z" fill="#BA8B67"/>
<path d="M427.22 108.1C429.32 116.41 429.77 131.56 439.96 129.94C450.15 128.36 468.32 117.28 471.48 106.03C474.65 94.7998 468.08 95.5198 465.54 90.5298C463 85.5698 461.91 70.0898 461.91 70.0898L427.22 108.09V108.1Z" fill="#D5A882"/>
<path d="M469.81 109.948C469.81 109.948 450.78 99.4382 454.86 89.1582C458.94 78.8482 458.13 74.9082 458.13 74.9082L462.47 76.0082C463.03 80.9182 464.03 87.5982 465.54 90.5382C468.08 95.5282 474.64 94.8082 471.48 106.058C471.08 107.418 470.52 108.718 469.8 109.948H469.81Z" fill="#BA8B67"/>
<path d="M426.54 22.5786C410.6 26.8987 404.29 40.0986 402.97 58.6186C401.65 77.1386 407.76 73.7886 407.72 80.9186C407.68 88.0586 412.87 90.4387 417.63 101.869C422.38 113.299 430.45 116.929 443.26 108.619C456.08 100.329 459.24 77.0087 459.24 77.0087C460.88 76.6487 462.42 75.9386 463.73 74.8886C465.04 73.8386 466.09 72.5087 466.79 70.9787C468.95 65.8587 472 56.7887 468.2 53.7387C464.4 50.6987 457.79 54.7086 457.79 54.7086C457.79 54.7086 463.36 32.6887 455.54 24.6586C447.72 16.6287 426.52 22.5887 426.52 22.5887L426.54 22.5786Z" fill="#D5A882"/>
<path d="M455.86 66.7991C452.11 66.7491 448.8 58.9991 447.57 54.1891C446.34 49.3791 447.73 40.0691 437.16 43.2891C426.59 46.5091 403.71 65.6191 402.37 47.8691C401.03 30.1191 414.18 20.1491 428.35 17.2291C442.53 14.3391 459.36 21.1191 464.66 31.7791C469.95 42.4391 469.76 56.3091 469.76 56.3091C469.76 56.3091 466.7 49.0191 457.92 54.6991C453.8 57.2291 455.86 66.7991 455.86 66.7991Z" fill="#444C61"/>
<path d="M455.86 66.7991C452.11 66.7491 448.8 58.9991 447.57 54.1891C446.34 49.3791 447.73 40.0691 437.16 43.2891C426.59 46.5091 403.71 65.6191 402.37 47.8691C401.03 30.1191 414.18 20.1491 428.35 17.2291C442.53 14.3391 459.36 21.1191 464.66 31.7791C469.95 42.4391 469.76 56.3091 469.76 56.3091C469.76 56.3091 466.7 49.0191 457.92 54.6991C453.8 57.2291 455.86 66.7991 455.86 66.7991Z" fill="#444C61"/>
<path d="M411.41 90.6097C415.53 96.9297 418.98 102.53 422.12 102.53C425.26 102.53 431.71 101.46 434.36 99.9997C437.02 98.5397 455.32 83.4497 453.2 71.8897C451.08 60.3297 452.11 62.7297 453.86 62.6597C455.61 62.5797 455.86 66.2397 456.53 68.4897C457.2 70.7397 458.86 75.5497 458.86 77.2097C458.86 78.8697 457.83 100.51 447.26 107.77C436.7 115.03 428.22 117.82 423.86 114.04C419.5 110.28 414.5 98.2597 411.4 90.6097H411.41Z" fill="#444C61"/>
<path d="M417.38 102.759C418.18 97.9986 418.22 97.3386 420.4 96.4686C423.5 95.5486 426.75 95.1886 429.98 95.3686C432.1 95.6486 439.59 102.759 439.59 102.759L444.42 98.3086C444.42 98.3086 435.37 92.7286 432.19 92.4286C429.01 92.1186 422.8 93.3786 419.71 94.4486C416.62 95.5186 415.54 100.359 415.54 100.359L417.38 102.759Z" fill="#444C61"/>
<path d="M459.41 53.8281C459.35 41.4781 457.11 22.6981 432.54 16.6681C445.69 15.6681 459.89 22.1381 464.67 31.7881C469.96 42.4281 469.77 56.3181 469.77 56.3181C469.77 56.3181 467.06 49.8481 459.41 53.8381V53.8281Z" fill="#30384D"/>
<path d="M492.28 189.939C494.08 206.359 494.18 256.739 508.57 256.539C522.97 256.339 526.39 237.229 527.5 230.199C528.19 225.829 530.43 204.289 531.47 184.699C532.31 169.429 490.82 172.759 492.28 189.939Z" fill="#D5A882"/>
<path d="M498.82 244.649C505.46 244.039 510.24 242.299 511.97 238.769C515.8 230.869 519.7 209.609 520.85 187.999C524.47 187.159 528.02 186.059 531.48 184.699C530.44 204.319 528.2 225.829 527.51 230.199C526.39 237.229 522.98 256.339 508.58 256.539H508.49C504.07 256.539 501 251.759 498.83 244.649H498.82Z" fill="#BA8B67"/>
<path d="M531.48 184.699C531.48 184.699 512.24 192.879 492.21 190.099C492.15 190.329 477.09 121.789 506.41 115.029C535.73 108.299 531.48 184.699 531.48 184.699Z" fill="#4573D2"/>
<path d="M511.97 133.83C495.61 114.61 475.61 113.27 469.81 109.94C470.76 108.65 471.08 107.12 472.33 102.75C473.51 98.6096 468.13 93.5996 468.13 93.5996C468.13 93.5996 484.2 95.6596 486 96.1296C488.32 96.7396 497.2 99.9296 498.74 100.52C509.38 104.55 518.61 116.64 522.31 122.47C523.98 125.51 525.41 128.69 526.57 131.96C533.26 152.7 531.47 184.7 531.47 184.7C528.01 186.08 524.46 187.21 520.84 188.08C522.05 165.29 520.2 142.09 511.96 133.83H511.97Z" fill="#4369B6"/>
<path d="M502.29 223.35C474.73 222.45 461.75 228.98 439.35 221.89C416.95 214.83 413.99 204.86 401.13 204.04C393.26 203.55 389.07 206.29 387.02 208.54C387 208.54 391.78 213.35 391.78 213.35C393.34 212.97 394.82 212.35 396.17 211.48C396.17 211.48 400.1 212.83 401.6 212.76C403.1 212.66 402.48 216.75 393 216.34C383.52 215.96 380.48 215.04 375.08 212.76C369.68 210.46 369.79 215.88 369.79 215.88C368.02 215.01 366.04 214.7 364.09 215.01C361.16 215.57 363.56 222.91 368.96 227.21C374.37 231.51 376.31 230.69 392.01 240.26C407.72 249.82 418.16 240.39 431.49 245.5C444.82 250.62 484.95 257.11 506.11 257.08C527.27 257.03 529.84 224.27 502.28 223.35H502.29Z" fill="#D5A882"/>
<path d="M431.49 245.5C431.35 245.45 431.21 245.4 431.07 245.35L430.77 245.25C427.98 244.3 425.06 243.84 422.12 243.87H422.07C420.4 243.87 418.75 244 417.09 244.15C416.43 244.2 415.77 244.25 415.1 244.33L414.56 244.38L413.94 244.43C412.01 244.61 410.05 244.76 408.05 244.76H407.84C402.65 244.81 397.54 243.46 393.04 240.87C392.76 240.69 392.47 240.54 392.18 240.36L392.01 240.26C389.62 238.8 387.55 237.6 385.74 236.55C394.41 237.8 403.2 237.78 411.86 236.47C419.65 235.32 435.55 237.93 452.46 240.54C478.61 244.58 507.18 248.62 511.97 238.78C513.56 235.12 514.78 231.31 515.6 227.42C528 236.4 522.91 257.04 506.12 257.09H505.91C484.7 257.09 444.79 250.62 431.5 245.51L431.49 245.5Z" fill="#BA8B67"/>
</g>
<defs>
<clipPath id="clip0_2603_315">
<rect width="579.9" height="356.22" fill="white"/>
</clipPath>
</defs>
</svg>
