<svg width="160" height="154" viewBox="0 0 160 154" fill="none" xmlns="http://www.w3.org/2000/svg">
<g clip-path="url(#clip0_9_51248)">
<mask id="mask0_9_51248" style="mask-type:alpha" maskUnits="userSpaceOnUse" x="0" y="0" width="160" height="154">
<path d="M76.7534 149.51C59.6256 154.655 42.2525 156.401 30.5298 147.211C21.7134 140.301 35.2029 118.149 29.9287 108.271C22.7846 94.8947 -1.4365 92.804 0.0670156 76.5748C3.03901 44.4761 24.5224 18.5484 52.996 8.35738C63.6839 4.53271 106.71 -16.0974 96.5893 26.4401C89.7435 55.21 121.957 32.8748 133.631 57.8644C139.458 70.3396 161.3 76.6793 159.939 91.3798C155.85 135.528 119.214 136.754 76.7534 149.51Z" fill="#F6F6F6"/>
</mask>
<g mask="url(#mask0_9_51248)">
<path d="M76.7534 149.51C59.6256 154.655 42.2525 156.401 30.5298 147.211C21.7134 140.301 35.2029 118.149 29.9287 108.271C22.7846 94.8947 -1.4365 92.804 0.0670156 76.5748C3.03901 44.4761 24.5224 18.5484 52.996 8.35738C63.6839 4.53271 106.71 -16.0974 96.5893 26.4401C89.7435 55.21 121.957 32.8748 133.631 57.8644C139.458 70.3396 161.3 76.6793 159.939 91.3798C155.85 135.528 119.214 136.754 76.7534 149.51Z" fill="#BEBEBE" fill-opacity="0.14"/>
<path d="M143.5 108.783L168.682 111.862L162.511 134.885L143.048 128.951L132.355 126.009" fill="#EABBAE"/>
<path d="M176.64 147.682L144.196 137.31L145.835 104.66L187.459 113.84L176.64 147.682Z" fill="#444C61"/>
</g>
<path d="M10.5703 31.7662C10.5703 31.7662 15.7092 106.357 41.9102 130.12L116.106 114.694C116.106 114.694 84.9654 59.2958 86.6254 22.1836L10.5703 31.7662Z" fill="#393939" fill-opacity="0.18"/>
<path d="M11.5703 29.7662C11.5703 29.7662 16.7092 104.357 42.9102 128.12L117.106 112.694C117.106 112.694 85.9654 57.2958 87.6254 20.1836L11.5703 29.7662Z" fill="white"/>
<path d="M132.356 126.011C127.779 126.926 115.009 122.992 114.551 121.848C114.092 120.704 106.426 114.525 106.426 114.525L97.9476 89.9701C97.9476 89.9701 82.0507 96.5965 79.7623 97.1695C77.474 97.7426 74.9956 95.4783 74.8369 94.409C74.6922 93.4355 82.8025 88.159 83.8213 87.5355C85.8024 86.2499 90.3564 82.8138 96.6999 77.6794C97.6525 76.9081 115.123 76.4205 115.123 76.4205C115.123 76.4205 120.386 75.9628 124.048 77.107C127.709 78.2512 129.426 82.8279 130.227 86.0323C131.028 89.2367 132.63 91.868 135.032 96.4457C137.435 101.023 143.042 109.032 143.5 108.785" fill="#EABBAE"/>
<path opacity="0.53" d="M76.1074 96.1114C76.1074 96.1114 76.8788 90.3872 83.5283 90.3872C90.5486 90.3872 94.4739 87.3188 96.8204 85.9966C100.731 83.7924 106.848 83.4443 108.138 84.331C112.302 87.1915 123.048 90.9362 123.935 98.9124C124.986 108.375 126.328 122.039 130.012 124.266L132.356 126.01C132.356 126.01 125.124 127.076 114.55 121.848C110.404 119.797 106.426 114.524 106.426 114.524L97.9473 89.9694L87.0084 94.2842C87.0084 94.2842 79.0222 99.4607 76.1074 96.1114Z" fill="#D1A79C"/>
<path d="M109.779 111.01C107.376 111.811 102.952 111.733 102.952 111.733C102.823 112.141 99.5833 114.502 96.8816 111.9C96.3818 111.418 98.7939 104.602 98.7939 104.602C98.7939 104.602 97.7703 109.029 95.5899 112.039C93.1871 115.358 89.8779 113.001 89.8779 113.001C89.8779 113.001 89.7446 111.4 90.1447 107.431L90.3449 104.764L89.211 106.131C85.5422 111.434 81.401 109.409 80.486 108.606C79.5709 107.802 82.2022 103.228 84.605 97.7355C87.0078 92.2431 101.3 86.4543 101.3 86.4543L103.815 86.247C105.813 86.0822 107.815 86.517 109.564 87.4957C113.83 89.8817 118.044 94.2104 118.044 94.2104L108.999 99.9885L109.779 111.01Z" fill="#D1A79C"/>
<path fill-rule="evenodd" clip-rule="evenodd" d="M46.5351 98.3533C47.2128 97.9288 47.9971 97.7077 48.8047 97.9112L48.7032 98.314C48.0365 98.146 47.3685 98.3214 46.7557 98.7053C46.1419 99.0899 45.598 99.6757 45.1975 100.295C43.9295 102.272 43.4377 104.648 43.8168 106.966C43.9289 107.633 44.1656 108.326 44.5333 108.878C44.9002 109.43 45.3878 109.827 46.0035 109.942C46.9998 110.128 47.9876 109.508 48.85 108.79C50.0062 107.827 51.0578 106.75 51.9902 105.579C51.9578 105.441 51.9339 105.303 51.9184 105.169L51.9182 105.167L51.9182 105.167C51.8071 104.125 51.9396 103.07 52.3054 102.087C52.6711 101.105 53.2601 100.22 54.0259 99.5038L54.0271 99.5026C54.1224 99.4149 54.2502 99.3177 54.3927 99.2613C54.5371 99.2042 54.7253 99.1794 54.9007 99.2902L54.9073 99.2944L54.9136 99.299C55.0263 99.3827 55.1105 99.499 55.1548 99.6321C55.4794 100.457 55.1073 101.354 54.7547 102.047L54.7546 102.048C54.1006 103.33 53.3267 104.544 52.4452 105.673C52.5221 105.927 52.6314 106.172 52.7712 106.377C53.0098 106.729 53.3197 106.945 53.6951 106.949L53.6951 106.949C54.1106 106.954 54.5008 106.686 54.8716 106.35C55.7179 105.582 56.4038 104.654 56.8897 103.619L57.0196 103.343L57.229 103.565C57.8351 104.21 58.4332 104.832 59.1981 105.137C59.9616 105.442 60.9041 105.32 61.3519 104.719L61.6849 104.967C61.084 105.773 59.91 105.868 59.0442 105.523C58.2782 105.217 57.6741 104.637 57.1323 104.068C56.634 105.043 55.9629 105.921 55.1508 106.658L55.1506 106.658C54.7761 106.997 54.2798 107.371 53.6905 107.365C53.1345 107.358 52.7136 107.032 52.4277 106.611C52.3124 106.441 52.2162 106.253 52.1389 106.056C51.2332 107.165 50.2214 108.188 49.1158 109.109L49.1157 109.109C48.2574 109.823 47.1314 110.575 45.9273 110.351L45.9273 110.351C45.1697 110.209 44.5962 109.722 44.1875 109.109C43.7797 108.496 43.5263 107.744 43.4071 107.034L43.407 107.033C43.0112 104.614 43.5245 102.134 44.8481 100.07L44.8486 100.069C45.2742 99.4116 45.8586 98.7772 46.5351 98.3533ZM52.3329 105.137C53.1094 104.109 53.7964 103.012 54.3846 101.859C54.744 101.152 55.0186 100.413 54.7664 99.7794L54.7637 99.7728L54.7616 99.766C54.7454 99.7155 54.7146 99.671 54.6733 99.6381C54.6504 99.626 54.6138 99.6205 54.5455 99.6475C54.4698 99.6775 54.3856 99.7373 54.309 99.8077C53.5905 100.48 53.0379 101.31 52.6947 102.232C52.3515 103.155 52.227 104.144 52.3312 105.122C52.3317 105.127 52.3323 105.132 52.3329 105.137Z" fill="#4573D2"/>
<path d="M134.341 84.5341L133.072 84.9277L133.857 87.4587L135.126 87.065L134.341 84.5341Z" fill="#4369B6"/>
<path d="M61.4161 104.402L62.9187 103.684L63.2639 104.797L61.6045 105.028C61.5264 105.038 61.447 105.021 61.3806 104.978C61.3142 104.936 61.2653 104.871 61.2425 104.795C61.2198 104.72 61.2248 104.639 61.2566 104.567C61.2885 104.494 61.345 104.436 61.4161 104.402Z" fill="#30384D"/>
<path d="M137.655 79.6113L140.237 78.8106C140.397 78.7608 140.57 78.7768 140.719 78.855C140.867 78.9332 140.979 79.0672 141.029 79.2275L141.313 80.1444C141.363 80.3047 141.347 80.4782 141.269 80.6267C141.19 80.7752 141.056 80.8866 140.896 80.9363L138.315 81.7371L137.655 79.6113Z" fill="#4573D2"/>
<path d="M66.2256 100.304L136.627 78.2213C136.781 78.1734 136.944 78.1564 137.105 78.1712C137.266 78.186 137.422 78.2324 137.565 78.3077C137.708 78.383 137.835 78.4857 137.938 78.6101C138.042 78.7344 138.12 78.8778 138.167 79.0322L139.104 82.0534C139.152 82.2078 139.169 82.3701 139.154 82.5311C139.14 82.692 139.093 82.8485 139.018 82.9916C138.943 83.1346 138.84 83.2614 138.716 83.3648C138.591 83.4681 138.448 83.546 138.293 83.5939L67.8921 105.675L66.9789 102.732L66.2256 100.304Z" fill="#8A90A7"/>
<path d="M62.5578 103.573L66.226 100.303L67.8924 105.674L63.0174 105.055C62.8551 105.034 62.7022 104.967 62.5769 104.862C62.4516 104.757 62.3592 104.618 62.3107 104.462C62.2623 104.305 62.2598 104.138 62.3036 103.981C62.3474 103.823 62.4357 103.682 62.5578 103.573Z" fill="#8A90A7"/>
<path d="M138.55 80.2949L139.097 82.0523C139.145 82.2067 139.162 82.3691 139.147 82.53C139.132 82.691 139.086 82.8475 139.01 82.9905C138.935 83.1336 138.832 83.2604 138.708 83.3637C138.584 83.4671 138.44 83.5449 138.286 83.5928L67.8835 105.675L62.8504 105.036C62.8504 105.036 62.2503 104.675 62.3236 104.282L66.9704 102.732C66.9704 102.732 138.555 80.3116 138.55 80.2949Z" fill="#7B8093"/>
<path d="M86.3283 93.5563L67.1728 99.4987C66.6907 99.6483 66.4211 100.16 66.5706 100.643L68.0324 105.355C68.182 105.837 68.6941 106.106 69.1762 105.957L88.3318 100.014C88.8139 99.8647 89.0835 99.3526 88.934 98.8704L87.4722 94.1584C87.3226 93.6763 86.8105 93.4067 86.3283 93.5563Z" fill="#4573D2"/>
<path d="M135.619 85.7474L116.392 91.712C116.067 91.8128 115.885 92.158 115.986 92.483L115.986 92.4833C116.087 92.8083 116.432 92.99 116.757 92.8892L135.984 86.9247C136.309 86.8238 136.491 86.4786 136.39 86.1537L136.39 86.1533C136.289 85.8283 135.944 85.6466 135.619 85.7474Z" fill="#4573D2"/>
<path d="M67.1914 102.643L88.093 96.1585L88.9378 98.8819C89.0087 99.1103 88.9859 99.3574 88.8745 99.569C88.7631 99.7806 88.5723 99.9392 88.3439 100.01L69.1644 105.96C68.9361 106.031 68.6889 106.008 68.4773 105.897C68.2658 105.785 68.1071 105.594 68.0363 105.366L67.1914 102.643Z" fill="#4369B6"/>
<path d="M114.151 93.8828C114.151 93.8828 108.324 95.9166 98.6379 94.3311C92.0276 93.2493 86.7656 91.9206 86.7656 91.9206C81.098 89.3173 71.5836 94.8962 80.2984 99.3861C83.7599 101.15 87.4742 102.366 91.3086 102.99C91.3086 102.99 97.3237 103.482 101.095 108.015C104.867 112.548 110.089 121.639 119.276 124.927C128.464 128.215 135.33 123.573 137.264 117.093C139.198 110.614 139.029 103.222 129.14 97.5583C121.112 92.96 114.151 93.8828 114.151 93.8828Z" fill="#EABBAE"/>
<path fill-rule="evenodd" clip-rule="evenodd" d="M78.6195 105.569C78.6417 105.672 78.5762 105.773 78.4732 105.795L44.979 113.017C44.8761 113.039 44.7746 112.974 44.7524 112.871C44.7302 112.768 44.7957 112.666 44.8986 112.644L78.3928 105.422C78.4958 105.4 78.5973 105.466 78.6195 105.569Z" fill="#444C61"/>
<path fill-rule="evenodd" clip-rule="evenodd" d="M57.8548 89.0441C57.8733 89.1478 57.8041 89.2468 57.7004 89.2653L35.8834 93.1472C35.7797 93.1656 35.6806 93.0965 35.6622 92.9928C35.6437 92.8891 35.7128 92.79 35.8165 92.7716L57.6336 88.8897C57.7373 88.8712 57.8363 88.9404 57.8548 89.0441Z" fill="#444C61"/>
<path fill-rule="evenodd" clip-rule="evenodd" d="M80.3297 74.9568C80.3489 75.0604 80.2804 75.1599 80.1768 75.1791L33.331 83.8557C33.2274 83.8749 33.1279 83.8064 33.1087 83.7029C33.0895 83.5993 33.1579 83.4997 33.2615 83.4806L80.1074 74.804C80.211 74.7848 80.3105 74.8532 80.3297 74.9568Z" fill="#444C61"/>
<path fill-rule="evenodd" clip-rule="evenodd" d="M82.8031 65.9453C82.8211 66.0491 82.7516 66.1478 82.6478 66.1658L30.8552 75.1503C30.7514 75.1683 30.6527 75.0987 30.6347 74.9949C30.6167 74.8911 30.6862 74.7924 30.79 74.7744L82.5826 65.7899C82.6864 65.7719 82.7851 65.8415 82.8031 65.9453Z" fill="#444C61"/>
<path fill-rule="evenodd" clip-rule="evenodd" d="M80.6004 57.3196C80.6177 57.4236 80.5475 57.5218 80.4435 57.5391L28.5903 66.1662C28.4863 66.1834 28.3881 66.1132 28.3708 66.0093C28.3535 65.9054 28.4237 65.8071 28.5276 65.7898L80.3809 57.1628C80.4848 57.1455 80.5831 57.2157 80.6004 57.3196Z" fill="#444C61"/>
<path fill-rule="evenodd" clip-rule="evenodd" d="M78.8548 49.2123C78.8709 49.3164 78.7996 49.4139 78.6955 49.4301L26.7503 57.4837C26.6462 57.4999 26.5487 57.4286 26.5326 57.3245C26.5164 57.2204 26.5877 57.1229 26.6918 57.1067L78.637 49.0531C78.7411 49.0369 78.8386 49.1082 78.8548 49.2123Z" fill="#444C61"/>
<path fill-rule="evenodd" clip-rule="evenodd" d="M48.0518 44.2751C48.0656 44.3795 47.9921 44.4754 47.8877 44.4892L25.9199 47.4002C25.8155 47.414 25.7196 47.3406 25.7058 47.2361C25.6919 47.1317 25.7654 47.0358 25.8698 47.022L47.8376 44.111C47.942 44.0972 48.0379 44.1707 48.0518 44.2751Z" fill="#444C61"/>
<path fill-rule="evenodd" clip-rule="evenodd" d="M47.0225 37.8767C47.0363 37.9811 46.9629 38.077 46.8584 38.0908L24.8906 41.0017C24.7862 41.0156 24.6903 40.9421 24.6765 40.8377C24.6626 40.7333 24.7361 40.6374 24.8405 40.6235L46.8083 37.7126C46.9127 37.6988 47.0086 37.7722 47.0225 37.8767Z" fill="#444C61"/>
</g>
<defs>
<clipPath id="clip0_9_51248">
<rect width="160" height="153.737" fill="white"/>
</clipPath>
</defs>
</svg>
