<svg width="254" height="282" viewBox="0 0 254 282" fill="none" xmlns="http://www.w3.org/2000/svg">
<g clip-path="url(#clip0_9_51033)">
<path d="M236.557 85.0256L243.604 72.668C243.604 72.668 246.603 70.3845 244.751 76.7503C243.942 79.5345 243.239 81.8481 244.421 81.5278C246.008 81.0978 252.573 79.5068 253.647 82.4167C254.72 85.3266 252.871 92.5603 248.433 92.8274C243.702 93.1142 237.554 94.1151 236.471 89.7647C236.019 88.2128 236.048 86.5602 236.557 85.0256Z" fill="#EABBAE"/>
<path d="M211.81 119.911C203.834 130.321 198.363 153.045 203.834 161.615C223.213 191.971 192.196 213.307 180.133 218.813C148.685 233.169 121.199 226.384 83.9262 210.081C21.8031 182.91 -0.954834 115.721 27.3523 81.5004C78.5749 19.5767 107.832 52.9508 142.891 18.6098C184.635 -22.277 272.277 40.9837 211.81 119.911Z" fill="#BEBEBE" fill-opacity="0.14"/>
<path d="M128.854 37.4166C131.997 36.8752 146.369 40.9704 153.153 49.4279C160.85 59.025 181.145 112.481 169.605 112.941C158.065 113.402 154.144 97.5037 150.453 88.2869C146.762 79.07 136.146 57.1805 136.146 57.1805C136.146 57.1805 126.283 37.8596 128.854 37.4166Z" fill="#CED3DF"/>
<path d="M106.726 40.3789C106.726 40.3789 100.266 42.3122 95.7038 45.1882C91.3407 47.9391 84.8901 54.6093 81.1174 70.2439C77.5396 85.0678 71.8868 107.571 72.8099 110.106C73.7329 112.641 81.8098 121.857 87.5788 109.415C93.3477 96.9722 98.6555 79.2299 98.6555 77.1563C98.6555 75.0826 106.726 40.3789 106.726 40.3789Z" fill="#CED3DF"/>
<path d="M100.616 66.8137C100.616 66.8137 102.609 63.575 99.5604 68.016C96.0603 73.1138 91.3509 81.1815 90.6041 87.6401C88.8537 102.79 77.6597 103.968 78.5828 106.503C79.5059 109.037 81.8098 121.855 87.5788 109.413C93.3477 96.9701 98.6555 79.2278 98.6555 77.1542C98.6555 75.0805 100.616 66.8137 100.616 66.8137Z" fill="#B0B5C0"/>
<path d="M107.011 39.9568C107.844 39.3508 122.582 32.2303 136.411 40.3693C136.411 40.3693 144.287 45.3992 149.142 52.8937C149.485 53.4233 145.618 126.617 145.618 126.617C145.618 126.617 100.124 126.923 100.124 126.311C100.124 125.699 96.6011 53.8115 96.6011 53.8115C96.6011 53.8115 98.4024 46.2224 107.011 39.9568Z" fill="#CED3DF"/>
<path d="M19.9827 115.183C19.9827 115.183 15.8967 114.84 11.0797 107.348C7.02028 101.035 1.17992 96.5816 0.0432362 99.3817C-0.746094 101.326 9.53163 121.504 9.69426 121.864C9.82515 122.156 8.36435 122.826 8.48788 123.102C9.73959 125.867 12.4442 131.211 12.4442 131.211C12.4442 131.211 13.5859 132.9 24.3918 127.032L19.9827 115.183Z" fill="#30384D"/>
<path d="M26.5928 54.2517C26.5928 54.2517 23.8208 51.2354 25.3626 42.4661C26.6614 35.0785 25.3859 27.851 22.6524 29.1405C20.7524 30.0362 14.6174 51.829 14.4928 52.2041C14.3919 52.5068 12.8608 52.0128 12.7662 52.2974C11.8103 55.1779 10.1721 60.9383 10.1721 60.9383C10.1721 60.9383 9.86557 62.9525 21.7945 65.9495L26.5928 54.2517Z" fill="#30384D"/>
<path d="M101.871 251.955C101.871 251.955 100.429 258.435 99.2269 260.838C98.0251 263.24 92.6539 271.431 91.8816 272.924C91.1835 274.272 90.0683 279.224 93.0834 281.084C94.9414 282.23 99.3731 282.751 103.768 279.206C105.329 277.927 106.545 276.278 107.305 274.41C107.974 272.8 109.113 270.483 110.45 269.519C112.595 267.972 114.383 267.556 114.383 264.343C114.383 261.13 114.561 250.064 114.561 250.064L101.871 251.955Z" fill="#30384D"/>
<path d="M133.886 252.105C133.563 252.75 132.007 263.203 132.203 266.297C132.373 268.997 133.805 270.993 138.97 271.801C138.97 271.801 140.907 272.446 142.682 275.026C144.37 277.479 151.465 281.827 158.679 279.194C159.189 279.013 159.641 278.696 159.984 278.277C160.327 277.858 160.549 277.354 160.626 276.818C160.815 275.316 160.279 272.938 157.045 269.708C151.074 263.746 146.555 260.523 145.586 252.949L133.886 252.105Z" fill="#30384D"/>
<path d="M100.891 117.52C100.891 117.52 99.8679 178.945 99.4973 197.086C99.1268 215.226 100.976 255.583 100.976 255.583L114.851 255.652C114.851 255.652 117.896 226.969 118.644 210.341C119.065 200.734 120.051 191.161 121.596 181.669L125.936 155.19L129.988 195.293C130.319 198.568 130.541 201.851 130.655 205.142L132.53 257.217L146.507 256.893C146.507 256.893 148.753 222.057 149.244 206.081C149.384 201.392 149.78 196.714 150.429 192.068C152.799 175.216 157.423 135.905 151.46 120.853L100.891 117.52Z" fill="#444C61"/>
<path d="M148.204 120.289L151.462 120.664C157.426 135.714 152.801 175.027 150.431 191.879C149.782 196.525 149.387 201.203 149.247 205.892C148.755 221.868 146.564 256.951 146.564 256.951L140.25 257.166C140.25 257.166 147.157 232.513 145.044 214.86C142.93 197.206 138.748 196.832 143.891 181.472C145.999 175.174 140.725 163.244 141.284 157.471C142.592 144.912 144.906 132.479 148.204 120.289Z" fill="#30384D"/>
<path d="M125.97 154.77L121.601 182.053C120.056 191.544 119.07 201.118 118.648 210.725C117.901 227.353 114.925 255.649 114.925 255.649L107.438 255.718C107.438 255.718 112.476 239.902 110.554 226.47C108.632 213.038 107.494 205.818 111.517 199.029C117.319 189.235 113.261 177.992 114.47 170.42C115.678 162.849 121.786 153.965 125.133 151.292C125.326 151.138 125.97 154.77 125.97 154.77Z" fill="#30384D"/>
<path d="M135.374 119.446C135.374 119.446 83.502 85.94 79.3571 83.5597C69.8437 78.0975 25.0729 52.9258 25.0729 52.9258L19.9731 65.0152L70.2954 98.5788L104.772 136.741L135.374 119.446Z" fill="#30384D"/>
<path d="M112.857 23.3758C112.857 23.3758 112.687 38.499 113.855 42.4658C116.088 50.0656 126.768 50.8396 129.801 43.5193C129.95 43.179 130.06 42.8232 130.129 42.4585C130.809 38.3604 129.513 18.1699 129.513 18.1699L112.857 23.3758Z" fill="#D5A882"/>
<path d="M124.401 118.934C124.401 118.934 80.8302 89.9301 73.7517 91.5053C67.6212 92.8694 18.0181 114.397 18.0181 114.397L21.7732 128.21C21.7732 128.21 49.4349 120.768 66.8154 115.423C69.1222 114.714 71.4228 113.987 73.8367 113.961C78.9721 113.904 85.1128 117.091 92.7251 127.617C106.031 146.014 120.066 156.699 141.937 140.247C141.937 140.249 142.584 127.418 124.401 118.934Z" fill="#444C61"/>
<path d="M117.525 135.859C102.963 133.574 79.9645 102.672 74.2341 105.237C68.5036 107.802 19.5776 120.142 19.5776 120.142L21.7014 128.312C21.7014 128.312 48.988 120.909 66.3685 115.565C68.6753 114.856 70.9759 114.129 73.3892 114.102C78.5247 114.045 84.705 116.686 92.315 127.212C105.621 145.609 119.656 156.294 141.527 139.842C141.527 139.842 147.254 132.276 138.742 131.289C136.915 131.078 135.954 131.742 133.368 133.133C130.36 134.755 125.359 137.088 117.525 135.859Z" fill="#30384D"/>
<path d="M75.1181 105.73C75.806 104.156 79.4404 101.551 79.7323 101.313C82.2952 99.2147 83.7894 99.7347 83.3021 101.536C83.1487 102.05 82.846 102.508 82.4323 102.852C81.6877 103.499 80.2054 104.851 80.2513 105.31C80.2513 105.31 84.4852 103.656 85.712 101.632C86.9388 99.6085 89.8779 99.1768 90.6684 100.207C91.3587 101.032 91.847 102.006 92.0946 103.053C92.5859 104.515 92.2238 108.145 90.3845 111.281C89.6813 112.48 85.6814 115.679 84.2688 116.353C82.5689 117.162 73.8148 120.21 73.2822 112.965C73.1887 111.709 74.0738 108.123 75.1181 105.73Z" fill="#DAA98C"/>
<path d="M118.097 119.384L124.368 107.92L135.945 123.14L118.097 119.384Z" fill="#444C61"/>
<path d="M143.49 81.6982L146.158 68.2695L150.328 75.888L143.49 81.6982Z" fill="#B0B5C0"/>
<path d="M85.4227 109.998C87.3935 107.757 88.8486 107.428 90.076 105.406C91.3033 103.385 90.3361 99.7642 91.1265 100.794C91.8171 101.619 92.3055 102.593 92.5528 103.64C93.044 105.102 92.6825 108.732 90.8426 111.868C90.14 113.067 86.1395 116.267 84.7269 116.939C83.027 117.749 73.7624 119.728 73.4343 113.605C73.4003 112.976 77.2421 115.586 79.5903 114.827C81.9385 114.068 83.452 112.239 85.4227 109.998Z" fill="#D5A882"/>
<path d="M130.308 37.4473C133.581 37.6012 146.371 40.9711 153.154 49.4286C160.851 59.0256 181.146 112.482 169.607 112.942C158.067 113.403 160.154 95.2598 162.564 82.5831C163.89 75.6108 156.645 70.1407 154.801 61.3816C154.133 58.2035 151.207 52.0182 146.069 49.2119C135.103 43.2218 129.905 44.0269 129.605 43.8289C129.567 43.8029 130.253 37.445 130.308 37.4473Z" fill="#B0B5C0"/>
<path d="M239.626 91.8045C238.49 91.6913 243.601 89.7138 248.73 89.4988C252.198 89.3529 251.74 81.1188 252.144 81.082C252.497 81.1361 252.827 81.2909 253.093 81.528C253.36 81.765 253.552 82.0741 253.647 82.4179C254.723 85.3272 253.427 92.1496 248.685 92.8404C238.867 94.2657 239.626 91.8045 239.626 91.8045Z" fill="#D1A79C"/>
<path d="M137.873 143.485C147.358 137.484 156.087 130.368 163.873 122.289C176.744 108.77 191.08 93.9907 189.448 93.0476C183.959 89.8751 167.9 65.9176 149.434 69.7769C147.987 70.0796 146.601 70.2477 145.561 71.2395C145.561 71.2395 143.521 81.4182 143.521 81.4595C143.521 82.4779 136.107 89.6811 132.797 94.2663C129.053 99.6393 125.677 105.259 122.692 111.087L137.873 143.485Z" fill="#4573D2"/>
<path d="M235.816 86.3181C235.816 86.3181 222.159 92.878 212.201 96.1279C210.612 96.6458 208.925 96.7949 207.269 96.5638C205.614 96.3327 204.032 95.7275 202.646 94.7943C187.403 84.5596 171.051 71.832 171.051 71.832C171.051 71.832 164.426 80.2251 165.121 82.2913C165.455 83.2821 168.362 96.0085 176.159 99.646C184.715 103.638 199.018 109.955 205.201 110.717C205.575 110.76 205.952 110.763 206.327 110.727C215.401 111.915 240.397 93.3187 240.766 93.0913C241.162 92.8474 235.816 86.3181 235.816 86.3181Z" fill="#4573D2"/>
<path d="M137.964 143.573C147.384 137.528 156.063 130.402 163.824 122.341C176.695 108.822 183.448 101.851 183.398 101.653C181.491 94.1209 176.524 95.4556 167.391 104.999C161.617 111.033 154.868 116.027 143.373 119.088C137.132 120.75 133.111 133.294 133.111 133.294L137.964 143.573Z" fill="#4369B6"/>
<path d="M162.524 123.977C161.13 123.843 157.518 120.763 156.927 116.708C156.517 113.895 157.893 108.299 160.339 107.728C166.308 106.332 171.445 113.612 171.702 114.962C172.135 117.256 169.162 124.614 162.524 123.977Z" fill="#DAA98C"/>
<path d="M239.741 91.3457C239.741 91.3457 235.247 99.7761 221.587 101.506C217.768 101.99 213.099 104.95 208.977 106.166C207.593 106.578 206.112 106.526 204.76 106.018C200.334 104.345 189.601 98.0747 179.336 96.7559C176.93 96.4469 182.552 102.621 182.575 102.631C191.73 106.357 199.511 110.097 205.694 110.858C206.068 110.901 206.446 110.904 206.821 110.869C215.894 112.057 240.866 93.7928 241.109 93.4341C241.152 93.3696 239.741 91.3457 239.741 91.3457Z" fill="#4369B6"/>
<path d="M162.525 123.977C161.13 123.844 157.518 120.764 156.927 116.709C156.518 113.896 161.048 118.55 163.53 118.169C170.507 117.097 171.133 113.526 171.702 114.963C172.561 117.134 169.162 124.615 162.525 123.977Z" fill="#D5A882"/>
<path d="M129.626 43.9063C129.626 43.9063 126.239 39.6232 126.07 30.1541L130.529 26.998C130.529 26.998 130.23 40.5257 130.189 41.4259C130.135 42.2774 129.945 43.1147 129.626 43.9063Z" fill="#BA8B67"/>
<path d="M111.668 17.2739C111.668 17.2739 110.507 15.2879 109.599 16.1949C108.69 17.1019 108.003 22.7299 110.533 23.0043C110.451 25.8952 110.723 28.7852 111.344 31.6101C112.194 35.6272 117.877 39.9069 124.462 37.1865C131.047 34.4662 131.927 26.3544 131.927 26.3544C131.927 26.3544 133.687 27.8916 135.61 25.6952C137.282 23.7873 137.423 19.8743 134.826 19.9942C134.826 19.9942 137.55 10.6988 133.009 6.84512C128.468 2.99148 119.391 3.44411 119.391 3.44411C119.391 3.44411 111.896 4.80429 111.668 17.2739Z" fill="#DAA98C"/>
<path d="M129.704 11.3836C129.731 13.933 129.323 16.4683 128.5 18.8816C127.279 22.4336 125.644 28.0961 126.323 31.307C127.173 35.3242 126.443 36.1389 126.696 35.959C131.356 32.6355 131.926 26.3535 131.926 26.3535C131.926 26.3535 133.686 27.8908 135.609 25.6943C137.281 23.7865 137.423 19.8734 134.825 19.9934C134.825 19.9934 137.55 10.6979 133.008 6.84423C129.069 3.49754 129.636 3.23162 129.704 11.3836Z" fill="#D5A882"/>
<path d="M117.394 3.27482C117.443 3.28144 117.493 3.27387 117.538 3.25301C117.583 3.23215 117.621 3.19888 117.647 3.15714C118.003 2.61284 119.489 0.67951 122.94 0.114845C128.477 -0.79043 136.195 4.03638 137.235 7.61731C138.395 11.6056 135.261 19.3542 134.954 20.0948C134.94 20.1329 134.915 20.1665 134.883 20.1921C134.62 20.4145 133.309 21.5223 132.456 22.2398C132.411 22.2769 132.356 22.2987 132.298 22.3017C132.24 22.3048 132.183 22.289 132.134 22.2568C132.086 22.2246 132.05 22.1776 132.03 22.1229C132.011 22.0682 132.01 22.0088 132.027 21.9535C132.495 20.5169 133.236 17.8232 132.458 17.2076C128.657 14.2088 130.104 8.52938 128.837 8.6035C127.57 8.67762 124.797 8.39302 121.532 5.81299C121.511 5.79569 121.488 5.78228 121.462 5.77338C121.141 5.66022 118.799 4.88282 117.251 6.00988C113.685 8.60293 112.272 14.8737 111.771 18.054C111.761 18.1176 111.729 18.1756 111.68 18.2175C111.631 18.2595 111.569 18.2825 111.504 18.2825C111.44 18.2825 111.377 18.2595 111.328 18.2175C111.279 18.1756 111.247 18.1176 111.237 18.054C111.158 17.4775 111.041 16.9068 110.888 16.3453C110.871 16.3004 110.865 16.252 110.872 16.2044L112.185 8.09145C113.014 3.01965 116.58 3.17185 117.394 3.27482Z" fill="#444C61"/>
<path d="M122.911 0.112892C128.448 -0.792383 136.165 4.03443 137.206 7.61536C138.366 11.6037 135.231 19.3523 134.925 20.0929C134.909 20.1306 134.885 20.1639 134.854 20.1896C134.59 20.4126 133.279 21.5204 132.426 22.2373C132.382 22.2755 132.326 22.2981 132.267 22.3017C132.209 22.3053 132.151 22.2897 132.102 22.2573C132.053 22.2248 132.016 22.1773 131.997 22.122C131.978 22.0667 131.977 22.0066 131.996 21.951C132.462 20.5144 133.204 17.8206 132.425 17.2051C128.627 14.2012 130.072 8.52403 128.805 8.59985C127.538 8.67566 124.765 8.38937 121.5 5.80934C121.479 5.79208 121.455 5.7785 121.43 5.76916C121.109 5.656 126.243 4.33883 125.944 2.4485C125.546 -0.0681631 119.459 0.674728 122.911 0.112892Z" fill="#30384D"/>
<path d="M135.123 24.9693C135.762 23.1956 135.255 21.3898 133.991 20.9359C132.727 20.4821 131.185 21.5519 130.546 23.3256C129.907 25.0993 130.414 26.9051 131.678 27.3589C132.942 27.8128 134.484 26.7429 135.123 24.9693Z" fill="#444C61"/>
<path d="M133.209 26.9291C133.209 26.9291 128.99 36.7581 118.902 32.0569L119.268 31.2648C119.268 31.2648 127.462 35.4161 132.353 26.8691L133.209 26.9291Z" fill="#30384D"/>
<path d="M120.077 33.0721L116.993 32.2839C116.869 32.2523 116.752 32.1965 116.649 32.1195C116.546 32.0426 116.46 31.9461 116.395 31.8357C116.33 31.7252 116.287 31.6029 116.269 31.4759C116.252 31.3489 116.26 31.2197 116.292 31.0957C116.358 30.8444 116.521 30.6293 116.746 30.4974C116.97 30.3656 117.237 30.3276 117.49 30.3919L120.573 31.18C120.698 31.2117 120.815 31.2676 120.917 31.3445C121.02 31.4215 121.106 31.518 121.171 31.6284C121.237 31.7388 121.279 31.8611 121.297 31.9881C121.315 32.115 121.307 32.2442 121.274 32.3682C121.208 32.6196 121.045 32.8346 120.821 32.9665C120.596 33.0984 120.329 33.1363 120.077 33.0721Z" fill="#30384D"/>
<path d="M133.893 22.301C133.893 22.301 140.88 7.13766 130.725 1.55664C130.725 1.55664 138.551 7.88225 132.868 22.301H133.893Z" fill="#444C61"/>
<path d="M135.726 25.2378C136.276 23.7103 135.84 22.155 134.751 21.764C133.662 21.3731 132.334 22.2945 131.783 23.822C131.233 25.3496 131.67 26.9048 132.758 27.2958C133.847 27.6868 135.176 26.7654 135.726 25.2378Z" fill="#30384D"/>
<path d="M169.74 77.7171C169.74 77.7171 187.69 83.9974 187.348 83.9974C187.005 83.9974 172.486 72.6934 172.486 72.6934L169.74 77.7171Z" fill="#4369B6"/>
<path d="M162.385 58.248C162.093 58.686 159.326 68.6072 158.747 71.1312C157.371 77.1428 167.634 82.7301 171.821 76.1103C174.299 72.1993 176.429 68.079 178.186 63.7968L162.385 58.248Z" fill="#D1A79C"/>
<path d="M170.234 77.7404L173.338 66.2773L177.674 64.998L173.538 73.3617L172.109 75.5756C172.109 75.5756 171.318 77.398 170.234 77.7404Z" fill="#393939" fill-opacity="0.18"/>
<path d="M165.962 42.0037C164.805 44.5164 162.732 50.3057 162.732 50.3057C162.732 50.3057 160.296 47.9474 158.867 50.5201C157.888 52.2797 157.306 58.8322 160.863 58.0605C160.863 58.0605 159.935 69.1761 166.429 70.2574C172.923 71.3386 176.701 69.1009 180.412 64.3165C180.412 64.3165 182.769 65.9381 184.779 62.3871C186.789 58.8362 186.353 57.2384 183.747 56.9821C183.747 56.9821 186.53 50.343 186.684 47.7183C186.839 45.0936 187.107 41.5545 179.84 38.1563C172.573 34.7581 167.119 39.4927 165.962 42.0037Z" fill="#EABBAE"/>
<path d="M162.356 51.6677C162.352 51.7141 162.363 51.7605 162.388 51.7999C162.413 51.8392 162.45 51.8692 162.494 51.8852C162.538 51.9012 162.586 51.9023 162.63 51.8884C162.675 51.8744 162.713 51.8462 162.74 51.8081C163.834 50.2578 166.567 46.3198 166.913 45.195C167.347 43.7873 167.13 40.3213 169.299 41.7295C171.469 43.1378 176.716 46.377 183.115 46.8104C189.515 47.2438 182.898 48.4348 182.898 50.926C182.898 52.9063 182.83 57.2035 182.802 58.8907C182.801 58.9363 182.815 58.9809 182.842 59.0178C182.869 59.0546 182.907 59.0818 182.951 59.0953C182.995 59.1087 183.041 59.1077 183.084 59.0923C183.127 59.077 183.164 59.0481 183.189 59.0101C184.083 57.685 186.209 54.3609 186.803 51.9009C187.212 50.242 187.486 48.5529 187.622 46.85C187.844 46.2717 191.125 37.5104 179.753 35.4384C170.665 33.7829 167.597 34.1179 166.153 37.2428C164.51 40.7943 162.593 49.0679 162.356 51.6677Z" fill="#DAA98C"/>
<path d="M183.103 40.7863C183.652 42.7054 178.364 45.1157 180.553 46.4895C181.396 46.6685 182.252 46.7758 183.113 46.8103C187.363 47.2397 182.896 48.4347 182.896 50.9259C182.896 52.9062 182.827 57.2034 182.8 58.8906C182.799 58.9362 182.813 58.9808 182.84 59.0177C182.867 59.0546 182.905 59.0817 182.949 59.0952C182.992 59.1086 183.039 59.1076 183.082 59.0922C183.125 59.0769 183.162 59.048 183.187 59.01C184.081 57.6849 186.206 54.3609 186.801 51.9008C187.504 48.9926 187.679 47.6765 187.687 47.6573C187.909 47.0785 191.201 37.0135 179.75 35.44C167.93 33.8139 182.78 39.6569 183.103 40.7863Z" fill="#D5A882"/>
<path d="M111.912 38.0963C110.718 39.5215 109.734 41.1097 108.99 42.8128C106.945 47.3838 105.097 45.7034 105.097 45.7034C105.097 45.7034 106.026 40.8217 108.578 39.4553C111.348 37.9724 111.912 38.0963 111.912 38.0963Z" fill="#B0B5C0"/>
<path d="M106.791 35.9666C106.791 35.9666 110.865 35.2877 112.337 37.8875L106.263 40.4115L106.338 36.2303L106.791 35.9666Z" fill="#D1A79C"/>
<path d="M106.885 35.8379C104.869 36.0222 102.961 36.8326 101.43 38.1551C99.8986 39.4775 98.8207 41.2458 98.3475 43.2114C97.71 45.6301 100.987 48.7601 104.599 46.5405C106.032 45.6601 105.616 41.9949 107.737 39.9586C109.437 38.3234 111.756 37.5771 111.209 36.819C110.357 35.6444 106.725 35.9443 106.885 35.8379Z" fill="#EABBAE"/>
</g>
<defs>
<clipPath id="clip0_9_51033">
<rect width="254" height="281.94" fill="white"/>
</clipPath>
</defs>
</svg>
