<svg width="160" height="121" viewBox="0 0 160 121" fill="none" xmlns="http://www.w3.org/2000/svg">
<g clip-path="url(#clip0_304_10104)">
<path d="M159.725 74.4095C162.624 42.7417 142.24 28.6965 114.023 30.2022C85.8059 31.708 90.4048 7.0819 63.803 0.872907C37.2012 -5.33608 2.53152 22.7325 0.175508 48.4627C-2.72375 80.1309 30.642 111.611 74.7005 118.776C118.759 125.941 156.826 106.078 159.725 74.4095Z" fill="#BEBEBE" fill-opacity="0.14"/>
<path d="M82.983 41.9487L139.628 57.1361C140.165 57.2799 140.622 57.6311 140.9 58.1122C141.177 58.5933 141.253 59.165 141.109 59.7015L139.481 65.7706L78.7903 49.4984L80.4176 43.4293C80.5614 42.8927 80.9125 42.4353 81.3936 42.1577C81.8747 41.88 82.4465 41.8048 82.983 41.9487V41.9487Z" fill="#444C61"/>
<path d="M92.9254 42.8803C93.1052 42.21 92.7074 41.5208 92.0371 41.3411C91.3667 41.1613 90.6775 41.5591 90.4978 42.2294L89.6299 45.4663C89.4502 46.1367 89.8479 46.8258 90.5183 47.0056C91.1887 47.1853 91.8778 46.7876 92.0576 46.1172L92.9254 42.8803Z" fill="#B0B5C0"/>
<path d="M106.277 46.4604C106.457 45.79 106.059 45.1009 105.389 44.9211C104.718 44.7414 104.029 45.1391 103.849 45.8095L102.982 49.0464C102.802 49.7168 103.2 50.4059 103.87 50.5857C104.54 50.7654 105.229 50.3676 105.409 49.6973L106.277 46.4604Z" fill="#B0B5C0"/>
<path d="M132.981 53.6206C133.161 52.9502 132.763 52.261 132.093 52.0813C131.422 51.9016 130.733 52.2993 130.553 52.9697L129.686 56.2065C129.506 56.8769 129.904 57.5661 130.574 57.7458C131.244 57.9255 131.934 57.5278 132.113 56.8574L132.981 53.6206Z" fill="#B0B5C0"/>
<path d="M119.63 50.0405C119.809 49.3701 119.412 48.681 118.741 48.5012C118.071 48.3215 117.382 48.7192 117.202 49.3896L116.334 52.6265C116.154 53.2968 116.552 53.986 117.222 54.1657C117.893 54.3455 118.582 53.9477 118.762 53.2774L119.63 50.0405Z" fill="#B0B5C0"/>
<path d="M78.6895 49.4707L139.381 65.743L128.532 106.204C128.389 106.74 128.037 107.198 127.556 107.475C127.075 107.753 126.503 107.828 125.967 107.684L69.3219 92.4969C68.7854 92.353 68.3279 92.0019 68.0503 91.5208C67.7726 91.0397 67.6974 90.468 67.8413 89.9314L78.6895 49.4707Z" fill="#CED3DF"/>
<path d="M88.8243 56.9599C88.9441 56.513 88.679 56.0536 88.2321 55.9338C87.7851 55.8139 87.3257 56.0791 87.2059 56.526L78.2019 90.1084C78.0821 90.5553 78.3472 91.0148 78.7942 91.1346C79.2411 91.2544 79.7005 90.9893 79.8203 90.5423L88.8243 56.9599Z" fill="#B0B5C0"/>
<path d="M102.176 60.54C102.296 60.0931 102.031 59.6337 101.584 59.5138C101.137 59.394 100.677 59.6592 100.557 60.1061L91.5535 93.6885C91.4336 94.1354 91.6988 94.5949 92.1457 94.7147C92.5926 94.8345 93.0521 94.5693 93.1719 94.1224L102.176 60.54Z" fill="#B0B5C0"/>
<path d="M128.288 66.674C128.502 66.7315 128.685 66.872 128.796 67.0644C128.907 67.2569 128.938 67.4856 128.88 67.7002L119.876 101.283C119.818 101.497 119.678 101.68 119.486 101.791C119.293 101.902 119.064 101.932 118.85 101.875C118.635 101.817 118.452 101.677 118.341 101.484C118.23 101.292 118.2 101.063 118.258 100.849L127.262 67.2662C127.319 67.0516 127.46 66.8687 127.652 66.7576C127.844 66.6465 128.073 66.6165 128.288 66.674V66.674Z" fill="#B0B5C0"/>
<path d="M115.528 64.1201C115.648 63.6732 115.383 63.2137 114.936 63.0939C114.489 62.9741 114.03 63.2393 113.91 63.6862L104.906 97.2686C104.786 97.7155 105.051 98.1749 105.498 98.2948C105.945 98.4146 106.405 98.1494 106.524 97.7025L115.528 64.1201Z" fill="#B0B5C0"/>
<path d="M79.5107 60.9677C79.0638 60.8478 78.6044 61.113 78.4845 61.5599C78.3647 62.0068 78.6299 62.4663 79.0768 62.5861L132.485 76.9057C132.932 77.0255 133.391 76.7603 133.511 76.3134C133.631 75.8665 133.366 75.4071 132.919 75.2873L79.5107 60.9677Z" fill="#B0B5C0"/>
<path d="M76.8525 70.8798C76.4056 70.76 75.9462 71.0251 75.8263 71.472C75.7065 71.919 75.9717 72.3784 76.4186 72.4982L129.827 86.8178C130.274 86.9376 130.733 86.6725 130.853 86.2255C130.973 85.7786 130.708 85.3192 130.261 85.1994L76.8525 70.8798Z" fill="#B0B5C0"/>
<path d="M74.1953 80.7919C73.7484 80.6721 73.2889 80.9372 73.1691 81.3841C73.0493 81.8311 73.3144 82.2905 73.7614 82.4103L127.17 96.7299C127.616 96.8497 128.076 96.5846 128.196 96.1377C128.316 95.6907 128.05 95.2313 127.603 95.1115L74.1953 80.7919Z" fill="#B0B5C0"/>
<path d="M96.3931 57.0967L94.5788 58.1439L93.5317 56.3296C93.4186 56.1412 93.2361 56.0049 93.0234 55.9498C92.8107 55.8948 92.585 55.9255 92.3947 56.0353C92.2044 56.1451 92.0649 56.3252 92.0062 56.5369C91.9475 56.7486 91.9742 56.9749 92.0807 57.167L93.1278 58.9813L91.3135 60.0284C91.1252 60.1415 90.9888 60.324 90.9338 60.5367C90.8787 60.7494 90.9094 60.9752 91.0192 61.1654C91.129 61.3557 91.3092 61.4952 91.5209 61.5539C91.7325 61.6127 91.9588 61.5859 92.151 61.4794L93.9652 60.4323L95.0123 62.2466C95.0663 62.3439 95.139 62.4295 95.2264 62.4984C95.3137 62.5672 95.4139 62.618 95.5211 62.6478C95.6283 62.6775 95.7404 62.6856 95.8507 62.6716C95.9611 62.6576 96.0676 62.6217 96.1639 62.5661C96.2603 62.5105 96.3446 62.4363 96.4119 62.3477C96.4793 62.2592 96.5283 62.1581 96.5562 62.0504C96.5841 61.9427 96.5902 61.8305 96.5743 61.7204C96.5583 61.6103 96.5206 61.5045 96.4634 61.4092L95.4163 59.5949L97.2305 58.5478C97.3279 58.4938 97.4134 58.4211 97.4823 58.3337C97.5512 58.2464 97.602 58.1462 97.6317 58.039C97.6615 57.9318 97.6696 57.8197 97.6555 57.7094C97.6415 57.599 97.6057 57.4925 97.55 57.3962C97.4944 57.2998 97.4202 57.2155 97.3317 57.1482C97.2431 57.0808 97.142 57.0318 97.0344 57.0039C96.9267 56.976 96.8145 56.9699 96.7044 56.9858C96.5943 57.0018 96.4885 57.0395 96.3931 57.0967Z" fill="#8A90A7"/>
<path d="M110.15 60.7839L108.336 61.831L107.289 60.0167C107.176 59.8284 106.993 59.692 106.781 59.637C106.568 59.5819 106.342 59.6126 106.152 59.7224C105.962 59.8323 105.822 60.0124 105.763 60.2241C105.705 60.4357 105.731 60.662 105.838 60.8542L106.885 62.6685L105.071 63.7156C104.882 63.8287 104.746 64.0112 104.691 64.2239C104.636 64.4365 104.667 64.6623 104.777 64.8526C104.886 65.0428 105.066 65.1824 105.278 65.2411C105.49 65.2998 105.716 65.2731 105.908 65.1666L107.723 64.1195L108.77 65.9338C108.883 66.1221 109.065 66.2584 109.278 66.3135C109.491 66.3685 109.716 66.3378 109.907 66.228C110.097 66.1182 110.236 65.9381 110.295 65.7264C110.354 65.5147 110.327 65.2885 110.221 65.0963L109.174 63.282L110.988 62.2349C111.176 62.1218 111.313 61.9393 111.368 61.7266C111.423 61.5139 111.392 61.2882 111.282 61.0979C111.172 60.9076 110.992 60.7681 110.78 60.7094C110.569 60.6507 110.343 60.6774 110.15 60.7839Z" fill="#8A90A7"/>
<path d="M120.061 75.5847L118.246 76.6318L117.199 74.8175C117.086 74.6292 116.904 74.4928 116.691 74.4378C116.478 74.3827 116.252 74.4134 116.062 74.5232C115.872 74.633 115.732 74.8132 115.674 75.0248C115.615 75.2365 115.642 75.4628 115.748 75.6549L116.795 77.4692L114.981 78.5163C114.793 78.6294 114.656 78.812 114.601 79.0246C114.546 79.2373 114.577 79.4631 114.687 79.6533C114.796 79.8436 114.977 79.9831 115.188 80.0419C115.4 80.1006 115.626 80.0738 115.818 79.9674L117.633 78.9202L118.68 80.7345C118.793 80.9229 118.975 81.0592 119.188 81.1143C119.401 81.1693 119.627 81.1386 119.817 81.0288C120.007 80.919 120.147 80.7389 120.205 80.5272C120.264 80.3155 120.237 80.0892 120.131 79.8971L119.084 78.0828L120.898 77.0357C121.086 76.9226 121.223 76.7401 121.278 76.5274C121.333 76.3147 121.302 76.089 121.192 75.8987C121.082 75.7084 120.902 75.5689 120.691 75.5102C120.479 75.4514 120.253 75.4782 120.061 75.5847Z" fill="#4573D2"/>
<path d="M84.2549 53.8405L82.4406 54.8876L81.3935 53.0734C81.2804 52.885 81.0979 52.7487 80.8852 52.6936C80.6725 52.6386 80.4467 52.6693 80.2565 52.7791C80.0662 52.8889 79.9267 53.069 79.868 53.2807C79.8092 53.4924 79.836 53.7187 79.9425 53.9108L80.9896 55.7251L79.1753 56.7722C78.987 56.8853 78.8506 57.0678 78.7956 57.2805C78.7405 57.4932 78.7712 57.7189 78.881 57.9092C78.9908 58.0995 79.171 58.239 79.3826 58.2977C79.5943 58.3565 79.8206 58.3297 80.0127 58.2232L81.827 57.1761L82.8741 58.9904C82.9872 59.1787 83.1698 59.3151 83.3824 59.3701C83.5951 59.4252 83.8209 59.3945 84.0111 59.2847C84.2014 59.1749 84.3409 58.9947 84.3997 58.783C84.4584 58.5714 84.4316 58.3451 84.3251 58.153L83.278 56.3387L85.0923 55.2916C85.2806 55.1785 85.417 54.9959 85.4721 54.7833C85.5271 54.5706 85.4964 54.3448 85.3866 54.1546C85.2768 53.9643 85.0966 53.8248 84.885 53.766C84.6733 53.7073 84.447 53.7341 84.2549 53.8405Z" fill="#8A90A7"/>
<path d="M71.7774 11.4837L22.4153 24.7184C21.5215 24.9581 20.9912 25.8769 21.2308 26.7708L40.9745 100.409C41.2141 101.303 42.133 101.833 43.0268 101.594L92.3889 88.359C93.2828 88.1194 93.8131 87.2005 93.5734 86.3067L73.8298 12.6682C73.5901 11.7743 72.6712 11.244 71.7774 11.4837Z" fill="white"/>
<path d="M71.7774 11.4837L22.4153 24.7184C21.5215 24.9581 20.9912 25.8769 21.2308 26.7708L40.9745 100.409C41.2141 101.303 42.133 101.833 43.0268 101.594L92.3889 88.359C93.2828 88.1194 93.8131 87.2005 93.5734 86.3067L73.8298 12.6682C73.5901 11.7743 72.6712 11.244 71.7774 11.4837Z" fill="white"/>
<path d="M59.7857 23.372L32.2724 30.7488C31.602 30.9285 31.2043 31.6177 31.384 32.288C31.5638 32.9584 32.2529 33.3562 32.9233 33.1764L60.4366 25.7997C61.107 25.6199 61.5047 24.9308 61.325 24.2604C61.1452 23.59 60.4561 23.1923 59.7857 23.372Z" fill="#E2E5EC"/>
<path d="M67.7987 22.5238C67.6189 21.8535 66.9299 21.4558 66.2596 21.6355C65.5893 21.8152 65.1916 22.5043 65.3713 23.1746C65.551 23.8449 66.2401 24.2426 66.9104 24.0629C67.5807 23.8832 67.9784 23.1941 67.7987 22.5238Z" fill="#E2E5EC"/>
<path d="M62.0172 31.6962L34.5039 39.073C33.8335 39.2527 33.4357 39.9419 33.6155 40.6123C33.7952 41.2826 34.4844 41.6804 35.1548 41.5006L62.6681 34.1239C63.3384 33.9441 63.7362 33.255 63.5564 32.5846C63.3767 31.9142 62.6875 31.5165 62.0172 31.6962Z" fill="#E2E5EC"/>
<path d="M70.0301 30.848C69.8504 30.1777 69.1613 29.78 68.491 29.9597C67.8207 30.1395 67.423 30.8285 67.6028 31.4988C67.7825 32.1691 68.4715 32.5668 69.1418 32.3871C69.8121 32.2074 70.2098 31.5183 70.0301 30.848Z" fill="#E2E5EC"/>
<path d="M64.2486 40.0185L36.7353 47.3953C36.0649 47.575 35.6672 48.2641 35.8469 48.9345C36.0267 49.6049 36.7158 50.0026 37.3862 49.8229L64.8995 42.4461C65.5699 42.2664 65.9676 41.5773 65.7879 40.9069C65.6081 40.2365 64.919 39.8388 64.2486 40.0185Z" fill="#E2E5EC"/>
<path d="M72.2616 39.1722C72.0818 38.5019 71.3928 38.1043 70.7225 38.284C70.0522 38.4637 69.6545 39.1528 69.8342 39.8231C70.0139 40.4933 70.703 40.891 71.3733 40.7113C72.0436 40.5316 72.4413 39.8425 72.2616 39.1722Z" fill="#E2E5EC"/>
<path d="M66.4801 48.3427L38.9668 55.7195C38.2964 55.8992 37.8986 56.5884 38.0784 57.2587C38.2581 57.9291 38.9473 58.3269 39.6176 58.1471L67.1309 50.7704C67.8013 50.5906 68.1991 49.9015 68.0193 49.2311C67.8396 48.5607 67.1504 48.163 66.4801 48.3427Z" fill="#E2E5EC"/>
<path d="M74.493 47.4945C74.3133 46.8242 73.6242 46.4265 72.9539 46.6062C72.2836 46.786 71.8859 47.475 72.0656 48.1453C72.2454 48.8156 72.9344 49.2133 73.6047 49.0336C74.275 48.8539 74.6727 48.1648 74.493 47.4945Z" fill="#E2E5EC"/>
<path d="M68.7125 56.665L41.1992 64.0417C40.5288 64.2215 40.1311 64.9106 40.3108 65.581C40.4905 66.2514 41.1797 66.6491 41.8501 66.4694L69.3634 59.0926C70.0337 58.9129 70.4315 58.2237 70.2517 57.5534C70.072 56.883 69.3828 56.4852 68.7125 56.665Z" fill="#E2E5EC"/>
<path d="M76.7244 55.8187C76.5447 55.1484 75.8557 54.7507 75.1854 54.9305C74.5151 55.1102 74.1174 55.7992 74.2971 56.4695C74.4768 57.1398 75.1659 57.5375 75.8362 57.3578C76.5065 57.1781 76.9042 56.489 76.7244 55.8187Z" fill="#E2E5EC"/>
<path d="M57.1873 68.6776L43.4306 72.366C42.7602 72.5457 42.3625 73.2349 42.5422 73.9052C42.722 74.5756 43.4111 74.9733 44.0815 74.7936L57.8382 71.1052C58.5085 70.9255 58.9063 70.2363 58.7265 69.566C58.5468 68.8956 57.8576 68.4978 57.1873 68.6776Z" fill="#E2E5EC"/>
<path d="M59.4187 76.9998L45.6621 80.6882C44.9917 80.868 44.5939 81.5571 44.7737 82.2275C44.9534 82.8979 45.6426 83.2956 46.313 83.1159L60.0696 79.4275C60.74 79.2478 61.1377 78.5586 60.958 77.8882C60.7782 77.2179 60.0891 76.8201 59.4187 76.9998Z" fill="#E2E5EC"/>
<path d="M61.6502 85.3241L47.8935 89.0124C47.2231 89.1922 46.8254 89.8813 47.0051 90.5517C47.1849 91.2221 47.874 91.6198 48.5444 91.4401L62.301 87.7517C62.9714 87.572 63.3692 86.8828 63.1894 86.2124C63.0097 85.5421 62.3205 85.1443 61.6502 85.3241Z" fill="#E2E5EC"/>
<path d="M72.1265 78.5688C72.6141 78.873 73.1869 79.0119 73.7597 78.9649L72.7246 75.1041C72.6569 75.0958 72.566 75.0902 72.4535 75.0879C72.341 75.0855 72.2189 75.0879 72.0893 75.0962C71.6 75.0963 71.1109 75.0718 70.6241 75.0228C70.1524 74.9799 69.6903 74.863 69.2549 74.6765C68.8278 74.4917 68.4463 74.2156 68.1372 73.8676C67.7833 73.4451 67.5338 72.9452 67.409 72.4084C67.2489 71.865 67.2145 71.2924 67.3083 70.7338C67.4021 70.1752 67.6217 69.6452 67.9505 69.184C68.2678 68.742 68.6622 68.3609 69.1148 68.059C69.5858 67.7413 70.0969 67.4876 70.6347 67.3046L70.2532 65.8816L71.3424 65.5895L71.7234 67.0105C72.2718 66.925 72.8285 66.9056 73.3815 66.9528C73.8951 66.9962 74.3969 67.1302 74.8637 67.3486C75.3293 67.5728 75.7443 67.8895 76.0834 68.2793C76.4703 68.7338 76.7603 69.2624 76.9358 69.8328L74.3128 70.5361C74.1891 70.0757 73.9059 69.6742 73.5137 69.4033C73.3426 69.276 73.1447 69.1892 72.9351 69.1493C72.7255 69.1095 72.5097 69.1178 72.3037 69.1734L73.1805 72.4435C73.3381 72.4411 73.4988 72.4371 73.6631 72.4334C73.8273 72.4297 74.002 72.4292 74.1864 72.4331C74.9852 72.4071 75.7821 72.5258 76.5386 72.7835C77.0546 72.968 77.5285 73.2538 77.9324 73.6241C78.2506 73.9246 78.5005 74.2899 78.6654 74.6953C78.7995 75.0337 78.9151 75.3791 79.0118 75.73C79.0912 76.084 79.1157 76.4481 79.0844 76.8095C79.0477 77.3006 78.9102 77.7789 78.6805 78.2146C78.393 78.7559 78.0099 79.2406 77.5496 79.6453C76.9287 80.1745 76.2058 80.5707 75.4257 80.8094L75.8481 82.385L74.7593 82.6769L74.3384 81.107C73.7532 81.2779 73.14 81.3319 72.5339 81.2658C71.9278 81.1997 71.3407 81.0149 70.806 80.7219C70.2714 80.4288 69.7997 80.0334 69.4179 79.5581C69.0361 79.0828 68.7516 78.5369 68.5808 77.9516C68.563 77.8853 68.5453 77.8193 68.5277 77.7534L71.1329 77.0549C71.19 77.3605 71.3072 77.6517 71.4777 77.9116C71.6483 78.1715 71.8688 78.3949 72.1265 78.5688ZM70.6283 69.7233C70.4495 69.8359 70.2938 69.9815 70.1696 70.1524C70.0448 70.3258 69.9603 70.5248 69.922 70.7349C69.882 70.9723 69.8964 71.2156 69.9641 71.4466C70.001 71.6256 70.0778 71.794 70.1888 71.9392C70.2998 72.0844 70.4422 72.2027 70.6053 72.2852C71.0569 72.4577 71.5423 72.5238 72.0236 72.4783L71.2163 69.4672C71.0084 69.5219 70.8101 69.608 70.6281 69.7225L70.6283 69.7233ZM75.5003 78.3282C75.7133 78.1892 75.9012 78.0152 76.0562 77.8135C76.2073 77.6133 76.3174 77.3853 76.3802 77.1425C76.446 76.8727 76.4389 76.5902 76.3594 76.324C76.3196 76.117 76.2316 75.9223 76.1027 75.7555C75.9737 75.5887 75.8074 75.4545 75.6171 75.3638C75.0647 75.176 74.4818 75.0939 73.899 75.1219L74.8502 78.6695C75.0777 78.5778 75.2951 78.4628 75.4989 78.3264L75.5003 78.3282Z" fill="#4573D2"/>
</g>
<defs>
<clipPath id="clip0_304_10104">
<rect width="160" height="120.238" fill="white"/>
</clipPath>
</defs>
</svg>
