<svg width="160" height="121" viewBox="0 0 160 121" fill="none" xmlns="http://www.w3.org/2000/svg">
<g clip-path="url(#clip0_304_10105)">
<path d="M159.725 74.41C162.624 42.7417 142.24 28.6969 114.023 30.2018C85.8057 31.7067 90.4046 7.08139 63.8027 0.8728C37.2008 -5.33579 2.53153 22.7329 0.175508 48.4636C-2.72376 80.1319 30.6421 111.612 74.7003 118.777C118.759 125.942 156.826 106.078 159.725 74.41Z" fill="#BEBEBE" fill-opacity="0.14"/>
<path d="M101.358 83.9643L79.9629 108.576L83.901 111.999L105.296 87.3876L101.358 83.9643Z" fill="#E2E5EC"/>
<path d="M101.358 83.9643L79.9629 108.576L81.9319 110.288L103.327 85.6759L101.358 83.9643Z" fill="#CED3DF"/>
<path d="M109.317 78.7844L105.295 87.386L101.359 83.9648L109.317 78.7844Z" fill="#F6F6F6"/>
<path d="M109.318 78.7833L107.308 83.0846L105.34 81.374L109.318 78.7833Z" fill="#30384D"/>
<path d="M83.9015 111.999L81.9256 114.273C81.8482 114.362 81.754 114.435 81.6483 114.488C81.5426 114.54 81.4276 114.572 81.3099 114.58C81.1921 114.588 81.0738 114.573 80.9619 114.536C80.8499 114.498 80.7464 114.439 80.6573 114.362L78.0761 112.118C77.9869 112.041 77.9139 111.946 77.8612 111.841C77.8086 111.735 77.7772 111.62 77.769 111.502C77.7608 111.384 77.7758 111.266 77.8133 111.154C77.8508 111.042 77.91 110.939 77.9874 110.85L79.9634 108.576L83.9015 111.999Z" fill="#4573D2"/>
<path d="M117.357 58.5305L122.46 90.7539L127.616 89.9374L122.513 57.714L117.357 58.5305Z" fill="#E2E5EC"/>
<path d="M117.357 58.5305L122.46 90.7539L125.038 90.3456L119.935 58.1223L117.357 58.5305Z" fill="#CED3DF"/>
<path d="M118.505 49.0997L122.511 57.7138L117.358 58.5301L118.505 49.0997Z" fill="#F6F6F6"/>
<path d="M118.506 49.0983L120.509 53.4048L117.933 53.8129L118.506 49.0983Z" fill="#30384D"/>
<path d="M127.616 89.9369L128.087 92.9132C128.106 93.0299 128.101 93.149 128.073 93.2639C128.046 93.3787 127.996 93.487 127.927 93.5826C127.857 93.6781 127.77 93.7591 127.669 93.8208C127.568 93.8825 127.456 93.9238 127.34 93.9422L123.96 94.4777C123.844 94.4962 123.724 94.4915 123.61 94.4639C123.495 94.4363 123.386 94.3863 123.291 94.3169C123.195 94.2474 123.114 94.1598 123.053 94.0591C122.991 93.9583 122.95 93.8464 122.931 93.7297L122.459 90.7535L127.616 89.9369Z" fill="#4573D2"/>
<path d="M92.142 48.2806L88.3619 52.9486C87.634 53.8475 87.7726 55.1662 88.6715 55.8941L105.016 69.1295C105.915 69.8574 107.233 69.7188 107.961 68.8199L111.741 64.1518C112.469 63.253 112.331 61.9342 111.432 61.2063L95.0875 47.971C94.1887 47.2431 92.8699 47.3817 92.142 48.2806Z" fill="white"/>
<path d="M99.2979 51.3815L92.8818 59.3047L103.724 68.0843L110.14 60.1612L99.2979 51.3815Z" fill="#4573D2"/>
<path d="M71.7774 11.4856L22.4153 24.7204C21.5215 24.96 20.9912 25.8789 21.2308 26.7727L40.9745 100.411C41.2141 101.305 42.133 101.835 43.0268 101.596L92.3889 88.361C93.2828 88.1213 93.8131 87.2025 93.5734 86.3086L73.8298 12.6701C73.5901 11.7763 72.6712 11.246 71.7774 11.4856Z" fill="white"/>
<path d="M71.7774 11.4856L22.4153 24.7204C21.5215 24.96 20.9912 25.8789 21.2308 26.7727L40.9745 100.411C41.2141 101.305 42.133 101.835 43.0268 101.596L92.3889 88.361C93.2828 88.1213 93.8131 87.2025 93.5734 86.3086L73.8298 12.6701C73.5901 11.7763 72.6712 11.246 71.7774 11.4856Z" fill="white"/>
<path d="M59.7857 23.374L32.2724 30.7507C31.602 30.9305 31.2043 31.6196 31.384 32.29C31.5638 32.9604 32.2529 33.3581 32.9233 33.1784L60.4366 25.8016C61.107 25.6219 61.5047 24.9327 61.325 24.2623C61.1452 23.592 60.4561 23.1942 59.7857 23.374Z" fill="#E2E5EC"/>
<path d="M67.7987 22.5258C67.6189 21.8555 66.9299 21.4578 66.2596 21.6375C65.5893 21.8172 65.1916 22.5063 65.3713 23.1766C65.551 23.8469 66.2401 24.2446 66.9104 24.0648C67.5807 23.8851 67.9784 23.1961 67.7987 22.5258Z" fill="#E2E5EC"/>
<path d="M62.0172 31.6962L34.5039 39.073C33.8335 39.2527 33.4357 39.9419 33.6155 40.6123C33.7952 41.2826 34.4844 41.6804 35.1548 41.5006L62.6681 34.1239C63.3384 33.9441 63.7362 33.255 63.5564 32.5846C63.3767 31.9142 62.6875 31.5165 62.0172 31.6962Z" fill="#E2E5EC"/>
<path d="M70.0301 30.85C69.8504 30.1797 69.1613 29.782 68.491 29.9617C67.8207 30.1414 67.423 30.8305 67.6028 31.5008C67.7825 32.1711 68.4715 32.5688 69.1418 32.3891C69.8121 32.2093 70.2098 31.5203 70.0301 30.85Z" fill="#E2E5EC"/>
<path d="M64.2486 40.0205L36.7353 47.3972C36.0649 47.5769 35.6672 48.2661 35.8469 48.9365C36.0267 49.6069 36.7158 50.0046 37.3862 49.8249L64.8995 42.4481C65.5699 42.2684 65.9676 41.5792 65.7879 40.9088C65.6081 40.2385 64.919 39.8407 64.2486 40.0205Z" fill="#E2E5EC"/>
<path d="M72.2616 39.1742C72.0818 38.5039 71.3928 38.1062 70.7225 38.2859C70.0522 38.4656 69.6545 39.1547 69.8342 39.825C70.0139 40.4953 70.703 40.893 71.3733 40.7133C72.0436 40.5336 72.4413 39.8445 72.2616 39.1742Z" fill="#E2E5EC"/>
<path d="M66.481 48.3447L38.9677 55.7214C38.2974 55.9012 37.8996 56.5903 38.0794 57.2607C38.2591 57.9311 38.9482 58.3288 39.6186 58.1491L67.1319 50.7723C67.8023 50.5926 68.2 49.9034 68.0203 49.2331C67.8406 48.5627 67.1514 48.1649 66.481 48.3447Z" fill="#E2E5EC"/>
<path d="M74.493 47.4965C74.3133 46.8262 73.6242 46.4285 72.9539 46.6082C72.2836 46.7879 71.8859 47.477 72.0656 48.1473C72.2454 48.8176 72.9344 49.2153 73.6047 49.0355C74.275 48.8558 74.6727 48.1668 74.493 47.4965Z" fill="#E2E5EC"/>
<path d="M68.7125 56.6669L41.1992 64.0437C40.5288 64.2234 40.1311 64.9126 40.3108 65.583C40.4905 66.2533 41.1797 66.6511 41.8501 66.4713L69.3634 59.0946C70.0337 58.9148 70.4315 58.2257 70.2517 57.5553C70.072 56.8849 69.3828 56.4872 68.7125 56.6669Z" fill="#E2E5EC"/>
<path d="M76.7244 55.8207C76.5447 55.1504 75.8557 54.7527 75.1854 54.9324C74.5151 55.1121 74.1174 55.8012 74.2971 56.4715C74.4768 57.1418 75.1659 57.5395 75.8362 57.3598C76.5065 57.18 76.9042 56.491 76.7244 55.8207Z" fill="#E2E5EC"/>
<path d="M57.1873 68.6795L43.4306 72.3679C42.7602 72.5477 42.3625 73.2368 42.5422 73.9072C42.722 74.5776 43.4111 74.9753 44.0815 74.7956L57.8382 71.1072C58.5085 70.9274 58.9063 70.2383 58.7265 69.5679C58.5468 68.8975 57.8576 68.4998 57.1873 68.6795Z" fill="#E2E5EC"/>
<path d="M59.4187 77.0018L45.6621 80.6902C44.9917 80.8699 44.5939 81.5591 44.7737 82.2294C44.9534 82.8998 45.6426 83.2976 46.313 83.1178L60.0696 79.4294C60.74 79.2497 61.1377 78.5606 60.958 77.8902C60.7782 77.2198 60.0891 76.8221 59.4187 77.0018Z" fill="#E2E5EC"/>
<path d="M61.6502 85.326L47.8935 89.0144C47.2231 89.1941 46.8254 89.8833 47.0051 90.5537C47.1849 91.224 47.874 91.6218 48.5444 91.442L62.301 87.7537C62.9714 87.5739 63.3692 86.8848 63.1894 86.2144C63.0097 85.544 62.3205 85.1463 61.6502 85.326Z" fill="#E2E5EC"/>
<path d="M72.1265 78.5707C72.6141 78.875 73.1869 79.0139 73.7597 78.9668L72.7246 75.1061C72.6569 75.0978 72.566 75.0922 72.4535 75.0898C72.341 75.0875 72.2189 75.0899 72.0893 75.0982C71.6 75.0983 71.1109 75.0738 70.6241 75.0248C70.1524 74.9819 69.6903 74.865 69.2549 74.6785C68.8278 74.4936 68.4463 74.2175 68.1372 73.8696C67.7833 73.4471 67.5338 72.9472 67.409 72.4103C67.2489 71.867 67.2145 71.2943 67.3083 70.7357C67.4021 70.1771 67.6217 69.6472 67.9505 69.1859C68.2678 68.7439 68.6622 68.3629 69.1148 68.061C69.5858 67.7433 70.0969 67.4895 70.6347 67.3065L70.2532 65.8835L71.3424 65.5915L71.7234 67.0125C72.2718 66.9269 72.8285 66.9076 73.3815 66.9548C73.8951 66.9982 74.3969 67.1322 74.8637 67.3506C75.3293 67.5748 75.7443 67.8914 76.0834 68.2813C76.4703 68.7357 76.7603 69.2643 76.9358 69.8348L74.3128 70.5381C74.1891 70.0777 73.9059 69.6762 73.5137 69.4052C73.3426 69.2779 73.1447 69.1911 72.9351 69.1513C72.7255 69.1115 72.5097 69.1197 72.3037 69.1754L73.1805 72.4454C73.3381 72.4431 73.4988 72.439 73.6631 72.4353C73.8273 72.4316 74.002 72.4312 74.1864 72.4351C74.9852 72.409 75.7821 72.5277 76.5386 72.7854C77.0546 72.9699 77.5285 73.2557 77.9324 73.6261C78.2506 73.9266 78.5005 74.2918 78.6654 74.6972C78.7995 75.0356 78.9151 75.381 79.0118 75.7319C79.0912 76.0859 79.1157 76.45 79.0844 76.8115C79.0477 77.3026 78.9102 77.7809 78.6805 78.2165C78.393 78.7578 78.0099 79.2426 77.5496 79.6473C76.9287 80.1764 76.2058 80.5726 75.4257 80.8114L75.8481 82.3869L74.7593 82.6788L74.3384 81.109C73.7532 81.2799 73.14 81.3338 72.5339 81.2677C71.9278 81.2016 71.3407 81.0168 70.806 80.7238C70.2714 80.4308 69.7997 80.0353 69.4179 79.56C69.0361 79.0847 68.7516 78.5388 68.5808 77.9536C68.563 77.8872 68.5453 77.8213 68.5277 77.7553L71.1329 77.0568C71.19 77.3624 71.3072 77.6536 71.4777 77.9135C71.6483 78.1734 71.8688 78.3968 72.1265 78.5707ZM70.6283 69.7252C70.4495 69.8378 70.2938 69.9835 70.1696 70.1544C70.0448 70.3278 69.9603 70.5267 69.922 70.7369C69.882 70.9742 69.8964 71.2176 69.9641 71.4486C70.001 71.6276 70.0778 71.7959 70.1888 71.9411C70.2998 72.0863 70.4422 72.2046 70.6053 72.2872C71.0569 72.4597 71.5423 72.5257 72.0236 72.4802L71.2163 69.4691C71.0084 69.5239 70.8101 69.61 70.6281 69.7244L70.6283 69.7252ZM75.5003 78.3301C75.7133 78.1911 75.9012 78.0171 76.0562 77.8155C76.2073 77.6153 76.3174 77.3873 76.3802 77.1444C76.446 76.8746 76.4389 76.5921 76.3594 76.326C76.3196 76.119 76.2316 75.9242 76.1027 75.7575C75.9737 75.5907 75.8074 75.4565 75.6171 75.3658C75.0647 75.1779 74.4818 75.0959 73.899 75.1238L74.8502 78.6714C75.0777 78.5797 75.2951 78.4648 75.4989 78.3283L75.5003 78.3301Z" fill="#4573D2"/>
</g>
<defs>
<clipPath id="clip0_304_10105">
<rect width="160" height="120.238" fill="white"/>
</clipPath>
</defs>
</svg>
