<svg width="160" height="121" viewBox="0 0 160 121" fill="none" xmlns="http://www.w3.org/2000/svg">
<g clip-path="url(#clip0_304_10110)">
<path d="M159.725 74.4097C162.625 42.7418 142.24 28.697 114.023 30.2023C85.8057 31.7077 90.4046 7.08192 63.8027 0.87291C37.2008 -5.3361 2.53153 22.7326 0.175508 48.4616C-2.72376 80.1299 30.6421 111.611 74.7007 118.775C118.759 125.94 156.826 106.078 159.725 74.4097Z" fill="#BEBEBE" fill-opacity="0.14"/>
<path d="M71.7774 11.4837L22.4153 24.7184C21.5215 24.9581 20.9912 25.8769 21.2308 26.7708L40.9745 100.409C41.2141 101.303 42.133 101.833 43.0268 101.594L92.3889 88.359C93.2828 88.1194 93.8131 87.2005 93.5734 86.3067L73.8298 12.6682C73.5901 11.7743 72.6712 11.244 71.7774 11.4837Z" fill="white"/>
<path d="M71.7774 11.4837L22.4153 24.7184C21.5215 24.9581 20.9912 25.8769 21.2308 26.7708L40.9745 100.409C41.2141 101.303 42.133 101.833 43.0268 101.594L92.3889 88.359C93.2828 88.1194 93.8131 87.2005 93.5734 86.3067L73.8298 12.6682C73.5901 11.7743 72.6712 11.244 71.7774 11.4837Z" fill="white"/>
<path d="M59.7855 23.3721L51.6933 25.5417C51.0229 25.7215 50.6252 26.4106 50.8049 27.081C50.9847 27.7514 51.6738 28.1491 52.3442 27.9694L60.4364 25.7998C61.1067 25.62 61.5045 24.9309 61.3247 24.2605C61.145 23.5901 60.4558 23.1924 59.7855 23.3721Z" fill="#E2E5EC"/>
<path d="M67.7987 22.5238C67.6189 21.8535 66.9299 21.4558 66.2596 21.6355C65.5893 21.8152 65.1916 22.5043 65.3713 23.1746C65.551 23.8449 66.2401 24.2426 66.9104 24.0629C67.5807 23.8832 67.9784 23.1941 67.7987 22.5238Z" fill="#E2E5EC"/>
<path d="M62.0177 31.6959L56.7578 33.1062C56.0874 33.2859 55.6897 33.9751 55.8694 34.6455C56.0491 35.3158 56.7383 35.7136 57.4087 35.5338L62.6686 34.1236C63.3389 33.9438 63.7367 33.2547 63.5569 32.5843C63.3772 31.9139 62.688 31.5162 62.0177 31.6959Z" fill="#E2E5EC"/>
<path d="M70.0301 30.848C69.8504 30.1777 69.1613 29.78 68.491 29.9597C67.8207 30.1395 67.423 30.8285 67.6028 31.4988C67.7825 32.1691 68.4715 32.5668 69.1418 32.3871C69.8121 32.2074 70.2098 31.5183 70.0301 30.848Z" fill="#E2E5EC"/>
<path d="M64.249 40.0184L55.3476 42.405C54.6772 42.5848 54.2795 43.2739 54.4592 43.9443C54.639 44.6147 55.3281 45.0124 55.9985 44.8327L64.8999 42.4461C65.5702 42.2663 65.968 41.5772 65.7882 40.9068C65.6085 40.2364 64.9193 39.8387 64.249 40.0184Z" fill="#E2E5EC"/>
<path d="M72.2616 39.1722C72.0818 38.5019 71.3928 38.1043 70.7225 38.284C70.0522 38.4637 69.6545 39.1528 69.8342 39.8231C70.0139 40.4933 70.703 40.891 71.3733 40.7113C72.0436 40.5316 72.4413 39.8425 72.2616 39.1722Z" fill="#E2E5EC"/>
<path d="M66.481 48.3427L38.9677 55.7195C38.2974 55.8992 37.8996 56.5884 38.0794 57.2587C38.2591 57.9291 38.9482 58.3269 39.6186 58.1471L67.1319 50.7704C67.8023 50.5906 68.2 49.9015 68.0203 49.2311C67.8406 48.5607 67.1514 48.163 66.481 48.3427Z" fill="#E2E5EC"/>
<path d="M74.493 47.4945C74.3133 46.8242 73.6242 46.4265 72.9539 46.6062C72.2836 46.786 71.8859 47.475 72.0656 48.1453C72.2454 48.8156 72.9344 49.2133 73.6047 49.0336C74.275 48.8539 74.6727 48.1648 74.493 47.4945Z" fill="#E2E5EC"/>
<path d="M68.7125 56.665L41.1992 64.0417C40.5288 64.2215 40.1311 64.9106 40.3108 65.581C40.4905 66.2514 41.1797 66.6491 41.8501 66.4694L69.3634 59.0926C70.0337 58.9129 70.4315 58.2237 70.2517 57.5534C70.072 56.883 69.3828 56.4852 68.7125 56.665Z" fill="#E2E5EC"/>
<path d="M76.7244 55.8187C76.5447 55.1484 75.8557 54.7507 75.1854 54.9305C74.5151 55.1102 74.1174 55.7992 74.2971 56.4695C74.4768 57.1398 75.1659 57.5375 75.8362 57.3578C76.5065 57.1781 76.9042 56.489 76.7244 55.8187Z" fill="#E2E5EC"/>
<path d="M57.1873 68.6776L43.4306 72.366C42.7602 72.5457 42.3625 73.2349 42.5422 73.9052C42.722 74.5756 43.4111 74.9733 44.0815 74.7936L57.8382 71.1052C58.5085 70.9255 58.9063 70.2363 58.7265 69.566C58.5468 68.8956 57.8576 68.4978 57.1873 68.6776Z" fill="#E2E5EC"/>
<path d="M59.4187 76.9998L45.6621 80.6882C44.9917 80.868 44.5939 81.5571 44.7737 82.2275C44.9534 82.8979 45.6426 83.2956 46.313 83.1159L60.0696 79.4275C60.74 79.2478 61.1377 78.5586 60.958 77.8882C60.7782 77.2179 60.0891 76.8201 59.4187 76.9998Z" fill="#E2E5EC"/>
<path d="M61.6502 85.3241L47.8935 89.0124C47.2231 89.1922 46.8254 89.8813 47.0051 90.5517C47.1849 91.2221 47.874 91.6198 48.5444 91.4401L62.301 87.7517C62.9714 87.572 63.3692 86.8828 63.1894 86.2124C63.0097 85.5421 62.3205 85.1443 61.6502 85.3241Z" fill="#E2E5EC"/>
<path d="M72.1265 78.5688C72.6141 78.873 73.1869 79.0119 73.7597 78.9649L72.7246 75.1041C72.6569 75.0958 72.566 75.0902 72.4535 75.0879C72.341 75.0855 72.2189 75.0879 72.0893 75.0962C71.6 75.0963 71.1109 75.0718 70.6241 75.0228C70.1524 74.9799 69.6903 74.863 69.2549 74.6765C68.8278 74.4917 68.4463 74.2156 68.1372 73.8676C67.7833 73.4451 67.5338 72.9452 67.409 72.4084C67.2489 71.865 67.2145 71.2924 67.3083 70.7338C67.4021 70.1752 67.6217 69.6452 67.9505 69.184C68.2678 68.742 68.6622 68.3609 69.1148 68.059C69.5858 67.7413 70.0969 67.4876 70.6347 67.3046L70.2532 65.8816L71.3424 65.5895L71.7234 67.0105C72.2718 66.925 72.8285 66.9056 73.3815 66.9528C73.8951 66.9962 74.3969 67.1302 74.8637 67.3486C75.3293 67.5728 75.7443 67.8895 76.0834 68.2793C76.4703 68.7338 76.7603 69.2624 76.9358 69.8328L74.3128 70.5361C74.1891 70.0757 73.9059 69.6742 73.5137 69.4033C73.3426 69.276 73.1447 69.1892 72.9351 69.1493C72.7255 69.1095 72.5097 69.1178 72.3037 69.1734L73.1805 72.4435C73.3381 72.4411 73.4988 72.4371 73.6631 72.4334C73.8273 72.4297 74.002 72.4292 74.1864 72.4331C74.9852 72.4071 75.7821 72.5258 76.5386 72.7835C77.0546 72.968 77.5285 73.2538 77.9324 73.6241C78.2506 73.9246 78.5005 74.2899 78.6654 74.6953C78.7995 75.0337 78.9151 75.3791 79.0118 75.73C79.0912 76.084 79.1157 76.4481 79.0844 76.8095C79.0477 77.3006 78.9102 77.7789 78.6805 78.2146C78.393 78.7559 78.0099 79.2406 77.5496 79.6453C76.9287 80.1745 76.2058 80.5707 75.4257 80.8094L75.8481 82.385L74.7593 82.6769L74.3384 81.107C73.7532 81.2779 73.14 81.3319 72.5339 81.2658C71.9278 81.1997 71.3407 81.0149 70.806 80.7219C70.2714 80.4288 69.7997 80.0334 69.4179 79.5581C69.0361 79.0828 68.7516 78.5369 68.5808 77.9516C68.563 77.8853 68.5453 77.8193 68.5277 77.7534L71.1329 77.0549C71.19 77.3605 71.3072 77.6517 71.4777 77.9116C71.6483 78.1715 71.8688 78.3949 72.1265 78.5688ZM70.6283 69.7233C70.4495 69.8359 70.2938 69.9815 70.1696 70.1524C70.0448 70.3258 69.9603 70.5248 69.922 70.7349C69.882 70.9723 69.8964 71.2156 69.9641 71.4466C70.001 71.6256 70.0778 71.794 70.1888 71.9392C70.2998 72.0844 70.4422 72.2027 70.6053 72.2852C71.0569 72.4577 71.5423 72.5238 72.0236 72.4783L71.2163 69.4672C71.0084 69.5219 70.8101 69.608 70.6281 69.7225L70.6283 69.7233ZM75.5003 78.3282C75.7133 78.1892 75.9012 78.0152 76.0562 77.8135C76.2073 77.6133 76.3174 77.3853 76.3802 77.1425C76.446 76.8727 76.4389 76.5902 76.3594 76.324C76.3196 76.117 76.2316 75.9223 76.1027 75.7555C75.9737 75.5887 75.8074 75.4545 75.6171 75.3638C75.0647 75.176 74.4818 75.0939 73.899 75.1219L74.8502 78.6695C75.0777 78.5778 75.2951 78.4628 75.4989 78.3264L75.5003 78.3282Z" fill="#4573D2"/>
<path d="M42.5775 42.9007C42.4199 42.9006 42.2652 42.8589 42.1289 42.7796L37.2309 39.952C37.1287 39.8929 37.039 39.8143 36.9671 39.7206C36.8952 39.6269 36.8425 39.52 36.8119 39.4059C36.7813 39.2918 36.7735 39.1729 36.7889 39.0558C36.8044 38.9387 36.8427 38.8258 36.9017 38.7235C36.9608 38.6212 37.0394 38.5316 37.1331 38.4597C37.2268 38.3878 37.3337 38.335 37.4478 38.3045C37.6782 38.2427 37.9236 38.275 38.1302 38.3943L42.2768 40.7876L46.2559 34.4244C46.3185 34.3243 46.4002 34.2375 46.4964 34.1689C46.5926 34.1004 46.7013 34.0515 46.8164 34.0249C46.9315 33.9984 47.0506 33.9948 47.1671 34.0143C47.2836 34.0339 47.3951 34.0762 47.4952 34.1388C47.5954 34.2014 47.6822 34.2831 47.7507 34.3793C47.8193 34.4755 47.8682 34.5842 47.8947 34.6993C47.9213 34.8144 47.9249 34.9336 47.9053 35.0501C47.8858 35.1665 47.8435 35.278 47.7809 35.3782L43.3411 42.4776C43.2602 42.6072 43.1477 42.714 43.0141 42.788C42.8805 42.862 42.7303 42.9008 42.5775 42.9007Z" fill="#4573D2"/>
<path d="M42.4296 47.4003C40.1498 47.3979 37.9522 46.5487 36.2631 45.0176C34.574 43.4865 33.5139 41.3826 33.2883 39.114C33.0627 36.8454 33.6878 34.5739 35.0424 32.7402C36.3969 30.9064 38.3842 29.6411 40.6189 29.1898C42.8535 28.7385 45.1762 29.1333 47.1362 30.2977C49.0962 31.462 50.5539 33.3129 51.2264 35.4912C51.8989 37.6695 51.7384 40.02 50.7759 42.0866C49.8134 44.1532 48.1176 45.7887 46.0175 46.6757C44.882 47.1546 43.662 47.401 42.4296 47.4003ZM42.4296 30.2275C40.5723 30.2179 38.7685 30.849 37.3223 32.0144C35.8761 33.1797 34.876 34.8081 34.4906 36.625C34.1052 38.4419 34.358 40.3361 35.2065 41.9883C36.055 43.6404 37.4472 44.9495 39.1484 45.6948C40.8497 46.44 42.7558 46.5759 44.5456 46.0794C46.3353 45.583 47.8991 44.4846 48.9733 42.9695C50.0476 41.4544 50.5665 39.6152 50.4427 37.762C50.3188 35.9088 49.5598 34.155 48.2935 32.7963C48.216 32.7155 48.1364 32.6363 48.056 32.5584C47.319 31.8169 46.4422 31.2289 45.4765 30.8285C44.5107 30.4281 43.4751 30.2233 42.4296 30.2258V30.2275Z" fill="#4573D2"/>
<path d="M120.896 68.6711C123.816 68.9007 126.834 66.9538 127.975 64.3448C129.116 61.7358 133.081 56.6958 137.133 60.6619C141.186 64.628 136.172 68.3623 133.392 69.9485C130.611 71.5347 130.154 73.3865 129.974 78.0797C129.974 78.0797 117.977 68.4433 120.896 68.6711Z" fill="#B0B5C0"/>
<path d="M128.901 77.2057L128.211 74.0404C128.211 74.0404 127.902 71.0293 129.581 69.3539C131.26 67.6785 139.366 64.244 138.118 62.038C138.042 61.912 137.986 61.7754 137.951 61.6328C140.374 65.2249 135.94 68.4925 133.39 69.9492C130.608 71.5363 130.152 73.3869 129.973 78.0814C129.974 78.0814 129.558 77.7476 128.901 77.2057Z" fill="#8A90A7"/>
<path d="M126.291 71.3915C131.438 76.4596 131.033 81.5582 131.033 81.5582C131.033 81.5582 125.79 87.8874 125.049 88.6544C123.422 90.3373 118.431 88.1517 113.9 83.7718C109.369 79.392 107.018 74.481 108.644 72.798C109.391 72.0257 116.479 66.2188 116.479 66.2188C116.479 66.2188 121.144 66.321 126.291 71.3915Z" fill="#B0B5C0"/>
<path d="M118.793 82.0932L128.223 73.6152C131.329 77.851 131.033 81.5566 131.033 81.5566C131.033 81.5566 125.79 87.8872 125.049 88.6537C124.987 88.7172 124.92 88.7756 124.849 88.8283L118.793 82.0932Z" fill="#8A90A7"/>
<path d="M125.046 88.7002C126.703 86.9855 124.37 82.0411 119.834 77.6567C115.299 73.2723 110.278 71.1081 108.62 72.8229C106.963 74.5376 109.296 79.482 113.832 83.8664C118.368 88.2508 123.388 90.415 125.046 88.7002Z" fill="#4369B6"/>
<path d="M124.399 88.0761C125.884 86.5398 123.701 82.0199 119.522 77.9807C115.343 73.9414 110.752 71.9124 109.267 73.4487C107.782 74.985 109.966 79.5049 114.144 83.5442C118.323 87.5834 122.914 89.6124 124.399 88.0761Z" fill="#CED3DF"/>
<path d="M114.645 82.8372C114.513 82.8371 114.384 82.7985 114.274 82.7262C114.164 82.6539 114.078 82.5509 114.026 82.4301L112.671 79.2833C112.606 79.1201 112.607 78.938 112.674 78.7757C112.742 78.6135 112.87 78.4839 113.031 78.4144C113.192 78.3449 113.374 78.3411 113.538 78.4037C113.702 78.4663 113.836 78.5904 113.91 78.7496L115.066 81.4328L120.775 80.7442C120.952 80.7228 121.131 80.7729 121.272 80.8835C121.413 80.994 121.504 81.156 121.525 81.3338C121.547 81.5115 121.497 81.6904 121.386 81.8312C121.276 81.972 121.114 82.0631 120.936 82.0845L114.726 82.8339C114.699 82.8367 114.672 82.8379 114.645 82.8372Z" fill="#4369B6"/>
</g>
<defs>
<clipPath id="clip0_304_10110">
<rect width="160" height="120.238" fill="white"/>
</clipPath>
</defs>
</svg>
