<svg width="600" height="336" viewBox="0 0 600 336" fill="none" xmlns="http://www.w3.org/2000/svg">
<g clip-path="url(#clip0_9_51202)">
<mask id="mask0_9_51202" style="mask-type:alpha" maskUnits="userSpaceOnUse" x="-1" y="0" width="602" height="336">
<path d="M600.002 229.581C600.002 157.322 530.282 90.0623 435.089 127.085C353.498 158.818 385.947 0 181.481 0C111.387 0 0.143857 53.862 0.143857 156.644C-2.40353 249.68 25.1096 350.784 385.816 334.04C496.101 328.925 600.002 328.532 600.002 229.581Z" fill="#F6F6F6"/>
</mask>
<g mask="url(#mask0_9_51202)">
<path d="M600.002 229.581C600.002 157.322 530.282 90.0623 435.089 127.085C353.498 158.818 385.947 0 181.481 0C111.387 0 0.143857 53.862 0.143857 156.644C-2.40353 249.68 25.1096 350.784 385.816 334.04C496.101 328.925 600.002 328.532 600.002 229.581Z" fill="#BEBEBE" fill-opacity="0.14"/>
<path d="M750.307 244.09H-237.769V420.388H750.307V244.09Z" fill="#CED3DF"/>
<path d="M104.032 279.174C120.253 279.174 164.021 281.461 164.021 284.28C164.021 287.099 135.842 289.925 119.612 290.024C102.187 290.123 53.9945 287.152 54.3833 284.28C54.7766 281.487 87.8131 279.174 104.032 279.174Z" fill="#8A90A7"/>
<path d="M648.272 255.216C664.493 255.216 677.641 257.503 677.641 260.322C677.641 263.141 664.493 265.43 648.272 265.43C644.218 265.43 487.517 265.287 484.004 265.03C473.463 264.255 475.684 255.121 486.214 254.346C489.74 254.076 644.218 255.216 648.272 255.216Z" fill="#8A90A7"/>
<path d="M149.574 269.223C147.773 269.223 119.228 305.677 108.053 320.038C107.64 320.56 107.383 321.188 107.312 321.85C107.241 322.512 107.358 323.181 107.649 323.779C107.941 324.377 108.396 324.881 108.961 325.232C109.527 325.584 110.18 325.768 110.846 325.765C178.099 325.884 692.203 326.783 699.801 325.4C724.195 320.961 724.195 275.948 699.801 271.509C691.673 270.04 158.959 269.223 149.574 269.223Z" fill="#8A90A7"/>
<mask id="mask1_9_51202" style="mask-type:alpha" maskUnits="userSpaceOnUse" x="56" y="217" width="71" height="70">
<path d="M59.5488 284.811C59.5488 284.811 56.3496 221.403 56.3297 220.254C56.3099 219.105 68.4812 217.976 83.5049 217.713C98.5285 217.45 110.742 218.155 110.76 219.302V230.594C112.126 230.21 113.538 230.01 114.957 229.999C116.326 229.943 117.692 230.172 118.968 230.671C120.244 231.171 121.402 231.93 122.37 232.9C125.105 235.724 126.391 240.523 126.185 247.171C126.262 253.802 124.612 260.339 121.398 266.14C119.087 269.929 116.038 272.287 113.464 272.287C112.943 272.3 112.426 272.192 111.954 271.97C111.482 271.748 111.07 271.418 110.748 271.007V284.221C101.942 285.461 93.0714 286.188 84.1809 286.398C83.6617 286.398 83.1425 286.398 82.6344 286.398C74.9131 286.365 67.2019 285.835 59.5488 284.811ZM113.919 268.531C115.711 268.531 117.604 266.889 119.106 264.035C121.137 259.74 122.214 255.058 122.264 250.308C122.679 242.065 120.81 238.273 119.171 236.546C118.682 235.999 118.085 235.56 117.418 235.256C116.751 234.952 116.028 234.789 115.295 234.778C114.4 234.788 113.52 235.017 112.734 235.446C111.948 235.875 111.279 236.49 110.786 237.237V265.787C111.433 267.528 112.529 268.524 113.926 268.524L113.919 268.531Z" fill="#DBDBDB"/>
</mask>
<g mask="url(#mask1_9_51202)">
<path d="M59.549 284.811C59.549 284.811 56.3499 221.403 56.33 220.254C56.3101 219.105 68.4815 217.976 83.5051 217.713C98.5287 217.45 110.742 218.155 110.76 219.302V230.594C112.126 230.21 113.538 230.01 114.958 229.999C116.327 229.943 117.692 230.172 118.968 230.671C120.244 231.171 121.403 231.93 122.37 232.9C125.105 235.724 126.391 240.523 126.185 247.171C126.262 253.802 124.612 260.339 121.398 266.14C119.087 269.929 116.038 272.287 113.464 272.287C112.943 272.3 112.426 272.192 111.954 271.97C111.483 271.748 111.07 271.418 110.749 271.007V284.221C101.942 285.461 93.0717 286.188 84.1812 286.398C83.662 286.398 83.1428 286.398 82.6346 286.398C74.9133 286.365 67.2022 285.835 59.549 284.811ZM113.919 268.531C115.711 268.531 117.604 266.889 119.107 264.035C121.137 259.74 122.214 255.058 122.264 250.308C122.679 242.065 120.81 238.273 119.171 236.546C118.682 235.999 118.085 235.56 117.418 235.256C116.751 234.952 116.029 234.789 115.296 234.778C114.4 234.788 113.521 235.017 112.735 235.446C111.948 235.875 111.279 236.49 110.786 237.237V265.787C111.434 267.528 112.529 268.524 113.926 268.524L113.919 268.531Z" fill="#DBDBDB"/>
<path opacity="0.18" d="M131.388 202.189H46.6682V300.742H131.388V202.189Z" fill="#DBDBDB"/>
<path d="M94.4788 287.865L94.4986 223.332C94.4986 223.332 116.011 223.129 110.824 217.126C105.636 211.123 128.94 231.849 128.94 231.849L126.375 268.414L123.061 280.477L111.52 287.865H94.4788Z" fill="#F6F6F6"/>
</g>
<path d="M83.1746 222.701C96.613 222.406 107.487 221.24 107.462 220.097C107.436 218.954 96.5221 218.266 83.0837 218.561C69.6452 218.856 58.7716 220.022 58.7967 221.165C58.8218 222.308 69.7361 222.996 83.1746 222.701Z" fill="#8A90A7"/>
</g>
<mask id="mask2_9_51202" style="mask-type:alpha" maskUnits="userSpaceOnUse" x="458" y="109" width="109" height="118">
<path fill-rule="evenodd" clip-rule="evenodd" d="M516.643 207.248C524.669 182.554 535.166 158.336 551.089 138.149C550.546 144.543 548.036 157.276 548.036 157.276C544.442 169.067 539.967 180.571 534.647 191.691C530.381 199.305 527.513 203.819 524.783 208.117C522.016 212.472 519.39 216.606 515.591 223.519C530.292 202.462 545.636 181.31 566.493 166.407C559.757 188.879 539.462 205.411 520.734 220.667L520.733 220.668L520.731 220.669L520.728 220.672L520.726 220.674C518.541 222.454 516.378 224.216 514.259 225.969C514.117 226.234 513.972 226.503 513.826 226.776L513.82 226.769L513.821 226.771L513.826 226.777L513.822 226.776L513.826 226.793L513.77 226.757C513.663 226.718 513.556 226.679 513.449 226.64L513.369 226.707L513.422 226.631C492.522 219.005 466.804 203.902 458.844 182.352C473.339 187.59 482.559 193.676 490.495 201.048C482.21 187.573 476.52 172.572 473.817 156.819C472.434 148.463 472.606 139.925 474.323 131.632C476.944 133.967 479.074 136.8 480.591 139.966C488.938 155.513 496.143 171.628 502.158 188.181C500.207 180.191 498.555 172.111 497.629 163.707C495.825 147.288 497.712 130.673 503.153 115.077C508.97 136.729 511.226 159.051 511.855 181.506C512.417 176.224 513.171 170.959 514.118 165.722C517.639 146.013 524.391 127.022 534.102 109.514C536.483 133.071 530.303 155.383 524.056 177.936C521.373 187.623 518.678 197.355 516.643 207.248Z" fill="#B0B5C0"/>
</mask>
<g mask="url(#mask2_9_51202)">
<path fill-rule="evenodd" clip-rule="evenodd" d="M516.643 207.248C524.669 182.554 535.166 158.336 551.089 138.149C550.546 144.543 548.036 157.276 548.036 157.276C544.442 169.067 539.967 180.571 534.647 191.691C530.381 199.305 527.513 203.819 524.783 208.117C522.016 212.472 519.39 216.606 515.591 223.519C530.292 202.462 545.636 181.31 566.493 166.407C559.757 188.879 539.462 205.411 520.734 220.667L520.733 220.668L520.731 220.669L520.728 220.672L520.726 220.674C518.541 222.454 516.378 224.216 514.259 225.969C514.117 226.234 513.972 226.503 513.826 226.776L513.82 226.769L513.821 226.771L513.826 226.777L513.822 226.776L513.826 226.793L513.77 226.757C513.663 226.718 513.556 226.679 513.449 226.64L513.369 226.707L513.422 226.631C492.522 219.005 466.804 203.902 458.844 182.352C473.339 187.59 482.559 193.676 490.495 201.048C482.21 187.573 476.52 172.572 473.817 156.819C472.434 148.463 472.606 139.925 474.323 131.632C476.944 133.967 479.074 136.8 480.591 139.966C488.938 155.513 496.143 171.628 502.158 188.181C500.207 180.191 498.555 172.111 497.629 163.707C495.825 147.288 497.712 130.673 503.153 115.077C508.97 136.729 511.226 159.051 511.855 181.506C512.417 176.224 513.171 170.959 514.118 165.722C517.639 146.013 524.391 127.022 534.102 109.514C536.483 133.071 530.303 155.383 524.056 177.936C521.373 187.623 518.678 197.355 516.643 207.248Z" fill="#B0B5C0"/>
<path fill-rule="evenodd" clip-rule="evenodd" d="M566.254 156.892C535.261 135.684 493.151 142.228 461.469 158.83C461.439 158.843 461.406 158.844 461.375 158.832C461.345 158.82 461.321 158.797 461.308 158.768C461.294 158.738 461.294 158.705 461.305 158.674C461.317 158.644 461.34 158.62 461.369 158.606C477.289 149.51 495.051 144.115 513.34 142.821C531.097 141.544 553.246 143.198 566.824 156.247C567.187 156.592 566.652 157.162 566.254 156.892ZM487.751 153.145C487.767 153.149 487.783 153.15 487.798 153.147C487.814 153.145 487.829 153.14 487.842 153.131C487.855 153.123 487.867 153.112 487.876 153.099C487.885 153.087 487.892 153.072 487.895 153.057C487.903 153.029 487.9 153 487.888 152.975C487.875 152.949 487.853 152.93 487.827 152.92C487.811 152.916 487.795 152.915 487.779 152.917C487.763 152.92 487.747 152.925 487.734 152.934C487.72 152.942 487.708 152.953 487.698 152.967C487.689 152.98 487.682 152.995 487.679 153.01C487.673 153.038 487.677 153.066 487.691 153.091C487.704 153.116 487.725 153.135 487.751 153.145ZM580.226 185.053C545.721 168.794 506.73 164.685 469.593 173.392C469.325 173.458 469.246 173.047 469.507 172.979C506.707 163.121 546.215 167.005 580.783 183.919C581.424 184.244 580.872 185.349 580.226 185.053ZM469.148 179.567C484.515 173.16 502.996 172.603 519.385 173.909C535.723 175.253 551.719 179.339 566.701 185.996C567.142 186.19 567.383 185.475 566.943 185.274C551.226 178.307 534.405 174.161 517.251 173.025C501.52 172.013 483.525 172.614 468.914 179.081C468.594 179.22 468.835 179.693 469.153 179.56L469.148 179.567ZM575.403 201.192C541.837 191.159 502.278 187.218 468.753 199.909C468.455 200.017 468.227 199.586 468.53 199.462C484.296 193.323 501.163 190.516 518.068 191.219C537.011 191.369 558.179 192.377 575.657 200.445C575.75 200.482 575.825 200.553 575.869 200.642C575.912 200.731 575.921 200.834 575.894 200.929C575.879 200.979 575.854 201.025 575.822 201.065C575.789 201.105 575.749 201.138 575.703 201.162C575.658 201.187 575.608 201.202 575.556 201.207C575.505 201.212 575.453 201.207 575.403 201.192ZM466.369 206.183C480.82 199.866 496.297 196.221 512.048 195.425C519.192 195.209 526.341 195.683 533.395 196.839C538.549 197.695 543.47 199.154 548.405 200.617L548.405 200.617C551.117 201.421 553.832 202.226 556.593 202.933C557.379 203.134 558.08 202.011 557.271 201.561C543.991 194.179 526.104 192.538 511.188 193.187C495.361 193.6 479.868 197.834 466.029 205.526C465.941 205.57 465.874 205.647 465.843 205.74C465.812 205.833 465.819 205.935 465.862 206.022C465.906 206.11 465.983 206.177 466.076 206.209C466.169 206.24 466.27 206.233 466.358 206.189L466.369 206.183ZM546.432 210.75C524.365 204.4 503.473 203.892 481.779 212.193C481.346 212.369 481.026 211.742 481.461 211.545C501.326 202.86 526.47 201.338 546.681 209.999C546.694 210.002 546.707 210.005 546.719 210.01C546.728 210.013 546.737 210.017 546.746 210.021C546.836 210.067 546.905 210.145 546.939 210.24C546.974 210.335 546.97 210.44 546.931 210.533C546.891 210.625 546.817 210.699 546.724 210.74C546.632 210.78 546.527 210.784 546.432 210.75ZM506.425 210.993C497.225 212.423 488.268 215.124 479.811 219.017L479.826 219.022C478.982 219.375 478.032 218.2 478.876 217.608C493.511 207.365 517.807 204.071 534.435 210.92C535.343 211.298 535.155 212.891 534.073 212.743C524.97 210.974 515.678 210.386 506.425 210.993ZM538.24 216.993C519.982 212.443 500.746 213.867 483.357 221.056H483.339C482.855 221.273 482.48 220.515 482.979 220.294C500.343 212.169 520.106 210.784 538.434 216.408C538.818 216.538 538.6 217.075 538.24 216.993ZM496.485 223.436C508.685 220.195 521.471 219.83 533.837 222.371C534.327 222.45 534.449 221.673 533.996 221.525C521.635 217.903 508.45 218.247 496.295 222.508C495.725 222.687 495.897 223.608 496.485 223.436Z" fill="#8A90A7"/>
</g>
<path d="M538.014 210.248H477.113V261.178H538.014V210.248Z" fill="#E89C2E"/>
<path d="M526.048 210.248H538.012V261.178H526.048V210.248Z" fill="#C98A30"/>
<path d="M163.216 78.4883H443.295C446.647 78.4883 449.862 79.82 452.232 82.1904C454.603 84.5608 455.934 87.7758 455.934 91.128V255.356C455.934 256.809 455.357 258.203 454.33 259.231C453.302 260.258 451.908 260.836 450.455 260.836H156.056C154.603 260.836 153.209 260.258 152.181 259.231C151.154 258.203 150.577 256.809 150.577 255.356V91.128C150.577 87.7758 151.908 84.5608 154.279 82.1904C156.649 79.82 159.864 78.4883 163.216 78.4883V78.4883Z" fill="#30384D"/>
<path d="M164.376 246.512L441.629 246.512V92.0267L164.376 92.0267V246.512Z" fill="white"/>
<path d="M491.185 320.678H112.456C111.516 320.716 110.584 320.483 109.771 320.008C108.959 319.532 108.3 318.833 107.873 317.994C107.446 317.154 107.269 316.21 107.363 315.273C107.456 314.337 107.817 313.446 108.402 312.708L149.255 262.64C150.031 261.69 151.008 260.924 152.117 260.397C153.225 259.871 154.436 259.598 155.663 259.598H452.114C453.037 259.598 453.946 259.811 454.773 260.221C455.599 260.631 456.319 261.226 456.878 261.959L495.453 312.624C496.02 313.391 496.358 314.302 496.429 315.252C496.501 316.202 496.302 317.153 495.855 317.995C495.409 318.837 494.734 319.536 493.907 320.011C493.081 320.485 492.137 320.716 491.185 320.678Z" fill="#C3C3C3"/>
<path d="M108.413 312.708L149.417 262.457C150.146 261.564 151.064 260.844 152.105 260.349C153.147 259.855 154.285 259.598 155.437 259.598H452.174C453.081 259.598 453.977 259.808 454.789 260.211C455.602 260.614 456.311 261.2 456.86 261.922L495.453 312.624C495.243 313.197 109.317 312.375 108.413 312.708Z" fill="#F6F6F6"/>
<path d="M145.044 284.027L142.172 287.511C142.068 287.637 142.002 287.791 141.982 287.953C141.961 288.115 141.987 288.28 142.057 288.428C142.126 288.577 142.236 288.702 142.374 288.79C142.512 288.879 142.671 288.926 142.835 288.927H157.088C157.222 288.927 157.355 288.896 157.475 288.837C157.595 288.777 157.7 288.69 157.781 288.583L160.313 285.218C160.41 285.09 160.47 284.938 160.486 284.779C160.502 284.619 160.473 284.459 160.402 284.315C160.332 284.171 160.223 284.049 160.087 283.964C159.952 283.878 159.795 283.832 159.635 283.83C155.998 283.797 147.674 283.724 145.696 283.711C145.571 283.713 145.448 283.742 145.335 283.796C145.222 283.851 145.123 283.93 145.044 284.027Z" fill="#30384D"/>
<path d="M165.702 284.152L163.336 287.331C163.231 287.476 163.167 287.647 163.153 287.826C163.139 288.004 163.174 288.183 163.255 288.343C163.336 288.503 163.459 288.638 163.611 288.732C163.764 288.826 163.939 288.877 164.118 288.878H178.211C178.362 288.878 178.511 288.843 178.646 288.775C178.781 288.708 178.899 288.61 178.989 288.489L181.384 285.31C181.493 285.166 181.56 284.994 181.577 284.814C181.595 284.634 181.561 284.452 181.481 284.29C181.4 284.128 181.276 283.992 181.123 283.896C180.969 283.801 180.792 283.75 180.611 283.75H166.471C166.32 283.751 166.172 283.788 166.038 283.858C165.904 283.928 165.789 284.029 165.702 284.152Z" fill="#30384D"/>
<path d="M187.097 284.182L184.747 287.438C184.647 287.575 184.587 287.737 184.574 287.906C184.561 288.075 184.595 288.244 184.672 288.395C184.749 288.545 184.866 288.672 185.011 288.76C185.156 288.848 185.322 288.895 185.491 288.894H199.711C199.864 288.894 200.016 288.856 200.151 288.782C200.286 288.709 200.4 288.603 200.484 288.474L202.576 285.229C202.667 285.091 202.718 284.931 202.725 284.766C202.732 284.601 202.694 284.438 202.616 284.293C202.538 284.148 202.422 284.026 202.28 283.942C202.138 283.857 201.977 283.813 201.812 283.813H187.831C187.688 283.811 187.547 283.844 187.419 283.908C187.292 283.972 187.181 284.066 187.097 284.182Z" fill="#30384D"/>
<path d="M207.238 284.249L205.196 287.218C205.086 287.379 205.022 287.567 205.01 287.761C204.999 287.956 205.041 288.15 205.132 288.323C205.223 288.495 205.36 288.639 205.527 288.74C205.694 288.84 205.885 288.893 206.08 288.893H225.914C226.113 288.893 226.309 288.838 226.479 288.732C226.648 288.627 226.785 288.476 226.872 288.296L228.322 285.351C228.404 285.189 228.443 285.008 228.436 284.826C228.429 284.644 228.375 284.467 228.279 284.312C228.184 284.157 228.051 284.029 227.892 283.94C227.733 283.851 227.554 283.805 227.372 283.805H208.086C207.919 283.803 207.754 283.842 207.606 283.92C207.458 283.997 207.331 284.11 207.238 284.249Z" fill="#30384D"/>
<path d="M232.168 284.237L230.69 287.398C230.617 287.555 230.585 287.728 230.596 287.901C230.607 288.073 230.662 288.24 230.755 288.386C230.848 288.532 230.976 288.653 231.128 288.736C231.279 288.819 231.45 288.863 231.623 288.863L331.738 288.934C331.889 288.934 332.039 288.901 332.177 288.837C332.314 288.772 332.435 288.678 332.532 288.562C332.629 288.445 332.699 288.308 332.737 288.161C332.775 288.014 332.78 287.861 332.752 287.712L332.166 284.619C332.122 284.384 331.997 284.171 331.813 284.018C331.63 283.865 331.398 283.78 331.159 283.779L233.094 283.645C232.899 283.645 232.709 283.7 232.545 283.805C232.381 283.91 232.25 284.06 232.168 284.237Z" fill="#30384D"/>
<path d="M356.405 284.345L357.951 287.69C358.014 287.825 358.041 287.974 358.031 288.122C358.021 288.27 357.973 288.414 357.893 288.539C357.813 288.664 357.702 288.767 357.571 288.838C357.44 288.909 357.294 288.946 357.145 288.945L336.364 288.914C336.158 288.914 335.959 288.842 335.8 288.711C335.642 288.58 335.534 288.398 335.496 288.196L334.833 284.796C334.808 284.668 334.812 284.537 334.844 284.411C334.875 284.285 334.935 284.168 335.017 284.068C335.099 283.967 335.202 283.886 335.32 283.83C335.437 283.774 335.565 283.745 335.694 283.744L355.61 283.833C355.778 283.832 355.942 283.88 356.083 283.971C356.225 284.062 356.336 284.192 356.405 284.345Z" fill="#30384D"/>
<path d="M377.8 284.094L379.747 288.274C379.781 288.342 379.798 288.419 379.794 288.495C379.79 288.572 379.766 288.646 379.725 288.711C379.684 288.775 379.626 288.828 379.559 288.864C379.491 288.9 379.415 288.917 379.338 288.915L361.703 288.904C361.618 288.905 361.534 288.881 361.462 288.835C361.39 288.79 361.332 288.725 361.297 288.647L359.288 284.436C359.253 284.368 359.236 284.292 359.239 284.216C359.242 284.139 359.265 284.065 359.305 284C359.345 283.935 359.402 283.882 359.469 283.845C359.536 283.808 359.612 283.79 359.688 283.791L377.407 283.833C377.491 283.833 377.573 283.858 377.643 283.904C377.713 283.95 377.768 284.016 377.8 284.094Z" fill="#30384D"/>
<path d="M398.8 284.237L400.555 287.688C400.617 287.813 400.647 287.951 400.642 288.09C400.636 288.229 400.595 288.365 400.523 288.483C400.45 288.602 400.348 288.701 400.227 288.769C400.106 288.838 399.969 288.874 399.83 288.875L383.134 288.919C382.971 288.92 382.812 288.872 382.677 288.782C382.542 288.692 382.437 288.563 382.376 288.413L380.964 284.96C380.912 284.837 380.891 284.703 380.903 284.57C380.915 284.437 380.96 284.31 381.034 284.198C381.107 284.087 381.207 283.996 381.324 283.932C381.442 283.869 381.573 283.836 381.707 283.835L398.082 283.791C398.232 283.791 398.378 283.833 398.505 283.912C398.632 283.991 398.734 284.103 398.8 284.237Z" fill="#30384D"/>
<path d="M419.312 284.267L421.442 287.479C421.537 287.622 421.591 287.789 421.598 287.96C421.606 288.132 421.567 288.303 421.485 288.454C421.404 288.605 421.282 288.731 421.135 288.819C420.987 288.907 420.818 288.953 420.647 288.953L404.739 288.9C404.574 288.899 404.412 288.855 404.269 288.773C404.127 288.691 404.007 288.573 403.924 288.431L402.05 285.252C401.965 285.108 401.92 284.943 401.919 284.776C401.918 284.608 401.962 284.444 402.045 284.298C402.128 284.153 402.248 284.032 402.393 283.948C402.538 283.864 402.703 283.82 402.87 283.82C406.747 283.82 416.239 283.836 418.526 283.842C418.682 283.842 418.835 283.881 418.972 283.955C419.11 284.029 419.227 284.136 419.312 284.267Z" fill="#30384D"/>
<path d="M439.473 284.162L441.996 287.56C442.091 287.688 442.149 287.839 442.163 287.997C442.177 288.156 442.147 288.315 442.075 288.457C442.004 288.599 441.894 288.718 441.759 288.801C441.623 288.885 441.467 288.928 441.308 288.928L425.638 288.913C425.493 288.913 425.351 288.876 425.224 288.806C425.098 288.736 424.992 288.635 424.915 288.513L422.781 285.132C422.696 285.003 422.647 284.853 422.64 284.698C422.634 284.543 422.669 284.39 422.743 284.253C422.817 284.117 422.927 284.004 423.06 283.925C423.194 283.846 423.346 283.806 423.501 283.807C427.257 283.807 436.7 283.807 438.799 283.807C438.931 283.809 439.061 283.842 439.178 283.904C439.295 283.966 439.396 284.054 439.473 284.162Z" fill="#30384D"/>
<path d="M460.081 284.204L462.452 287.388C462.56 287.532 462.626 287.703 462.643 287.882C462.659 288.061 462.625 288.241 462.544 288.402C462.463 288.563 462.34 288.698 462.186 288.792C462.033 288.886 461.856 288.936 461.677 288.935L446.103 288.915C445.948 288.914 445.795 288.877 445.657 288.805C445.52 288.734 445.401 288.631 445.312 288.504L443.103 285.34C443 285.197 442.94 285.028 442.927 284.852C442.915 284.676 442.951 284.501 443.031 284.344C443.112 284.187 443.233 284.056 443.384 283.964C443.534 283.872 443.706 283.823 443.882 283.822C447.873 283.822 457.139 283.822 459.324 283.822C459.471 283.823 459.616 283.857 459.748 283.924C459.879 283.99 459.994 284.086 460.081 284.204Z" fill="#30384D"/>
<path d="M456.427 278.555L458.237 281.277C458.32 281.403 458.368 281.55 458.376 281.702C458.383 281.853 458.349 282.004 458.277 282.137C458.205 282.271 458.099 282.383 457.969 282.461C457.839 282.539 457.69 282.58 457.538 282.58L441.593 282.611C441.448 282.612 441.305 282.575 441.178 282.504C441.052 282.433 440.946 282.33 440.871 282.205L439.223 279.45C439.147 279.323 439.105 279.178 439.104 279.03C439.102 278.881 439.139 278.735 439.212 278.606C439.285 278.477 439.391 278.37 439.519 278.296C439.647 278.221 439.793 278.182 439.941 278.182C443.697 278.182 453.517 278.182 455.731 278.182C455.869 278.182 456.004 278.217 456.126 278.282C456.247 278.347 456.351 278.441 456.427 278.555Z" fill="#30384D"/>
<path d="M149.574 278.349L147.296 281.146C147.195 281.271 147.131 281.422 147.112 281.582C147.093 281.741 147.12 281.903 147.189 282.048C147.259 282.193 147.368 282.315 147.504 282.4C147.64 282.485 147.798 282.53 147.959 282.529H187.285C187.421 282.529 187.556 282.496 187.676 282.433C187.797 282.37 187.901 282.279 187.979 282.167L189.857 279.481C189.945 279.354 189.996 279.207 190.006 279.053C190.016 278.9 189.984 278.747 189.913 278.61C189.842 278.474 189.736 278.36 189.605 278.279C189.474 278.199 189.323 278.156 189.17 278.155C182.084 278.155 154.017 278.19 150.274 278.044C150.141 278.037 150.009 278.06 149.887 278.113C149.766 278.166 149.658 278.247 149.574 278.349Z" fill="#30384D"/>
<path d="M193.827 278.326L191.43 281.711C191.372 281.794 191.338 281.891 191.331 281.992C191.324 282.093 191.345 282.194 191.392 282.284C191.439 282.374 191.509 282.45 191.596 282.503C191.682 282.555 191.781 282.583 191.883 282.584H208.586C208.682 282.583 208.777 282.558 208.861 282.51C208.944 282.462 209.014 282.393 209.063 282.31L211 278.996C211.049 278.912 211.075 278.817 211.076 278.72C211.076 278.623 211.051 278.528 211.003 278.444C210.956 278.36 210.886 278.29 210.803 278.241C210.719 278.192 210.624 278.166 210.528 278.165C207.198 278.141 196.18 278.07 194.269 278.099C194.183 278.099 194.097 278.12 194.021 278.159C193.944 278.199 193.877 278.256 193.827 278.326Z" fill="#30384D"/>
<path d="M214.047 278.451L212.218 281.721C212.17 281.806 212.145 281.902 212.146 281.999C212.146 282.096 212.173 282.192 212.222 282.276C212.271 282.36 212.342 282.43 212.426 282.478C212.511 282.527 212.606 282.552 212.704 282.552H228.795C228.9 282.552 229.003 282.522 229.092 282.465C229.182 282.409 229.253 282.329 229.298 282.234L230.845 278.961C230.886 278.877 230.904 278.784 230.899 278.69C230.894 278.597 230.865 278.506 230.816 278.427C230.766 278.347 230.697 278.282 230.615 278.236C230.533 278.191 230.441 278.166 230.348 278.166H214.529C214.43 278.164 214.333 278.19 214.248 278.241C214.163 278.291 214.093 278.364 214.047 278.451Z" fill="#30384D"/>
<path d="M234.683 278.478L233.063 281.837C233.024 281.918 233.006 282.008 233.011 282.099C233.016 282.189 233.044 282.277 233.092 282.353C233.14 282.43 233.207 282.493 233.286 282.537C233.365 282.58 233.454 282.603 233.545 282.603H249.713C249.823 282.603 249.93 282.569 250.02 282.506C250.109 282.443 250.177 282.353 250.214 282.25L251.432 278.892C251.462 278.812 251.473 278.726 251.463 278.642C251.453 278.557 251.422 278.477 251.374 278.406C251.326 278.336 251.262 278.278 251.187 278.238C251.112 278.198 251.029 278.177 250.943 278.176H235.151C235.052 278.176 234.956 278.205 234.873 278.259C234.79 278.313 234.724 278.389 234.683 278.478Z" fill="#30384D"/>
<path d="M254.052 278.822L253.195 281.553C253.156 281.684 253.148 281.822 253.171 281.956C253.195 282.091 253.249 282.218 253.33 282.328C253.411 282.438 253.516 282.528 253.638 282.591C253.759 282.653 253.893 282.686 254.03 282.688H269.495C269.7 282.686 269.897 282.614 270.053 282.483C270.21 282.352 270.317 282.171 270.355 281.97L270.854 279.198C270.878 279.072 270.874 278.943 270.842 278.819C270.81 278.695 270.751 278.58 270.669 278.482C270.587 278.383 270.485 278.304 270.369 278.25C270.253 278.196 270.127 278.168 269.999 278.168L254.867 278.21C254.684 278.212 254.506 278.272 254.359 278.382C254.213 278.493 254.105 278.646 254.052 278.822Z" fill="#30384D"/>
<path d="M273.532 279.101L273.311 281.485C273.299 281.625 273.315 281.766 273.36 281.899C273.405 282.032 273.477 282.155 273.572 282.259C273.667 282.363 273.782 282.446 273.91 282.503C274.039 282.56 274.178 282.589 274.319 282.59H289.596C289.864 282.59 290.12 282.484 290.31 282.296C290.5 282.107 290.608 281.852 290.61 281.584L290.63 279.2C290.632 279.067 290.607 278.935 290.557 278.811C290.508 278.687 290.434 278.574 290.34 278.479C290.246 278.384 290.135 278.309 290.011 278.258C289.888 278.206 289.756 278.18 289.623 278.18H274.539C274.287 278.18 274.044 278.275 273.857 278.445C273.671 278.616 273.555 278.85 273.532 279.101Z" fill="#30384D"/>
<path d="M293.571 279.054L293.641 281.75C293.648 281.971 293.741 282.181 293.9 282.335C294.058 282.489 294.271 282.576 294.492 282.576H310.108C310.227 282.576 310.346 282.551 310.455 282.502C310.564 282.454 310.661 282.382 310.741 282.293C310.821 282.204 310.881 282.099 310.917 281.985C310.953 281.872 310.965 281.751 310.952 281.633L310.654 278.937C310.633 278.73 310.537 278.538 310.383 278.399C310.229 278.259 310.028 278.182 309.821 278.182H294.415C294.301 278.182 294.189 278.204 294.085 278.249C293.981 278.293 293.886 278.357 293.808 278.439C293.729 278.52 293.667 278.617 293.627 278.723C293.586 278.828 293.567 278.941 293.571 279.054Z" fill="#30384D"/>
<path d="M314.171 279.137L314.513 281.812C314.541 282.026 314.647 282.222 314.81 282.364C314.972 282.506 315.181 282.583 315.397 282.581H330.929C331.06 282.58 331.189 282.551 331.306 282.494C331.424 282.438 331.528 282.356 331.611 282.254C331.693 282.153 331.752 282.035 331.783 281.908C331.814 281.781 331.817 281.648 331.791 281.52L331.227 278.843C331.188 278.646 331.082 278.469 330.927 278.342C330.772 278.214 330.577 278.145 330.377 278.145H315.05C314.925 278.144 314.801 278.171 314.686 278.222C314.572 278.273 314.47 278.348 314.387 278.442C314.304 278.536 314.241 278.646 314.204 278.766C314.167 278.886 314.156 279.012 314.171 279.137Z" fill="#30384D"/>
<path d="M334.159 279.284L334.804 281.9C334.851 282.094 334.962 282.266 335.118 282.388C335.275 282.511 335.469 282.577 335.668 282.576H351.133C351.275 282.577 351.414 282.545 351.54 282.481C351.666 282.417 351.775 282.324 351.857 282.21C351.94 282.095 351.994 281.963 352.015 281.823C352.036 281.683 352.023 281.541 351.977 281.407L351.114 278.791C351.056 278.615 350.944 278.46 350.794 278.351C350.643 278.241 350.462 278.182 350.276 278.182H335.012C334.877 278.182 334.745 278.213 334.624 278.273C334.504 278.332 334.398 278.418 334.316 278.525C334.234 278.631 334.177 278.755 334.15 278.886C334.123 279.018 334.126 279.154 334.159 279.284Z" fill="#30384D"/>
<path d="M354.16 279.234L355.192 282.077C355.249 282.234 355.353 282.37 355.49 282.466C355.626 282.562 355.789 282.614 355.957 282.614H371.528C371.663 282.614 371.796 282.58 371.915 282.515C372.034 282.451 372.135 282.358 372.209 282.244C372.282 282.131 372.327 282.001 372.337 281.866C372.348 281.731 372.325 281.596 372.27 281.472L371.004 278.628C370.941 278.485 370.838 278.363 370.706 278.277C370.575 278.191 370.421 278.145 370.264 278.145H354.914C354.784 278.145 354.656 278.177 354.541 278.238C354.426 278.299 354.328 278.386 354.254 278.493C354.18 278.6 354.133 278.723 354.116 278.852C354.1 278.981 354.115 279.112 354.16 279.234Z" fill="#30384D"/>
<path d="M374.809 279.184L376.02 282.126C376.075 282.257 376.167 282.368 376.285 282.446C376.403 282.525 376.541 282.567 376.683 282.568H392.418C392.541 282.568 392.662 282.537 392.77 282.477C392.878 282.417 392.969 282.33 393.034 282.225C393.099 282.121 393.137 282.001 393.143 281.878C393.149 281.755 393.124 281.632 393.069 281.521L391.609 278.578C391.552 278.457 391.461 278.355 391.348 278.284C391.235 278.212 391.104 278.174 390.97 278.174H375.461C375.342 278.175 375.225 278.206 375.121 278.263C375.016 278.321 374.928 278.403 374.863 278.503C374.799 278.603 374.76 278.718 374.751 278.837C374.741 278.955 374.761 279.074 374.809 279.184Z" fill="#30384D"/>
<path d="M394.914 279.264L396.308 282.185C396.37 282.314 396.467 282.423 396.588 282.5C396.71 282.576 396.85 282.616 396.993 282.616H417.54C417.673 282.616 417.803 282.582 417.918 282.516C418.033 282.451 418.129 282.356 418.196 282.242C418.263 282.128 418.299 281.998 418.3 281.865C418.301 281.733 418.268 281.603 418.203 281.487L416.566 278.566C416.502 278.45 416.408 278.352 416.294 278.284C416.18 278.216 416.049 278.18 415.916 278.18H395.59C395.462 278.179 395.336 278.211 395.224 278.273C395.112 278.335 395.017 278.425 394.95 278.534C394.882 278.642 394.843 278.766 394.837 278.894C394.831 279.022 394.857 279.15 394.914 279.264Z" fill="#30384D"/>
<path d="M419.237 279.358L420.96 282.199C421.029 282.313 421.126 282.408 421.242 282.474C421.359 282.539 421.49 282.574 421.623 282.575H437.411C437.553 282.575 437.693 282.536 437.815 282.463C437.937 282.39 438.036 282.284 438.102 282.158C438.168 282.032 438.198 281.89 438.19 281.748C438.181 281.606 438.133 281.47 438.052 281.353L436.092 278.512C436.023 278.408 435.929 278.324 435.819 278.265C435.709 278.207 435.587 278.176 435.462 278.176H419.895C419.758 278.177 419.623 278.214 419.505 278.284C419.386 278.355 419.289 278.455 419.222 278.575C419.155 278.695 419.121 278.831 419.124 278.968C419.126 279.106 419.165 279.24 419.237 279.358Z" fill="#30384D"/>
<path d="M180.673 277.44H151.529C151.404 277.44 151.282 277.405 151.175 277.34C151.069 277.275 150.982 277.182 150.925 277.07C150.868 276.959 150.843 276.835 150.852 276.71C150.861 276.585 150.904 276.466 150.977 276.364L152.567 274.155C152.63 274.068 152.713 273.996 152.808 273.947C152.904 273.898 153.01 273.872 153.117 273.872L182.586 273.797C182.713 273.798 182.838 273.836 182.945 273.905C183.052 273.973 183.138 274.071 183.192 274.186C183.247 274.301 183.268 274.429 183.253 274.556C183.239 274.682 183.189 274.802 183.109 274.902L181.192 277.19C181.13 277.268 181.051 277.331 180.961 277.375C180.871 277.418 180.772 277.44 180.673 277.44Z" fill="#30384D"/>
<path d="M201.381 277.386L184.711 277.372C184.578 277.372 184.448 277.334 184.336 277.263C184.224 277.191 184.135 277.089 184.079 276.968C184.023 276.847 184.002 276.713 184.02 276.581C184.038 276.449 184.093 276.325 184.179 276.224L185.933 274.153C185.999 274.077 186.081 274.015 186.173 273.973C186.264 273.93 186.364 273.908 186.466 273.908H202.766C202.893 273.908 203.016 273.943 203.125 274.007C203.233 274.072 203.322 274.165 203.381 274.277C203.441 274.388 203.469 274.513 203.463 274.64C203.457 274.766 203.417 274.888 203.347 274.993L201.962 277.074C201.899 277.171 201.813 277.25 201.711 277.304C201.61 277.359 201.496 277.387 201.381 277.386Z" fill="#30384D"/>
<path d="M221.623 277.387L204.832 277.373C204.7 277.374 204.571 277.339 204.458 277.272C204.345 277.205 204.251 277.109 204.188 276.994C204.124 276.879 204.093 276.749 204.097 276.617C204.101 276.486 204.141 276.358 204.211 276.247L205.479 274.258C205.545 274.154 205.637 274.068 205.745 274.009C205.853 273.949 205.975 273.918 206.098 273.918H222.829C222.958 273.918 223.085 273.953 223.196 274.018C223.308 274.083 223.4 274.176 223.464 274.288C223.528 274.4 223.561 274.527 223.56 274.656C223.559 274.785 223.524 274.911 223.459 275.023L222.259 277.033C222.194 277.143 222.1 277.233 221.989 277.295C221.877 277.357 221.751 277.389 221.623 277.387Z" fill="#30384D"/>
<path d="M240.783 277.356L224.727 277.37C224.613 277.369 224.501 277.338 224.402 277.281C224.303 277.224 224.22 277.142 224.162 277.043C224.104 276.945 224.073 276.833 224.071 276.719C224.069 276.604 224.096 276.491 224.151 276.391L225.344 274.246C225.401 274.144 225.484 274.059 225.585 273.999C225.686 273.94 225.801 273.908 225.918 273.908L242.069 273.879C242.184 273.88 242.298 273.912 242.398 273.971C242.498 274.03 242.581 274.114 242.638 274.214C242.695 274.315 242.725 274.429 242.724 274.545C242.724 274.661 242.692 274.775 242.634 274.875L241.348 277.034C241.29 277.132 241.207 277.213 241.108 277.269C241.009 277.326 240.897 277.356 240.783 277.356Z" fill="#30384D"/>
<path d="M260.296 277.412L244.401 277.427C244.279 277.427 244.158 277.396 244.05 277.337C243.943 277.277 243.852 277.191 243.788 277.086C243.723 276.981 243.687 276.862 243.682 276.739C243.676 276.616 243.703 276.494 243.759 276.384L244.799 274.321C244.86 274.203 244.952 274.104 245.065 274.034C245.177 273.964 245.307 273.927 245.44 273.925L261.126 273.896C261.244 273.897 261.359 273.926 261.463 273.982C261.566 274.037 261.654 274.117 261.72 274.214C261.785 274.312 261.826 274.424 261.838 274.541C261.85 274.657 261.833 274.775 261.789 274.884L260.952 276.963C260.898 277.094 260.808 277.206 260.691 277.286C260.574 277.365 260.437 277.409 260.296 277.412Z" fill="#30384D"/>
<path d="M280.991 277.412L264.955 277.427C264.844 277.427 264.735 277.401 264.637 277.349C264.539 277.298 264.454 277.224 264.391 277.133C264.327 277.042 264.286 276.937 264.272 276.828C264.258 276.718 264.27 276.606 264.308 276.502L265.088 274.381C265.138 274.251 265.227 274.139 265.342 274.06C265.457 273.981 265.593 273.939 265.733 273.939L281.559 273.91C281.664 273.91 281.768 273.935 281.862 273.981C281.956 274.028 282.039 274.096 282.103 274.179C282.167 274.262 282.211 274.36 282.231 274.463C282.252 274.566 282.248 274.672 282.221 274.774L281.651 276.91C281.611 277.055 281.525 277.182 281.406 277.273C281.286 277.363 281.141 277.412 280.991 277.412Z" fill="#30384D"/>
<path d="M300.568 277.373L284.859 277.388C284.732 277.388 284.606 277.36 284.491 277.306C284.376 277.252 284.274 277.173 284.192 277.075C284.111 276.978 284.052 276.863 284.019 276.74C283.987 276.617 283.982 276.488 284.004 276.363L284.329 274.596C284.366 274.396 284.471 274.216 284.627 274.086C284.783 273.956 284.979 273.884 285.182 273.884L300.714 273.855C300.834 273.855 300.953 273.88 301.064 273.928C301.174 273.976 301.273 274.046 301.355 274.135C301.437 274.224 301.499 274.328 301.538 274.442C301.577 274.556 301.592 274.677 301.582 274.797L301.434 276.584C301.414 276.8 301.314 277 301.153 277.146C300.993 277.292 300.785 277.373 300.568 277.373Z" fill="#30384D"/>
<path d="M320.713 277.372L304.841 277.388C304.648 277.387 304.462 277.317 304.317 277.189C304.173 277.061 304.08 276.885 304.056 276.694L303.836 274.807C303.822 274.696 303.832 274.584 303.865 274.478C303.899 274.371 303.954 274.273 304.028 274.189C304.102 274.106 304.193 274.039 304.294 273.993C304.396 273.947 304.506 273.923 304.618 273.923L320.304 273.895C320.484 273.894 320.659 273.954 320.799 274.067C320.94 274.18 321.037 274.337 321.075 274.513L321.493 276.413C321.518 276.529 321.517 276.65 321.49 276.765C321.463 276.881 321.41 276.989 321.335 277.081C321.26 277.173 321.165 277.247 321.057 277.298C320.949 277.348 320.832 277.374 320.713 277.372Z" fill="#30384D"/>
<path d="M340.659 277.395L324.61 277.411C324.456 277.409 324.307 277.355 324.187 277.259C324.067 277.162 323.982 277.028 323.947 276.878L323.461 274.793C323.438 274.692 323.437 274.588 323.459 274.487C323.482 274.387 323.526 274.292 323.59 274.211C323.653 274.13 323.735 274.065 323.827 274.019C323.92 273.974 324.021 273.95 324.124 273.949L339.963 273.92C340.109 273.917 340.252 273.962 340.372 274.046C340.491 274.131 340.58 274.252 340.626 274.391L341.326 276.49C341.361 276.594 341.37 276.705 341.353 276.814C341.335 276.923 341.292 277.026 341.227 277.115C341.161 277.204 341.076 277.275 340.977 277.324C340.878 277.373 340.769 277.397 340.659 277.395Z" fill="#30384D"/>
<path d="M360.731 277.357L345.159 277.371C344.973 277.371 344.791 277.312 344.639 277.203C344.488 277.093 344.375 276.938 344.318 276.761L343.761 275.06C343.717 274.927 343.706 274.786 343.727 274.648C343.749 274.51 343.802 274.379 343.884 274.265C343.966 274.152 344.074 274.06 344.198 273.996C344.323 273.933 344.461 273.9 344.6 273.9L359.997 273.871C360.171 273.871 360.341 273.921 360.486 274.017C360.631 274.112 360.745 274.248 360.813 274.408L361.544 276.125C361.602 276.259 361.625 276.406 361.612 276.552C361.599 276.698 361.55 276.838 361.47 276.96C361.389 277.083 361.279 277.183 361.15 277.252C361.021 277.321 360.877 277.358 360.731 277.357Z" fill="#30384D"/>
<path d="M380.977 277.398L365.11 277.414C364.951 277.413 364.796 277.363 364.668 277.27C364.54 277.177 364.444 277.045 364.394 276.895L363.751 274.928C363.714 274.815 363.704 274.695 363.723 274.578C363.741 274.461 363.787 274.35 363.856 274.253C363.926 274.157 364.017 274.079 364.123 274.025C364.229 273.971 364.346 273.943 364.465 273.943L380.131 273.914C380.279 273.913 380.424 273.956 380.547 274.038C380.671 274.119 380.767 274.235 380.825 274.371L381.669 276.36C381.716 276.474 381.734 276.598 381.722 276.72C381.71 276.843 381.668 276.961 381.6 277.063C381.532 277.166 381.439 277.25 381.331 277.309C381.222 277.367 381.101 277.398 380.977 277.398Z" fill="#30384D"/>
<path d="M400.314 277.364L384.848 277.38C384.691 277.38 384.536 277.337 384.402 277.255C384.267 277.174 384.157 277.057 384.084 276.918L383.16 275.166C383.091 275.034 383.057 274.887 383.061 274.739C383.066 274.59 383.108 274.445 383.185 274.318C383.261 274.191 383.37 274.085 383.499 274.012C383.628 273.939 383.774 273.9 383.923 273.9L399.214 273.871C399.361 273.871 399.505 273.908 399.634 273.979C399.763 274.05 399.871 274.153 399.949 274.278L401.054 276.045C401.135 276.176 401.18 276.327 401.183 276.481C401.187 276.636 401.149 276.788 401.073 276.923C400.997 277.058 400.887 277.17 400.754 277.247C400.62 277.325 400.468 277.365 400.314 277.364Z" fill="#30384D"/>
<path d="M434.042 277.416H404.215C404.06 277.417 403.908 277.374 403.775 277.294C403.642 277.214 403.534 277.099 403.462 276.961L402.528 275.194C402.46 275.064 402.426 274.919 402.431 274.772C402.435 274.626 402.477 274.483 402.553 274.358C402.629 274.232 402.735 274.128 402.863 274.056C402.99 273.984 403.134 273.946 403.281 273.945L432.924 273.928C433.069 273.928 433.211 273.965 433.337 274.035C433.464 274.105 433.57 274.207 433.646 274.33L434.764 276.117C434.843 276.246 434.887 276.394 434.89 276.545C434.893 276.696 434.856 276.846 434.783 276.978C434.709 277.11 434.602 277.221 434.472 277.298C434.342 277.375 434.193 277.416 434.042 277.416Z" fill="#30384D"/>
<path d="M453.935 277.419H438.81C438.674 277.419 438.54 277.385 438.42 277.322C438.3 277.258 438.197 277.166 438.12 277.054L436.888 275.243C436.802 275.117 436.753 274.971 436.745 274.82C436.736 274.669 436.769 274.518 436.84 274.384C436.911 274.25 437.017 274.138 437.147 274.06C437.277 273.982 437.425 273.941 437.577 273.941L452.601 273.926C452.732 273.925 452.862 273.956 452.979 274.016C453.096 274.075 453.197 274.162 453.274 274.268L454.6 276.093C454.69 276.217 454.744 276.363 454.756 276.516C454.769 276.668 454.739 276.821 454.671 276.958C454.602 277.095 454.497 277.21 454.367 277.292C454.238 277.373 454.088 277.417 453.935 277.419Z" fill="#30384D"/>
<path d="M450.773 272.754H435.862C435.776 272.755 435.691 272.736 435.614 272.698C435.537 272.659 435.471 272.603 435.42 272.533L433.781 270.122C433.727 270.042 433.695 269.948 433.69 269.851C433.684 269.754 433.705 269.658 433.751 269.572C433.796 269.486 433.864 269.414 433.947 269.364C434.031 269.314 434.126 269.287 434.223 269.287H449.004C449.088 269.287 449.171 269.308 449.245 269.346C449.32 269.384 449.385 269.44 449.434 269.508L451.202 271.938C451.251 272.017 451.278 272.108 451.282 272.201C451.285 272.294 451.264 272.386 451.22 272.468C451.177 272.551 451.113 272.62 451.035 272.67C450.956 272.72 450.866 272.749 450.773 272.754Z" fill="#30384D"/>
<path d="M447.097 267.749H432.411C432.309 267.749 432.209 267.724 432.119 267.676C432.029 267.628 431.952 267.559 431.894 267.475L430.379 265.246C430.315 265.152 430.278 265.043 430.271 264.929C430.265 264.816 430.29 264.703 430.343 264.602C430.396 264.502 430.476 264.418 430.573 264.36C430.671 264.302 430.782 264.271 430.896 264.271H445.46C445.558 264.271 445.656 264.295 445.743 264.339C445.831 264.384 445.907 264.448 445.966 264.528L447.601 266.772C447.665 266.865 447.702 266.974 447.71 267.086C447.717 267.199 447.693 267.311 447.641 267.412C447.59 267.512 447.512 267.596 447.416 267.656C447.32 267.715 447.21 267.747 447.097 267.749Z" fill="#30384D"/>
<path d="M431.408 273.22H416.937C416.807 273.22 416.68 273.186 416.567 273.123C416.454 273.059 416.359 272.968 416.292 272.857L414.666 270.206C414.596 270.091 414.557 269.96 414.555 269.825C414.552 269.691 414.585 269.558 414.651 269.441C414.717 269.323 414.812 269.225 414.928 269.157C415.044 269.089 415.176 269.053 415.311 269.053H429.782C429.913 269.053 430.041 269.087 430.154 269.151C430.268 269.214 430.364 269.306 430.432 269.417L432.056 272.091C432.12 272.205 432.153 272.334 432.153 272.465C432.152 272.596 432.118 272.725 432.052 272.839C431.987 272.953 431.894 273.048 431.781 273.114C431.668 273.181 431.54 273.217 431.408 273.22Z" fill="#30384D"/>
<path d="M412.64 273.104H397.802C397.664 273.104 397.529 273.067 397.41 272.999C397.291 272.93 397.192 272.831 397.124 272.713L395.606 270.103C395.537 269.984 395.5 269.849 395.5 269.711C395.5 269.573 395.536 269.438 395.605 269.319C395.673 269.199 395.772 269.1 395.892 269.031C396.011 268.962 396.146 268.926 396.284 268.926H411.007C411.14 268.926 411.271 268.961 411.386 269.026C411.502 269.091 411.6 269.184 411.67 269.297L413.305 271.919C413.374 272.038 413.412 272.173 413.413 272.31C413.414 272.447 413.379 272.583 413.312 272.702C413.245 272.822 413.147 272.922 413.03 272.993C412.912 273.063 412.777 273.101 412.64 273.104Z" fill="#30384D"/>
<path d="M393.297 273.221H378.227C378.054 273.22 377.884 273.173 377.735 273.084C377.587 272.995 377.465 272.867 377.383 272.715L376.168 270.457C376.089 270.311 376.049 270.147 376.053 269.981C376.057 269.815 376.103 269.653 376.188 269.51C376.273 269.368 376.394 269.25 376.538 269.168C376.683 269.086 376.846 269.043 377.012 269.043H391.885C392.048 269.042 392.209 269.084 392.352 269.163C392.494 269.242 392.614 269.357 392.7 269.496L394.112 271.767C394.199 271.912 394.246 272.078 394.248 272.247C394.25 272.416 394.208 272.582 394.125 272.73C394.042 272.877 393.922 273 393.777 273.087C393.631 273.173 393.466 273.219 393.297 273.221Z" fill="#30384D"/>
<path d="M374.102 273.108H358.047C357.935 273.108 357.827 273.076 357.734 273.015C357.64 272.954 357.567 272.867 357.523 272.766L356.255 269.843C356.218 269.756 356.202 269.661 356.211 269.567C356.219 269.473 356.251 269.382 356.302 269.303C356.354 269.224 356.425 269.159 356.508 269.114C356.591 269.069 356.684 269.045 356.778 269.045H372.575C372.68 269.044 372.783 269.072 372.872 269.126C372.961 269.181 373.034 269.259 373.081 269.352L374.608 272.291C374.649 272.377 374.669 272.472 374.664 272.568C374.659 272.664 374.63 272.756 374.579 272.838C374.529 272.919 374.459 272.987 374.375 273.034C374.292 273.081 374.198 273.107 374.102 273.108Z" fill="#30384D"/>
<path d="M354.777 273.108H338.706C338.588 273.108 338.474 273.072 338.377 273.005C338.281 272.938 338.207 272.843 338.167 272.732L337.091 269.823C337.058 269.736 337.047 269.642 337.059 269.55C337.071 269.458 337.104 269.369 337.157 269.293C337.21 269.217 337.281 269.154 337.363 269.111C337.445 269.068 337.537 269.045 337.63 269.045H353.442C353.553 269.044 353.662 269.075 353.755 269.135C353.849 269.194 353.923 269.28 353.968 269.381L355.294 272.306C355.33 272.393 355.346 272.487 355.337 272.581C355.329 272.674 355.299 272.765 355.248 272.844C355.197 272.923 355.127 272.988 355.045 273.034C354.963 273.08 354.871 273.106 354.777 273.108Z" fill="#30384D"/>
<path d="M334.782 273.108H319.051C318.886 273.108 318.726 273.054 318.595 272.954C318.464 272.854 318.37 272.713 318.327 272.554L317.637 269.987C317.608 269.875 317.604 269.759 317.626 269.646C317.649 269.533 317.697 269.427 317.767 269.335C317.837 269.244 317.927 269.17 318.03 269.119C318.133 269.068 318.247 269.041 318.362 269.041H333.865C334.02 269.041 334.172 269.089 334.299 269.178C334.426 269.267 334.522 269.394 334.574 269.54L335.489 272.121C335.527 272.233 335.537 272.353 335.52 272.47C335.502 272.588 335.457 272.699 335.388 272.795C335.319 272.892 335.228 272.971 335.123 273.025C335.017 273.079 334.901 273.108 334.782 273.108Z" fill="#30384D"/>
<path d="M314.787 273.077H299.114C298.901 273.078 298.696 272.994 298.544 272.843C298.393 272.693 298.307 272.489 298.306 272.275L298.29 269.891C298.289 269.785 298.309 269.679 298.349 269.58C298.389 269.481 298.448 269.391 298.523 269.315C298.598 269.24 298.687 269.179 298.786 269.138C298.884 269.097 298.99 269.076 299.097 269.076H314.562C314.763 269.076 314.958 269.151 315.107 269.286C315.256 269.421 315.349 269.607 315.368 269.807L315.589 272.207C315.598 272.317 315.583 272.429 315.546 272.533C315.51 272.638 315.452 272.734 315.377 272.816C315.302 272.898 315.211 272.963 315.109 273.008C315.008 273.053 314.898 273.076 314.787 273.077Z" fill="#30384D"/>
<path d="M295.519 273.078H279.433C279.34 273.078 279.249 273.056 279.166 273.014C279.083 272.972 279.011 272.911 278.956 272.837C278.901 272.762 278.864 272.675 278.849 272.583C278.833 272.492 278.84 272.398 278.868 272.309L279.738 269.492C279.775 269.371 279.851 269.264 279.953 269.189C280.055 269.113 280.179 269.072 280.306 269.072H296.143C296.231 269.072 296.319 269.092 296.399 269.13C296.479 269.169 296.549 269.224 296.605 269.293C296.66 269.363 296.7 269.443 296.72 269.53C296.74 269.616 296.741 269.706 296.721 269.793L296.098 272.627C296.066 272.756 295.992 272.871 295.887 272.952C295.782 273.034 295.653 273.078 295.519 273.078Z" fill="#30384D"/>
<path d="M275.9 273.078H260.236C260.131 273.078 260.027 273.053 259.935 273.003C259.842 272.953 259.763 272.882 259.705 272.794C259.646 272.707 259.61 272.606 259.6 272.502C259.59 272.397 259.606 272.292 259.646 272.195L260.751 269.468C260.798 269.351 260.88 269.25 260.985 269.178C261.09 269.107 261.214 269.069 261.341 269.068H276.983C277.088 269.068 277.193 269.093 277.286 269.142C277.379 269.191 277.459 269.263 277.518 269.351C277.576 269.438 277.613 269.539 277.623 269.644C277.634 269.749 277.618 269.855 277.577 269.952L276.49 272.696C276.44 272.81 276.357 272.907 276.252 272.975C276.148 273.043 276.025 273.079 275.9 273.078Z" fill="#30384D"/>
<path d="M256.807 273.078H240.345C240.242 273.078 240.14 273.052 240.05 273.003C239.959 272.953 239.883 272.881 239.828 272.794C239.773 272.707 239.74 272.607 239.734 272.504C239.728 272.401 239.748 272.298 239.793 272.205L241.118 269.424C241.168 269.319 241.246 269.23 241.344 269.168C241.441 269.105 241.555 269.072 241.671 269.072H258.047C258.148 269.072 258.248 269.097 258.338 269.146C258.427 269.194 258.503 269.264 258.559 269.349C258.615 269.434 258.648 269.532 258.657 269.633C258.665 269.734 258.649 269.836 258.608 269.929L257.377 272.727C257.326 272.834 257.245 272.924 257.144 272.987C257.043 273.049 256.926 273.081 256.807 273.078Z" fill="#30384D"/>
<path d="M236.949 272.981H221.099C221.014 272.981 220.93 272.958 220.856 272.915C220.782 272.872 220.721 272.81 220.679 272.736C220.637 272.661 220.615 272.577 220.616 272.492C220.617 272.406 220.64 272.323 220.684 272.249L222.438 269.309C222.481 269.237 222.542 269.177 222.615 269.136C222.688 269.094 222.77 269.073 222.854 269.072H238.589C238.673 269.072 238.755 269.094 238.828 269.135C238.901 269.177 238.962 269.237 239.005 269.309C239.047 269.382 239.07 269.464 239.071 269.548C239.072 269.632 239.052 269.715 239.011 269.788L237.374 272.746C237.33 272.819 237.268 272.88 237.193 272.921C237.119 272.962 237.034 272.983 236.949 272.981Z" fill="#30384D"/>
<path d="M217.763 272.985H201.615C201.529 272.985 201.444 272.96 201.371 272.914C201.298 272.867 201.24 272.801 201.203 272.723C201.166 272.644 201.153 272.557 201.164 272.471C201.175 272.386 201.211 272.305 201.266 272.238L203.769 269.236C203.812 269.185 203.866 269.144 203.926 269.116C203.986 269.088 204.052 269.073 204.118 269.072H219.705C219.787 269.072 219.867 269.094 219.938 269.135C220.008 269.177 220.066 269.237 220.105 269.308C220.145 269.38 220.164 269.461 220.161 269.543C220.158 269.624 220.134 269.704 220.09 269.773L218.145 272.791C218.103 272.852 218.046 272.902 217.979 272.936C217.912 272.97 217.838 272.987 217.763 272.985Z" fill="#30384D"/>
<path d="M198.917 272.983H184.501C184.424 272.984 184.348 272.963 184.282 272.923C184.216 272.883 184.162 272.825 184.127 272.756C184.092 272.687 184.077 272.61 184.083 272.533C184.089 272.456 184.117 272.382 184.163 272.32L186.351 269.264C186.389 269.211 186.44 269.167 186.499 269.137C186.558 269.107 186.623 269.09 186.689 269.09H200.829C200.903 269.09 200.975 269.11 201.039 269.147C201.103 269.184 201.156 269.238 201.192 269.303C201.228 269.368 201.246 269.441 201.244 269.515C201.242 269.589 201.221 269.661 201.182 269.724L199.271 272.797C199.232 272.855 199.18 272.903 199.118 272.935C199.056 272.968 198.987 272.984 198.917 272.983Z" fill="#30384D"/>
<path d="M181.475 272.985H154.337C154.267 272.985 154.198 272.965 154.138 272.928C154.078 272.892 154.029 272.839 153.998 272.776C153.967 272.713 153.953 272.642 153.96 272.572C153.966 272.502 153.992 272.435 154.034 272.379L156.387 269.224C156.423 269.177 156.469 269.138 156.522 269.112C156.575 269.086 156.633 269.072 156.692 269.072L183.854 269.059C183.924 269.059 183.993 269.079 184.053 269.116C184.113 269.153 184.161 269.206 184.193 269.269C184.224 269.332 184.237 269.403 184.231 269.473C184.225 269.543 184.199 269.61 184.157 269.666L181.777 272.839C181.741 272.885 181.696 272.922 181.643 272.947C181.591 272.973 181.533 272.985 181.475 272.985Z" fill="#30384D"/>
<path d="M172.659 268.354H158.451C158.328 268.355 158.207 268.321 158.102 268.256C157.997 268.192 157.912 268.099 157.856 267.989C157.801 267.879 157.778 267.755 157.789 267.633C157.799 267.51 157.844 267.392 157.918 267.294L159.686 264.936C159.801 264.783 159.951 264.658 160.122 264.571C160.294 264.485 160.484 264.44 160.676 264.439L174.539 264.424C174.658 264.424 174.774 264.455 174.876 264.515C174.978 264.575 175.063 264.661 175.12 264.765C175.178 264.868 175.206 264.985 175.203 265.104C175.2 265.222 175.166 265.337 175.103 265.438L173.603 267.833C173.503 267.993 173.364 268.125 173.199 268.216C173.034 268.308 172.848 268.355 172.659 268.354Z" fill="#30384D"/>
<path d="M191.249 268.199L176.431 268.216C176.312 268.216 176.195 268.184 176.093 268.123C175.991 268.062 175.907 267.975 175.85 267.871C175.793 267.767 175.765 267.649 175.769 267.53C175.774 267.411 175.81 267.296 175.874 267.196L177.566 264.582C177.626 264.489 177.708 264.413 177.805 264.36C177.902 264.307 178.01 264.28 178.121 264.279H193.211C193.334 264.28 193.454 264.314 193.558 264.379C193.663 264.444 193.747 264.537 193.802 264.647C193.857 264.757 193.88 264.88 193.869 265.002C193.857 265.125 193.812 265.241 193.739 265.34L191.777 267.947C191.714 268.026 191.634 268.091 191.542 268.134C191.451 268.178 191.35 268.2 191.249 268.199Z" fill="#30384D"/>
<path d="M228.708 268.199H213.413C213.317 268.199 213.223 268.173 213.14 268.125C213.057 268.076 212.988 268.006 212.941 267.923C212.894 267.839 212.87 267.744 212.871 267.648C212.873 267.552 212.899 267.458 212.949 267.375L214.65 264.547C214.699 264.468 214.768 264.402 214.85 264.356C214.931 264.311 215.023 264.287 215.117 264.287L230.489 264.273C230.586 264.273 230.682 264.299 230.765 264.348C230.849 264.397 230.918 264.468 230.965 264.553C231.012 264.638 231.035 264.734 231.032 264.831C231.03 264.928 231.001 265.022 230.949 265.104L229.168 267.95C229.118 268.026 229.05 268.089 228.97 268.133C228.89 268.177 228.8 268.199 228.708 268.199Z" fill="#30384D"/>
<path d="M248.007 268.2H232.805C232.706 268.2 232.609 268.174 232.524 268.125C232.438 268.076 232.367 268.005 232.317 267.92C232.268 267.835 232.241 267.739 232.24 267.64C232.239 267.541 232.264 267.444 232.312 267.358L233.881 264.575C233.93 264.487 234.002 264.415 234.088 264.364C234.175 264.313 234.273 264.286 234.373 264.285H249.094C249.186 264.285 249.277 264.308 249.358 264.351C249.439 264.394 249.509 264.456 249.56 264.532C249.612 264.608 249.645 264.695 249.655 264.787C249.665 264.878 249.653 264.971 249.62 265.056L248.533 267.855C248.489 267.959 248.416 268.046 248.322 268.108C248.229 268.169 248.119 268.201 248.007 268.2Z" fill="#30384D"/>
<path d="M210.042 268.199H194.667C194.568 268.199 194.471 268.171 194.387 268.119C194.302 268.067 194.234 267.993 194.19 267.904C194.146 267.816 194.127 267.717 194.135 267.618C194.144 267.52 194.179 267.426 194.238 267.346L196.361 264.498C196.41 264.431 196.475 264.375 196.549 264.337C196.624 264.299 196.706 264.278 196.79 264.277H211.836C211.931 264.277 212.024 264.303 212.106 264.352C212.189 264.4 212.256 264.47 212.302 264.553C212.349 264.636 212.372 264.73 212.369 264.826C212.367 264.921 212.339 265.014 212.288 265.095L210.494 267.967C210.444 268.04 210.376 268.1 210.297 268.14C210.218 268.181 210.13 268.201 210.042 268.199Z" fill="#30384D"/>
<path d="M267.732 268.2H252.428C252.341 268.2 252.255 268.18 252.177 268.142C252.099 268.103 252.03 268.048 251.977 267.979C251.924 267.91 251.887 267.829 251.87 267.744C251.853 267.658 251.856 267.57 251.878 267.486L252.684 264.393C252.716 264.271 252.787 264.164 252.887 264.087C252.987 264.01 253.109 263.969 253.234 263.969H268.037C268.117 263.969 268.195 263.985 268.268 264.017C268.341 264.05 268.406 264.097 268.459 264.156C268.512 264.215 268.553 264.284 268.577 264.36C268.602 264.435 268.611 264.515 268.603 264.594L268.291 267.709C268.273 267.845 268.206 267.969 268.103 268.059C268.001 268.149 267.869 268.199 267.732 268.2Z" fill="#30384D"/>
<path d="M287.404 264.27H271.711C271.344 264.27 271.046 264.567 271.046 264.935V267.535C271.046 267.902 271.344 268.2 271.711 268.2H287.404C287.772 268.2 288.069 267.902 288.069 267.535V264.935C288.069 264.567 287.772 264.27 287.404 264.27Z" fill="#30384D"/>
<path d="M306.029 264.107H290.54C290.116 264.107 289.773 264.451 289.773 264.874V267.271C289.773 267.695 290.116 268.038 290.54 268.038H306.029C306.453 268.038 306.796 267.695 306.796 267.271V264.874C306.796 264.451 306.453 264.107 306.029 264.107Z" fill="#30384D"/>
<path d="M325.251 264.107H309.562C309.194 264.107 308.895 264.406 308.895 264.775V267.371C308.895 267.739 309.194 268.038 309.562 268.038H325.251C325.619 268.038 325.918 267.739 325.918 267.371V264.775C325.918 264.406 325.619 264.107 325.251 264.107Z" fill="#30384D"/>
<path d="M343.871 264.107H328.32C327.913 264.107 327.584 264.437 327.584 264.843V267.302C327.584 267.708 327.913 268.038 328.32 268.038H343.871C344.278 268.038 344.607 267.708 344.607 267.302V264.843C344.607 264.437 344.278 264.107 343.871 264.107Z" fill="#30384D"/>
<path d="M363.471 268.038H347.616C347.488 268.038 347.364 267.994 347.264 267.914C347.165 267.834 347.095 267.722 347.068 267.596L346.496 264.784C346.48 264.703 346.483 264.62 346.503 264.541C346.523 264.461 346.561 264.387 346.613 264.324C346.665 264.261 346.73 264.21 346.805 264.175C346.879 264.139 346.96 264.121 347.042 264.121H362.79C362.915 264.121 363.037 264.163 363.136 264.24C363.234 264.318 363.304 264.426 363.334 264.548L364.014 267.36C364.032 267.441 364.031 267.526 364.012 267.607C363.993 267.688 363.956 267.764 363.904 267.829C363.852 267.894 363.786 267.946 363.711 267.983C363.636 268.019 363.554 268.038 363.471 268.038Z" fill="#30384D"/>
<path d="M382.44 268.038H366.674C366.535 268.037 366.401 267.989 366.293 267.901C366.186 267.812 366.112 267.69 366.084 267.554L365.53 264.83C365.512 264.742 365.513 264.652 365.535 264.565C365.556 264.478 365.596 264.397 365.653 264.328C365.709 264.259 365.78 264.203 365.861 264.165C365.942 264.127 366.03 264.107 366.12 264.107H381.779C381.914 264.107 382.046 264.152 382.152 264.236C382.258 264.319 382.333 264.436 382.365 264.567L383.028 267.293C383.049 267.382 383.05 267.475 383.031 267.564C383.011 267.653 382.971 267.737 382.915 267.808C382.858 267.88 382.786 267.938 382.704 267.978C382.622 268.018 382.531 268.038 382.44 268.038Z" fill="#30384D"/>
<path d="M401.675 268.038H386.165C386.018 268.038 385.876 267.992 385.757 267.906C385.638 267.821 385.549 267.7 385.502 267.561L384.652 265.029C384.616 264.924 384.606 264.812 384.623 264.702C384.639 264.592 384.682 264.488 384.746 264.398C384.811 264.308 384.897 264.235 384.995 264.184C385.094 264.134 385.203 264.107 385.314 264.107H400.727C400.871 264.106 401.011 264.148 401.13 264.229C401.249 264.31 401.339 264.426 401.39 264.56L402.338 267.092C402.377 267.199 402.391 267.313 402.376 267.426C402.362 267.539 402.32 267.647 402.255 267.74C402.19 267.833 402.103 267.908 402.002 267.96C401.901 268.012 401.788 268.039 401.675 268.038Z" fill="#30384D"/>
<path d="M428.465 268.038H404.947C404.819 268.038 404.693 268.003 404.584 267.937C404.474 267.872 404.384 267.777 404.324 267.664L402.978 265.144C402.92 265.036 402.891 264.916 402.894 264.794C402.897 264.672 402.931 264.553 402.994 264.449C403.057 264.344 403.145 264.258 403.251 264.198C403.357 264.138 403.477 264.107 403.599 264.107H427.018C427.142 264.107 427.264 264.14 427.372 264.202C427.479 264.264 427.568 264.353 427.63 264.461L429.073 266.982C429.135 267.089 429.167 267.21 429.167 267.333C429.167 267.457 429.134 267.578 429.073 267.685C429.011 267.791 428.923 267.88 428.816 267.942C428.71 268.004 428.589 268.037 428.465 268.038Z" fill="#30384D"/>
<path d="M371.446 301.926H236.585C236.367 301.926 236.153 301.867 235.966 301.755C235.779 301.643 235.626 301.483 235.522 301.291C235.419 301.1 235.369 300.883 235.378 300.666C235.388 300.448 235.456 300.237 235.575 300.055L239.947 293.407C240.057 293.24 240.207 293.102 240.384 293.007C240.56 292.913 240.757 292.863 240.957 292.863H367.858C368.076 292.863 368.29 292.922 368.477 293.033C368.664 293.144 368.817 293.304 368.921 293.495L372.518 300.143C372.618 300.328 372.668 300.535 372.663 300.745C372.658 300.955 372.599 301.16 372.49 301.34C372.382 301.52 372.229 301.669 372.046 301.772C371.863 301.874 371.656 301.928 371.446 301.926Z" fill="#C3C3C3"/>
<path d="M441.629 92.0273L164.376 246.512H441.629V92.0273Z" fill="#F6F6F6"/>
<path d="M287.133 130.794C286.501 129.689 284.181 129.855 281.952 131.141C279.723 132.427 278.428 134.36 279.06 135.456C279.358 135.975 280.748 135.798 281.932 135.584C282.405 135.497 282.893 135.565 283.324 135.778C283.755 135.992 284.105 136.339 284.322 136.768C285.715 139.241 286.813 141.869 287.592 144.598L290.685 142.804C288.811 140.69 287.125 138.417 285.646 136.01C285.379 135.607 285.25 135.128 285.279 134.645C285.308 134.163 285.493 133.703 285.807 133.335C286.591 132.418 287.438 131.311 287.133 130.794Z" fill="#4369B6"/>
<path d="M267.704 140.996C266.1 140.071 263.285 141.966 261.389 145.227C259.494 148.488 259.279 151.886 260.883 152.812C261.641 153.254 263.272 152.01 264.617 150.872C265.152 150.416 265.821 150.145 266.523 150.1C267.225 150.055 267.923 150.238 268.512 150.623C271.694 152.704 277.588 156.689 278.384 158.154L281.006 153.61C277.084 152.303 273.283 150.656 269.648 148.687C269.015 148.371 268.501 147.858 268.185 147.225C267.869 146.591 267.768 145.873 267.896 145.177C268.205 143.449 268.459 141.434 267.704 140.996Z" fill="#4369B6"/>
<path d="M263.004 163.172C261.153 163.172 259.653 166.225 259.653 169.992C259.653 173.759 261.153 176.815 263.004 176.815C263.888 176.815 264.672 174.923 265.269 173.266C265.504 172.604 265.948 172.035 266.533 171.645C267.119 171.255 267.814 171.065 268.517 171.103C272.315 171.324 279.411 171.819 280.832 172.69V167.443C276.781 168.272 272.665 168.745 268.532 168.859C267.826 168.902 267.125 168.714 266.535 168.324C265.945 167.934 265.497 167.362 265.26 166.696C264.666 165.039 263.877 163.172 263.004 163.172Z" fill="#4369B6"/>
<path d="M260.883 187.172C259.279 188.098 259.507 191.494 261.389 194.757C263.272 198.02 266.1 199.914 267.704 198.988C268.464 198.546 268.203 196.518 267.891 194.79C267.764 194.098 267.864 193.384 268.176 192.754C268.489 192.123 268.996 191.611 269.624 191.293C273.017 189.578 279.415 186.465 281.081 186.509L278.457 181.965C275.365 184.71 272.038 187.177 268.514 189.34C267.925 189.731 267.224 189.92 266.517 189.877C265.811 189.834 265.138 189.563 264.599 189.103C263.258 187.965 261.639 186.737 260.883 187.172Z" fill="#4369B6"/>
<path d="M273.539 208.821C272.613 210.425 274.508 213.253 277.769 215.138C281.03 217.022 284.428 217.248 285.354 215.644C285.796 214.884 284.552 213.255 283.414 211.91C282.958 211.374 282.687 210.706 282.642 210.004C282.597 209.302 282.781 208.604 283.165 208.015C285.246 204.833 289.232 198.936 290.696 198.143L286.152 195.527C284.846 199.45 283.198 203.25 281.229 206.886C280.914 207.519 280.401 208.032 279.768 208.348C279.135 208.664 278.417 208.766 277.721 208.638C275.991 208.32 273.976 208.065 273.539 208.821Z" fill="#4369B6"/>
<path d="M297.461 211.269C297.461 213.12 300.515 214.623 304.282 214.623C308.049 214.623 311.104 213.12 311.104 211.269C311.104 210.385 309.215 209.603 307.556 209.006C306.893 208.77 306.325 208.326 305.935 207.74C305.545 207.155 305.355 206.459 305.393 205.756C305.614 201.961 306.109 194.862 306.979 193.441H301.732C302.563 197.492 303.037 201.608 303.148 205.741C303.192 206.447 303.004 207.148 302.614 207.739C302.224 208.329 301.652 208.776 300.985 209.013C299.335 209.609 297.461 210.396 297.461 211.269Z" fill="#4369B6"/>
<path d="M322.39 214.629C323.315 216.233 326.711 216.008 329.974 214.123C333.238 212.239 335.131 209.413 334.205 207.809C333.763 207.049 331.735 207.31 330.008 207.621C329.316 207.749 328.602 207.649 327.971 207.338C327.341 207.026 326.828 206.518 326.51 205.891C324.796 202.496 321.683 196.097 321.727 194.434L317.182 197.056C319.927 200.148 322.394 203.475 324.557 206.998C324.948 207.588 325.137 208.289 325.094 208.995C325.052 209.702 324.78 210.375 324.321 210.913C323.181 212.256 321.954 213.865 322.39 214.629Z" fill="#4369B6"/>
<path d="M339.839 197.316C341.114 198.051 343.361 196.547 344.859 193.953C346.357 191.359 346.536 188.65 345.261 187.924C344.658 187.577 343.363 188.562 342.294 189.47C341.868 189.832 341.337 190.046 340.78 190.081C340.223 190.117 339.669 189.971 339.201 189.667C336.36 187.987 333.726 185.978 331.355 183.682L329.27 187.292C332.387 188.331 335.408 189.641 338.297 191.207C338.801 191.457 339.209 191.864 339.461 192.368C339.712 192.871 339.793 193.442 339.691 193.995C339.439 195.367 339.238 196.969 339.839 197.316Z" fill="#4369B6"/>
<path d="M350.457 176.815C352.309 176.815 353.811 173.759 353.811 169.992C353.811 166.225 352.309 163.172 350.457 163.172C349.574 163.172 348.792 165.061 348.195 166.707C347.959 167.37 347.516 167.939 346.93 168.329C346.344 168.719 345.648 168.908 344.945 168.87C341.149 168.649 334.051 168.154 332.632 167.283V172.551C336.682 171.721 340.797 171.248 344.93 171.134C345.636 171.091 346.337 171.279 346.927 171.669C347.517 172.059 347.965 172.631 348.202 173.297C348.798 174.941 349.585 176.815 350.457 176.815Z" fill="#4369B6"/>
<path d="M345.042 154.244C346.646 153.318 346.419 149.922 344.534 146.659C342.649 143.396 339.824 141.502 338.22 142.428C337.462 142.87 337.72 144.898 338.034 146.626C338.161 147.318 338.061 148.032 337.749 148.662C337.437 149.293 336.929 149.805 336.302 150.123C332.908 151.838 326.508 154.951 324.844 154.907L327.467 159.451C330.559 156.707 333.886 154.238 337.409 152.074C337.999 151.684 338.7 151.496 339.406 151.539C340.112 151.581 340.785 151.852 341.324 152.311C342.672 153.451 344.287 154.679 345.042 154.244Z" fill="#4369B6"/>
<path d="M334.276 131.295C335.202 129.691 333.308 126.863 330.045 124.98C326.782 123.098 323.386 122.868 322.46 124.472C322.019 125.232 323.262 126.861 324.4 128.206C324.857 128.741 325.128 129.41 325.173 130.112C325.218 130.814 325.034 131.512 324.65 132.101C322.569 135.285 318.583 141.179 317.118 141.973L321.663 144.597C322.969 140.674 324.617 136.873 326.585 133.237C326.901 132.604 327.415 132.09 328.048 131.774C328.681 131.458 329.4 131.357 330.096 131.485C331.817 131.796 333.834 132.05 334.276 131.295Z" fill="#4369B6"/>
<path d="M311.16 123.845C311.16 121.978 308.082 120.465 304.282 120.465C300.482 120.465 297.406 121.978 297.406 123.845C297.406 124.729 299.311 125.526 300.981 126.127C301.65 126.364 302.223 126.811 302.616 127.401C303.01 127.992 303.201 128.694 303.162 129.402C302.941 133.231 302.441 140.387 301.562 141.818H306.865C306.027 137.734 305.55 133.585 305.437 129.417C305.393 128.705 305.582 127.998 305.975 127.403C306.369 126.808 306.945 126.357 307.618 126.119C309.273 125.518 311.16 124.724 311.16 123.845Z" fill="#4369B6"/>
<path d="M304.284 204.035C323.085 204.035 338.326 188.794 338.326 169.993C338.326 151.192 323.085 135.951 304.284 135.951C285.483 135.951 270.242 151.192 270.242 169.993C270.242 188.794 285.483 204.035 304.284 204.035Z" fill="#4573D2"/>
<path d="M304.982 171.05C322.924 165.433 325.134 143.174 326.402 144.179C341.136 155.856 342.623 177.762 330.514 192.145C327.634 195.564 324.109 198.383 320.14 200.44C316.171 202.497 311.836 203.752 307.382 204.134C302.928 204.515 298.442 204.016 294.181 202.664C289.921 201.312 285.968 199.134 282.548 196.254C282.548 196.254 279.082 179.156 304.982 171.05Z" fill="#4369B6"/>
</g>
<defs>
<clipPath id="clip0_9_51202">
<rect width="600" height="335.873" fill="white"/>
</clipPath>
</defs>
</svg>
