<svg width="600" height="451" viewBox="0 0 600 451" fill="none" xmlns="http://www.w3.org/2000/svg">
<g clip-path="url(#clip0_9_50996)">
<path d="M472.465 98.1094H143.567V283.937H472.465V98.1094Z" fill="#B0B5C0"/>
<path d="M461.147 109.752H155.399V272.296H461.147V109.752Z" fill="#F6F6F6"/>
<mask id="mask0_9_50996" style="mask-type:alpha" maskUnits="userSpaceOnUse" x="0" y="0" width="601" height="451">
<path d="M598.971 279.104C609.842 160.32 533.399 107.64 427.586 113.286C321.773 118.933 339.017 26.5629 239.261 3.27416C139.504 -20.0146 9.49349 85.2633 0.65832 181.774C-10.2143 300.56 114.907 418.641 280.129 445.516C445.35 472.39 588.099 397.889 598.971 279.104Z" fill="#F6F6F6"/>
</mask>
<g mask="url(#mask0_9_50996)">
<path d="M598.972 279.104C609.843 160.32 533.4 107.64 427.587 113.286C321.774 118.933 339.018 26.5629 239.262 3.27416C139.505 -20.0146 9.49434 85.2633 0.659174 181.774C-10.2134 300.56 114.908 418.641 280.13 445.516C445.351 472.39 588.099 397.889 598.972 279.104Z" fill="#BEBEBE" fill-opacity="0.14"/>
<path d="M472.465 98.1094H143.567V283.937H472.465V98.1094Z" fill="#B0B5C0"/>
<path d="M461.147 109.752H155.399V272.296H461.147V109.752Z" fill="#F6F6F6"/>
<path d="M328.122 169.344C328.122 169.758 329.236 180.226 330.227 185.274C331.161 190.026 333.776 210.185 333.776 210.185C330.741 212.807 318.604 224.396 318.604 224.396L305.016 206.379L301.498 176.795L328.122 169.344Z" fill="#D1A79C"/>
<path d="M329.202 179.404C329.202 179.404 357.262 190.945 361.362 192.339C372.455 196.104 379.68 208.205 382.756 221.07C384.935 230.184 393.129 280.237 385.529 281.303C369.045 283.611 366.731 271.651 364.315 254.728L362.927 241.026L359.67 331.742C359.67 331.742 290.851 332.065 286.283 323.47L284.35 248.254C284.35 248.254 279.986 263.926 282.975 275C284.071 279.06 286.783 278.968 280.338 282.997C273.893 287.027 259.946 289.243 259.125 261.778C258.717 248.323 263.205 216.673 265.369 210.432C268.075 202.629 275.035 198.934 279.445 196.719C282.702 195.082 297.188 187.351 302.565 184.733C302.701 184.671 305.482 204.074 316.41 203.946C335.172 203.729 329.202 179.404 329.202 179.404Z" fill="#4573D2"/>
<path d="M360.682 306.578C360.564 307.044 365.026 314.589 366.147 336.56C366.579 345.031 372.519 407.616 372.519 407.616C362.224 411.203 351.535 413.538 340.683 414.57C338.382 414.783 326.334 340.575 323.994 340.791C322.942 340.887 322.541 360.186 321.491 360.282C301.505 362.11 282.067 363.812 282.056 363.482C280.814 324.413 285.789 308.176 285.789 308.176C297.943 310.916 310.372 312.247 322.831 312.143C335.635 311.925 348.357 310.055 360.682 306.578Z" fill="#444C61"/>
<path d="M321.922 360.375L307.993 361.529C308.97 357.912 310.426 354.442 312.323 351.211C315.282 346.373 313.042 342.843 316.345 338.879C317.856 337.066 319.51 335.816 321.407 335.869C321.751 335.881 322.088 335.964 322.399 336.111C322.711 336.259 322.988 336.468 323.215 336.727C323.443 336.986 323.615 337.288 323.721 337.616C323.827 337.943 323.866 338.289 323.834 338.632L321.922 360.375Z" fill="#30384D"/>
<path d="M360.682 306.578C360.564 307.044 365.026 314.589 366.147 336.56C366.579 345.031 372.519 407.616 372.519 407.616C372.519 407.616 372.519 408.899 356.352 412.03C355.131 412.266 352.853 395.117 347.547 379.695C342.968 366.389 346.404 371.068 345.782 370.176C340.413 362.479 334.14 352.06 336.511 340.415C339.633 325.073 331.712 311.767 332.2 311.733C341.835 310.912 351.371 309.186 360.682 306.578Z" fill="#30384D"/>
<path d="M284.624 247.156C284.292 248.363 279.219 267.184 284.005 277.354C284.034 277.416 284.069 277.474 284.11 277.528C284.41 277.946 285.694 280.125 281.623 282.237C280.621 282.755 277.038 285.254 276.34 284.668C274.246 282.916 276.848 262.416 277.1 258.705C277.436 253.756 275.03 248.475 277.979 240.586C281.485 231.206 283.248 231.473 284.774 230.789C285.707 230.371 286.674 230.455 286.552 231.468L284.651 247.021C284.646 247.066 284.637 247.112 284.624 247.156Z" fill="#4369B6"/>
<path d="M62.3743 284.418C62.3743 284.418 72.9822 275.816 73.8414 268.073C74.7006 260.33 74.4156 231.367 70.4018 223.626C66.388 215.884 56.6407 202.691 37.7189 206.419C18.797 210.148 18.5106 222.19 18.5106 239.11C18.5106 256.03 19.3698 269.794 19.3698 269.794L62.3743 284.418Z" fill="#A7795A"/>
<path d="M62.3742 284.418C59.9029 278.23 56.262 272.578 51.6509 267.769C49.6814 265.861 39.5594 266.004 38.8115 264.466C13.8643 213.281 56.6339 202.691 37.712 206.419C18.7902 210.147 18.5038 222.19 18.5038 239.11C18.5038 256.029 19.363 269.794 19.363 269.794L62.3742 284.418Z" fill="#B5896B"/>
<path d="M79.1066 289.666C79.1066 289.666 94.7707 296.175 99.9315 301.91C105.092 307.645 124.879 383.925 124.879 383.925C124.879 383.925 102.224 392.239 101.939 390.52C101.654 388.802 76.7108 321.984 76.7108 321.984L79.1066 289.666Z" fill="#7B8093"/>
<path d="M158.254 291.489L160.997 272.734C160.997 272.734 150.936 271.362 150.936 228.362C150.936 185.363 166.028 178.96 197.584 176.216C229.14 173.472 238.969 200.027 243.702 206.825C247.67 212.528 249.98 222.762 244.788 240.431C239.983 256.768 240.833 261.185 240.947 263.482C241.614 277.013 236.459 302.925 225.941 309.78C215.423 316.635 158.254 291.489 158.254 291.489Z" fill="#DAA98C"/>
<path d="M154.885 240.593C154.885 240.593 148.144 236.21 145.79 243.121C143.437 250.032 149.329 263.351 149.329 263.351C149.329 263.351 154.894 275.824 164.159 270.093C173.423 264.362 157.917 239.245 154.885 240.593Z" fill="#F5BE9D"/>
<path d="M21.091 243.986C21.091 243.986 15.933 238.827 13.9227 242.553C11.9124 246.278 14.4969 265.206 22.2366 258.324L21.091 243.986Z" fill="#B5896B"/>
<path d="M442.369 288.74C442.369 288.74 403.202 288.74 383.188 295.553C363.173 302.366 368.712 347.504 368.712 347.504C368.712 347.504 364.881 364.111 372.544 371.351C372.544 371.351 372.544 399.455 371.267 406.694C371.267 406.694 496.01 416.915 495.58 415.638C495.149 414.36 504.946 347.504 508.776 332.174C512.607 316.844 514.44 304.748 483.233 294.701C472.951 291.387 459.852 286.494 442.369 288.74Z" fill="#CED3DF"/>
<path d="M-46.3598 374.332C-45.9336 375.61 -16.1324 392.642 76.2493 381.571L82.2096 499.951L-54.0236 492.287L-46.3598 374.332Z" fill="#8A90A7"/>
<path d="M257.804 277.287C255.768 274.386 254.212 271.931 254.212 271.931C254.093 271.627 254.059 271.297 254.113 270.975C254.168 270.653 254.309 270.353 254.521 270.105C254.733 269.858 255.009 269.672 255.319 269.57C255.628 269.467 255.96 269.451 256.278 269.522C258.287 269.971 260.063 271.134 261.278 272.796C264.5 277.093 267.94 278.455 269.995 277.309C272.05 276.163 271.881 274.186 273.252 270.866C274.338 268.23 278.653 272.515 276.51 278.155C276.51 278.155 274.688 281.214 275.144 281.605C276.243 282.545 278.474 278.704 278.474 278.704C278.474 278.704 279.454 276.861 280.358 274.641C280.809 273.462 281.608 272.448 282.649 271.735C283.691 271.021 284.925 270.642 286.187 270.648C286.752 270.539 287.337 270.648 287.825 270.953C288.313 271.259 288.667 271.737 288.816 272.293C289.495 273.849 288.079 280.088 287.985 280.605C287.759 281.857 290.172 279.791 290.237 275.253C290.252 275.112 290.297 274.976 290.369 274.854C290.442 274.732 290.541 274.628 290.658 274.548C290.775 274.468 290.909 274.415 291.049 274.393C291.189 274.37 291.332 274.378 291.468 274.417C292.257 274.627 293.126 275.367 292.975 277.631C292.66 280.53 291.438 283.255 289.484 285.42C288.084 286.923 283.575 290.523 280.89 291.328C278.205 292.134 274.774 293.279 267.534 290.637C265.362 289.843 262.487 286.157 261.29 283.818C259.531 280.381 259.836 280.19 257.804 277.287Z" fill="#EABBAE"/>
<path d="M365.744 482.779L369.151 389.098L507.512 395.058C507.512 395.058 505.809 493 504.526 492.574C503.243 492.148 365.744 482.779 365.744 482.779Z" fill="#8A90A7"/>
<path d="M219.71 396.67L557.604 413.777L559.307 478.078L204.809 459.692L219.71 396.67Z" fill="#7B8093"/>
<path d="M578.676 367.635C578.676 367.635 534.264 361.285 487.214 384.558C487.214 384.558 479.813 394.077 459.194 395.662C438.575 397.248 413.722 400.951 404.739 414.172C395.756 427.393 387.292 451.717 412.669 495.608L619.385 494.023L623.086 373.458C623.086 373.458 595.066 365.521 578.676 367.635Z" fill="#E89C2E"/>
<path d="M275.761 349.352L355.678 351.273C356.044 351.283 356.405 351.367 356.738 351.519C357.071 351.672 357.37 351.891 357.616 352.162C357.863 352.433 358.052 352.752 358.172 353.098C358.292 353.445 358.341 353.812 358.315 354.178L352.974 428.595C352.922 429.299 352.598 429.956 352.071 430.425C351.543 430.895 350.853 431.14 350.148 431.109L266.035 427.267C265.66 427.249 265.294 427.154 264.958 426.987C264.622 426.82 264.324 426.585 264.083 426.298C263.842 426.01 263.664 425.676 263.559 425.315C263.453 424.955 263.424 424.577 263.472 424.205L273.009 351.704C273.099 351.042 273.429 350.436 273.936 350.003C274.444 349.569 275.093 349.337 275.761 349.352Z" fill="#30384D"/>
<path d="M272.507 353.719L349.898 355.93C350.272 355.941 350.641 356.027 350.981 356.184C351.321 356.34 351.626 356.564 351.877 356.842C352.128 357.12 352.32 357.446 352.442 357.8C352.564 358.154 352.613 358.529 352.586 358.902L347.957 423.393C347.901 424.175 347.542 424.903 346.956 425.423C346.37 425.943 345.604 426.212 344.821 426.174L263.497 422.219L272.507 353.719Z" fill="#F6F6F6"/>
<path d="M267.071 321.305C267.071 321.305 287.863 310.906 322.172 389.94C356.481 468.973 348.683 472.092 379.353 488.73C379.353 488.73 298.78 509.529 297.741 507.969C281.927 482.876 270.008 455.529 262.392 426.861C249.916 380.061 240.56 332.229 267.071 321.305Z" fill="#B0B5C0"/>
<path d="M545.576 199.009C519.897 218.122 503.577 246.44 512.728 283.028C519.107 308.529 499.338 315.885 494.778 326.392C487.088 344.107 490.919 355.728 498.714 370.446C511.124 393.893 568.426 420.537 598.764 403.302C598.764 403.302 615.235 408.383 617.304 387.688C619.373 366.994 631.083 210.444 615.224 200.104C599.366 189.764 575.039 177.083 545.576 199.009Z" fill="#444C61"/>
<path d="M566.186 242.603C574.412 267.568 582.78 305.294 573.633 323.324C558.407 353.339 512.779 379.597 524.434 391.488C547.889 415.418 615.224 408.375 617.293 387.686C619.362 366.997 631.083 210.443 615.224 200.103C599.366 189.762 539.693 162.189 566.186 242.603Z" fill="#30384D"/>
<path d="M158.254 291.489L160.997 272.734C160.997 272.734 150.936 271.362 150.936 228.362C150.936 185.363 166.028 178.96 197.584 176.216C229.14 173.472 238.969 200.027 243.702 206.825C247.67 212.528 249.98 222.762 244.788 240.431C243.199 245.836 224.746 239.523 220.739 242.666C212.634 249.02 197.471 266.06 197.547 267.597C198.215 281.128 206.532 284.012 196.013 290.874C185.495 297.736 158.254 291.489 158.254 291.489Z" fill="#F5BE9D"/>
<path d="M237.693 251.872C237.693 251.872 231.877 246.956 228.514 259.494C227.074 264.652 226.55 270.023 226.967 275.363C227.08 276.732 226.703 278.097 225.904 279.214C225.105 280.331 223.935 281.129 222.603 281.464C219.71 282.186 216.874 283.121 214.119 284.263C212.329 285.035 210.374 285.346 208.433 285.168C206.491 284.99 204.625 284.329 203.005 283.244C194.173 277.348 177.048 268.6 164.225 278.6C161.204 280.957 154.683 270.51 154.089 262.796C153.477 254.845 154.361 255.193 150.388 246.322C145.611 235.664 147.362 222.426 150.116 219.982C152.871 217.538 141.555 201.939 149.2 193.07C156.845 184.2 161.303 188.543 165.601 180.273C170.4 171.041 177.635 166.153 185.283 168.597C192.932 171.041 205.742 170.533 210.164 168.072C213.623 166.015 217.698 165.25 221.667 165.911C225.636 166.573 229.243 168.619 231.848 171.686C236.856 178.325 234.201 188.703 241.541 190.616C250.526 192.958 253.2 213.445 249.531 218.338C245.862 223.231 248.86 221.78 248.29 228.484C247.381 239.169 242.463 248.454 242.463 251.513L237.693 251.872Z" fill="#444C61"/>
<path d="M237.693 251.872C237.693 251.872 231.877 246.956 228.514 259.494C227.074 264.652 226.55 270.023 226.967 275.363C227.08 276.732 226.703 278.097 225.904 279.214C225.105 280.331 223.935 281.129 222.603 281.464C219.71 282.186 216.874 283.121 214.119 284.263C212.329 285.035 210.374 285.346 208.433 285.168C206.491 284.99 204.625 284.329 203.005 283.244C194.173 277.348 203.574 258.459 189.365 255.464C185.616 254.674 176.144 242.838 187.936 232.768C193.998 227.588 194.356 215.765 187.936 208.465C183.748 203.713 175.448 199.132 181.799 189.795C188.385 180.114 202.295 193.205 206.601 184.936C211.398 175.703 177.632 166.15 185.275 168.597C192.919 171.044 205.734 170.533 210.156 168.072C213.615 166.015 217.69 165.25 221.659 165.911C225.628 166.573 229.235 168.619 231.84 171.686C236.847 178.325 234.192 188.703 241.533 190.616C250.518 192.958 253.192 213.445 249.523 218.338C245.854 223.231 248.852 221.78 248.282 228.484C247.372 239.169 242.455 248.454 242.455 251.513L237.693 251.872Z" fill="#30384D"/>
<path d="M241.161 249.188C241.161 249.188 229.197 249.867 228.186 269.077C227.54 281.363 235.432 285.764 237.622 275.313C239.813 264.863 247.397 248.177 241.161 249.188Z" fill="#F5BE9D"/>
<path d="M264.845 414.842C271.199 421.839 295.521 452.476 295.521 452.476L266.274 450.847L261.024 416.717C260.941 416.244 261.014 415.757 261.232 415.33C261.45 414.902 261.8 414.557 262.231 414.346C262.662 414.134 263.149 414.069 263.62 414.158C264.092 414.247 264.521 414.487 264.845 414.842Z" fill="#CED3DF"/>
<path d="M57.7877 274.955C57.7877 274.955 56.6407 265.779 44.8858 261.478C37.6328 258.882 29.9229 257.808 22.2366 258.323C18.8614 259.321 15.8349 261.248 13.503 263.885C11.1711 266.522 9.6279 269.762 9.04973 273.234C9.04973 273.234 -37.682 287.573 -39.1154 301.91C-40.5488 316.248 -40.5488 403.138 -40.5488 403.138L69.5344 405.146C69.5344 405.146 94.4776 304.205 87.8835 296.462C81.2893 288.719 60.9463 281.264 60.9463 281.264L57.7877 274.955Z" fill="#7B8093"/>
<path d="M41.343 273.639C44.203 274.219 42.6285 263.097 41.7095 261.127C40.2802 258.065 25.0368 257.567 22.1416 258.433C19.2463 259.299 11.2473 261.013 8.95329 273.345C8.95329 273.345 -37.7785 287.684 -39.2119 302.021C-40.6453 316.358 -40.6453 403.249 -40.6453 403.249L7.9882 395.905C7.9882 395.905 26.9087 357.39 17.8821 326.02C12.9956 309.012 39.9544 318.559 38.4002 298.541C37.6129 288.4 60.8445 281.372 60.8445 281.372C60.8445 281.372 46.6286 276.39 35.3163 275.19C29.2895 274.55 21.3204 274.158 20.6145 273.455C18.4509 271.299 33.6738 272.082 41.343 273.639Z" fill="#8A90A7"/>
<path d="M133.023 303.82L84.2104 320.093C84.2104 320.093 53.3803 326.78 49.3502 375.905C44.9795 429.169 45.8563 472.615 45.8563 472.615V491.258L267.956 497.859C267.956 497.859 268.732 449.312 271.45 436.885C274.167 424.458 300.571 347.945 290.088 332.799C279.605 317.652 232.621 307.942 227.186 306.777C224.135 306.188 221.231 305 218.642 303.281C218.642 303.281 216.313 290.466 197.675 283.475C179.037 276.484 159.624 281.532 159.624 281.532C159.624 281.532 144.075 285.332 133.023 303.82Z" fill="#B0B5C0"/>
<path d="M133.023 303.82L84.2104 320.094C84.2104 320.094 53.3803 326.78 49.3502 375.905C44.9795 429.169 45.8563 472.616 45.8563 472.616V491.258L139.004 498.61C139.004 498.61 139.78 450.063 142.497 437.634C144.094 430.334 158.459 410.653 162.545 384.642C165.414 366.372 152.132 353.664 161.136 333.548C166.034 322.601 187.618 306.772 182.209 305.489C176.619 304.452 170.933 304.028 165.251 304.226C138.013 306.135 156.23 300.56 164.949 300.425C173.425 300.395 181.888 301.092 190.245 302.509C202.389 304.591 211.277 288.572 197.675 283.471C179.038 276.48 159.624 281.528 159.624 281.528C159.624 281.528 144.075 285.332 133.023 303.82Z" fill="#CED3DF"/>
<path d="M265.91 285.607C269.131 289.904 275.632 288.132 277.991 288.132C281.284 288.132 282.606 286.266 285.565 284.729C288.524 283.192 292.188 281.216 291.823 281.983C289.738 286.376 283.578 290.523 280.893 291.328C278.208 292.134 274.777 293.279 267.536 290.637C265.365 289.843 262.49 286.157 261.292 283.818C259.531 280.381 264.371 283.564 265.91 285.607Z" fill="#D1A79C"/>
</g>
<path d="M330.691 150.359C332.768 149.443 327.551 126.314 323.323 128.551C323.323 128.551 319.522 121.139 308.799 121.997C298.076 122.855 286.542 132.09 286.647 137.272C286.751 142.455 287.942 153.315 291.884 160.423C291.884 160.423 294.666 161.07 296.906 161.509C296.906 161.509 290.933 142.673 298.912 143.192L308.771 141.21C308.771 141.21 316.715 133.461 319.319 138.756C321.922 144.051 326.106 155.618 326.106 155.618L330.691 150.359Z" fill="#444C61"/>
<path d="M304 128.737C304 128.737 319.522 121.133 308.796 121.998C298.07 122.863 286.542 132.091 286.647 137.274C286.751 142.456 287.942 153.316 291.884 160.424C291.884 160.424 294.666 161.072 296.906 161.51C296.906 161.51 290.933 142.675 298.912 143.193C298.912 143.193 305.901 148.137 308.771 141.211C311.64 134.285 301.302 130.883 304 128.737Z" fill="#30384D"/>
<path d="M328.797 161.755C329.086 161.973 329.431 162.104 329.791 162.135C330.151 162.166 330.512 162.095 330.834 161.929C331.155 161.764 331.424 161.512 331.609 161.201C331.794 160.89 331.887 160.534 331.879 160.172C332.405 157.05 333.979 150.142 330.69 148.971C327.975 148.005 326.804 153.564 326.804 153.564C325.209 150.12 323.986 146.517 323.154 142.814C322.078 136.449 320.196 135.347 319.042 135.043C316.815 134.456 314.427 137.834 307.176 138.786C299.925 139.737 298.269 138.207 295.847 139.424C293.595 140.556 292.268 142.601 293.841 147.486C295.166 151.598 294.892 160.865 294.892 160.865C294.892 160.865 291.863 157.335 290.955 157.832C287.757 159.553 291.818 170.302 296.656 169.915C297.595 172.668 298.865 175.296 300.436 177.742C302.513 180.815 307.35 187.644 312.837 187.071C318.325 186.498 322.396 185.313 325.612 179.332C328.721 173.547 329.518 168.763 328.797 161.755Z" fill="#EABBAE"/>
<path d="M62.8289 244.501C63.2185 240.952 72.3957 239.118 70.532 242.919C63.6379 256.978 69.9578 265.573 62.2181 258.69C60.9651 254.01 61.1783 249.057 62.8289 244.501Z" fill="#B5896B"/>
<path d="M329.202 179.404C329.202 179.404 357.262 190.945 361.362 192.339C372.455 196.104 379.68 208.205 382.756 221.07C384.935 230.184 393.129 280.237 385.529 281.303C369.045 283.611 366.731 271.651 364.315 254.728L362.927 241.026L360.586 306.892C360.586 306.892 344.272 311.304 331.12 311.519C331.12 311.519 323.12 298.665 337.371 275.907C348.621 257.942 332.416 254.211 343.56 237.756C364.076 207.457 329.202 179.404 329.202 179.404Z" fill="#4369B6"/>
<path d="M363.052 272.529C363.052 272.529 365.156 280.811 372.719 282.198C378.013 283.174 386.259 283.119 389.026 280.297C392.658 276.598 392.788 267.903 390.193 264.074C386.857 259.152 383.576 258.298 378.089 259.362C373.945 260.036 370.053 261.797 366.811 264.465L363.052 272.529Z" fill="#4369B6"/>
<path d="M367.4 258.163C366.873 259.301 362.785 259.825 360.523 259.665C358.292 259.506 355.637 258.387 353.504 258.223C350.013 257.952 345.826 258.891 346.94 263.934C347.251 265.342 350.286 269.18 352.326 271.889C352.986 272.764 353.827 273.488 354.79 274.012C355.754 274.536 356.818 274.847 357.912 274.924L365.363 275.457C365.595 275.472 365.823 275.521 366.041 275.603C367.407 276.121 372.988 278.001 374.864 274.946C376.9 271.628 377.25 265.16 375.437 262.448C375.212 262.09 375.086 261.678 375.073 261.255C374.857 258.713 375.152 256.153 375.939 253.726C376.426 252.581 376.972 251.461 377.576 250.373C377.826 249.923 377.927 249.407 377.866 248.896C377.805 248.385 377.585 247.907 377.236 247.529C376.888 247.151 376.429 246.893 375.925 246.791C375.421 246.689 374.898 246.748 374.43 246.961L374.328 247.011C371.575 248.389 369.498 253.619 367.4 258.163Z" fill="#EABBAE"/>
<path d="M418.988 220.212C418.842 220.305 418.705 220.414 418.581 220.535C416.707 222.587 400.775 240.637 404.578 256.937C408.615 274.246 408.685 282.224 404.646 284.532C401.786 286.161 398.058 290.986 394.281 292.633C394.013 292.76 393.786 292.962 393.628 293.213C393.469 293.465 393.387 293.757 393.389 294.054C393.391 294.351 393.478 294.642 393.64 294.891C393.802 295.14 394.031 295.338 394.302 295.461C396.843 296.764 399.667 297.417 402.521 297.36C405.376 297.304 408.172 296.54 410.66 295.138C410.845 295.027 411.051 294.955 411.266 294.927C411.48 294.899 411.698 294.917 411.906 294.978C416.769 296.472 447.892 305.211 463.056 289.747C463.264 289.528 463.531 289.374 463.825 289.304C464.119 289.233 464.427 289.249 464.712 289.349L485.3 296.74C485.594 296.848 485.913 296.864 486.216 296.786C486.518 296.709 486.791 296.542 486.997 296.307C488.923 294.075 493.502 287.099 487.404 276.311C479.912 263.052 488.293 231.438 468.75 219.881C468.717 219.86 445.146 201.339 418.988 220.212Z" fill="#444C61"/>
<path d="M430.297 225.557C431.262 230.385 447.535 231.269 451.336 247.568C455.374 264.878 441.176 262.521 435.319 269.578C424.896 282.127 434.984 298.469 435.403 298.598C440.268 300.091 450.523 299.505 463.061 289.747C463.28 289.544 463.547 289.4 463.837 289.33C464.127 289.261 464.43 289.267 464.717 289.349L485.306 296.74C485.599 296.848 485.918 296.864 486.221 296.786C486.524 296.709 486.796 296.542 487.002 296.307C488.929 294.075 493.507 287.099 487.41 276.311C479.917 263.052 488.299 231.437 468.755 219.881C461.409 214.65 452.633 211.806 443.617 211.734C436.22 211.764 428.178 214.963 430.297 225.557Z" fill="#30384D"/>
<path d="M369.141 268.938C366.413 270.287 362.049 270.824 356.753 269.21C353.404 268.188 345.826 258.891 346.94 263.935C347.251 265.343 350.286 269.181 352.326 271.89C352.986 272.766 353.827 273.49 354.79 274.013C355.754 274.537 356.818 274.848 357.912 274.926L365.362 275.458C365.595 275.473 365.823 275.523 366.041 275.605C367.407 276.122 372.988 278.002 374.864 274.948C375.898 273.243 376.46 271.293 376.493 269.3C375.993 268.291 371.123 267.958 369.141 268.938Z" fill="#D1A79C"/>
</g>
<defs>
<clipPath id="clip0_9_50996">
<rect width="600" height="451" fill="white"/>
</clipPath>
</defs>
</svg>
