<svg width="254" height="227" viewBox="0 0 254 227" fill="none" xmlns="http://www.w3.org/2000/svg">
<g clip-path="url(#clip0_69_8149)">
<mask id="mask0_69_8149" style="mask-type:alpha" maskUnits="userSpaceOnUse" x="0" y="0" width="254" height="227">
<path d="M13.3328 121.337C11.9617 79.3587 50.5547 21.6862 83.3364 9.82636C210.909 -36.327 144.005 95.1309 172.469 94.2897C233.42 92.4892 198.604 139.983 247.122 197.741C278.107 234.628 185.708 225.027 116.732 221.87C87.7114 220.54 19.8164 235.374 5.84001 216.028C-11.1162 192.558 14.3513 152.551 13.3328 121.337Z" fill="#F6F6F6"/>
</mask>
<g mask="url(#mask0_69_8149)">
<path d="M584.129 -255.705H-364.518V249.29H584.129V-255.705Z" fill="#BEBEBE" fill-opacity="0.14"/>
<path d="M592.135 170.713H-360.515V321.361H592.135V170.713Z" fill="#CED3DF"/>
<path d="M-402.347 222.566C-402.347 222.566 -123.717 217.589 56.5066 214.52C61.9153 214.428 92.3715 213.461 97.5039 213.37C150.856 212.442 211.386 212.987 219.113 212.564C231.986 211.859 230.715 210.085 225.9 207.056C225.43 206.759 178.218 207.249 177.627 207.235C164.6 206.936 167.669 204.704 170.815 204.443C171.868 204.356 217.114 203.921 216.206 203.508C213.325 202.206 213.951 200.186 213.951 200.186L-477.567 190.416L-402.347 222.566Z" fill="#8A90A7"/>
</g>
<path d="M136.698 203.778C142.118 204.905 147.724 204.789 153.094 203.441C162.261 201.21 167.742 203.187 167.742 203.187L181.45 213.904C181.45 213.904 169.294 211.592 161.873 213.822C154.453 216.053 146.917 215.089 146.917 215.089L136.698 203.778Z" fill="white"/>
<path d="M148.194 121.959C153.478 124.926 169.502 118.227 170.534 120.3L172.467 135.775C170.636 133.572 159.006 139.841 150.102 137.339L148.194 121.959Z" fill="#DBDBDB"/>
<path d="M93.7395 90.663C93.7395 90.663 84.4223 116.877 88.1444 123.082C91.8665 129.288 110.064 134.666 110.064 134.666L103.447 143.631C103.447 143.631 72.566 129.979 72.015 122.67C71.4639 115.362 76.5138 87.3108 81.6143 86.619C86.7148 85.9273 93.4637 83.6304 93.7395 90.663Z" fill="#4369B6"/>
<path d="M128.649 126.99L99.457 141.497L119.19 171.57L136.697 173.832L158.466 165.148L149.96 160.12L134.845 141.663L128.649 126.99Z" fill="#D5A882"/>
<path d="M158.466 165.147L134.062 126.917L125.408 121.715L134.846 141.662L152.415 164.542L158.468 165.147" fill="#B5896B"/>
<path d="M147.388 157.998L119.191 171.571L99.458 141.498L125.408 121.717L134.846 141.664L147.388 157.998Z" fill="#A7795A"/>
<path d="M125.198 196.37L125.301 196.4L125.41 196.385C125.41 196.385 125.411 196.384 125.413 196.384C125.415 196.383 125.42 196.384 125.425 196.383C125.437 196.381 125.454 196.379 125.476 196.376C125.521 196.37 125.588 196.361 125.674 196.351C125.847 196.329 126.095 196.3 126.397 196.271C127.001 196.214 127.815 196.155 128.656 196.148C129.502 196.142 130.354 196.189 131.044 196.335C131.771 196.488 132.167 196.72 132.307 196.954C132.568 197.392 132.86 197.88 133.055 198.407C133.249 198.93 133.327 199.448 133.199 199.943C132.949 200.908 131.806 202.118 127.996 203.018C124.151 203.925 116.874 205.755 110.096 206.774C106.706 207.284 103.465 207.587 100.856 207.476C99.551 207.42 98.4234 207.261 97.5229 206.983C96.7109 206.733 96.1204 206.395 95.7378 205.984L96.6567 196.042L108.477 191.483L125.198 196.37Z" fill="#2D2B34" stroke="#2D2B34"/>
<path d="M54.0132 206.629L54.0991 206.694L54.2046 206.719H54.2075C54.2101 206.719 54.2147 206.72 54.2202 206.722C54.2312 206.724 54.2481 206.728 54.27 206.733C54.3144 206.744 54.381 206.76 54.4653 206.781C54.6339 206.823 54.8757 206.887 55.1675 206.968C55.7526 207.131 56.5332 207.367 57.3208 207.663C58.1128 207.961 58.8907 208.311 59.4829 208.694C60.1061 209.098 60.3937 209.456 60.4399 209.725C60.5263 210.227 60.6248 210.788 60.6177 211.35C60.6105 211.907 60.4982 212.418 60.2007 212.835C59.6215 213.646 58.1205 214.365 54.2417 213.838C50.3276 213.306 42.8788 212.404 36.186 210.924C32.8382 210.184 29.7043 209.304 27.3081 208.264C26.11 207.744 25.1147 207.191 24.3735 206.609C23.7049 206.084 23.273 205.557 23.063 205.036L27.4868 196.085L40.1558 196.072L54.0132 206.629Z" fill="#2D2B34" stroke="#2D2B34"/>
<path d="M56.0462 116.629C56.2054 116.831 56.4001 117.002 56.6208 117.133C60.1861 119.248 91.5001 138.049 97.0524 149.157C100.32 155.694 108.716 182.939 110.962 190.786C111.108 191.3 111.052 191.852 110.806 192.327C110.561 192.802 110.144 193.167 109.639 193.346C105.172 194.954 100.965 198.88 95.9184 197.546C95.5737 197.455 95.2578 197.278 95.0004 197.031C94.743 196.785 94.5525 196.476 94.447 196.136C92.6534 190.358 84.0919 163.195 80.0397 157.896C75.4992 151.958 54.4703 142.829 44.2437 134.361C30.0777 122.634 43.0105 100.235 56.0462 116.629Z" fill="#444C61"/>
<path d="M48.9662 124.064C53.1536 125.925 58.7368 129.804 67.6471 142.032C72.2572 148.359 79.8946 147.02 84.946 151.677C92.8551 158.968 91.2045 163.624 90.994 167.966C90.595 176.2 94.8133 184.849 96.4168 186.246C100.06 189.421 105.56 195.045 104.655 195.692C102.693 197.094 98.7532 198.204 95.9185 197.547C95.5717 197.46 95.2534 197.285 94.9954 197.037C94.7373 196.79 94.5483 196.479 94.4471 196.136C92.6534 190.358 84.092 163.196 80.0398 157.896C75.4992 151.959 54.4704 142.83 44.2438 134.361C37.1611 128.497 43.3015 121.545 48.9662 124.064Z" fill="#30384D"/>
<path d="M38.1791 114.953C38.2003 114.98 38.223 115.006 38.247 115.032C39.3439 116.176 65.6994 143.778 65.6049 156.676C65.5343 166.373 44.4799 195.578 42.2799 198.603C42.1597 198.769 41.9938 198.896 41.8025 198.969C36.6696 200.902 31.0515 200.494 26.1918 199.463C26.0346 199.43 25.8873 199.36 25.7617 199.259C25.636 199.159 25.5353 199.031 25.4676 198.885C25.3998 198.739 25.3667 198.579 25.3711 198.419C25.3754 198.258 25.4169 198.1 25.4924 197.958C28.7209 191.853 43.1924 164.397 44.8706 159.562C47.394 152.292 26.0612 140.442 15.8346 131.975C1.58084 120.173 5.41732 105.345 10.0472 103.03C14.6771 100.714 25.0766 98.0179 38.1791 114.953Z" fill="#444C61"/>
<path d="M15.1108 121.368C21.2314 129.652 32.6118 124.821 34.9895 135.454C37.8058 148.047 47.835 148.802 51.554 152.355C58.843 159.315 41.9056 164.367 43.7682 173.4C44.5679 177.278 44.5224 186.723 37.9704 191.791C33.6737 195.117 32.9111 200.29 32.9111 200.29C31.2397 200.442 30.2614 200.421 26.0728 199.446C25.9293 199.413 25.7951 199.348 25.6808 199.255C25.5664 199.162 25.4749 199.044 25.4133 198.91C25.3517 198.777 25.3216 198.63 25.3254 198.483C25.3292 198.336 25.3667 198.191 25.4351 198.061C28.5487 192.18 43.1827 164.424 44.8682 159.562C47.3916 152.292 26.0587 140.443 15.8321 131.975C1.5784 120.173 5.41488 105.346 10.0448 103.03C14.6747 100.714 8.98968 113.085 15.1108 121.368Z" fill="#30384D"/>
<path d="M85.9703 91.1113C86.467 90.6333 96.7401 89.1991 97.827 89.4446C97.827 89.4446 101.039 93.1077 102.533 92.2404C104.027 91.3731 108.47 85.55 108.47 85.55C108.47 85.55 110.105 87.1426 110.877 86.4456C111.072 86.27 111.379 80.3493 111.379 80.3493C112.61 78.9889 113.748 77.5482 114.788 76.0367C119.702 68.0699 114.987 61.5352 104.114 57.1683C104.114 57.1683 97.3392 55.6777 94.2972 59.9996C94.2972 59.9996 86.8708 67.8572 90.1656 74.1699C90.1656 74.1699 85.6736 76.5012 84.7334 76.8387L85.9703 91.1113Z" fill="#D5A882"/>
<path d="M111.695 69.1624C111.695 69.1624 108.975 63.5755 107.256 67.2977C107.138 67.5489 106.991 67.7848 106.816 67.9999C105.961 69.0616 103.483 71.942 101.516 72.3057C99.098 72.7524 99.7895 69.5517 98.3698 67.513C97.6501 66.479 94.3213 67.1676 95.0431 72.5142C95.1066 73.0027 95.0598 73.4993 94.9062 73.9674C94.7525 74.4355 94.4959 74.8632 94.1552 75.219C93.0411 76.3873 90.4744 76.7698 87.1519 75.7029C87.1519 75.7029 89.0134 74.3324 88.945 71.2513C88.9142 69.8829 90.3751 59.9318 97.2542 55.8533C103.888 51.9216 108.71 54.8339 113.668 59.1674C118.627 63.5008 120.636 68.9419 115.714 75.2849C115.715 75.2849 114.198 78.7442 111.695 69.1624Z" fill="#444C61"/>
<path d="M95.828 78.6987C94.9923 81.0712 94.9338 88.7883 99.6316 91.6661C100.48 92.2306 101.432 92.6198 102.433 92.8109C102.433 92.8109 104.949 92.9154 104.806 90.2852C104.806 90.2852 104.744 89.7753 103.679 89.0574C102.615 88.3395 102.478 86.8217 102.732 86.3812C103.133 85.6926 104.583 85.2636 105.762 86.1074C106.15 86.3859 107.509 87.7062 108.016 87.6749C108.524 87.6435 109.178 86.3002 108.647 85.7088C108.647 85.7088 106.914 85.2668 106.158 84.5808C106.008 84.444 105.822 84.3523 105.623 84.3161C105.423 84.2799 105.217 84.3006 105.028 84.3759C103.937 84.8202 102.738 84.9279 101.585 84.6852C99.2748 84.1628 98.0688 82.7275 98.7332 80.0137C99.3975 77.3 98.9834 76.6328 103.937 70.978C104.057 68.6628 100.459 70.4084 100.459 70.4084C100.459 70.4084 96.6642 76.3266 95.828 78.6987Z" fill="#444C61"/>
<path d="M93.2684 75.845C93.2684 75.845 89.3546 70.0256 92.1971 67.7387C95.0396 65.4518 93.8236 63.6048 97.4203 58.5477C101.082 53.4039 104.495 54.0774 104.495 54.0774C104.495 54.0774 102.601 53.3297 98.2696 55.1553C93.3274 57.2384 88.8949 64.9863 88.9477 70.6521C88.9848 74.5759 87.1509 75.7029 87.1509 75.7029C87.1509 75.7029 90.9127 77.0363 93.2684 75.845Z" fill="#30384D"/>
<path d="M104.134 136.641L107.577 138.417C107.577 138.417 114.435 140.71 115.639 140.914C116.844 141.118 118.552 140.76 119.188 141.332C119.823 141.904 117.997 143.21 116.269 143.157C113.965 143.088 113.213 143.323 113.213 143.323C113.213 143.323 118.07 144.838 120.212 147.242C122.651 149.979 111.693 153.985 108.557 151.422C102.312 146.321 100.584 143.219 100.584 143.219L97.4536 141.756C97.4536 141.756 100.897 136.015 101.21 136.119C101.523 136.223 104.134 136.641 104.134 136.641Z" fill="#D5A882"/>
<path d="M86.4013 76.1027C86.4013 76.1027 87.8341 75.4062 79.0611 73.1658C74.7169 72.0561 72.4276 71.0759 66.7828 71.6972C61.0283 72.332 50.1608 75.1722 43.2724 81.2121C33.2385 90.0107 2.96403 97.7559 4.34715 114.084C4.75769 118.925 4.56287 110.526 13.7547 110.209C21.7787 109.932 36.245 114.684 49.0587 127.211C49.7435 127.881 52.3097 124.005 55.7925 120.622C56.9531 119.464 58.234 118.433 59.6133 117.546C66.952 113.005 76.4291 111.132 83.2407 104.579C88.3595 99.6546 90.2373 92.2876 91.0814 91.507C93.8674 88.9317 88.4384 90.5347 88.4384 90.5347L86.4013 76.1027Z" fill="#4573D2"/>
<path d="M79.1767 100.286C80.2292 97.3372 81.5501 90.825 80.0547 88.768C78.4935 86.6206 78.5922 93.5508 76.6392 91.3057C74.3896 88.7178 75.393 107.694 75.393 107.694C75.393 107.694 78.1216 103.243 79.1767 100.286Z" fill="#4369B6"/>
<path d="M43.2724 81.2121C33.2385 90.0107 2.96403 97.7559 4.34715 114.084C4.75769 118.925 6.02642 112.036 9.43146 111.263C16.4661 109.663 9.27477 104.915 25.4021 97.769C29.5713 95.9215 33.5425 94.7355 38.9935 91.2902C42.7725 88.902 45.0462 80.2314 60.8335 72.8001C61.3386 72.5613 50.1608 75.1722 43.2724 81.2121Z" fill="#4369B6"/>
<path d="M219.473 185.759C219.414 186.138 220.451 192.652 220.483 193.43C220.531 194.606 221.235 195.735 218.257 197.747C217.056 198.558 211.712 200.504 209.594 200.157C208.441 200.047 207.488 202.043 209.658 202.24C209.832 202.255 209.671 202.83 210.407 203.059C210.956 203.23 215.227 204.117 216.208 203.51C217.188 202.904 220.838 199.417 221.868 199.369C224.569 199.242 224.898 198.911 225.129 198.23C225.442 197.313 224.234 195.956 225.327 193.924C226.42 191.891 231.196 186.157 229.859 183.099C228.521 180.041 226.739 174.841 224.264 177.435C221.788 180.03 219.473 185.759 219.473 185.759Z" fill="#30384D"/>
<path d="M182.648 181.824C182.648 181.824 178.303 188.171 176.659 188.934C175.014 189.696 169.854 194.085 167.399 194.822C164.943 195.56 160.616 195.905 159.576 196.049C158.537 196.192 157.609 197.575 158.64 198.142C158.64 198.142 158.47 199.236 159.778 199.337C161.085 199.439 164.867 200.638 165.946 199.584C167.026 198.531 169.037 198.166 170.558 198.062C171.51 197.996 171.708 197.223 172.579 196.85C173.45 196.477 181.975 191.389 183.336 191.804C184.696 192.219 185.545 186.753 187.948 185.701C190.35 184.65 188.777 178.4 187.148 179.063C185.519 179.726 182.648 181.824 182.648 181.824Z" fill="#30384D"/>
<path d="M158.603 158.453C158.603 158.453 164.662 159.566 166.502 159.998C168.342 160.431 168.351 157.898 170.521 157.832C172.691 157.766 172.179 157.911 173.56 157.902C174.94 157.894 178.679 157.166 181.008 159.817C182.567 161.46 184.554 162.633 186.745 163.205C189.062 163.479 193.77 163.079 198.961 164.643C207.197 167.125 227.314 162.901 229.207 162.688C237.054 161.806 244.313 169.708 240.981 178.67C238.374 185.683 230.161 186.744 222.105 188.571C216.519 189.838 210.184 193.007 200.981 191.677C197.861 191.226 194.981 189.921 192.642 189.671C185.377 188.895 183.99 188.51 182.803 186.712C181.617 184.915 178.924 179.444 177.706 177.999C176.174 176.179 169.132 174.315 167.886 173.828C166.641 173.341 164.244 172.18 163.273 171.795C161.388 171.046 157.658 169.093 157.441 167.807C157.124 165.93 157.775 165.659 157.775 165.659C157.143 165.281 156.621 164.744 156.26 164.103C155.698 163.041 154.828 158.821 155.919 158.404C157.01 157.987 158.603 158.453 158.603 158.453Z" fill="#444C61"/>
<path d="M229.833 162.581C235.097 162.009 244.152 163.796 251.136 153.533C251.716 152.61 252.161 151.608 252.457 150.558C252.526 150.375 252.661 150.223 252.834 150.133C253.008 150.043 253.209 150.019 253.399 150.068C253.588 150.116 253.754 150.232 253.863 150.395C253.972 150.557 254.018 150.755 253.991 150.949C252.959 158.107 248.412 166.169 234.49 167.368C229.145 167.828 225.371 163.068 229.833 162.581Z" fill="#444C61"/>
<path d="M239.136 179.377C236.529 186.389 230.16 186.744 222.105 188.572C216.519 189.839 210.184 193.008 200.981 191.678C197.861 191.227 194.981 189.922 192.642 189.672C185.377 188.896 183.707 188.674 182.523 186.404C182.341 186.053 184.534 187.361 187.317 186.985C190.111 186.607 193.783 184.668 198.997 183.454C202.467 182.647 206.349 187.075 210.129 186.951C215.178 186.786 214.52 183.153 219.763 182.61C222.841 182.292 228.467 185.108 231.777 182.17C236.919 177.61 240.092 176.805 239.136 179.377Z" fill="#30384D"/>
<path d="M184.3 186.248C184.3 186.248 183.544 190.276 182.375 191.131C181.206 191.986 172.574 199.193 169.438 201.037C166.759 202.543 163.882 203.665 160.891 204.372C159.693 204.574 158.262 205.736 158.789 206.702C159.133 207.335 160.97 207.538 161.022 207.503C161.126 207.428 161.269 208.335 162.223 208.507C163.903 208.808 165.913 209.086 167.245 208.47C169.064 207.627 170.117 205.805 170.936 205.544C171.755 205.282 185.02 196.593 187.083 196.655C189.145 196.716 191.779 196.196 192.085 195.294C192.391 194.391 190.153 194.412 191.691 192.838C193.229 191.264 199.744 188.52 198.932 185.414C198.12 182.308 196.354 178.665 192.626 180.158C188.898 181.651 184.909 182.327 184.3 186.248Z" fill="#444C61"/>
<path d="M232.502 168.29C230.288 168.539 223.202 175.259 223.969 181.411C224.735 187.563 231.667 194.244 232.28 195.847C232.893 197.451 227.62 206.447 225.629 206.784C223.638 207.12 218.455 207.889 217.549 208.854C216.949 209.494 217.098 211.197 219.116 211.252C219.37 211.259 220.351 212.572 221.896 212.683C223.651 212.807 228.276 212.384 228.744 211.672C229.653 210.293 235.747 199.745 238.779 197.257C240.655 195.717 238.095 193.088 238.212 190.952C238.282 189.669 243.008 177.045 241.503 171.47C240.698 168.503 237.2 167.761 232.502 168.29Z" fill="#444C61"/>
<path d="M158.603 158.454C158.603 158.454 164.662 159.566 166.502 159.998C168.342 160.431 168.351 157.898 170.521 157.832C172.691 157.766 178.681 157.166 181.008 159.818C182.567 161.46 184.554 162.634 186.745 163.205C189.062 163.479 194.344 161.801 198.961 164.644C201.578 166.256 197.841 166.755 195.97 167.704C194.099 168.652 194.688 170.122 194.239 173.379C193.899 175.839 186.569 174.132 186.174 178.076C185.883 180.981 178.315 178.722 177.706 178C176.174 176.18 169.132 174.316 167.886 173.829C166.641 173.342 164.244 172.18 163.273 171.795C161.388 171.046 157.658 169.094 157.441 167.808C157.124 165.93 157.775 165.66 157.775 165.66C157.143 165.281 156.621 164.745 156.26 164.103C155.698 163.042 154.828 158.822 155.919 158.405C157.01 157.988 158.603 158.454 158.603 158.454Z" fill="#444C61"/>
<path d="M158.349 165.788C158.349 165.788 166.204 168.668 166.882 169.323C167.505 169.923 167.248 171.002 166.099 170.062C165.233 169.355 162.611 168.564 160.781 167.681C157.229 165.968 157.501 166.009 157.501 166.009C157.501 166.009 157.593 165.66 157.766 165.656C157.966 165.673 158.162 165.717 158.349 165.788Z" fill="#30384D"/>
<path d="M155.386 159.339C155.386 159.339 155.524 161.034 155.995 161.496C156.531 162.019 158.371 161.242 158.849 160.947C159.747 160.39 157.755 158.269 156.492 158.188C156.338 158.165 156.18 158.18 156.032 158.23C155.884 158.281 155.751 158.366 155.642 158.478C155.534 158.591 155.454 158.728 155.41 158.878C155.365 159.028 155.357 159.186 155.386 159.339Z" fill="#30384D"/>
<path d="M181.852 160.116L188.824 157.771C189.05 157.695 189.294 157.691 189.522 157.759C189.751 157.827 189.952 157.964 190.1 158.152C190.247 158.339 190.333 158.567 190.346 158.805C190.359 159.043 190.297 159.279 190.171 159.481L186.01 166.105C185.907 166.269 185.765 166.404 185.596 166.498C185.427 166.593 185.237 166.643 185.044 166.645C184.851 166.647 184.66 166.601 184.489 166.51C184.318 166.419 184.173 166.286 184.067 166.125L181.254 161.846C181.157 161.698 181.095 161.53 181.073 161.355C181.051 161.179 181.07 161.001 181.128 160.834C181.186 160.667 181.281 160.515 181.406 160.391C181.532 160.266 181.684 160.172 181.852 160.116Z" fill="#444C61"/>
<path d="M173.778 158.219L180.442 153.867C180.617 153.752 180.822 153.695 181.03 153.702C181.239 153.709 181.44 153.78 181.606 153.906C181.772 154.032 181.895 154.207 181.958 154.405C182.021 154.604 182.02 154.818 181.957 155.016L179.401 163.084C179.35 163.245 179.259 163.391 179.137 163.507C179.015 163.624 178.866 163.709 178.703 163.753C178.54 163.797 178.369 163.799 178.204 163.76C178.04 163.72 177.889 163.64 177.763 163.527L173.655 159.812C173.54 159.708 173.451 159.58 173.394 159.436C173.337 159.293 173.313 159.139 173.325 158.985C173.337 158.831 173.384 158.682 173.463 158.549C173.541 158.416 173.649 158.303 173.778 158.219Z" fill="#444C61"/>
<path d="M128.649 126.989C134.696 127.39 141.015 116.138 148.096 115.865L156.506 128.997C148.114 129.03 146.111 138.467 136.996 140.046L128.649 126.989Z" fill="white"/>
<path d="M136.655 143.922L146.188 156.434C153.769 153.597 158.717 156.11 158.717 156.11L162.079 142.275C150.035 136.287 136.655 143.922 136.655 143.922Z" fill="white"/>
<path d="M111.043 146.472C112.369 146.472 116.105 147.401 119.191 149.961C118.07 150.971 116.716 151.688 115.251 152.048C112.948 152.642 110.057 152.647 108.558 151.421C105.169 148.652 102.343 145.894 101.069 143.888C100.887 143.552 100.617 143.272 100.287 143.079C99.9149 142.831 99.5074 142.64 99.0781 142.515C99.0781 142.515 99.3476 140.199 102.138 142.504C105.22 145.048 109.716 146.472 111.043 146.472Z" fill="#BA8B67"/>
<path d="M77.4116 98.0208C76.4192 102.634 76.7639 108.704 76.9473 112.813C77.0423 114.947 78.0149 121.773 80.0943 122.257L102.892 135.823C103.286 137.791 96.5715 145.896 96.5715 145.896C96.5715 145.896 80.6171 139.321 74.589 135.439C69.9664 132.461 65.0607 130.472 63.2112 125.268C61.3616 120.065 58.0757 98.4455 58.1007 96.493C58.2929 81.3468 62.7557 78.8561 68.752 78.4042C73.116 78.075 81.374 79.5792 77.4116 98.0208Z" fill="#4573D2"/>
<path d="M66.6375 103.139C68.906 107.276 66.7482 113.158 67.4732 122.314C67.9731 128.649 72.3491 131.239 77.9746 131.651C82.2456 131.965 88.2451 138.182 93.1429 140.988C96.0815 142.671 99.6856 141.05 99.3105 141.988C98.7132 143.486 97.7754 144.824 96.5714 145.896C96.5714 145.896 80.617 139.322 74.5889 135.44C69.9663 132.461 65.0606 130.472 63.2111 125.268C61.3615 120.065 58.005 98.4437 58.1006 96.4933C58.1962 94.5428 58.9771 80.4813 64.9734 80.0293C69.3374 79.7007 58.1351 87.633 66.6375 103.139Z" fill="#4369B6"/>
<path d="M131.266 152.613C131.266 152.613 129.393 157.971 131.228 157.625C133.063 157.279 131.266 152.613 131.266 152.613Z" fill="#8A90A7"/>
<path d="M139.937 178.625C139.937 178.625 138.064 183.983 139.899 183.637C141.733 183.291 139.937 178.625 139.937 178.625Z" fill="#8A90A7"/>
<path d="M147.407 159.945C147.407 159.945 145.534 165.303 147.369 164.957C149.203 164.611 147.407 159.945 147.407 159.945Z" fill="#8A90A7"/>
</g>
<defs>
<clipPath id="clip0_69_8149">
<rect width="254" height="226.06" fill="white"/>
</clipPath>
</defs>
</svg>
