<svg width="600" height="324" viewBox="0 0 600 324" fill="none" xmlns="http://www.w3.org/2000/svg">
<g clip-path="url(#clip0_9_51002)">
<mask id="mask0_9_51002" style="mask-type:alpha" maskUnits="userSpaceOnUse" x="0" y="2" width="600" height="322">
<path d="M599.726 221.83C603.179 171.384 573.676 124.764 527.649 108.006C502.862 98.9816 473.281 98.6201 441.476 110.993C363.606 141.286 439.387 -13.8011 240.808 3.98634C186.307 8.86786 166.153 51.6073 143.697 52.7462C50.966 57.4511 0.0773024 85.8114 0.0773024 157.134C-2.35557 245.956 51.036 337.544 395.3 321.558C500.559 316.67 589.676 323.131 599.726 221.83Z" fill="#F6F6F6"/>
</mask>
<g mask="url(#mask0_9_51002)">
<path d="M599.726 221.83C603.178 171.384 573.676 124.764 527.649 108.006C502.861 98.9816 473.28 98.6201 441.476 110.993C363.606 141.286 439.386 -13.8011 240.808 3.98634C186.307 8.86786 166.153 51.6073 143.697 52.7462C50.9657 57.4511 0.0770582 85.8114 0.0770582 157.134C-2.35581 245.956 51.0357 337.544 395.3 321.558C500.559 316.67 589.676 323.131 599.726 221.83Z" fill="#BEBEBE" fill-opacity="0.14"/>
<path d="M210.672 95.7227H203.955V362.439H210.672V95.7227Z" fill="#B0B5C0"/>
<path d="M606.622 199.844H-51.412V206.562H606.622V199.844Z" fill="#8A90A7"/>
<mask id="mask1_9_51002" style="mask-type:alpha" maskUnits="userSpaceOnUse" x="55" y="199" width="488" height="8">
<path d="M542.087 199.844H55.041V206.562H542.087V199.844Z" fill="#CED3DF"/>
</mask>
<g mask="url(#mask1_9_51002)">
<path d="M542.087 199.844H55.041V206.562H542.087V199.844Z" fill="#CED3DF"/>
<path d="M621.555 214.722L603.569 194.506H364.116L371.922 214.722H621.555Z" fill="#8A90A7"/>
</g>
<path d="M75.652 95.7227H68.9352V358.156H75.652V95.7227Z" fill="#B0B5C0"/>
<path d="M417.982 95.7227H411.265V335.539H417.982V95.7227Z" fill="#B0B5C0"/>
<path d="M558.396 95.7227H551.679V335.539H558.396V95.7227Z" fill="#B0B5C0"/>
<path d="M606.622 90.123H-51.412V97.9636H606.622V90.123Z" fill="#8A90A7"/>
<mask id="mask2_9_51002" style="mask-type:alpha" maskUnits="userSpaceOnUse" x="55" y="90" width="488" height="8">
<path d="M542.087 90.123H55.041V97.9636H542.087V90.123Z" fill="#CED3DF"/>
</mask>
<g mask="url(#mask2_9_51002)">
<path d="M542.087 90.123H55.041V97.9636H542.087V90.123Z" fill="#CED3DF"/>
<path d="M530.343 106.2L528.683 83.5859H279.31L273.859 106.194L530.343 106.2Z" fill="#8A90A7"/>
</g>
<path d="M606.622 301.799H-51.412V308.517H606.622V301.799Z" fill="#8A90A7"/>
<mask id="mask3_9_51002" style="mask-type:alpha" maskUnits="userSpaceOnUse" x="55" y="301" width="488" height="8">
<path d="M542.087 301.799H55.041V308.517H542.087V301.799Z" fill="#CED3DF"/>
</mask>
<g mask="url(#mask3_9_51002)">
<path d="M542.087 301.799H55.041V308.517H542.087V301.799Z" fill="#CED3DF"/>
<path d="M614.089 316.676L596.107 296.459H364.116L371.922 316.676H614.089Z" fill="#8A90A7"/>
</g>
<path d="M491.418 220.557H465.619V301.589H491.418V220.557Z" fill="#CED3DF"/>
<path d="M491.416 220.557H474.589V301.589H491.416V220.557Z" fill="#8A90A7"/>
<path d="M516.942 220.557H491.142V301.589H516.942V220.557Z" fill="#CED3DF"/>
<path d="M516.94 220.557H500.112V301.589H516.94V220.557Z" fill="#8A90A7"/>
<path d="M542.677 220.557H516.877V301.589H542.677V220.557Z" fill="#CED3DF"/>
<path d="M542.674 220.557H525.847V301.589H542.674V220.557Z" fill="#8A90A7"/>
</g>
<path d="M300.965 120.401C300.965 120.401 300.663 121.113 299.189 121.113C298.162 121.113 247.305 146.621 247.678 149.477L262.944 237.404L267.89 322.454C267.89 322.454 303.897 323.917 328.114 323.395C373.315 322.411 391.357 321.618 391.357 321.618L399.261 143.688C399.261 143.688 339.126 115.582 337.647 116.572C336.168 117.563 300.965 120.401 300.965 120.401Z" fill="#4573D2"/>
<path d="M391.354 321.694C366.039 322.71 355.032 322.879 331.664 323.303C331.664 323.303 325.491 310.346 350.082 287.128C374.673 263.909 397.052 203.119 397.052 203.119L392.482 282.468L391.354 321.694Z" fill="#4369B6"/>
<path d="M384.523 148.462C383.462 149.17 379.998 174.739 385.001 201.583C386.964 212.121 399.427 235.22 402.012 242.116C403.683 246.56 393.214 239.625 388.266 241.77C375.576 247.27 366.111 278.235 382.841 283.661C406.159 291.221 439.714 291.971 438.436 261.928C437.474 239.322 426.928 202.487 420.156 183.738C413.253 164.618 408.68 142.049 390.436 142.049C386.988 142.053 384.523 148.462 384.523 148.462Z" fill="#4573D2"/>
<path d="M254.195 145.956C252.8 145.259 243.495 149.102 238.073 165.372C232.65 181.643 209.224 253.139 219.395 276.666C226.671 293.495 267.932 284.391 279.113 281.809C286.865 280.019 279.987 259.36 271.655 248.447C271.54 248.297 257.618 245.334 257.449 244.999C257.449 244.999 264.844 226.985 265.398 222.177C266.877 209.359 273.012 178.826 272.084 167.84C270.245 146.098 256.167 146.942 254.195 145.956Z" fill="#4573D2"/>
<path d="M298.353 121.96C298.353 121.96 307.899 144.177 322.089 144.28C341.561 144.423 345.124 119.51 345.124 119.51L345.042 84.7168L296.869 87.9903L298.353 121.96Z" fill="#D1A79C"/>
<path d="M333.664 119.543C334.427 124.019 325.278 131.998 321.14 137.537C318.519 141.047 317.91 143.576 323.111 143.615C327.131 143.707 331.063 142.438 334.272 140.014C342.981 133.451 344.874 120.209 344.874 120.209L344.797 87.3281L299.278 90.4219C299.278 90.4219 332.416 112.229 333.664 119.543Z" fill="#393939" fill-opacity="0.18"/>
<path d="M289.683 66.9415C288.283 66.2187 286.687 65.9694 285.134 66.231C282.853 66.7587 280.538 73.3444 283.149 80.3051C285.761 87.2659 288.976 89.8299 291.11 88.6284C292.024 93.8367 293.801 98.8559 296.367 103.479C299.068 112.577 312.552 124.991 320.672 124.661C329.413 124.306 336.362 117.579 340.855 109.165C345.348 100.751 347.385 90.6512 347.819 88.6931C347.819 88.6931 351.717 89.179 354.785 84.4281C359.191 77.6042 358.208 60.265 350.378 67.2257C350.378 67.2257 347.656 39.0295 345.916 38.1592C344.176 37.2888 307.634 26.8477 307.634 26.8477L293.281 43.816L289.683 66.9415Z" fill="#EABBAE"/>
<path d="M353.075 65.6619C353.075 64.3569 362.876 30.3283 348.521 24.6726C334.166 19.0168 338.953 12.055 321.988 14.2304C305.024 16.4058 286.857 18.1622 285.987 33.3897C285.117 48.6173 288.545 66.5114 288.545 66.5114L293.378 73.3353C293.378 73.3353 296.363 67.364 294.373 57.1276C292.702 48.5108 298.187 38.2796 301.544 40.3307C309.724 45.3282 325.779 46.3228 336.16 40.6368C340.809 38.0884 345.257 49.4511 344.071 58.163C343.027 65.8552 346.11 73.3353 346.11 73.3353L353.075 65.6619Z" fill="#444C61"/>
<path d="M352.99 66.3911C352.99 65.0966 362.714 31.3334 348.473 25.7216C345.258 24.5197 342.271 22.7761 339.644 20.5663C335.129 16.7641 327.563 13.7811 326.699 28.8895C325.836 43.998 298.531 39.2272 301.863 41.2626C309.978 46.2204 325.913 47.2078 336.208 41.5656C340.82 39.0371 345.234 50.311 344.057 58.955C343.017 66.5876 346.08 74.0081 346.08 74.0081L352.99 66.3911Z" fill="#30384D"/>
<path d="M262.217 232.93L261.665 213.338C261.665 213.338 259.035 223.374 252.569 230.996C248.41 235.907 246.693 239.523 246.275 243.589C246.032 245.937 246.314 248.277 248.579 247.609L257.45 244.997L262.217 232.93Z" fill="#4369B6"/>
<path d="M271.127 274.516C271.127 274.516 264.097 279.415 256.326 278.304C248.555 277.194 249.052 268.709 236.82 271.96C222.007 275.896 218.266 263.079 216.838 256.732C216.838 256.732 213.191 277.352 226.512 283.698C239.833 290.043 278.687 284.807 277.741 284.552C266.524 281.517 271.127 274.516 271.127 274.516Z" fill="#4369B6"/>
<path d="M375.496 318.261L391.302 179.631L298.74 169.072L282.934 307.703L375.496 318.261Z" fill="#4369B6"/>
<path d="M260.88 267.026C261.133 267.622 265.21 270.286 273.176 275.551C279.384 279.654 283.851 290.283 291.302 280.775C292.822 278.835 303.628 249.221 279.472 242.318C274.58 246.957 270.355 252.252 266.917 258.052C265.083 261.344 258.967 262.514 260.88 267.026Z" fill="#D1A79C"/>
<path d="M277.741 284.553C283.338 284.553 287.875 280.015 287.875 274.417C287.875 268.819 283.338 264.281 277.741 264.281C272.145 264.281 267.608 268.819 267.608 274.417C267.608 280.015 272.145 284.553 277.741 284.553Z" fill="#D1A79C"/>
<path d="M387.696 273.148C387.696 273.148 402.915 280.327 409.233 278.221C415.551 276.115 416.867 269.795 424.238 272.692C431.609 275.588 438.436 261.93 438.436 261.93C438.436 261.93 439.617 276.832 428.982 283.133C418.088 289.586 401.46 290.18 380.858 283.423C379.889 283.107 387.696 273.148 387.696 273.148Z" fill="#4369B6"/>
<path d="M403.368 266.018C403.115 266.615 399.038 269.278 391.072 274.543C384.864 278.646 380.398 289.275 372.946 279.767C371.426 277.827 360.62 248.213 384.776 241.311C389.668 245.949 393.893 251.244 397.331 257.044C399.165 260.338 405.282 261.508 403.368 266.018Z" fill="#D1A79C"/>
<path d="M370.317 309.495L386.123 170.865L293.561 160.307L277.755 298.937L370.317 309.495Z" fill="white"/>
<path d="M384.342 230.198C380.657 231.899 368.519 238.325 372.462 241.283C376.406 244.24 381.334 240.297 381.334 240.297C381.334 240.297 383.557 241.539 382.5 242.387C379.327 244.943 369.996 250.622 370.736 255.43C371.722 261.839 379.949 254.72 379.949 254.72C379.949 254.72 377.114 257.273 374.563 260.108C371.638 263.354 373.071 265.555 373.936 266.425C375.913 268.399 382.323 264.451 382.323 264.451C382.323 264.451 378.285 266.704 377.117 270.598C376.692 272.016 378.535 275.843 382.645 271.731C383.849 270.527 394.054 266.218 398.523 269.18C402.651 271.92 406.294 265.881 402.35 259.965L398.097 258.046C398.097 258.046 403.026 249.664 397.111 248.678C397.111 248.678 397.604 241.283 392.182 241.776C392.182 241.776 397.575 233.156 394.125 230.198C390.675 227.24 388.028 228.497 384.342 230.198Z" fill="#EABBAE"/>
<path d="M279.28 228.583C282.965 230.285 295.103 236.71 291.16 239.668C287.217 242.626 282.287 238.682 282.287 238.682C282.287 238.682 280.065 239.924 281.123 240.772C284.294 243.328 293.625 249.008 292.887 253.815C291.901 260.224 283.673 253.106 283.673 253.106C283.673 253.106 286.508 255.658 289.059 258.494C291.984 261.739 290.551 263.94 289.686 264.81C287.715 266.781 281.307 262.837 281.307 262.837C281.307 262.837 285.346 265.09 286.514 268.984C286.939 270.402 285.096 274.229 280.986 270.119C279.781 268.913 269.576 264.604 265.108 267.566C260.98 270.306 257.337 264.267 261.28 258.352L265.53 256.428C265.53 256.428 260.6 248.046 266.515 247.061C266.515 247.061 266.023 239.665 271.444 240.158C271.444 240.158 266.051 231.539 269.501 228.58C272.952 225.621 275.595 226.882 279.28 228.583Z" fill="#EABBAE"/>
<path d="M369.18 215.597L300.402 207.752L292.271 279.062L361.05 286.908L369.18 215.597Z" fill="#F6F6F6"/>
<path d="M145.249 295.982L163.985 231.174L204.262 242.822L145.249 295.981V295.982ZM186.077 246.862L170.442 242.339L162.98 268.147L186.077 246.862Z" fill="#E2E5EC"/>
<path d="M148.692 284.072L148.895 283.371L151.347 284.081C151.393 284.094 151.436 284.116 151.473 284.146C151.511 284.176 151.542 284.213 151.565 284.255C151.588 284.297 151.603 284.343 151.608 284.39C151.613 284.438 151.609 284.486 151.595 284.532C151.582 284.578 151.56 284.621 151.53 284.658C151.5 284.696 151.463 284.727 151.421 284.75C151.379 284.773 151.333 284.788 151.286 284.793C151.238 284.798 151.19 284.794 151.144 284.781L148.692 284.072Z" fill="white"/>
<path fill-rule="evenodd" clip-rule="evenodd" d="M149.129 283.434C149.068 283.416 149.002 283.423 148.945 283.453C148.888 283.484 148.846 283.536 148.828 283.597L148.76 283.833C148.76 283.833 148.76 283.833 148.76 283.833C148.751 283.863 148.748 283.896 148.752 283.928C148.755 283.959 148.765 283.99 148.781 284.018C148.796 284.046 148.817 284.071 148.842 284.091C148.867 284.11 148.896 284.125 148.926 284.134C148.926 284.134 148.927 284.134 148.926 284.134M151.346 284.075C151.346 284.075 151.346 284.075 151.346 284.075V284.075ZM149.129 283.434C149.129 283.434 149.129 283.434 149.129 283.434V283.434ZM149.11 283.934C149.11 283.934 149.11 283.934 149.11 283.934V283.934Z" fill="#8A90A7"/>
<path d="M149.402 281.621L149.603 280.92L152.055 281.629C152.101 281.643 152.144 281.665 152.181 281.695C152.219 281.724 152.25 281.761 152.273 281.803C152.297 281.845 152.311 281.891 152.317 281.939C152.322 281.987 152.318 282.035 152.305 282.081C152.278 282.174 152.215 282.252 152.13 282.298C152.046 282.345 151.946 282.356 151.853 282.329L149.402 281.621Z" fill="white"/>
<path fill-rule="evenodd" clip-rule="evenodd" d="M149.819 281.489C149.819 281.489 149.819 281.489 149.819 281.489V281.489ZM149.839 280.989C149.809 280.98 149.778 280.977 149.746 280.98C149.714 280.983 149.683 280.992 149.654 281.008C149.626 281.023 149.601 281.044 149.58 281.069C149.56 281.095 149.545 281.124 149.537 281.154L149.469 281.388C149.469 281.388 149.469 281.388 149.469 281.388C149.46 281.418 149.457 281.451 149.461 281.483C149.465 281.514 149.474 281.545 149.49 281.573C149.506 281.601 149.527 281.626 149.552 281.646C149.577 281.666 149.605 281.68 149.636 281.689C149.635 281.689 149.636 281.689 149.636 281.689M151.853 282.33C151.899 282.344 151.947 282.348 151.994 282.343C152.042 282.337 152.088 282.323 152.13 282.3C152.172 282.276 152.209 282.245 152.239 282.208C152.269 282.17 152.291 282.127 152.304 282.081L152.129 282.031L152.304 282.083C152.318 282.037 152.322 281.988 152.317 281.94C152.312 281.893 152.297 281.846 152.274 281.804C152.251 281.762 152.219 281.725 152.182 281.695C152.144 281.665 152.101 281.643 152.055 281.63L149.839 280.989" fill="#8A90A7"/>
<path d="M150.109 279.168L150.312 278.467L154.515 279.683C154.608 279.71 154.686 279.773 154.733 279.857C154.779 279.942 154.79 280.042 154.764 280.134C154.737 280.227 154.674 280.305 154.589 280.352C154.505 280.399 154.405 280.41 154.312 280.383L150.109 279.168Z" fill="white"/>
<path fill-rule="evenodd" clip-rule="evenodd" d="M150.546 278.535C150.485 278.517 150.419 278.524 150.363 278.555C150.306 278.585 150.264 278.637 150.246 278.699L150.171 278.959V278.969C150.164 279.02 150.173 279.073 150.198 279.119C150.229 279.175 150.28 279.218 150.342 279.236L154.313 280.386C154.406 280.412 154.506 280.401 154.591 280.354C154.675 280.307 154.738 280.229 154.764 280.136C154.778 280.09 154.782 280.042 154.777 279.994C154.771 279.947 154.757 279.901 154.734 279.859C154.71 279.817 154.679 279.78 154.642 279.75C154.604 279.72 154.562 279.698 154.515 279.684M150.546 278.535C150.546 278.535 150.547 278.535 150.546 278.535V278.535Z" fill="#8A90A7"/>
<path d="M150.819 276.715L151.022 276.014L153.474 276.723C153.52 276.736 153.563 276.759 153.6 276.788C153.637 276.818 153.669 276.855 153.692 276.897C153.715 276.939 153.729 276.985 153.735 277.033C153.74 277.08 153.736 277.129 153.722 277.174C153.695 277.267 153.633 277.346 153.548 277.392C153.464 277.439 153.364 277.451 153.271 277.424L150.819 276.715Z" fill="white"/>
<path fill-rule="evenodd" clip-rule="evenodd" d="M153.372 277.074L153.547 277.124L153.374 277.073L153.372 277.072L153.372 277.074ZM153.27 277.424C153.27 277.424 153.27 277.424 153.27 277.424L151.053 276.782C151.053 276.782 151.053 276.782 151.053 276.782M151.256 276.082C151.194 276.064 151.128 276.071 151.072 276.102C151.015 276.132 150.973 276.184 150.955 276.246L150.887 276.481C150.887 276.481 150.887 276.481 150.887 276.481M151.237 276.583C151.237 276.583 151.237 276.583 151.237 276.583V276.583Z" fill="#8A90A7"/>
<path d="M151.529 274.264L151.73 273.562L154.182 274.272C154.228 274.285 154.271 274.307 154.308 274.337C154.346 274.367 154.377 274.404 154.4 274.446C154.423 274.488 154.438 274.534 154.443 274.581C154.449 274.629 154.445 274.677 154.431 274.723C154.405 274.816 154.342 274.895 154.257 274.941C154.173 274.988 154.073 274.999 153.98 274.973L151.529 274.264Z" fill="white"/>
<path fill-rule="evenodd" clip-rule="evenodd" d="M154.081 274.623L154.256 274.673L154.083 274.621L154.081 274.621L154.081 274.623ZM153.979 274.972C153.979 274.972 153.979 274.973 153.979 274.972L151.762 274.331C151.762 274.331 151.763 274.331 151.762 274.331M151.965 273.631C151.903 273.613 151.837 273.62 151.781 273.65C151.725 273.681 151.683 273.733 151.664 273.794L151.596 274.03C151.596 274.03 151.596 274.03 151.596 274.03M151.946 274.132C151.946 274.132 151.946 274.132 151.946 274.132V274.132Z" fill="#8A90A7"/>
<path d="M152.237 271.81L152.439 271.109L156.643 272.326C156.736 272.353 156.814 272.415 156.861 272.5C156.907 272.584 156.918 272.684 156.892 272.777C156.865 272.87 156.802 272.948 156.717 272.995C156.633 273.041 156.533 273.052 156.44 273.026L152.237 271.81Z" fill="white"/>
<path fill-rule="evenodd" clip-rule="evenodd" d="M152.688 271.562L156.54 272.678L156.716 272.728L156.542 272.677L152.688 271.562ZM156.642 272.327L152.674 271.178C152.674 271.178 152.674 271.178 152.674 271.178" fill="#8A90A7"/>
<path d="M152.946 269.361L153.149 268.66L155.6 269.37C155.693 269.397 155.771 269.459 155.818 269.544C155.865 269.628 155.876 269.728 155.849 269.821C155.822 269.914 155.759 269.992 155.675 270.039C155.59 270.086 155.491 270.097 155.398 270.071L152.946 269.361Z" fill="#8A90A7"/>
<path d="M153.661 266.908L153.862 266.207L156.314 266.916C156.36 266.93 156.403 266.952 156.44 266.982C156.478 267.012 156.509 267.049 156.532 267.09C156.555 267.132 156.57 267.178 156.575 267.226C156.581 267.274 156.577 267.322 156.564 267.368C156.537 267.461 156.474 267.539 156.389 267.586C156.305 267.633 156.205 267.644 156.112 267.618L153.661 266.908Z" fill="#8A90A7"/>
<path d="M154.364 264.451L154.566 263.75L158.77 264.966C158.862 264.993 158.941 265.056 158.987 265.14C159.034 265.225 159.045 265.325 159.018 265.418C158.991 265.51 158.929 265.589 158.844 265.635C158.76 265.682 158.66 265.693 158.567 265.666L154.364 264.451Z" fill="#8A90A7"/>
<path d="M155.073 262.002L155.276 261.301L157.727 262.01C157.82 262.037 157.898 262.1 157.945 262.184C157.992 262.269 158.003 262.369 157.976 262.462C157.949 262.554 157.886 262.633 157.802 262.68C157.717 262.726 157.617 262.738 157.525 262.711L155.073 262.002Z" fill="#8A90A7"/>
<path d="M155.782 259.551L155.984 258.85L158.435 259.559C158.481 259.572 158.524 259.594 158.562 259.624C158.599 259.654 158.631 259.691 158.654 259.733C158.677 259.775 158.692 259.821 158.697 259.869C158.702 259.916 158.698 259.964 158.685 260.01C158.658 260.103 158.596 260.182 158.511 260.228C158.426 260.275 158.327 260.287 158.234 260.26L155.782 259.551Z" fill="#8A90A7"/>
<path d="M156.49 257.098L156.693 256.396L160.897 257.613C160.989 257.64 161.068 257.702 161.114 257.787C161.161 257.872 161.172 257.971 161.145 258.064C161.118 258.157 161.056 258.235 160.971 258.282C160.886 258.328 160.787 258.34 160.694 258.313L156.49 257.098Z" fill="#8A90A7"/>
<path d="M157.2 254.644L157.402 253.943L159.854 254.653C159.947 254.68 160.025 254.742 160.072 254.827C160.118 254.912 160.129 255.011 160.103 255.104C160.076 255.197 160.013 255.275 159.928 255.322C159.844 255.369 159.744 255.38 159.651 255.354L157.2 254.644Z" fill="#8A90A7"/>
<path d="M157.909 252.193L158.111 251.492L160.562 252.202C160.608 252.215 160.651 252.237 160.689 252.267C160.726 252.297 160.757 252.334 160.781 252.376C160.804 252.418 160.818 252.464 160.824 252.511C160.829 252.559 160.825 252.607 160.812 252.653C160.785 252.746 160.722 252.824 160.638 252.871C160.553 252.918 160.454 252.929 160.361 252.903L157.909 252.193Z" fill="#8A90A7"/>
<path d="M158.617 249.74L158.82 249.039L163.023 250.255C163.116 250.282 163.194 250.345 163.241 250.43C163.288 250.514 163.299 250.614 163.272 250.707C163.245 250.799 163.182 250.878 163.098 250.924C163.013 250.971 162.913 250.982 162.821 250.955L158.617 249.74Z" fill="#8A90A7"/>
<path d="M159.326 247.289L159.529 246.588L161.981 247.297C162.074 247.324 162.152 247.387 162.198 247.472C162.245 247.556 162.256 247.656 162.229 247.749C162.202 247.842 162.14 247.92 162.055 247.967C161.971 248.014 161.871 248.025 161.778 247.998L159.326 247.289Z" fill="#8A90A7"/>
<path d="M160.033 244.838L160.234 244.137L162.686 244.846C162.732 244.859 162.775 244.882 162.812 244.911C162.85 244.941 162.881 244.978 162.904 245.02C162.927 245.062 162.942 245.108 162.947 245.156C162.953 245.203 162.949 245.252 162.936 245.298C162.922 245.344 162.9 245.387 162.87 245.424C162.84 245.462 162.804 245.493 162.762 245.516C162.72 245.539 162.674 245.554 162.626 245.559C162.578 245.565 162.53 245.561 162.484 245.547L160.033 244.838Z" fill="#8A90A7"/>
<path d="M160.744 242.385L160.947 241.684L165.15 242.9C165.243 242.927 165.321 242.989 165.368 243.074C165.414 243.159 165.426 243.258 165.399 243.351C165.372 243.444 165.309 243.522 165.225 243.569C165.14 243.616 165.04 243.627 164.947 243.6L160.744 242.385Z" fill="#8A90A7"/>
<path d="M161.453 239.932L161.656 239.23L164.108 239.94C164.2 239.967 164.279 240.03 164.325 240.114C164.372 240.199 164.383 240.298 164.356 240.391C164.343 240.437 164.321 240.48 164.291 240.518C164.261 240.555 164.224 240.586 164.182 240.61C164.14 240.633 164.094 240.648 164.047 240.653C163.999 240.658 163.951 240.654 163.905 240.641L161.453 239.932Z" fill="#8A90A7"/>
<path d="M162.163 237.48L162.364 236.779L164.816 237.489C164.862 237.502 164.905 237.524 164.942 237.554C164.98 237.584 165.011 237.621 165.034 237.663C165.057 237.705 165.072 237.751 165.077 237.798C165.083 237.846 165.079 237.894 165.065 237.94C165.052 237.986 165.03 238.029 165 238.067C164.97 238.104 164.933 238.135 164.892 238.159C164.85 238.182 164.804 238.196 164.756 238.202C164.708 238.207 164.66 238.203 164.614 238.19L162.163 237.48Z" fill="#8A90A7"/>
<path d="M162.871 235.027L163.073 234.326L167.277 235.542C167.37 235.569 167.448 235.632 167.495 235.717C167.541 235.801 167.552 235.901 167.526 235.994C167.499 236.087 167.436 236.165 167.351 236.211C167.267 236.258 167.167 236.269 167.074 236.242L162.871 235.027Z" fill="#8A90A7"/>
<path d="M168.872 246.465L145.448 285.975L149.65 288.467L173.075 248.958L168.872 246.465Z" fill="#8A90A7"/>
<path d="M170.974 247.712L147.55 287.221L149.651 288.467L173.075 248.958L170.974 247.712Z" fill="#7B8093"/>
<path d="M143.319 294.369L145.452 285.975L149.656 288.467L143.319 294.369Z" fill="#F6F6F6"/>
<path d="M143.319 294.372L144.44 289.924L146.682 291.252L143.319 294.372Z" fill="#30384D"/>
<path d="M168.862 246.452L170.191 244.206C170.246 244.115 170.317 244.035 170.402 243.971C170.488 243.907 170.584 243.86 170.688 243.834C170.791 243.807 170.898 243.802 171.003 243.817C171.109 243.832 171.21 243.868 171.302 243.922L174.112 245.587C174.296 245.696 174.43 245.875 174.483 246.083C174.537 246.291 174.505 246.512 174.396 246.697L173.065 248.943L168.862 246.452Z" fill="#4573D2"/>
<path d="M143.311 250.548L138.577 251.76L149.962 296.267L154.696 295.055L143.311 250.548Z" fill="#E2E5EC"/>
<path d="M140.944 251.154L138.577 251.76L149.962 296.267L152.329 295.661L140.944 251.154Z" fill="#CED3DF"/>
<path d="M138.885 243.105L143.311 250.549L138.577 251.761L138.885 243.105Z" fill="#F6F6F6"/>
<path d="M138.877 243.107L141.23 247.045L138.706 247.692L138.877 243.107Z" fill="#30384D"/>
<path d="M154.695 295.055L155.342 297.583C155.369 297.686 155.374 297.794 155.359 297.899C155.344 298.005 155.308 298.106 155.254 298.198C155.2 298.289 155.128 298.369 155.043 298.433C154.957 298.497 154.861 298.543 154.757 298.57L151.594 299.379C151.386 299.433 151.165 299.401 150.98 299.291C150.795 299.182 150.662 299.003 150.608 298.795L149.962 296.266L154.695 295.055Z" fill="#4573D2"/>
<path d="M178.61 268.957H139.121V301.988H178.61V268.957Z" fill="#E89C2E"/>
<path d="M170.852 268.957H178.609V301.988H170.852V268.957Z" fill="#C98A30"/>
<path d="M142.064 115.432H120.703V199.787H142.064V115.432Z" fill="#CED3DF"/>
<path d="M142.063 115.432H128.13V199.787H142.063V115.432Z" fill="#8A90A7"/>
<path d="M162.851 115.432H141.49V199.787H162.851V115.432Z" fill="#CED3DF"/>
<path d="M162.85 115.432H148.917V199.787H162.85V115.432Z" fill="#8A90A7"/>
<path d="M183.954 115.432H162.593V199.787H183.954V115.432Z" fill="#CED3DF"/>
<path d="M183.953 115.432H170.02V199.787H183.953V115.432Z" fill="#8A90A7"/>
<mask id="mask4_9_51002" style="mask-type:alpha" maskUnits="userSpaceOnUse" x="89" y="0" width="65" height="70">
<path fill-rule="evenodd" clip-rule="evenodd" d="M124.207 58.1881C128.986 43.49 135.235 29.0776 144.71 17.0624C144.386 20.8719 142.891 28.4565 142.891 28.4565C140.751 35.4806 138.085 42.3339 134.918 48.9584C132.375 53.497 130.667 56.1862 129.04 58.7475L129.04 58.7476C127.393 61.3399 125.83 63.8011 123.569 67.9159C132.324 55.3699 141.465 42.7747 153.883 33.8963C149.87 47.2876 137.776 57.1405 126.618 66.2299C125.319 67.2883 124.033 68.3363 122.773 69.3783C122.689 69.535 122.604 69.694 122.517 69.8554L122.515 69.8524L122.516 69.8598L122.515 69.8592L122.517 69.8607C122.442 69.8335 122.366 69.8061 122.291 69.7786L122.243 69.8181L122.275 69.7728C109.826 65.2292 94.5055 56.234 89.7697 43.3948C98.401 46.5148 103.892 50.1398 108.618 54.5302C103.684 46.5033 100.296 37.5679 98.6871 28.1841C97.8631 23.2051 97.9651 18.1168 98.9879 13.1749C100.549 14.5664 101.818 16.2541 102.722 18.14C107.69 27.3964 111.98 36.9899 115.561 46.8443C114.401 42.0915 113.42 37.2855 112.87 32.2876C111.795 22.5063 112.919 12.6083 116.159 3.31718C119.626 16.2226 120.971 29.5252 121.345 42.9091C121.681 39.7559 122.131 36.6132 122.697 33.4873C124.794 21.7459 128.815 10.4313 134.597 0C136.013 14.0307 132.334 27.3206 128.615 40.7548C127.02 46.5161 125.417 52.3039 124.207 58.1881Z" fill="#B0B5C0"/>
</mask>
<g mask="url(#mask4_9_51002)">
<path fill-rule="evenodd" clip-rule="evenodd" d="M124.207 58.1881C128.986 43.49 135.235 29.0776 144.71 17.0624C144.386 20.8719 142.891 28.4565 142.891 28.4565C140.751 35.4806 138.085 42.3339 134.918 48.9584C132.375 53.497 130.667 56.1862 129.04 58.7475L129.04 58.7476C127.393 61.3399 125.83 63.8011 123.569 67.9159C132.324 55.3699 141.465 42.7747 153.883 33.8963C149.87 47.2876 137.776 57.1405 126.618 66.2299C125.319 67.2883 124.033 68.3363 122.773 69.3783C122.689 69.535 122.604 69.694 122.517 69.8554L122.515 69.8524L122.516 69.8598L122.515 69.8592L122.517 69.8607C122.442 69.8335 122.366 69.8061 122.291 69.7786L122.243 69.8181L122.275 69.7728C109.826 65.2292 94.5055 56.234 89.7697 43.3948C98.401 46.5148 103.892 50.1398 108.618 54.5302C103.684 46.5033 100.296 37.5679 98.6871 28.1841C97.8631 23.2051 97.9651 18.1168 98.9879 13.1749C100.549 14.5664 101.818 16.2541 102.722 18.14C107.69 27.3964 111.98 36.9899 115.561 46.8443C114.401 42.0915 113.42 37.2855 112.87 32.2876C111.795 22.5063 112.919 12.6083 116.159 3.31718C119.626 16.2226 120.971 29.5252 121.345 42.9091C121.681 39.7559 122.131 36.6132 122.697 33.4873C124.794 21.7459 128.815 10.4313 134.597 0C136.013 14.0307 132.334 27.3206 128.615 40.7548C127.02 46.5161 125.417 52.3039 124.207 58.1881Z" fill="#B0B5C0"/>
<path fill-rule="evenodd" clip-rule="evenodd" d="M153.742 28.2333C135.289 15.5907 110.203 19.4932 91.3321 29.3826C91.3235 29.3883 91.3139 29.392 91.3037 29.3936C91.2936 29.3953 91.2833 29.3947 91.2734 29.392C91.2635 29.3893 91.2543 29.3845 91.2464 29.378C91.2385 29.3714 91.2321 29.3633 91.2276 29.3541C91.2231 29.3448 91.2207 29.3348 91.2204 29.3245C91.2201 29.3143 91.222 29.3041 91.2259 29.2946C91.2299 29.2852 91.2358 29.2767 91.2433 29.2697C91.2508 29.2627 91.2597 29.2574 91.2694 29.2541C100.75 23.835 111.329 20.621 122.221 19.8505C132.802 19.0899 145.993 20.0762 154.081 27.8488C154.296 28.0557 153.978 28.3953 153.742 28.2333ZM106.987 25.9967C106.996 25.999 107.005 25.9995 107.014 25.9981C107.024 25.9967 107.032 25.9935 107.04 25.9886C107.048 25.9838 107.055 25.9773 107.061 25.9697C107.066 25.9622 107.07 25.9535 107.072 25.9444C107.076 25.9281 107.074 25.9108 107.067 25.8957C107.059 25.8807 107.046 25.869 107.03 25.8629C107.021 25.8606 107.011 25.8602 107.002 25.8617C106.993 25.8632 106.984 25.8666 106.975 25.8717C106.967 25.8767 106.96 25.8834 106.955 25.8912C106.949 25.899 106.946 25.9079 106.944 25.9173C106.941 25.9334 106.943 25.9501 106.951 25.9646C106.959 25.9791 106.971 25.9904 106.987 25.9967ZM162.062 45.0037C141.511 35.3189 118.289 32.8709 96.171 38.0576C96.0123 38.0962 95.9653 37.8507 96.1199 37.81C118.276 31.9389 141.805 34.2533 162.393 44.3287C162.776 44.522 162.448 45.1803 162.062 45.0037ZM95.9064 41.737C105.059 37.9244 116.067 37.5869 125.827 38.3653C135.556 39.1674 145.081 41.6014 154.003 45.5653C154.268 45.6823 154.409 45.2519 154.147 45.1359C144.786 40.9859 134.768 38.5159 124.551 37.8387C115.182 37.2368 104.465 37.5942 95.7633 41.4465C95.5721 41.5301 95.7163 41.8122 95.9054 41.7328L95.9064 41.737ZM159.19 54.6186C139.198 48.6421 115.638 46.2944 95.6712 53.8538C95.4936 53.9134 95.3578 53.6626 95.5375 53.5874C104.928 49.9305 114.973 48.2585 125.041 48.6766C136.323 48.7665 148.93 49.3672 159.339 54.1735C159.395 54.1954 159.44 54.237 159.466 54.2903C159.492 54.3436 159.498 54.4048 159.482 54.4619C159.464 54.5214 159.423 54.5713 159.368 54.6007C159.314 54.63 159.25 54.6365 159.19 54.6186ZM94.2509 57.5923C102.858 53.8295 112.075 51.6581 121.456 51.1832C125.712 51.0545 129.97 51.3369 134.171 52.0264C137.238 52.5323 140.166 53.401 143.104 54.2724L143.105 54.2725L143.105 54.2725L143.105 54.2725L143.105 54.2726L143.105 54.2726L143.105 54.2726L143.106 54.2728C144.724 54.7528 146.345 55.2336 147.993 55.6551C148.462 55.7753 148.879 55.1066 148.398 54.8381C140.488 50.4414 129.835 49.4634 120.952 49.85C111.525 50.0963 102.298 52.6184 94.0556 57.2015C94.0038 57.2274 93.9644 57.2729 93.9461 57.3278C93.9278 57.3828 93.932 57.4428 93.9579 57.4946C93.9838 57.5464 94.0292 57.5858 94.0842 57.6041C94.1391 57.6225 94.1991 57.6182 94.2509 57.5923ZM141.935 60.3121C128.793 56.5308 116.35 56.2267 103.43 61.172C103.172 61.2775 102.981 60.9035 103.241 60.7875C115.072 55.6124 130.046 54.7054 142.083 59.8649C142.115 59.873 142.144 59.8874 142.169 59.9073C142.195 59.9272 142.216 59.9521 142.232 59.9805C142.247 60.0089 142.257 60.0402 142.26 60.0725C142.262 60.1047 142.259 60.1372 142.248 60.1679C142.238 60.1987 142.222 60.227 142.2 60.2511C142.179 60.2752 142.152 60.2946 142.123 60.3081C142.094 60.3217 142.062 60.329 142.029 60.3297C141.997 60.3303 141.965 60.3244 141.935 60.3121ZM118.107 60.4545C112.628 61.3074 107.294 62.9172 102.258 65.2378L102.266 65.2399C101.764 65.4426 101.199 64.7499 101.701 64.3978C110.417 58.2959 124.887 56.3284 134.79 60.4138C135.331 60.6394 135.219 61.5871 134.575 61.4994C129.153 60.4451 123.619 60.094 118.107 60.4545ZM137.051 64.0321C126.178 61.3222 114.723 62.1703 104.368 66.4519L104.352 66.453C104.063 66.5815 103.84 66.1322 104.136 65.9995C114.479 61.1588 126.25 60.3333 137.167 63.6831C137.396 63.7614 137.266 64.0812 137.051 64.0321ZM112.189 67.8692C119.455 65.9393 127.07 65.7222 134.434 67.235C134.727 67.282 134.8 66.8171 134.528 66.7314C127.167 64.5739 119.315 64.7785 112.075 67.3165C111.735 67.4241 111.837 67.9727 112.189 67.8692Z" fill="#8A90A7"/>
</g>
<path d="M136.922 60.0137H100.65V90.3539H136.922V60.0137Z" fill="#E89C2E"/>
<path d="M129.797 60.0137H136.922V90.3539H129.797V60.0137Z" fill="#C98A30"/>
<path d="M322.328 185.314L320.766 185.136L321.864 175.502L327.296 176.123L327.144 177.454L323.27 177.012L322.927 180.023L326.556 180.441L326.404 181.779L322.775 181.361L322.328 185.314Z" fill="#C98A30"/>
<path d="M329.332 186.113L327.783 185.937L328.952 175.684L330.501 175.86L329.332 186.113Z" fill="#C98A30"/>
<path d="M331.27 178.951L332.956 179.143L333.967 183.444C334.116 184.003 334.203 184.577 334.225 185.155L334.278 185.162C334.364 184.87 334.469 184.585 334.591 184.307C334.737 183.973 335.482 182.4 336.826 179.585L338.497 179.776L334.44 187.677C334.215 188.3 333.789 188.83 333.229 189.183C332.67 189.536 332.008 189.693 331.349 189.627C331.012 189.59 330.68 189.514 330.36 189.402L330.5 188.175C330.755 188.261 331.019 188.318 331.287 188.345C331.659 188.383 332.032 188.292 332.345 188.089C332.658 187.886 332.893 187.582 333.01 187.227L333.358 186.572L331.27 178.951Z" fill="#C98A30"/>
<path d="M341.621 186.381C342.004 186.423 342.391 186.407 342.77 186.332L342.637 187.498C342.414 187.561 342.185 187.599 341.954 187.611C341.671 187.63 341.386 187.624 341.105 187.591C340.792 187.592 340.484 187.519 340.205 187.38C339.925 187.241 339.682 187.039 339.494 186.789C339.307 186.54 339.179 186.25 339.123 185.943C339.066 185.636 339.082 185.32 339.169 185.02L339.617 181.093L338.623 180.979L338.701 180.294L339.831 179.849L340.534 178.367L341.49 178.472L341.305 180.093L343.38 180.329L343.246 181.503L341.171 181.266L340.726 185.167C340.697 185.315 340.698 185.468 340.73 185.616C340.762 185.763 340.824 185.903 340.912 186.026C341.001 186.129 341.109 186.213 341.231 186.274C341.352 186.335 341.485 186.372 341.621 186.381Z" fill="#C98A30"/>
<path d="M346.925 186.987C347.308 187.029 347.696 187.012 348.074 186.938L347.94 188.104C347.717 188.166 347.488 188.204 347.257 188.216C346.974 188.236 346.69 188.229 346.409 188.197C346.097 188.197 345.789 188.125 345.51 187.986C345.23 187.846 344.987 187.644 344.799 187.395C344.611 187.146 344.484 186.856 344.427 186.549C344.37 186.242 344.386 185.926 344.472 185.626L344.92 181.699L343.926 181.585L344.004 180.899L345.136 180.454L345.839 178.973L346.794 179.077L346.609 180.699L348.684 180.935L348.55 182.108L346.476 181.871L346.031 185.773C346.001 185.921 346.002 186.073 346.034 186.221C346.066 186.369 346.128 186.509 346.216 186.631C346.305 186.735 346.413 186.819 346.535 186.88C346.656 186.941 346.789 186.977 346.925 186.987Z" fill="#C98A30"/>
<path d="M352.552 188.896C352.061 188.869 351.582 188.739 351.144 188.516C350.705 188.294 350.318 187.982 350.007 187.602C349.717 187.194 349.51 186.734 349.399 186.246C349.288 185.759 349.274 185.254 349.359 184.761C349.417 183.741 349.847 182.778 350.568 182.055C350.912 181.748 351.321 181.522 351.764 181.394C352.207 181.265 352.674 181.238 353.129 181.313C353.552 181.339 353.964 181.453 354.34 181.649C354.715 181.845 355.045 182.117 355.309 182.449C355.82 183.178 356.021 184.079 355.87 184.956L355.775 185.792L350.92 185.238C350.832 185.832 350.971 186.437 351.307 186.934C351.484 187.153 351.705 187.333 351.956 187.461C352.207 187.589 352.482 187.663 352.763 187.678C353.167 187.727 353.574 187.732 353.979 187.694C354.401 187.646 354.818 187.555 355.222 187.424L355.078 188.683C354.694 188.817 354.294 188.902 353.888 188.934C353.443 188.964 352.995 188.952 352.552 188.896ZM352.995 182.485C352.777 182.451 352.555 182.463 352.342 182.52C352.129 182.577 351.93 182.679 351.759 182.819C351.391 183.163 351.15 183.622 351.074 184.122L354.381 184.499C354.464 184.008 354.364 183.505 354.102 183.082C353.972 182.908 353.806 182.765 353.615 182.662C353.424 182.559 353.213 182.499 352.996 182.485H352.995Z" fill="#C98A30"/>
<path d="M326.012 194.759L325.915 195.609L324.644 195.698C324.747 195.884 324.821 196.086 324.862 196.296C324.951 196.746 324.908 197.212 324.74 197.639C324.573 198.066 324.286 198.436 323.915 198.706C323.246 199.096 322.462 199.239 321.699 199.107C321.487 199.084 321.277 199.042 321.072 198.981C320.925 199.031 320.793 199.119 320.69 199.236C320.588 199.354 320.519 199.496 320.489 199.649C320.479 199.727 320.491 199.807 320.525 199.879C320.559 199.95 320.613 200.01 320.681 200.051C320.942 200.187 321.231 200.264 321.526 200.275L322.797 200.42C323.455 200.448 324.082 200.704 324.573 201.143C324.763 201.35 324.904 201.598 324.982 201.868C325.061 202.138 325.077 202.423 325.027 202.7C324.997 203.082 324.867 203.449 324.649 203.764C324.432 204.08 324.135 204.332 323.788 204.495C322.831 204.894 321.78 205.011 320.759 204.831C319.961 204.789 319.192 204.516 318.546 204.044C318.314 203.855 318.135 203.609 318.028 203.33C317.921 203.051 317.888 202.748 317.934 202.452C317.969 202.033 318.168 201.644 318.488 201.37C318.848 201.08 319.288 200.905 319.749 200.869C319.551 200.757 319.39 200.589 319.286 200.387C319.178 200.192 319.133 199.969 319.156 199.747C319.178 199.495 319.29 199.259 319.47 199.082C319.69 198.88 319.944 198.717 320.219 198.6C319.858 198.392 319.569 198.078 319.39 197.702C319.193 197.288 319.12 196.826 319.181 196.372C319.201 196.027 319.297 195.691 319.462 195.388C319.628 195.084 319.859 194.822 320.139 194.619C320.8 194.219 321.584 194.073 322.345 194.211C322.562 194.236 322.777 194.274 322.989 194.327C323.159 194.366 323.326 194.415 323.489 194.474L326.012 194.759ZM319.327 202.528C319.305 202.685 319.328 202.845 319.392 202.99C319.456 203.136 319.559 203.26 319.69 203.35C320.058 203.597 320.486 203.741 320.928 203.768C321.572 203.883 322.234 203.832 322.853 203.621C323.046 203.555 323.216 203.436 323.345 203.279C323.474 203.121 323.557 202.931 323.584 202.729C323.61 202.598 323.6 202.461 323.553 202.335C323.507 202.209 323.427 202.098 323.321 202.015C322.942 201.803 322.518 201.685 322.083 201.67L320.91 201.536C320.535 201.473 320.149 201.541 319.818 201.728C319.679 201.813 319.562 201.93 319.476 202.068C319.391 202.207 319.34 202.364 319.327 202.527V202.528ZM320.685 196.541C320.615 196.922 320.699 197.315 320.917 197.636C321.036 197.779 321.183 197.896 321.35 197.98C321.517 198.063 321.7 198.111 321.886 198.119C322.781 198.222 323.283 197.794 323.393 196.836C323.464 196.445 323.39 196.042 323.184 195.702C323.07 195.552 322.925 195.429 322.757 195.342C322.59 195.255 322.405 195.207 322.217 195.2C322.031 195.166 321.841 195.172 321.657 195.218C321.474 195.264 321.303 195.349 321.156 195.467C320.871 195.752 320.703 196.133 320.684 196.535L320.685 196.541Z" fill="#C98A30"/>
<path d="M331.671 202.787L331.566 201.806L331.487 201.797C331.222 202.118 330.872 202.358 330.477 202.49C330.028 202.64 329.551 202.686 329.082 202.624C328.722 202.611 328.369 202.526 328.042 202.375C327.715 202.223 327.423 202.007 327.181 201.74C326.978 201.439 326.836 201.102 326.763 200.746C326.69 200.391 326.688 200.025 326.757 199.669L327.3 194.904L328.862 195.083L328.35 199.576C328.266 200.017 328.336 200.474 328.55 200.869C328.668 201.032 328.821 201.166 328.999 201.26C329.177 201.353 329.374 201.405 329.575 201.411C329.84 201.464 330.114 201.453 330.375 201.381C330.635 201.308 330.875 201.175 331.074 200.993C331.498 200.447 331.736 199.781 331.754 199.091L332.172 195.46L333.728 195.637L332.892 202.926L331.671 202.787Z" fill="#C98A30"/>
<path d="M336.056 193.947C336.062 193.83 336.091 193.715 336.143 193.61C336.194 193.504 336.267 193.41 336.356 193.334C336.453 193.265 336.562 193.217 336.678 193.191C336.794 193.165 336.914 193.163 337.031 193.184C337.148 193.185 337.264 193.213 337.37 193.264C337.476 193.316 337.569 193.391 337.642 193.483C337.715 193.575 337.767 193.682 337.793 193.797C337.82 193.911 337.821 194.031 337.795 194.146C337.788 194.26 337.758 194.372 337.707 194.475C337.655 194.578 337.584 194.669 337.496 194.743C337.402 194.812 337.295 194.861 337.182 194.888C337.068 194.914 336.95 194.918 336.835 194.898C336.716 194.893 336.599 194.863 336.491 194.811C336.383 194.759 336.287 194.686 336.208 194.596C336.141 194.504 336.092 194.399 336.066 194.287C336.04 194.176 336.036 194.06 336.056 193.947ZM336.645 203.351L335.097 203.174L335.927 195.885L337.477 196.062L336.645 203.351Z" fill="#C98A30"/>
<path d="M341.301 204.018C340.891 203.99 340.493 203.864 340.143 203.649C339.792 203.435 339.498 203.139 339.286 202.787C338.88 201.888 338.725 200.896 338.839 199.916C338.952 198.936 339.33 198.006 339.93 197.223C340.218 196.925 340.574 196.701 340.967 196.57C341.36 196.439 341.779 196.404 342.188 196.469C342.615 196.495 343.028 196.629 343.39 196.858C343.751 197.087 344.048 197.404 344.254 197.779L344.333 197.789C344.315 197.371 344.325 196.952 344.364 196.535L344.666 193.879L346.221 194.057L345.052 204.311L343.839 204.172L343.678 203.185L343.606 203.177C343.327 203.504 342.968 203.753 342.564 203.901C342.16 204.048 341.725 204.089 341.301 204.018ZM341.859 202.813C342.114 202.866 342.377 202.859 342.629 202.793C342.881 202.727 343.114 202.605 343.311 202.434C343.705 201.956 343.932 201.362 343.957 200.743L343.982 200.525C344.119 199.849 344.041 199.146 343.758 198.517C343.609 198.296 343.41 198.114 343.178 197.986C342.945 197.857 342.685 197.786 342.42 197.777C342.171 197.74 341.917 197.768 341.683 197.86C341.449 197.952 341.244 198.103 341.087 198.3C340.693 198.835 340.465 199.474 340.43 200.138C340.315 200.778 340.39 201.437 340.646 202.035C340.764 202.258 340.937 202.448 341.15 202.584C341.362 202.72 341.607 202.799 341.859 202.813Z" fill="#C98A30"/>
<path d="M350.433 205.059C349.942 205.032 349.462 204.902 349.024 204.679C348.586 204.456 348.199 204.145 347.887 203.765C347.597 203.357 347.391 202.897 347.279 202.409C347.168 201.921 347.155 201.417 347.239 200.924C347.297 199.904 347.727 198.941 348.449 198.218C348.794 197.911 349.202 197.685 349.646 197.556C350.089 197.427 350.555 197.4 351.01 197.475C351.433 197.501 351.845 197.616 352.221 197.812C352.596 198.008 352.926 198.28 353.189 198.612C353.7 199.341 353.902 200.242 353.75 201.119L353.655 201.955L348.8 201.401C348.714 201.995 348.852 202.6 349.188 203.098C349.365 203.318 349.587 203.498 349.839 203.626C350.091 203.754 350.368 203.828 350.65 203.842C351.054 203.891 351.461 203.896 351.866 203.857C352.288 203.809 352.704 203.719 353.108 203.588L352.964 204.842C352.58 204.976 352.18 205.061 351.774 205.094C351.327 205.125 350.878 205.113 350.433 205.059ZM350.877 198.648C350.659 198.613 350.436 198.625 350.223 198.683C350.01 198.74 349.811 198.842 349.64 198.981C349.271 199.326 349.03 199.785 348.955 200.284L352.262 200.662C352.345 200.171 352.246 199.667 351.983 199.245C351.853 199.072 351.688 198.929 351.497 198.826C351.307 198.723 351.097 198.662 350.881 198.648H350.877Z" fill="#C98A30"/>
</g>
<defs>
<clipPath id="clip0_9_51002">
<rect width="600" height="323.5" fill="white"/>
</clipPath>
</defs>
</svg>
