<svg width="600" height="313" viewBox="0 0 600 313" fill="none" xmlns="http://www.w3.org/2000/svg">
<g clip-path="url(#clip0_9_42776)">
<mask id="mask0_9_42776" style="mask-type:alpha" maskUnits="userSpaceOnUse" x="0" y="0" width="600" height="313">
<path d="M599.726 210.74C602.714 167.134 581.018 126.387 545.291 105.365C517.505 89.0127 481.229 84.5973 441.48 100.042C363.61 130.299 377.42 -54.6601 195.686 16.3805C175.28 24.3566 152.679 55.3509 107.511 49.413C56.212 42.6631 0.0773024 86.531 0.0773024 146.122C-2.35557 234.831 51.036 326.313 395.3 310.347C500.559 305.465 589.676 311.918 599.726 210.74Z" fill="#F6F6F6"/>
</mask>
<g mask="url(#mask0_9_42776)">
<path d="M599.726 210.74C602.714 167.134 581.018 126.387 545.291 105.365C517.505 89.0127 481.229 84.5973 441.48 100.042C363.61 130.299 377.42 -54.6601 195.686 16.3805C175.28 24.3566 152.679 55.3509 107.511 49.413C56.212 42.6631 0.0773024 86.531 0.0773024 146.122C-2.35557 234.831 51.036 326.313 395.3 310.347C500.559 305.465 589.676 311.918 599.726 210.74Z" fill="#BEBEBE" fill-opacity="0.14"/>
<path d="M210.672 84.7852H203.955V351.179H210.672V84.7852Z" fill="#B0B5C0"/>
<mask id="mask1_9_42776" style="mask-type:alpha" maskUnits="userSpaceOnUse" x="-52" y="188" width="659" height="8">
<path d="M606.622 188.781H-51.412V195.491H606.622V188.781Z" fill="#8A90A7"/>
</mask>
<g mask="url(#mask1_9_42776)">
<path d="M606.622 188.781H-51.412V195.491H606.622V188.781Z" fill="#8A90A7"/>
<path d="M542.087 188.781H55.041V195.491H542.087V188.781Z" fill="#CED3DF"/>
<path d="M621.555 203.64L603.569 183.449H364.116L371.922 203.64H621.555Z" fill="#8A90A7"/>
</g>
<path d="M75.652 84.7852H68.9352V346.9H75.652V84.7852Z" fill="#B0B5C0"/>
<path d="M417.982 84.7852H411.265V324.311H417.982V84.7852Z" fill="#B0B5C0"/>
<path d="M558.396 84.7852H551.679V324.311H558.396V84.7852Z" fill="#B0B5C0"/>
<path d="M606.622 79.1934H-51.412V87.0244H606.622V79.1934Z" fill="#8A90A7"/>
<mask id="mask2_9_42776" style="mask-type:alpha" maskUnits="userSpaceOnUse" x="55" y="79" width="488" height="9">
<path d="M542.087 79.1934H55.041V87.0244H542.087V79.1934Z" fill="#CED3DF"/>
</mask>
<g mask="url(#mask2_9_42776)">
<path d="M542.087 79.1934H55.041V87.0244H542.087V79.1934Z" fill="#CED3DF"/>
<path d="M530.343 95.2509L528.688 72.6699H279.31L273.859 95.2509H530.343Z" fill="#8A90A7"/>
</g>
<path d="M606.622 290.611H-51.412V297.322H606.622V290.611Z" fill="#8A90A7"/>
<mask id="mask3_9_42776" style="mask-type:alpha" maskUnits="userSpaceOnUse" x="55" y="290" width="488" height="8">
<path d="M542.087 290.611H55.041V297.322H542.087V290.611Z" fill="#CED3DF"/>
</mask>
<g mask="url(#mask3_9_42776)">
<path d="M542.087 290.611H55.041V297.322H542.087V290.611Z" fill="#CED3DF"/>
<path d="M614.088 305.472L596.107 285.279H364.116L371.922 305.472H614.088Z" fill="#8A90A7"/>
</g>
<path d="M536.97 219.641H429.065V290.659H536.97V219.641Z" fill="#CED3DF"/>
<path d="M536.967 219.641H513.969V290.659H536.967V219.641Z" fill="#8A90A7"/>
<path d="M140.58 235.904H82.2643V290.173H140.58V235.904Z" fill="#CED3DF"/>
<path d="M140.577 235.904H123.004V290.173H140.577V235.904Z" fill="#8A90A7"/>
<path d="M536.003 132.127H475.115V188.789H536.003V132.127Z" fill="#CED3DF"/>
<path d="M536.002 132.127H517.652V188.789H536.002V132.127Z" fill="#8A90A7"/>
<path d="M483.322 153.002H444.873V188.783H483.322V153.002Z" fill="#CED3DF"/>
<path d="M483.321 153.002H471.735V188.783H483.321V153.002Z" fill="#8A90A7"/>
</g>
<path d="M305.193 100.064C305.193 100.064 246.696 111.182 240.138 128.333C235.915 139.365 246.862 172.361 253.067 194.517C254.981 201.369 256.077 208.424 256.333 215.533L257.841 311.242C257.841 311.242 316.86 314.122 368.142 311.168C368.142 311.168 372.341 242.686 373.748 235.195C375.155 227.704 381.251 205.685 381.251 200.533C381.251 195.38 403.239 138.88 393.91 130.738C379.912 118.528 350.448 105.552 335.275 101.518C327.106 99.3492 305.193 100.064 305.193 100.064Z" fill="#4573D2"/>
<path d="M240.632 127.39C235.209 132.004 188.536 238.354 194.631 251.471C200.726 264.589 208.697 280.515 208.697 280.515L238.235 262.716C238.235 262.716 242.456 214.937 257.928 189.642C257.928 189.642 275.615 138.298 256.499 126.992C255.405 123.561 246.055 122.775 240.632 127.39Z" fill="#4573D2"/>
<path d="M227.059 293.841C226.179 295.027 200.873 307.816 198.362 273.056C198.362 273.056 200.156 255.853 215.58 263.02C231.005 270.188 234.234 284.168 227.059 293.841Z" fill="#D1A79C"/>
<path d="M291.652 80.2062L291.382 110.981C291.382 110.981 298.171 129.847 310.528 132.005C325.993 134.707 335.855 113.497 335.855 106.229C335.855 98.9604 334.9 71.8555 334.9 71.8555L291.652 80.2062Z" fill="#D1A79C"/>
<path d="M381.673 198.786L374.738 185.637C374.738 185.637 363.059 206.749 362.247 216.318C361.677 223.042 361.445 244.721 345.933 262.198C328.626 281.694 324.003 296.817 324.003 312.425C324.003 312.738 357.777 311.89 368.528 311.408C368.787 311.387 381.673 198.786 381.673 198.786Z" fill="#4369B6"/>
<path d="M375.116 185.094C376.523 186.033 395.363 224.473 395.783 232.264C396.203 240.054 356.456 257.309 356.456 257.309C356.456 257.309 379.308 261.196 365.71 281.337C365.71 281.337 422.508 262.715 430.01 253.814C437.513 244.914 432.823 229.926 432.354 228.052C431.885 226.177 408.472 127.981 390.185 130.322C371.898 132.664 375.116 185.094 375.116 185.094Z" fill="#4573D2"/>
<path d="M253.897 197.653L251.384 178.496C251.384 178.496 240.353 199.759 240.689 208.147C241.026 216.536 223.896 237.001 223.896 237.001L238.338 238.008L253.897 197.653Z" fill="#4369B6"/>
<path d="M346.9 193.688C345.465 193.688 217.474 200.27 217.474 200.27L199.113 213.199L328.864 207.1L346.9 193.688Z" fill="#B5896B"/>
<path d="M328.784 207.144C329.86 206.069 346.832 193.746 346.832 193.746L352.249 272.696L332.879 285.597L328.784 207.144Z" fill="#A7795A"/>
<path d="M328.934 206.941C328.934 208.017 332.879 284.883 332.879 284.883C332.879 284.883 203.025 292.766 203.385 290.975C203.744 289.183 199.08 213.2 199.08 213.2L328.934 206.941Z" fill="#D5A882"/>
<path d="M346.623 247.225C341.17 245.415 337.029 243.907 336.845 246.488C336.66 249.069 338.794 253.862 346.374 256.468C353.955 259.074 351.18 268.877 338.094 278.751C332.656 282.854 328.287 284.266 326.235 284.542C324.14 284.825 318.887 285.186 318.648 286.013C317.786 288.999 328.201 294.978 351.97 289.248C357.063 288.021 365.896 281.248 367.074 269.808C368.012 260.735 361.2 252.062 346.623 247.225Z" fill="#EABBAE"/>
<path d="M368.601 273.871C372.142 273.179 375.5 271.758 378.46 269.697C382.494 266.566 398.481 254.291 429.357 246.112C434.729 244.688 433.731 240.601 434.179 238.213C434.179 238.213 436.775 253.894 421.54 260.161C421.54 260.161 386.263 275.815 365.706 281.34L368.601 273.871Z" fill="#4369B6"/>
<path fill-rule="evenodd" clip-rule="evenodd" d="M253.065 245.089C253.253 244.863 253.532 244.732 253.826 244.732H262.743C263.29 244.732 263.734 245.176 263.734 245.722C263.734 246.269 263.29 246.712 262.743 246.712H254.29L250.647 251.079L256.342 252.482C256.873 252.612 257.197 253.149 257.066 253.68C256.935 254.21 256.398 254.535 255.867 254.404L248.634 252.622C248.303 252.541 248.037 252.294 247.93 251.97C247.824 251.646 247.892 251.29 248.11 251.028L253.065 245.089ZM255.53 255.563C255.997 255.848 256.145 256.457 255.859 256.924L253.831 260.24C253.842 260.27 253.856 260.305 253.875 260.347C254.062 260.766 254.608 261.629 256.105 263.127C257.603 264.574 258.476 265.131 258.914 265.336C258.963 265.359 259.004 265.376 259.039 265.39L262.325 263.383C262.792 263.098 263.402 263.245 263.687 263.712C263.973 264.178 263.826 264.788 263.359 265.073L259.791 267.251C259.767 267.265 259.743 267.279 259.717 267.292L259.275 266.406C259.717 267.292 259.715 267.293 259.713 267.294L259.709 267.295L259.701 267.299L259.685 267.307C259.674 267.312 259.662 267.317 259.651 267.322C259.627 267.332 259.603 267.341 259.577 267.349C259.525 267.366 259.47 267.381 259.411 267.391C259.294 267.413 259.165 267.419 259.028 267.408C258.755 267.388 258.442 267.301 258.074 267.129C257.349 266.79 256.291 266.061 254.721 264.544L254.709 264.532C253.139 262.963 252.398 261.897 252.065 261.154C251.896 260.776 251.817 260.447 251.814 260.156C251.812 260.008 251.829 259.873 251.863 259.751C251.879 259.69 251.899 259.634 251.922 259.583C251.933 259.557 251.945 259.533 251.957 259.51C251.963 259.499 251.969 259.488 251.975 259.477L251.984 259.462L251.988 259.455L254.168 255.891C254.454 255.425 255.064 255.278 255.53 255.563ZM273.641 255.62C274.188 255.62 274.632 256.063 274.632 256.61V265.518C274.632 265.812 274.501 266.09 274.275 266.278L268.331 271.227C268.068 271.445 267.712 271.513 267.387 271.407C267.063 271.301 266.816 271.035 266.734 270.704L264.951 263.479C264.82 262.948 265.145 262.412 265.676 262.281C266.207 262.15 266.744 262.474 266.875 263.005L268.279 268.693L272.65 265.054V256.61C272.65 256.063 273.094 255.62 273.641 255.62Z" fill="white"/>
<path fill-rule="evenodd" clip-rule="evenodd" d="M278.167 229.481C282.631 227.352 287.479 226.142 292.421 225.922L292.465 226.911L293.454 226.968C293.169 231.902 291.925 236.734 289.793 241.194L289.791 241.198C288.612 243.635 287.044 245.864 285.146 247.796C282.379 250.609 277.285 254.923 272.919 258.507C270.729 260.304 268.71 261.928 267.238 263.103C266.503 263.69 265.903 264.165 265.488 264.494C265.28 264.658 265.119 264.785 265.009 264.872L264.841 265.004C264.841 265.004 264.84 265.004 264.228 264.226L264.841 265.004L264.298 265.43L257.962 261.544L257.879 261.461C255.841 259.425 254.88 257.906 254.442 256.828C254.222 256.285 254.133 255.849 254.109 255.514C254.097 255.347 254.102 255.207 254.114 255.094C254.12 255.037 254.128 254.988 254.137 254.946C254.141 254.925 254.145 254.905 254.15 254.888L254.156 254.863L254.159 254.851L254.161 254.846L254.162 254.843C254.162 254.842 254.162 254.841 255.113 255.12C254.333 254.509 254.333 254.509 254.333 254.509L254.465 254.342C254.551 254.233 254.677 254.072 254.84 253.866C255.166 253.453 255.638 252.858 256.222 252.126C257.39 250.662 259.006 248.651 260.799 246.463C264.374 242.1 268.689 236.99 271.552 234.129L271.561 234.121L271.57 234.112C273.524 232.257 275.74 230.699 278.149 229.49L278.158 229.485L278.167 229.481ZM255.113 255.12L254.333 254.509L254.216 254.659L254.162 254.841L255.113 255.12ZM256.097 255.471C256.116 255.597 256.164 255.8 256.279 256.084C256.58 256.827 257.335 258.103 259.199 259.979L264.157 263.021C264.19 262.996 264.223 262.969 264.258 262.941C264.672 262.615 265.268 262.141 266.002 261.556C267.468 260.386 269.48 258.767 271.661 256.977C276.039 253.384 281.051 249.135 283.732 246.409C285.478 244.631 286.921 242.581 288.005 240.339C289.866 236.447 291.013 232.257 291.394 227.967C287.108 228.296 282.915 229.412 279.029 231.263C276.802 232.383 274.752 233.823 272.944 235.538C270.161 238.321 265.911 243.35 262.332 247.717C260.546 249.897 258.936 251.9 257.772 253.36C257.19 254.089 256.72 254.682 256.395 255.093C256.275 255.245 256.175 255.371 256.097 255.471Z" fill="white"/>
<path fill-rule="evenodd" clip-rule="evenodd" d="M248.966 264.111C249.689 263.75 250.428 263.379 251.235 262.752L252.452 264.315C251.482 265.068 250.592 265.512 249.869 265.874L249.853 265.882C249.102 266.257 248.616 266.509 248.225 266.89C247.564 267.535 246.988 268.763 246.901 272.429C250.56 272.329 251.921 271.676 252.636 270.954C253.046 270.539 253.317 270.034 253.657 269.328C253.688 269.263 253.719 269.197 253.751 269.13C254.06 268.484 254.43 267.708 255.003 266.914L256.611 268.071C256.147 268.714 255.85 269.335 255.535 269.992C255.505 270.056 255.474 270.121 255.443 270.186C255.104 270.89 254.712 271.671 254.045 272.346C252.667 273.739 250.395 274.421 245.899 274.421H244.908V273.432C244.908 268.977 245.479 266.801 246.841 265.473C247.473 264.857 248.226 264.481 248.909 264.14C248.928 264.13 248.947 264.121 248.966 264.111Z" fill="white"/>
<path fill-rule="evenodd" clip-rule="evenodd" d="M279.745 238.013C279.384 237.866 278.997 237.793 278.607 237.798L278.594 237.798V237.798C278.006 237.798 277.431 237.973 276.942 238.299C276.453 238.625 276.072 239.089 275.847 239.632C275.622 240.174 275.564 240.771 275.678 241.347C275.793 241.924 276.076 242.453 276.492 242.868C276.908 243.283 277.438 243.566 278.014 243.68C278.591 243.795 279.188 243.736 279.732 243.511C280.275 243.286 280.739 242.906 281.065 242.417C281.392 241.929 281.566 241.354 281.566 240.767L282.557 240.767L281.566 240.754C281.571 240.364 281.498 239.978 281.351 239.617C281.204 239.256 280.986 238.928 280.71 238.653C280.435 238.377 280.106 238.16 279.745 238.013ZM283.548 240.773C283.555 240.121 283.432 239.475 283.187 238.871C282.94 238.265 282.574 237.715 282.111 237.253C281.648 236.79 281.098 236.425 280.491 236.179C279.887 235.933 279.239 235.811 278.587 235.819C277.609 235.82 276.654 236.11 275.841 236.653C275.026 237.197 274.391 237.97 274.017 238.874C273.642 239.779 273.544 240.774 273.735 241.734C273.926 242.694 274.398 243.576 275.091 244.268C275.784 244.96 276.667 245.431 277.628 245.622C278.589 245.813 279.585 245.715 280.49 245.34C281.395 244.965 282.169 244.331 282.713 243.517C283.256 242.704 283.547 241.75 283.548 240.773Z" fill="white"/>
<path d="M355.021 283.135C351.843 283.81 349.341 280.568 338.944 286.506C333.029 289.884 328.148 284.314 326.096 284.593C324 284.876 318.727 285.342 318.488 286.168C317.626 289.154 328.041 295.134 351.811 289.404C356.112 288.367 363.086 283.372 365.856 274.946C366.369 273.402 361.634 281.729 355.021 283.135Z" fill="#D1A79C"/>
<path d="M324.306 107.109C325.06 111.522 316.029 119.389 311.944 124.85C309.357 128.309 308.825 132.298 313.958 132.336C318.499 132.368 322.043 129.449 324.909 127.292C333.505 120.822 335.96 106.956 335.96 106.956L335.298 75.3457L290.367 78.3992C290.367 78.3992 323.074 99.8991 324.306 107.109Z" fill="#393939" fill-opacity="0.18"/>
<path d="M282.328 54.1689C280.952 53.4604 279.384 53.2159 277.858 53.4718C275.616 53.9936 273.337 60.4544 275.903 67.2867C278.468 74.119 281.629 76.6361 283.726 75.4569C284.624 80.5693 286.37 85.496 288.893 90.0336C291.547 98.9646 304.799 111.149 312.779 110.826C321.37 110.477 328.198 103.874 332.614 95.6147C337.029 87.3558 339.031 77.4418 339.458 75.5205C339.458 75.5205 343.288 75.9974 346.303 71.3337C350.633 64.635 349.667 47.6152 341.973 54.4486C341.973 54.4486 339.297 26.7718 337.585 25.9181C335.873 25.0645 299.968 14.8145 299.968 14.8145L285.861 31.47L282.328 54.1689Z" fill="#EABBAE"/>
<path d="M344.627 52.9095C344.627 51.628 354.259 18.2272 340.153 12.6753C326.047 7.12348 330.751 0.290119 314.076 2.42633C297.402 4.56253 279.551 6.28757 278.696 21.2327C277.84 36.1778 281.206 53.7496 281.206 53.7496L285.956 60.4483C285.956 60.4483 288.889 54.5876 286.934 44.54C285.287 36.0807 290.682 26.0384 293.982 28.0514C302.019 32.9563 317.804 33.933 328 28.3509C332.569 25.8463 336.94 37.0033 335.774 45.5543C335.275 50.6068 335.961 55.706 337.778 60.4473L344.627 52.9095Z" fill="#444C61"/>
<path d="M344.493 53.1946C344.493 51.9183 354.092 18.6323 340.034 13.1002C336.86 11.9151 333.913 10.1958 331.32 8.01697C326.863 4.26843 319.395 1.32762 318.543 16.2226C317.692 31.1176 290.738 26.4142 294.027 28.421C302.036 33.3092 317.766 34.2818 327.928 28.7195C332.481 26.2274 336.837 37.3416 335.675 45.8634C335.177 50.8982 335.861 55.9794 337.672 60.7042L344.493 53.1946Z" fill="#30384D"/>
<path d="M178.832 8.74219H102.517V79.7609H178.832V8.74219Z" fill="#CED3DF"/>
<path d="M178.829 8.74219H155.831V79.7609H178.829V8.74219Z" fill="#8A90A7"/>
</g>
<defs>
<clipPath id="clip0_9_42776">
<rect width="600" height="312.5" fill="white"/>
</clipPath>
</defs>
</svg>
