<svg width="254" height="235" viewBox="0 0 254 235" fill="none" xmlns="http://www.w3.org/2000/svg">
<g clip-path="url(#clip0_69_8152)">
<mask id="mask0_69_8152" style="mask-type:alpha" maskUnits="userSpaceOnUse" x="0" y="0" width="254" height="235">
<path d="M242.937 194.466C265.111 132.801 249.759 42.1347 233.425 20.8602C191.646 -33.5492 158.31 32.2429 112.151 62.3887C77.6053 84.9491 38.5619 55.2226 13.602 96.9483C-6.67621 132.595 -13.6011 227.9 60.8977 230.807C160.286 234.681 221.11 247.337 242.937 194.466Z" fill="#F6F6F6"/>
</mask>
<g mask="url(#mask0_69_8152)">
<path d="M-11.6 -2.7793H270.751L269.811 251.807H-12.5303L-11.6 -2.7793Z" fill="#BEBEBE" fill-opacity="0.14"/>
<path d="M269.44 188.389H-17.6006V243.238H269.44V188.389Z" fill="#CED3DF"/>
<path d="M-393.713 239.362C-393.713 239.362 -30.6077 234.484 107.516 230.804C132.522 230.137 116.385 224.238 121.391 223.788C154.051 220.854 149.965 218.562 149.965 218.562L-453.768 214.08L-393.713 239.362Z" fill="#8A90A7"/>
<path d="M12.5259 179.271L5.87695 189.401" stroke="#8A90A7" stroke-width="2.475" stroke-linecap="round" stroke-linejoin="round"/>
<path d="M67.5445 159.545L60.8955 169.675" stroke="#8A90A7" stroke-width="2.475" stroke-linecap="round" stroke-linejoin="round"/>
<path d="M20.5474 114.574L13.8984 124.704" stroke="#8A90A7" stroke-width="2.475" stroke-linecap="round" stroke-linejoin="round"/>
<path d="M209.547 159.545L202.898 169.675" stroke="#8A90A7" stroke-width="2.475" stroke-linecap="round" stroke-linejoin="round"/>
<path d="M260.049 94.0586L253.4 104.188" stroke="#8A90A7" stroke-width="2.475" stroke-linecap="round" stroke-linejoin="round"/>
<path d="M83.3491 108.215L76.7002 118.344" stroke="#8A90A7" stroke-width="2.475" stroke-linecap="round" stroke-linejoin="round"/>
<path d="M44.7324 22.7578L38.0835 32.8875" stroke="#8A90A7" stroke-width="2.475" stroke-linecap="round" stroke-linejoin="round"/>
<path d="M209.547 86.1777L202.898 96.3074" stroke="#8A90A7" stroke-width="2.475" stroke-linecap="round" stroke-linejoin="round"/>
<path d="M206.223 10.2441L199.574 20.3738" stroke="#8A90A7" stroke-width="2.475" stroke-linecap="round" stroke-linejoin="round"/>
<path d="M86.6734 55.2324L80.0244 65.3621" stroke="#8A90A7" stroke-width="2.475" stroke-linecap="round" stroke-linejoin="round"/>
<path d="M161.802 184.336L155.153 194.466" stroke="#8A90A7" stroke-width="2.475" stroke-linecap="round" stroke-linejoin="round"/>
<path d="M242.937 184.336L236.288 194.466" stroke="#8A90A7" stroke-width="2.475" stroke-linecap="round" stroke-linejoin="round"/>
<path d="M151.278 136.012L144.629 146.141" stroke="#8A90A7" stroke-width="2.475" stroke-linecap="round" stroke-linejoin="round"/>
<path d="M260.049 18.3574L253.4 28.4871" stroke="#8A90A7" stroke-width="2.475" stroke-linecap="round" stroke-linejoin="round"/>
<path d="M150.551 42.1797L143.902 52.3093" stroke="#8A90A7" stroke-width="2.475" stroke-linecap="round" stroke-linejoin="round"/>
<path d="M106.671 184.336L100.022 194.466" stroke="#8A90A7" stroke-width="2.475" stroke-linecap="round" stroke-linejoin="round"/>
<path d="M142.488 -8.5918L135.839 1.53784" stroke="#8A90A7" stroke-width="2.475" stroke-linecap="round" stroke-linejoin="round"/>
</g>
<path d="M162.791 23.0783L157.699 12.1599C157.699 12.1599 151.789 9.45562 147.612 10.4697C143.436 11.4838 140.086 12.4254 141.147 14.017C141.752 14.9232 145.876 14.1459 148.569 14.3577C150.603 14.5178 151.058 14.7854 151.451 15.7662C151.843 16.7469 151.687 20.3886 152.929 21.2901C154.171 22.1915 156.756 23.6542 156.756 23.6542L158.335 27.8234L160.933 26.8092L162.791 23.0783Z" fill="#D5A882"/>
<path d="M159.522 23.7717C158.007 21.8962 157.179 19.5609 157.174 17.1518C157.206 12.5403 151.087 11.5341 148.935 12.0568C144.758 13.0704 140.086 12.4261 141.148 14.0172C141.752 14.9233 145.876 14.146 148.569 14.3578C150.604 14.518 151.059 14.7856 151.451 15.7663C151.844 16.747 151.688 20.3888 152.93 21.2902C154.171 22.1916 156.756 23.6544 156.756 23.6544L158.335 27.8235L160.933 26.8094L159.522 23.7717Z" fill="#BA8B67"/>
<path d="M161.588 53.7697C166.227 53.476 154.907 26.6923 154.907 26.6923C159.056 22.1929 160.998 22.4303 162.791 23.0782C171.319 35.3524 175.19 59.4902 172.922 62.158C168.865 66.9317 142.445 71.9522 140.532 71.7608C138.619 71.5693 134.264 68.6965 134.119 62.785C134.014 58.4787 142.24 54.9935 161.588 53.7697Z" fill="#4573D2"/>
<path d="M150.448 62.3882C150.448 62.3882 148.846 56.6833 147.227 55.4198C147.227 55.4198 157.713 53.8981 161.112 53.7912C164.512 53.6842 161.459 45.4331 161.459 45.4331L154.909 26.6924C154.909 26.6924 157.333 24.0491 158.636 23.4701C159.645 23.0209 161.237 25.6741 162.793 32.9529C163.244 35.0635 163.298 41.6271 163.821 43.5901C165.417 49.5772 170.68 51.6049 168.536 54.486C166.392 57.3672 161.974 56.267 160.077 57.4194C158.179 58.5717 155.536 61.8123 150.448 62.3882Z" fill="#4369B6"/>
<path d="M134.477 120.804C135.072 122.805 136.957 128.884 138.321 130.338C138.446 130.468 138.612 130.551 138.791 130.574C138.913 130.591 139.036 130.581 139.153 130.544C139.27 130.507 139.376 130.444 139.465 130.36C139.554 130.276 139.623 130.173 139.666 130.058C139.71 129.944 139.727 129.821 139.716 129.7L138.786 119.1C138.774 118.968 138.73 118.84 138.657 118.728C138.584 118.616 138.485 118.524 138.368 118.46C138.251 118.396 138.12 118.361 137.986 118.359C137.852 118.358 137.72 118.389 137.602 118.45L134.884 119.856C134.716 119.942 134.584 120.084 134.509 120.257C134.435 120.43 134.424 120.623 134.477 120.804Z" fill="#4573D2"/>
<path d="M145.562 217.736L145.608 217.755L145.658 217.764H145.659C145.66 217.764 145.662 217.764 145.665 217.765C145.67 217.766 145.678 217.767 145.689 217.769C145.71 217.772 145.742 217.778 145.784 217.785C145.867 217.8 145.992 217.823 146.153 217.853C146.474 217.912 146.941 218 147.523 218.116C148.687 218.348 150.307 218.692 152.135 219.135C153.309 219.42 154.079 220.421 154.199 221.316C154.257 221.753 154.157 222.126 153.923 222.389C153.69 222.65 153.259 222.878 152.503 222.89C152.055 222.897 145.007 223.224 137.627 223.279C133.951 223.307 130.221 223.267 127.244 223.085C125.754 222.994 124.463 222.869 123.465 222.701C122.966 222.617 122.55 222.524 122.224 222.424C122.012 222.358 121.855 222.293 121.742 222.234C121.729 222.02 121.763 221.803 121.841 221.602C121.945 221.336 122.123 221.106 122.353 220.938L122.538 220.803L122.556 220.576L122.891 216.654L134.963 213.637L145.562 217.736Z" fill="#2D2B34" stroke="#2D2B34"/>
<path d="M109.379 132.678C109.379 132.678 117.054 158.042 117.106 168.203C117.157 178.364 121.973 220.989 121.973 220.989C121.973 220.989 133.785 217.911 136.084 213.454L135.016 211.529L136.099 209.126C136.099 209.126 134.673 163.689 133.633 154.551C132.592 145.413 132.4 122.496 132.4 122.496C132.4 122.496 131.935 106.732 123.03 108.342C114.124 109.952 108.185 117.981 109.379 132.678Z" fill="#444C61"/>
<path d="M128.165 140.295C125.976 148.287 128.719 149.307 125.45 162.1C122.367 174.172 126.068 173.681 121.606 188.442C118.065 200.158 127.813 215.794 132.206 216.943C132.959 217.14 123.321 221.029 121.973 220.992C120.625 220.955 117.599 168.935 116.761 163.775C115.922 158.616 111.869 141.456 111.869 141.456L123.092 127.361C123.092 127.361 130.355 132.304 128.165 140.295Z" fill="#30384D"/>
<path d="M115.215 223.024L115.354 223.169L115.553 223.179H115.557C115.559 223.179 115.564 223.179 115.569 223.18C115.581 223.18 115.598 223.18 115.62 223.182C115.665 223.184 115.731 223.189 115.816 223.194C115.987 223.206 116.233 223.223 116.53 223.251C117.126 223.306 117.924 223.399 118.739 223.548C119.559 223.697 120.374 223.9 121.015 224.167C121.689 224.449 122.027 224.744 122.117 224.992C122.289 225.463 122.482 225.988 122.573 226.531C122.664 227.071 122.645 227.582 122.431 228.035C122.013 228.916 120.688 229.876 116.834 230.043C112.946 230.212 107.419 230.503 102.526 230.106C100.08 229.908 97.8202 229.539 96.0186 228.91C94.2962 228.309 93.0684 227.496 92.4463 226.441L95.167 217.014L107.341 214.806L115.215 223.024Z" fill="#2D2B34" stroke="#2D2B34"/>
<path d="M102.719 131.972L101.296 134.123L102.794 168.649L93.29 220.306C94.7266 221.023 96.3312 221.338 97.9327 221.216C99.5343 221.094 101.073 220.541 102.384 219.615L108.506 215.293L130.277 129.719C130.277 129.719 128.407 117.157 120.221 116.416C112.036 115.676 104.303 115.372 102.719 131.972Z" fill="#444C61"/>
<path d="M101.296 134.124L102.794 168.65L93.29 220.307C98.6904 222.535 102.384 219.616 102.384 219.616C99.4205 175.458 104.788 188.733 109.829 172.338C112.185 164.676 106.56 163.24 105.757 156.715C105.876 146.816 116.367 137.235 110.228 133.345C103.267 128.936 105.834 120.972 105.834 120.972C97.6441 120.232 101.296 134.124 101.296 134.124Z" fill="#30384D"/>
<path d="M142.808 94.8811C142.808 94.8811 149.535 71.9499 150.35 69.3823C151.107 67.0004 147.197 60.2949 147.197 60.2949L142.735 65.9643L136.681 98.4326L142.808 94.8811Z" fill="#4573D2"/>
<path d="M146.808 61.1747C146.808 61.1747 141.529 56.0802 136.017 50.5391L138.358 51.3951C138.358 51.3951 124.939 53.6299 118.568 70.6017C116.929 74.9706 113.329 84.5822 113.329 84.5822C113.329 84.5822 107.963 99.7183 105.205 103.841C102.447 107.964 98.5941 121.86 100.962 125.428C100.962 125.428 106.756 119.742 113.235 124.538C118.338 128.316 123.281 134.368 128.274 135.832C129.272 136.124 130.34 136.057 131.293 135.642C132.246 135.226 133.022 134.49 133.486 133.561L137.452 125.629C137.452 125.629 147.036 61.2039 146.808 61.1747Z" fill="#4573D2"/>
<path d="M141.996 86.1613C142.591 78.4016 145.707 72.0806 143.031 64.8848L137.609 102.111C137.609 102.111 141.35 94.5835 141.996 86.1613Z" fill="#4369B6"/>
<path d="M124.957 96.9484L125.805 129.021L170.951 131.003L179.762 125.477L178.702 95.5566L169.785 99.4493L124.957 96.9484Z" fill="#D5A882"/>
<path d="M178.702 95.5557L134.099 93.0371L124.956 96.9496L169.784 99.4499L178.702 95.5573" fill="#B5896B"/>
<path d="M169.785 99.4481L170.951 131.002L125.805 129.02L124.957 96.9473L169.785 99.4481Z" fill="#A7795A"/>
<path d="M149.412 111.622L156.726 117.009L159.002 119.424C159.514 119.966 159.854 120.647 159.979 121.381C160.236 122.87 160.644 125.334 160.588 125.594C160.55 125.778 159.581 126.586 157.126 122.117C156.076 120.204 155.363 121.049 155.363 121.049C155.363 121.049 156.369 129.728 157.274 130.856C158.18 131.985 154.285 133.331 152.969 132.13C152.969 132.13 147.89 130.526 146.818 128.209C145.746 125.892 144.346 116.984 144.346 116.984L142.679 115.295L147.639 110.314L149.412 111.622Z" fill="#D5A882"/>
<path d="M146.88 115.785C146.88 115.785 149.885 120.931 148.911 122.592C146.365 126.932 153.12 131.44 154.002 132.595C154.002 132.595 148.71 131.059 147.17 128.782C145.63 126.506 144.348 116.987 144.348 116.987L144 116.634C144.688 116.258 145.342 115.824 145.955 115.336C146.151 115.044 146.88 115.785 146.88 115.785Z" fill="#BA8B67"/>
<path d="M146.814 60.2946C146.726 59.6221 151.6 51.5385 152.432 50.8201C152.432 50.8201 157.214 50.4195 157.401 48.7335C157.588 47.0475 155.577 40.1292 155.577 40.1292C155.577 40.1292 157.796 39.764 157.696 38.7483C157.671 38.4917 153.16 34.7905 153.16 34.7905C152.803 33.0221 152.328 31.2794 151.74 29.5739C148.305 21.0337 140.369 20.9461 130.544 26.9948C130.544 26.9948 125.397 31.4811 127.04 36.4134C127.04 36.4134 128.918 46.8769 135.847 47.9583C135.847 47.9583 136.607 51.0121 136.322 51.9558L146.814 60.2946Z" fill="#D5A882"/>
<path d="M144.484 28.0056C144.484 28.0056 138.146 26.835 140.577 30.7141C140.577 30.7141 142.076 35.7189 141.015 37.8926C139.953 40.0664 137.822 37.649 135.377 37.5797C134.136 37.5452 132.733 40.5803 137.391 43.1327C137.815 43.3677 138.181 43.6946 138.462 44.0894C138.743 44.4842 138.932 44.9368 139.014 45.414C139.287 46.979 139.057 49.3098 136.267 51.3145C136.267 51.3145 134.394 48.1574 133.166 47.6034C131.938 47.0494 124.691 39.4743 125.487 31.6504C126.255 24.1088 131.386 21.995 137.721 20.6042C144.056 19.2135 149.543 20.803 151.686 28.4015C151.686 28.4031 153.539 31.6233 144.484 28.0056Z" fill="#444C61"/>
<path d="M142.749 46.1272C144.138 48.1747 150.218 52.7283 155.248 50.6938C156.191 50.3526 157.057 49.8266 157.794 49.1466C157.794 49.1466 159.348 47.2164 157.183 45.7944C157.183 45.7944 156.742 45.5461 155.55 45.9686C154.358 46.3912 153.075 45.6144 152.876 45.1543C152.563 44.4349 153.074 43.0374 154.433 42.5982C154.881 42.4537 156.722 42.1495 156.994 41.7301C157.265 41.3107 156.585 40.0086 155.805 40.0827C155.805 40.0827 154.441 41.1954 153.453 41.3926C153.257 41.4315 153.076 41.5247 152.93 41.6616C152.784 41.7985 152.68 41.9735 152.63 42.1668C152.342 43.2892 151.726 44.3004 150.859 45.0708C149.095 46.5941 147.25 46.7083 145.489 44.5977C143.728 42.4871 142.603 41.1787 141.379 35.2239C139.616 33.7769 138.89 37.6236 138.89 37.6236C138.89 37.6236 141.359 44.0813 142.749 46.1272Z" fill="#444C61"/>
<path d="M139.033 47.2445C139.033 47.2445 132.089 46.1819 131.941 42.5975C131.793 39.0132 129.619 38.8937 127.72 33.096C125.786 27.1949 128.32 24.8887 128.32 24.8887C128.32 24.8887 126.998 25.6487 125.712 30.1575C124.266 35.2301 128.003 43.6216 132.406 47.0442C136.547 50.2629 135.797 51.5717 135.797 51.5717C135.797 51.5717 139.422 49.411 139.033 47.2445Z" fill="#30384D"/>
<path d="M139.033 47.2441C139.033 47.2441 143.717 53.6762 143.588 53.6648C138.527 53.1994 136.13 51.3173 136.13 51.3173C136.13 51.3173 139.136 49.2296 139.033 47.2441Z" fill="#BA8B67"/>
<path d="M142.252 87.0449C142.252 87.0449 136.9 88.5922 134.134 97.3561L147.898 98.2784C147.898 98.2784 151.268 89.2745 156.313 88.1649L142.252 87.0449Z" fill="#DBDBDB"/>
<path d="M169.469 85.8965C169.469 85.8965 166.647 86.7113 164.045 90.5095C163.062 91.9446 160.512 96.552 159.753 98.9547L169.748 99.5249L175.115 97.13C175.115 97.13 177.942 91.7047 181.48 89.544L169.469 85.8965Z" fill="#DBDBDB"/>
<path d="M119.988 84.8223C119.988 84.8223 125.276 90.0655 125.302 96.8205L139.161 97.6552C139.161 97.6552 139.41 89.1301 134.742 85.334L119.988 84.8223Z" fill="white"/>
<path d="M149.63 84.8164L147.226 98.3149L161.429 99.1225L163.852 85.7935L149.63 84.8164Z" fill="white"/>
<path d="M143.611 69.8765C142.438 74.3628 142.13 81.0672 140.967 84.9406C138.648 92.6612 150.24 112.232 150.24 112.232C149.46 118.359 146.081 119.547 144.761 119.547C144.162 119.361 139.911 117.072 132.401 105.496C129.457 100.957 127.547 99.4021 126.635 94.0498C125.723 88.6976 126.133 67.1915 126.557 65.3193C126.981 63.447 130.124 49.9615 136.02 50.5395C140.313 50.9605 148.561 50.9245 143.611 69.8765Z" fill="#4573D2"/>
<path d="M131.854 69.4448C133.271 80.3757 130.149 87.2413 131.122 91.1668C132.899 98.3465 135.076 96.2431 137.467 101.802C138.835 104.985 136.843 109.23 141.999 110.772C145.724 111.886 150.306 112.36 149.501 115.374C148.934 117.494 146.156 119.854 144.858 119.622C143.833 119.439 140.28 116.388 134.966 109.68C131.607 105.44 127.644 99.4774 126.732 94.1252C125.82 88.7729 126.231 67.2669 126.654 65.3946C127.077 63.5224 129.755 50.3008 136.117 50.6149C136.773 50.6477 129.456 50.9592 131.854 69.4448Z" fill="#4369B6"/>
<path d="M162.791 23.0783L157.699 12.1599C157.699 12.1599 151.789 9.45562 147.612 10.4697C143.436 11.4838 140.086 12.4254 141.147 14.017C141.752 14.9232 145.876 14.1459 148.569 14.3577C150.603 14.5178 151.058 14.7854 151.451 15.7662C151.843 16.7469 151.687 20.3886 152.929 21.2901C154.171 22.1915 156.756 23.6542 156.756 23.6542L158.335 27.8234L160.933 26.8092L162.791 23.0783Z" fill="#D5A882"/>
<path d="M159.522 23.7717C158.007 21.8962 157.179 19.5609 157.174 17.1518C157.206 12.5403 151.087 11.5341 148.935 12.0568C144.758 13.0704 140.086 12.4261 141.148 14.0172C141.752 14.9233 145.876 14.146 148.569 14.3578C150.604 14.518 151.059 14.7856 151.451 15.7663C151.844 16.747 151.688 20.3888 152.93 21.2902C154.171 22.1916 156.756 23.6544 156.756 23.6544L158.335 27.8235L160.933 26.8094L159.522 23.7717Z" fill="#BA8B67"/>
<path d="M161.588 53.7697C166.227 53.476 154.907 26.6923 154.907 26.6923C159.056 22.1929 160.998 22.4303 162.791 23.0782C171.319 35.3524 175.19 59.4902 172.922 62.158C168.865 66.9317 142.445 71.9522 140.532 71.7608C138.619 71.5693 134.264 68.6965 134.119 62.785C134.014 58.4787 142.24 54.9935 161.588 53.7697Z" fill="#4573D2"/>
<path d="M150.448 62.3882C150.448 62.3882 148.846 56.6833 147.227 55.4198C147.227 55.4198 157.713 53.8981 161.112 53.7912C164.512 53.6842 161.459 45.4331 161.459 45.4331L154.909 26.6924C154.909 26.6924 157.333 24.0491 158.636 23.4701C159.645 23.0209 161.237 25.6741 162.793 32.9529C163.244 35.0635 163.298 41.6271 163.821 43.5901C165.417 49.5772 170.68 51.6049 168.536 54.486C166.392 57.3672 161.974 56.267 160.077 57.4194C158.179 58.5717 155.536 61.8123 150.448 62.3882Z" fill="#4369B6"/>
<path d="M134.477 120.804C135.072 122.805 136.957 128.884 138.321 130.338C138.446 130.468 138.612 130.551 138.791 130.574C138.913 130.591 139.036 130.581 139.153 130.544C139.27 130.507 139.376 130.444 139.465 130.36C139.554 130.276 139.623 130.173 139.666 130.058C139.71 129.944 139.727 129.821 139.716 129.7L138.786 119.1C138.774 118.968 138.73 118.84 138.657 118.728C138.584 118.616 138.485 118.524 138.368 118.46C138.251 118.396 138.12 118.361 137.986 118.359C137.852 118.358 137.72 118.389 137.602 118.45L134.884 119.856C134.716 119.942 134.584 120.084 134.509 120.257C134.435 120.43 134.424 120.623 134.477 120.804Z" fill="#4573D2"/>
<path d="M145.562 217.736L145.608 217.755L145.658 217.764H145.659C145.66 217.764 145.662 217.764 145.665 217.765C145.67 217.766 145.678 217.767 145.689 217.769C145.71 217.772 145.742 217.778 145.784 217.785C145.867 217.8 145.992 217.823 146.153 217.853C146.474 217.912 146.941 218 147.523 218.116C148.687 218.348 150.307 218.692 152.135 219.135C153.309 219.42 154.079 220.421 154.199 221.316C154.257 221.753 154.157 222.126 153.923 222.389C153.69 222.65 153.259 222.878 152.503 222.89C152.055 222.897 145.007 223.224 137.627 223.279C133.951 223.307 130.221 223.267 127.244 223.085C125.754 222.994 124.463 222.869 123.465 222.701C122.966 222.617 122.55 222.524 122.224 222.424C122.012 222.358 121.855 222.293 121.742 222.234C121.729 222.02 121.763 221.803 121.841 221.602C121.945 221.336 122.123 221.106 122.353 220.938L122.538 220.803L122.556 220.576L122.891 216.654L134.963 213.637L145.562 217.736Z" fill="#2D2B34" stroke="#2D2B34"/>
<path d="M109.379 132.678C109.379 132.678 117.054 158.042 117.106 168.203C117.157 178.364 121.973 220.989 121.973 220.989C121.973 220.989 133.785 217.911 136.084 213.454L135.016 211.529L136.099 209.126C136.099 209.126 134.673 163.689 133.633 154.551C132.592 145.413 132.4 122.496 132.4 122.496C132.4 122.496 131.935 106.732 123.03 108.342C114.124 109.952 108.185 117.981 109.379 132.678Z" fill="#444C61"/>
<path d="M128.165 140.295C125.976 148.287 128.719 149.307 125.45 162.1C122.367 174.172 126.068 173.681 121.606 188.442C118.065 200.158 127.813 215.794 132.206 216.943C132.959 217.14 123.321 221.029 121.973 220.992C120.625 220.955 117.599 168.935 116.761 163.775C115.922 158.616 111.869 141.456 111.869 141.456L123.092 127.361C123.092 127.361 130.355 132.304 128.165 140.295Z" fill="#30384D"/>
<path d="M115.215 223.024L115.354 223.169L115.553 223.179H115.557C115.559 223.179 115.564 223.179 115.569 223.18C115.581 223.18 115.598 223.18 115.62 223.182C115.665 223.184 115.731 223.189 115.816 223.194C115.987 223.206 116.233 223.223 116.53 223.251C117.126 223.306 117.924 223.399 118.739 223.548C119.559 223.697 120.374 223.9 121.015 224.167C121.689 224.449 122.027 224.744 122.117 224.992C122.289 225.463 122.482 225.988 122.573 226.531C122.664 227.071 122.645 227.582 122.431 228.035C122.013 228.916 120.688 229.876 116.834 230.043C112.946 230.212 107.419 230.503 102.526 230.106C100.08 229.908 97.8202 229.539 96.0186 228.91C94.2962 228.309 93.0684 227.496 92.4463 226.441L95.167 217.014L107.341 214.806L115.215 223.024Z" fill="#2D2B34" stroke="#2D2B34"/>
<path d="M102.719 131.972L101.296 134.123L102.794 168.649L93.29 220.306C94.7266 221.023 96.3312 221.338 97.9327 221.216C99.5343 221.094 101.073 220.541 102.384 219.615L108.506 215.293L130.277 129.719C130.277 129.719 128.407 117.157 120.221 116.416C112.036 115.676 104.303 115.372 102.719 131.972Z" fill="#444C61"/>
<path d="M101.296 134.124L102.794 168.65L93.29 220.307C98.6904 222.535 102.384 219.616 102.384 219.616C99.4205 175.458 104.788 188.733 109.829 172.338C112.185 164.676 106.56 163.24 105.757 156.715C105.876 146.816 116.367 137.235 110.228 133.345C103.267 128.936 105.834 120.972 105.834 120.972C97.6441 120.232 101.296 134.124 101.296 134.124Z" fill="#30384D"/>
<path d="M142.808 94.8811C142.808 94.8811 149.535 71.9499 150.35 69.3823C151.107 67.0004 147.197 60.2949 147.197 60.2949L142.735 65.9643L136.681 98.4326L142.808 94.8811Z" fill="#4573D2"/>
<path d="M146.808 61.1747C146.808 61.1747 141.529 56.0802 136.017 50.5391L138.358 51.3951C138.358 51.3951 124.939 53.6299 118.568 70.6017C116.929 74.9706 113.329 84.5822 113.329 84.5822C113.329 84.5822 107.963 99.7183 105.205 103.841C102.447 107.964 98.5941 121.86 100.962 125.428C100.962 125.428 106.756 119.742 113.235 124.538C118.338 128.316 123.281 134.368 128.274 135.832C129.272 136.124 130.34 136.057 131.293 135.642C132.246 135.226 133.022 134.49 133.486 133.561L137.452 125.629C137.452 125.629 147.036 61.2039 146.808 61.1747Z" fill="#4573D2"/>
<path d="M145.224 86.6584C145.819 78.8987 145.704 72.0806 143.029 64.8848L137.609 102.111C137.609 102.111 144.579 95.0807 145.224 86.6584Z" fill="#4369B6"/>
<path d="M124.957 96.9484L125.805 129.021L170.951 131.003L179.762 125.477L178.702 95.5566L169.785 99.4493L124.957 96.9484Z" fill="#D5A882"/>
<path d="M178.702 95.5557L134.099 93.0371L124.956 96.9496L169.784 99.4499L178.702 95.5573" fill="#B5896B"/>
<path d="M169.785 99.4481L170.951 131.002L125.805 129.02L124.957 96.9473L169.785 99.4481Z" fill="#A7795A"/>
<path d="M149.412 111.622L156.726 117.009L159.002 119.424C159.514 119.966 159.854 120.647 159.979 121.381C160.236 122.87 160.644 125.334 160.588 125.594C160.55 125.778 159.581 126.586 157.126 122.117C156.076 120.204 155.363 121.049 155.363 121.049C155.363 121.049 156.369 129.728 157.274 130.856C158.18 131.985 154.285 133.331 152.969 132.13C152.969 132.13 147.89 130.526 146.818 128.209C145.746 125.892 144.346 116.984 144.346 116.984L142.679 115.295L147.639 110.314L149.412 111.622Z" fill="#D5A882"/>
<path d="M146.88 115.785C146.88 115.785 149.885 120.931 148.911 122.592C146.365 126.932 153.12 131.44 154.002 132.595C154.002 132.595 148.71 131.059 147.17 128.782C145.63 126.506 144.348 116.987 144.348 116.987L144 116.634C144.688 116.258 145.342 115.824 145.955 115.336C146.151 115.044 146.88 115.785 146.88 115.785Z" fill="#BA8B67"/>
<path d="M146.814 60.2946C146.726 59.6221 151.6 51.5385 152.432 50.8201C152.432 50.8201 157.214 50.4195 157.401 48.7335C157.588 47.0475 155.577 40.1292 155.577 40.1292C155.577 40.1292 157.796 39.764 157.696 38.7483C157.671 38.4917 153.16 34.7905 153.16 34.7905C152.803 33.0221 152.328 31.2794 151.74 29.5739C148.305 21.0337 140.369 20.9461 130.544 26.9948C130.544 26.9948 125.397 31.4811 127.04 36.4134C127.04 36.4134 128.918 46.8769 135.847 47.9583C135.847 47.9583 136.607 51.0121 136.322 51.9558L146.814 60.2946Z" fill="#D5A882"/>
<path d="M144.484 28.0056C144.484 28.0056 138.146 26.835 140.577 30.7141C140.577 30.7141 142.076 35.7189 141.015 37.8926C139.953 40.0664 137.822 37.649 135.377 37.5797C134.136 37.5452 132.733 40.5803 137.391 43.1327C137.815 43.3677 138.181 43.6946 138.462 44.0894C138.743 44.4842 138.932 44.9368 139.014 45.414C139.287 46.979 139.057 49.3098 136.267 51.3145C136.267 51.3145 134.394 48.1574 133.166 47.6034C131.938 47.0494 124.691 39.4743 125.487 31.6504C126.255 24.1088 131.386 21.995 137.721 20.6042C144.056 19.2135 149.543 20.803 151.686 28.4015C151.686 28.4031 153.539 31.6233 144.484 28.0056Z" fill="#444C61"/>
<path d="M142.749 46.1272C144.138 48.1747 150.218 52.7283 155.248 50.6938C156.191 50.3526 157.057 49.8266 157.794 49.1466C157.794 49.1466 159.348 47.2164 157.183 45.7944C157.183 45.7944 156.742 45.5461 155.55 45.9686C154.358 46.3912 153.075 45.6144 152.876 45.1543C152.563 44.4349 153.074 43.0374 154.433 42.5982C154.881 42.4537 156.722 42.1495 156.994 41.7301C157.265 41.3107 156.585 40.0086 155.805 40.0827C155.805 40.0827 154.441 41.1954 153.453 41.3926C153.257 41.4315 153.076 41.5247 152.93 41.6616C152.784 41.7985 152.68 41.9735 152.63 42.1668C152.342 43.2892 151.726 44.3004 150.859 45.0708C149.095 46.5941 147.25 46.7083 145.489 44.5977C143.728 42.4871 142.603 41.1787 141.379 35.2239C139.616 33.7769 138.89 37.6236 138.89 37.6236C138.89 37.6236 141.359 44.0813 142.749 46.1272Z" fill="#444C61"/>
<path d="M139.033 47.2445C139.033 47.2445 132.089 46.1819 131.941 42.5975C131.793 39.0132 129.619 38.8937 127.72 33.096C125.786 27.1949 128.32 24.8887 128.32 24.8887C128.32 24.8887 126.998 25.6487 125.712 30.1575C124.266 35.2301 128.003 43.6216 132.406 47.0442C136.547 50.2629 135.797 51.5717 135.797 51.5717C135.797 51.5717 139.422 49.411 139.033 47.2445Z" fill="#30384D"/>
<path d="M139.033 47.2441C139.033 47.2441 143.717 53.6762 143.588 53.6648C138.527 53.1994 136.13 51.3173 136.13 51.3173C136.13 51.3173 139.136 49.2296 139.033 47.2441Z" fill="#BA8B67"/>
<path d="M106.248 122.758C106.248 122.758 111.25 109.217 110.453 104.108C109.662 99.0354 117.027 74.7207 117.027 74.7207C117.027 74.7207 113.641 84.4346 111.871 87.9292C108.683 94.2272 103.574 106.44 102.242 110.842C98.5119 123.171 100.965 125.428 100.965 125.428C102.478 124.115 104.293 123.198 106.248 122.758Z" fill="#4369B6"/>
<path d="M142.252 87.0449C142.252 87.0449 136.9 88.5922 134.134 97.3561L147.898 98.2784C147.898 98.2784 151.268 89.2745 156.313 88.1649L142.252 87.0449Z" fill="#DBDBDB"/>
<path d="M169.469 85.8965C169.469 85.8965 166.647 86.7113 164.045 90.5095C163.062 91.9446 160.512 96.552 159.753 98.9547L169.748 99.5249L175.115 97.13C175.115 97.13 177.942 91.7047 181.48 89.544L169.469 85.8965Z" fill="#DBDBDB"/>
<path d="M119.988 84.8223C119.988 84.8223 125.276 90.0655 125.302 96.8205L139.161 97.6552C139.161 97.6552 139.41 89.1301 134.742 85.334L119.988 84.8223Z" fill="white"/>
<path d="M149.63 84.8164L147.226 98.3149L161.429 99.1225L163.852 85.7935L149.63 84.8164Z" fill="white"/>
<path d="M143.611 69.8765C142.438 74.3628 142.13 81.0672 140.967 84.9406C138.648 92.6612 150.24 112.232 150.24 112.232C149.46 118.359 146.081 119.547 144.761 119.547C144.162 119.361 139.911 117.072 132.401 105.496C129.457 100.957 127.547 99.4021 126.635 94.0498C125.723 88.6976 126.133 67.1915 126.557 65.3193C126.981 63.447 130.124 49.9615 136.02 50.5395C140.313 50.9605 148.561 50.9245 143.611 69.8765Z" fill="#4573D2"/>
<path d="M131.854 69.4448C133.271 80.3757 130.149 87.2413 131.122 91.1668C132.899 98.3465 135.076 96.2431 137.467 101.802C138.835 104.985 136.843 109.23 141.999 110.772C145.724 111.886 150.306 112.36 149.501 115.374C148.934 117.494 146.156 119.854 144.858 119.622C143.833 119.439 140.28 116.388 134.966 109.68C131.607 105.44 127.644 99.4774 126.732 94.1252C125.82 88.7729 126.231 67.2669 126.654 65.3946C127.077 63.5224 129.755 50.3008 136.117 50.6149C136.773 50.6477 129.456 50.9592 131.854 69.4448Z" fill="#4369B6"/>
<path d="M161.117 108.674C161.117 108.674 159.272 113.943 161.08 113.6C162.888 113.258 161.117 108.674 161.117 108.674Z" fill="#8A90A7"/>
<path d="M169.66 134.246C169.66 134.246 167.815 139.515 169.622 139.173C171.429 138.832 169.66 134.246 169.66 134.246Z" fill="#8A90A7"/>
<path d="M177.019 115.881C177.019 115.881 175.174 121.15 176.982 120.808C178.79 120.466 177.019 115.881 177.019 115.881Z" fill="#8A90A7"/>
</g>
<defs>
<clipPath id="clip0_69_8152">
<rect width="254" height="234.95" fill="white"/>
</clipPath>
</defs>
</svg>
