<svg width="254" height="181" viewBox="0 0 254 181" fill="none" xmlns="http://www.w3.org/2000/svg">
<g clip-path="url(#clip0_69_8150)">
<mask id="mask0_69_8150" style="mask-type:alpha" maskUnits="userSpaceOnUse" x="2" y="0" width="252" height="181">
<path d="M23.6302 11.565C119.705 -16.4393 208.644 9.25446 208.589 58.1512C213.159 67.8468 213.282 84.8693 235.475 92.1614C267.708 102.752 252.125 148.528 232.087 158.448C164.163 194.106 62.6972 178.839 34.5894 164.091C6.1607 149.172 -14.5053 106.913 23.6292 78.4029C47.226 54.8369 -19.5099 29.0301 23.6302 11.565Z" fill="#F6F6F6"/>
</mask>
<g mask="url(#mask0_69_8150)">
<path d="M375.892 -107.34H-127.758V160.362H375.892V-107.34Z" fill="#BEBEBE" fill-opacity="0.14"/>
<path d="M380.142 118.709H-125.633V198.569H380.142V118.709Z" fill="#CED3DF"/>
<path d="M-147.841 146.196C-147.841 146.196 216.865 145.207 234.465 143.624C248.107 142.397 241.417 138.125 237.718 136.266C236.567 135.688 235.293 135.4 234.005 135.427L-177.63 128.406L-147.841 146.196Z" fill="#8A90A7"/>
</g>
<path d="M165.743 92.1621C167.093 92.4847 168.271 93.3069 169.038 94.4629L169.901 94.3633L166.184 94.2642C165.602 93.8023 164.903 93.5113 164.164 93.4237L165.034 93.0879L166.184 92.2807" fill="#444C61"/>
<g filter="url(#filter0_d_69_8150)">
<path d="M62.6943 66.1157C64.8853 71.3981 68.7425 75.421 74.5727 77.9503L82.5296 69.983C77.5116 67.2629 73.3868 63.1534 70.6508 58.1484L62.6943 66.1157Z" fill="#DBDBDB"/>
</g>
<g filter="url(#filter1_d_69_8150)">
<path d="M17.4784 82.5063C12.5696 80.8055 8.27662 77.688 5.14307 73.5486L11.0987 65.3672C14.0834 69.4964 18.1961 72.4823 23.4366 74.3249L17.4784 82.5063Z" fill="#DBDBDB"/>
</g>
<path d="M148.301 104.1L147.484 90.9551L146.325 93.5578L145.884 104.238L148.301 104.1Z" fill="#4573D2"/>
<path d="M147.449 92.8784C148.198 91.8752 149.069 90.969 150.042 90.1807C150.042 90.1807 151.863 90.5704 152.123 89.9645C152.383 89.3586 152.417 86.5619 152.417 86.5619C152.417 86.5619 153.282 86.6769 153.36 86.2877C153.38 86.1896 152.123 84.3063 152.123 84.3063C152.19 83.609 152.21 82.9082 152.184 82.2083C151.876 78.6485 148.937 77.7222 144.605 78.8636C144.605 78.8636 142.189 79.9516 142.241 81.9685C142.241 81.9685 141.756 86.0679 144.206 87.2499C144.115 87.9946 143.954 88.729 143.724 89.4434L147.449 92.8784Z" fill="#D5A882"/>
<path d="M134.505 104.385C134.505 104.385 134.992 98.8653 135.322 97.0841C136.607 90.1643 141.703 88.7148 141.703 88.7148L143.942 87.9082C146.423 89.6539 147.503 92.8153 147.503 92.8153C147.393 92.7639 147.349 95.857 147.349 95.857L148.313 104.611L134.505 104.385Z" fill="#4573D2"/>
<path d="M149.667 80.8099C149.667 80.8099 147.446 79.6613 147.911 81.3747C147.911 81.3747 147.902 83.4029 147.262 84.0909C146.622 84.7789 146.105 83.6411 145.206 83.3402C144.749 83.1862 143.885 84.1577 145.327 85.6303C145.458 85.7653 145.557 85.928 145.617 86.1063C145.676 86.2847 145.695 86.4741 145.672 86.6608C145.613 87.1077 145.421 87.5266 145.12 87.8626C144.819 88.1985 144.424 88.4361 143.986 88.5441C143.986 88.5441 143.647 87.1578 143.253 86.8158C142.86 86.4739 141.024 82.8412 142.204 80.0238C143.34 77.3082 145.485 77.1008 147.994 77.2969C150.503 77.493 152.361 78.7022 152.299 81.7665C152.297 81.7686 152.621 83.1739 149.667 80.8099Z" fill="#444C61"/>
<path d="M146.976 87.3469C147.261 88.2644 149.004 90.6407 151.102 90.4512C151.491 90.4307 151.872 90.3326 152.222 90.1627C152.329 90.0944 152.419 90.0033 152.486 89.896C152.553 89.7887 152.596 89.6678 152.61 89.5422C152.625 89.4165 152.612 89.2891 152.571 89.1692C152.531 89.0493 152.464 88.9398 152.376 88.8487C152.376 88.8487 152.24 88.7065 151.75 88.7296C151.556 88.7333 151.366 88.6773 151.205 88.5693C151.043 88.4613 150.919 88.3065 150.849 88.1258C150.866 87.9099 150.965 87.7088 151.127 87.5645C151.288 87.4202 151.499 87.3439 151.716 87.3515C151.899 87.3479 152.617 87.4424 152.765 87.3171C152.798 87.2515 152.818 87.1798 152.823 87.1064C152.828 87.033 152.819 86.9593 152.795 86.8897C152.771 86.8201 152.733 86.756 152.684 86.7013C152.634 86.6465 152.575 86.6022 152.508 86.5711C152.184 86.7072 151.838 86.7826 151.487 86.7934C151.41 86.7854 151.332 86.7995 151.263 86.8339C151.193 86.8683 151.135 86.9218 151.094 86.988C150.86 87.3729 150.517 87.6793 150.108 87.868C149.281 88.2352 148.583 88.0698 148.168 87.0871C147.753 86.1043 147.575 85.6951 147.727 83.0277C147.236 82.2914 146.505 83.7522 146.505 83.7522C146.578 84.9599 146.735 86.1611 146.976 87.3469Z" fill="#444C61"/>
<path d="M145.471 87.3438C145.471 87.3438 143.012 86.1669 143.363 84.8186C143.714 83.4703 142.918 83.1817 142.869 80.8137C142.817 78.404 144.018 77.832 144.018 77.832C144.018 77.832 143.442 77.9655 142.455 79.4956C141.345 81.2177 141.729 84.7241 143.032 86.4519C144.334 88.1797 143.984 88.5468 143.984 88.5468C143.984 88.5468 145.371 88.1925 145.471 87.3438Z" fill="#30384D"/>
<path d="M145.471 87.3438C145.471 87.3438 146.465 90.6196 146.245 90.4193C145.529 89.7497 144.774 89.1241 143.983 88.5457C143.983 88.5457 145.601 87.8151 145.471 87.3438Z" fill="#BA8B67"/>
<path d="M158.976 97.7839L159.93 97.3084C160.882 97.3084 162.491 95.4882 162.877 94.5157C162.906 94.4426 162.958 94.3804 163.024 94.3381C163.957 93.6995 164.933 93.1272 165.946 92.6257C166.489 92.4814 166.018 91.9387 165.329 92.0095C165.329 92.0095 162.865 91.5264 161.995 92.0034C161.125 92.4804 158.632 94.9409 158.632 94.9409L157.72 95.0856L158.119 97.7828L158.976 97.7839Z" fill="#D5A882"/>
<path d="M145.605 93.6799C146.207 95.3779 146.415 96.0772 147.096 97.6756C147.414 98.4258 148.602 99.0163 150.01 98.3621L158.162 94.8634C158.581 95.7744 159.076 96.6481 159.643 97.4749C159.643 97.4749 153.817 101.147 149.355 103.267C147.514 104.14 145.475 104.406 143.691 101.534C142.165 99.0768 140.269 96.1969 139.378 93.2455C138.627 90.7594 140.697 88.7128 142.621 89.1461C144.251 89.5143 144.607 90.8672 145.605 93.6799Z" fill="#4573D2"/>
<path d="M142.613 95.3893C144.039 97.9822 143.933 100.003 144.56 100.889C145.709 102.509 145.374 101.557 147.405 101.469C148.222 101.721 149.08 101.812 149.932 101.738C150.971 101.652 153.775 98.4243 154.165 99.1657C154.284 99.3906 158.648 98.0967 158.648 98.0967C158.648 98.0967 150.622 102.971 148.501 103.62C147.928 103.841 147.307 103.913 146.698 103.827C146.089 103.741 145.512 103.501 145.023 103.13C143.436 102.119 140.114 95.5063 139.659 94.3018C139.037 92.6587 138.953 90.227 140.573 89.6833C140.74 89.6273 140.201 91.0044 142.613 95.3893Z" fill="#4369B6"/>
<path d="M159.149 95.901C159.149 95.901 161.275 94.9855 161.354 94.242C161.56 92.3001 164.79 92.1692 165.332 92.011C165.332 92.011 163.247 91.5489 162.24 91.9084C161.234 92.2678 158.636 94.9434 158.636 94.9434L158.445 94.9732C158.572 95.2492 158.676 95.5355 158.754 95.8291C158.75 95.9641 159.149 95.901 159.149 95.901Z" fill="#BA8B67"/>
<path d="M95.3853 118.464L61.1626 126.498L53.6265 124.635L58.8159 105.121L91.5435 104.052L95.3853 118.464Z" fill="#2D2B34" stroke="#2D2B34"/>
<path d="M226.182 105.266L231.434 127.802L223.958 126.667L189.625 118.608L193.466 104.196L226.182 105.266Z" fill="#2D2B34" stroke="#2D2B34"/>
<path d="M198.849 108.271C206.76 108.272 213.173 114.677 213.173 122.577C213.173 130.477 206.76 136.884 198.849 136.884C190.937 136.884 184.524 130.478 184.524 122.577C184.525 114.677 190.937 108.271 198.849 108.271Z" fill="#2D2B34" stroke="#2D2B34"/>
<path d="M87.4375 108.271C95.3488 108.272 101.762 114.677 101.762 122.577C101.762 130.477 95.3489 136.884 87.4375 136.884C79.526 136.884 73.1133 130.478 73.1133 122.577C73.1134 114.677 79.5261 108.271 87.4375 108.271Z" fill="#2D2B34" stroke="#2D2B34"/>
<path d="M246.032 111.372C245.82 111.178 245.637 110.955 245.487 110.71L241.228 103.706C240.954 103.255 240.566 102.883 240.103 102.628C230.877 97.5494 193.113 93.5912 187.349 93.0089C186.862 92.9594 186.394 92.7924 185.985 92.5222C158.739 74.5441 144.288 73.5695 143.314 73.4073C142.34 73.245 119.919 73.0807 103.395 73.7344C88.3459 74.3295 64.4432 87.0549 60.2945 89.3228C59.8816 89.5482 59.4216 89.6741 58.9512 89.6905C55.7203 89.8055 42.6035 90.3508 39.9364 91.735C35.9724 93.794 34.9756 101.411 34.755 103.865C34.7082 104.381 34.529 104.876 34.2348 105.303L31.4649 109.319C31.1112 109.832 30.9253 110.442 30.9328 111.065L31.0295 119.398C31.0382 120.153 31.3301 120.877 31.8474 121.427L34.114 123.836C34.5714 124.323 35.1777 124.644 35.8377 124.749L54.1323 127.665C54.553 127.732 54.9831 127.709 55.3944 127.598C55.8057 127.487 56.1887 127.291 56.5184 127.021C56.8481 126.752 57.1168 126.416 57.307 126.035C57.4972 125.654 57.6045 125.237 57.6218 124.812C57.8686 118.876 60.3727 107.208 76.1169 106.214C92.8117 105.16 95.2998 120.334 95.6036 126.826C95.6397 127.601 95.9736 128.332 96.536 128.867C97.0984 129.402 97.8457 129.7 98.6223 129.698L188.278 129.657C189.034 129.657 189.762 129.374 190.319 128.863C190.875 128.353 191.219 127.652 191.283 126.9C191.792 120.782 194.727 106.555 210.991 105.951C227.159 105.353 229.169 120.087 229.269 126.616C229.276 127.013 229.361 127.405 229.521 127.77C229.68 128.134 229.91 128.463 230.197 128.738C230.485 129.013 230.824 129.229 231.195 129.373C231.566 129.516 231.962 129.585 232.36 129.575L241.578 129.347C242.29 129.326 242.972 129.057 243.507 128.588C244.252 128.029 245.078 127.586 245.957 127.275C246.413 127.096 246.819 126.81 247.141 126.441C247.462 126.072 247.689 125.63 247.802 125.154C248.423 122.226 248.784 119.249 248.882 116.257C248.88 114.176 246.823 112.095 246.032 111.372ZM125.397 91.7099L86.4006 90.1957L83.2842 83.8022C83.2842 83.8022 96.1707 76.0629 108.467 76.3155C109.731 76.3412 126.66 75.9792 126.66 75.9792C126.66 75.9792 127.839 88.262 125.397 91.7099ZM135.421 91.962L131.042 76.3155C131.042 76.3155 135 76.3155 148.476 77.5771C161.952 78.8386 180.144 95.0745 180.144 95.0745L135.421 91.962Z" fill="#4573D2"/>
<path d="M97.1832 76.5703L97.5199 91.327C97.5199 91.327 96.0882 91.4333 96.0882 91.1149C96.0882 90.7966 96.0039 76.6766 96.0039 76.6766L97.1832 76.5703Z" fill="#4369B6"/>
<path d="M146.278 99.4243C146.416 99.4277 146.553 99.3882 146.668 99.3111C146.783 99.234 146.872 99.1232 146.922 98.9939C146.972 98.8645 146.98 98.723 146.946 98.5886C146.912 98.4542 146.837 98.3337 146.732 98.2434C145.678 97.3284 143.664 96.2353 140.116 96.3662C137.108 96.4771 135.731 97.0681 135.107 97.6298C135.011 97.7185 134.943 97.8334 134.912 97.9603C134.88 98.0872 134.887 98.2206 134.931 98.3438C134.974 98.467 135.053 98.5747 135.158 98.6534C135.263 98.7321 135.388 98.7784 135.519 98.7866C137.682 98.9535 143.188 99.3576 146.278 99.4243Z" fill="#444C61"/>
<path d="M245.139 110.906C243.262 110.284 237.299 108.398 233.074 108.118C232.205 108.065 231.38 107.717 230.735 107.133C228.835 105.373 226.828 103.73 224.727 102.215C224.57 102.105 224.454 101.947 224.395 101.765C224.336 101.583 224.339 101.387 224.403 101.206C224.466 101.026 224.587 100.871 224.747 100.766C224.907 100.661 225.097 100.61 225.288 100.623C229.056 100.873 234.747 101.356 238.904 102.186C242.348 102.875 244.799 108.638 245.513 110.516C245.533 110.569 245.538 110.626 245.527 110.682C245.516 110.737 245.489 110.788 245.45 110.829C245.41 110.87 245.36 110.899 245.305 110.913C245.25 110.926 245.193 110.924 245.139 110.906Z" fill="#FFBD3B"/>
<path d="M36.965 95.7766C38.0296 95.5861 41.1511 95.2016 49.0762 95.1738C49.3413 95.1729 49.5997 95.2569 49.8134 95.4135C50.0272 95.5701 50.185 95.791 50.2637 96.0439C50.3424 96.2967 50.3378 96.5681 50.2507 96.8181C50.1635 97.0682 49.9983 97.2837 49.7795 97.433C46.4086 99.7277 41.3526 103.03 39.412 103.558C38.0034 103.941 36.8843 104.201 36.091 104.369C35.9139 104.406 35.7308 104.404 35.5546 104.363C35.3784 104.321 35.2134 104.242 35.0713 104.13C34.9291 104.019 34.8132 103.877 34.7318 103.715C34.6504 103.554 34.6055 103.377 34.6002 103.196C34.5488 101.407 34.7112 98.3336 36.1938 96.2572C36.3785 96.003 36.6551 95.8306 36.965 95.7766Z" fill="#FFBD3B"/>
<path d="M210.503 139.525C218.901 139.525 225.709 132.726 225.709 124.338C225.709 115.95 218.901 109.15 210.503 109.15C202.105 109.15 195.297 115.95 195.297 124.338C195.297 132.726 202.105 139.525 210.503 139.525Z" fill="#444C61"/>
<path d="M76.4262 139.817C84.9858 139.817 91.9247 132.886 91.9247 124.337C91.9247 115.788 84.9858 108.857 76.4262 108.857C67.8666 108.857 60.9277 115.788 60.9277 124.337C60.9277 132.886 67.8666 139.817 76.4262 139.817Z" fill="#444C61"/>
<path d="M76.4262 135.687C82.702 135.687 87.7895 130.606 87.7895 124.338C87.7895 118.07 82.702 112.988 76.4262 112.988C70.1505 112.988 65.063 118.07 65.063 124.338C65.063 130.606 70.1505 135.687 76.4262 135.687Z" fill="#CED3DF"/>
<path d="M210.503 135.551C216.704 135.551 221.73 130.53 221.73 124.338C221.73 118.145 216.704 113.125 210.503 113.125C204.303 113.125 199.277 118.145 199.277 124.338C199.277 130.53 204.303 135.551 210.503 135.551Z" fill="#CED3DF"/>
<path d="M185.399 123.28C185.839 122.015 165.653 118.702 159.577 118.299C154.815 117.982 148.174 120.232 141.751 119.918C137.317 119.701 133.041 119.918 125.952 117.287C117.094 114.001 101.614 117.675 101.61 118.766C101.61 118.864 101.191 119.17 102.401 119.318C114.745 120.825 184.998 124.431 185.399 123.28Z" fill="#393939" fill-opacity="0.18"/>
<g filter="url(#filter2_d_69_8150)">
<path d="M32.878 79.9813C25.6896 80.7653 23.4148 75.8875 16.8032 74.9941L20.1751 64.5078C26.9373 65.2015 27.9423 70.2452 36.2627 69.8801L32.878 79.9813Z" fill="white"/>
</g>
<g filter="url(#filter3_d_69_8150)">
<path d="M68.5314 72.3227C64.4131 68.3511 59.2702 66.1977 52.9136 66.1992L48.7974 76.6737C54.4852 77.1702 59.9085 79.2965 64.4156 82.7971L68.5314 72.3227Z" fill="white"/>
</g>
<g filter="url(#filter4_d_69_8150)">
<path d="M21.9457 50.6754L6.32764 44.5527L2.21198 55.0257L17.8301 61.1483L21.9457 50.6754Z" fill="#DBDBDB"/>
</g>
<path d="M186.779 93.0828C159.533 75.1042 144.29 73.5715 143.316 73.4092C142.342 73.247 119.92 73.0827 103.396 73.7363C88.3476 74.3314 63.5289 87.3485 59.3807 89.6164C58.9695 89.8418 153.105 95.7573 180.789 97.4646C183.76 97.6479 187.188 93.3523 186.779 93.0828ZM125.398 91.7113L85.6945 88.9638L83.2855 83.8036C83.2855 83.8036 96.1719 76.0643 108.469 76.3169C109.732 76.3426 126.661 75.9806 126.661 75.9806C126.661 75.9806 127.839 88.2635 125.397 91.7113H125.398ZM135.423 91.9634L131.043 76.3169C131.043 76.3169 135.001 76.3169 148.478 77.5785C161.954 78.84 180.145 95.076 180.145 95.076L135.423 91.9634Z" fill="#4369B6"/>
<path d="M99.9951 98.2957C100.069 98.2983 100.143 98.2794 100.207 98.2413C100.271 98.2032 100.322 98.1475 100.355 98.0808C100.388 98.0142 100.401 97.9395 100.393 97.8657C100.384 97.7919 100.354 97.7221 100.307 97.6647C99.5231 96.702 97.5244 94.9978 93.2128 95.0338C89.0791 95.0677 87.9959 96.0946 87.7219 96.7282C87.6978 96.7837 87.6871 96.844 87.6906 96.9044C87.6942 96.9648 87.7119 97.0236 87.7424 97.0758C87.7728 97.1281 87.8152 97.1725 87.8661 97.2054C87.9169 97.2383 87.9748 97.2588 88.035 97.2652C89.7849 97.4532 96.8746 98.1977 99.9951 98.2957Z" fill="#444C61"/>
<path d="M27.7165 120.159C27.7165 120.159 20.9512 119.117 17.3835 117.552C14.5103 116.293 12.2062 118.818 11.0033 118.818C9.80032 118.818 6.38632 115.889 3.29206 115.889C0.197813 115.889 -2.12018 121.062 3.03502 122.31C8.19022 123.559 9.89697 120.89 11.6155 122.639C13.3341 124.387 17.7501 123.341 20.7009 122.081C23.2261 121.003 27.2056 121.658 28.848 121.71C29.3107 121.725 29.4305 120.791 28.9987 120.558L27.7165 120.159Z" fill="#444C61"/>
<path d="M54.7109 118.614L34.5903 117.998C34.5903 117.998 34.8906 114.304 40.2905 115.276C45.6904 116.249 57.1646 117.19 54.7109 118.614Z" fill="#393939" fill-opacity="0.18"/>
<path d="M245.428 124.073L230.744 123.149C230.744 123.149 230.652 120.289 238.086 121.304C245.521 122.318 246.813 123.614 245.428 124.073Z" fill="#393939" fill-opacity="0.18"/>
</g>
<defs>
<filter id="filter0_d_69_8150" x="61.6943" y="57.1484" width="25.8354" height="25.8027" filterUnits="userSpaceOnUse" color-interpolation-filters="sRGB">
<feFlood flood-opacity="0" result="BackgroundImageFix"/>
<feColorMatrix in="SourceAlpha" type="matrix" values="0 0 0 0 0 0 0 0 0 0 0 0 0 0 0 0 0 0 127 0" result="hardAlpha"/>
<feOffset dx="2" dy="2"/>
<feGaussianBlur stdDeviation="1.5"/>
<feColorMatrix type="matrix" values="0 0 0 0 0 0 0 0 0 0 0 0 0 0 0 0 0 0 0.09 0"/>
<feBlend mode="normal" in2="BackgroundImageFix" result="effect1_dropShadow_69_8150"/>
<feBlend mode="normal" in="SourceGraphic" in2="effect1_dropShadow_69_8150" result="shape"/>
</filter>
<filter id="filter1_d_69_8150" x="4.14307" y="64.3672" width="24.2935" height="23.1387" filterUnits="userSpaceOnUse" color-interpolation-filters="sRGB">
<feFlood flood-opacity="0" result="BackgroundImageFix"/>
<feColorMatrix in="SourceAlpha" type="matrix" values="0 0 0 0 0 0 0 0 0 0 0 0 0 0 0 0 0 0 127 0" result="hardAlpha"/>
<feOffset dx="2" dy="2"/>
<feGaussianBlur stdDeviation="1.5"/>
<feColorMatrix type="matrix" values="0 0 0 0 0 0 0 0 0 0 0 0 0 0 0 0 0 0 0.09 0"/>
<feBlend mode="normal" in2="BackgroundImageFix" result="effect1_dropShadow_69_8150"/>
<feBlend mode="normal" in="SourceGraphic" in2="effect1_dropShadow_69_8150" result="shape"/>
</filter>
<filter id="filter2_d_69_8150" x="15.8032" y="63.5078" width="25.4595" height="21.5586" filterUnits="userSpaceOnUse" color-interpolation-filters="sRGB">
<feFlood flood-opacity="0" result="BackgroundImageFix"/>
<feColorMatrix in="SourceAlpha" type="matrix" values="0 0 0 0 0 0 0 0 0 0 0 0 0 0 0 0 0 0 127 0" result="hardAlpha"/>
<feOffset dx="2" dy="2"/>
<feGaussianBlur stdDeviation="1.5"/>
<feColorMatrix type="matrix" values="0 0 0 0 0 0 0 0 0 0 0 0 0 0 0 0 0 0 0.09 0"/>
<feBlend mode="normal" in2="BackgroundImageFix" result="effect1_dropShadow_69_8150"/>
<feBlend mode="normal" in="SourceGraphic" in2="effect1_dropShadow_69_8150" result="shape"/>
</filter>
<filter id="filter3_d_69_8150" x="47.7974" y="65.1992" width="25.7339" height="22.5977" filterUnits="userSpaceOnUse" color-interpolation-filters="sRGB">
<feFlood flood-opacity="0" result="BackgroundImageFix"/>
<feColorMatrix in="SourceAlpha" type="matrix" values="0 0 0 0 0 0 0 0 0 0 0 0 0 0 0 0 0 0 127 0" result="hardAlpha"/>
<feOffset dx="2" dy="2"/>
<feGaussianBlur stdDeviation="1.5"/>
<feColorMatrix type="matrix" values="0 0 0 0 0 0 0 0 0 0 0 0 0 0 0 0 0 0 0.09 0"/>
<feBlend mode="normal" in2="BackgroundImageFix" result="effect1_dropShadow_69_8150"/>
<feBlend mode="normal" in="SourceGraphic" in2="effect1_dropShadow_69_8150" result="shape"/>
</filter>
<filter id="filter4_d_69_8150" x="1.21191" y="43.5527" width="25.7339" height="22.5957" filterUnits="userSpaceOnUse" color-interpolation-filters="sRGB">
<feFlood flood-opacity="0" result="BackgroundImageFix"/>
<feColorMatrix in="SourceAlpha" type="matrix" values="0 0 0 0 0 0 0 0 0 0 0 0 0 0 0 0 0 0 127 0" result="hardAlpha"/>
<feOffset dx="2" dy="2"/>
<feGaussianBlur stdDeviation="1.5"/>
<feColorMatrix type="matrix" values="0 0 0 0 0 0 0 0 0 0 0 0 0 0 0 0 0 0 0.09 0"/>
<feBlend mode="normal" in2="BackgroundImageFix" result="effect1_dropShadow_69_8150"/>
<feBlend mode="normal" in="SourceGraphic" in2="effect1_dropShadow_69_8150" result="shape"/>
</filter>
<clipPath id="clip0_69_8150">
<rect width="254" height="180.34" fill="white"/>
</clipPath>
</defs>
</svg>
