<svg width="254" height="250" viewBox="0 0 254 250" fill="none" xmlns="http://www.w3.org/2000/svg">
<g clip-path="url(#clip0_69_8151)">
<mask id="mask0_69_8151" style="mask-type:alpha" maskUnits="userSpaceOnUse" x="0" y="0" width="255" height="250">
<path d="M201.319 93.6698C106.924 45.3347 125.091 -19.6187 47.2863 5.64212C-8.00253 23.5931 -10.9172 177.77 18.5062 216.183C53.8273 262.294 200.945 255.965 242.098 227.743C268.649 209.535 248.928 118.048 201.319 93.6698Z" fill="#F6F6F6"/>
</mask>
<g mask="url(#mask0_69_8151)">
<path d="M535.695 -192.93H-320.508V262.055H535.695V-192.93Z" fill="#BEBEBE" fill-opacity="0.14"/>
<path d="M542.92 191.26H-316.896V326.989H542.92V191.26Z" fill="#CED3DF"/>
<path d="M-456.74 227.338C-456.74 227.338 -37.5722 225.178 38.7482 224.972C43.854 224.958 42.248 222.679 44.132 222.685C55.3513 222.726 77.0323 223.255 82.9825 222.533C91.3948 221.51 71.3107 213.196 67.0946 212.406C66.795 212.349 66.4912 212.319 66.1865 212.314L-483.455 210.305L-456.74 227.338Z" fill="#8A90A7"/>
<path d="M-347.252 231.86L-279.35 243.765C-279.35 243.765 156.848 235.504 186.889 235.614C260.653 235.88 229.451 227.34 229.451 227.34" fill="#8A90A7"/>
</g>
<path d="M192.207 57.0781C192.207 57.0781 184.911 58.8897 183.803 60.1826C181.614 62.741 166.019 85.5168 166.019 85.5168L153.731 91.5352L157.872 98.9536C157.872 98.9536 170.269 95.734 173.812 92.2352C177.355 88.7364 189.55 74.459 189.55 74.459L192.207 57.0781Z" fill="#30384D"/>
<path d="M238.183 206.807L239.814 208.763C238.92 211.05 238.3 213.435 237.976 215.869C237.686 217.992 237.632 219.625 237.516 221.185C237.4 222.746 237.221 224.271 236.686 226.248C236.582 226.632 236.31 227.045 235.862 227.468C235.418 227.887 234.826 228.292 234.131 228.663C232.74 229.406 230.99 229.985 229.333 230.281C227.657 230.581 226.161 230.576 225.237 230.233C224.786 230.066 224.529 229.841 224.412 229.59C224.297 229.343 224.267 228.966 224.491 228.39L224.51 228.343L224.519 228.294C224.519 228.293 224.518 228.292 224.519 228.29C224.519 228.287 224.521 228.281 224.522 228.272C224.526 228.255 224.531 228.227 224.539 228.19C224.555 228.116 224.581 228.002 224.62 227.853C224.699 227.554 224.83 227.111 225.038 226.549C225.454 225.425 226.176 223.824 227.399 221.945C228.074 220.909 228.496 219.544 228.762 218.118C229.028 216.685 229.144 215.151 229.18 213.749C229.216 212.346 229.174 211.064 229.122 210.135C229.096 209.67 229.068 209.292 229.046 209.029C229.041 208.971 229.036 208.918 229.032 208.871L233.092 205.214L238.183 206.807Z" fill="#2D2B34" stroke="#2D2B34"/>
<path d="M200.564 219.02L201.163 231.218C201.095 231.253 200.982 231.304 200.795 231.356C200.133 231.543 198.726 231.732 195.819 231.664C195.819 231.52 195.851 231.327 195.888 231.038C195.923 230.766 195.972 230.355 195.845 230.01C195.773 229.814 195.641 229.626 195.424 229.499C195.216 229.378 194.976 229.34 194.732 229.351L194.627 229.354L194.534 229.4L194.533 229.401C194.532 229.402 194.531 229.402 194.53 229.402C194.528 229.403 194.524 229.405 194.52 229.407C194.511 229.412 194.497 229.418 194.48 229.427C194.445 229.444 194.392 229.469 194.325 229.501C194.189 229.566 193.993 229.661 193.747 229.777C193.254 230.011 192.565 230.333 191.779 230.688C190.211 231.398 188.273 232.233 186.747 232.765C186.744 232.765 186.742 232.767 186.74 232.768C186.724 232.772 186.7 232.777 186.668 232.785C186.605 232.801 186.51 232.824 186.388 232.853C186.144 232.909 185.791 232.986 185.36 233.069C184.495 233.236 183.32 233.425 182.07 233.516C180.816 233.607 179.51 233.598 178.375 233.381C177.232 233.162 176.333 232.746 175.803 232.084C174.613 230.597 174.687 229.62 174.919 229.06C175.045 228.757 175.235 228.527 175.399 228.372C175.48 228.295 175.552 228.239 175.602 228.203C175.614 228.194 175.625 228.186 175.634 228.18C175.658 228.171 175.689 228.161 175.726 228.148C175.824 228.114 175.969 228.064 176.153 227.999C176.521 227.869 177.05 227.68 177.692 227.442C178.976 226.968 180.715 226.301 182.536 225.534C184.355 224.768 186.264 223.899 187.882 223.017C189.48 222.146 190.866 221.227 191.573 220.345C192.882 218.71 193.538 217.347 193.866 216.375C193.971 216.063 194.04 215.791 194.088 215.564L200.564 219.02Z" fill="#2D2B34" stroke="#2D2B34"/>
<path d="M170.616 74.7109L174.534 103.856L133.983 112.257L125.205 108.547L121.792 81.3178L141.728 93.4841L170.616 74.7109Z" fill="#D5A882"/>
<path d="M121.792 81.3173L149.212 83.9363L170.616 74.7109L141.728 93.4836L121.795 81.3173" fill="#B5896B"/>
<path d="M141.727 93.4841L133.983 112.257L174.532 103.856L170.614 74.7109L141.727 93.4841Z" fill="#A7795A"/>
<path d="M187.605 130.78L214.099 182.365L229.186 210.669C229.186 210.669 237.415 214.549 240.387 207.929C240.387 207.929 233.529 184.876 230.329 179.398C227.129 173.92 223.7 171.289 223.7 171.289C223.7 171.289 221.208 125.302 213.996 117.77C206.785 110.237 190.098 116.857 189.413 121.422C188.727 125.987 187.605 130.78 187.605 130.78Z" fill="#8A90A7"/>
<path d="M197.508 140.139C197.508 140.139 199.203 168.899 197.508 178.714C199.771 186.98 201.043 195.485 201.299 204.05C201.758 218.43 201.299 220.256 201.299 220.256C201.299 220.256 193.984 224.593 190.327 220.256L184.841 183.051C184.841 183.051 175.111 148.28 179.404 115.792C179.404 115.792 199.872 115.031 199.328 127.357C198.785 139.682 197.508 140.139 197.508 140.139Z" fill="#8A90A7"/>
<path d="M204.879 43.5854C204.91 44.4624 205.129 45.3225 205.521 46.1078C205.913 46.8931 206.469 47.5855 207.152 48.1382C209.428 49.8468 211.704 57.1042 211.704 57.1042C211.704 57.1042 201.725 63.275 198.521 62.2027C195.318 61.1303 197.351 57.0268 197.351 57.0268L196.062 50.3761C196.062 50.3761 193.48 51.9202 192.613 52.0104C191.746 52.1006 190.658 53.0507 189.979 51.0048C189.299 48.9589 186.566 45.5401 186.566 45.5401C186.566 45.5401 185.245 44.0357 185.294 41.1671C185.294 41.1671 184.019 38.1614 183.155 37.1115C182.292 36.0615 182.811 24.1718 189.01 22.3628C195.077 20.5936 198.317 19.0943 203.192 25.2024C208.068 31.3106 204.879 43.5854 204.879 43.5854Z" fill="#D1A79C"/>
<path d="M184.187 29.4966C184.187 29.4966 187.368 35.4748 191.657 35.3526C194.303 35.2772 196.351 33.1702 196.351 33.1702C196.351 33.1702 198.843 34.1783 198.599 38.5294C198.354 42.8805 196.141 49.0421 203.671 51.3514C207.688 52.5827 214.42 47.9005 214.997 44.6217C215.385 42.4149 212.933 34.0887 207.871 28.9852C202.81 23.8816 202.694 19.607 196.143 19.9621C189.593 20.3171 181.522 26.6142 181.522 26.6142C181.522 26.6142 177.389 31.2175 182.059 36.1702C182.059 36.1702 183.143 37.8442 182.963 41.9426C182.784 46.041 183.225 55.5491 188.45 55.5491C193.674 55.5491 194.446 51.2612 194.446 51.2612C194.446 51.2612 191.174 52.7594 189.892 50.5246C188.643 48.5012 187.508 46.4101 186.492 44.2611C185.731 42.5061 185.233 40.6488 185.015 38.749C185.015 38.749 181.565 32.8136 184.187 29.4966Z" fill="#444C61"/>
<path d="M184.187 29.4976C184.187 29.4976 187.368 35.4758 191.657 35.3535C194.303 35.2781 196.351 33.1711 196.351 33.1711C196.351 33.1711 198.843 34.1793 198.599 38.5303C198.354 42.8814 196.04 49.3996 203.671 51.3523C206.626 52.1083 209.471 50.3334 209.471 50.3334C194.959 47.4327 204.428 31.7538 198.487 30.2653C186.804 27.3381 198.881 20.1943 192.35 20.8198C186.097 21.42 181.522 26.6152 181.522 26.6152C181.522 26.6152 177.389 31.2184 182.059 36.1711C182.059 36.1711 183.143 37.8451 182.963 41.9435C182.784 46.0419 183.225 55.55 188.45 55.55C193.674 55.55 194.446 51.2621 194.446 51.2621C194.446 51.2621 191.174 52.7604 189.892 50.5255C188.643 48.5021 187.508 46.4111 186.492 44.262C185.731 42.5071 185.233 40.6497 185.015 38.7499C185.015 38.7499 181.565 32.8145 184.187 29.4976Z" fill="#30384D"/>
<path d="M211.418 55.8005L220.422 65.5342C220.422 65.5342 208.915 95.0626 210.126 102.802C211.337 110.542 214.808 116.669 215.697 120.539C215.697 120.539 209.183 124.738 199.204 125.253C199.204 125.253 198.814 122.765 198.492 122.774C195.445 122.773 192.403 122.503 189.403 121.968L188.914 124.413C185.199 123.596 181.608 122.294 178.234 120.539C178.234 120.539 182.675 103.256 182.514 98.9323C182.352 94.6087 183.24 88.3712 181.787 85.3074C180.333 82.2437 178.719 78.616 180.495 74.9883C182.271 71.3606 182.434 59.5897 188.246 58.2193C194.059 56.8489 197.046 54.9141 197.046 54.9141C197.046 54.9141 197.219 58.6054 199.329 59.6233C201.438 60.6411 205.167 58.1892 211.418 55.8005Z" fill="#444C61"/>
<path d="M211.704 64.8613C211.704 64.8613 209.45 93.516 197.039 95.1024C184.627 96.6888 183.238 96.1931 183.238 96.1931C184.238 95.3571 185.326 94.6326 186.484 94.0326C188.242 93.0753 190.63 91.4243 193.961 91.1369C205.884 90.1074 202.305 82.637 203.892 77.0582C205.884 70.0581 211.704 64.8613 211.704 64.8613Z" fill="#30384D"/>
<path d="M173.232 94.7378C173.159 94.7307 173.089 94.7051 173.028 94.6635C172.489 94.2895 169.583 92.371 166.577 92.262C164.186 92.0913 161.816 91.6991 159.498 91.0903C159.42 91.0702 159.339 91.0716 159.262 91.0941C159.186 91.1166 159.116 91.1595 159.062 91.2182C159.008 91.2769 158.971 91.3492 158.955 91.4273C158.938 91.5054 158.944 91.5865 158.97 91.6619C159.361 92.7317 160.659 94.7047 164.975 95.9997C165.057 96.0237 165.131 96.0709 165.186 96.1357C165.242 96.2006 165.278 96.2802 165.289 96.3649C165.301 96.4496 165.287 96.5359 165.251 96.6131C165.214 96.6903 165.155 96.7553 165.083 96.8C162.718 98.2264 156.263 102.108 154.359 103.108C152.015 104.34 156.846 109.921 159.173 109.639C163.245 109.146 170.403 106.189 172.501 103.848C174.148 102.01 176.791 101.918 177.851 101.963C177.911 101.965 177.97 101.955 178.026 101.934C178.082 101.912 178.133 101.88 178.176 101.838C178.219 101.796 178.252 101.746 178.275 101.69C178.298 101.635 178.309 101.575 178.307 101.515L178.241 95.6181C178.24 95.5088 178.198 95.4038 178.124 95.3233C178.05 95.2428 177.948 95.1925 177.839 95.1821L173.232 94.7378Z" fill="#D1A79C"/>
<path d="M173.232 94.7378C173.159 94.7307 173.089 94.7051 173.028 94.6635C172.489 94.2895 169.583 92.371 166.578 92.262C164.186 92.0913 161.816 91.6991 159.498 91.0903C159.42 91.0702 159.339 91.0716 159.262 91.0941C159.186 91.1166 159.117 91.1595 159.062 91.2182C159.008 91.2769 158.971 91.3492 158.955 91.4273C158.939 91.5054 158.944 91.5865 158.97 91.6619C159.361 92.7317 160.659 94.7047 164.975 95.9997C165.057 96.0237 165.131 96.0709 165.187 96.1357C165.242 96.2006 165.278 96.2802 165.29 96.3649C165.301 96.4496 165.287 96.5359 165.251 96.6131C165.214 96.6903 165.156 96.7553 165.083 96.8C162.718 98.2264 156.263 102.108 154.359 103.108C153.403 103.611 154.002 105.891 158.833 104.349C161.937 103.358 162.027 101.289 171.35 100.363C175.27 99.9733 178.241 95.6192 178.241 95.6192C178.24 95.5098 178.198 95.4048 178.124 95.3243C178.05 95.2438 177.949 95.1935 177.84 95.1831L173.232 94.7378Z" fill="#BA8B67"/>
<path d="M217.362 64C222.222 63.2812 222.923 72.0389 216.827 85.0208C210.73 98.0027 208.29 102.44 206.073 103.612C203.855 104.784 175.416 105.293 175.416 105.293C175.416 105.293 176.058 96.8789 173.812 94.5548C173.812 94.5548 198.226 94.9772 201.848 93.4519C205.47 91.9267 208.66 59.9907 217.362 63.9979" fill="#444C61"/>
<path d="M197.046 54.9141C197.046 54.9141 187.607 75.0006 187.607 78.7266C187.607 82.4526 192.335 90.1089 192.335 90.1089C192.515 86.6595 193.02 83.2348 193.842 79.8799C195.164 74.7117 205.886 58.1184 205.886 58.1184C205.886 58.1184 199.968 59.8846 199.33 59.6233C198.868 59.4338 197.265 55.829 197.048 54.9141" fill="white"/>
<path d="M183.238 122.747C183.238 122.747 181.815 141.743 185.272 148.839C188.729 155.935 189.363 164.961 187.605 168.983C185.848 173.005 193.469 181.02 192.954 187.005C191.867 199.646 190.14 211.362 193.18 216.157C196.22 220.952 195.644 222.182 195.644 222.182C195.644 222.182 190.678 222.641 190.326 220.255C189.974 217.87 184.481 181.691 184.481 181.691C184.481 181.691 176.29 154.365 178.234 120.539C179.862 121.362 181.532 122.1 183.238 122.749" fill="#7B8093"/>
<path d="M192.456 134.688C192.963 138.396 193.839 142.044 195.071 145.579C198.804 156.004 211.543 181.257 214.1 182.365C214.1 182.365 216.733 187.267 219.094 191.734C223.508 200.086 229.187 210.669 229.187 210.669C229.187 210.669 232.5 212.652 237.169 211.247C237.169 211.247 235.455 198.461 225.11 188.944C225.11 188.944 220.787 187.008 220.423 180.892C220.059 174.776 215.431 175.183 213.118 172.601C210.804 170.019 209.853 167.572 207.128 155.612C204.404 143.651 192.456 134.688 192.456 134.688Z" fill="#7B8093"/>
<path d="M192.456 106.686L189.402 121.969C189.402 121.969 195.831 123.765 198.492 122.775C198.905 122.621 192.456 106.686 192.456 106.686Z" fill="white"/>
<path d="M241.587 213.653C241.578 213.721 241.562 213.821 241.536 213.945C241.482 214.196 241.389 214.54 241.232 214.909C240.945 215.581 240.46 216.301 239.644 216.738L237.212 214.681L240.256 209.814L241.587 213.653Z" fill="#2D2B34" stroke="#2D2B34"/>
<path d="M93.9893 59.9505C94.0117 59.2144 94.5071 52.012 94.0633 50.4022C93.6194 48.7924 87.8717 42.4484 85.377 43.6022C82.8822 44.7561 81.0864 46.0358 82.0063 46.6558C82.9261 47.2758 83.4378 46.7378 85.7397 47.9121C88.0416 49.0863 86.3091 59.4477 89.213 60.6123C89.6405 60.7839 89.3849 63.6913 89.7441 63.6954C92.2649 63.7244 93.9893 59.9505 93.9893 59.9505Z" fill="#D5A882"/>
<path d="M93.9892 59.9498C93.9989 59.634 92.6576 58.6284 91.7286 57.8611C90.493 56.8397 89.3395 55.7037 89.4792 53.8086C89.7308 50.3898 86.5544 43.2562 84.0596 44.41C81.5649 45.5639 81.0863 46.0362 82.0062 46.6561C82.926 47.2761 83.4377 46.7382 85.7397 47.9124C88.0416 49.0866 86.309 59.448 89.2129 60.6126C89.6405 60.7843 89.3849 63.6916 89.744 63.6957C92.2648 63.7237 93.9892 59.9498 93.9892 59.9498Z" fill="#BA8B67"/>
<path d="M57.8916 46.4332L66.134 40.4458C66.134 40.4458 71.2149 21.6512 80.799 25.6131C90.3832 29.575 86.8395 40.7 86.513 42.561C86.2681 43.9568 83.2989 49.1327 79.6522 51.6798C75.3213 54.7074 72.7469 59.7839 72.7469 59.7839C72.7469 59.7839 65.0484 59.8858 63.2229 53.8195L57.8916 46.4332Z" fill="#D5A882"/>
<path d="M66.7896 206.088C68.6311 203.712 71.0291 203.264 73.0747 203.706C74.1116 203.93 75.0529 204.383 75.7729 204.93C76.5026 205.484 76.9595 206.098 77.106 206.62V206.621C77.2182 207.021 77.5671 207.697 77.9907 208.444C78.4268 209.213 78.9781 210.117 79.5366 210.998C80.0954 211.879 80.6643 212.743 81.1372 213.433C81.5989 214.106 81.9946 214.652 82.1968 214.866C83.394 216.135 84.9071 216.926 86.1812 217.625C87.5046 218.352 88.5073 218.953 88.9829 219.826C89.1353 220.106 89.2836 220.368 89.4214 220.61C89.5601 220.855 89.687 221.078 89.8003 221.287C90.0302 221.712 90.1824 222.042 90.2524 222.318C90.3191 222.581 90.302 222.757 90.23 222.906C90.1517 223.068 89.9742 223.27 89.5786 223.505H89.5776C86.7268 225.201 82.6592 224.544 79.4243 222.491L79.1138 222.288C77.6198 221.282 76.9373 220.729 76.188 220.156C75.523 219.648 74.8187 219.135 73.4976 218.31L72.8921 217.936L71.7573 217.238C70.532 216.479 69.0791 215.55 67.812 214.624C66.9659 214.006 66.218 213.399 65.6792 212.855C65.4098 212.584 65.204 212.338 65.0649 212.124C64.9218 211.904 64.8737 211.755 64.8677 211.669C64.8453 211.348 64.9336 210.846 65.1128 210.225C65.2876 209.619 65.5334 208.953 65.7866 208.329C66.0393 207.707 66.296 207.134 66.4897 206.717C66.5865 206.508 66.6676 206.339 66.7241 206.223L66.7896 206.088Z" fill="#2D2B34" stroke="#2D2B34"/>
<path d="M57.9449 129.478C57.9449 129.478 61.9829 152.779 62.4712 161.552C62.8477 168.311 63.0099 179.479 64.4854 190.09C64.7833 192.233 64.7216 205.085 64.7216 205.085C70.0381 210 76.4714 211.49 78.9657 206.134C78.9657 206.134 79.2295 163.392 78.3081 152.357C77.3867 141.321 79.1754 115.1 72.5125 111.647C72.5125 111.647 56.5195 110.168 57.9449 129.478Z" fill="#444C61"/>
<path d="M57.9449 129.478C57.9449 129.478 61.9829 152.779 62.4712 161.552C62.8477 168.311 63.0099 179.479 64.4854 190.09C64.7833 192.233 64.7216 205.085 64.7216 205.085C66.0286 206.769 69.4366 209.375 72.3161 209.217C72.3161 209.217 73.1145 194.827 71.2717 185.099C68.7586 171.835 75.1215 170.926 71.0166 160.315C68.3693 153.47 65.995 148.026 69.8942 141.355C74.8312 132.905 77.4086 114.184 72.5135 111.647C72.5125 111.647 56.5195 110.168 57.9449 129.478Z" fill="#30384D"/>
<path d="M41.6797 210.034C43.4336 207.795 45.6708 207.54 47.4805 208.027C48.408 208.277 49.2112 208.72 49.7598 209.185C50.0345 209.417 50.2321 209.644 50.3516 209.84C50.4755 210.043 50.4878 210.165 50.4814 210.212C50.362 211.086 50.3362 213.492 50.3926 215.973C50.4491 218.461 50.5898 221.112 50.8184 222.486C51.1488 224.472 50.3995 226.578 48.4336 228.386L48.415 228.402L48.3984 228.422C48.2646 228.572 48.0916 228.682 47.8994 228.742C46.7759 228.964 44.0042 229.338 41.7236 228.294C40.3938 227.685 39.6384 226.272 39.3643 224.487C39.1088 222.824 39.2924 220.936 39.748 219.358L39.8428 219.047C40.1132 218.205 40.5804 215.9 40.9736 213.85C41.1721 212.815 41.3537 211.83 41.4863 211.104C41.5526 210.742 41.6072 210.443 41.6445 210.235C41.6592 210.154 41.6704 210.086 41.6797 210.034Z" fill="#2D2B34" stroke="#2D2B34"/>
<path d="M60.0559 134.295C60.0559 134.295 53.4849 160.648 52.5768 175.453C52.2263 181.162 50.5422 209.056 50.5422 209.056C50.5422 209.056 45.1573 213.149 41.2636 209.28C37.3699 205.41 38.8438 156.431 38.3811 155.166C37.9184 153.901 37.7082 119.114 41.06 115.961C44.4119 112.809 67.0275 110.733 60.0559 134.295Z" fill="#444C61"/>
<path d="M42.6324 132.234C41.3131 140.068 46.6898 147.392 45.3802 155.695C44.3221 162.4 42.5462 169.722 42.1431 176.293C41.9508 179.426 43.9288 188.653 46.4903 196.776C48.5953 203.453 44.4201 210.904 44.4201 210.904C44.4201 210.904 42.4135 210.501 41.2636 209.28C37.501 205.283 38.8438 156.431 38.3811 155.166C37.9184 153.902 37.7082 119.114 41.06 115.962C43.566 113.605 49.8325 117.319 49.2841 123.888C49.0953 126.107 43.0206 129.928 42.6324 132.234Z" fill="#30384D"/>
<path d="M61.4428 44.4551L57.4507 46.9513L52.604 48.9412C52.604 48.9412 58.2328 58.1578 66.2186 56.6683L70.8499 51.6218L61.4428 44.4551Z" fill="#D5A882"/>
<path d="M55.9726 47.5568C55.9726 47.5568 40.0439 51.0866 39.698 56.5228C39.3873 61.4164 38.4481 113.368 38.3848 123.434C38.3777 124.546 38.9792 124.066 38.9792 124.066C38.9792 124.066 41.6831 121.598 46.1359 124.635C50.5888 127.672 61.5678 130.653 62.1672 128.856C62.7667 127.059 64.3548 120.288 64.3548 120.288L65.0257 126.446C65.0538 126.706 65.1473 126.955 65.2974 127.169C65.4476 127.383 65.6495 127.557 65.8846 127.672C66.1196 127.788 66.3801 127.842 66.6418 127.83C66.9036 127.819 67.1581 127.741 67.3817 127.605C70.3311 125.814 75.6037 123.055 77.7546 124.732C78.7673 125.521 77.4536 113.784 77.2996 112.871C77.1455 111.959 73.0681 98.7952 74.6359 92.7375C76.2037 86.6798 85.4256 66.0538 85.0986 65.0813C84.4956 63.2881 77.4598 52.9884 72.4866 55.1983C67.5134 57.4082 65.1507 57.017 65.1507 57.017C65.1507 57.017 61.3387 48.8304 58.069 46.3469C57.8093 46.1502 55.967 47.5659 55.9726 47.5568Z" fill="#4573D2"/>
<path d="M77.5293 74.9455C77.5293 74.9455 84.9218 93.5551 92.3693 93.9235C100.313 94.3162 94.9381 58.0445 94.3881 58.2095C93.8381 58.3746 88.4333 61.771 88.1905 61.9534C87.8425 62.2147 88.9313 76.0647 88.9313 76.0647C88.9313 76.0647 85.156 61.6987 82.4245 61.796C79.693 61.8933 75.4626 65.0839 77.5293 74.9455Z" fill="#4573D2"/>
<path d="M39.125 76.1539L44.312 71.3535C44.312 71.3535 51.9029 78.049 49.4989 86.6391C47.095 95.2292 49.6887 100.642 50.7642 104.199C54.8124 117.589 47.9806 125.927 47.9806 125.927C47.9806 125.927 44.8094 123.122 42.0345 123.148C39.5143 123.172 38.2791 125.735 38.3858 123.43C38.4924 121.126 38.9985 86.3864 39.125 76.1539Z" fill="#4369B6"/>
<path d="M42.0157 114.847C42.0157 114.847 46.3119 121.412 49.8137 121.907C53.3156 122.402 57.9255 118.541 57.0751 117.54C56.2246 116.539 50.4571 113.441 50.202 112.165C49.9469 110.89 50.956 113.066 52.8075 113.218C54.6589 113.371 54.6824 112.592 53.3482 111.479C52.0141 110.367 48.5016 107.043 45.6446 107.737C44.7599 107.953 41.1943 104.587 40.5581 105.236C39.9122 105.895 39.1674 108.376 38.899 109.28C38.5832 110.358 41.6096 113.737 42.0157 114.847Z" fill="#D5A882"/>
<path d="M79.6262 79.6108L77.762 76.0371C77.762 76.0371 71.6046 82.374 72.7112 91.337C73.2615 96.2043 74.2491 101.012 75.6621 105.703C75.7728 106.2 73.5816 99.549 74.4326 94.2845C75.181 89.6553 76.8952 86.7276 79.6262 79.6108Z" fill="#4369B6"/>
<path d="M70.558 39.5015C70.0795 42.8419 65.1971 44.8169 65.4705 47.9413C65.744 51.0657 69.2969 59.4403 75.2149 56.81C77.0638 55.9878 80.0779 51.8201 80.0779 51.8201C80.6871 50.9959 81.159 50.4447 81.159 50.4447C80.5621 50.6413 78.1147 52.7004 77.6224 52.812C77.152 52.919 76.9771 52.0051 76.6796 51.6153C75.4552 50.0096 74.091 49.1701 72.5702 49.1232C69.5892 49.034 68.1566 47.9928 69.4285 46.2933C71.9656 42.904 75.4195 36.7236 74.3389 36.4612C73.2584 36.1988 70.8804 37.2534 70.558 39.5015Z" fill="#444C61"/>
<path d="M74.092 51.4762C72.8324 50.763 70.3427 50.6611 70.0999 51.7121C69.9642 52.2985 71.809 52.759 72.8247 53.3932C73.6267 53.8935 74.2109 55.0086 74.7399 54.8008C75.9388 54.3286 75.3537 52.1889 74.092 51.4762Z" fill="#D5A882"/>
<path d="M86.1628 42.3577C86.1628 42.3577 85.5506 43.0363 82.4962 42.9451C79.4418 42.8539 80.6121 38.8329 79.3571 37.3454C78.1021 35.8578 76.746 35.2057 75.6961 37.083C74.6461 38.9603 70.8775 42.2828 70.278 41.8824C69.6785 41.482 71.2509 37.4844 70.3015 36.0061C69.352 34.5277 66.8578 36.1319 66.6879 39.2563C66.518 42.3806 63.334 42.6094 63.4962 42.3088C64.2838 41.3991 64.7722 40.2696 64.8951 39.0734C65.8726 30.2912 70.5224 23.8922 76.5016 23.6171C77.9326 23.4911 79.3741 23.6713 80.7298 24.1457C82.0855 24.62 83.3243 25.3777 84.3635 26.3681C91.761 33.1767 89.0734 38.7652 87.2684 41.1335C86.9399 41.5759 86.5697 41.9858 86.1628 42.3577Z" fill="#444C61"/>
<path d="M60.4907 48.9848C60.4907 48.9848 65.8522 43.9541 66.2853 40.791C66.0066 41.277 65.5984 41.6763 65.1059 41.9444C64.6135 42.2126 64.0563 42.339 63.4962 42.3096C63.4962 42.3096 58.4725 45.8161 58.1016 46.3734C58.1016 46.3734 60.1499 48.0601 60.4907 48.9848Z" fill="#BA8B67"/>
<path d="M41.5846 109.398C41.5846 109.398 45.8579 111.946 46.7522 115.319C47.6465 118.693 53.51 120.744 55.3318 120.049C55.3318 120.049 52.6391 122.297 49.601 121.835C46.1231 121.306 41.4193 114.754 39.8291 111.383L41.5846 109.398Z" fill="#BA8B67"/>
<path d="M47.5824 50.244C47.5824 50.244 57.0992 49.8802 52.8923 59.5004C51.852 61.8795 36.9085 78.1584 35.9269 80.9507C34.9453 83.7429 35.3147 98.9683 45.2973 105.437L38.5119 113.582C38.5119 113.582 22.1445 96.1797 23.173 80.0612C23.1715 80.0591 32.9439 52.89 47.5824 50.244Z" fill="#4573D2"/>
<path d="M47.4712 50.2058C47.4712 50.2058 52.7801 48.1303 55.9401 47.597C56.0151 47.5842 57.6237 46.005 58.1027 46.3743C58.9058 46.9856 60.1404 48.111 60.4919 48.9857C60.7092 49.5262 54.982 52.3561 47.2957 52.6847C41.5388 52.9307 38.9068 58.6089 38.7293 59.5748C37.0702 68.5999 32.0531 72.4202 30.3165 74.9516C27.4218 79.1707 27.3065 80.4769 31.7006 87.7226C34.3464 92.0869 30.1022 95.8735 33.3102 101.383C36.3534 106.608 40.0226 107.954 41.8378 109.406C42.0602 109.583 38.5115 113.583 38.5115 113.583C38.5115 113.583 22.144 96.1807 23.1725 80.0622C23.1715 80.0581 32.8327 52.8518 47.4712 50.2058Z" fill="#4369B6"/>
<path d="M67.378 36.7395C67.378 36.7395 68.4897 31.7629 71.4701 30.6956C73.4333 29.9931 73.0997 26.396 74.5006 25.6013C78.8937 23.1132 85.4623 27.5341 85.3587 27.4016C84.3343 26.0924 79.7549 22.7938 75.9674 23.5564C70.5712 24.6425 65.9546 30.341 65.1914 37.2057C64.9815 39.004 64.4045 40.7403 63.4961 42.3071C63.4961 42.3071 66.9326 42.5868 66.8275 38.2128C67.0369 37.7318 67.2207 37.24 67.378 36.7395Z" fill="#30384D"/>
<path d="M88.9311 76.0661L88.749 80.4009C88.749 80.4009 82.811 73.3671 82.6998 68.1001C82.6177 64.2283 83.009 62.1478 81.4346 59.7168C81.4346 59.7168 82.7855 61.3602 84.0528 63.0877C85.4813 65.0348 87.4363 69.53 88.9311 76.0661Z" fill="#4369B6"/>
<path d="M149.006 88.7518C149.006 88.7518 145.913 81.1434 140.461 79.9482L153.731 75.5508C153.731 75.5508 159.003 77.5605 160.125 81.5265L149.006 88.7518Z" fill="white"/>
<path d="M134.85 86.7023C131.468 85.4201 122.695 81.8678 122.695 81.8678C122.695 81.8678 120.212 80.6798 118.228 84.0971L130.952 90.8812C130.952 90.8812 133.749 86.468 134.85 86.7039" fill="white"/>
<path d="M135.056 86.8177C135.056 86.8177 137.28 87.9833 137.99 91.2034L132.954 88.1295C132.954 88.1295 134.33 86.2904 135.056 86.8177Z" fill="#DBDBDB"/>
<path d="M130.925 90.082C130.925 90.082 129.236 94.9089 130.891 94.5971C132.547 94.2854 130.925 90.082 130.925 90.082Z" fill="#8A90A7"/>
<path d="M138.751 113.518C138.751 113.518 137.062 118.344 138.717 118.033C140.373 117.721 138.751 113.518 138.751 113.518Z" fill="#8A90A7"/>
<path d="M145.494 96.6875C145.494 96.6875 143.804 101.514 145.46 101.203C147.116 100.891 145.494 96.6875 145.494 96.6875Z" fill="#8A90A7"/>
</g>
<defs>
<clipPath id="clip0_69_8151">
<rect width="254" height="249.872" fill="white"/>
</clipPath>
</defs>
</svg>
