<svg width="600" height="291" viewBox="0 0 600 291" fill="none" xmlns="http://www.w3.org/2000/svg">
<g clip-path="url(#clip0_9_51198)">
<mask id="mask0_9_51198" style="mask-type:alpha" maskUnits="userSpaceOnUse" x="-1" y="0" width="601" height="291">
<path d="M599.718 188.353C605.039 110.599 532.191 41.9126 441.15 77.3191C363.123 107.665 358.432 -71.7667 193.608 33.4373C94.7338 96.5465 9.83206 34.6329 0.0614708 132.267C-2.37641 221.241 49.9171 304.269 394.871 288.255C500.359 283.36 589.655 289.832 599.718 188.353Z" fill="#F6F6F6"/>
</mask>
<g mask="url(#mask0_9_51198)">
<path d="M599.718 188.353C605.039 110.599 532.191 41.9126 441.15 77.3191C363.123 107.665 358.432 -71.7667 193.608 33.4373C94.7338 96.5465 9.83206 34.6329 0.0614708 132.267C-2.37641 221.241 49.9171 304.269 394.871 288.255C500.359 283.36 589.655 289.832 599.718 188.353Z" fill="#BEBEBE" fill-opacity="0.14"/>
<path d="M234.641 109.102H229.809V300.882H234.641V109.102Z" fill="#B0B5C0"/>
<path d="M490.238 183.969H122.708V188.8H490.238V183.969Z" fill="#CED3DF"/>
<path d="M137.532 109.102H132.701V297.802H137.532V109.102Z" fill="#B0B5C0"/>
<path d="M383.739 109.102H378.908V281.54H383.739V109.102Z" fill="#B0B5C0"/>
<path d="M488.135 257.277H122.708V262.109H488.135V257.277Z" fill="#CED3DF"/>
<path d="M480.434 109.102H475.603V297.802H480.434V109.102Z" fill="#B0B5C0"/>
<path d="M488.135 105.076H122.708V110.713H488.135V105.076Z" fill="#CED3DF"/>
<path d="M428.14 198.379H409.585V256.644H428.14V198.379Z" fill="#CED3DF"/>
<path d="M428.14 198.379H416.038V256.644H428.14V198.379Z" fill="#8A90A7"/>
<path d="M446.498 198.379H427.943V256.644H446.498V198.379Z" fill="#CED3DF"/>
<path d="M446.496 198.379H434.394V256.644H446.496V198.379Z" fill="#8A90A7"/>
<path d="M462.234 198.379H443.679V256.644H462.234V198.379Z" fill="#CED3DF"/>
<path d="M462.232 198.379H450.13V256.644H462.232V198.379Z" fill="#8A90A7"/>
<mask id="mask1_9_51198" style="mask-type:alpha" maskUnits="userSpaceOnUse" x="146" y="115" width="49" height="54">
<path fill-rule="evenodd" clip-rule="evenodd" d="M172.534 159.733C176.133 148.665 180.84 137.811 187.977 128.765C187.731 131.633 186.608 137.344 186.608 137.344C184.995 142.634 182.987 147.794 180.6 152.783C178.685 156.203 177.398 158.228 176.171 160.158C174.933 162.108 173.756 163.96 172.055 167.054C178.651 157.602 185.54 148.126 194.886 141.441C191.864 151.525 182.753 158.945 174.348 165.79L174.348 165.791C173.37 166.587 172.402 167.376 171.454 168.16C171.39 168.279 171.325 168.399 171.26 168.521L171.256 168.517L171.26 168.533L171.26 168.534L171.259 168.533L171.081 168.469L171.054 168.491L171.072 168.465C161.697 165.051 150.166 158.27 146.595 148.606C153.107 150.959 157.246 153.693 160.809 157.006C157.084 150.954 154.526 144.216 153.313 137.138C152.691 133.389 152.768 129.558 153.54 125.837C154.715 126.884 155.67 128.155 156.351 129.574C160.096 136.552 163.329 143.783 166.027 151.212C165.153 147.626 164.412 144 163.999 140.229C163.19 132.863 164.037 125.41 166.477 118.413C169.085 128.119 170.098 138.124 170.382 148.19C170.634 145.828 170.972 143.474 171.395 141.132C172.975 132.291 176.004 123.772 180.36 115.918C181.427 126.484 178.655 136.492 175.854 146.607C174.653 150.945 173.446 155.303 172.534 159.733Z" fill="#B0B5C0"/>
</mask>
<g mask="url(#mask1_9_51198)">
<path fill-rule="evenodd" clip-rule="evenodd" d="M172.534 159.733C176.133 148.665 180.84 137.811 187.977 128.765C187.731 131.633 186.608 137.344 186.608 137.344C184.995 142.634 182.987 147.794 180.6 152.783C178.685 156.203 177.398 158.228 176.171 160.158C174.933 162.108 173.756 163.96 172.055 167.054C178.651 157.602 185.54 148.126 194.886 141.441C191.864 151.525 182.753 158.945 174.348 165.79L174.348 165.791C173.37 166.587 172.402 167.376 171.454 168.16C171.39 168.279 171.325 168.399 171.26 168.521L171.256 168.517L171.26 168.533L171.26 168.534L171.259 168.533L171.081 168.469L171.054 168.491L171.072 168.465C161.697 165.051 150.166 158.27 146.595 148.606C153.107 150.959 157.246 153.693 160.809 157.006C157.084 150.954 154.526 144.216 153.313 137.138C152.691 133.389 152.768 129.558 153.54 125.837C154.715 126.884 155.67 128.155 156.351 129.574C160.096 136.552 163.329 143.783 166.027 151.212C165.153 147.626 164.412 144 163.999 140.229C163.19 132.863 164.037 125.41 166.477 118.413C169.085 128.119 170.098 138.124 170.382 148.19C170.634 145.828 170.972 143.474 171.395 141.132C172.975 132.291 176.004 123.772 180.36 115.918C181.427 126.484 178.655 136.492 175.854 146.607C174.653 150.945 173.446 155.303 172.534 159.733Z" fill="#B0B5C0"/>
<path fill-rule="evenodd" clip-rule="evenodd" d="M194.78 137.172C180.882 127.656 161.977 130.594 147.774 138.044C147.76 138.05 147.744 138.051 147.73 138.047C147.716 138.042 147.704 138.032 147.697 138.018C147.691 138.005 147.689 137.989 147.694 137.975C147.699 137.96 147.709 137.949 147.723 137.942C154.865 133.861 162.836 131.44 171.042 130.861C179.008 130.287 188.944 131.031 195.037 136.884C195.204 137.039 194.958 137.295 194.78 137.172ZM159.565 135.494C159.578 135.496 159.592 135.494 159.604 135.486C159.616 135.479 159.625 135.467 159.628 135.453C159.632 135.441 159.631 135.428 159.625 135.417C159.62 135.406 159.61 135.397 159.598 135.392C159.584 135.389 159.57 135.391 159.557 135.399C159.545 135.406 159.536 135.418 159.533 135.432C159.53 135.445 159.532 135.457 159.538 135.469C159.544 135.48 159.553 135.489 159.565 135.494ZM201.047 149.811C185.568 142.517 168.077 140.673 151.418 144.579C151.297 144.604 151.261 144.42 151.377 144.388C168.067 139.968 185.79 141.712 201.297 149.302C201.585 149.448 201.337 149.942 201.047 149.811ZM151.218 147.335C158.112 144.465 166.403 144.21 173.755 144.791C181.083 145.396 188.257 147.229 194.977 150.214C195.176 150.301 195.283 149.981 195.085 149.89C188.033 146.77 180.487 144.915 172.793 144.41C165.738 143.956 157.665 144.225 151.11 147.127C150.966 147.189 151.074 147.403 151.216 147.339L151.218 147.335ZM198.884 157.047C183.827 152.546 166.092 150.778 151.04 156.47C150.907 156.519 150.805 156.326 150.937 156.269C158.009 153.518 165.573 152.26 173.155 152.576C181.654 152.644 191.145 153.095 198.988 156.716C199.029 156.732 199.062 156.763 199.082 156.802C199.102 156.841 199.107 156.886 199.096 156.928C199.083 156.971 199.053 157.007 199.014 157.029C198.974 157.051 198.928 157.057 198.884 157.047ZM149.972 159.285C156.454 156.451 163.397 154.816 170.463 154.46C173.668 154.363 176.875 154.576 180.038 155.096C182.35 155.478 184.558 156.132 186.773 156.788L186.773 156.788C187.99 157.149 189.211 157.511 190.451 157.828C190.803 157.92 191.117 157.415 190.755 157.214C184.798 153.902 176.763 153.167 170.081 153.457C162.981 153.643 156.031 155.543 149.824 158.994C149.803 159.003 149.784 159.016 149.768 159.033C149.752 159.049 149.74 159.068 149.732 159.09C149.725 159.111 149.721 159.134 149.723 159.156C149.724 159.179 149.73 159.201 149.74 159.221C149.75 159.241 149.764 159.259 149.782 159.274C149.799 159.288 149.819 159.299 149.841 159.306C149.863 159.312 149.886 159.314 149.908 159.311C149.931 159.308 149.952 159.301 149.972 159.289V159.285ZM185.887 161.326C176.425 158.252 166.199 158.483 156.885 161.981C156.69 162.06 156.546 161.778 156.745 161.695C161.335 159.659 166.283 158.55 171.303 158.431C176.323 158.311 181.317 159.184 185.999 161H186.029C186.071 161.019 186.104 161.055 186.12 161.098C186.137 161.142 186.136 161.19 186.117 161.232C186.099 161.275 186.064 161.309 186.021 161.326C185.978 161.344 185.93 161.344 185.887 161.326ZM167.94 161.439C163.813 162.082 159.795 163.295 156.001 165.042H156.007C155.63 165.193 155.204 164.671 155.583 164.406C159.237 162.047 163.38 160.55 167.698 160.03C172.016 159.51 176.395 159.98 180.505 161.405C180.914 161.576 180.829 162.289 180.344 162.223C176.26 161.429 172.091 161.166 167.94 161.439ZM182.211 164.133C174.021 162.093 165.392 162.732 157.591 165.956H157.582C157.366 166.053 157.197 165.716 157.421 165.614C165.212 161.97 174.078 161.349 182.3 163.872C182.472 163.921 182.374 164.171 182.211 164.133ZM163.482 167.025C168.952 165.572 174.685 165.408 180.229 166.546C180.441 166.582 180.503 166.234 180.299 166.169C174.754 164.543 168.84 164.697 163.387 166.607C163.141 166.69 163.217 167.101 163.482 167.025Z" fill="#8A90A7"/>
</g>
<path d="M182.112 161.107H154.79V183.956H182.112V161.107Z" fill="#E89C2E"/>
<path d="M176.744 161.113H182.112V183.955H176.744V161.113Z" fill="#C98A30"/>
</g>
<path d="M194.119 252.829L208.199 204.131L238.471 212.884L194.119 252.829ZM224.804 215.92L213.054 212.528L207.444 231.918L224.804 215.92Z" fill="#E2E5EC"/>
<path d="M196.707 243.879L196.858 243.354L198.702 243.886C198.771 243.906 198.83 243.953 198.865 244.017C198.9 244.08 198.908 244.155 198.888 244.225C198.879 244.26 198.862 244.292 198.84 244.32C198.817 244.349 198.79 244.372 198.758 244.39C198.727 244.407 198.692 244.418 198.656 244.422C198.62 244.427 198.584 244.423 198.549 244.413L196.707 243.879Z" fill="white"/>
<path fill-rule="evenodd" clip-rule="evenodd" d="M196.762 243.688L196.809 243.53C196.815 243.507 196.825 243.487 196.839 243.468C196.854 243.449 196.872 243.433 196.893 243.421C196.914 243.409 196.937 243.401 196.961 243.398C196.985 243.395 197.009 243.397 197.032 243.403L198.702 243.885C198.771 243.905 198.83 243.953 198.865 244.016C198.9 244.079 198.908 244.153 198.889 244.223C198.889 244.223 198.889 244.223 198.889 244.223L198.757 244.186M196.762 243.688L196.76 243.688C196.752 243.711 196.749 243.735 196.751 243.76C196.753 243.784 196.759 243.808 196.771 243.83C196.782 243.852 196.798 243.871 196.816 243.887C196.835 243.902 196.857 243.914 196.881 243.92" fill="#8A90A7"/>
<path d="M197.239 242.037L197.392 241.512L199.234 242.044C199.269 242.054 199.301 242.071 199.329 242.093C199.357 242.115 199.38 242.143 199.398 242.175C199.415 242.206 199.426 242.241 199.43 242.277C199.434 242.312 199.431 242.348 199.421 242.383C199.411 242.418 199.394 242.45 199.372 242.478C199.349 242.507 199.322 242.53 199.29 242.547C199.259 242.565 199.224 242.576 199.188 242.579C199.152 242.583 199.116 242.58 199.081 242.57L197.239 242.037Z" fill="white"/>
<path fill-rule="evenodd" clip-rule="evenodd" d="M199.081 242.569L197.417 242.088C197.394 242.082 197.373 242.071 197.354 242.057C197.334 242.042 197.317 242.023 197.305 242.001C197.293 241.979 197.286 241.955 197.283 241.93C197.281 241.906 197.284 241.882 197.291 241.859L197.343 241.679C197.358 241.634 197.39 241.597 197.432 241.575C197.474 241.554 197.523 241.549 197.568 241.562" fill="#8A90A7"/>
<path d="M197.771 240.186L197.924 239.66L201.083 240.572C201.152 240.592 201.211 240.64 201.246 240.704C201.281 240.768 201.289 240.843 201.269 240.913C201.259 240.948 201.242 240.98 201.22 241.008C201.198 241.036 201.17 241.059 201.138 241.077C201.107 241.094 201.072 241.105 201.036 241.109C201.001 241.113 200.964 241.11 200.93 241.1L197.771 240.186Z" fill="white"/>
<path d="M198.305 238.352L198.456 237.824L200.3 238.358C200.335 238.368 200.367 238.385 200.395 238.408C200.423 238.43 200.447 238.458 200.464 238.489C200.481 238.521 200.492 238.555 200.496 238.591C200.5 238.627 200.497 238.663 200.487 238.698C200.466 238.767 200.419 238.826 200.356 238.86C200.292 238.895 200.217 238.904 200.148 238.884L198.305 238.352Z" fill="white"/>
<path fill-rule="evenodd" clip-rule="evenodd" d="M198.645 238.164L200.223 238.621L198.644 238.166L198.645 238.164ZM198.619 238.253C198.619 238.253 198.619 238.253 198.619 238.253V238.253Z" fill="#8A90A7"/>
<path d="M198.846 236.51L198.999 235.982L200.841 236.517C200.876 236.526 200.908 236.543 200.936 236.565C200.964 236.588 200.988 236.616 201.005 236.647C201.023 236.679 201.034 236.713 201.037 236.749C201.041 236.785 201.038 236.821 201.027 236.856C201.017 236.89 201.001 236.923 200.978 236.951C200.956 236.979 200.928 237.002 200.897 237.019C200.865 237.037 200.83 237.048 200.795 237.052C200.759 237.056 200.723 237.052 200.688 237.042L198.846 236.51Z" fill="white"/>
<path fill-rule="evenodd" clip-rule="evenodd" d="M200.755 236.777L200.888 236.815L200.757 236.777L200.755 236.777ZM200.832 236.514C200.832 236.514 200.833 236.514 200.832 236.514V236.514ZM200.832 236.514L199.168 236.032C199.145 236.024 199.121 236.022 199.097 236.024C199.072 236.027 199.048 236.034 199.026 236.046C199.004 236.058 198.985 236.075 198.97 236.095C198.955 236.114 198.945 236.135 198.939 236.158L198.889 236.332L199.02 236.37" fill="#8A90A7"/>
<path d="M199.37 234.674L199.522 234.148L202.681 235.062C202.751 235.082 202.81 235.129 202.845 235.193C202.88 235.256 202.889 235.331 202.87 235.401C202.849 235.471 202.801 235.53 202.738 235.565C202.674 235.6 202.598 235.608 202.528 235.588L199.37 234.674Z" fill="white"/>
<path fill-rule="evenodd" clip-rule="evenodd" d="M199.552 234.528L199.421 234.489L199.472 234.315C199.485 234.269 199.516 234.23 199.559 234.207C199.601 234.183 199.65 234.177 199.697 234.19L202.68 235.053C202.715 235.063 202.747 235.08 202.775 235.102C202.804 235.125 202.827 235.152 202.845 235.184C202.862 235.216 202.873 235.251 202.877 235.287C202.881 235.323 202.877 235.359 202.867 235.394L202.736 235.354L202.868 235.391C202.858 235.426 202.841 235.459 202.819 235.487C202.796 235.515 202.768 235.539 202.737 235.556C202.705 235.574 202.67 235.585 202.634 235.589M199.552 234.528L199.421 234.489C199.408 234.536 199.413 234.587 199.437 234.629C199.46 234.671 199.499 234.703 199.545 234.716L202.528 235.579" fill="#8A90A7"/>
<path d="M199.906 232.823L200.059 232.297L201.901 232.829C201.97 232.85 202.029 232.897 202.064 232.96C202.099 233.024 202.107 233.098 202.087 233.168C202.077 233.203 202.061 233.235 202.038 233.263C202.016 233.291 201.988 233.314 201.956 233.332C201.925 233.349 201.89 233.36 201.855 233.364C201.819 233.368 201.783 233.365 201.748 233.355L199.906 232.823Z" fill="#8A90A7"/>
<path d="M200.436 230.981L200.589 230.455L202.431 230.987C202.465 230.997 202.498 231.013 202.526 231.036C202.554 231.058 202.578 231.086 202.595 231.118C202.613 231.149 202.623 231.184 202.627 231.22C202.631 231.256 202.628 231.292 202.617 231.326C202.608 231.361 202.591 231.393 202.569 231.422C202.546 231.45 202.518 231.473 202.487 231.491C202.455 231.508 202.421 231.519 202.385 231.523C202.349 231.527 202.313 231.523 202.278 231.513L200.436 230.981Z" fill="#8A90A7"/>
<path d="M200.966 229.139L201.119 228.611L204.277 229.525C204.347 229.545 204.406 229.592 204.441 229.656C204.477 229.719 204.486 229.794 204.466 229.864C204.445 229.934 204.398 229.993 204.334 230.029C204.27 230.064 204.195 230.073 204.125 230.053L200.966 229.139Z" fill="#8A90A7"/>
<path d="M201.502 227.293L201.655 226.768L203.497 227.3C203.567 227.32 203.626 227.368 203.661 227.432C203.696 227.496 203.704 227.571 203.684 227.641C203.674 227.676 203.657 227.708 203.635 227.736C203.612 227.764 203.584 227.787 203.553 227.805C203.521 227.822 203.487 227.833 203.451 227.837C203.415 227.841 203.379 227.838 203.344 227.828L201.502 227.293Z" fill="#8A90A7"/>
<path d="M202.026 225.452L202.179 224.926L204.021 225.458C204.055 225.468 204.088 225.485 204.116 225.507C204.144 225.53 204.167 225.557 204.184 225.589C204.202 225.62 204.213 225.655 204.217 225.691C204.221 225.726 204.217 225.763 204.207 225.797C204.198 225.832 204.181 225.864 204.159 225.893C204.136 225.921 204.109 225.944 204.077 225.962C204.045 225.98 204.011 225.991 203.975 225.995C203.939 225.999 203.903 225.996 203.868 225.986L202.026 225.452Z" fill="#8A90A7"/>
<path d="M202.567 223.61L202.719 223.084L205.878 223.998C205.913 224.007 205.945 224.024 205.973 224.046C206.002 224.069 206.025 224.096 206.043 224.128C206.06 224.159 206.071 224.194 206.075 224.23C206.08 224.266 206.076 224.302 206.066 224.337C206.046 224.407 205.998 224.466 205.934 224.501C205.87 224.536 205.795 224.544 205.725 224.523L202.567 223.61Z" fill="#8A90A7"/>
<path d="M203.101 221.766L203.253 221.238L205.096 221.772C205.13 221.782 205.162 221.799 205.19 221.822C205.218 221.844 205.242 221.872 205.259 221.903C205.276 221.935 205.287 221.97 205.291 222.005C205.295 222.041 205.292 222.077 205.282 222.112C205.272 222.146 205.255 222.178 205.233 222.207C205.21 222.235 205.183 222.258 205.151 222.275C205.12 222.293 205.085 222.304 205.049 222.307C205.014 222.311 204.977 222.308 204.943 222.298L203.101 221.766Z" fill="#8A90A7"/>
<path d="M203.633 219.924L203.785 219.396L205.628 219.931C205.662 219.94 205.695 219.957 205.723 219.979C205.751 220.002 205.775 220.03 205.792 220.061C205.809 220.093 205.82 220.127 205.824 220.163C205.828 220.199 205.825 220.235 205.814 220.27C205.804 220.304 205.787 220.337 205.765 220.365C205.743 220.393 205.715 220.416 205.683 220.433C205.652 220.451 205.617 220.462 205.581 220.466C205.546 220.47 205.51 220.466 205.475 220.456L203.633 219.924Z" fill="#8A90A7"/>
<path d="M204.165 218.08L204.318 217.555L207.476 218.468C207.546 218.489 207.605 218.536 207.64 218.599C207.676 218.663 207.685 218.738 207.665 218.808C207.655 218.842 207.638 218.874 207.616 218.902C207.593 218.93 207.565 218.954 207.534 218.971C207.502 218.988 207.468 218.999 207.432 219.003C207.396 219.007 207.36 219.004 207.326 218.994L204.165 218.08Z" fill="#8A90A7"/>
<path d="M204.699 216.231L204.852 215.705L206.694 216.237C206.763 216.258 206.822 216.305 206.857 216.368C206.892 216.432 206.9 216.507 206.88 216.576C206.86 216.646 206.813 216.705 206.75 216.741C206.686 216.776 206.611 216.785 206.541 216.765L204.699 216.231Z" fill="#8A90A7"/>
<path d="M205.231 214.397L205.384 213.871L207.226 214.403C207.261 214.413 207.293 214.43 207.321 214.452C207.349 214.475 207.372 214.503 207.39 214.534C207.407 214.566 207.418 214.6 207.422 214.636C207.426 214.672 207.423 214.708 207.413 214.742C207.403 214.777 207.386 214.809 207.364 214.838C207.341 214.866 207.314 214.889 207.282 214.907C207.251 214.924 207.216 214.935 207.18 214.939C207.144 214.943 207.108 214.939 207.073 214.929L205.231 214.397Z" fill="#8A90A7"/>
<path d="M205.763 212.555L205.916 212.027L209.075 212.941C209.144 212.961 209.203 213.008 209.239 213.072C209.274 213.135 209.283 213.21 209.263 213.28C209.253 213.315 209.237 213.347 209.215 213.376C209.192 213.404 209.164 213.428 209.133 213.445C209.101 213.463 209.067 213.474 209.031 213.478C208.995 213.482 208.959 213.479 208.924 213.469L205.763 212.555Z" fill="#8A90A7"/>
<path d="M206.297 210.719L206.45 210.191L208.292 210.726C208.327 210.736 208.359 210.752 208.387 210.775C208.415 210.797 208.439 210.825 208.456 210.857C208.473 210.888 208.484 210.923 208.488 210.958C208.492 210.994 208.489 211.03 208.479 211.065C208.469 211.099 208.452 211.132 208.43 211.16C208.407 211.188 208.379 211.211 208.348 211.228C208.316 211.246 208.282 211.257 208.246 211.261C208.21 211.265 208.174 211.261 208.14 211.251L206.297 210.719Z" fill="#8A90A7"/>
<path d="M206.83 208.868L206.982 208.342L208.824 208.874C208.859 208.884 208.891 208.901 208.919 208.923C208.947 208.946 208.971 208.973 208.988 209.005C209.005 209.036 209.016 209.071 209.02 209.107C209.024 209.142 209.021 209.179 209.011 209.213C209.001 209.248 208.985 209.28 208.962 209.309C208.94 209.337 208.912 209.36 208.881 209.378C208.849 209.396 208.814 209.407 208.779 209.411C208.743 209.415 208.706 209.412 208.672 209.402L206.83 208.868Z" fill="#8A90A7"/>
<path d="M207.364 207.026L207.514 206.5L210.673 207.414C210.743 207.434 210.802 207.481 210.837 207.544C210.872 207.608 210.881 207.683 210.862 207.753C210.841 207.822 210.794 207.881 210.73 207.916C210.667 207.951 210.592 207.959 210.522 207.939L207.364 207.026Z" fill="#8A90A7"/>
<path d="M211.872 215.623L194.267 245.311L197.425 247.183L215.03 217.496L211.872 215.623Z" fill="#8A90A7"/>
<path d="M213.454 216.557L195.849 246.244L197.427 247.18L215.033 217.493L213.454 216.557Z" fill="#7B8093"/>
<path d="M192.664 251.617L194.269 245.309L197.428 247.183L192.664 251.617Z" fill="#F6F6F6"/>
<path d="M192.669 251.618L193.517 248.275L195.213 249.274L192.669 251.618Z" fill="#30384D"/>
<path d="M211.864 215.61L212.865 213.925C212.906 213.856 212.96 213.796 213.024 213.748C213.088 213.7 213.161 213.665 213.239 213.646C213.316 213.626 213.397 213.622 213.476 213.633C213.555 213.645 213.631 213.672 213.7 213.713L215.82 214.964C215.959 215.047 216.059 215.181 216.099 215.338C216.138 215.494 216.114 215.66 216.032 215.799L215.034 217.495L211.873 215.621L211.864 215.61Z" fill="#4573D2"/>
<path d="M192.66 218.689L189.103 219.6L197.66 253.043L201.217 252.133L192.66 218.689Z" fill="#E2E5EC"/>
<path d="M190.882 219.145L189.103 219.6L197.66 253.043L199.438 252.588L190.882 219.145Z" fill="#CED3DF"/>
<path d="M189.334 213.098L192.662 218.69L189.103 219.601L189.334 213.098Z" fill="#F6F6F6"/>
<path d="M189.33 213.098L191.098 216.065L189.201 216.551L189.33 213.098Z" fill="#30384D"/>
<path d="M201.218 252.133L201.704 254.041C201.724 254.118 201.728 254.199 201.717 254.278C201.706 254.357 201.679 254.433 201.638 254.502C201.597 254.571 201.543 254.631 201.479 254.679C201.415 254.726 201.342 254.761 201.265 254.781L198.888 255.389C198.811 255.409 198.73 255.414 198.651 255.402C198.572 255.391 198.495 255.364 198.426 255.324C198.357 255.283 198.297 255.229 198.249 255.165C198.201 255.101 198.166 255.028 198.146 254.95L197.661 253.042L201.218 252.133Z" fill="#4573D2"/>
<path d="M219.191 232.52H189.512V257.339H219.191V232.52Z" fill="#E89C2E"/>
<path d="M213.361 232.52H219.191V257.339H213.361V232.52Z" fill="#C98A30"/>
<path d="M183.763 32.1934H165.208V105.448H183.763V32.1934Z" fill="#CED3DF"/>
<path d="M183.763 32.1934H171.661V105.448H183.763V32.1934Z" fill="#8A90A7"/>
<path d="M201.82 32.1934H183.265V105.448H201.82V32.1934Z" fill="#CED3DF"/>
<path d="M201.818 32.1934H189.716V105.448H201.818V32.1934Z" fill="#8A90A7"/>
<path d="M220.151 32.1934H201.596V105.448H220.151V32.1934Z" fill="#CED3DF"/>
<path d="M220.149 32.1934H208.046V105.448H220.149V32.1934Z" fill="#8A90A7"/>
<path d="M283.095 58.5819C280.358 58.2025 278.764 29.4016 284.458 30.6099C284.458 30.6099 286.438 20.6719 299.278 18.1025C312.118 15.5332 328.681 22.5013 330.288 28.6003C331.895 34.6992 334.104 47.8023 331.865 57.4308C331.865 57.4308 328.825 59.114 326.343 60.3711C326.343 60.3711 327.059 36.3442 317.897 39.5961L305.697 40.5607C305.697 40.5607 293.826 34.1395 292.537 41.1967C291.248 48.2538 290.205 63.1842 290.205 63.1842L283.095 58.5819Z" fill="#444C61"/>
<path d="M307.135 24.3815C307.135 24.3815 286.438 20.6632 299.278 18.096C312.118 15.5288 328.681 22.4948 330.288 28.5937C331.895 34.6927 334.104 47.7957 331.865 57.4243C331.865 57.4243 328.825 59.1075 326.343 60.3646C326.343 60.3646 327.059 36.3377 317.897 39.5896C317.897 39.5896 311.362 47.7024 305.697 40.5542C300.033 33.4059 311.008 26.0032 307.135 24.3815Z" fill="#30384D"/>
<path d="M326.322 93.4895C327.712 93.4895 348.246 100.263 360.664 104.405C363.399 105.313 365.78 107.056 367.472 109.388C369.165 111.72 370.084 114.525 370.1 117.406C370.288 147.977 371.196 272.481 371.261 272.396C371.28 272.37 273.35 278.544 273.35 278.544L273.909 264.54L279.714 118.884C279.969 115.416 281.523 112.172 284.066 109.8L300.241 94.6957C301.779 93.2601 303.625 92.195 305.638 91.5818C307.651 90.9686 309.778 90.8235 311.856 91.1576L326.322 93.4895Z" fill="#4573D2"/>
<path d="M369.987 158.375C369.987 158.375 366.595 173.833 365.974 181.2C365.535 186.379 365.357 203.081 353.418 216.545C339.946 231.736 336.883 262.708 336.883 271.832C336.883 271.857 347.147 271.052 356.002 269.602C363.469 268.378 371.56 266.697 371.56 266.697L371.073 239.028L369.987 158.375Z" fill="#4369B6"/>
<path d="M297.633 92.7266C297.633 92.7266 269.371 105.285 256.456 115.85C252.159 119.819 248.922 124.799 247.04 130.338C242.393 142.614 229.691 179.43 234.638 203.347C234.638 203.347 236.618 212.997 239.65 215.371C251.025 224.274 285.738 224.389 285.738 224.389L288.744 204.35L255.674 193.326C255.674 193.326 285.738 132.207 286.741 127.196C287.744 122.185 297.633 92.7266 297.633 92.7266Z" fill="#4573D2"/>
<path d="M286.658 218.182L285.772 224.476C285.772 224.476 245.88 224.3 238.346 213.928C237.25 212.073 236.415 210.075 235.864 207.992C235.715 207.25 245.437 214.021 249.692 215.704C253.946 217.387 276.731 213.75 286.658 218.182Z" fill="#4369B6"/>
<path d="M355.19 102.844L368.132 155.934L394.822 186.554L417.969 174.172C417.969 174.172 394.862 127.617 380.672 115.485C373.04 109.72 364.398 105.433 355.19 102.844Z" fill="#4573D2"/>
<path d="M390.164 186.171C390.164 186.171 408.465 208.218 417.992 193.531C427.519 178.845 414.003 168.398 408.862 169.314C395.244 171.743 390.164 186.171 390.164 186.171Z" fill="#4573D2"/>
<path d="M277.168 221.108C277.168 221.108 283.038 229.098 312.392 219.965C312.392 219.965 336.203 215.075 335.711 215.075C335.219 215.075 278.633 212.302 278.308 212.955C277.984 213.608 277.168 221.108 277.168 221.108Z" fill="#D1A79C"/>
<path d="M326.727 74.4786C326.727 74.7733 327.528 86.6701 327.986 95.3299C329.092 116.279 293.752 114.651 293.855 95.6521L292.003 69.959L326.727 74.4786Z" fill="#D1A79C"/>
<path d="M311.508 90.0035C311.813 91.7884 316.447 99.543 315.815 101.949C314.798 104.856 313.366 107.6 311.565 110.098C310.952 111.289 326.943 110.541 328.003 97.6393C328.314 93.8574 326.148 68.3848 326.148 68.3848L293.003 70.7442C293.003 70.7442 310.565 84.4493 311.508 90.0035Z" fill="#393939" fill-opacity="0.18"/>
<path d="M289.105 71.2854C288.839 71.6359 288.48 71.9044 288.069 72.0604C287.657 72.2163 287.21 72.2532 286.779 72.1669C286.348 72.0807 285.949 71.8747 285.63 71.5725C285.31 71.2704 285.082 70.8844 284.971 70.4586C283.318 66.9862 279.175 59.4203 282.639 56.9549C285.497 54.9198 288.717 61.0357 288.717 61.0357C289.436 56.4752 289.669 51.8511 289.41 47.2415C288.549 39.4361 290.385 37.5176 291.636 36.7777C294.046 35.351 297.957 38.5097 306.768 37.2017C315.578 35.8937 317.001 33.5576 320.242 34.1766C323.254 34.749 325.489 36.6993 325.272 42.9402C325.092 48.1933 328.497 58.9433 328.497 58.9433C328.497 58.9433 330.869 53.8132 332.101 54.0845C336.417 55.0342 335.242 68.9641 329.455 70.1215C329.271 73.6539 328.661 77.1511 327.636 80.5366C326.228 84.8251 322.841 94.4261 316.227 95.5878C309.613 96.7495 304.455 96.7135 298.702 90.7926C293.412 85.5455 290.034 78.6776 289.105 71.2854Z" fill="#EABBAE"/>
<path d="M390.387 186.43C390.387 186.43 408.164 207.968 417.958 193.722C424.167 184.689 417.127 186.362 412.033 187.271C407.202 188.134 403.297 185.196 399.965 185.016C396.706 184.742 393.428 185.226 390.387 186.43Z" fill="#4369B6"/>
<path d="M273.931 259.384L270.261 289.11C270.261 289.11 344.559 291.291 376.639 289.014L371.193 255.119C371.193 255.119 339.681 263.175 320.252 263.175C304.753 262.787 289.287 261.521 273.931 259.384Z" fill="#393939" fill-opacity="0.18"/>
<path d="M369.987 158.375L369.729 149.111C369.729 149.111 380.267 154.483 383.883 163.677L377.553 167.641L369.987 158.375Z" fill="#4369B6"/>
<path d="M258.229 138.941H353.041C354.175 138.941 355.264 139.392 356.066 140.194C356.868 140.997 357.319 142.085 357.319 143.219V198.816C357.319 199.308 357.123 199.779 356.775 200.127C356.428 200.475 355.956 200.671 355.464 200.671H255.806C255.314 200.671 254.842 200.475 254.494 200.127C254.146 199.779 253.951 199.308 253.951 198.816V143.219C253.951 142.085 254.401 140.997 255.204 140.194C256.006 139.392 257.094 138.941 258.229 138.941V138.941Z" fill="#30384D"/>
<path d="M258.623 195.82H352.479V143.525H258.623V195.82Z" fill="white"/>
<path d="M369.254 220.928H241.051C240.733 220.941 240.417 220.862 240.142 220.701C239.867 220.54 239.644 220.303 239.499 220.019C239.355 219.735 239.295 219.415 239.326 219.098C239.358 218.781 239.48 218.48 239.677 218.229L253.508 201.27C253.77 200.949 254.101 200.69 254.476 200.512C254.851 200.334 255.261 200.242 255.676 200.242H356.032C356.344 200.242 356.652 200.314 356.932 200.453C357.212 200.591 357.456 200.793 357.645 201.041L370.7 218.196C370.893 218.455 371.009 218.764 371.034 219.087C371.059 219.41 370.992 219.733 370.841 220.019C370.689 220.305 370.46 220.543 370.179 220.703C369.898 220.864 369.577 220.942 369.254 220.928Z" fill="#DBDBDB"/>
<path d="M239.677 218.229L253.558 201.217C253.805 200.915 254.116 200.671 254.468 200.504C254.821 200.337 255.206 200.25 255.596 200.25H356.047C356.354 200.25 356.657 200.321 356.933 200.457C357.208 200.594 357.448 200.792 357.635 201.036L370.7 218.208C370.627 218.394 239.983 218.116 239.677 218.229Z" fill="#F6F6F6"/>
<path d="M252.077 208.52L251.108 209.699C251.072 209.742 251.05 209.794 251.043 209.849C251.036 209.904 251.045 209.96 251.069 210.011C251.093 210.061 251.13 210.103 251.177 210.133C251.224 210.163 251.279 210.178 251.335 210.178H256.16C256.205 210.178 256.25 210.168 256.291 210.148C256.332 210.128 256.368 210.098 256.395 210.061L257.243 208.923C257.276 208.88 257.296 208.828 257.302 208.774C257.307 208.72 257.298 208.666 257.274 208.617C257.25 208.568 257.213 208.527 257.167 208.498C257.121 208.469 257.068 208.453 257.014 208.452L252.295 208.412C252.253 208.414 252.212 208.424 252.174 208.443C252.136 208.461 252.103 208.488 252.077 208.52Z" fill="#30384D"/>
<path d="M259.074 208.563L258.273 209.638C258.237 209.687 258.214 209.746 258.209 209.807C258.204 209.868 258.216 209.929 258.243 209.984C258.271 210.038 258.313 210.084 258.365 210.116C258.417 210.149 258.477 210.166 258.538 210.166H263.31C263.361 210.166 263.411 210.154 263.457 210.131C263.503 210.109 263.542 210.075 263.573 210.034L264.385 208.958C264.421 208.909 264.443 208.85 264.449 208.79C264.454 208.729 264.442 208.668 264.415 208.613C264.388 208.558 264.346 208.512 264.294 208.48C264.243 208.448 264.183 208.43 264.122 208.43H259.335C259.284 208.43 259.234 208.442 259.189 208.465C259.143 208.488 259.104 208.522 259.074 208.563Z" fill="#30384D"/>
<path d="M266.314 208.571L265.519 209.671C265.485 209.717 265.465 209.772 265.461 209.829C265.456 209.886 265.468 209.943 265.494 209.994C265.519 210.045 265.559 210.088 265.607 210.118C265.656 210.148 265.712 210.164 265.769 210.165H270.583C270.635 210.164 270.686 210.151 270.732 210.126C270.777 210.102 270.816 210.066 270.844 210.023L271.554 208.922C271.585 208.876 271.602 208.822 271.605 208.766C271.607 208.71 271.594 208.655 271.568 208.606C271.541 208.557 271.502 208.516 271.454 208.487C271.406 208.459 271.351 208.443 271.296 208.443H266.562C266.513 208.443 266.465 208.454 266.422 208.477C266.379 208.499 266.342 208.531 266.314 208.571Z" fill="#30384D"/>
<path d="M273.134 208.598L272.44 209.601C272.403 209.656 272.381 209.719 272.377 209.785C272.373 209.851 272.387 209.917 272.418 209.976C272.449 210.034 272.495 210.083 272.552 210.117C272.608 210.151 272.673 210.169 272.739 210.169H279.453C279.522 210.169 279.589 210.149 279.646 210.111C279.704 210.073 279.749 210.02 279.777 209.957L280.269 208.961C280.296 208.906 280.308 208.845 280.305 208.784C280.302 208.723 280.284 208.663 280.252 208.611C280.22 208.559 280.175 208.516 280.121 208.486C280.068 208.456 280.008 208.44 279.947 208.439H273.42C273.363 208.44 273.306 208.455 273.256 208.483C273.206 208.51 273.164 208.55 273.134 208.598Z" fill="#30384D"/>
<path d="M281.571 208.599L281.07 209.659C281.046 209.712 281.035 209.771 281.039 209.829C281.043 209.888 281.062 209.944 281.093 209.993C281.125 210.043 281.168 210.084 281.219 210.112C281.27 210.14 281.328 210.155 281.386 210.155L315.277 210.179C315.329 210.179 315.381 210.167 315.428 210.145C315.476 210.123 315.517 210.09 315.55 210.049C315.583 210.008 315.607 209.961 315.619 209.91C315.631 209.859 315.632 209.806 315.62 209.755L315.423 208.707C315.408 208.628 315.366 208.556 315.304 208.504C315.242 208.452 315.163 208.424 315.082 208.423L281.884 208.379C281.816 208.38 281.749 208.401 281.693 208.441C281.637 208.48 281.595 208.535 281.571 208.599Z" fill="#30384D"/>
<path d="M323.627 208.629L324.149 209.761C324.17 209.807 324.179 209.857 324.175 209.907C324.172 209.957 324.156 210.005 324.129 210.048C324.102 210.09 324.065 210.124 324.021 210.149C323.977 210.173 323.928 210.185 323.877 210.185L316.841 210.175C316.772 210.175 316.705 210.151 316.652 210.107C316.598 210.063 316.562 210.001 316.549 209.933L316.337 208.782C316.328 208.739 316.328 208.694 316.339 208.651C316.349 208.608 316.369 208.568 316.397 208.534C316.425 208.5 316.46 208.473 316.5 208.454C316.54 208.435 316.583 208.425 316.627 208.426L323.371 208.455C323.425 208.458 323.479 208.475 323.524 208.506C323.569 208.536 323.605 208.579 323.627 208.629Z" fill="#30384D"/>
<path d="M330.869 208.543L331.528 209.959C331.538 209.982 331.542 210.007 331.54 210.032C331.537 210.056 331.529 210.08 331.516 210.101C331.502 210.122 331.483 210.139 331.462 210.152C331.44 210.164 331.415 210.17 331.39 210.171H325.419C325.39 210.17 325.362 210.162 325.337 210.147C325.313 210.132 325.293 210.11 325.281 210.084L324.602 208.659C324.592 208.636 324.588 208.611 324.59 208.587C324.592 208.562 324.6 208.538 324.613 208.517C324.627 208.496 324.645 208.478 324.667 208.466C324.689 208.454 324.713 208.448 324.738 208.447L330.735 208.462C330.763 208.462 330.79 208.469 330.814 208.483C330.837 208.497 330.857 208.518 330.869 208.543Z" fill="#30384D"/>
<path d="M337.979 208.6L338.575 209.768C338.596 209.81 338.606 209.857 338.604 209.904C338.602 209.951 338.588 209.997 338.564 210.038C338.539 210.078 338.505 210.111 338.463 210.135C338.422 210.158 338.376 210.17 338.329 210.171L332.677 210.185C332.622 210.186 332.568 210.169 332.523 210.139C332.477 210.108 332.441 210.065 332.421 210.014L331.941 208.846C331.924 208.804 331.917 208.759 331.922 208.714C331.926 208.669 331.941 208.625 331.966 208.588C331.991 208.55 332.025 208.519 332.064 208.497C332.104 208.476 332.149 208.464 332.194 208.464L337.737 208.449C337.788 208.449 337.837 208.463 337.88 208.49C337.923 208.516 337.957 208.554 337.979 208.6Z" fill="#30384D"/>
<path d="M344.924 208.6L345.645 209.687C345.677 209.736 345.696 209.792 345.698 209.85C345.701 209.908 345.688 209.966 345.66 210.018C345.632 210.069 345.591 210.112 345.541 210.141C345.491 210.171 345.434 210.186 345.375 210.185L339.991 210.168C339.935 210.168 339.88 210.153 339.832 210.125C339.784 210.097 339.743 210.058 339.715 210.009L339.079 208.933C339.05 208.884 339.035 208.828 339.034 208.772C339.034 208.715 339.049 208.659 339.077 208.61C339.105 208.561 339.146 208.52 339.195 208.492C339.244 208.463 339.3 208.449 339.357 208.449H344.657C344.71 208.45 344.763 208.464 344.81 208.49C344.856 208.516 344.895 208.554 344.924 208.6Z" fill="#30384D"/>
<path d="M351.748 208.565L352.596 209.717C352.628 209.76 352.648 209.811 352.653 209.865C352.658 209.918 352.647 209.972 352.623 210.02C352.599 210.068 352.562 210.109 352.515 210.137C352.469 210.165 352.416 210.179 352.362 210.179H347.063C347.014 210.179 346.965 210.166 346.922 210.143C346.879 210.119 346.843 210.085 346.817 210.043L346.096 208.898C346.068 208.855 346.052 208.804 346.05 208.752C346.048 208.7 346.06 208.649 346.085 208.603C346.11 208.557 346.147 208.519 346.192 208.493C346.237 208.467 346.288 208.453 346.34 208.453H351.519C351.563 208.453 351.607 208.463 351.647 208.482C351.686 208.502 351.721 208.53 351.748 208.565Z" fill="#30384D"/>
<path d="M358.724 208.58L359.528 209.657C359.564 209.706 359.586 209.764 359.591 209.824C359.596 209.885 359.584 209.945 359.557 210C359.53 210.054 359.488 210.099 359.436 210.131C359.385 210.163 359.326 210.18 359.265 210.181H353.993C353.94 210.18 353.889 210.167 353.843 210.142C353.796 210.118 353.756 210.083 353.726 210.041L352.977 208.97C352.943 208.922 352.922 208.864 352.918 208.805C352.914 208.746 352.926 208.686 352.953 208.633C352.98 208.58 353.021 208.535 353.072 208.504C353.122 208.473 353.181 208.456 353.24 208.455H358.474C358.523 208.455 358.57 208.467 358.614 208.489C358.657 208.51 358.695 208.542 358.724 208.58Z" fill="#30384D"/>
<path d="M357.488 206.669L358.099 207.591C358.127 207.633 358.143 207.683 358.146 207.734C358.148 207.785 358.137 207.836 358.113 207.881C358.089 207.926 358.053 207.964 358.009 207.991C357.965 208.017 357.915 208.031 357.864 208.032H352.466C352.417 208.031 352.369 208.019 352.326 207.995C352.284 207.97 352.248 207.936 352.222 207.894L351.663 206.961C351.639 206.918 351.626 206.87 351.626 206.82C351.626 206.771 351.639 206.722 351.664 206.68C351.688 206.637 351.724 206.601 351.766 206.576C351.809 206.551 351.857 206.538 351.907 206.537H357.251C357.298 206.537 357.345 206.549 357.386 206.572C357.428 206.595 357.463 206.628 357.488 206.669Z" fill="#30384D"/>
<path d="M253.614 206.598L252.844 207.546C252.81 207.587 252.789 207.637 252.782 207.69C252.776 207.743 252.784 207.796 252.806 207.845C252.828 207.893 252.863 207.934 252.907 207.964C252.951 207.994 253.003 208.01 253.056 208.012H266.369C266.415 208.012 266.46 208.002 266.501 207.981C266.542 207.96 266.578 207.929 266.604 207.891L267.24 206.982C267.271 206.939 267.288 206.889 267.292 206.836C267.296 206.784 267.285 206.732 267.261 206.685C267.237 206.639 267.2 206.6 267.156 206.572C267.111 206.545 267.059 206.53 267.007 206.53C264.609 206.53 255.108 206.543 253.84 206.492C253.797 206.492 253.754 206.502 253.715 206.52C253.676 206.538 253.641 206.565 253.614 206.598Z" fill="#30384D"/>
<path d="M268.591 206.59L267.779 207.736C267.759 207.764 267.747 207.797 267.745 207.832C267.742 207.866 267.749 207.9 267.765 207.93C267.781 207.961 267.805 207.986 267.834 208.004C267.863 208.022 267.897 208.031 267.931 208.031H273.585C273.618 208.032 273.651 208.023 273.679 208.007C273.708 207.99 273.732 207.967 273.748 207.938L274.403 206.814C274.42 206.786 274.428 206.754 274.428 206.722C274.428 206.689 274.42 206.657 274.404 206.629C274.388 206.601 274.365 206.577 274.337 206.56C274.309 206.544 274.277 206.535 274.244 206.535C273.117 206.535 269.388 206.503 268.733 206.511C268.705 206.513 268.677 206.521 268.653 206.534C268.628 206.548 268.607 206.567 268.591 206.59Z" fill="#30384D"/>
<path d="M275.436 206.633L274.817 207.741C274.801 207.77 274.793 207.802 274.793 207.835C274.794 207.868 274.803 207.9 274.819 207.928C274.836 207.957 274.86 207.98 274.888 207.996C274.917 208.013 274.949 208.021 274.982 208.021H280.428C280.464 208.021 280.499 208.011 280.529 207.992C280.56 207.973 280.584 207.945 280.6 207.913L281.126 206.806C281.14 206.778 281.146 206.746 281.145 206.714C281.143 206.682 281.133 206.651 281.116 206.624C281.099 206.597 281.075 206.575 281.047 206.56C281.019 206.545 280.988 206.537 280.956 206.537H275.597C275.564 206.537 275.532 206.546 275.503 206.563C275.475 206.58 275.452 206.604 275.436 206.633Z" fill="#30384D"/>
<path d="M282.423 206.643L281.874 207.779C281.861 207.807 281.854 207.837 281.856 207.868C281.858 207.898 281.867 207.928 281.884 207.954C281.9 207.98 281.923 208.001 281.95 208.016C281.976 208.03 282.007 208.038 282.037 208.038H287.511C287.548 208.038 287.584 208.027 287.615 208.005C287.645 207.984 287.668 207.954 287.68 207.919L288.092 206.783C288.102 206.756 288.106 206.727 288.103 206.698C288.1 206.669 288.09 206.642 288.074 206.618C288.057 206.594 288.035 206.574 288.009 206.561C287.984 206.547 287.955 206.541 287.926 206.541H282.582C282.548 206.541 282.515 206.55 282.487 206.568C282.459 206.586 282.437 206.612 282.423 206.643Z" fill="#30384D"/>
<path d="M288.98 206.758L288.689 207.684C288.675 207.728 288.672 207.775 288.679 207.821C288.687 207.867 288.705 207.91 288.733 207.947C288.76 207.985 288.796 208.015 288.838 208.036C288.879 208.057 288.925 208.068 288.971 208.068H294.21C294.279 208.068 294.346 208.043 294.399 207.999C294.452 207.954 294.488 207.892 294.5 207.824L294.67 206.885C294.677 206.842 294.676 206.799 294.665 206.757C294.654 206.715 294.634 206.676 294.606 206.643C294.578 206.61 294.543 206.583 294.504 206.565C294.465 206.546 294.422 206.537 294.379 206.537L289.257 206.552C289.195 206.552 289.134 206.571 289.084 206.609C289.034 206.646 288.998 206.698 288.98 206.758Z" fill="#30384D"/>
<path d="M295.575 206.853L295.5 207.66C295.496 207.708 295.501 207.756 295.516 207.801C295.531 207.846 295.555 207.888 295.588 207.923C295.62 207.958 295.659 207.986 295.703 208.005C295.747 208.024 295.794 208.034 295.842 208.033H301.012C301.103 208.033 301.189 207.998 301.254 207.934C301.318 207.871 301.355 207.785 301.356 207.694V206.887C301.356 206.841 301.348 206.797 301.331 206.755C301.314 206.713 301.289 206.675 301.257 206.642C301.225 206.61 301.188 206.585 301.146 206.567C301.104 206.55 301.06 206.541 301.014 206.541H295.916C295.83 206.541 295.748 206.573 295.685 206.63C295.621 206.688 295.582 206.767 295.575 206.853Z" fill="#30384D"/>
<path d="M302.356 206.838L302.382 207.749C302.383 207.825 302.415 207.896 302.469 207.948C302.522 208.001 302.595 208.03 302.67 208.029H307.955C307.995 208.029 308.036 208.021 308.072 208.004C308.109 207.987 308.143 207.963 308.17 207.933C308.197 207.903 308.217 207.867 308.229 207.829C308.242 207.79 308.246 207.749 308.241 207.709L308.139 206.798C308.133 206.727 308.101 206.662 308.048 206.614C307.996 206.567 307.928 206.541 307.857 206.541H302.643C302.604 206.541 302.566 206.549 302.531 206.564C302.496 206.579 302.464 206.602 302.437 206.629C302.41 206.657 302.389 206.69 302.376 206.725C302.362 206.761 302.355 206.799 302.356 206.838Z" fill="#30384D"/>
<path d="M309.329 206.864L309.443 207.77C309.452 207.842 309.488 207.908 309.542 207.956C309.597 208.004 309.667 208.03 309.74 208.03H314.997C315.042 208.03 315.086 208.021 315.126 208.001C315.166 207.982 315.201 207.954 315.229 207.92C315.257 207.885 315.276 207.845 315.287 207.802C315.297 207.758 315.297 207.713 315.288 207.67L315.097 206.765C315.084 206.698 315.049 206.638 314.996 206.595C314.944 206.551 314.879 206.528 314.811 206.527H309.621C309.579 206.528 309.537 206.537 309.499 206.554C309.46 206.572 309.426 206.598 309.399 206.63C309.371 206.662 309.35 206.699 309.338 206.739C309.326 206.78 309.323 206.823 309.329 206.864Z" fill="#30384D"/>
<path d="M316.097 206.914L316.309 207.801C316.326 207.866 316.363 207.924 316.416 207.966C316.469 208.007 316.535 208.03 316.602 208.03H321.836C321.884 208.03 321.931 208.018 321.973 207.997C322.016 207.975 322.053 207.943 322.081 207.905C322.109 207.866 322.127 207.821 322.134 207.774C322.141 207.727 322.137 207.678 322.122 207.633L321.83 206.749C321.812 206.688 321.775 206.634 321.724 206.596C321.673 206.558 321.611 206.537 321.548 206.537H316.379C316.334 206.538 316.289 206.549 316.249 206.57C316.209 206.591 316.174 206.621 316.146 206.657C316.119 206.693 316.101 206.735 316.092 206.78C316.084 206.825 316.085 206.871 316.097 206.914Z" fill="#30384D"/>
<path d="M322.86 206.904L323.21 207.866C323.228 207.92 323.263 207.966 323.309 207.999C323.355 208.031 323.41 208.049 323.466 208.049H328.738C328.784 208.049 328.83 208.037 328.87 208.016C328.911 207.994 328.945 207.962 328.97 207.923C328.995 207.885 329.01 207.841 329.014 207.795C329.017 207.749 329.009 207.703 328.991 207.661L328.567 206.698C328.545 206.65 328.51 206.609 328.465 206.58C328.421 206.551 328.369 206.536 328.316 206.535H323.118C323.074 206.535 323.03 206.545 322.991 206.565C322.952 206.586 322.918 206.615 322.892 206.652C322.867 206.688 322.851 206.73 322.845 206.774C322.839 206.818 322.844 206.862 322.86 206.904Z" fill="#30384D"/>
<path d="M329.856 206.88L330.267 207.877C330.285 207.922 330.316 207.961 330.357 207.988C330.397 208.015 330.445 208.03 330.494 208.029H335.819C335.86 208.028 335.9 208.017 335.936 207.996C335.972 207.975 336.001 207.946 336.023 207.911C336.044 207.875 336.056 207.835 336.057 207.794C336.058 207.753 336.049 207.712 336.031 207.675L335.537 206.679C335.518 206.638 335.488 206.604 335.451 206.579C335.413 206.555 335.37 206.542 335.325 206.541H330.076C330.036 206.542 329.997 206.552 329.962 206.571C329.927 206.591 329.897 206.618 329.875 206.652C329.854 206.685 329.84 206.724 329.837 206.764C329.834 206.803 329.84 206.843 329.856 206.88Z" fill="#30384D"/>
<path d="M336.665 206.904L337.135 207.894C337.156 207.938 337.189 207.975 337.231 208.001C337.272 208.027 337.32 208.04 337.368 208.04H344.322C344.367 208.04 344.411 208.028 344.45 208.006C344.489 207.984 344.521 207.951 344.543 207.912C344.566 207.874 344.578 207.829 344.578 207.785C344.578 207.74 344.567 207.696 344.544 207.657L343.991 206.669C343.97 206.63 343.939 206.598 343.902 206.575C343.865 206.552 343.823 206.539 343.779 206.537H336.9C336.856 206.536 336.813 206.546 336.774 206.567C336.735 206.587 336.702 206.617 336.679 206.654C336.655 206.691 336.641 206.733 336.639 206.777C336.636 206.821 336.645 206.865 336.665 206.904Z" fill="#30384D"/>
<path d="M344.907 206.94L345.49 207.902C345.513 207.941 345.546 207.973 345.585 207.995C345.625 208.018 345.669 208.029 345.715 208.029H351.055C351.102 208.029 351.149 208.015 351.19 207.99C351.23 207.965 351.263 207.929 351.285 207.886C351.307 207.844 351.317 207.796 351.313 207.749C351.31 207.701 351.294 207.655 351.267 207.616L350.603 206.654C350.58 206.618 350.549 206.589 350.512 206.569C350.475 206.549 350.433 206.539 350.391 206.539H345.119C345.073 206.541 345.029 206.555 344.99 206.58C344.951 206.604 344.92 206.638 344.898 206.679C344.877 206.719 344.866 206.765 344.868 206.81C344.869 206.856 344.883 206.901 344.907 206.94Z" fill="#30384D"/>
<path d="M264.139 206.29H254.273C254.231 206.29 254.189 206.278 254.153 206.256C254.118 206.234 254.088 206.202 254.069 206.165C254.05 206.127 254.041 206.085 254.044 206.043C254.047 206.001 254.062 205.96 254.086 205.926L254.625 205.177C254.646 205.148 254.674 205.123 254.706 205.106C254.739 205.089 254.775 205.08 254.811 205.08L264.787 205.057C264.831 205.056 264.874 205.069 264.911 205.092C264.949 205.116 264.978 205.149 264.997 205.189C265.015 205.229 265.022 205.273 265.016 205.316C265.01 205.36 264.992 205.401 264.963 205.434L264.315 206.208C264.293 206.234 264.266 206.254 264.236 206.269C264.206 206.283 264.172 206.29 264.139 206.29Z" fill="#30384D"/>
<path d="M271.149 206.268H265.506C265.461 206.268 265.417 206.256 265.379 206.231C265.341 206.207 265.311 206.173 265.292 206.132C265.273 206.091 265.266 206.046 265.272 206.001C265.278 205.956 265.297 205.914 265.326 205.88L265.92 205.178C265.942 205.152 265.969 205.131 266 205.117C266.032 205.103 266.065 205.095 266.1 205.096H271.611C271.654 205.095 271.696 205.107 271.733 205.129C271.77 205.15 271.8 205.182 271.821 205.22C271.841 205.257 271.851 205.3 271.848 205.343C271.846 205.385 271.833 205.427 271.809 205.462L271.34 206.168C271.318 206.199 271.29 206.224 271.257 206.241C271.224 206.258 271.187 206.268 271.149 206.268Z" fill="#30384D"/>
<path d="M278.001 206.268H272.315C272.271 206.269 272.226 206.257 272.188 206.235C272.149 206.212 272.117 206.18 272.095 206.14C272.074 206.101 272.063 206.057 272.064 206.012C272.066 205.968 272.079 205.924 272.103 205.886L272.527 205.21C272.55 205.175 272.581 205.146 272.618 205.125C272.655 205.105 272.697 205.095 272.739 205.096H278.404C278.447 205.096 278.49 205.108 278.528 205.13C278.566 205.152 278.597 205.184 278.619 205.222C278.64 205.26 278.651 205.303 278.651 205.347C278.65 205.391 278.638 205.433 278.616 205.471L278.209 206.151C278.187 206.187 278.156 206.216 278.12 206.237C278.084 206.257 278.043 206.268 278.001 206.268Z" fill="#30384D"/>
<path d="M284.49 206.267H279.054C279.016 206.267 278.977 206.256 278.944 206.237C278.91 206.217 278.882 206.189 278.862 206.156C278.843 206.122 278.832 206.084 278.832 206.045C278.831 206.006 278.841 205.968 278.859 205.934L279.262 205.209C279.282 205.175 279.31 205.146 279.344 205.126C279.379 205.106 279.417 205.095 279.457 205.095L284.924 205.084C284.964 205.084 285.003 205.094 285.037 205.114C285.071 205.133 285.1 205.162 285.12 205.196C285.139 205.23 285.149 205.269 285.149 205.309C285.149 205.348 285.138 205.387 285.117 205.421L284.681 206.152C284.662 206.187 284.635 206.216 284.601 206.237C284.568 206.257 284.529 206.267 284.49 206.267Z" fill="#30384D"/>
<path d="M291.093 206.283H285.713C285.672 206.282 285.631 206.27 285.596 206.25C285.56 206.229 285.53 206.2 285.509 206.164C285.488 206.129 285.476 206.089 285.475 206.047C285.473 206.006 285.482 205.965 285.501 205.929L285.853 205.231C285.873 205.192 285.903 205.159 285.94 205.135C285.978 205.112 286.021 205.099 286.065 205.098H291.375C291.415 205.098 291.455 205.107 291.49 205.126C291.525 205.145 291.555 205.172 291.578 205.205C291.6 205.238 291.614 205.276 291.618 205.316C291.623 205.355 291.617 205.396 291.602 205.433L291.318 206.136C291.299 206.18 291.267 206.217 291.227 206.243C291.187 206.269 291.141 206.283 291.093 206.283Z" fill="#30384D"/>
<path d="M298.1 206.281H292.671C292.633 206.28 292.597 206.27 292.564 206.253C292.532 206.235 292.504 206.21 292.483 206.179C292.462 206.148 292.449 206.113 292.445 206.076C292.441 206.039 292.445 206.002 292.459 205.967L292.721 205.248C292.738 205.205 292.766 205.167 292.804 205.14C292.842 205.113 292.887 205.099 292.933 205.098H298.29C298.326 205.097 298.361 205.105 298.394 205.121C298.426 205.137 298.454 205.16 298.476 205.188C298.497 205.216 298.512 205.249 298.519 205.284C298.526 205.32 298.525 205.356 298.515 205.39L298.324 206.113C298.31 206.162 298.28 206.204 298.24 206.234C298.199 206.265 298.15 206.281 298.1 206.281Z" fill="#30384D"/>
<path d="M304.726 206.267H299.407C299.364 206.267 299.322 206.258 299.283 206.239C299.244 206.221 299.21 206.194 299.182 206.161C299.155 206.128 299.135 206.089 299.124 206.047C299.113 206.006 299.111 205.962 299.119 205.92L299.229 205.318C299.242 205.25 299.277 205.189 299.33 205.146C299.383 205.102 299.449 205.078 299.518 205.078H304.775C304.816 205.078 304.856 205.087 304.893 205.103C304.93 205.12 304.964 205.143 304.991 205.173C305.019 205.203 305.04 205.238 305.054 205.277C305.067 205.315 305.073 205.356 305.07 205.396L305.019 206.002C305.012 206.075 304.978 206.143 304.924 206.192C304.87 206.241 304.799 206.268 304.726 206.267Z" fill="#30384D"/>
<path d="M311.546 206.268H306.172C306.107 206.268 306.044 206.244 305.995 206.2C305.946 206.157 305.915 206.097 305.907 206.032L305.831 205.396C305.826 205.359 305.83 205.321 305.841 205.285C305.852 205.249 305.871 205.216 305.896 205.188C305.921 205.16 305.952 205.138 305.986 205.122C306.021 205.107 306.058 205.099 306.096 205.1H311.395C311.457 205.1 311.516 205.121 311.563 205.159C311.611 205.198 311.644 205.252 311.656 205.312L311.796 205.948C311.804 205.985 311.804 206.025 311.795 206.062C311.787 206.1 311.77 206.135 311.746 206.166C311.722 206.197 311.692 206.221 311.657 206.239C311.623 206.257 311.585 206.266 311.546 206.268Z" fill="#30384D"/>
<path d="M318.298 206.268H312.865C312.812 206.268 312.761 206.25 312.72 206.217C312.679 206.185 312.65 206.139 312.638 206.088L312.472 205.382C312.464 205.348 312.464 205.312 312.472 205.278C312.48 205.244 312.495 205.212 312.517 205.184C312.539 205.157 312.566 205.134 312.598 205.119C312.63 205.104 312.664 205.096 312.699 205.096H318.06C318.108 205.098 318.154 205.115 318.191 205.143C318.229 205.172 318.258 205.212 318.272 205.257L318.51 205.967C318.52 206.001 318.523 206.037 318.517 206.072C318.512 206.107 318.498 206.14 318.478 206.169C318.457 206.198 318.43 206.222 318.399 206.239C318.368 206.257 318.333 206.266 318.298 206.268Z" fill="#30384D"/>
<path d="M325.092 206.267H319.82C319.756 206.267 319.694 206.246 319.643 206.208C319.592 206.17 319.554 206.116 319.536 206.055L319.347 205.48C319.333 205.435 319.329 205.387 319.336 205.341C319.343 205.294 319.361 205.249 319.389 205.211C319.417 205.173 319.453 205.141 319.495 205.12C319.537 205.098 319.584 205.086 319.631 205.086H324.844C324.903 205.086 324.96 205.103 325.009 205.136C325.058 205.168 325.097 205.214 325.12 205.268L325.368 205.849C325.387 205.895 325.395 205.944 325.391 205.994C325.387 206.043 325.37 206.091 325.343 206.132C325.316 206.174 325.278 206.208 325.235 206.231C325.191 206.255 325.142 206.267 325.092 206.267Z" fill="#30384D"/>
<path d="M331.946 206.266H326.574C326.52 206.266 326.468 206.249 326.425 206.217C326.381 206.186 326.349 206.141 326.332 206.09L326.12 205.425C326.108 205.386 326.105 205.346 326.111 205.306C326.117 205.267 326.133 205.229 326.156 205.197C326.18 205.164 326.211 205.138 326.247 205.12C326.282 205.101 326.322 205.092 326.362 205.092H331.662C331.712 205.092 331.761 205.106 331.803 205.134C331.845 205.161 331.877 205.2 331.897 205.247L332.183 205.916C332.198 205.955 332.204 205.997 332.199 206.038C332.194 206.08 332.18 206.119 332.156 206.154C332.133 206.188 332.102 206.216 332.065 206.236C332.028 206.256 331.987 206.266 331.946 206.266Z" fill="#30384D"/>
<path d="M338.492 206.268H333.254C333.2 206.268 333.148 206.254 333.102 206.226C333.057 206.198 333.02 206.159 332.995 206.111L332.684 205.52C332.661 205.475 332.651 205.426 332.653 205.376C332.655 205.327 332.669 205.278 332.695 205.236C332.721 205.193 332.757 205.158 332.8 205.134C332.844 205.109 332.892 205.096 332.942 205.096H338.117C338.167 205.096 338.216 205.108 338.26 205.132C338.303 205.156 338.34 205.191 338.367 205.233L338.74 205.831C338.765 205.875 338.778 205.925 338.778 205.976C338.778 206.026 338.765 206.076 338.74 206.12C338.715 206.164 338.679 206.201 338.636 206.227C338.592 206.253 338.543 206.267 338.492 206.268Z" fill="#30384D"/>
<path d="M349.91 206.282H339.819C339.767 206.282 339.716 206.267 339.671 206.241C339.626 206.214 339.589 206.175 339.565 206.129L339.249 205.529C339.225 205.486 339.214 205.436 339.215 205.386C339.216 205.337 339.23 205.288 339.256 205.245C339.282 205.203 339.318 205.167 339.361 205.143C339.404 205.118 339.453 205.105 339.503 205.105H349.539C349.587 205.106 349.635 205.118 349.678 205.142C349.721 205.166 349.757 205.2 349.783 205.241L350.162 205.847C350.188 205.891 350.202 205.942 350.202 205.993C350.202 206.044 350.189 206.094 350.163 206.138C350.137 206.183 350.1 206.219 350.056 206.245C350.011 206.27 349.961 206.283 349.91 206.282Z" fill="#30384D"/>
<path d="M356.645 206.282H351.523C351.477 206.282 351.432 206.271 351.391 206.25C351.35 206.228 351.316 206.197 351.29 206.159L350.866 205.546C350.837 205.504 350.82 205.455 350.817 205.404C350.814 205.353 350.825 205.302 350.849 205.257C350.873 205.211 350.908 205.173 350.952 205.147C350.996 205.12 351.046 205.106 351.097 205.105H356.185C356.229 205.105 356.273 205.116 356.313 205.136C356.352 205.156 356.387 205.184 356.414 205.22L356.863 205.839C356.892 205.88 356.909 205.929 356.913 205.979C356.917 206.029 356.907 206.08 356.885 206.125C356.862 206.17 356.828 206.209 356.786 206.236C356.744 206.264 356.695 206.28 356.645 206.282Z" fill="#30384D"/>
<path d="M355.574 204.702H350.527C350.497 204.702 350.468 204.695 350.442 204.681C350.416 204.667 350.393 204.648 350.376 204.623L349.823 203.807C349.804 203.78 349.794 203.749 349.792 203.716C349.79 203.683 349.797 203.651 349.812 203.622C349.827 203.593 349.85 203.568 349.878 203.551C349.906 203.534 349.939 203.525 349.971 203.525H354.976C355.005 203.525 355.032 203.532 355.057 203.545C355.082 203.558 355.104 203.577 355.12 203.6L355.72 204.42C355.739 204.447 355.75 204.478 355.752 204.511C355.754 204.543 355.747 204.576 355.732 204.605C355.717 204.634 355.694 204.658 355.666 204.675C355.639 204.692 355.607 204.701 355.574 204.702Z" fill="#30384D"/>
<path d="M354.33 203.009H349.359C349.324 203.009 349.29 203.001 349.259 202.985C349.229 202.969 349.202 202.946 349.183 202.917L348.67 202.161C348.649 202.129 348.637 202.092 348.635 202.054C348.633 202.016 348.642 201.978 348.659 201.945C348.677 201.911 348.704 201.883 348.736 201.863C348.768 201.843 348.805 201.833 348.843 201.832H353.774C353.808 201.832 353.841 201.84 353.871 201.855C353.9 201.87 353.926 201.892 353.946 201.919L354.499 202.678C354.521 202.709 354.533 202.746 354.535 202.784C354.538 202.822 354.53 202.86 354.512 202.893C354.495 202.927 354.469 202.956 354.437 202.976C354.405 202.996 354.368 203.008 354.33 203.009Z" fill="#30384D"/>
<path d="M349.017 204.861H344.12C344.077 204.86 344.036 204.848 343.999 204.827C343.962 204.805 343.931 204.775 343.908 204.738L343.359 203.837C343.336 203.799 343.323 203.755 343.322 203.71C343.321 203.665 343.331 203.621 343.353 203.581C343.374 203.542 343.406 203.509 343.444 203.485C343.482 203.461 343.526 203.448 343.571 203.447H348.47C348.513 203.448 348.555 203.46 348.592 203.482C348.629 203.503 348.66 203.534 348.682 203.57L349.233 204.475C349.256 204.514 349.268 204.558 349.268 204.602C349.269 204.647 349.258 204.691 349.236 204.73C349.214 204.769 349.182 204.802 349.144 204.825C349.106 204.848 349.062 204.86 349.017 204.861Z" fill="#30384D"/>
<path d="M342.664 204.822H337.642C337.596 204.823 337.55 204.811 337.51 204.788C337.469 204.764 337.436 204.731 337.413 204.691L336.898 203.807C336.875 203.766 336.863 203.72 336.863 203.674C336.864 203.627 336.876 203.582 336.899 203.541C336.923 203.501 336.956 203.468 336.996 203.444C337.037 203.421 337.082 203.408 337.129 203.408H342.113C342.158 203.408 342.202 203.42 342.241 203.442C342.281 203.464 342.314 203.495 342.338 203.533L342.891 204.422C342.915 204.462 342.928 204.507 342.928 204.554C342.929 204.601 342.917 204.647 342.894 204.688C342.871 204.728 342.837 204.762 342.797 204.786C342.757 204.81 342.711 204.822 342.664 204.822Z" fill="#30384D"/>
<path d="M336.116 204.861H331.015C330.956 204.861 330.899 204.845 330.848 204.815C330.798 204.784 330.757 204.741 330.729 204.69L330.318 203.926C330.291 203.877 330.277 203.821 330.279 203.765C330.28 203.709 330.295 203.654 330.324 203.605C330.353 203.557 330.394 203.517 330.443 203.489C330.492 203.462 330.548 203.447 330.604 203.447H335.639C335.694 203.447 335.748 203.461 335.796 203.488C335.844 203.515 335.885 203.553 335.914 203.6L336.393 204.369C336.423 204.419 336.439 204.475 336.44 204.532C336.441 204.59 336.426 204.646 336.398 204.696C336.37 204.746 336.329 204.788 336.279 204.817C336.229 204.846 336.173 204.861 336.116 204.861Z" fill="#30384D"/>
<path d="M329.618 204.823H324.183C324.145 204.823 324.109 204.812 324.077 204.791C324.046 204.77 324.022 204.741 324.007 204.706L323.583 203.716C323.57 203.687 323.565 203.655 323.568 203.623C323.571 203.591 323.581 203.56 323.599 203.534C323.617 203.507 323.641 203.485 323.669 203.47C323.697 203.455 323.729 203.447 323.761 203.447H329.109C329.144 203.447 329.179 203.457 329.209 203.475C329.239 203.493 329.263 203.52 329.279 203.551L329.796 204.545C329.811 204.575 329.817 204.608 329.816 204.641C329.814 204.674 329.803 204.706 329.785 204.734C329.767 204.762 329.743 204.785 329.713 204.801C329.684 204.816 329.651 204.824 329.618 204.823Z" fill="#30384D"/>
<path d="M323.072 204.823H317.632C317.592 204.823 317.554 204.811 317.521 204.788C317.489 204.765 317.464 204.733 317.45 204.696L317.085 203.71C317.074 203.681 317.071 203.649 317.075 203.618C317.079 203.587 317.09 203.557 317.108 203.531C317.126 203.505 317.15 203.484 317.177 203.47C317.205 203.455 317.236 203.447 317.268 203.447H322.62C322.658 203.447 322.695 203.458 322.726 203.478C322.758 203.499 322.783 203.528 322.798 203.562L323.25 204.552C323.262 204.581 323.268 204.613 323.265 204.645C323.262 204.677 323.251 204.708 323.234 204.735C323.216 204.762 323.192 204.784 323.164 204.799C323.136 204.815 323.104 204.823 323.072 204.823Z" fill="#30384D"/>
<path d="M316.307 204.823H310.988C310.932 204.823 310.878 204.805 310.833 204.771C310.789 204.737 310.757 204.689 310.743 204.634L310.509 203.767C310.499 203.73 310.498 203.691 310.506 203.652C310.513 203.614 310.529 203.578 310.553 203.548C310.576 203.517 310.607 203.492 310.641 203.474C310.676 203.457 310.714 203.448 310.753 203.447H316.002C316.055 203.447 316.106 203.464 316.149 203.494C316.192 203.524 316.224 203.567 316.242 203.617L316.551 204.49C316.563 204.529 316.567 204.569 316.56 204.609C316.554 204.649 316.538 204.687 316.514 204.719C316.49 204.752 316.459 204.778 316.423 204.796C316.387 204.814 316.348 204.823 316.307 204.823Z" fill="#30384D"/>
<path d="M309.541 204.814H304.241C304.168 204.814 304.099 204.785 304.047 204.734C303.996 204.684 303.966 204.615 303.965 204.542V203.735C303.965 203.698 303.971 203.662 303.985 203.629C303.998 203.595 304.018 203.565 304.044 203.539C304.069 203.514 304.1 203.493 304.133 203.479C304.167 203.466 304.203 203.459 304.239 203.459H309.473C309.541 203.459 309.607 203.484 309.658 203.53C309.708 203.576 309.74 203.639 309.746 203.707L309.823 204.519C309.826 204.557 309.82 204.596 309.807 204.632C309.795 204.668 309.774 204.702 309.747 204.729C309.721 204.757 309.689 204.779 309.653 204.794C309.617 204.808 309.579 204.815 309.541 204.814Z" fill="#30384D"/>
<path d="M303.018 204.814H297.572C297.541 204.812 297.511 204.803 297.484 204.788C297.456 204.774 297.433 204.753 297.414 204.728C297.396 204.703 297.383 204.675 297.377 204.645C297.371 204.614 297.372 204.583 297.379 204.553L297.675 203.599C297.688 203.558 297.713 203.522 297.747 203.496C297.782 203.471 297.823 203.457 297.866 203.457H303.227C303.257 203.459 303.286 203.467 303.312 203.48C303.338 203.494 303.361 203.512 303.38 203.535C303.399 203.558 303.412 203.585 303.42 203.613C303.427 203.642 303.429 203.672 303.425 203.701L303.213 204.661C303.202 204.705 303.177 204.744 303.142 204.771C303.106 204.799 303.063 204.814 303.018 204.814Z" fill="#30384D"/>
<path d="M296.376 204.812H291.076C291.041 204.813 291.005 204.805 290.974 204.789C290.942 204.772 290.915 204.748 290.895 204.719C290.875 204.689 290.863 204.655 290.86 204.619C290.857 204.584 290.863 204.548 290.877 204.516L291.252 203.591C291.269 203.549 291.298 203.514 291.336 203.49C291.375 203.466 291.419 203.455 291.464 203.458H296.764C296.801 203.455 296.838 203.461 296.871 203.477C296.904 203.492 296.933 203.516 296.955 203.546C296.976 203.576 296.989 203.611 296.993 203.647C296.997 203.684 296.991 203.721 296.976 203.755L296.609 204.683C296.591 204.728 296.558 204.765 296.516 204.789C296.473 204.813 296.424 204.821 296.376 204.812Z" fill="#30384D"/>
<path d="M289.912 204.814H284.339C284.305 204.812 284.272 204.803 284.242 204.785C284.212 204.768 284.187 204.744 284.169 204.715C284.15 204.686 284.139 204.653 284.137 204.619C284.134 204.585 284.139 204.55 284.153 204.519L284.598 203.578C284.615 203.543 284.642 203.513 284.674 203.492C284.707 203.471 284.745 203.46 284.784 203.459H290.328C290.362 203.46 290.395 203.469 290.425 203.486C290.455 203.502 290.48 203.526 290.499 203.554C290.518 203.583 290.529 203.616 290.533 203.65C290.536 203.683 290.531 203.718 290.519 203.749L290.095 204.697C290.079 204.732 290.053 204.762 290.021 204.782C289.989 204.803 289.951 204.814 289.912 204.814Z" fill="#30384D"/>
<path d="M283.19 204.784H277.825C277.796 204.784 277.768 204.776 277.743 204.761C277.718 204.747 277.697 204.726 277.683 204.701C277.668 204.675 277.661 204.647 277.661 204.618C277.661 204.589 277.668 204.561 277.683 204.536L278.279 203.539C278.293 203.515 278.314 203.496 278.338 203.482C278.363 203.468 278.39 203.461 278.418 203.461H283.744C283.772 203.461 283.8 203.469 283.825 203.483C283.849 203.497 283.87 203.518 283.885 203.542C283.899 203.567 283.907 203.595 283.908 203.623C283.908 203.651 283.901 203.68 283.888 203.705L283.332 204.705C283.318 204.73 283.297 204.75 283.272 204.764C283.247 204.778 283.219 204.785 283.19 204.784Z" fill="#30384D"/>
<path d="M276.695 204.784H271.228C271.199 204.783 271.17 204.775 271.146 204.759C271.121 204.744 271.102 204.721 271.089 204.695C271.077 204.669 271.072 204.639 271.076 204.61C271.079 204.581 271.091 204.554 271.109 204.531L271.957 203.516C271.972 203.499 271.99 203.485 272.01 203.475C272.031 203.466 272.053 203.461 272.076 203.461H277.352C277.38 203.461 277.407 203.469 277.43 203.483C277.454 203.497 277.473 203.517 277.487 203.542C277.5 203.566 277.506 203.593 277.505 203.621C277.504 203.648 277.496 203.675 277.481 203.698L276.824 204.72C276.81 204.741 276.79 204.757 276.768 204.768C276.745 204.779 276.72 204.785 276.695 204.784Z" fill="#30384D"/>
<path d="M270.316 204.783H265.44C265.414 204.784 265.389 204.777 265.367 204.763C265.344 204.75 265.326 204.73 265.314 204.707C265.302 204.684 265.297 204.658 265.299 204.632C265.301 204.606 265.311 204.582 265.326 204.561L266.068 203.526C266.081 203.508 266.098 203.493 266.118 203.483C266.138 203.472 266.16 203.467 266.182 203.467H270.969C270.994 203.467 271.018 203.474 271.039 203.486C271.06 203.499 271.078 203.517 271.09 203.538C271.102 203.56 271.108 203.584 271.108 203.609C271.107 203.634 271.101 203.658 271.088 203.679L270.441 204.72C270.428 204.74 270.409 204.757 270.387 204.768C270.365 204.779 270.341 204.785 270.316 204.783Z" fill="#30384D"/>
<path d="M264.41 204.784H255.225C255.199 204.786 255.174 204.78 255.152 204.768C255.13 204.755 255.112 204.736 255.101 204.713C255.09 204.69 255.086 204.665 255.089 204.64C255.093 204.615 255.104 204.591 255.121 204.572L255.918 203.512C255.93 203.496 255.946 203.483 255.964 203.474C255.982 203.465 256.002 203.461 256.022 203.461H265.216C265.241 203.459 265.266 203.465 265.288 203.478C265.31 203.49 265.328 203.509 265.339 203.532C265.35 203.555 265.355 203.581 265.351 203.606C265.348 203.631 265.337 203.654 265.32 203.673L264.514 204.748C264.5 204.761 264.484 204.771 264.466 204.777C264.448 204.783 264.429 204.786 264.41 204.784Z" fill="#30384D"/>
<path d="M261.425 203.214H256.615C256.574 203.214 256.533 203.202 256.498 203.18C256.462 203.158 256.434 203.127 256.415 203.09C256.396 203.053 256.388 203.011 256.392 202.97C256.395 202.928 256.41 202.889 256.435 202.855L257.031 202.056C257.07 202.004 257.121 201.962 257.179 201.933C257.237 201.904 257.301 201.889 257.366 201.889H262.061C262.101 201.889 262.141 201.899 262.175 201.92C262.21 201.94 262.238 201.969 262.258 202.004C262.277 202.039 262.287 202.079 262.286 202.119C262.285 202.159 262.273 202.198 262.252 202.232L261.743 203.044C261.709 203.097 261.662 203.14 261.606 203.17C261.551 203.199 261.488 203.214 261.425 203.214Z" fill="#30384D"/>
<path d="M267.719 203.162H262.704C262.663 203.161 262.624 203.15 262.589 203.13C262.555 203.109 262.527 203.08 262.507 203.045C262.488 203.009 262.478 202.969 262.48 202.929C262.481 202.889 262.493 202.85 262.515 202.816L263.087 201.932C263.108 201.9 263.135 201.874 263.168 201.856C263.201 201.838 263.238 201.828 263.276 201.828H268.379C268.42 201.828 268.461 201.84 268.496 201.862C268.532 201.884 268.56 201.915 268.579 201.952C268.598 201.989 268.606 202.031 268.602 202.072C268.598 202.113 268.584 202.153 268.559 202.186L267.893 203.068C267.874 203.097 267.848 203.12 267.818 203.136C267.787 203.153 267.754 203.161 267.719 203.162Z" fill="#30384D"/>
<path d="M280.4 203.161H275.222C275.189 203.161 275.157 203.153 275.129 203.136C275.101 203.12 275.077 203.096 275.061 203.068C275.045 203.04 275.037 203.008 275.038 202.975C275.038 202.943 275.048 202.911 275.065 202.883L275.641 201.925C275.658 201.898 275.681 201.876 275.708 201.861C275.736 201.846 275.767 201.838 275.798 201.838H281.003C281.035 201.837 281.068 201.846 281.096 201.862C281.125 201.879 281.148 201.902 281.164 201.931C281.181 201.96 281.189 201.992 281.188 202.025C281.187 202.058 281.177 202.09 281.159 202.118L280.555 203.082C280.538 203.107 280.515 203.127 280.488 203.141C280.461 203.155 280.431 203.162 280.4 203.161Z" fill="#30384D"/>
<path d="M286.932 203.161H281.787C281.754 203.161 281.721 203.152 281.692 203.136C281.663 203.119 281.639 203.096 281.622 203.067C281.605 203.038 281.596 203.005 281.595 202.972C281.595 202.939 281.603 202.906 281.619 202.877L282.152 201.933C282.168 201.904 282.192 201.88 282.222 201.863C282.251 201.847 282.283 201.838 282.317 201.838H287.301C287.332 201.838 287.363 201.845 287.39 201.86C287.418 201.874 287.441 201.895 287.459 201.921C287.477 201.947 287.488 201.976 287.491 202.007C287.494 202.038 287.49 202.07 287.479 202.099L287.11 203.046C287.095 203.081 287.07 203.11 287.039 203.131C287.007 203.151 286.97 203.162 286.932 203.161Z" fill="#30384D"/>
<path d="M274.081 203.161H268.877C268.843 203.161 268.81 203.152 268.781 203.135C268.752 203.117 268.729 203.092 268.714 203.062C268.699 203.032 268.692 202.999 268.695 202.965C268.698 202.932 268.71 202.899 268.73 202.873L269.449 201.91C269.466 201.887 269.488 201.869 269.514 201.856C269.539 201.843 269.567 201.836 269.595 201.836H274.683C274.715 201.836 274.747 201.844 274.775 201.86C274.803 201.876 274.826 201.9 274.842 201.928C274.858 201.956 274.866 201.988 274.865 202.02C274.864 202.053 274.855 202.084 274.838 202.112L274.23 203.08C274.213 203.105 274.191 203.125 274.165 203.139C274.14 203.153 274.111 203.161 274.081 203.161Z" fill="#30384D"/>
<path d="M293.605 203.162H288.424C288.395 203.162 288.366 203.156 288.34 203.143C288.314 203.13 288.291 203.111 288.273 203.088C288.255 203.065 288.242 203.038 288.236 203.009C288.23 202.981 288.231 202.951 288.238 202.923L288.511 201.863C288.522 201.822 288.547 201.785 288.58 201.759C288.614 201.733 288.655 201.719 288.698 201.719H293.711C293.738 201.719 293.765 201.724 293.79 201.735C293.814 201.746 293.836 201.762 293.854 201.782C293.872 201.802 293.886 201.826 293.894 201.851C293.902 201.877 293.905 201.904 293.902 201.931L293.798 202.991C293.793 203.038 293.77 203.082 293.735 203.114C293.699 203.145 293.653 203.163 293.605 203.162Z" fill="#30384D"/>
<path d="M300.27 201.832H294.958C294.834 201.832 294.733 201.933 294.733 202.057V202.939C294.733 203.063 294.834 203.163 294.958 203.163H300.27C300.394 203.163 300.495 203.063 300.495 202.939V202.057C300.495 201.933 300.394 201.832 300.27 201.832Z" fill="#30384D"/>
<path d="M306.573 201.777H301.332C301.188 201.777 301.072 201.894 301.072 202.038V202.848C301.072 202.992 301.188 203.109 301.332 203.109H306.573C306.717 203.109 306.834 202.992 306.834 202.848V202.038C306.834 201.894 306.717 201.777 306.573 201.777Z" fill="#30384D"/>
<path d="M313.081 201.777H307.768C307.644 201.777 307.544 201.878 307.544 202.002V202.884C307.544 203.008 307.644 203.109 307.768 203.109H313.081C313.205 203.109 313.306 203.008 313.306 202.884V202.002C313.306 201.878 313.205 201.777 313.081 201.777Z" fill="#30384D"/>
<path d="M319.385 201.777H314.12C313.983 201.777 313.872 201.888 313.872 202.025V202.861C313.872 202.998 313.983 203.109 314.12 203.109H319.385C319.522 203.109 319.633 202.998 319.633 202.861V202.025C319.633 201.888 319.522 201.777 319.385 201.777Z" fill="#30384D"/>
<path d="M326.021 203.107H320.653C320.609 203.107 320.567 203.092 320.533 203.064C320.499 203.037 320.476 202.999 320.466 202.956L320.274 202.004C320.268 201.977 320.268 201.948 320.275 201.921C320.282 201.894 320.294 201.869 320.312 201.847C320.33 201.825 320.352 201.808 320.377 201.796C320.402 201.784 320.43 201.777 320.458 201.777H325.79C325.832 201.777 325.873 201.792 325.906 201.818C325.94 201.844 325.964 201.88 325.974 201.921L326.203 202.873C326.21 202.901 326.211 202.93 326.205 202.958C326.199 202.986 326.187 203.012 326.169 203.035C326.152 203.057 326.129 203.076 326.103 203.088C326.077 203.1 326.049 203.107 326.021 203.107Z" fill="#30384D"/>
<path d="M332.446 203.107H327.1C327.053 203.105 327.008 203.088 326.972 203.059C326.936 203.029 326.911 202.989 326.9 202.943L326.712 202.021C326.707 201.992 326.709 201.962 326.717 201.933C326.725 201.905 326.738 201.878 326.757 201.855C326.776 201.832 326.799 201.813 326.826 201.8C326.852 201.786 326.881 201.779 326.911 201.777H332.211C332.256 201.778 332.3 201.794 332.336 201.822C332.372 201.85 332.398 201.888 332.41 201.932L332.622 202.856C332.628 202.884 332.627 202.913 332.621 202.941C332.615 202.969 332.604 202.996 332.587 203.019C332.571 203.042 332.55 203.062 332.526 203.077C332.501 203.092 332.474 203.102 332.446 203.107Z" fill="#30384D"/>
<path d="M338.952 203.106H333.703C333.653 203.106 333.605 203.091 333.565 203.062C333.524 203.033 333.494 202.992 333.478 202.945L333.19 202.097C333.178 202.061 333.175 202.023 333.181 201.986C333.187 201.949 333.201 201.914 333.223 201.884C333.245 201.853 333.274 201.829 333.307 201.811C333.34 201.794 333.377 201.785 333.415 201.785H338.632C338.678 201.787 338.723 201.803 338.761 201.83C338.798 201.857 338.827 201.895 338.844 201.938L339.164 202.786C339.177 202.821 339.182 202.859 339.177 202.896C339.173 202.933 339.16 202.969 339.139 203C339.119 203.031 339.091 203.057 339.058 203.075C339.026 203.094 338.989 203.104 338.952 203.106Z" fill="#30384D"/>
<path d="M348.021 203.106H340.061C340.017 203.106 339.975 203.095 339.938 203.073C339.9 203.051 339.87 203.019 339.849 202.981L339.393 202.133C339.373 202.097 339.364 202.056 339.365 202.015C339.366 201.973 339.378 201.933 339.399 201.898C339.42 201.862 339.451 201.833 339.487 201.813C339.523 201.793 339.564 201.783 339.605 201.783H347.533C347.576 201.782 347.618 201.792 347.656 201.813C347.693 201.834 347.724 201.865 347.745 201.902L348.235 202.75C348.256 202.787 348.267 202.828 348.267 202.871C348.267 202.913 348.255 202.955 348.233 202.991C348.211 203.028 348.18 203.057 348.143 203.078C348.105 203.098 348.063 203.108 348.021 203.106Z" fill="#30384D"/>
<path d="M328.719 214.58H283.067C282.993 214.58 282.92 214.56 282.856 214.523C282.792 214.485 282.74 214.43 282.704 214.365C282.669 214.299 282.652 214.226 282.656 214.151C282.659 214.077 282.683 214.005 282.724 213.944L284.208 211.692C284.246 211.636 284.297 211.59 284.357 211.558C284.417 211.526 284.483 211.509 284.551 211.508H327.502C327.576 211.507 327.648 211.527 327.712 211.564C327.775 211.602 327.827 211.655 327.863 211.72L329.08 213.969C329.115 214.032 329.133 214.102 329.133 214.174C329.132 214.246 329.112 214.316 329.076 214.378C329.039 214.44 328.987 214.491 328.925 214.527C328.862 214.562 328.791 214.58 328.719 214.58Z" fill="#DBDBDB"/>
<path d="M352.479 143.518L258.627 195.82H352.483L352.479 143.518Z" fill="#F6F6F6"/>
<path d="M401.919 172.002C400.05 170.404 397.786 169.339 395.364 168.917C395.364 168.917 388.689 151.212 386.249 145.088C386.141 144.815 385.959 144.578 385.723 144.404C385.488 144.23 385.207 144.126 384.915 144.104C384.623 144.082 384.33 144.143 384.071 144.279C383.812 144.416 383.596 144.622 383.449 144.876C382.289 146.828 381.736 153.633 384.447 161.767C384.447 161.767 384.023 160.968 356.452 160.968C355.856 160.968 351.911 161.237 350.217 161.436C346.753 161.843 346.579 166.068 351.133 166.323C360.195 166.834 368.444 167.037 368.444 167.037C367.093 171.435 367.07 176.134 368.378 180.545C368.45 180.736 367.797 186.029 372.728 187.168C381.079 189.097 397.531 190.858 400.959 185.431C404.387 180.004 404.336 174.421 401.919 172.002Z" fill="#EABBAE"/>
<path d="M396.312 183.972C396.312 183.972 394.313 181.466 385.246 180.631C381.026 180.243 376.324 176.088 367.566 176.088C366.971 176.088 368.452 180.554 368.452 180.554C368.452 180.554 368.056 186.278 372.599 187.137C381.019 188.731 397.546 190.868 400.967 185.441C401.796 184.124 396.312 183.972 396.312 183.972Z" fill="#D1A79C"/>
<path d="M299.942 155.87C299.717 155.48 298.897 155.535 298.106 155.99C297.315 156.446 296.857 157.131 297.082 157.519C297.188 157.703 297.68 157.64 298.099 157.565C298.268 157.534 298.442 157.558 298.595 157.635C298.748 157.711 298.872 157.836 298.947 157.989C299.442 158.865 299.831 159.796 300.107 160.762L301.205 160.126C300.542 159.378 299.944 158.573 299.42 157.72C299.326 157.577 299.28 157.408 299.291 157.237C299.301 157.066 299.367 156.903 299.477 156.773C299.753 156.448 300.048 156.052 299.942 155.87Z" fill="#4369B6"/>
<path d="M293.06 159.483C292.492 159.157 291.49 159.826 290.822 160.982C290.154 162.137 290.076 163.341 290.644 163.67C290.911 163.825 291.492 163.384 291.967 162.981C292.156 162.819 292.393 162.724 292.641 162.708C292.89 162.692 293.136 162.757 293.345 162.894C294.611 163.643 295.785 164.538 296.842 165.561L297.771 163.952C296.38 163.489 295.032 162.905 293.743 162.207C293.519 162.095 293.337 161.914 293.225 161.69C293.113 161.466 293.077 161.211 293.122 160.965C293.236 160.352 293.328 159.629 293.06 159.483Z" fill="#4369B6"/>
<path d="M291.394 167.338C290.739 167.338 290.207 168.419 290.207 169.752C290.207 171.086 290.739 172.169 291.394 172.169C291.706 172.169 291.986 171.501 292.196 170.914C292.279 170.679 292.436 170.478 292.644 170.34C292.851 170.201 293.098 170.134 293.347 170.147C294.818 170.162 296.282 170.351 297.709 170.709V168.849C296.275 169.144 294.817 169.312 293.353 169.352C293.103 169.367 292.855 169.301 292.645 169.163C292.436 169.025 292.278 168.823 292.193 168.587C291.984 168.001 291.697 167.338 291.394 167.338Z" fill="#4369B6"/>
<path d="M290.637 175.84C290.069 176.169 290.15 177.371 290.816 178.528C291.481 179.686 292.486 180.353 293.054 180.025C293.321 179.87 293.23 179.152 293.12 178.541C293.074 178.296 293.109 178.043 293.22 177.82C293.33 177.597 293.51 177.415 293.733 177.303C295.014 176.58 296.377 176.011 297.792 175.607L296.861 173.998C295.766 174.97 294.588 175.843 293.34 176.61C293.132 176.748 292.883 176.815 292.633 176.801C292.383 176.786 292.145 176.69 291.954 176.527C291.485 176.122 290.911 175.685 290.637 175.84Z" fill="#4369B6"/>
<path d="M295.127 183.509C294.799 184.078 295.469 185.078 296.626 185.746C297.784 186.414 298.984 186.494 299.312 185.926C299.467 185.657 299.028 185.078 298.625 184.603C298.463 184.414 298.367 184.177 298.351 183.928C298.335 183.679 298.4 183.432 298.536 183.223C299.285 181.957 300.18 180.783 301.203 179.725L299.594 178.797C299.132 180.188 298.548 181.536 297.849 182.825C297.738 183.049 297.556 183.231 297.332 183.343C297.108 183.455 296.854 183.491 296.607 183.446C295.995 183.331 295.28 183.242 295.127 183.509Z" fill="#4369B6"/>
<path d="M303.601 184.377C303.601 185.032 304.682 185.564 306.017 185.564C307.353 185.564 308.434 185.032 308.434 184.377C308.434 184.065 307.764 183.785 307.177 183.576C306.942 183.492 306.741 183.335 306.602 183.127C306.464 182.92 306.396 182.673 306.409 182.424C306.423 180.957 306.608 179.497 306.961 178.072H305.104C305.396 179.507 305.564 180.965 305.604 182.429C305.619 182.679 305.553 182.927 305.415 183.136C305.277 183.345 305.075 183.504 304.839 183.588C304.264 183.796 303.601 184.067 303.601 184.377Z" fill="#4369B6"/>
<path d="M312.43 185.565C312.759 186.133 313.963 186.054 315.118 185.387C316.273 184.719 316.943 183.718 316.617 183.15C316.46 182.881 315.741 182.972 315.133 183.082C314.888 183.128 314.635 183.093 314.412 182.982C314.189 182.872 314.007 182.692 313.895 182.47C313.172 181.188 312.603 179.825 312.199 178.41L310.59 179.341C311.562 180.436 312.436 181.615 313.204 182.862C313.342 183.071 313.408 183.32 313.393 183.57C313.377 183.821 313.281 184.059 313.119 184.25C312.712 184.725 312.275 185.298 312.43 185.565Z" fill="#4369B6"/>
<path d="M318.62 179.433C319.072 179.693 319.869 179.161 320.399 178.241C320.929 177.321 320.992 176.367 320.541 176.107C320.329 175.984 319.869 176.331 319.481 176.653C319.33 176.782 319.142 176.858 318.944 176.87C318.747 176.883 318.551 176.831 318.385 176.723C317.378 176.129 316.445 175.417 315.606 174.604L314.866 175.875C315.971 176.242 317.041 176.706 318.065 177.262C318.243 177.351 318.387 177.495 318.476 177.673C318.565 177.852 318.594 178.054 318.559 178.25C318.47 178.742 318.408 179.31 318.62 179.433Z" fill="#4369B6"/>
<path d="M322.374 172.169C323.029 172.169 323.562 171.088 323.562 169.752C323.562 168.417 323.029 167.338 322.374 167.338C322.063 167.338 321.783 168.006 321.571 168.593C321.488 168.828 321.331 169.029 321.124 169.167C320.917 169.306 320.671 169.373 320.422 169.36C318.951 169.344 317.487 169.155 316.059 168.799V170.651C317.494 170.359 318.952 170.191 320.416 170.151C320.666 170.136 320.914 170.202 321.123 170.34C321.332 170.478 321.491 170.68 321.575 170.916C321.785 171.499 322.065 172.169 322.374 172.169Z" fill="#4369B6"/>
<path d="M320.454 164.176C321.022 163.847 320.944 162.645 320.276 161.488C319.608 160.33 318.607 159.663 318.039 159.989C317.77 160.146 317.861 160.865 317.971 161.473C318.017 161.718 317.982 161.971 317.871 162.194C317.761 162.417 317.581 162.599 317.359 162.711C316.077 163.434 314.714 164.003 313.299 164.407L314.23 166.016C315.326 165.045 316.504 164.171 317.751 163.404C317.96 163.266 318.209 163.199 318.459 163.214C318.709 163.229 318.948 163.324 319.14 163.487C319.614 163.894 320.187 164.331 320.454 164.176Z" fill="#4369B6"/>
<path d="M316.638 156.045C316.967 155.477 316.297 154.476 315.139 153.809C313.982 153.141 312.782 153.06 312.453 153.629C312.299 153.898 312.737 154.476 313.14 154.951C313.302 155.141 313.397 155.378 313.414 155.627C313.43 155.875 313.365 156.122 313.229 156.331C312.481 157.598 311.585 158.771 310.56 159.827L312.171 160.758C312.634 159.367 313.218 158.019 313.916 156.73C314.028 156.505 314.209 156.323 314.433 156.211C314.657 156.099 314.912 156.063 315.158 156.109C315.771 156.223 316.483 156.312 316.638 156.045Z" fill="#4369B6"/>
<path d="M308.445 153.407C308.445 152.745 307.353 152.209 306.009 152.209C304.665 152.209 303.571 152.745 303.571 153.407C303.571 153.72 304.247 154.002 304.843 154.214C305.08 154.299 305.283 154.457 305.423 154.667C305.562 154.876 305.63 155.125 305.617 155.376C305.601 156.859 305.41 158.335 305.048 159.773H306.922C306.627 158.326 306.458 156.856 306.418 155.38C306.402 155.128 306.469 154.878 306.608 154.667C306.747 154.456 306.951 154.297 307.19 154.212C307.783 154 308.445 153.718 308.445 153.407Z" fill="#4369B6"/>
<path d="M306.015 181.811C312.675 181.811 318.073 176.413 318.073 169.753C318.073 163.094 312.675 157.695 306.015 157.695C299.356 157.695 293.957 163.094 293.957 169.753C293.957 176.413 299.356 181.811 306.015 181.811Z" fill="#4573D2"/>
<path d="M306.263 170.128C312.623 168.139 313.403 160.253 313.852 160.609C315.078 161.62 316.089 162.865 316.827 164.271C317.565 165.677 318.015 167.217 318.151 168.799C318.286 170.381 318.105 171.975 317.617 173.486C317.129 174.997 316.344 176.396 315.309 177.6C314.289 178.812 313.04 179.81 311.634 180.539C310.228 181.268 308.693 181.712 307.115 181.848C305.537 181.983 303.948 181.806 302.439 181.327C300.929 180.848 299.529 180.077 298.318 179.057C298.318 179.057 297.09 173 306.263 170.128Z" fill="#4369B6"/>
</g>
<defs>
<clipPath id="clip0_9_51198">
<rect width="600" height="290.247" fill="white"/>
</clipPath>
</defs>
</svg>
