<svg width="254" height="251" viewBox="0 0 254 251" fill="none" xmlns="http://www.w3.org/2000/svg">
<g clip-path="url(#clip0_69_8153)">
<mask id="mask0_69_8153" style="mask-type:alpha" maskUnits="userSpaceOnUse" x="0" y="-1" width="254" height="252">
<path d="M109.963 244.936C137.567 253.218 185.906 252.382 204.799 237.589C219.007 226.464 197.268 190.807 205.767 174.907C217.279 153.374 256.315 150.007 253.891 123.885C249.102 72.214 231.005 26.4921 185.115 10.0867C167.89 3.9295 132.719 -22.3423 149.03 46.1308C160.062 92.4422 117.511 57.2994 98.6976 97.5256C89.3049 117.61 -12.7553 62.345 1.333 147.257C13.3912 219.934 41.529 224.402 109.963 244.936Z" fill="#F6F6F6"/>
</mask>
<g mask="url(#mask0_69_8153)">
<path d="M486.232 -159.064H-273.829V244.935H486.232V-159.064Z" fill="#BEBEBE" fill-opacity="0.14"/>
<path d="M492.646 182.072H-270.621V302.592H492.646V182.072Z" fill="#CED3DF"/>
<path d="M-349.434 243.729C-349.434 243.729 -16.3836 238.622 109.331 234.869C115.213 234.693 117.666 232.227 117.666 232.227C138.178 231.668 157.077 231.896 161.327 231.514C190.546 228.887 165.786 225.105 136.97 225.105C108.154 225.105 -398.249 219.932 -398.249 219.932L-349.434 243.729Z" fill="#8A90A7"/>
</g>
<path d="M121.955 89.3697L112.292 58.1758L109.317 63.4594L118.004 95.2149L121.955 89.3697Z" fill="#4573D2"/>
<path d="M187.001 203.191C188.452 202.994 189.367 203.438 189.769 203.996C190.131 204.5 190.17 205.229 189.629 205.982L189.514 206.133C189.526 206.117 189.519 206.128 189.456 206.185C189.403 206.231 189.329 206.295 189.233 206.375C189.043 206.535 188.775 206.753 188.438 207.021C187.767 207.559 186.829 208.292 185.706 209.156C183.46 210.884 180.476 213.127 177.398 215.344C174.319 217.561 171.152 219.748 168.536 221.366C167.228 222.176 166.067 222.837 165.129 223.288C164.66 223.514 164.256 223.683 163.923 223.791C163.704 223.862 163.532 223.899 163.403 223.916C163.267 223.747 163.169 223.551 163.117 223.339C163.049 223.061 163.062 222.769 163.155 222.499L163.219 222.316L163.143 222.139L161.316 217.878L169.736 207.647L180.513 205.692L180.592 205.678L180.662 205.641V205.64L180.672 205.635C180.679 205.631 180.69 205.625 180.704 205.617C180.733 205.602 180.776 205.579 180.832 205.55C180.944 205.491 181.108 205.406 181.312 205.304C181.721 205.098 182.292 204.821 182.939 204.533C184.25 203.951 185.82 203.351 187 203.191H187.001Z" fill="#2D2B34" stroke="#2D2B34"/>
<path d="M108.894 227.367L109.031 227.512L109.231 227.521C109.232 227.521 109.234 227.52 109.235 227.521C109.238 227.521 109.242 227.521 109.247 227.521C109.258 227.522 109.275 227.523 109.298 227.524C109.343 227.527 109.409 227.53 109.494 227.536C109.664 227.547 109.909 227.566 110.205 227.594C110.798 227.649 111.593 227.741 112.404 227.889C113.221 228.038 114.033 228.239 114.671 228.506C115.343 228.787 115.679 229.081 115.769 229.328C115.94 229.797 116.133 230.32 116.224 230.861C116.314 231.399 116.295 231.909 116.081 232.36C115.666 233.238 114.346 234.193 110.508 234.359C106.635 234.527 101.129 234.819 96.2549 234.424C93.8179 234.226 91.5678 233.858 89.7734 233.231C88.0582 232.632 86.8354 231.821 86.2158 230.771L88.9258 221.375L101.051 219.175L108.894 227.367Z" fill="#2D2B34" stroke="#2D2B34"/>
<path d="M113.619 144.796C113.619 144.796 130.979 164.719 135.187 173.935C139.395 183.152 161.226 219.931 161.226 219.931C161.226 219.931 170.693 212.314 170.956 207.323L169.197 206.01V203.383C169.197 203.383 149.294 162.664 144.607 154.782C139.919 146.901 130.359 126.147 130.359 126.147C130.359 126.147 123.482 112.008 116.051 117.107C108.62 122.206 106.518 131.923 113.619 144.796Z" fill="#444C61"/>
<path d="M126.623 120.564C127.491 122.455 130.202 128.192 131.751 129.435C131.893 129.546 132.068 129.605 132.248 129.603C132.37 129.603 132.491 129.575 132.6 129.522C132.71 129.469 132.807 129.392 132.882 129.297C132.958 129.201 133.011 129.09 133.038 128.971C133.065 128.853 133.065 128.729 133.037 128.611L130.634 118.28C130.604 118.151 130.543 118.031 130.455 117.931C130.367 117.831 130.256 117.754 130.132 117.707C130.007 117.66 129.873 117.644 129.741 117.661C129.609 117.678 129.483 117.727 129.375 117.805L126.891 119.571C126.738 119.68 126.627 119.838 126.578 120.019C126.529 120.201 126.545 120.393 126.623 120.564Z" fill="#4573D2"/>
<path d="M110.825 61.7304C110.936 61.0632 114.119 53.7493 115.121 53.3044C115.121 53.3044 119.795 54.3025 120.463 52.7486C121.131 51.1948 121.219 44.0148 121.219 44.0148C121.219 44.0148 123.439 44.31 123.638 43.3098C123.69 43.0582 120.462 38.2243 120.462 38.2243C120.634 36.4346 120.686 34.6355 120.62 32.8388C119.822 23.6984 112.282 21.323 101.164 24.2526C101.164 24.2526 94.9584 27.0457 95.0941 32.2232C95.0941 32.2232 93.8497 42.7462 100.143 45.7804C100.143 45.7804 99.4504 50.5938 98.9045 51.4112L110.825 61.7304Z" fill="#D5A882"/>
<path d="M93.8919 136.656L95.0295 138.753L96.5221 173.168L87.0552 224.659C88.4857 225.374 90.0835 225.687 91.6784 225.566C93.2732 225.444 94.8051 224.893 96.1108 223.97L102.209 219.663L123.899 134.363C123.899 134.363 122.037 121.843 113.883 121.103C105.73 120.363 95.4702 120.109 93.8919 136.656Z" fill="#444C61"/>
<path d="M95.0295 138.754L96.5221 173.169L87.0552 224.659C92.434 226.881 96.1108 223.971 96.1108 223.971C93.1592 179.955 96.2039 192.837 101.228 176.492C103.574 168.855 100.27 167.776 99.4716 161.272C99.5888 151.405 107.343 143.025 101.228 139.148C99.283 137.979 97.7605 136.222 96.8798 134.133C95.9991 132.043 95.8057 129.728 96.3275 127.521C88.1723 126.782 95.0295 138.754 95.0295 138.754Z" fill="#30384D"/>
<path d="M111.706 60.7973C111.706 60.7973 106.92 51.6889 99.5686 49.1055L93.9936 54.0245C93.9936 54.0245 82.9331 61.8453 84.5998 79.8345C85.0284 84.4651 85.9799 94.6483 85.9799 94.6483C85.9799 94.6483 87.7491 110.554 87.0685 115.451C86.388 120.347 88.9746 134.481 92.6498 136.657C92.6498 136.657 95.3721 129.044 103.266 130.54C109.485 131.717 116.548 135.005 121.661 134.154C122.683 133.984 123.612 133.46 124.286 132.675C124.96 131.889 125.336 130.892 125.347 129.857L125.453 121.023L113.453 68.419C113.453 68.419 111.92 60.728 111.706 60.7973Z" fill="#4573D2"/>
<path d="M114.159 29.2465C114.159 29.2465 108.458 26.298 109.65 30.7006C109.65 30.7006 109.628 35.9075 107.986 37.6741C106.344 39.4407 105.014 36.5184 102.702 35.7472C101.529 35.3559 99.3117 37.8453 103.012 41.626C103.348 41.9727 103.603 42.3903 103.756 42.848C103.909 43.3057 103.958 43.792 103.898 44.2709C103.705 45.8416 102.809 48.0006 99.5684 49.1038C99.5684 49.1038 98.6995 45.5511 97.6892 44.6681C96.6789 43.785 91.9675 34.4644 94.9948 27.2325C97.9133 20.2611 103.416 19.7279 109.858 20.2327C116.301 20.7376 121.069 23.8395 120.909 31.706C120.909 31.7071 121.741 35.3144 114.159 29.2465Z" fill="#444C61"/>
<path d="M107.252 46.0282C107.983 48.3821 112.459 54.4831 117.842 53.9961C118.84 53.9433 119.818 53.6918 120.718 53.2565C120.718 53.2565 122.758 51.8644 121.107 49.8824C121.107 49.8824 120.759 49.5179 119.5 49.5767C118.241 49.6355 117.244 48.5261 117.186 48.027C117.098 47.2511 117.989 46.065 119.41 46.0387C119.88 46.0298 121.725 46.2725 122.104 45.951C122.483 45.6295 122.213 44.1902 121.449 44.0363C121.449 44.0363 119.825 44.7029 118.829 44.6062C118.63 44.5864 118.43 44.6229 118.252 44.7113C118.073 44.7998 117.923 44.9366 117.819 45.1063C117.22 46.0943 116.339 46.881 115.289 47.3651C113.166 48.3075 111.375 47.8836 110.308 45.3616C109.241 42.8396 109.037 41.1418 109.168 34.9825C107.905 33.0914 106.041 36.8006 106.041 36.8006C106.041 36.8006 106.521 43.6738 107.252 46.0282Z" fill="#444C61"/>
<path d="M103.386 46.0187C103.386 46.0187 97.0746 42.9981 97.974 39.5369C98.8733 36.0756 96.8332 35.3344 96.7049 29.2539C96.5744 23.0673 99.6564 21.5996 99.6564 21.5996C99.6564 21.5996 98.1759 21.9421 95.6435 25.8709C92.794 30.2909 93.7807 39.2915 97.1241 43.7273C100.467 48.163 99.5686 49.1043 99.5686 49.1043C99.5686 49.1043 103.129 48.1987 103.386 46.0187Z" fill="#30384D"/>
<path d="M103.386 46.0195C103.386 46.0195 106.608 53.8566 106.042 53.3429C102.294 49.9425 99.5684 49.1052 99.5684 49.1052C99.5684 49.1052 103.722 47.2277 103.386 46.0195Z" fill="#BA8B67"/>
<path d="M121.745 103.984C120.14 102.738 122.277 103.143 119.693 102.434C116.195 101.472 116.019 99.7025 114.157 95.8615C112.978 93.4282 107.463 92.8814 107.463 83.6112C107.463 75.8534 106.04 73.7354 102.834 66.7871V100.1L121.745 103.984Z" fill="#4369B6"/>
<path d="M116.053 89.3697L120.019 121.104L164.968 118.684L173.165 112.346L169.199 82.7676L160.738 87.4954L116.053 89.3697Z" fill="#D5A882"/>
<path d="M169.199 82.7676L124.735 84.6025L116.053 89.3702L160.738 87.4959L169.199 82.7681" fill="#B5896B"/>
<path d="M96.2255 131.971C96.2255 131.971 94.8233 117.654 91.8875 113.415C88.9733 109.207 84.6001 83.9512 84.6001 83.9512C84.6001 83.9512 86.1926 94.3823 86.1253 98.2843C86.0044 105.317 86.7328 118.489 87.4523 123.016C89.4677 135.695 92.6491 136.657 92.6491 136.657C93.4347 134.823 94.6635 133.213 96.2255 131.971Z" fill="#4369B6"/>
<path d="M125.452 147.168C126.736 155.327 127.795 159.97 136.703 167.963C145.611 175.955 144.802 180.252 147.562 190.492C150.738 202.271 164.401 212.821 168.862 212.072C169.627 211.944 162.463 219.415 161.225 219.931C159.987 220.446 135.932 174.396 133.059 170.049C130.185 165.701 119.474 151.758 119.474 151.758L123.897 134.363C123.897 134.363 124.169 139.01 125.452 147.168Z" fill="#30384D"/>
<path d="M160.738 87.4941L164.968 118.683L120.02 121.102L116.054 89.3684L160.738 87.4941Z" fill="#A7795A"/>
<path d="M129.066 105.727H138.121L141.377 106.318C142.109 106.45 142.786 106.796 143.322 107.31C144.41 108.353 146.198 110.088 146.308 110.329C146.385 110.499 146.088 111.721 141.472 109.586C139.496 108.673 139.426 109.772 139.426 109.772C139.426 109.772 145.564 118.597 146.958 118.968C148.353 119.338 147.145 120.733 145.377 120.547C145.377 120.547 139.054 121.788 136.822 120.564C134.59 119.339 128.188 113.023 128.188 113.023L125.848 112.652L126.871 105.727H129.066Z" fill="#D5A882"/>
<path d="M104.405 78.5129C103.68 83.08 103.375 89.6852 103.251 93.7138C103.219 94.7312 103.521 95.7312 104.112 96.5609C104.702 97.3907 105.548 98.0047 106.52 98.3093L128.183 105.092C129.843 110.388 126.758 114.822 126.758 114.822C126.758 114.822 109.642 113.632 101.573 111.974C96.2882 110.888 91.356 109.363 89.9307 104.143C88.5054 98.9223 86.8161 77.5469 87.0538 75.6484C87.2915 73.75 89.0934 60.0672 94.9955 60.0677C99.2919 60.0682 107.465 59.2314 104.405 78.5129Z" fill="#4573D2"/>
<path d="M92.603 79.1611C95.0749 89.8669 92.6477 96.9812 93.9941 100.781C96.4565 107.731 96.2256 103.985 103.573 105.727C106.237 107.451 109.211 108.645 112.329 109.24C116.13 109.983 127.836 107.356 128.479 110.396C128.674 111.319 126.758 114.819 126.758 114.819C126.758 114.819 109.642 113.629 101.573 111.971C96.2882 110.886 91.356 109.361 89.9307 104.14C88.5054 98.9196 86.8161 77.5442 87.0538 75.6457C87.2915 73.7473 88.6574 60.3713 94.9955 60.065C95.6503 60.0356 88.4244 61.0552 92.603 79.1611Z" fill="#4369B6"/>
<path d="M129.502 110.562C129.502 110.562 134.96 112.912 135.164 114.821C135.696 119.805 143.982 120.142 145.373 120.547C145.373 120.547 140.022 121.73 137.438 120.814C134.854 119.898 128.181 113.024 128.181 113.024L127.698 112.943C128.026 112.235 128.293 111.5 128.495 110.747C128.479 110.398 129.502 110.562 129.502 110.562Z" fill="#BA8B67"/>
<path d="M132.251 77.822C132.251 77.822 127.097 79.8833 125.222 88.8483L138.957 88.4086C138.957 88.4086 141.407 79.1463 146.3 77.5488L132.251 77.822Z" fill="#DBDBDB"/>
<path d="M159.116 74.0039C159.116 74.0039 156.401 75.0903 154.195 79.1141C153.362 80.6339 151.289 85.4551 150.777 87.9131L160.74 87.4928L165.823 84.5889C165.823 84.5889 168.09 78.9282 171.384 76.4377L159.116 74.0039Z" fill="#DBDBDB"/>
<path d="M109.963 77.8117C109.963 77.8117 115.722 82.4917 116.415 89.1904L130.234 88.6536C130.234 88.6536 129.639 80.173 124.638 76.8672L109.963 77.8117Z" fill="white"/>
<path d="M139.343 74.8834L138.294 88.5094L152.453 87.9126L153.538 74.4531L139.343 74.8834Z" fill="white"/>
</g>
<defs>
<clipPath id="clip0_69_8153">
<rect width="254" height="250.19" fill="white"/>
</clipPath>
</defs>
</svg>
