<svg width="600" height="324" viewBox="0 0 600 324" fill="none" xmlns="http://www.w3.org/2000/svg">
<g clip-path="url(#clip0_9_51008)">
<mask id="mask0_9_51008" style="mask-type:alpha" maskUnits="userSpaceOnUse" x="0" y="2" width="600" height="322">
<path d="M599.726 221.89C603.179 171.43 573.676 124.798 527.649 108.036C502.862 99.0089 473.281 98.6472 441.476 111.024C363.606 141.325 439.387 -13.8034 240.808 3.98867C186.307 8.87147 166.153 51.6221 143.697 52.7613C50.966 57.4674 0.0772871 85.8351 0.0772871 157.176C-2.35558 246.022 51.036 337.634 395.3 321.643C500.559 316.754 589.676 323.217 599.726 221.89Z" fill="#F6F6F6"/>
</mask>
<g mask="url(#mask0_9_51008)">
<path d="M599.726 221.89C603.178 171.43 573.676 124.798 527.649 108.036C502.861 99.0089 473.28 98.6472 441.476 111.024C363.606 141.325 439.386 -13.8034 240.808 3.98867C186.307 8.87147 166.153 51.6221 143.697 52.7613C50.9657 57.4674 0.0770277 85.8351 0.0770277 157.176C-2.35584 246.022 51.0357 337.634 395.3 321.643C500.559 316.754 589.676 323.217 599.726 221.89Z" fill="#BEBEBE" fill-opacity="0.14"/>
<path d="M210.672 95.75H203.955V362.537H210.672V95.75Z" fill="#B0B5C0"/>
<path d="M606.622 199.898H-51.412V206.619H606.622V199.898Z" fill="#8A90A7"/>
<mask id="mask1_9_51008" style="mask-type:alpha" maskUnits="userSpaceOnUse" x="55" y="199" width="488" height="8">
<path d="M542.087 199.898H55.041V206.619H542.087V199.898Z" fill="#CED3DF"/>
</mask>
<g mask="url(#mask1_9_51008)">
<path d="M542.087 199.898H55.041V206.619H542.087V199.898Z" fill="#CED3DF"/>
<path d="M621.555 214.78L603.569 194.559H364.116L371.922 214.78H621.555Z" fill="#8A90A7"/>
</g>
<path d="M75.652 95.75H68.9352V358.252H75.652V95.75Z" fill="#B0B5C0"/>
<path d="M417.982 95.75H411.265V335.629H417.982V95.75Z" fill="#B0B5C0"/>
<path d="M558.396 95.75H551.679V335.629H558.396V95.75Z" fill="#B0B5C0"/>
<path d="M606.622 90.1484H-51.412V97.991H606.622V90.1484Z" fill="#8A90A7"/>
<mask id="mask2_9_51008" style="mask-type:alpha" maskUnits="userSpaceOnUse" x="55" y="90" width="488" height="8">
<path d="M542.087 90.1484H55.041V97.991H542.087V90.1484Z" fill="#CED3DF"/>
</mask>
<g mask="url(#mask2_9_51008)">
<path d="M542.087 90.1484H55.041V97.991H542.087V90.1484Z" fill="#CED3DF"/>
<path d="M530.343 106.229L528.683 83.6094H279.31L273.859 106.224L530.343 106.229Z" fill="#8A90A7"/>
</g>
<path d="M606.622 301.879H-51.412V308.599H606.622V301.879Z" fill="#8A90A7"/>
<mask id="mask3_9_51008" style="mask-type:alpha" maskUnits="userSpaceOnUse" x="55" y="301" width="488" height="8">
<path d="M542.087 301.879H55.041V308.599H542.087V301.879Z" fill="#CED3DF"/>
</mask>
<g mask="url(#mask3_9_51008)">
<path d="M542.087 301.879H55.041V308.599H542.087V301.879Z" fill="#CED3DF"/>
<path d="M614.088 316.761L596.107 296.539H364.116L371.922 316.761H614.088Z" fill="#8A90A7"/>
</g>
<path d="M491.418 220.615H465.619V301.668H491.418V220.615Z" fill="#CED3DF"/>
<path d="M491.416 220.615H474.589V301.668H491.416V220.615Z" fill="#8A90A7"/>
<path d="M516.942 220.615H491.142V301.668H516.942V220.615Z" fill="#CED3DF"/>
<path d="M516.94 220.615H500.112V301.668H516.94V220.615Z" fill="#8A90A7"/>
<path d="M542.677 220.615H516.877V301.668H542.677V220.615Z" fill="#CED3DF"/>
<path d="M542.674 220.615H525.847V301.668H542.674V220.615Z" fill="#8A90A7"/>
</g>
<path d="M300.965 120.431C300.965 120.431 300.663 121.144 299.189 121.144C298.162 121.144 247.305 146.658 247.678 149.515L262.944 237.465L267.89 322.537C267.89 322.537 303.893 323.701 328.114 323.478C377.03 323.017 391.357 321.701 391.357 321.701L399.261 143.725C399.261 143.725 339.126 115.611 337.647 116.602C336.168 117.593 300.965 120.431 300.965 120.431Z" fill="#4573D2"/>
<path d="M391.354 321.777C366.127 323.179 349.23 323.353 325.817 323.431C325.817 323.431 325.491 310.422 350.082 287.202C358.474 279.277 353.615 262.859 356.988 248.654C369.879 194.359 397.015 201.728 397.052 203.166L392.482 282.535L391.354 321.777Z" fill="#4369B6"/>
<path d="M384.523 148.501C383.462 149.21 379.998 174.785 385.001 201.636C386.964 212.177 399.426 235.282 402.012 242.18C403.683 246.625 393.214 239.688 388.266 241.834C375.576 247.335 366.111 278.308 382.841 283.736C406.159 291.298 439.714 292.048 438.436 261.997C437.474 239.385 426.928 202.54 420.156 183.787C413.253 164.661 408.619 141.424 390.375 141.424C386.927 141.426 384.523 148.501 384.523 148.501Z" fill="#4573D2"/>
<path d="M254.195 145.993C252.8 145.296 243.495 149.14 238.072 165.414C232.65 181.689 209.224 253.204 219.395 276.737C226.671 293.571 267.932 284.464 279.113 281.882C286.865 280.091 279.987 259.427 271.655 248.511C271.54 248.36 257.618 245.397 257.449 245.062C257.449 245.062 264.843 227.043 265.398 222.234C266.877 209.413 273.012 178.871 272.084 167.883C270.245 146.135 256.167 146.98 254.195 145.993Z" fill="#4573D2"/>
<path d="M298.353 121.992C298.353 121.992 307.899 144.214 322.089 144.317C341.561 144.461 345.124 119.541 345.124 119.541L345.042 84.7383L296.869 88.0126L298.353 121.992Z" fill="#D1A79C"/>
<path d="M333.664 119.575C334.427 124.052 325.278 132.034 321.14 137.574C318.519 141.084 321.927 144.347 323.11 144.347C327.255 144.231 331.248 142.761 334.48 140.16C343.188 133.595 344.876 120.241 344.876 120.241L344.799 87.3516L299.278 90.4462C299.278 90.4462 332.415 112.259 333.664 119.575Z" fill="#393939" fill-opacity="0.18"/>
<path d="M289.683 66.9579C288.283 66.2349 286.687 65.9855 285.134 66.2472C282.853 66.775 280.538 73.3624 283.149 80.325C285.761 87.2875 288.976 89.8523 291.11 88.6504C292.024 93.8601 293.801 98.8806 296.367 103.505C299.068 112.606 312.552 125.023 320.672 124.692C329.413 124.337 336.362 117.609 340.855 109.192C345.348 100.776 347.385 90.6737 347.819 88.7152C347.819 88.7152 351.717 89.2012 354.785 84.449C359.191 77.6233 358.208 60.2796 350.378 67.2422C350.378 67.2422 347.656 39.0386 345.916 38.168C344.176 37.2974 307.634 26.8535 307.634 26.8535L293.281 43.8263L289.683 66.9579Z" fill="#EABBAE"/>
<path d="M353.075 65.6774C353.075 64.3721 362.876 30.3346 348.521 24.6774C334.166 19.0202 338.953 12.0565 321.988 14.2325C305.024 16.4084 286.857 18.1652 285.987 33.3968C285.117 48.6284 288.545 66.5271 288.545 66.5271L293.378 73.3528C293.378 73.3528 296.363 67.3799 294.373 57.1409C292.702 48.5218 298.187 38.288 301.544 40.3395C309.724 45.3384 325.779 46.3333 336.16 40.6458C340.809 38.0967 345.257 49.4624 344.071 58.1766C343.027 65.8708 346.11 73.3528 346.11 73.3528L353.075 65.6774Z" fill="#444C61"/>
<path d="M352.99 65.3629C352.99 64.068 362.714 30.296 348.473 24.6827C345.257 23.4805 342.271 21.7365 339.644 19.5261C335.129 15.7229 327.563 12.7391 326.699 27.8515C325.836 42.9639 298.531 38.1919 301.863 40.2278C309.977 45.1869 325.913 46.1745 336.208 40.5309C340.82 38.0017 345.234 49.2785 344.056 57.9248C343.017 65.5594 346.08 72.9818 346.08 72.9818L352.99 65.3629Z" fill="#30384D"/>
<path d="M262.217 232.99L261.665 213.393C261.665 213.393 259.034 223.431 252.569 231.055C248.41 235.967 246.693 239.584 246.275 243.652C246.032 246 246.314 248.34 248.579 247.672L257.45 245.06L262.217 232.99Z" fill="#4369B6"/>
<path d="M271.127 274.587C271.127 274.587 264.097 279.487 256.326 278.376C248.555 277.265 249.052 268.779 236.82 272.03C222.007 275.967 218.266 263.147 216.838 256.799C216.838 256.799 213.191 277.424 226.512 283.771C239.833 290.118 278.687 284.881 277.741 284.626C266.524 281.59 271.127 274.587 271.127 274.587Z" fill="#4369B6"/>
<path d="M387.696 273.22C387.696 273.22 402.915 280.401 409.233 278.294C415.551 276.187 416.867 269.866 424.238 272.763C431.609 275.66 438.436 261.998 438.436 261.998C438.436 261.998 439.617 276.905 428.982 283.207C418.088 289.661 394.874 290.032 380.858 283.497C364.774 276.001 373.609 259.718 387.696 273.22Z" fill="#4369B6"/>
<path d="M396.697 283.99C396.049 283.98 392.046 281.205 384.169 275.806C378.031 271.599 366.504 271.465 372.506 260.975C373.73 258.835 397.086 237.669 412.577 257.448C410.124 263.729 406.812 269.641 402.736 275.012C400.376 277.953 401.596 284.064 396.697 283.99Z" fill="#D1A79C"/>
<path d="M145.249 296.06L163.985 231.234L204.262 242.885L145.249 296.059V296.06ZM186.077 246.927L170.442 242.403L162.98 268.217L186.077 246.927Z" fill="#E2E5EC"/>
<path d="M148.692 284.147L148.895 283.445L151.347 284.155C151.393 284.168 151.436 284.19 151.473 284.22C151.511 284.25 151.542 284.287 151.565 284.329C151.588 284.371 151.602 284.417 151.608 284.465C151.613 284.512 151.609 284.56 151.595 284.606C151.582 284.652 151.56 284.695 151.53 284.733C151.5 284.77 151.463 284.801 151.421 284.825C151.379 284.848 151.333 284.862 151.286 284.868C151.238 284.873 151.19 284.869 151.144 284.855L148.692 284.147Z" fill="white"/>
<path fill-rule="evenodd" clip-rule="evenodd" d="M149.129 283.508C149.068 283.49 149.001 283.497 148.945 283.527C148.888 283.558 148.846 283.61 148.828 283.671L148.76 283.907C148.76 283.907 148.76 283.907 148.76 283.907C148.751 283.938 148.748 283.97 148.752 284.002C148.755 284.034 148.765 284.065 148.781 284.093C148.796 284.121 148.817 284.145 148.842 284.165C148.867 284.185 148.896 284.2 148.926 284.208C148.926 284.208 148.927 284.208 148.926 284.208M151.346 284.149C151.346 284.149 151.346 284.149 151.346 284.149V284.149ZM149.129 283.508C149.129 283.508 149.129 283.508 149.129 283.508V283.508ZM149.11 284.009C149.11 284.009 149.11 284.009 149.11 284.009V284.009Z" fill="#8A90A7"/>
<path d="M149.402 281.693L149.603 280.992L152.055 281.702C152.101 281.715 152.144 281.737 152.181 281.767C152.219 281.797 152.25 281.834 152.273 281.876C152.296 281.918 152.311 281.964 152.317 282.011C152.322 282.059 152.318 282.107 152.305 282.153C152.278 282.246 152.215 282.324 152.13 282.371C152.046 282.418 151.946 282.429 151.853 282.402L149.402 281.693Z" fill="white"/>
<path fill-rule="evenodd" clip-rule="evenodd" d="M149.819 281.562C149.819 281.562 149.819 281.562 149.819 281.562V281.562ZM149.839 281.061C149.809 281.052 149.778 281.049 149.746 281.052C149.714 281.055 149.683 281.065 149.654 281.08C149.626 281.095 149.601 281.116 149.58 281.142C149.56 281.167 149.545 281.196 149.537 281.226L149.469 281.46C149.469 281.46 149.469 281.46 149.469 281.46C149.46 281.491 149.457 281.523 149.461 281.555C149.464 281.587 149.474 281.618 149.49 281.646C149.506 281.674 149.527 281.698 149.552 281.718C149.577 281.738 149.605 281.753 149.636 281.761C149.635 281.761 149.636 281.761 149.636 281.761M151.853 282.403C151.899 282.416 151.947 282.42 151.994 282.415C152.042 282.41 152.088 282.395 152.13 282.372C152.172 282.349 152.209 282.318 152.239 282.28C152.269 282.243 152.291 282.2 152.304 282.154L152.129 282.103L152.304 282.155C152.318 282.109 152.322 282.061 152.317 282.013C152.312 281.965 152.297 281.919 152.274 281.876C152.251 281.834 152.219 281.797 152.182 281.767C152.144 281.737 152.101 281.715 152.055 281.702L149.839 281.061" fill="#8A90A7"/>
<path d="M150.109 279.24L150.312 278.539L154.515 279.756C154.608 279.782 154.686 279.845 154.733 279.93C154.779 280.015 154.79 280.114 154.764 280.207C154.737 280.3 154.674 280.378 154.589 280.425C154.505 280.471 154.405 280.483 154.312 280.456L150.109 279.24Z" fill="white"/>
<path fill-rule="evenodd" clip-rule="evenodd" d="M150.546 278.607C150.485 278.589 150.419 278.597 150.363 278.627C150.306 278.658 150.264 278.709 150.246 278.771L150.171 279.032V279.041C150.164 279.092 150.173 279.145 150.198 279.191C150.228 279.248 150.28 279.29 150.342 279.308L154.313 280.458C154.406 280.485 154.506 280.474 154.591 280.427C154.675 280.38 154.738 280.301 154.764 280.209C154.778 280.163 154.782 280.115 154.777 280.067C154.771 280.019 154.757 279.973 154.734 279.931C154.71 279.889 154.679 279.852 154.642 279.822C154.604 279.792 154.561 279.77 154.515 279.757M150.546 278.607C150.546 278.607 150.547 278.607 150.546 278.607V278.607Z" fill="#8A90A7"/>
<path d="M150.819 276.787L151.022 276.086L153.474 276.796C153.52 276.809 153.563 276.831 153.6 276.861C153.637 276.891 153.668 276.928 153.692 276.97C153.715 277.012 153.729 277.058 153.735 277.105C153.74 277.153 153.736 277.201 153.722 277.247C153.695 277.34 153.633 277.418 153.548 277.465C153.463 277.512 153.364 277.523 153.271 277.497L150.819 276.787Z" fill="white"/>
<path fill-rule="evenodd" clip-rule="evenodd" d="M153.372 277.146L153.547 277.197L153.374 277.145L153.372 277.145L153.372 277.146ZM153.27 277.496C153.27 277.496 153.27 277.496 153.27 277.496L151.053 276.855C151.053 276.855 151.053 276.855 151.053 276.855M151.256 276.154C151.194 276.136 151.128 276.143 151.072 276.174C151.015 276.205 150.973 276.256 150.955 276.318L150.886 276.553C150.886 276.553 150.886 276.553 150.886 276.553M151.237 276.655C151.237 276.655 151.237 276.655 151.237 276.655V276.655Z" fill="#8A90A7"/>
<path d="M151.528 274.334L151.73 273.633L154.182 274.342C154.228 274.356 154.271 274.378 154.308 274.408C154.346 274.438 154.377 274.474 154.4 274.516C154.423 274.558 154.438 274.604 154.443 274.652C154.449 274.7 154.445 274.748 154.431 274.794C154.404 274.887 154.342 274.965 154.257 275.012C154.173 275.059 154.073 275.07 153.98 275.044L151.528 274.334Z" fill="white"/>
<path fill-rule="evenodd" clip-rule="evenodd" d="M154.081 274.693L154.256 274.744L154.083 274.692L154.081 274.692L154.081 274.693ZM153.979 275.043C153.979 275.043 153.979 275.043 153.979 275.043L151.762 274.402C151.762 274.402 151.763 274.402 151.762 274.402M151.965 273.701C151.903 273.683 151.837 273.69 151.781 273.721C151.725 273.751 151.683 273.803 151.664 273.865L151.596 274.1C151.596 274.1 151.596 274.1 151.596 274.1M151.946 274.202C151.946 274.202 151.946 274.202 151.946 274.202V274.202Z" fill="#8A90A7"/>
<path d="M152.237 271.881L152.439 271.18L156.643 272.396C156.736 272.423 156.814 272.486 156.861 272.57C156.907 272.655 156.918 272.755 156.891 272.848C156.865 272.941 156.802 273.019 156.717 273.065C156.633 273.112 156.533 273.123 156.44 273.096L152.237 271.881Z" fill="white"/>
<path fill-rule="evenodd" clip-rule="evenodd" d="M152.688 271.633L156.54 272.748L156.716 272.798L156.541 272.747L152.688 271.633ZM156.642 272.397L152.674 271.248C152.674 271.248 152.674 271.248 152.674 271.248" fill="#8A90A7"/>
<path d="M152.946 269.43L153.149 268.729L155.6 269.438C155.693 269.465 155.771 269.528 155.818 269.612C155.865 269.697 155.876 269.797 155.849 269.89C155.822 269.982 155.759 270.061 155.675 270.108C155.59 270.155 155.491 270.166 155.398 270.139L152.946 269.43Z" fill="#8A90A7"/>
<path d="M153.661 266.975L153.862 266.273L156.314 266.983C156.36 266.996 156.403 267.018 156.44 267.048C156.478 267.078 156.509 267.115 156.532 267.157C156.555 267.199 156.57 267.245 156.575 267.293C156.581 267.34 156.577 267.389 156.563 267.435C156.537 267.527 156.474 267.606 156.389 267.653C156.305 267.699 156.205 267.711 156.112 267.684L153.661 266.975Z" fill="#8A90A7"/>
<path d="M154.364 264.518L154.566 263.816L158.77 265.033C158.862 265.06 158.941 265.123 158.987 265.207C159.034 265.292 159.045 265.392 159.018 265.484C158.991 265.577 158.929 265.656 158.844 265.702C158.759 265.749 158.66 265.76 158.567 265.733L154.364 264.518Z" fill="#8A90A7"/>
<path d="M155.073 262.07L155.275 261.369L157.727 262.079C157.82 262.106 157.898 262.168 157.945 262.253C157.991 262.338 158.003 262.437 157.976 262.53C157.949 262.623 157.886 262.702 157.802 262.748C157.717 262.795 157.617 262.807 157.524 262.78L155.073 262.07Z" fill="#8A90A7"/>
<path d="M155.782 259.617L155.984 258.916L158.435 259.626C158.481 259.639 158.524 259.661 158.562 259.691C158.599 259.721 158.631 259.758 158.654 259.8C158.677 259.842 158.692 259.888 158.697 259.935C158.702 259.983 158.698 260.031 158.685 260.077C158.658 260.17 158.595 260.248 158.511 260.295C158.426 260.342 158.327 260.353 158.234 260.327L155.782 259.617Z" fill="#8A90A7"/>
<path d="M156.49 257.164L156.693 256.463L160.896 257.679C160.989 257.706 161.068 257.769 161.114 257.854C161.161 257.938 161.172 258.038 161.145 258.131C161.118 258.224 161.055 258.302 160.971 258.349C160.886 258.395 160.787 258.406 160.694 258.38L156.49 257.164Z" fill="#8A90A7"/>
<path d="M157.2 254.711L157.402 254.01L159.854 254.719C159.947 254.746 160.025 254.809 160.072 254.894C160.118 254.978 160.129 255.078 160.103 255.171C160.076 255.264 160.013 255.342 159.928 255.389C159.844 255.436 159.744 255.447 159.651 255.421L157.2 254.711Z" fill="#8A90A7"/>
<path d="M157.909 252.258L158.111 251.557L160.562 252.266C160.608 252.28 160.651 252.302 160.689 252.332C160.726 252.361 160.757 252.398 160.781 252.44C160.804 252.482 160.818 252.528 160.824 252.576C160.829 252.624 160.825 252.672 160.812 252.718C160.785 252.811 160.722 252.889 160.638 252.936C160.553 252.983 160.454 252.994 160.361 252.968L157.909 252.258Z" fill="#8A90A7"/>
<path d="M158.617 249.805L158.82 249.104L163.023 250.32C163.116 250.347 163.194 250.41 163.241 250.494C163.288 250.579 163.299 250.679 163.272 250.772C163.245 250.864 163.182 250.943 163.098 250.989C163.013 251.036 162.913 251.047 162.821 251.02L158.617 249.805Z" fill="#8A90A7"/>
<path d="M159.326 247.354L159.529 246.652L161.981 247.362C162.074 247.389 162.152 247.452 162.198 247.536C162.245 247.621 162.256 247.721 162.229 247.813C162.202 247.906 162.14 247.985 162.055 248.032C161.971 248.078 161.871 248.09 161.778 248.063L159.326 247.354Z" fill="#8A90A7"/>
<path d="M160.033 244.9L160.234 244.199L162.686 244.909C162.732 244.922 162.775 244.944 162.812 244.974C162.85 245.004 162.881 245.041 162.904 245.083C162.927 245.125 162.942 245.171 162.947 245.218C162.953 245.266 162.949 245.314 162.936 245.36C162.922 245.406 162.9 245.449 162.87 245.487C162.84 245.524 162.804 245.556 162.762 245.579C162.72 245.602 162.674 245.617 162.626 245.622C162.578 245.627 162.53 245.623 162.484 245.61L160.033 244.9Z" fill="#8A90A7"/>
<path d="M160.744 242.447L160.947 241.746L165.15 242.963C165.243 242.99 165.321 243.052 165.368 243.137C165.414 243.222 165.425 243.321 165.399 243.414C165.372 243.507 165.309 243.585 165.224 243.632C165.14 243.679 165.04 243.69 164.947 243.663L160.744 242.447Z" fill="#8A90A7"/>
<path d="M161.453 239.994L161.656 239.293L164.108 240.003C164.2 240.03 164.279 240.092 164.325 240.177C164.372 240.262 164.383 240.361 164.356 240.454C164.343 240.5 164.321 240.543 164.291 240.581C164.261 240.618 164.224 240.649 164.182 240.673C164.14 240.696 164.094 240.71 164.047 240.716C163.999 240.721 163.951 240.717 163.905 240.704L161.453 239.994Z" fill="#8A90A7"/>
<path d="M162.163 237.541L162.364 236.84L164.816 237.549C164.862 237.563 164.905 237.585 164.942 237.615C164.98 237.645 165.011 237.682 165.034 237.723C165.057 237.765 165.072 237.811 165.077 237.859C165.083 237.907 165.079 237.955 165.065 238.001C165.052 238.047 165.03 238.09 165 238.128C164.97 238.165 164.933 238.196 164.892 238.219C164.85 238.243 164.804 238.257 164.756 238.263C164.708 238.268 164.66 238.264 164.614 238.251L162.163 237.541Z" fill="#8A90A7"/>
<path d="M162.871 235.088L163.073 234.387L167.277 235.603C167.37 235.63 167.448 235.693 167.495 235.778C167.541 235.862 167.552 235.962 167.525 236.055C167.499 236.148 167.436 236.226 167.351 236.273C167.267 236.319 167.167 236.33 167.074 236.303L162.871 235.088Z" fill="#8A90A7"/>
<path d="M168.872 246.531L145.448 286.051L149.65 288.544L173.075 249.025L168.872 246.531Z" fill="#8A90A7"/>
<path d="M170.974 247.777L147.55 287.297L149.651 288.544L173.075 249.024L170.974 247.777Z" fill="#7B8093"/>
<path d="M143.319 294.445L145.452 286.049L149.656 288.541L143.319 294.445Z" fill="#F6F6F6"/>
<path d="M143.319 294.449L144.44 290L146.682 291.328L143.319 294.449Z" fill="#30384D"/>
<path d="M168.862 246.517L170.191 244.271C170.245 244.179 170.317 244.099 170.402 244.035C170.487 243.971 170.584 243.925 170.688 243.898C170.791 243.872 170.898 243.866 171.003 243.881C171.109 243.896 171.21 243.932 171.302 243.987L174.112 245.652C174.296 245.761 174.43 245.94 174.483 246.148C174.537 246.357 174.505 246.577 174.396 246.762L173.065 249.008L168.862 246.517Z" fill="#4573D2"/>
<path d="M143.311 250.614L138.577 251.826L149.962 296.345L154.696 295.133L143.311 250.614Z" fill="#E2E5EC"/>
<path d="M140.944 251.22L138.577 251.826L149.962 296.345L152.329 295.739L140.944 251.22Z" fill="#CED3DF"/>
<path d="M138.885 243.17L143.311 250.615L138.577 251.828L138.885 243.17Z" fill="#F6F6F6"/>
<path d="M138.877 243.172L141.23 247.111L138.706 247.758L138.877 243.172Z" fill="#30384D"/>
<path d="M154.695 295.133L155.342 297.662C155.369 297.765 155.374 297.873 155.359 297.978C155.344 298.084 155.308 298.185 155.254 298.277C155.2 298.368 155.128 298.448 155.043 298.512C154.957 298.576 154.861 298.622 154.757 298.649L151.594 299.459C151.386 299.512 151.165 299.48 150.98 299.371C150.795 299.261 150.662 299.083 150.608 298.874L149.962 296.344L154.695 295.133Z" fill="#4573D2"/>
<path d="M178.61 269.027H139.121V302.067H178.61V269.027Z" fill="#E89C2E"/>
<path d="M170.851 269.027H178.609V302.067H170.851V269.027Z" fill="#C98A30"/>
<path d="M142.064 115.461H120.703V199.839H142.064V115.461Z" fill="#CED3DF"/>
<path d="M142.063 115.461H128.131V199.839H142.063V115.461Z" fill="#8A90A7"/>
<path d="M162.851 115.461H141.49V199.839H162.851V115.461Z" fill="#CED3DF"/>
<path d="M162.85 115.461H148.917V199.839H162.85V115.461Z" fill="#8A90A7"/>
<path d="M183.954 115.461H162.593V199.839H183.954V115.461Z" fill="#CED3DF"/>
<path d="M183.953 115.461H170.02V199.839H183.953V115.461Z" fill="#8A90A7"/>
<mask id="mask4_9_51008" style="mask-type:alpha" maskUnits="userSpaceOnUse" x="89" y="0" width="65" height="70">
<path fill-rule="evenodd" clip-rule="evenodd" d="M124.207 58.1991C128.986 43.4986 135.235 29.084 144.709 17.0669C144.385 20.8774 142.891 28.4639 142.891 28.4639C140.75 35.4899 138.085 42.345 134.917 48.9712C132.374 53.511 130.666 56.2009 129.039 58.7629L129.039 58.7629C127.392 61.3566 125.828 63.8192 123.566 67.9372C132.322 55.3867 141.464 42.7867 153.883 33.9051C149.87 47.3 137.775 57.1554 126.618 66.2472L126.617 66.2485C125.318 67.3069 124.032 68.355 122.772 69.3972C122.688 69.5538 122.603 69.7125 122.517 69.8736L122.515 69.8722L122.517 69.8781L122.515 69.8767L122.517 69.879C122.441 69.8518 122.366 69.8244 122.29 69.7968L122.243 69.8363L122.274 69.791C109.826 65.2463 94.5053 56.2488 89.7696 43.4061C98.4016 46.5272 103.893 50.1535 108.619 54.5456C103.685 46.5163 100.297 37.5782 98.6874 28.1914C97.8634 23.2112 97.9654 18.1215 98.9883 13.1783C100.549 14.5702 101.819 16.2583 102.723 18.1447C107.691 27.4036 111.98 36.9996 115.561 46.8566C114.402 42.1025 113.42 37.2953 112.87 32.2961C111.795 22.5122 112.919 12.6116 116.159 3.31805C119.626 16.2256 120.971 29.5304 121.345 42.9166C121.681 39.7638 122.131 36.6215 122.697 33.4961C124.794 21.7515 128.814 10.434 134.597 0C136.013 14.0344 132.333 27.3278 128.614 40.7654C127.02 46.5269 125.418 52.3148 124.207 58.1991Z" fill="#B0B5C0"/>
</mask>
<g mask="url(#mask4_9_51008)">
<path fill-rule="evenodd" clip-rule="evenodd" d="M124.207 58.1991C128.986 43.4986 135.235 29.084 144.709 17.0669C144.385 20.8774 142.891 28.4639 142.891 28.4639C140.75 35.4899 138.085 42.345 134.917 48.9712C132.374 53.511 130.666 56.2009 129.039 58.7629L129.039 58.7629C127.392 61.3566 125.828 63.8192 123.566 67.9372C132.322 55.3867 141.464 42.7867 153.883 33.9051C149.87 47.3 137.775 57.1554 126.618 66.2472L126.617 66.2485C125.318 67.3069 124.032 68.355 122.772 69.3972C122.688 69.5538 122.603 69.7125 122.517 69.8736L122.515 69.8722L122.517 69.8781L122.515 69.8767L122.517 69.879C122.441 69.8518 122.366 69.8244 122.29 69.7968L122.243 69.8363L122.274 69.791C109.826 65.2463 94.5053 56.2488 89.7696 43.4061C98.4016 46.5272 103.893 50.1535 108.619 54.5456C103.685 46.5163 100.297 37.5782 98.6874 28.1914C97.8634 23.2112 97.9654 18.1215 98.9883 13.1783C100.549 14.5702 101.819 16.2583 102.723 18.1447C107.691 27.4036 111.98 36.9996 115.561 46.8566C114.402 42.1025 113.42 37.2953 112.87 32.2961C111.795 22.5122 112.919 12.6116 116.159 3.31805C119.626 16.2256 120.971 29.5304 121.345 42.9166C121.681 39.7638 122.131 36.6215 122.697 33.4961C124.794 21.7515 128.814 10.434 134.597 0C136.013 14.0344 132.333 27.3278 128.614 40.7654C127.02 46.5269 125.418 52.3148 124.207 58.1991Z" fill="#B0B5C0"/>
<path fill-rule="evenodd" clip-rule="evenodd" d="M153.742 28.2414C135.289 15.5955 110.203 19.499 91.3324 29.391C91.3239 29.3967 91.3142 29.4004 91.3041 29.4021C91.294 29.4037 91.2836 29.4031 91.2737 29.4004C91.2638 29.3977 91.2546 29.3929 91.2468 29.3864C91.2389 29.3798 91.2325 29.3717 91.228 29.3625C91.2235 29.3532 91.221 29.3432 91.2207 29.3329C91.2204 29.3227 91.2223 29.3125 91.2262 29.303C91.2302 29.2936 91.2361 29.2851 91.2436 29.2781C91.2511 29.2711 91.26 29.2658 91.2697 29.2625C100.75 23.842 111.329 20.6271 122.221 19.8564C132.802 19.0956 145.993 20.0822 154.081 27.8568C154.297 28.0637 153.978 28.4034 153.742 28.2414ZM106.987 26.0042C106.996 26.0065 107.005 26.007 107.015 26.0056C107.024 26.0042 107.033 26.001 107.041 25.9961C107.049 25.9913 107.056 25.9849 107.061 25.9773C107.067 25.9697 107.07 25.9611 107.073 25.9519C107.077 25.9356 107.075 25.9183 107.067 25.9032C107.059 25.8882 107.046 25.8765 107.031 25.8704C107.021 25.8681 107.012 25.8677 107.002 25.8692C106.993 25.8707 106.984 25.8741 106.976 25.8791C106.968 25.8842 106.961 25.8909 106.955 25.8987C106.95 25.9065 106.946 25.9154 106.944 25.9248C106.941 25.9409 106.943 25.9577 106.951 25.9721C106.959 25.9866 106.972 25.998 106.987 26.0042ZM162.062 45.0162C141.511 35.3289 118.289 32.8803 96.1709 38.0683C96.0121 38.1069 95.9651 37.8613 96.1197 37.8206C118.276 31.948 141.805 34.263 162.393 44.3411C162.776 44.5344 162.448 45.1928 162.062 45.0162ZM95.9067 41.7486C105.06 37.935 116.067 37.5974 125.827 38.376C135.556 39.1784 145.081 41.613 154.003 45.578C154.268 45.695 154.41 45.2644 154.147 45.1484C144.786 40.9974 134.768 38.5267 124.552 37.8493C115.183 37.2473 104.465 37.6047 95.7636 41.4581C95.5725 41.5417 95.7166 41.8239 95.9057 41.7445L95.9067 41.7486ZM159.19 54.6337C139.198 48.6556 115.638 46.3072 95.6715 53.8686C95.4939 53.9282 95.3581 53.6774 95.5378 53.6021C104.928 49.9443 114.973 48.2718 125.041 48.6901C136.323 48.7799 148.93 49.3809 159.34 54.1884C159.395 54.2103 159.44 54.2519 159.466 54.3052C159.493 54.3586 159.498 54.4197 159.482 54.4769C159.464 54.5363 159.423 54.5863 159.369 54.6157C159.314 54.6451 159.25 54.6515 159.19 54.6337ZM94.2513 57.6081C102.858 53.8443 112.076 51.6723 121.457 51.1973C125.712 51.0686 129.97 51.3511 134.172 52.0407C137.238 52.5468 140.167 53.4157 143.105 54.2873C144.723 54.7676 146.345 55.2487 147.994 55.6704C148.463 55.7906 148.88 55.1217 148.398 54.8531C140.488 50.4553 129.836 49.477 120.952 49.8637C111.525 50.1101 102.298 52.6329 94.0559 57.2172C94.0041 57.2431 93.9647 57.2886 93.9464 57.3435C93.9281 57.3985 93.9324 57.4585 93.9583 57.5103C93.9842 57.5622 94.0296 57.6016 94.0845 57.6199C94.1395 57.6382 94.1995 57.634 94.2513 57.6081ZM141.935 60.3286C128.793 56.5463 116.349 56.2422 103.43 61.1887C103.172 61.2943 102.981 60.9201 103.241 60.8041C115.072 55.6276 130.046 54.7205 142.083 59.8813C142.114 59.8894 142.144 59.9038 142.169 59.9237C142.195 59.9436 142.216 59.9685 142.231 59.9969C142.247 60.0254 142.256 60.0567 142.259 60.0889C142.262 60.1212 142.258 60.1537 142.248 60.1844C142.238 60.2151 142.222 60.2434 142.2 60.2676C142.179 60.2917 142.152 60.3111 142.123 60.3246C142.093 60.3382 142.062 60.3455 142.029 60.3462C141.997 60.3468 141.965 60.3409 141.935 60.3286ZM118.108 60.471C112.629 61.3241 107.294 62.9344 102.258 65.2556L102.266 65.2577C101.764 65.4604 101.199 64.7675 101.701 64.4153C110.417 58.3118 124.887 56.3439 134.79 60.4303C135.331 60.656 135.219 61.604 134.575 61.5162C129.153 60.4617 123.619 60.1104 118.108 60.471ZM137.052 64.0495C126.179 61.339 114.724 62.1873 104.369 66.47L104.352 66.4711C104.064 66.5996 103.841 66.1502 104.137 66.0175C114.48 61.1755 126.251 60.3498 137.167 63.7005C137.397 63.7788 137.267 64.0986 137.052 64.0495ZM112.19 67.8877C119.456 65.9573 127.07 65.7401 134.434 67.2533C134.727 67.3004 134.8 66.8353 134.528 66.7496C127.167 64.5915 119.315 64.7962 112.076 67.3349C111.735 67.4425 111.838 67.9912 112.19 67.8877Z" fill="#8A90A7"/>
</g>
<path d="M136.922 60.0293H100.65V90.3775H136.922V60.0293Z" fill="#E89C2E"/>
<path d="M129.797 60.0293H136.922V90.3775H129.797V60.0293Z" fill="#C98A30"/>
<path d="M355.634 224.125L433.822 208.06C433.967 208.03 434.116 208.029 434.261 208.057C434.406 208.085 434.544 208.141 434.667 208.222C434.791 208.304 434.897 208.408 434.979 208.531C435.062 208.653 435.12 208.79 435.15 208.935L444.309 253.556C444.398 253.99 444.401 254.437 444.317 254.872C444.233 255.307 444.065 255.722 443.821 256.092C443.577 256.462 443.263 256.78 442.896 257.028C442.53 257.277 442.118 257.45 441.684 257.54L367.905 272.7C367.029 272.88 366.117 272.704 365.37 272.211C364.624 271.719 364.103 270.95 363.923 270.074L354.764 225.453C354.704 225.162 354.762 224.859 354.925 224.61C355.088 224.361 355.343 224.187 355.634 224.125Z" fill="#CED3DF"/>
<path d="M398.898 235.211C398.831 235.262 398.753 235.297 398.671 235.314C398.589 235.331 398.503 235.329 398.422 235.309L356.932 224.952C356.808 224.921 356.698 224.849 356.62 224.748C356.542 224.647 356.501 224.522 356.504 224.394C356.507 224.266 356.553 224.143 356.635 224.045C356.717 223.947 356.83 223.88 356.955 223.854L432.495 208.333C432.62 208.308 432.749 208.326 432.862 208.384C432.975 208.442 433.065 208.536 433.118 208.652C433.17 208.767 433.182 208.897 433.152 209.021C433.121 209.144 433.049 209.253 432.949 209.33L398.898 235.211Z" fill="#B0B5C0"/>
<path d="M389.465 191.847C389.533 191.782 389.619 191.737 389.711 191.719C389.804 191.7 389.899 191.708 389.988 191.742L433.926 207.946C434.067 208.005 434.182 208.114 434.248 208.252C434.315 208.389 434.328 208.547 434.287 208.694C434.263 208.789 434.212 208.876 434.142 208.944C434.071 209.013 433.983 209.06 433.887 209.082L355.941 225.098C355.793 225.121 355.642 225.085 355.52 224.997C355.399 224.909 355.317 224.777 355.293 224.629C355.271 224.529 355.275 224.426 355.303 224.328C355.332 224.23 355.385 224.142 355.457 224.07L389.465 191.847Z" fill="#E2E5EC"/>
<path d="M398.422 235.306L363.84 226.674L358.004 215.014L410.272 188.822L423.956 216.163L398.894 235.209C398.827 235.26 398.75 235.296 398.667 235.313C398.586 235.329 398.502 235.327 398.422 235.306Z" fill="white"/>
<path d="M425.266 252.397C422.302 249.622 411.779 240.796 410.524 245.563C409.27 250.33 414.78 253.415 414.78 253.415C414.78 253.415 414.467 255.942 413.281 255.284C409.719 253.306 400.943 246.799 396.77 249.295C391.205 252.625 400.897 257.566 400.897 257.566C400.897 257.566 397.466 255.901 393.879 254.605C389.772 253.121 388.272 255.275 387.795 256.409C386.712 258.979 392.779 263.431 392.779 263.431C392.779 263.431 389.171 260.537 385.125 260.923C383.651 261.063 380.8 264.213 386.157 266.473C387.724 267.135 395.558 274.969 394.5 280.223C393.518 285.081 400.482 286.18 404.476 280.297L404.656 275.635C404.656 275.635 414.275 277.045 412.96 271.191C412.96 271.191 419.995 268.862 417.496 264.022C417.496 264.022 427.511 265.773 428.95 261.46C430.389 257.147 428.23 255.167 425.266 252.397Z" fill="#EABBAE"/>
<path d="M423.192 214.633C420.725 217.403 417.731 219.655 414.386 221.257C411.035 222.698 407.929 224.652 405.18 227.05C402.221 229.624 398.726 231.986 395.593 232.039C393.922 232.067 389.92 230.042 385.082 229.542C375.314 228.533 363.84 226.675 363.84 226.675L398.709 235.368L423.96 216.163L423.192 214.633Z" fill="#393939" fill-opacity="0.18"/>
<path d="M298.46 205.239L289.854 278.433C289.641 280.243 290.936 281.884 292.745 282.097L334.783 287.044C336.593 287.257 338.232 285.962 338.445 284.152L347.051 210.958C347.264 209.147 345.969 207.507 344.16 207.294L302.122 202.347C300.312 202.134 298.673 203.429 298.46 205.239Z" fill="#4369B6"/>
<path d="M275.356 284.965C275.935 285.256 280.767 284.651 290.247 283.51C297.634 282.622 308.023 281.53 307.554 269.452C307.459 266.988 296.438 243.717 273.555 254.083C272.825 260.788 273.027 267.561 274.155 274.21C274.883 277.91 270.975 282.761 275.356 284.965Z" fill="#D1A79C"/>
<path d="M298.476 189.043L257.659 200.259C255.902 200.741 254.869 202.558 255.352 204.315L274.86 275.383C275.342 277.14 277.158 278.174 278.914 277.691L319.731 266.476C321.488 265.993 322.521 264.177 322.039 262.419L302.531 191.352C302.048 189.594 300.233 188.561 298.476 189.043Z" fill="#E2E5EC"/>
<path d="M274.86 275.384L255.351 204.315C255.236 203.898 255.205 203.461 255.259 203.031C255.313 202.601 255.451 202.186 255.665 201.809C255.879 201.432 256.166 201.102 256.508 200.836C256.85 200.57 257.241 200.374 257.659 200.259L263.25 199.863L288.425 233.44L283.922 275.18L278.908 277.696C278.065 277.926 277.165 277.812 276.406 277.378C275.647 276.945 275.091 276.227 274.86 275.384Z" fill="white"/>
<path d="M299.598 197.873H292.125C291.481 197.873 290.859 198.11 290.378 198.54C289.897 198.97 289.592 199.562 289.52 200.203L280.717 251.491L283.747 251.537C284.344 252.875 284.573 254.348 284.409 255.804L282.473 273.029C282.422 273.481 282.467 273.94 282.607 274.374C282.746 274.808 282.975 275.207 283.28 275.546C283.585 275.885 283.958 276.155 284.375 276.339C284.791 276.523 285.242 276.616 285.698 276.612C288.432 277.929 291.364 278.787 294.376 279.151C298.687 279.505 305.19 277.919 305.19 277.919C305.19 277.919 306.354 276.754 307.455 273.23C308.727 269.154 309.03 261.385 309.03 261.385L304.623 202.185L299.598 197.873Z" fill="#393939" fill-opacity="0.18"/>
<path d="M292.686 197.153L284.081 270.347C283.868 272.157 285.162 273.798 286.972 274.011L329.01 278.958C330.819 279.171 332.459 277.876 332.672 276.066L341.277 202.872C341.49 201.061 340.196 199.421 338.386 199.208L296.348 194.261C294.539 194.048 292.899 195.343 292.686 197.153Z" fill="#E2E5EC"/>
<path d="M284.081 270.348L292.686 197.153C292.789 196.284 293.232 195.491 293.918 194.948C294.605 194.406 295.479 194.159 296.348 194.261L301.675 195.996L312.403 236.578L292.556 273.56L286.968 274.011C286.1 273.908 285.308 273.464 284.767 272.777C284.225 272.09 283.979 271.216 284.081 270.348Z" fill="white"/>
<path d="M264.524 243.733C268.435 242.645 281.847 239.692 280.753 244.5C279.658 249.309 273.349 249.49 273.349 249.49C273.349 249.49 272.457 251.876 273.814 251.841C277.888 251.737 288.675 250.031 291.22 254.177C294.614 259.704 283.736 259.598 283.736 259.598C283.736 259.598 287.548 259.71 291.327 260.225C295.654 260.812 295.987 263.415 295.886 264.641C295.658 267.422 288.221 268.56 288.221 268.56C288.221 268.56 292.757 267.664 296.166 269.879C297.407 270.685 298.477 274.797 292.684 274.322C290.986 274.182 281.474 279.212 278.127 283.398C274.273 288.217 269.964 281.865 270.05 278.096C270.135 274.326 272.046 273.879 272.046 273.879C272.046 273.879 262.867 270.675 266.74 266.095C266.74 266.095 261.582 260.772 266.035 257.64C266.035 257.64 256.348 254.554 257.066 250.066C257.785 245.577 260.614 244.82 264.524 243.733Z" fill="#EABBAE"/>
</g>
<defs>
<clipPath id="clip0_9_51008">
<rect width="600" height="323.5" fill="white"/>
</clipPath>
</defs>
</svg>
