<svg width="600" height="291" viewBox="0 0 600 291" fill="none" xmlns="http://www.w3.org/2000/svg">
<g clip-path="url(#clip0_249_20980)">
<mask id="mask0_249_20980" style="mask-type:alpha" maskUnits="userSpaceOnUse" x="-1" y="0" width="601" height="291">
<path d="M599.72 188.515C605.041 110.694 532.193 41.9471 441.151 77.3844C363.124 107.757 358.433 -71.8311 193.608 33.4644C94.7341 96.6286 9.83204 34.6611 0.0614101 132.38C-2.37648 221.431 49.9172 304.531 394.872 288.504C500.36 283.605 589.657 290.082 599.72 188.515Z" fill="#F6F6F6"/>
</mask>
<g mask="url(#mask0_249_20980)">
<path d="M599.72 188.515C605.041 110.694 532.193 41.9471 441.151 77.3844C363.124 107.757 358.433 -71.8311 193.608 33.4644C94.7341 96.6286 9.83204 34.6611 0.0614101 132.38C-2.37648 221.431 49.9172 304.531 394.872 288.504C500.36 283.605 589.657 290.082 599.72 188.515Z" fill="#BEBEBE" fill-opacity="0.14"/>
<path d="M234.641 109.195H229.81V301.143H234.641V109.195Z" fill="#B0B5C0"/>
<path d="M490.24 184.127H122.708V188.962H490.24V184.127Z" fill="#CED3DF"/>
<path d="M137.533 109.195H132.702V298.06H137.533V109.195Z" fill="#B0B5C0"/>
<path d="M383.5 109H379V297.5H383.5V109Z" fill="#B0B5C0"/>
<path d="M488.137 257.5H122.708V262.335H488.137V257.5Z" fill="#CED3DF"/>
<path d="M480.436 109.195H475.604V298.06H480.436V109.195Z" fill="#B0B5C0"/>
<path d="M488.137 105.166H122.708V110.808H488.137V105.166Z" fill="#CED3DF"/>
<path d="M428.142 198.551H409.586V256.867H428.142V198.551Z" fill="#CED3DF"/>
<path d="M428.142 198.551H416.039V256.867H428.142V198.551Z" fill="#8A90A7"/>
<path d="M446.5 198.551H427.945V256.867H446.5V198.551Z" fill="#CED3DF"/>
<path d="M446.498 198.551H434.396V256.867H446.498V198.551Z" fill="#8A90A7"/>
<path d="M462.236 198.551H443.681V256.867H462.236V198.551Z" fill="#CED3DF"/>
<path d="M462.234 198.551H450.131V256.867H462.234V198.551Z" fill="#8A90A7"/>
<mask id="mask1_249_20980" style="mask-type:alpha" maskUnits="userSpaceOnUse" x="146" y="116" width="49" height="53">
<path fill-rule="evenodd" clip-rule="evenodd" d="M172.535 159.866C176.135 148.789 180.841 137.927 187.978 128.873C187.732 131.744 186.609 137.46 186.609 137.46C184.996 142.754 182.988 147.919 180.601 152.912C178.685 156.335 177.399 158.362 176.172 160.294C174.933 162.246 173.755 164.101 172.053 167.201C178.65 157.739 185.54 148.253 194.887 141.562C191.865 151.654 182.754 159.08 174.349 165.932L174.349 165.932C173.371 166.729 172.402 167.519 171.454 168.304C171.39 168.422 171.326 168.542 171.261 168.664L171.256 168.659L171.26 168.677L171.261 168.677L171.26 168.677L171.261 168.677L171.259 168.676L171.082 168.612L171.055 168.635L171.073 168.609C161.698 165.192 150.167 158.405 146.596 148.732C153.107 151.087 157.246 153.823 160.809 157.139C157.084 151.082 154.527 144.338 153.314 137.254C152.692 133.502 152.769 129.667 153.54 125.943C154.715 126.992 155.671 128.263 156.351 129.684C160.097 136.668 163.33 143.906 166.029 151.342C165.154 147.752 164.413 144.123 164 140.348C163.191 132.975 164.038 125.515 166.478 118.513C169.086 128.228 170.099 138.241 170.383 148.316C170.635 145.952 170.973 143.595 171.396 141.252C172.976 132.403 176.005 123.876 180.361 116.016C181.428 126.591 178.656 136.607 175.855 146.732C174.654 151.073 173.447 155.433 172.535 159.866Z" fill="#B0B5C0"/>
</mask>
<g mask="url(#mask1_249_20980)">
<path fill-rule="evenodd" clip-rule="evenodd" d="M172.535 159.866C176.135 148.789 180.841 137.927 187.978 128.873C187.732 131.744 186.609 137.46 186.609 137.46C184.996 142.754 182.988 147.919 180.601 152.912C178.685 156.335 177.399 158.362 176.172 160.294C174.933 162.246 173.755 164.101 172.053 167.201C178.65 157.739 185.54 148.253 194.887 141.562C191.865 151.654 182.754 159.08 174.349 165.932L174.349 165.932C173.371 166.729 172.402 167.519 171.454 168.304C171.39 168.422 171.326 168.542 171.261 168.664L171.256 168.659L171.26 168.677L171.261 168.677L171.26 168.677L171.261 168.677L171.259 168.676L171.082 168.612L171.055 168.635L171.073 168.609C161.698 165.192 150.167 158.405 146.596 148.732C153.107 151.087 157.246 153.823 160.809 157.139C157.084 151.082 154.527 144.338 153.314 137.254C152.692 133.502 152.769 129.667 153.54 125.943C154.715 126.992 155.671 128.263 156.351 129.684C160.097 136.668 163.33 143.906 166.029 151.342C165.154 147.752 164.413 144.123 164 140.348C163.191 132.975 164.038 125.515 166.478 118.513C169.086 128.228 170.099 138.241 170.383 148.316C170.635 145.952 170.973 143.595 171.396 141.252C172.976 132.403 176.005 123.876 180.361 116.016C181.428 126.591 178.656 136.607 175.855 146.732C174.654 151.073 173.447 155.433 172.535 159.866Z" fill="#B0B5C0"/>
<path fill-rule="evenodd" clip-rule="evenodd" d="M194.781 137.289C180.883 127.765 161.978 130.705 147.774 138.161C147.761 138.168 147.745 138.169 147.731 138.164C147.716 138.16 147.705 138.149 147.698 138.136C147.691 138.122 147.69 138.107 147.695 138.092C147.7 138.078 147.71 138.066 147.723 138.059C154.866 133.975 162.836 131.552 171.042 130.973C179.009 130.398 188.945 131.143 195.037 137.001C195.205 137.156 194.959 137.412 194.781 137.289ZM159.565 135.609C159.579 135.612 159.593 135.609 159.605 135.602C159.617 135.594 159.626 135.583 159.629 135.569C159.633 135.557 159.632 135.544 159.626 135.532C159.621 135.521 159.611 135.512 159.599 135.507C159.585 135.504 159.57 135.506 159.558 135.514C159.546 135.522 159.537 135.534 159.533 135.548C159.531 135.56 159.533 135.573 159.538 135.584C159.544 135.595 159.554 135.604 159.565 135.609ZM201.047 149.939C185.569 142.639 168.078 140.793 151.418 144.702C151.297 144.728 151.261 144.543 151.378 144.511C168.067 140.087 185.791 141.833 201.297 149.429C201.586 149.576 201.338 150.07 201.047 149.939ZM151.219 147.461C158.113 144.588 166.404 144.333 173.756 144.915C181.084 145.52 188.258 147.355 194.978 150.342C195.177 150.429 195.283 150.109 195.086 150.018C188.034 146.895 180.488 145.039 172.793 144.533C165.738 144.079 157.666 144.348 151.111 147.253C150.967 147.314 151.075 147.529 151.217 147.465L151.219 147.461ZM198.885 157.181C183.827 152.676 166.092 150.907 151.041 156.603C150.907 156.652 150.806 156.459 150.937 156.402C158.009 153.649 165.574 152.39 173.156 152.706C181.655 152.774 191.145 153.226 198.989 156.85C199.03 156.866 199.063 156.896 199.083 156.935C199.103 156.974 199.108 157.019 199.097 157.062C199.083 157.105 199.054 157.141 199.014 157.163C198.975 157.185 198.929 157.191 198.885 157.181ZM149.973 159.421C156.455 156.584 163.398 154.948 170.464 154.592C173.668 154.495 176.875 154.708 180.039 155.228C182.351 155.61 184.558 156.265 186.773 156.922C187.991 157.284 189.211 157.646 190.452 157.963C190.804 158.054 191.118 157.549 190.755 157.348C184.798 154.034 176.764 153.297 170.082 153.588C162.982 153.774 156.032 155.675 149.824 159.13C149.803 159.139 149.784 159.152 149.769 159.168C149.753 159.185 149.741 159.204 149.733 159.225C149.725 159.247 149.722 159.269 149.723 159.292C149.724 159.315 149.73 159.337 149.741 159.357C149.751 159.377 149.765 159.395 149.782 159.41C149.8 159.424 149.82 159.435 149.842 159.442C149.864 159.448 149.886 159.45 149.909 159.447C149.931 159.444 149.953 159.437 149.973 159.425V159.421ZM185.888 161.465C176.426 158.388 166.2 158.619 156.886 162.12C156.691 162.199 156.546 161.917 156.746 161.834C161.336 159.796 166.283 158.686 171.304 158.566C176.324 158.447 181.318 159.321 186 161.138H186.03C186.072 161.158 186.105 161.193 186.121 161.236C186.138 161.28 186.137 161.328 186.118 161.37C186.1 161.413 186.065 161.447 186.022 161.464C185.979 161.482 185.931 161.482 185.888 161.465ZM167.941 161.577C163.814 162.22 159.796 163.434 156.002 165.184H156.008C155.631 165.334 155.205 164.812 155.584 164.547C159.237 162.185 163.38 160.687 167.698 160.167C172.016 159.646 176.396 160.117 180.506 161.543C180.915 161.715 180.83 162.427 180.344 162.362C176.261 161.568 172.092 161.304 167.941 161.577ZM182.212 164.274C174.021 162.232 165.393 162.872 157.592 166.099H157.583C157.367 166.196 157.197 165.859 157.422 165.757C165.212 162.109 174.079 161.488 182.301 164.013C182.473 164.062 182.375 164.312 182.212 164.274ZM163.483 167.167C168.953 165.714 174.686 165.549 180.23 166.688C180.442 166.724 180.503 166.376 180.3 166.31C174.755 164.683 168.84 164.837 163.387 166.749C163.141 166.832 163.218 167.244 163.483 167.167Z" fill="#8A90A7"/>
</g>
<path d="M182.112 161.244H154.791V184.112H182.112V161.244Z" fill="#E89C2E"/>
<path d="M176.745 161.25H182.112V184.112H176.745V161.25Z" fill="#C98A30"/>
</g>
<path d="M194.119 253.047L208.2 204.307L238.472 213.067L194.119 253.047ZM224.805 216.106L213.054 212.711L207.445 232.118L224.805 216.106Z" fill="#E2E5EC"/>
<path d="M196.708 244.089L196.858 243.562L198.703 244.095C198.772 244.116 198.831 244.163 198.865 244.226C198.9 244.29 198.909 244.365 198.889 244.435C198.879 244.469 198.863 244.502 198.84 244.53C198.818 244.558 198.79 244.582 198.759 244.6C198.727 244.617 198.693 244.628 198.657 244.632C198.621 244.636 198.585 244.633 198.55 244.623L196.708 244.089Z" fill="white"/>
<path d="M197.24 242.245L197.392 241.719L199.235 242.251C199.269 242.261 199.301 242.278 199.33 242.3C199.358 242.323 199.381 242.351 199.398 242.382C199.416 242.414 199.427 242.448 199.431 242.484C199.434 242.52 199.431 242.556 199.421 242.591C199.412 242.625 199.395 242.658 199.373 242.686C199.35 242.714 199.322 242.738 199.291 242.755C199.259 242.773 199.224 242.784 199.189 242.787C199.153 242.791 199.117 242.788 199.082 242.777L197.24 242.245Z" fill="white"/>
<path d="M197.772 240.393L197.925 239.867L201.083 240.78C201.153 240.8 201.212 240.848 201.247 240.912C201.282 240.976 201.29 241.051 201.27 241.121C201.26 241.156 201.243 241.188 201.221 241.216C201.198 241.244 201.17 241.268 201.139 241.285C201.107 241.302 201.073 241.313 201.037 241.317C201.001 241.321 200.965 241.318 200.931 241.308L197.772 240.393Z" fill="white"/>
<path d="M198.306 238.56L198.457 238.031L200.301 238.566C200.336 238.576 200.368 238.593 200.396 238.615C200.424 238.638 200.447 238.665 200.465 238.697C200.482 238.728 200.493 238.763 200.497 238.799C200.501 238.835 200.498 238.871 200.488 238.905C200.467 238.975 200.42 239.033 200.356 239.068C200.293 239.103 200.218 239.112 200.148 239.092L198.306 238.56Z" fill="white"/>
<path d="M198.847 236.716L198.999 236.188L200.841 236.722C200.876 236.732 200.909 236.748 200.937 236.771C200.965 236.793 200.989 236.821 201.006 236.853C201.023 236.884 201.034 236.919 201.038 236.955C201.042 236.991 201.038 237.027 201.028 237.062C201.018 237.096 201.001 237.128 200.979 237.157C200.956 237.185 200.929 237.208 200.897 237.225C200.866 237.243 200.831 237.254 200.795 237.258C200.76 237.262 200.723 237.258 200.689 237.248L198.847 236.716Z" fill="white"/>
<path d="M199.37 234.878L199.523 234.352L202.682 235.266C202.751 235.286 202.81 235.333 202.846 235.397C202.881 235.46 202.89 235.535 202.87 235.606C202.85 235.675 202.802 235.734 202.738 235.769C202.674 235.804 202.599 235.813 202.529 235.792L199.37 234.878Z" fill="white"/>
<path d="M199.907 233.024L200.059 232.498L201.902 233.031C201.971 233.051 202.029 233.098 202.064 233.162C202.099 233.226 202.108 233.3 202.088 233.37C202.078 233.405 202.061 233.437 202.039 233.465C202.016 233.493 201.989 233.516 201.957 233.534C201.926 233.551 201.891 233.562 201.855 233.566C201.82 233.57 201.783 233.567 201.749 233.557L199.907 233.024Z" fill="#8A90A7"/>
<path d="M200.437 231.18L200.589 230.654L202.432 231.187C202.466 231.197 202.499 231.213 202.527 231.236C202.555 231.258 202.579 231.286 202.596 231.317C202.613 231.349 202.624 231.384 202.628 231.42C202.632 231.456 202.628 231.492 202.618 231.526C202.608 231.561 202.592 231.593 202.569 231.622C202.547 231.65 202.519 231.673 202.488 231.691C202.456 231.708 202.421 231.719 202.386 231.723C202.35 231.727 202.313 231.723 202.279 231.713L200.437 231.18Z" fill="#8A90A7"/>
<path d="M200.967 229.337L201.119 228.809L204.278 229.723C204.348 229.743 204.407 229.79 204.442 229.854C204.477 229.918 204.486 229.992 204.467 230.063C204.446 230.133 204.399 230.192 204.335 230.227C204.271 230.262 204.196 230.271 204.125 230.251L200.967 229.337Z" fill="#8A90A7"/>
<path d="M201.503 227.491L201.656 226.965L203.498 227.497C203.568 227.518 203.627 227.566 203.662 227.63C203.696 227.694 203.705 227.769 203.684 227.839C203.674 227.874 203.658 227.906 203.635 227.934C203.613 227.962 203.585 227.985 203.553 228.003C203.522 228.02 203.487 228.031 203.452 228.035C203.416 228.039 203.38 228.036 203.345 228.026L201.503 227.491Z" fill="#8A90A7"/>
<path d="M202.026 225.647L202.179 225.121L204.021 225.654C204.056 225.664 204.088 225.68 204.116 225.703C204.144 225.725 204.168 225.753 204.185 225.785C204.202 225.816 204.213 225.851 204.217 225.887C204.221 225.922 204.218 225.959 204.208 225.993C204.198 226.028 204.182 226.06 204.159 226.089C204.137 226.117 204.109 226.141 204.078 226.158C204.046 226.176 204.011 226.187 203.975 226.191C203.94 226.195 203.903 226.192 203.869 226.182L202.026 225.647Z" fill="#8A90A7"/>
<path d="M202.567 223.804L202.72 223.277L205.878 224.192C205.913 224.202 205.946 224.218 205.974 224.241C206.002 224.263 206.026 224.291 206.043 224.322C206.061 224.354 206.072 224.389 206.076 224.424C206.08 224.46 206.077 224.497 206.067 224.531C206.046 224.601 205.999 224.66 205.935 224.695C205.871 224.73 205.796 224.738 205.726 224.718L202.567 223.804Z" fill="#8A90A7"/>
<path d="M203.101 221.96L203.254 221.432L205.096 221.966C205.131 221.976 205.163 221.993 205.191 222.016C205.219 222.038 205.243 222.066 205.26 222.097C205.277 222.129 205.288 222.164 205.292 222.199C205.296 222.235 205.293 222.271 205.283 222.306C205.273 222.34 205.256 222.373 205.234 222.401C205.211 222.429 205.183 222.452 205.152 222.47C205.12 222.487 205.086 222.498 205.05 222.502C205.014 222.506 204.978 222.503 204.944 222.493L203.101 221.96Z" fill="#8A90A7"/>
<path d="M203.634 220.116L203.786 219.588L205.628 220.123C205.663 220.132 205.695 220.149 205.724 220.171C205.752 220.194 205.775 220.222 205.793 220.253C205.81 220.285 205.821 220.319 205.825 220.355C205.829 220.391 205.825 220.427 205.815 220.462C205.805 220.497 205.788 220.529 205.766 220.557C205.743 220.585 205.716 220.608 205.684 220.626C205.653 220.643 205.618 220.654 205.582 220.658C205.546 220.662 205.51 220.659 205.476 220.649L203.634 220.116Z" fill="#8A90A7"/>
<path d="M204.166 218.27L204.318 217.744L207.477 218.659C207.547 218.679 207.606 218.726 207.641 218.789C207.676 218.853 207.685 218.928 207.666 218.998C207.656 219.033 207.639 219.065 207.616 219.093C207.594 219.121 207.566 219.145 207.535 219.162C207.503 219.179 207.469 219.19 207.433 219.194C207.397 219.198 207.361 219.195 207.326 219.185L204.166 218.27Z" fill="#8A90A7"/>
<path d="M204.7 216.419L204.852 215.893L206.695 216.425C206.764 216.446 206.823 216.493 206.858 216.557C206.892 216.62 206.901 216.695 206.881 216.765C206.861 216.835 206.814 216.894 206.75 216.929C206.687 216.964 206.612 216.973 206.542 216.953L204.7 216.419Z" fill="#8A90A7"/>
<path d="M205.232 214.583L205.385 214.057L207.227 214.589C207.261 214.599 207.294 214.616 207.322 214.638C207.35 214.661 207.373 214.689 207.39 214.72C207.408 214.752 207.419 214.786 207.423 214.822C207.427 214.858 207.423 214.894 207.413 214.929C207.404 214.963 207.387 214.996 207.365 215.024C207.342 215.052 207.314 215.076 207.283 215.093C207.251 215.111 207.217 215.122 207.181 215.125C207.145 215.129 207.109 215.126 207.074 215.115L205.232 214.583Z" fill="#8A90A7"/>
<path d="M205.764 212.739L205.917 212.211L209.075 213.125C209.145 213.146 209.204 213.193 209.239 213.256C209.275 213.32 209.284 213.395 209.264 213.465C209.254 213.5 209.238 213.532 209.215 213.56C209.193 213.589 209.165 213.612 209.134 213.63C209.102 213.648 209.067 213.659 209.032 213.663C208.996 213.667 208.959 213.664 208.925 213.654L205.764 212.739Z" fill="#8A90A7"/>
<path d="M206.298 210.901L206.451 210.373L208.293 210.908C208.328 210.918 208.36 210.934 208.388 210.957C208.416 210.979 208.439 211.007 208.457 211.039C208.474 211.07 208.485 211.105 208.489 211.141C208.493 211.176 208.49 211.213 208.48 211.247C208.47 211.282 208.453 211.314 208.43 211.342C208.408 211.37 208.38 211.394 208.349 211.411C208.317 211.428 208.283 211.439 208.247 211.443C208.211 211.447 208.175 211.444 208.14 211.434L206.298 210.901Z" fill="#8A90A7"/>
<path d="M206.83 209.05L206.983 208.523L208.825 209.056C208.86 209.066 208.892 209.083 208.92 209.105C208.948 209.128 208.971 209.155 208.989 209.187C209.006 209.219 209.017 209.253 209.021 209.289C209.025 209.325 209.022 209.361 209.012 209.395C209.002 209.43 208.985 209.463 208.963 209.491C208.941 209.519 208.913 209.543 208.881 209.561C208.85 209.578 208.815 209.589 208.779 209.593C208.743 209.597 208.707 209.594 208.673 209.584L206.83 209.05Z" fill="#8A90A7"/>
<path d="M207.365 207.206L207.515 206.68L210.674 207.594C210.743 207.614 210.803 207.661 210.838 207.725C210.873 207.789 210.882 207.864 210.862 207.934C210.842 208.003 210.794 208.062 210.731 208.097C210.668 208.132 210.593 208.14 210.523 208.12L207.365 207.206Z" fill="#8A90A7"/>
<path d="M211.873 215.808L194.268 245.521L197.425 247.396L215.031 217.682L211.873 215.808Z" fill="#8A90A7"/>
<path d="M213.455 216.744L195.849 246.457L197.428 247.394L215.034 217.681L213.455 216.744Z" fill="#7B8093"/>
<path d="M192.665 251.834L194.27 245.52L197.429 247.395L192.665 251.834Z" fill="#F6F6F6"/>
<path d="M192.669 251.836L193.517 248.49L195.213 249.49L192.669 251.836Z" fill="#30384D"/>
<path d="M211.865 215.796L212.866 214.109C212.907 214.04 212.961 213.98 213.025 213.932C213.089 213.884 213.162 213.849 213.239 213.829C213.317 213.81 213.398 213.805 213.477 213.817C213.556 213.828 213.632 213.856 213.701 213.897L215.821 215.149C215.959 215.231 216.06 215.366 216.099 215.523C216.139 215.679 216.115 215.845 216.033 215.984L215.034 217.682L211.874 215.806L211.865 215.796Z" fill="#4573D2"/>
<path d="M192.661 218.878L189.104 219.789L197.661 253.261L201.218 252.35L192.661 218.878Z" fill="#E2E5EC"/>
<path d="M190.882 219.334L189.104 219.789L197.661 253.261L199.439 252.806L190.882 219.334Z" fill="#CED3DF"/>
<path d="M189.335 213.281L192.663 218.878L189.104 219.791L189.335 213.281Z" fill="#F6F6F6"/>
<path d="M189.331 213.281L191.099 216.252L189.201 216.738L189.331 213.281Z" fill="#30384D"/>
<path d="M201.219 252.352L201.704 254.261C201.724 254.339 201.729 254.419 201.718 254.498C201.706 254.578 201.68 254.654 201.639 254.723C201.598 254.792 201.544 254.852 201.48 254.9C201.416 254.947 201.343 254.982 201.266 255.002L198.889 255.611C198.812 255.631 198.731 255.635 198.652 255.624C198.572 255.613 198.496 255.586 198.427 255.545C198.358 255.504 198.298 255.45 198.25 255.386C198.202 255.322 198.167 255.249 198.147 255.171L197.662 253.262L201.219 252.352Z" fill="#4573D2"/>
<path d="M219.192 232.721H189.513V257.562H219.192V232.721Z" fill="#E89C2E"/>
<path d="M213.362 232.721H219.192V257.562H213.362V232.721Z" fill="#C98A30"/>
<path d="M183.764 32.2188H165.208V105.538H183.764V32.2188Z" fill="#CED3DF"/>
<path d="M183.764 32.2188H171.661V105.538H183.764V32.2188Z" fill="#8A90A7"/>
<path d="M201.821 32.2188H183.266V105.538H201.821V32.2188Z" fill="#CED3DF"/>
<path d="M201.819 32.2188H189.716V105.538H201.819V32.2188Z" fill="#8A90A7"/>
<path d="M220.152 32.2188H201.596V105.538H220.152V32.2188Z" fill="#CED3DF"/>
<path d="M220.15 32.2188H208.047V105.538H220.15V32.2188Z" fill="#8A90A7"/>
<path d="M283.096 58.6313C280.359 58.2515 278.765 29.4256 284.459 30.6349C284.459 30.6349 286.439 20.6882 299.279 18.1167C312.12 15.5451 328.682 22.5193 330.289 28.6235C331.896 34.7278 334.105 47.8422 331.866 57.4792C331.866 57.4792 328.826 59.1638 326.344 60.422C326.344 60.422 327.061 36.3743 317.898 39.629L305.698 40.5944C305.698 40.5944 293.827 34.1676 292.538 41.2309C291.249 48.2942 290.206 63.2376 290.206 63.2376L283.096 58.6313Z" fill="#444C61"/>
<path d="M307.136 24.4011C307.136 24.4011 286.439 20.6796 299.279 18.1101C312.12 15.5407 328.682 22.5128 330.289 28.617C331.896 34.7212 334.105 47.8357 331.866 57.4727C331.866 57.4727 328.826 59.1573 326.344 60.4155C326.344 60.4155 327.061 36.3677 317.898 39.6225C317.898 39.6225 311.363 47.7424 305.698 40.5879C300.034 33.4333 311.009 26.0242 307.136 24.4011Z" fill="#30384D"/>
<path d="M326.323 93.5698C327.713 93.5698 348.247 100.349 360.665 104.495C363.4 105.404 365.781 107.148 367.474 109.482C369.166 111.817 370.085 114.623 370.101 117.507C370.29 148.105 371.197 272.717 371.263 272.632C371.282 272.606 273.351 278.785 273.351 278.785L273.91 264.769L279.715 118.986C279.97 115.515 281.524 112.268 284.067 109.894L300.242 94.777C301.78 93.3402 303.626 92.2742 305.639 91.6604C307.652 91.0467 309.779 90.9015 311.857 91.2359L326.323 93.5698Z" fill="#4573D2"/>
<path d="M369.989 158.512C369.989 158.512 366.597 173.983 365.976 181.356C365.537 186.54 365.359 203.257 353.419 216.732C339.947 231.937 336.884 262.935 336.884 272.067C336.884 272.093 347.149 271.286 356.004 269.835C363.47 268.611 371.562 266.928 371.562 266.928L371.074 239.235L369.989 158.512Z" fill="#4369B6"/>
<path d="M297.634 92.8066C297.634 92.8066 269.372 105.376 256.457 115.951C252.16 119.923 248.923 124.907 247.041 130.451C242.394 142.738 229.691 179.586 234.639 203.523C234.639 203.523 236.619 213.181 239.651 215.558C251.026 224.469 285.739 224.584 285.739 224.584L288.745 204.527L255.675 193.494C255.675 193.494 285.739 132.322 286.742 127.306C287.745 122.29 297.634 92.8066 297.634 92.8066Z" fill="#4573D2"/>
<path d="M286.659 218.371L285.773 224.671C285.773 224.671 245.881 224.494 238.347 214.113C237.251 212.256 236.416 210.257 235.864 208.172C235.716 207.429 245.438 214.206 249.693 215.891C253.947 217.575 276.732 213.935 286.659 218.371Z" fill="#4369B6"/>
<path d="M355.192 102.932L368.134 156.068L394.823 186.715L417.97 174.322C417.97 174.322 394.863 127.726 380.673 115.584C373.041 109.814 364.399 105.523 355.192 102.932Z" fill="#4573D2"/>
<path d="M390.166 186.332C390.166 186.332 408.467 208.398 417.994 193.699C427.521 179 414.004 168.544 408.863 169.46C395.245 171.892 390.166 186.332 390.166 186.332Z" fill="#4573D2"/>
<path d="M277.169 221.299C277.169 221.299 283.039 229.296 312.393 220.155C312.393 220.155 336.204 215.26 335.712 215.26C335.22 215.26 278.634 212.485 278.309 213.139C277.985 213.792 277.169 221.299 277.169 221.299Z" fill="#D1A79C"/>
<path d="M326.728 74.5411C326.728 74.836 327.529 86.7432 327.987 95.4105C329.094 116.378 293.753 114.748 293.857 95.7331L292.004 70.0176L326.728 74.5411Z" fill="#D1A79C"/>
<path d="M311.509 90.0789C311.814 91.8654 316.448 99.6267 315.817 102.035C314.799 104.944 313.368 107.691 311.566 110.191C310.954 111.383 326.944 110.634 328.004 97.7214C328.316 93.9362 326.149 68.4414 326.149 68.4414L293.004 70.8029C293.004 70.8029 310.566 84.5199 311.509 90.0789Z" fill="#393939" fill-opacity="0.18"/>
<path d="M289.106 71.347C288.84 71.6978 288.481 71.9667 288.07 72.1227C287.658 72.2787 287.211 72.3157 286.78 72.2294C286.349 72.143 285.95 71.9369 285.631 71.6345C285.311 71.3321 285.083 70.9457 284.972 70.5196C283.319 67.0441 279.176 59.4717 282.64 57.0041C285.498 54.9672 288.718 61.0884 288.718 61.0884C289.437 56.524 289.67 51.8959 289.411 47.2823C288.55 39.47 290.386 37.5499 291.637 36.8094C294.047 35.3814 297.959 38.5428 306.769 37.2337C315.579 35.9246 317.002 33.5864 320.243 34.206C323.255 34.7789 325.49 36.7309 325.274 42.9773C325.093 48.2349 328.498 58.9943 328.498 58.9943C328.498 58.9943 330.87 53.8597 332.102 54.1312C336.418 55.0818 335.243 69.0237 329.456 70.1822C329.273 73.7177 328.662 77.2179 327.637 80.6063C326.23 84.8986 322.842 94.5079 316.228 95.6707C309.614 96.8334 304.456 96.7973 298.703 90.8713C293.413 85.6196 290.035 78.7457 289.106 71.347Z" fill="#EABBAE"/>
<path d="M390.388 186.591C390.388 186.591 408.166 208.148 417.96 193.89C424.169 184.849 417.129 186.523 412.035 187.434C407.203 188.297 403.299 185.356 399.966 185.176C396.707 184.902 393.429 185.386 390.388 186.591Z" fill="#4369B6"/>
<path d="M273.932 259.609L270.262 289.36C270.262 289.36 344.56 291.543 376.641 289.264L371.195 255.34C371.195 255.34 339.683 263.402 320.254 263.402C304.754 263.014 289.288 261.748 273.932 259.609Z" fill="#393939" fill-opacity="0.18"/>
<path d="M369.989 158.512L369.73 149.24C369.73 149.24 380.268 154.617 383.885 163.819L377.555 167.786L369.989 158.512Z" fill="#4369B6"/>
<path d="M258.229 139.061H353.042C354.177 139.061 355.265 139.512 356.067 140.315C356.869 141.118 357.32 142.207 357.32 143.342V198.987C357.32 199.479 357.125 199.952 356.777 200.3C356.429 200.648 355.957 200.843 355.465 200.843H255.806C255.314 200.843 254.843 200.648 254.495 200.3C254.147 199.952 253.952 199.479 253.952 198.987V143.342C253.952 142.207 254.402 141.118 255.205 140.315C256.007 139.512 257.095 139.061 258.229 139.061V139.061Z" fill="#30384D"/>
<path d="M258.624 195.988H352.48V143.647H258.624V195.988Z" fill="white"/>
<path d="M369.255 221.118H241.052C240.733 221.131 240.418 221.052 240.143 220.891C239.868 220.729 239.645 220.493 239.5 220.208C239.356 219.924 239.295 219.604 239.327 219.286C239.359 218.969 239.48 218.667 239.678 218.417L253.509 201.443C253.771 201.121 254.102 200.862 254.477 200.684C254.852 200.506 255.262 200.414 255.677 200.414H356.033C356.346 200.414 356.654 200.486 356.934 200.625C357.213 200.764 357.457 200.965 357.647 201.214L370.701 218.383C370.895 218.643 371.011 218.952 371.036 219.275C371.061 219.598 370.994 219.922 370.842 220.208C370.691 220.495 370.461 220.732 370.18 220.893C369.899 221.054 369.579 221.132 369.255 221.118Z" fill="#DBDBDB"/>
<path d="M239.678 218.418L253.559 201.391C253.806 201.089 254.117 200.846 254.469 200.678C254.822 200.511 255.207 200.424 255.597 200.424H356.048C356.355 200.424 356.659 200.495 356.934 200.631C357.21 200.768 357.45 200.966 357.636 201.211L370.701 218.397C370.629 218.584 239.983 218.306 239.678 218.418Z" fill="#F6F6F6"/>
<path d="M252.078 208.7L251.109 209.88C251.073 209.923 251.051 209.975 251.044 210.03C251.037 210.085 251.046 210.141 251.07 210.192C251.094 210.242 251.131 210.285 251.178 210.314C251.225 210.344 251.28 210.359 251.336 210.359H256.161C256.206 210.36 256.251 210.349 256.292 210.329C256.333 210.309 256.369 210.279 256.396 210.243L257.244 209.103C257.277 209.06 257.297 209.008 257.303 208.954C257.308 208.9 257.299 208.846 257.275 208.797C257.251 208.748 257.214 208.707 257.168 208.678C257.122 208.648 257.069 208.633 257.015 208.632L252.296 208.592C252.254 208.593 252.213 208.604 252.175 208.622C252.137 208.641 252.104 208.667 252.078 208.7Z" fill="#30384D"/>
<path d="M259.075 208.743L258.274 209.819C258.238 209.868 258.215 209.926 258.21 209.987C258.205 210.048 258.217 210.11 258.244 210.165C258.271 210.219 258.314 210.265 258.366 210.298C258.418 210.33 258.478 210.347 258.539 210.347H263.311C263.362 210.347 263.412 210.335 263.458 210.313C263.504 210.29 263.543 210.257 263.574 210.216L264.386 209.138C264.422 209.089 264.444 209.03 264.45 208.97C264.455 208.909 264.443 208.848 264.416 208.793C264.389 208.738 264.347 208.692 264.295 208.66C264.244 208.627 264.184 208.61 264.123 208.609H259.336C259.285 208.609 259.235 208.621 259.19 208.645C259.144 208.668 259.105 208.702 259.075 208.743Z" fill="#30384D"/>
<path d="M266.315 208.75L265.52 209.852C265.486 209.898 265.466 209.953 265.462 210.01C265.457 210.067 265.469 210.124 265.495 210.175C265.52 210.226 265.56 210.269 265.608 210.299C265.657 210.329 265.713 210.345 265.77 210.346H270.584C270.636 210.346 270.687 210.332 270.733 210.308C270.778 210.283 270.817 210.247 270.845 210.204L271.555 209.103C271.586 209.056 271.603 209.002 271.606 208.946C271.608 208.89 271.595 208.835 271.569 208.786C271.542 208.737 271.503 208.695 271.455 208.667C271.407 208.638 271.352 208.623 271.297 208.623H266.563C266.514 208.623 266.466 208.634 266.423 208.656C266.38 208.678 266.343 208.711 266.315 208.75Z" fill="#30384D"/>
<path d="M273.135 208.778L272.441 209.782C272.404 209.836 272.382 209.9 272.378 209.966C272.374 210.032 272.388 210.098 272.419 210.157C272.45 210.215 272.496 210.264 272.553 210.298C272.609 210.333 272.674 210.351 272.74 210.35H279.454C279.523 210.35 279.59 210.33 279.647 210.292C279.705 210.254 279.75 210.201 279.778 210.138L280.27 209.141C280.297 209.086 280.31 209.025 280.306 208.964C280.303 208.903 280.285 208.843 280.253 208.791C280.221 208.739 280.176 208.696 280.123 208.666C280.069 208.636 280.009 208.62 279.948 208.619H273.421C273.364 208.62 273.308 208.635 273.258 208.662C273.208 208.69 273.165 208.73 273.135 208.778Z" fill="#30384D"/>
<path d="M281.572 208.779L281.072 209.84C281.047 209.893 281.036 209.952 281.04 210.01C281.044 210.069 281.063 210.125 281.094 210.175C281.126 210.224 281.169 210.265 281.22 210.293C281.271 210.321 281.329 210.336 281.387 210.337L315.278 210.36C315.331 210.36 315.382 210.349 315.43 210.326C315.477 210.304 315.519 210.271 315.552 210.23C315.585 210.189 315.608 210.142 315.62 210.091C315.632 210.04 315.633 209.987 315.622 209.936L315.425 208.887C315.41 208.808 315.367 208.736 315.305 208.684C315.243 208.632 315.164 208.603 315.083 208.603L281.886 208.559C281.817 208.559 281.751 208.581 281.695 208.62C281.639 208.66 281.596 208.715 281.572 208.779Z" fill="#30384D"/>
<path d="M323.628 208.809L324.15 209.942C324.171 209.988 324.18 210.038 324.177 210.088C324.173 210.138 324.157 210.186 324.13 210.229C324.103 210.271 324.066 210.306 324.022 210.33C323.978 210.354 323.929 210.367 323.879 210.367L316.843 210.356C316.773 210.356 316.706 210.332 316.653 210.288C316.599 210.244 316.563 210.182 316.55 210.114L316.338 208.962C316.329 208.919 316.33 208.874 316.34 208.831C316.35 208.788 316.37 208.748 316.398 208.714C316.426 208.68 316.461 208.652 316.501 208.633C316.541 208.615 316.584 208.605 316.629 208.605L323.372 208.635C323.427 208.637 323.48 208.655 323.525 208.685C323.57 208.716 323.606 208.759 323.628 208.809Z" fill="#30384D"/>
<path d="M330.87 208.722L331.529 210.14C331.539 210.163 331.543 210.188 331.541 210.213C331.539 210.238 331.53 210.262 331.517 210.282C331.503 210.303 331.485 210.321 331.463 210.333C331.441 210.345 331.416 210.351 331.392 210.352H325.42C325.391 210.352 325.363 210.343 325.339 210.328C325.314 210.313 325.295 210.291 325.282 210.265L324.604 208.839C324.593 208.816 324.589 208.791 324.591 208.766C324.593 208.741 324.601 208.717 324.614 208.696C324.628 208.675 324.646 208.658 324.668 208.646C324.69 208.634 324.714 208.627 324.739 208.627L330.736 208.642C330.764 208.641 330.791 208.649 330.815 208.663C330.839 208.677 330.858 208.698 330.87 208.722Z" fill="#30384D"/>
<path d="M337.98 208.78L338.576 209.949C338.597 209.991 338.607 210.038 338.605 210.085C338.603 210.132 338.59 210.178 338.565 210.219C338.54 210.259 338.506 210.292 338.465 210.316C338.424 210.339 338.377 210.351 338.33 210.352L332.678 210.367C332.623 210.367 332.569 210.351 332.524 210.32C332.478 210.289 332.443 210.246 332.422 210.195L331.943 209.026C331.925 208.984 331.918 208.939 331.923 208.893C331.927 208.848 331.942 208.805 331.967 208.767C331.992 208.73 332.026 208.699 332.066 208.677C332.105 208.656 332.15 208.644 332.195 208.644L337.738 208.629C337.789 208.629 337.838 208.643 337.881 208.669C337.924 208.696 337.958 208.734 337.98 208.78Z" fill="#30384D"/>
<path d="M344.925 208.78L345.646 209.868C345.678 209.916 345.697 209.973 345.7 210.031C345.702 210.089 345.689 210.147 345.661 210.199C345.634 210.25 345.593 210.293 345.542 210.322C345.492 210.352 345.435 210.367 345.377 210.367L339.992 210.35C339.936 210.349 339.881 210.334 339.833 210.306C339.785 210.279 339.745 210.239 339.716 210.191L339.08 209.113C339.052 209.064 339.036 209.008 339.036 208.951C339.035 208.895 339.05 208.839 339.078 208.79C339.106 208.74 339.147 208.7 339.196 208.671C339.246 208.643 339.301 208.628 339.358 208.629H344.658C344.711 208.629 344.764 208.644 344.811 208.67C344.857 208.696 344.897 208.734 344.925 208.78Z" fill="#30384D"/>
<path d="M351.749 208.745L352.597 209.897C352.629 209.94 352.649 209.992 352.654 210.045C352.659 210.099 352.649 210.153 352.624 210.201C352.6 210.25 352.563 210.29 352.517 210.318C352.471 210.346 352.418 210.361 352.364 210.36H347.064C347.015 210.36 346.967 210.347 346.924 210.324C346.881 210.3 346.844 210.266 346.818 210.224L346.097 209.078C346.069 209.035 346.053 208.984 346.051 208.932C346.049 208.88 346.061 208.828 346.086 208.783C346.111 208.737 346.148 208.699 346.193 208.673C346.238 208.646 346.289 208.632 346.341 208.633H351.52C351.564 208.632 351.608 208.642 351.648 208.662C351.688 208.681 351.722 208.71 351.749 208.745Z" fill="#30384D"/>
<path d="M358.726 208.76L359.529 209.838C359.565 209.887 359.587 209.945 359.592 210.005C359.597 210.066 359.585 210.126 359.558 210.181C359.531 210.235 359.489 210.28 359.438 210.312C359.386 210.344 359.327 210.362 359.266 210.362H353.994C353.942 210.361 353.89 210.348 353.844 210.324C353.797 210.299 353.757 210.264 353.727 210.222L352.979 209.15C352.944 209.102 352.924 209.045 352.919 208.985C352.915 208.926 352.927 208.866 352.954 208.813C352.981 208.76 353.022 208.715 353.073 208.684C353.124 208.652 353.182 208.635 353.241 208.635H358.475C358.524 208.635 358.572 208.647 358.615 208.668C358.658 208.69 358.696 208.721 358.726 208.76Z" fill="#30384D"/>
<path d="M357.49 206.846L358.1 207.769C358.128 207.812 358.145 207.862 358.147 207.913C358.15 207.964 358.138 208.015 358.114 208.06C358.09 208.105 358.054 208.143 358.01 208.17C357.966 208.196 357.916 208.21 357.865 208.211H352.468C352.419 208.211 352.37 208.198 352.328 208.174C352.285 208.149 352.249 208.115 352.224 208.073L351.664 207.139C351.64 207.096 351.627 207.048 351.627 206.998C351.627 206.949 351.641 206.9 351.665 206.857C351.69 206.815 351.725 206.779 351.768 206.754C351.81 206.729 351.859 206.715 351.908 206.715H357.252C357.3 206.715 357.346 206.727 357.388 206.75C357.429 206.773 357.464 206.806 357.49 206.846Z" fill="#30384D"/>
<path d="M253.615 206.776L252.845 207.724C252.811 207.766 252.79 207.816 252.783 207.868C252.777 207.921 252.785 207.975 252.807 208.023C252.829 208.072 252.864 208.113 252.908 208.143C252.952 208.173 253.004 208.189 253.057 208.191H266.37C266.416 208.191 266.461 208.181 266.502 208.16C266.543 208.139 266.579 208.108 266.605 208.07L267.241 207.16C267.272 207.117 267.29 207.067 267.293 207.014C267.297 206.962 267.286 206.91 267.262 206.863C267.238 206.816 267.201 206.777 267.157 206.75C267.112 206.723 267.061 206.708 267.008 206.708C264.61 206.708 255.109 206.721 253.841 206.67C253.798 206.67 253.755 206.679 253.716 206.698C253.677 206.716 253.642 206.743 253.615 206.776Z" fill="#30384D"/>
<path d="M268.592 206.767L267.78 207.915C267.76 207.943 267.748 207.976 267.746 208.01C267.743 208.045 267.75 208.079 267.766 208.109C267.782 208.14 267.806 208.165 267.835 208.183C267.864 208.201 267.898 208.21 267.932 208.21H273.586C273.619 208.211 273.652 208.202 273.68 208.186C273.709 208.169 273.733 208.146 273.749 208.117L274.404 206.992C274.421 206.964 274.429 206.932 274.429 206.9C274.429 206.867 274.421 206.835 274.405 206.807C274.389 206.778 274.366 206.755 274.338 206.738C274.31 206.722 274.278 206.713 274.245 206.712C273.118 206.712 269.389 206.68 268.734 206.689C268.706 206.69 268.678 206.698 268.654 206.712C268.629 206.726 268.608 206.745 268.592 206.767Z" fill="#30384D"/>
<path d="M275.437 206.81L274.818 207.92C274.802 207.949 274.794 207.981 274.794 208.014C274.795 208.047 274.804 208.079 274.821 208.107C274.837 208.136 274.861 208.159 274.89 208.175C274.918 208.192 274.95 208.2 274.983 208.2H280.429C280.465 208.2 280.5 208.19 280.531 208.171C280.561 208.152 280.585 208.124 280.601 208.092L281.127 206.984C281.141 206.956 281.147 206.924 281.146 206.892C281.144 206.86 281.134 206.829 281.117 206.802C281.1 206.775 281.077 206.753 281.049 206.738C281.02 206.722 280.989 206.714 280.957 206.715H275.598C275.565 206.715 275.533 206.724 275.504 206.741C275.476 206.757 275.453 206.781 275.437 206.81Z" fill="#30384D"/>
<path d="M282.424 206.821L281.875 207.958C281.862 207.985 281.855 208.016 281.857 208.047C281.859 208.077 281.868 208.107 281.885 208.133C281.901 208.159 281.924 208.18 281.951 208.195C281.977 208.209 282.008 208.217 282.038 208.217H287.512C287.549 208.217 287.585 208.206 287.616 208.185C287.646 208.163 287.669 208.133 287.681 208.098L288.093 206.961C288.103 206.934 288.107 206.905 288.104 206.876C288.101 206.847 288.091 206.819 288.075 206.795C288.058 206.771 288.036 206.752 288.011 206.739C287.985 206.725 287.956 206.718 287.927 206.719H282.583C282.549 206.718 282.516 206.728 282.488 206.746C282.46 206.764 282.438 206.79 282.424 206.821Z" fill="#30384D"/>
<path d="M288.981 206.935L288.69 207.863C288.676 207.907 288.673 207.954 288.681 208C288.688 208.046 288.706 208.089 288.734 208.126C288.761 208.164 288.797 208.194 288.839 208.215C288.88 208.236 288.926 208.247 288.972 208.247H294.211C294.28 208.247 294.347 208.222 294.4 208.178C294.453 208.133 294.489 208.071 294.501 208.003L294.671 207.063C294.678 207.02 294.677 206.976 294.666 206.935C294.655 206.893 294.635 206.854 294.607 206.821C294.579 206.787 294.545 206.761 294.505 206.742C294.466 206.724 294.423 206.715 294.38 206.715L289.259 206.73C289.196 206.729 289.136 206.749 289.085 206.786C289.035 206.823 288.999 206.876 288.981 206.935Z" fill="#30384D"/>
<path d="M295.576 207.031L295.502 207.839C295.497 207.887 295.502 207.935 295.517 207.98C295.532 208.025 295.557 208.067 295.589 208.102C295.621 208.137 295.66 208.165 295.704 208.184C295.748 208.203 295.795 208.213 295.843 208.212H301.013C301.104 208.212 301.19 208.177 301.255 208.113C301.319 208.05 301.356 207.963 301.357 207.873V207.065C301.357 207.019 301.349 206.974 301.332 206.933C301.315 206.891 301.29 206.852 301.258 206.82C301.227 206.788 301.189 206.763 301.147 206.745C301.105 206.728 301.061 206.719 301.015 206.719H295.917C295.831 206.718 295.749 206.75 295.686 206.808C295.622 206.866 295.583 206.945 295.576 207.031Z" fill="#30384D"/>
<path d="M302.357 207.016L302.383 207.928C302.385 208.003 302.416 208.075 302.47 208.127C302.524 208.18 302.596 208.209 302.671 208.208H307.956C307.997 208.208 308.037 208.2 308.074 208.183C308.111 208.166 308.144 208.142 308.171 208.112C308.198 208.082 308.218 208.046 308.23 208.008C308.243 207.969 308.247 207.928 308.242 207.888L308.141 206.975C308.134 206.905 308.102 206.84 308.049 206.792C307.997 206.745 307.929 206.718 307.859 206.719H302.644C302.605 206.719 302.567 206.727 302.532 206.742C302.497 206.757 302.465 206.779 302.438 206.807C302.411 206.835 302.391 206.867 302.377 206.903C302.363 206.939 302.356 206.977 302.357 207.016Z" fill="#30384D"/>
<path d="M309.33 207.042L309.444 207.948C309.454 208.021 309.489 208.087 309.543 208.135C309.598 208.183 309.668 208.209 309.741 208.209H314.998C315.043 208.209 315.087 208.2 315.127 208.18C315.167 208.161 315.202 208.133 315.23 208.099C315.258 208.064 315.278 208.024 315.288 207.98C315.298 207.937 315.298 207.892 315.289 207.849L315.098 206.943C315.085 206.876 315.05 206.816 314.998 206.773C314.945 206.729 314.88 206.705 314.812 206.705H309.622C309.58 206.705 309.538 206.715 309.5 206.732C309.462 206.75 309.427 206.775 309.4 206.807C309.372 206.839 309.351 206.877 309.339 206.917C309.327 206.958 309.324 207.001 309.33 207.042Z" fill="#30384D"/>
<path d="M316.099 207.093L316.311 207.979C316.327 208.045 316.364 208.103 316.417 208.145C316.47 208.186 316.536 208.209 316.603 208.209H321.837C321.885 208.209 321.932 208.197 321.975 208.176C322.017 208.154 322.054 208.122 322.082 208.084C322.11 208.045 322.128 208 322.135 207.953C322.143 207.905 322.139 207.857 322.123 207.812L321.831 206.927C321.813 206.866 321.776 206.812 321.725 206.774C321.674 206.736 321.612 206.715 321.549 206.715H316.381C316.335 206.716 316.291 206.727 316.25 206.748C316.21 206.769 316.175 206.798 316.148 206.835C316.12 206.871 316.102 206.913 316.093 206.958C316.085 207.003 316.087 207.049 316.099 207.093Z" fill="#30384D"/>
<path d="M322.861 207.082L323.211 208.045C323.229 208.099 323.264 208.145 323.31 208.178C323.356 208.21 323.411 208.228 323.467 208.228H328.74C328.786 208.228 328.831 208.216 328.871 208.195C328.912 208.173 328.946 208.141 328.971 208.102C328.996 208.064 329.011 208.019 329.015 207.974C329.019 207.928 329.011 207.882 328.992 207.84L328.568 206.876C328.546 206.828 328.511 206.787 328.467 206.758C328.422 206.729 328.371 206.713 328.318 206.713H323.12C323.075 206.713 323.032 206.723 322.992 206.743C322.953 206.764 322.919 206.793 322.893 206.829C322.868 206.866 322.852 206.908 322.846 206.952C322.84 206.996 322.846 207.04 322.861 207.082Z" fill="#30384D"/>
<path d="M329.857 207.058L330.268 208.055C330.286 208.101 330.317 208.14 330.358 208.167C330.398 208.194 330.446 208.209 330.495 208.208H335.82C335.861 208.207 335.902 208.196 335.937 208.175C335.973 208.154 336.003 208.125 336.024 208.09C336.045 208.054 336.057 208.014 336.058 207.973C336.06 207.932 336.051 207.891 336.032 207.854L335.538 206.857C335.519 206.816 335.489 206.782 335.452 206.757C335.414 206.733 335.371 206.719 335.326 206.719H330.077C330.037 206.719 329.998 206.73 329.963 206.749C329.928 206.769 329.898 206.796 329.877 206.83C329.855 206.863 329.842 206.902 329.838 206.941C329.835 206.981 329.841 207.021 329.857 207.058Z" fill="#30384D"/>
<path d="M336.666 207.082L337.137 208.073C337.158 208.117 337.191 208.154 337.232 208.18C337.273 208.206 337.321 208.219 337.37 208.219H344.323C344.368 208.219 344.412 208.207 344.451 208.185C344.49 208.163 344.522 208.13 344.545 208.091C344.567 208.052 344.579 208.008 344.579 207.963C344.58 207.918 344.568 207.874 344.546 207.835L343.992 206.846C343.971 206.808 343.941 206.776 343.904 206.753C343.866 206.73 343.824 206.717 343.78 206.715H336.901C336.857 206.714 336.814 206.724 336.775 206.744C336.737 206.765 336.704 206.795 336.68 206.832C336.656 206.869 336.643 206.911 336.64 206.955C336.638 206.999 336.647 207.043 336.666 207.082Z" fill="#30384D"/>
<path d="M344.908 207.118L345.491 208.081C345.514 208.12 345.547 208.152 345.587 208.174C345.626 208.197 345.67 208.208 345.716 208.208H351.056C351.104 208.208 351.15 208.194 351.191 208.169C351.231 208.144 351.264 208.108 351.286 208.065C351.308 208.023 351.318 207.975 351.315 207.927C351.311 207.88 351.295 207.834 351.268 207.795L350.604 206.831C350.581 206.796 350.55 206.767 350.513 206.747C350.476 206.727 350.434 206.717 350.392 206.717H345.12C345.074 206.719 345.03 206.733 344.991 206.757C344.952 206.782 344.921 206.816 344.899 206.857C344.878 206.897 344.868 206.943 344.869 206.988C344.871 207.034 344.884 207.079 344.908 207.118Z" fill="#30384D"/>
<path d="M264.14 206.467H254.274C254.232 206.467 254.19 206.455 254.154 206.433C254.118 206.411 254.089 206.379 254.07 206.341C254.051 206.304 254.042 206.262 254.045 206.219C254.048 206.177 254.063 206.137 254.087 206.102L254.626 205.353C254.647 205.323 254.675 205.299 254.707 205.282C254.74 205.265 254.776 205.256 254.812 205.256L264.788 205.232C264.832 205.232 264.875 205.244 264.912 205.268C264.949 205.291 264.979 205.325 264.998 205.365C265.016 205.405 265.023 205.449 265.017 205.492C265.011 205.536 264.993 205.577 264.964 205.61L264.316 206.385C264.294 206.41 264.267 206.431 264.237 206.446C264.207 206.46 264.173 206.467 264.14 206.467Z" fill="#30384D"/>
<path d="M271.15 206.445H265.507C265.462 206.445 265.418 206.432 265.38 206.408C265.342 206.384 265.312 206.349 265.293 206.309C265.274 206.268 265.267 206.222 265.273 206.177C265.279 206.133 265.298 206.091 265.327 206.057L265.921 205.354C265.943 205.328 265.97 205.307 266.001 205.293C266.033 205.278 266.066 205.271 266.101 205.271H271.612C271.655 205.271 271.697 205.282 271.734 205.304C271.771 205.326 271.801 205.358 271.822 205.395C271.842 205.433 271.852 205.476 271.849 205.519C271.847 205.562 271.834 205.603 271.81 205.639L271.341 206.345C271.319 206.376 271.291 206.401 271.258 206.418C271.225 206.435 271.188 206.444 271.15 206.445Z" fill="#30384D"/>
<path d="M278.002 206.445H272.316C272.271 206.445 272.227 206.434 272.189 206.411C272.15 206.389 272.118 206.356 272.096 206.317C272.075 206.278 272.064 206.234 272.065 206.189C272.067 206.144 272.08 206.101 272.104 206.063L272.528 205.386C272.551 205.351 272.582 205.321 272.619 205.301C272.656 205.281 272.698 205.271 272.74 205.272H278.405C278.448 205.272 278.491 205.283 278.529 205.306C278.567 205.328 278.598 205.359 278.62 205.398C278.641 205.436 278.652 205.479 278.652 205.523C278.651 205.567 278.639 205.609 278.617 205.647L278.21 206.328C278.188 206.364 278.157 206.393 278.121 206.414C278.085 206.434 278.044 206.445 278.002 206.445Z" fill="#30384D"/>
<path d="M284.491 206.446H279.055C279.017 206.445 278.978 206.435 278.945 206.415C278.911 206.396 278.883 206.368 278.863 206.334C278.844 206.301 278.833 206.263 278.833 206.224C278.832 206.185 278.842 206.147 278.86 206.113L279.263 205.387C279.283 205.352 279.311 205.324 279.345 205.304C279.38 205.283 279.419 205.273 279.458 205.272L284.925 205.262C284.965 205.261 285.004 205.272 285.038 205.291C285.073 205.311 285.101 205.339 285.121 205.374C285.14 205.408 285.15 205.447 285.15 205.487C285.15 205.526 285.139 205.565 285.118 205.599L284.682 206.331C284.664 206.366 284.636 206.395 284.602 206.415C284.569 206.436 284.53 206.446 284.491 206.446Z" fill="#30384D"/>
<path d="M291.094 206.459H285.714C285.673 206.459 285.633 206.447 285.597 206.426C285.561 206.406 285.532 206.376 285.51 206.341C285.489 206.306 285.477 206.265 285.476 206.224C285.474 206.183 285.483 206.142 285.502 206.105L285.854 205.407C285.874 205.368 285.904 205.334 285.942 205.311C285.979 205.287 286.022 205.274 286.066 205.273H291.376C291.416 205.273 291.456 205.283 291.491 205.302C291.526 205.32 291.557 205.348 291.579 205.381C291.601 205.414 291.615 205.452 291.619 205.492C291.624 205.531 291.618 205.572 291.603 205.609L291.319 206.313C291.3 206.357 291.268 206.394 291.228 206.42C291.189 206.446 291.142 206.459 291.094 206.459Z" fill="#30384D"/>
<path d="M298.101 206.457H292.672C292.634 206.457 292.598 206.447 292.565 206.429C292.533 206.412 292.505 206.386 292.484 206.356C292.463 206.325 292.45 206.289 292.446 206.252C292.442 206.216 292.446 206.178 292.46 206.143L292.723 205.424C292.739 205.381 292.768 205.343 292.805 205.316C292.843 205.289 292.888 205.274 292.935 205.273H298.292C298.327 205.273 298.363 205.281 298.395 205.297C298.427 205.313 298.455 205.335 298.477 205.364C298.499 205.392 298.513 205.425 298.52 205.46C298.527 205.496 298.526 205.532 298.516 205.566L298.325 206.29C298.311 206.338 298.282 206.381 298.241 206.411C298.2 206.441 298.151 206.458 298.101 206.457Z" fill="#30384D"/>
<path d="M304.727 206.444H299.409C299.366 206.444 299.323 206.434 299.284 206.416C299.245 206.397 299.211 206.371 299.183 206.338C299.156 206.304 299.136 206.266 299.125 206.224C299.114 206.182 299.113 206.139 299.12 206.096L299.231 205.494C299.243 205.426 299.279 205.365 299.331 205.322C299.384 205.278 299.45 205.254 299.519 205.254H304.776C304.817 205.254 304.857 205.263 304.894 205.279C304.931 205.295 304.965 205.319 304.993 205.349C305.02 205.379 305.041 205.414 305.055 205.452C305.068 205.491 305.074 205.532 305.071 205.572L305.02 206.179C305.013 206.252 304.979 206.319 304.925 206.368C304.871 206.418 304.8 206.445 304.727 206.444Z" fill="#30384D"/>
<path d="M311.547 206.444H306.173C306.108 206.444 306.045 206.42 305.996 206.377C305.947 206.334 305.916 206.274 305.908 206.209L305.832 205.572C305.827 205.535 305.831 205.497 305.842 205.461C305.854 205.425 305.872 205.392 305.897 205.364C305.922 205.336 305.953 205.313 305.988 205.298C306.022 205.283 306.059 205.275 306.097 205.275H311.397C311.458 205.276 311.517 205.297 311.565 205.335C311.612 205.374 311.645 205.428 311.657 205.488L311.797 206.124C311.805 206.162 311.805 206.201 311.796 206.239C311.788 206.277 311.771 206.312 311.747 206.343C311.723 206.373 311.693 206.398 311.658 206.416C311.624 206.433 311.586 206.443 311.547 206.444Z" fill="#30384D"/>
<path d="M318.299 206.445H312.866C312.813 206.445 312.762 206.427 312.721 206.394C312.68 206.361 312.651 206.316 312.639 206.264L312.474 205.558C312.466 205.524 312.465 205.488 312.473 205.454C312.481 205.42 312.496 205.387 312.518 205.36C312.54 205.332 312.567 205.31 312.599 205.295C312.631 205.279 312.665 205.272 312.7 205.271H318.062C318.109 205.274 318.155 205.29 318.193 205.319C318.23 205.348 318.259 205.388 318.274 205.433L318.511 206.144C318.521 206.178 318.524 206.213 318.518 206.249C318.513 206.284 318.499 206.317 318.479 206.346C318.458 206.375 318.431 206.399 318.4 206.416C318.369 206.433 318.334 206.443 318.299 206.445Z" fill="#30384D"/>
<path d="M325.093 206.445H319.821C319.757 206.445 319.695 206.425 319.644 206.387C319.593 206.348 319.555 206.295 319.537 206.233L319.348 205.658C319.334 205.613 319.33 205.565 319.337 205.519C319.345 205.472 319.363 205.427 319.39 205.389C319.418 205.35 319.454 205.319 319.496 205.297C319.539 205.276 319.585 205.264 319.632 205.264H324.845C324.904 205.264 324.962 205.281 325.011 205.313C325.06 205.346 325.098 205.392 325.121 205.446L325.369 206.027C325.389 206.073 325.397 206.123 325.392 206.172C325.388 206.222 325.371 206.27 325.344 206.311C325.317 206.353 325.28 206.387 325.236 206.41C325.192 206.434 325.143 206.446 325.093 206.445Z" fill="#30384D"/>
<path d="M331.947 206.445H326.575C326.521 206.445 326.469 206.428 326.426 206.396C326.382 206.365 326.35 206.32 326.334 206.269L326.122 205.603C326.109 205.564 326.106 205.524 326.112 205.484C326.119 205.445 326.134 205.407 326.158 205.375C326.181 205.342 326.212 205.316 326.248 205.297C326.284 205.279 326.323 205.27 326.363 205.27H331.663C331.713 205.269 331.762 205.284 331.804 205.311C331.846 205.339 331.879 205.378 331.898 205.424L332.184 206.095C332.2 206.134 332.205 206.176 332.2 206.217C332.196 206.258 332.181 206.298 332.158 206.332C332.134 206.367 332.103 206.395 332.066 206.415C332.03 206.434 331.989 206.445 331.947 206.445Z" fill="#30384D"/>
<path d="M338.493 206.445H333.255C333.202 206.445 333.149 206.43 333.104 206.403C333.058 206.375 333.021 206.335 332.996 206.288L332.685 205.696C332.662 205.651 332.652 205.602 332.654 205.552C332.656 205.503 332.67 205.454 332.696 205.412C332.722 205.369 332.758 205.334 332.802 205.31C332.845 205.285 332.894 205.272 332.943 205.271H338.118C338.168 205.271 338.217 205.284 338.261 205.308C338.305 205.332 338.342 205.367 338.368 205.409L338.741 206.008C338.766 206.052 338.779 206.102 338.779 206.152C338.779 206.203 338.766 206.253 338.741 206.297C338.716 206.341 338.68 206.378 338.637 206.403C338.593 206.429 338.544 206.444 338.493 206.445Z" fill="#30384D"/>
<path d="M349.911 206.459H339.82C339.768 206.459 339.717 206.444 339.672 206.417C339.627 206.391 339.591 206.352 339.566 206.306L339.25 205.706C339.227 205.662 339.215 205.612 339.216 205.563C339.218 205.513 339.232 205.464 339.257 205.421C339.283 205.379 339.319 205.343 339.362 205.319C339.406 205.294 339.455 205.281 339.504 205.281H349.54C349.589 205.282 349.637 205.294 349.679 205.318C349.722 205.342 349.758 205.376 349.784 205.417L350.163 206.024C350.189 206.068 350.203 206.118 350.203 206.169C350.203 206.221 350.19 206.271 350.164 206.315C350.139 206.359 350.102 206.396 350.057 206.421C350.013 206.447 349.962 206.459 349.911 206.459Z" fill="#30384D"/>
<path d="M356.646 206.459H351.524C351.478 206.459 351.433 206.448 351.392 206.426C351.352 206.405 351.317 206.374 351.291 206.336L350.867 205.723C350.838 205.68 350.821 205.631 350.818 205.58C350.815 205.529 350.826 205.478 350.85 205.432C350.874 205.387 350.91 205.349 350.953 205.322C350.997 205.296 351.047 205.282 351.098 205.281H356.186C356.23 205.281 356.274 205.292 356.314 205.311C356.354 205.331 356.388 205.36 356.415 205.396L356.864 206.015C356.893 206.057 356.91 206.105 356.914 206.156C356.918 206.206 356.908 206.256 356.886 206.302C356.864 206.347 356.83 206.385 356.787 206.413C356.745 206.441 356.696 206.457 356.646 206.459Z" fill="#30384D"/>
<path d="M355.575 204.879H350.528C350.498 204.879 350.469 204.872 350.443 204.858C350.417 204.844 350.394 204.824 350.377 204.8L349.824 203.983C349.806 203.956 349.795 203.925 349.793 203.892C349.791 203.859 349.798 203.827 349.813 203.798C349.829 203.768 349.851 203.744 349.88 203.727C349.908 203.71 349.94 203.701 349.972 203.701H354.978C355.006 203.701 355.034 203.708 355.059 203.721C355.084 203.734 355.105 203.753 355.122 203.775L355.722 204.597C355.74 204.623 355.751 204.655 355.753 204.687C355.755 204.72 355.748 204.752 355.733 204.781C355.718 204.81 355.695 204.835 355.668 204.852C355.64 204.869 355.608 204.878 355.575 204.879Z" fill="#30384D"/>
<path d="M354.331 203.183H349.36C349.325 203.184 349.291 203.176 349.261 203.16C349.23 203.144 349.204 203.121 349.184 203.092L348.671 202.335C348.65 202.303 348.638 202.266 348.636 202.228C348.634 202.19 348.643 202.152 348.66 202.119C348.678 202.085 348.705 202.057 348.737 202.037C348.77 202.017 348.807 202.006 348.845 202.006H353.776C353.809 202.006 353.842 202.014 353.872 202.029C353.902 202.044 353.928 202.066 353.947 202.093L354.501 202.852C354.522 202.884 354.534 202.921 354.537 202.958C354.539 202.996 354.531 203.034 354.514 203.068C354.496 203.102 354.47 203.131 354.438 203.151C354.406 203.171 354.369 203.182 354.331 203.183Z" fill="#30384D"/>
<path d="M349.019 205.038H344.122C344.079 205.037 344.037 205.025 344 205.004C343.963 204.982 343.932 204.952 343.91 204.915L343.361 204.013C343.337 203.975 343.324 203.931 343.323 203.886C343.322 203.841 343.333 203.797 343.354 203.757C343.376 203.718 343.407 203.684 343.445 203.661C343.484 203.637 343.528 203.624 343.573 203.623H348.472C348.514 203.624 348.556 203.636 348.593 203.658C348.63 203.679 348.661 203.71 348.684 203.746L349.235 204.652C349.257 204.691 349.269 204.735 349.27 204.779C349.27 204.824 349.259 204.868 349.237 204.907C349.215 204.946 349.184 204.979 349.145 205.002C349.107 205.025 349.063 205.037 349.019 205.038Z" fill="#30384D"/>
<path d="M342.665 204.997H337.643C337.597 204.998 337.551 204.986 337.511 204.963C337.471 204.939 337.437 204.906 337.414 204.866L336.899 203.981C336.876 203.94 336.864 203.895 336.865 203.848C336.865 203.801 336.877 203.756 336.901 203.715C336.924 203.675 336.957 203.641 336.998 203.618C337.038 203.595 337.084 203.582 337.13 203.582H342.114C342.159 203.582 342.203 203.594 342.243 203.616C342.282 203.637 342.315 203.669 342.339 203.707L342.892 204.596C342.916 204.636 342.929 204.682 342.929 204.729C342.93 204.776 342.918 204.822 342.895 204.863C342.872 204.903 342.839 204.937 342.798 204.961C342.758 204.985 342.712 204.997 342.665 204.997Z" fill="#30384D"/>
<path d="M336.117 205.038H331.016C330.958 205.038 330.9 205.022 330.85 204.992C330.799 204.961 330.758 204.918 330.73 204.866L330.319 204.103C330.292 204.053 330.279 203.997 330.28 203.941C330.281 203.885 330.297 203.83 330.326 203.781C330.354 203.733 330.395 203.693 330.444 203.665C330.493 203.637 330.549 203.623 330.605 203.623H335.64C335.695 203.623 335.749 203.637 335.797 203.664C335.846 203.69 335.886 203.729 335.915 203.776L336.395 204.546C336.424 204.595 336.44 204.651 336.441 204.709C336.442 204.766 336.428 204.823 336.399 204.873C336.371 204.923 336.33 204.965 336.28 204.994C336.231 205.023 336.174 205.038 336.117 205.038Z" fill="#30384D"/>
<path d="M329.619 205H324.184C324.146 205 324.11 204.989 324.079 204.968C324.047 204.947 324.023 204.918 324.008 204.883L323.584 203.893C323.571 203.863 323.566 203.831 323.569 203.799C323.572 203.767 323.583 203.736 323.6 203.71C323.618 203.683 323.642 203.661 323.67 203.646C323.698 203.631 323.73 203.623 323.762 203.623H329.111C329.146 203.623 329.18 203.632 329.21 203.651C329.24 203.669 329.264 203.696 329.28 203.727L329.797 204.722C329.812 204.752 329.819 204.785 329.817 204.818C329.815 204.851 329.804 204.883 329.787 204.911C329.769 204.939 329.744 204.962 329.715 204.978C329.685 204.993 329.652 205.001 329.619 205Z" fill="#30384D"/>
<path d="M323.073 205H317.633C317.594 205 317.555 204.988 317.522 204.965C317.49 204.942 317.465 204.91 317.451 204.873L317.087 203.886C317.076 203.857 317.072 203.825 317.076 203.794C317.08 203.763 317.091 203.733 317.109 203.707C317.127 203.681 317.151 203.66 317.179 203.645C317.206 203.631 317.237 203.623 317.269 203.623H322.622C322.659 203.623 322.696 203.634 322.728 203.654C322.759 203.674 322.784 203.703 322.8 203.738L323.251 204.728C323.264 204.758 323.269 204.79 323.266 204.822C323.263 204.854 323.252 204.885 323.235 204.912C323.217 204.939 323.193 204.961 323.165 204.976C323.137 204.992 323.105 205 323.073 205Z" fill="#30384D"/>
<path d="M316.309 205H310.99C310.934 205 310.879 204.982 310.834 204.948C310.79 204.914 310.758 204.866 310.744 204.811L310.511 203.943C310.501 203.906 310.499 203.867 310.507 203.828C310.514 203.79 310.53 203.754 310.554 203.723C310.577 203.692 310.608 203.667 310.643 203.65C310.677 203.633 310.716 203.623 310.754 203.623H316.003C316.056 203.623 316.107 203.639 316.15 203.67C316.193 203.7 316.225 203.743 316.243 203.793L316.552 204.667C316.565 204.705 316.568 204.746 316.561 204.786C316.555 204.826 316.539 204.863 316.516 204.896C316.492 204.928 316.461 204.955 316.425 204.973C316.389 204.991 316.349 205 316.309 205Z" fill="#30384D"/>
<path d="M309.542 204.989H304.242C304.17 204.989 304.1 204.96 304.049 204.909C303.997 204.859 303.967 204.789 303.966 204.717V203.909C303.966 203.872 303.972 203.837 303.986 203.803C303.999 203.769 304.02 203.739 304.045 203.713C304.071 203.687 304.101 203.667 304.134 203.653C304.168 203.639 304.204 203.633 304.24 203.633H309.474C309.542 203.633 309.608 203.658 309.659 203.704C309.709 203.75 309.741 203.813 309.747 203.881L309.824 204.694C309.827 204.732 309.822 204.771 309.809 204.807C309.796 204.843 309.775 204.876 309.749 204.904C309.722 204.932 309.69 204.954 309.654 204.969C309.618 204.983 309.58 204.99 309.542 204.989Z" fill="#30384D"/>
<path d="M303.019 204.989H297.573C297.542 204.987 297.512 204.978 297.485 204.963C297.458 204.949 297.434 204.928 297.416 204.903C297.397 204.878 297.384 204.85 297.378 204.819C297.372 204.789 297.373 204.758 297.38 204.728L297.677 203.773C297.689 203.732 297.714 203.696 297.748 203.67C297.783 203.645 297.825 203.631 297.867 203.631H303.229C303.258 203.633 303.287 203.64 303.313 203.654C303.339 203.667 303.363 203.686 303.381 203.709C303.4 203.732 303.413 203.759 303.421 203.787C303.429 203.816 303.43 203.846 303.426 203.875L303.214 204.836C303.203 204.88 303.178 204.919 303.143 204.946C303.107 204.974 303.064 204.989 303.019 204.989Z" fill="#30384D"/>
<path d="M296.377 204.989H291.077C291.042 204.99 291.007 204.982 290.975 204.966C290.943 204.949 290.916 204.925 290.896 204.896C290.877 204.866 290.865 204.832 290.861 204.796C290.858 204.761 290.864 204.725 290.878 204.692L291.253 203.767C291.27 203.725 291.299 203.69 291.338 203.666C291.376 203.642 291.42 203.63 291.465 203.634H296.765C296.802 203.63 296.839 203.637 296.872 203.652C296.905 203.668 296.934 203.692 296.956 203.722C296.977 203.752 296.99 203.787 296.994 203.823C296.998 203.86 296.992 203.897 296.977 203.931L296.61 204.86C296.592 204.905 296.559 204.942 296.517 204.966C296.474 204.99 296.425 204.998 296.377 204.989Z" fill="#30384D"/>
<path d="M289.914 204.989H284.34C284.306 204.987 284.273 204.978 284.243 204.96C284.213 204.943 284.188 204.919 284.17 204.89C284.152 204.861 284.14 204.828 284.138 204.794C284.135 204.76 284.14 204.725 284.154 204.694L284.599 203.752C284.616 203.717 284.643 203.687 284.676 203.666C284.709 203.645 284.747 203.634 284.786 203.633H290.329C290.363 203.634 290.397 203.643 290.426 203.66C290.456 203.676 290.481 203.7 290.5 203.728C290.519 203.757 290.53 203.79 290.534 203.824C290.537 203.857 290.533 203.892 290.52 203.923L290.096 204.872C290.08 204.907 290.054 204.936 290.022 204.957C289.99 204.978 289.952 204.989 289.914 204.989Z" fill="#30384D"/>
<path d="M283.191 204.959H277.826C277.797 204.959 277.769 204.951 277.744 204.936C277.719 204.922 277.698 204.901 277.684 204.875C277.669 204.85 277.662 204.822 277.662 204.793C277.662 204.764 277.669 204.736 277.684 204.71L278.28 203.713C278.294 203.689 278.315 203.669 278.339 203.656C278.364 203.642 278.391 203.635 278.42 203.635H283.745C283.773 203.635 283.801 203.643 283.826 203.657C283.851 203.671 283.871 203.691 283.886 203.716C283.9 203.741 283.908 203.768 283.909 203.797C283.909 203.825 283.902 203.854 283.889 203.879L283.333 204.88C283.319 204.905 283.298 204.925 283.273 204.939C283.248 204.953 283.22 204.96 283.191 204.959Z" fill="#30384D"/>
<path d="M276.696 204.959H271.229C271.2 204.958 271.171 204.95 271.147 204.934C271.122 204.919 271.103 204.896 271.09 204.87C271.078 204.843 271.073 204.814 271.077 204.785C271.08 204.756 271.092 204.729 271.11 204.706L271.958 203.69C271.973 203.673 271.991 203.659 272.011 203.649C272.032 203.64 272.054 203.635 272.077 203.635H277.353C277.381 203.635 277.408 203.643 277.431 203.657C277.455 203.671 277.474 203.691 277.488 203.716C277.501 203.74 277.507 203.767 277.506 203.795C277.505 203.822 277.497 203.849 277.482 203.872L276.825 204.895C276.811 204.916 276.791 204.932 276.769 204.943C276.746 204.954 276.721 204.96 276.696 204.959Z" fill="#30384D"/>
<path d="M270.317 204.96H265.441C265.415 204.96 265.39 204.954 265.368 204.94C265.345 204.927 265.327 204.907 265.315 204.884C265.304 204.861 265.298 204.835 265.3 204.809C265.302 204.783 265.312 204.758 265.327 204.737L266.069 203.702C266.082 203.684 266.099 203.669 266.119 203.658C266.139 203.648 266.161 203.643 266.183 203.643H270.97C270.995 203.643 271.019 203.65 271.04 203.662C271.061 203.675 271.079 203.693 271.091 203.714C271.103 203.736 271.109 203.76 271.109 203.785C271.108 203.809 271.102 203.834 271.089 203.855L270.442 204.897C270.429 204.917 270.41 204.934 270.388 204.945C270.366 204.956 270.342 204.962 270.317 204.96Z" fill="#30384D"/>
<path d="M264.411 204.959H255.226C255.2 204.961 255.175 204.955 255.153 204.943C255.131 204.93 255.113 204.911 255.102 204.888C255.091 204.865 255.087 204.84 255.09 204.815C255.094 204.789 255.105 204.766 255.122 204.747L255.919 203.686C255.931 203.67 255.947 203.657 255.965 203.648C255.983 203.639 256.003 203.635 256.023 203.635H265.217C265.242 203.633 265.267 203.639 265.289 203.652C265.311 203.664 265.329 203.683 265.34 203.706C265.352 203.729 265.356 203.755 265.352 203.78C265.349 203.805 265.338 203.828 265.321 203.847L264.515 204.923C264.501 204.936 264.485 204.946 264.467 204.952C264.449 204.958 264.43 204.961 264.411 204.959Z" fill="#30384D"/>
<path d="M261.426 203.389H256.616C256.575 203.388 256.534 203.377 256.499 203.355C256.463 203.333 256.435 203.302 256.416 203.265C256.397 203.228 256.389 203.186 256.393 203.145C256.396 203.103 256.411 203.063 256.436 203.03L257.032 202.23C257.071 202.178 257.122 202.136 257.18 202.107C257.238 202.078 257.302 202.063 257.367 202.062H262.062C262.102 202.062 262.142 202.073 262.176 202.094C262.211 202.114 262.239 202.143 262.259 202.178C262.278 202.213 262.288 202.253 262.287 202.293C262.286 202.333 262.274 202.372 262.253 202.406L261.744 203.219C261.71 203.272 261.663 203.315 261.607 203.345C261.552 203.374 261.489 203.389 261.426 203.389Z" fill="#30384D"/>
<path d="M267.72 203.337H262.705C262.664 203.336 262.625 203.325 262.59 203.305C262.556 203.284 262.527 203.255 262.508 203.219C262.489 203.184 262.479 203.144 262.481 203.104C262.482 203.064 262.494 203.025 262.516 202.991L263.088 202.106C263.109 202.074 263.136 202.048 263.169 202.03C263.202 202.012 263.239 202.002 263.277 202.002H268.38C268.421 202.002 268.462 202.014 268.497 202.036C268.533 202.057 268.561 202.089 268.58 202.126C268.599 202.163 268.607 202.205 268.603 202.246C268.599 202.287 268.585 202.327 268.56 202.361L267.894 203.243C267.875 203.272 267.849 203.295 267.819 203.311C267.788 203.328 267.755 203.336 267.72 203.337Z" fill="#30384D"/>
<path d="M280.402 203.336H275.223C275.19 203.336 275.158 203.328 275.13 203.311C275.102 203.295 275.078 203.271 275.062 203.243C275.046 203.215 275.038 203.182 275.039 203.15C275.039 203.117 275.049 203.086 275.066 203.058L275.642 202.099C275.659 202.072 275.682 202.05 275.709 202.035C275.737 202.019 275.768 202.011 275.799 202.012H281.004C281.036 202.011 281.069 202.02 281.097 202.036C281.126 202.052 281.149 202.076 281.165 202.105C281.182 202.134 281.19 202.166 281.189 202.199C281.188 202.232 281.178 202.264 281.16 202.292L280.556 203.257C280.539 203.282 280.516 203.302 280.489 203.316C280.462 203.33 280.432 203.337 280.402 203.336Z" fill="#30384D"/>
<path d="M286.933 203.336H281.788C281.755 203.336 281.722 203.327 281.693 203.311C281.664 203.294 281.64 203.27 281.623 203.242C281.606 203.213 281.597 203.18 281.596 203.147C281.596 203.113 281.604 203.081 281.621 203.051L282.153 202.107C282.169 202.078 282.194 202.054 282.223 202.037C282.252 202.021 282.284 202.012 282.318 202.012H287.302C287.333 202.012 287.364 202.019 287.391 202.034C287.419 202.048 287.442 202.069 287.46 202.095C287.478 202.121 287.489 202.15 287.492 202.181C287.496 202.212 287.491 202.244 287.48 202.273L287.111 203.221C287.096 203.256 287.071 203.285 287.04 203.306C287.008 203.326 286.971 203.337 286.933 203.336Z" fill="#30384D"/>
<path d="M274.082 203.336H268.878C268.844 203.336 268.811 203.327 268.782 203.31C268.753 203.292 268.73 203.267 268.715 203.237C268.7 203.207 268.693 203.173 268.696 203.14C268.699 203.106 268.711 203.074 268.731 203.047L269.45 202.084C269.467 202.061 269.489 202.043 269.515 202.03C269.54 202.017 269.568 202.01 269.596 202.01H274.684C274.716 202.009 274.748 202.018 274.776 202.034C274.804 202.05 274.827 202.074 274.843 202.102C274.859 202.13 274.867 202.162 274.866 202.194C274.865 202.227 274.856 202.258 274.839 202.286L274.231 203.255C274.214 203.28 274.192 203.3 274.166 203.314C274.141 203.328 274.112 203.336 274.082 203.336Z" fill="#30384D"/>
<path d="M293.606 203.337H288.425C288.396 203.337 288.367 203.331 288.341 203.318C288.315 203.305 288.292 203.286 288.274 203.263C288.256 203.24 288.243 203.213 288.237 203.184C288.231 203.156 288.232 203.126 288.239 203.098L288.512 202.037C288.523 201.996 288.548 201.959 288.581 201.933C288.615 201.907 288.656 201.893 288.699 201.893H293.712C293.739 201.892 293.766 201.898 293.791 201.909C293.815 201.92 293.837 201.936 293.855 201.956C293.873 201.976 293.887 201.999 293.895 202.025C293.904 202.051 293.906 202.078 293.903 202.105L293.799 203.166C293.794 203.213 293.772 203.257 293.736 203.289C293.7 203.32 293.654 203.338 293.606 203.337Z" fill="#30384D"/>
<path d="M300.271 202.006H294.959C294.835 202.006 294.734 202.107 294.734 202.231V203.113C294.734 203.238 294.835 203.338 294.959 203.338H300.271C300.396 203.338 300.496 203.238 300.496 203.113V202.231C300.496 202.107 300.396 202.006 300.271 202.006Z" fill="#30384D"/>
<path d="M306.574 201.951H301.334C301.189 201.951 301.073 202.068 301.073 202.212V203.023C301.073 203.167 301.189 203.284 301.334 203.284H306.574C306.718 203.284 306.835 203.167 306.835 203.023V202.212C306.835 202.068 306.718 201.951 306.574 201.951Z" fill="#30384D"/>
<path d="M313.082 201.951H307.77C307.645 201.951 307.545 202.052 307.545 202.176V203.059C307.545 203.183 307.645 203.284 307.77 203.284H313.082C313.206 203.284 313.307 203.183 313.307 203.059V202.176C313.307 202.052 313.206 201.951 313.082 201.951Z" fill="#30384D"/>
<path d="M319.387 201.951H314.121C313.984 201.951 313.873 202.062 313.873 202.199V203.035C313.873 203.172 313.984 203.284 314.121 203.284H319.387C319.524 203.284 319.635 203.172 319.635 203.035V202.199C319.635 202.062 319.524 201.951 319.387 201.951Z" fill="#30384D"/>
<path d="M326.022 203.281H320.654C320.611 203.282 320.568 203.267 320.534 203.239C320.5 203.212 320.477 203.174 320.468 203.131L320.275 202.178C320.269 202.151 320.27 202.122 320.276 202.095C320.283 202.068 320.295 202.043 320.313 202.021C320.331 201.999 320.353 201.982 320.378 201.97C320.404 201.958 320.431 201.951 320.459 201.951H325.791C325.833 201.951 325.874 201.966 325.908 201.992C325.941 202.018 325.965 202.054 325.975 202.095L326.204 203.048C326.211 203.076 326.212 203.105 326.206 203.133C326.2 203.161 326.188 203.187 326.17 203.21C326.153 203.232 326.13 203.251 326.105 203.263C326.079 203.275 326.05 203.282 326.022 203.281Z" fill="#30384D"/>
<path d="M332.447 203.281H327.101C327.054 203.28 327.01 203.263 326.974 203.234C326.938 203.204 326.912 203.163 326.902 203.118L326.713 202.195C326.709 202.166 326.71 202.136 326.718 202.107C326.726 202.079 326.74 202.052 326.758 202.029C326.777 202.006 326.801 201.987 326.827 201.974C326.854 201.96 326.883 201.953 326.912 201.951H332.212C332.257 201.952 332.301 201.968 332.337 201.996C332.373 202.024 332.399 202.062 332.411 202.106L332.623 203.031C332.629 203.059 332.628 203.088 332.623 203.116C332.617 203.144 332.605 203.17 332.589 203.194C332.572 203.217 332.551 203.237 332.527 203.252C332.503 203.267 332.476 203.277 332.447 203.281Z" fill="#30384D"/>
<path d="M338.953 203.281H333.704C333.655 203.281 333.606 203.266 333.566 203.237C333.525 203.208 333.495 203.167 333.48 203.12L333.191 202.271C333.18 202.235 333.177 202.197 333.182 202.16C333.188 202.123 333.202 202.088 333.224 202.058C333.246 202.027 333.275 202.002 333.308 201.985C333.342 201.968 333.379 201.959 333.416 201.959H338.633C338.679 201.961 338.724 201.977 338.762 202.004C338.799 202.031 338.828 202.068 338.845 202.112L339.165 202.96C339.178 202.996 339.183 203.033 339.179 203.07C339.174 203.108 339.161 203.143 339.141 203.175C339.12 203.206 339.092 203.232 339.06 203.25C339.027 203.269 338.991 203.279 338.953 203.281Z" fill="#30384D"/>
<path d="M348.022 203.281H340.062C340.019 203.281 339.976 203.27 339.939 203.248C339.902 203.226 339.871 203.194 339.85 203.156L339.394 202.307C339.375 202.271 339.365 202.23 339.366 202.189C339.367 202.147 339.379 202.107 339.4 202.072C339.422 202.036 339.452 202.007 339.488 201.987C339.524 201.967 339.565 201.957 339.606 201.957H347.535C347.577 201.956 347.62 201.966 347.657 201.987C347.695 202.008 347.725 202.039 347.747 202.076L348.236 202.925C348.258 202.961 348.269 203.003 348.268 203.046C348.268 203.088 348.256 203.13 348.234 203.166C348.212 203.202 348.181 203.232 348.144 203.253C348.107 203.273 348.065 203.283 348.022 203.281Z" fill="#30384D"/>
<path d="M328.721 214.764H283.068C282.994 214.764 282.921 214.745 282.857 214.707C282.793 214.669 282.741 214.614 282.706 214.549C282.67 214.484 282.653 214.41 282.657 214.335C282.66 214.261 282.684 214.189 282.725 214.127L284.209 211.874C284.247 211.818 284.298 211.772 284.358 211.74C284.418 211.708 284.485 211.69 284.552 211.689H327.504C327.577 211.689 327.65 211.709 327.713 211.746C327.776 211.783 327.829 211.837 327.864 211.902L329.081 214.153C329.116 214.215 329.135 214.286 329.134 214.358C329.133 214.43 329.114 214.501 329.077 214.563C329.041 214.624 328.988 214.676 328.926 214.711C328.863 214.746 328.792 214.765 328.721 214.764Z" fill="#DBDBDB"/>
<path d="M352.48 143.641L258.628 195.988H352.485L352.48 143.641Z" fill="#F6F6F6"/>
<path d="M401.921 172.149C400.052 170.55 397.788 169.484 395.366 169.062C395.366 169.062 388.69 151.341 386.25 145.212C386.143 144.939 385.961 144.702 385.725 144.527C385.489 144.353 385.209 144.249 384.917 144.227C384.624 144.205 384.332 144.266 384.072 144.402C383.813 144.539 383.597 144.746 383.45 144.999C382.29 146.953 381.737 153.764 384.449 161.905C384.449 161.905 384.025 161.106 356.453 161.106C355.857 161.106 351.912 161.375 350.218 161.574C346.755 161.982 346.581 166.21 351.134 166.465C360.197 166.976 368.445 167.18 368.445 167.18C367.094 171.582 367.072 176.285 368.38 180.7C368.452 180.891 367.799 186.189 372.73 187.328C381.08 189.259 397.533 191.022 400.96 185.59C404.388 180.159 404.337 174.57 401.921 172.149Z" fill="#EABBAE"/>
<path d="M396.314 184.131C396.314 184.131 394.315 181.623 385.248 180.787C381.027 180.399 376.325 176.24 367.568 176.24C366.972 176.24 368.454 180.711 368.454 180.711C368.454 180.711 368.057 186.439 372.6 187.299C381.021 188.894 397.547 191.033 400.969 185.601C401.798 184.284 396.314 184.131 396.314 184.131Z" fill="#D1A79C"/>
</g>
<defs>
<clipPath id="clip0_249_20980">
<rect width="600" height="290.5" fill="white"/>
</clipPath>
</defs>
</svg>
