<svg width="254" height="241" viewBox="0 0 254 241" fill="none" xmlns="http://www.w3.org/2000/svg">
<g clip-path="url(#clip0_69_8148)">
<mask id="mask0_69_8148" style="mask-type:alpha" maskUnits="userSpaceOnUse" x="3" y="0" width="251" height="241">
<path d="M3.33789 227.247C3.33789 215.149 12.8072 207.025 21.5822 203.535C53.2209 173.696 20.7333 132.849 74.6143 96.3706C92.2668 87.8965 115.458 80.9497 127.947 75.8234C140.437 70.697 149.544 -24.2888 200.287 5.91922C226.17 21.3285 217.185 111.356 233.907 123.156C250.629 134.956 254.456 169.876 251.879 181.22C248.06 198.027 253.999 221.055 253.999 224.343C253.999 239.675 227.616 240.931 142.515 240.931C57.4142 240.931 3.33789 242.576 3.33789 227.247Z" fill="#F6F6F6"/>
</mask>
<g mask="url(#mask0_69_8148)">
<path d="M356.753 -39.8848H-122.686V269.5H356.753V-39.8848Z" fill="#BEBEBE" fill-opacity="0.14"/>
<path d="M384.417 208.15H-97.7222V300.02H384.417V208.15Z" fill="#CED3DF"/>
<path d="M410.306 246.264C410.306 246.264 230.665 236.785 219.766 233.564C208.866 230.344 228.848 223.436 228.848 223.436L427.089 228.143L410.306 246.264Z" fill="#8A90A7"/>
<path d="M218.225 232.061C218.225 232.061 38.5847 229.051 27.6848 228.022C16.7849 226.993 36.765 224.807 36.765 224.807L235.005 226.303L218.225 232.061Z" fill="#8A90A7"/>
</g>
<path d="M94.705 81.9432L94.3735 82.6298L92.2227 87.0496L69.669 133.382L31.3902 227.202L25.9204 227.247L64.2135 133.384L90.3111 79.7695L92.2201 80.7154L94.3708 81.7806L94.705 81.9432Z" fill="#444C61"/>
<path d="M161.859 227.246L157.357 227.203L119.077 133.384L97.116 88.266L94.3745 82.6299L94.0366 81.9434L94.3745 81.7776L97.116 80.4198L98.4358 79.7676L124.141 133.382L161.859 227.246Z" fill="#444C61"/>
<path d="M97.118 67.166H92.2231V227.245H97.118V67.166Z" fill="#444C61"/>
<path d="M94.1083 40.793C92.4566 40.7944 90.873 41.4514 89.705 42.6197C88.5371 43.7881 87.8803 45.3724 87.8789 47.0247V49.2539C87.8789 50.9066 88.5352 52.4917 89.7035 53.6604C90.8717 54.829 92.4562 55.4856 94.1083 55.4856C95.7605 55.4856 97.345 54.829 98.5132 53.6604C99.6815 52.4917 100.338 50.9066 100.338 49.2539V47.0236C100.335 45.3718 99.6781 43.7883 98.5104 42.6203C97.3426 41.4523 95.7596 40.7952 94.1083 40.793ZM98.7799 49.2428C98.7799 50.483 98.2874 51.6725 97.4107 52.5495C96.534 53.4265 95.345 53.9192 94.1052 53.9192C92.8654 53.9192 91.6763 53.4265 90.7996 52.5495C89.923 51.6725 89.4305 50.483 89.4305 49.2428V47.012C89.4305 45.7718 89.923 44.5823 90.7996 43.7053C91.6763 42.8283 92.8654 42.3356 94.1052 42.3356C95.345 42.3356 96.534 42.8283 97.4107 43.7053C98.2874 44.5823 98.7799 45.7718 98.7799 47.012V49.2428Z" fill="#444C61"/>
<path opacity="0.1" d="M96.6147 67.666V81.2266L97.3364 80.8701L98.2026 80.4424L123.344 132.88H119.39L97.5649 88.043L96.6157 88.2617V132.88H92.7231V87.0488L91.7739 86.8301L69.356 132.884H65.0151L90.5425 80.4404L92.0015 81.1631L92.7231 81.5205V67.666H96.6147Z" fill="#2D2B34" stroke="#2D2B34"/>
<path opacity="0.1" d="M88.936 47.748V49.252C88.9361 50.6246 89.4814 51.9414 90.4517 52.9121C91.4221 53.8829 92.7393 54.4287 94.1118 54.4287C95.4842 54.4286 96.8006 53.8829 97.771 52.9121C98.7413 51.9413 99.2866 50.6247 99.2866 49.252V47.748H99.8423V49.252C99.8422 50.7721 99.238 52.2299 98.1636 53.3047C97.0891 54.3794 95.6322 54.9834 94.1128 54.9834C92.5933 54.9834 91.1355 54.3796 90.061 53.3047C88.9867 52.2299 88.3834 50.772 88.3833 49.252V47.748H88.936Z" fill="#2D2B34" stroke="#2D2B34"/>
<path d="M188.225 47.6934H-0.000488281V132.716H188.225V47.6934Z" fill="#444C61"/>
<path d="M184.443 50.3633H3.33789V127.818H184.443V50.3633Z" fill="white"/>
<path d="M45.9061 87.1406H37.3438V111.592H45.9061V87.1406Z" fill="#4573D2"/>
<path d="M60.9886 75.8262H52.4263V111.594H60.9886V75.8262Z" fill="#4573D2"/>
<path d="M76.0687 66.332H67.5063V111.595H76.0687V66.332Z" fill="#4573D2"/>
<path d="M91.1517 71.252H82.5894V111.591H91.1517V71.252Z" fill="#4573D2"/>
<path d="M106.232 62.6895H97.6694V111.594H106.232V62.6895Z" fill="#4573D2"/>
<g opacity="0.2">
<path d="M29.785 58.7852H21.2227V62.6863H29.785V58.7852Z" fill="#4573D2"/>
</g>
<g opacity="0.2">
<path d="M29.785 66.3301H21.2227V70.2312H29.785V66.3301Z" fill="#4573D2"/>
</g>
<g opacity="0.2">
<path d="M29.785 73.873H21.2227V77.7742H29.785V73.873Z" fill="#4573D2"/>
</g>
<g opacity="0.2">
<path d="M29.785 81.416H21.2227V85.3172H29.785V81.416Z" fill="#4573D2"/>
</g>
<g opacity="0.2">
<path d="M29.785 88.9629H21.2227V92.8641H29.785V88.9629Z" fill="#4573D2"/>
</g>
<g opacity="0.2">
<path d="M29.785 96.5059H21.2227V100.407H29.785V96.5059Z" fill="#4573D2"/>
</g>
<g opacity="0.2">
<path d="M29.785 104.049H21.2227V107.95H29.785V104.049Z" fill="#4573D2"/>
</g>
<g opacity="0.2">
<path d="M29.785 111.59H21.2227V115.491H29.785V111.59Z" fill="#4573D2"/>
</g>
<g opacity="0.2">
<path d="M45.9061 115.494H37.3438V119.395H45.9061V115.494Z" fill="#4573D2"/>
</g>
<g opacity="0.2">
<path d="M60.9886 115.494H52.4263V119.395H60.9886V115.494Z" fill="#4573D2"/>
</g>
<g opacity="0.2">
<path d="M76.0687 115.494H67.5063V119.395H76.0687V115.494Z" fill="#4573D2"/>
</g>
<g opacity="0.2">
<path d="M91.1517 115.494H82.5894V119.395H91.1517V115.494Z" fill="#4573D2"/>
</g>
<g opacity="0.2">
<path d="M106.232 115.494H97.6694V119.395H106.232V115.494Z" fill="#4573D2"/>
</g>
<g opacity="0.2">
<path d="M121.315 115.494H112.752V119.395H121.315V115.494Z" fill="#4573D2"/>
</g>
<g opacity="0.2">
<path d="M136.395 115.494H127.833V119.395H136.395V115.494Z" fill="#4573D2"/>
</g>
<g opacity="0.2">
<path d="M151.478 115.494H142.916V119.395H151.478V115.494Z" fill="#4573D2"/>
</g>
<g opacity="0.2">
<path d="M166.558 115.494H157.996V119.395H166.558V115.494Z" fill="#4573D2"/>
</g>
<g opacity="0.2">
<path d="M121.315 81.416H112.752V111.591H121.315V81.416Z" fill="#4573D2"/>
</g>
<g opacity="0.2">
<path d="M136.395 81.416H127.833V111.591H136.395V81.416Z" fill="#4573D2"/>
</g>
<g opacity="0.2">
<path d="M151.478 81.416H142.916V111.591H151.478V81.416Z" fill="#4573D2"/>
</g>
<g opacity="0.2">
<path d="M166.558 81.416H157.996V111.591H166.558V81.416Z" fill="#4573D2"/>
</g>
<path d="M157.013 81.3496L83.6938 85.8634V87.2935L158.575 84.3213L157.013 81.3496Z" fill="#444C61"/>
<path d="M213.384 215.819C213.384 215.819 209.599 222.685 204.275 223.196C198.951 223.707 198.826 226.916 202.544 228.072C206.263 229.227 214.091 228.072 214.091 228.072L225.251 225.314C225.251 225.314 223.9 214.277 222.108 213.702C220.316 213.127 213.384 215.819 213.384 215.819Z" fill="#444C61"/>
<path d="M226.987 215.945C226.987 215.945 224.164 228.644 224.876 229.163C225.587 229.681 236.291 232.433 236.677 228.007C236.708 227.635 236.735 227.279 236.758 226.939C236.916 224.092 236.536 221.241 235.637 218.536C235.323 217.709 235.175 216.828 235.202 215.944C235.38 214.149 226.987 215.945 226.987 215.945Z" fill="#444C61"/>
<path fill-rule="evenodd" clip-rule="evenodd" d="M216.686 45.8405C218.928 42.5662 220.271 38.702 219.547 34.607C217.459 22.8095 201.194 27.1701 198.609 33.5096C197.853 35.358 196.007 39.2132 197.068 41.8078C198.13 44.4024 195.995 44.3956 196.19 45.5495C196.385 46.7034 197.695 46.0845 197.759 46.4779C198.68 52.0157 200.003 55.3217 202.284 55.6597C203.987 55.9121 206.831 55.1796 210.198 52.6304L210.206 68.1543L227.518 63.8581L216.686 45.8405Z" fill="#F5BE9D"/>
<path d="M216.898 58.3819C216.393 54.1253 213.386 46.3452 213.466 45.4928C213.547 44.6404 213.1 43.9819 214.831 43.035C216.562 42.0881 216.897 46.2396 216.897 46.2396C216.897 46.2396 221.138 53.0844 221.437 54.0672C221.737 55.0501 216.898 58.3819 216.898 58.3819Z" fill="#DAA98C"/>
<path d="M208.537 37.1013C208.776 44.2632 207.802 47.96 205.613 48.1917C202.33 48.5386 199.325 46.7489 197.885 46.901C196.834 47.0119 197.207 48.3015 198.007 49.203C198.666 49.9487 201.544 50.4266 201.675 51.6698C201.806 52.913 199.495 52.1858 199.573 52.9251C199.702 54.1482 199.556 56.4883 201.678 56.2644C203.828 56.0378 209.9 54.6051 210.619 51.3054C211.082 49.1761 211.073 44.8658 210.59 38.3746C210.72 38.3451 210.852 38.3232 210.985 38.3091C211.647 38.2389 212.316 38.3678 212.904 38.6794C213.493 38.9911 213.976 39.4713 214.29 40.0586C214.605 40.646 214.737 41.3139 214.671 41.9769C214.604 42.6399 214.341 43.268 213.916 43.7809C214.801 44.788 215.785 45.8336 216.899 46.9031C220.383 44.2784 222.453 37.453 218.155 31.5598C216.827 28.5918 214.376 27.1902 211.608 26.7112C209.516 26.0562 207.264 26.1283 205.218 26.9156C201.515 27.6285 198.295 29.1221 197.42 29.8989C197.793 33.4373 198.59 34.4174 204.441 33.7071C205.956 34.3113 207.203 35.5064 208.537 37.1013Z" fill="#444C61"/>
<path d="M168.175 85.357C167.513 85.2642 166.839 85.3062 166.194 85.4806C164.881 85.7837 156.427 85.4917 154.638 84.8495C152.848 84.2073 158.695 84.8917 157.055 82.7846C156.447 82.0077 152.107 81.6422 152.107 81.6422C152.107 81.6422 160.49 76.4799 163.328 77.7168C164.293 78.1424 167.744 79.5821 167.744 79.5821L168.175 85.357Z" fill="#DAA98C"/>
<path d="M168.202 78.972L166.534 78.6699C166.534 78.6699 165.68 84.4026 166.798 85.9109H168.716L168.202 78.972Z" fill="#CED3DF"/>
<path d="M201.654 89.4337C201.654 89.4337 196.557 86.3833 195.947 90.2333C195.338 94.0832 194.536 100.661 194.536 100.661L193.125 109.033L191.296 125.808L191.553 128.66C191.553 128.66 196.983 126.831 198.254 127.475C199.526 128.118 200.565 120.418 200.565 120.418L202.676 112.461L202.996 95.5894L201.654 89.4337Z" fill="#4369B6"/>
<path d="M198.905 69.6699C198.905 69.6699 193.615 75.6376 185.583 76.8385C177.551 78.0394 167.641 78.4287 167.641 78.4287C166.932 79.9155 166.66 81.5731 166.856 83.2086C167.053 84.844 167.709 86.3901 168.749 87.6669L188.957 87.2202C188.957 87.2202 193.43 86.249 196.895 87.2202L198.905 69.6699Z" fill="#444C61"/>
<path d="M198.905 69.6699C198.905 69.6699 193.615 75.6376 185.583 76.8385C177.551 78.0394 167.641 78.4287 167.641 78.4287C166.932 79.9155 166.66 81.5731 166.856 83.2086C167.053 84.844 167.709 86.3901 168.749 87.6669L188.957 87.2202C188.957 87.2202 193.43 86.249 196.895 87.2202L198.905 69.6699Z" fill="#4369B6"/>
<path d="M226.851 118.492C226.851 118.492 199.213 120.933 198.199 117.404C197.186 113.875 201.019 104.316 201.019 104.316L199.771 90.9708L199.725 90.4607C199.725 90.4607 203.188 76.0237 203.061 74.8713C202.94 73.8336 208.635 61.7213 209.805 59.2429C209.944 58.9561 210.016 58.7993 210.016 58.7993L210.237 58.9266L210.333 58.9841L211.687 59.7763L217.035 58.5088L223.48 55.1289L224.083 92.0614L226.851 118.492Z" fill="white"/>
<path d="M216.65 58.5923C217.355 59.8984 214.904 67.6283 213.144 93.6252C211.383 119.622 221.806 56.5517 221.806 56.5517L220.042 56.3711L216.65 58.5923Z" fill="#CED3DF"/>
<path d="M210.016 58.7969L207.851 64.6014L204.103 75.2069C204.103 75.2069 204.07 75.3157 204.004 75.509C203.346 77.5686 199.598 89.3123 199.296 91.4606C198.958 93.8202 194.241 106.573 194.241 106.573L191.549 128.656C189.136 126.782 192.562 108.743 192.562 108.743C192.562 108.743 196.411 81.9926 197.321 73.0902C198.231 64.1878 203.142 61.589 203.142 61.589C205.125 61.4207 207.036 60.7734 208.713 59.7026C209.167 59.4305 209.602 59.1281 210.016 58.7974V58.7969Z" fill="#4573D2"/>
<path d="M237.175 200.493C236.599 204.793 235.83 216.786 235.83 216.786C233.137 220.828 227.172 218.644 227.172 218.644C227.172 218.644 226.533 217.437 225.57 212.872C224.608 208.308 224.032 192.211 224.032 192.211L221.785 178.676C220.468 175.009 219.629 171.187 219.286 167.305C218.382 164.928 216.207 149.341 216.207 149.341C216.207 149.341 217.112 163.324 216.53 170.705C215.948 178.086 219.477 188.027 219.477 188.027C219.477 188.027 221.468 197.332 220.439 200.22C219.41 203.107 223.005 215.04 223.005 215.04C222.703 218.503 212.491 217.091 212.491 217.091C212.491 217.091 207.687 204.209 206.845 196.442C206.341 191.765 205.516 187.128 204.375 182.563L203.543 171.786L202.065 165.436L200.304 157.033C198.313 150.873 197.706 140.575 197.706 140.575L196.165 130.471C195.158 125.472 196.467 119.609 197.336 116.541C197.713 115.214 198.011 114.402 198.011 114.402C198.895 115.029 203.953 115.762 206.573 116.361C208.006 116.692 209.479 116.81 210.946 116.711C217.565 116.185 224.113 114.984 230.487 113.127L231.148 112.924L231.282 114.076L231.599 116.831L232.169 121.715C232.169 121.715 233.901 147.759 232.875 151.283C231.849 154.807 233.58 166.671 233.58 166.671C232.618 169.483 235.631 180.924 235.631 180.924C235.631 180.924 237.755 196.188 237.175 200.493Z" fill="#CED3DF"/>
<path d="M198.198 114.487C198.14 114.459 198.083 114.426 198.029 114.391C198.028 114.407 198.021 114.423 198.011 114.436L198.198 114.487Z" fill="#B0B5C0"/>
<path d="M235.652 180.915C235.652 180.915 232.636 169.474 233.601 166.662C233.601 166.662 231.869 154.804 232.898 151.274C233.927 147.744 232.189 121.706 232.189 121.706L231.619 116.822L231.3 114.067L231.164 112.914L230.501 113.117L230.091 113.238L230.143 113.685L230.463 116.436C230.463 116.436 219.523 110.382 223.458 120.191C227.392 130.001 228.204 145.818 227.181 149.339C226.159 152.859 228.971 166.661 228.971 166.661C228.01 169.475 231.299 180.914 231.299 180.914C231.299 180.914 233.467 196.186 232.897 200.483C232.327 204.779 232.188 216.775 232.188 216.775C230.222 219.729 229.009 218.974 227.149 218.561L227.181 218.633C227.181 218.633 233.147 220.817 235.839 216.775C235.839 216.775 236.608 204.776 237.19 200.483C237.772 196.189 235.652 180.915 235.652 180.915Z" fill="#B0B5C0"/>
<g opacity="0.1">
<mask id="path-57-inside-1_69_8148" fill="white">
<path d="M210.019 58.7969L207.854 64.6014L204.106 75.2069C204.106 75.2069 204.073 75.3157 204.007 75.509V75.5238L208.724 59.6957C209.175 59.4256 209.608 59.1253 210.019 58.7969Z"/>
</mask>
<path d="M210.019 58.7969L207.854 64.6014L204.106 75.2069C204.106 75.2069 204.073 75.3157 204.007 75.509V75.5238L208.724 59.6957C209.175 59.4256 209.608 59.1253 210.019 58.7969Z" fill="#2D2B34"/>
<path d="M207.854 64.6014L206.917 64.252L206.914 64.26L206.911 64.2681L207.854 64.6014ZM204.106 75.2069L203.163 74.8737L203.156 74.894L203.15 74.9146L204.106 75.2069ZM204.007 75.509L203.06 75.1859L203.007 75.343V75.509H204.007ZM204.007 75.5238H203.007L204.965 75.8094L204.007 75.5238ZM208.724 59.6957L208.21 58.8377L207.877 59.0374L207.765 59.4101L208.724 59.6957ZM209.082 58.4475L206.917 64.252L208.791 64.9508L210.956 59.1463L209.082 58.4475ZM206.911 64.2681L203.163 74.8737L205.049 75.5401L208.797 64.9346L206.911 64.2681ZM204.106 75.2069C203.15 74.9146 203.15 74.9146 203.15 74.9145C203.15 74.9145 203.15 74.9145 203.15 74.9145C203.15 74.9145 203.15 74.9144 203.15 74.9144C203.15 74.9143 203.15 74.9143 203.15 74.9142C203.15 74.9142 203.15 74.9141 203.15 74.914C203.15 74.914 203.15 74.914 203.15 74.9141C203.15 74.9144 203.15 74.9151 203.149 74.9161C203.149 74.9183 203.147 74.9221 203.146 74.9275C203.142 74.9383 203.137 74.9554 203.129 74.9786C203.115 75.0248 203.092 75.0949 203.06 75.1859L204.953 75.8321C204.988 75.7298 205.015 75.6489 205.033 75.5924C205.042 75.5642 205.049 75.542 205.054 75.5264C205.056 75.5185 205.058 75.5123 205.06 75.5078C205.06 75.5055 205.061 75.5037 205.061 75.5023C205.062 75.5015 205.062 75.5009 205.062 75.5004C205.062 75.5002 205.062 75.4999 205.062 75.4998C205.062 75.4997 205.062 75.4996 205.062 75.4995C205.062 75.4994 205.062 75.4994 205.062 75.4993C205.062 75.4993 205.062 75.4993 205.062 75.4993C205.062 75.4993 205.062 75.4992 204.106 75.2069ZM203.007 75.509V75.5238H205.007V75.509H203.007ZM204.965 75.8094L209.682 59.9813L207.765 59.4101L203.048 75.2382L204.965 75.8094ZM209.237 60.5538C209.727 60.2605 210.197 59.9346 210.643 59.5781L209.395 58.0156C209.019 58.316 208.623 58.5906 208.21 58.8377L209.237 60.5538Z" fill="#2D2B34" mask="url(#path-57-inside-1_69_8148)"/>
</g>
<path d="M233.555 126.576L233.266 129.144L229.77 127.86L227.204 123.977L229.129 122.469L233.555 126.576Z" fill="#CED3DF"/>
<path d="M233.433 116.634L231.604 116.821L224.816 120.064C221.986 120.348 208.296 118.727 205.507 118.168L197.651 115.013C198.028 113.686 198.012 114.391 198.012 114.391C198.896 115.018 203.954 115.751 206.574 116.35C208.007 116.682 209.481 116.799 210.948 116.7C217.566 116.174 224.114 114.973 230.488 113.115L231.285 114.066L233.433 116.634Z" fill="#B0B5C0"/>
<path d="M245.557 127.796C243.249 130.489 233.191 130.971 233.191 130.971L223.238 115.282C223.238 115.282 220.883 113.644 216.455 106.282C212.028 98.9196 212.179 93.2445 212.422 89.009C212.666 84.7735 215.439 72.6 215.439 72.6C215.871 69.8602 221.555 53.6582 221.555 53.6582C222.828 54.632 223.936 55.0767 225.356 55.9698C229.186 58.3832 234.534 59.3729 234.534 59.3729C243.145 60.6251 241.556 69.5253 241.556 69.5253C241.556 69.5253 241.652 104.122 241.122 108.262C240.591 112.402 245.557 127.796 245.557 127.796Z" fill="#4573D2"/>
<path d="M228.132 123.479C223.75 116.089 227.51 117.775 228.132 110.673C228.754 103.571 230.511 99.8923 229.927 94.119C229.343 88.3457 227.44 77.6361 229.927 75.2442C232.414 72.8524 232.978 67.0971 235.059 71.2676C237.14 75.4381 239.705 81.4348 239.624 95.7007C239.543 109.967 245.906 128.042 245.906 128.042C245.906 128.042 243.003 130.862 233.049 131C223.096 131.138 228.132 123.479 228.132 123.479Z" fill="#4369B6"/>
<path d="M233.426 125.231C233.426 125.231 233.649 132.255 231.758 134.021L226.725 124.526L230.948 122.471L233.426 125.231Z" fill="#DAA98C"/>
<path d="M233.199 63.0304C233.199 63.0304 228.193 67.7401 230.075 78.2369C231.957 88.7337 234.979 100.129 234.979 100.129L226.836 122.697C226.836 122.697 232.512 128.616 235.302 129.334L243.447 111.289C243.447 111.289 247.248 105.035 246.237 95.2199C245.225 85.405 241.572 69.5236 241.572 69.5236C241.572 69.5236 241.57 59.8565 233.199 63.0304Z" fill="#4573D2"/>
<path d="M226.724 123.175C226.724 123.175 231.991 133.71 232.59 134.308C233.189 134.907 230.25 135.397 230.25 135.397L227.751 131.965L225.507 125.547C225.507 125.547 225.723 122.78 226.724 123.175Z" fill="#B0B5C0"/>
<path d="M220.454 200.228C221.48 197.342 219.492 188.036 219.492 188.036C219.492 188.036 215.966 178.08 216.542 170.714C216.784 167.64 216.769 157.001 216.666 153.128C215.848 148.135 215.064 148.989 215.064 148.989C215.064 148.989 211.321 161.533 210.743 168.91C210.164 176.286 214.461 188.364 214.461 188.364C214.461 188.364 217.694 197.336 216.666 200.225C215.637 203.113 218.79 213.367 218.79 213.367C218.534 216.142 215.013 217.082 212.398 216.84L212.497 217.104C212.497 217.104 222.694 218.516 223.014 215.052C223.021 215.047 219.429 203.116 220.454 200.228Z" fill="#B0B5C0"/>
<path d="M234.063 128.804C234.563 125.967 243.496 106.542 243.771 104.451C244.046 102.359 244.424 92.0043 243.366 87.604C242.307 83.2038 239.266 71.7004 239.266 69.7401C239.266 67.7797 239.319 63.6921 237.24 62.6813C235.162 61.6705 229.272 59.557 228.096 58.814C227.047 57.9864 226.109 57.0268 225.306 55.959C225.306 55.959 231.482 58.8974 232.729 59.0109C233.976 59.1245 238.577 59.4028 240.334 62.6813C242.092 65.9599 241.637 69.7332 241.98 71.0023C242.323 72.2713 246.216 91.417 246.358 95.2337C246.5 99.0503 246.769 104.219 242.834 112.932C238.899 121.645 235.068 129.351 235.068 129.351L234.063 128.804Z" fill="#4369B6"/>
</g>
<defs>
<clipPath id="clip0_69_8148">
<rect width="254" height="240.982" fill="white"/>
</clipPath>
</defs>
</svg>
