<svg width="254" height="243" viewBox="0 0 254 243" fill="none" xmlns="http://www.w3.org/2000/svg">
<g clip-path="url(#clip0_69_7293)">
<mask id="mask0_69_7293" style="mask-type:alpha" maskUnits="userSpaceOnUse" x="0" y="0" width="255" height="243">
<path d="M88.3182 4.13368C27.2487 -19.8336 -32.3436 65.1681 20.2381 136.754C52.769 181.042 16.8426 209.216 43.9299 227.482C76.2677 249.292 181.818 251.794 178.207 201.318C173.862 140.607 219.669 233.739 250.992 139.584C263.595 101.699 236.958 47.8988 164.391 56.7434C91.4352 65.6351 128.019 19.7144 88.3182 4.13368Z" fill="#F6F6F6"/>
</mask>
<g mask="url(#mask0_69_7293)">
<path d="M88.3182 4.13368C27.2487 -19.8336 -32.3436 65.1681 20.2381 136.754C52.769 181.042 16.8426 209.216 43.9299 227.482C76.2677 249.292 181.818 251.794 178.207 201.318C173.862 140.607 219.669 233.739 250.992 139.584C263.595 101.699 236.958 47.8988 164.391 56.7434C91.4352 65.6351 128.019 19.7144 88.3182 4.13368Z" fill="#BEBEBE" fill-opacity="0.14"/>
<path d="M988.83 188.756H-343.029V311.672H988.83V188.756Z" fill="#CED3DF"/>
<path d="M164.627 223.258H-337.486V215.908H162.781C162.996 215.908 163.21 215.951 163.409 216.033C163.608 216.116 163.789 216.237 163.941 216.39C164.094 216.542 164.214 216.723 164.297 216.923C164.379 217.122 164.422 217.336 164.422 217.552H170.325C170.325 218.301 170.177 219.043 169.891 219.735C169.605 220.428 169.185 221.057 168.656 221.586C168.127 222.116 167.499 222.537 166.807 222.823C166.116 223.11 165.375 223.258 164.627 223.258Z" fill="#8A90A7"/>
<path d="M194.416 219.861H-307.697V212.512H192.569C193.005 212.512 193.422 212.685 193.73 212.993C194.037 213.301 194.21 213.719 194.21 214.155H200.114C200.114 215.668 199.514 217.119 198.445 218.189C197.376 219.26 195.927 219.861 194.416 219.861Z" fill="#8A90A7"/>
<path d="M240.566 145.014H198.981V164.371H240.566V145.014Z" fill="#D5A882"/>
<path d="M230.428 145.014H198.981V164.371H230.428V145.014Z" fill="#BA8B67"/>
<path d="M256.915 163.951H193.865V199.666H256.915V163.951Z" fill="#D5A882"/>
<path d="M241.543 163.951H193.865V199.666H241.543V163.951Z" fill="#BA8B67"/>
<path d="M245.059 132.885H203.475V145.18H245.059V132.885Z" fill="#D5A882"/>
<path d="M234.921 132.885H203.475V145.18H234.921V132.885Z" fill="#BA8B67"/>
<path d="M254.865 175.408H204.9V186.249H254.865V175.408Z" fill="#DAA98C"/>
<path d="M254.865 175.408H241.543V186.249H254.865V175.408Z" fill="#F5BE9D"/>
<path d="M217.704 183.861H182.482V209.006H217.704V183.861Z" fill="#D5A882"/>
<path d="M209.117 183.861H182.482V209.006H209.117V183.861Z" fill="#BA8B67"/>
<path d="M188.89 188.756L185.989 195.223L209.118 204.979V197.179L188.89 188.756Z" fill="#DAA98C"/>
<path d="M209.117 197.24V204.988L210.81 206.57L213.994 200.162L209.117 197.24Z" fill="#F5BE9D"/>
<path d="M207.239 150.635H198.981V158.904H207.239V150.635Z" fill="#DAA98C"/>
<path d="M228.196 140.869H217.914V145.18H228.196V140.869Z" fill="#DAA98C"/>
</g>
<path d="M126.382 95.4576C126.331 95.4528 126.283 95.4346 126.241 95.4048C125.872 95.148 123.878 93.833 121.816 93.7569C120.177 93.6391 118.552 93.3693 116.962 92.9513C116.909 92.9374 116.854 92.9382 116.801 92.9536C116.748 92.969 116.701 92.9985 116.664 93.0388C116.627 93.0791 116.601 93.1288 116.59 93.1825C116.579 93.2362 116.582 93.292 116.6 93.3438C116.868 94.0776 117.761 95.4317 120.719 96.3204C120.775 96.3366 120.825 96.3689 120.864 96.4133C120.902 96.4578 120.927 96.5124 120.935 96.5705C120.942 96.6287 120.933 96.6879 120.908 96.741C120.883 96.794 120.843 96.8386 120.793 96.8693C119.171 97.8488 114.743 100.515 113.438 101.198C111.829 102.044 115.143 105.873 116.739 105.68C119.532 105.342 124.442 103.312 125.881 101.706C127.011 100.444 128.824 100.382 129.551 100.413C129.592 100.414 129.633 100.408 129.671 100.393C129.71 100.378 129.745 100.356 129.774 100.327C129.803 100.298 129.827 100.264 129.842 100.226C129.858 100.188 129.865 100.147 129.864 100.106L129.819 96.0594C129.818 95.9843 129.789 95.9122 129.738 95.857C129.688 95.8017 129.618 95.7671 129.544 95.7598L126.382 95.4576Z" fill="#DAA98C"/>
<path d="M126.383 95.4576C126.332 95.4528 126.283 95.4346 126.241 95.4048C125.872 95.148 123.878 93.833 121.816 93.7569C120.177 93.6391 118.552 93.3693 116.963 92.9513C116.91 92.9374 116.854 92.9382 116.801 92.9536C116.749 92.969 116.701 92.9985 116.664 93.0388C116.627 93.0791 116.601 93.1288 116.59 93.1825C116.579 93.2362 116.583 93.292 116.601 93.3438C116.869 94.0776 117.761 95.4317 120.719 96.3204C120.775 96.3366 120.826 96.3689 120.864 96.4133C120.902 96.4578 120.927 96.5124 120.935 96.5705C120.943 96.6287 120.933 96.6879 120.908 96.741C120.883 96.794 120.843 96.8386 120.793 96.8693C119.171 97.8488 114.743 100.515 113.438 101.198C112.782 101.543 113.191 103.108 116.506 102.049C118.636 101.37 118.697 99.9499 125.092 99.3144C127.783 99.047 129.819 96.0594 129.819 96.0594C129.818 95.9843 129.789 95.9122 129.738 95.857C129.688 95.8017 129.618 95.7671 129.544 95.7598L126.383 95.4576Z" fill="#D5A882"/>
<path d="M102.953 109.278C102.953 109.278 105.03 110.852 110.627 112.176C110.627 112.176 112.009 113.286 109.579 113.578C109.579 113.578 106.982 113.654 105.367 112.772C105.367 112.772 106.583 116.408 110.198 117.334C110.198 117.334 111.025 117.549 110.836 117.955C110.648 118.362 108.606 118.902 105.568 118.25C103.001 117.7 98.4038 116.19 97.5385 114.341C96.6733 112.491 96.2834 110.061 97.9078 108.935C99.5323 107.808 102.494 108.72 102.953 109.278Z" fill="#D1A79C"/>
<path d="M183.256 71.5732C187.553 70.9355 188.175 78.7008 182.782 90.2108C177.388 101.721 175.234 105.655 173.274 106.694C171.314 107.734 138.535 107.019 138.535 107.019L138.647 101.258C138.647 101.258 166.336 99.0386 169.539 97.6882C172.741 96.3378 175.561 68.0208 183.256 71.5738" fill="#4573D2"/>
<path d="M174.969 100.864C170.475 102.938 169.345 102.842 165.49 103.136C161.03 103.477 155.426 102.384 151.319 103.611C143.663 105.899 138.597 103.932 138.597 103.932L138.537 107.019C138.537 107.019 171.315 107.734 173.276 106.695C175.236 105.655 177.391 101.721 182.784 90.2109C182.784 90.2125 177.211 99.829 174.969 100.864Z" fill="#4369B6"/>
<path d="M126.749 95.7354C126.698 95.7305 126.65 95.7123 126.608 95.6826C126.239 95.4264 124.256 94.114 122.204 94.0379C120.571 93.9207 118.953 93.6517 117.37 93.2344C117.317 93.2206 117.262 93.2214 117.209 93.2368C117.157 93.2522 117.11 93.2816 117.073 93.3218C117.036 93.362 117.01 93.4116 116.999 93.4651C116.988 93.5187 116.992 93.5742 117.01 93.6258C117.277 94.3586 118.163 95.7095 121.11 96.5961C121.166 96.6126 121.216 96.6449 121.254 96.6893C121.292 96.7336 121.316 96.7881 121.324 96.846C121.332 96.904 121.323 96.9629 121.298 97.0158C121.273 97.0687 121.233 97.1132 121.184 97.1439C119.569 98.1208 115.161 100.778 113.862 101.463C112.261 102.309 115.56 106.128 117.148 105.935C119.929 105.598 124.816 103.573 126.248 101.97C127.373 100.711 129.177 100.649 129.901 100.679C129.942 100.681 129.983 100.674 130.021 100.66C130.059 100.645 130.094 100.623 130.123 100.594C130.152 100.565 130.175 100.531 130.191 100.493C130.206 100.455 130.214 100.415 130.213 100.374L130.167 96.3356C130.167 96.2608 130.138 96.1889 130.088 96.1338C130.037 96.0787 129.968 96.0443 129.894 96.0371L126.749 95.7354Z" fill="#DAA98C"/>
<path d="M126.749 95.7354C126.698 95.7305 126.65 95.7123 126.608 95.6826C126.239 95.4264 124.256 94.114 122.204 94.0379C120.571 93.9207 118.953 93.6517 117.37 93.2344C117.317 93.2206 117.262 93.2214 117.209 93.2368C117.157 93.2522 117.11 93.2816 117.073 93.3218C117.036 93.362 117.01 93.4116 116.999 93.4651C116.988 93.5187 116.992 93.5742 117.01 93.6258C117.277 94.3586 118.163 95.7095 121.11 96.5961C121.166 96.6126 121.216 96.6449 121.254 96.6893C121.292 96.7336 121.316 96.7881 121.324 96.846C121.332 96.904 121.323 96.9629 121.298 97.0158C121.273 97.0687 121.233 97.1132 121.183 97.1439C119.569 98.1208 115.161 100.778 113.862 101.463C113.209 101.807 113.617 103.369 116.916 102.313C119.036 101.634 119.097 100.218 125.463 99.5837C128.139 99.3196 130.168 96.3356 130.168 96.3356C130.167 96.2608 130.138 96.1889 130.088 96.1338C130.037 96.0787 129.968 96.0443 129.894 96.0371L126.749 95.7354Z" fill="#D5A882"/>
<path d="M161.019 65.4355C161.019 65.4355 154.568 67.0416 153.59 68.1881C151.654 70.4562 137.868 90.6497 137.868 90.6497L127.005 95.9858L128.626 100.862C128.626 100.862 141.625 99.7088 144.758 96.6065C147.89 93.5042 158.672 80.8462 158.672 80.8462L161.019 65.4355Z" fill="#4369B6"/>
<path d="M203.465 200.314C203.467 200.315 203.47 200.316 203.473 200.317C203.483 200.321 203.501 200.328 203.525 200.338C203.574 200.358 203.649 200.393 203.741 200.445C203.923 200.55 204.168 200.724 204.4 200.998C204.851 201.531 205.311 202.504 205.074 204.244C204.982 204.921 204.938 205.366 204.821 205.786C204.72 206.148 204.561 206.49 204.252 206.909C204.183 206.908 204.092 206.917 203.997 206.953C203.805 207.027 203.688 207.174 203.616 207.312V207.312C203.507 207.522 202.79 209.117 202.051 210.85C201.315 212.577 200.524 214.517 200.284 215.408C200.195 215.735 199.963 216.093 199.572 216.463C199.184 216.83 198.665 217.187 198.053 217.515C196.83 218.17 195.289 218.681 193.829 218.942C192.35 219.207 191.04 219.201 190.239 218.903C189.848 218.758 189.637 218.566 189.542 218.361C189.448 218.16 189.418 217.844 189.613 217.342L189.631 217.295L189.64 217.245V217.243C189.641 217.24 189.642 217.235 189.643 217.228C189.646 217.213 189.651 217.188 189.658 217.155C189.672 217.09 189.695 216.99 189.729 216.858C189.798 216.595 189.914 216.204 190.097 215.708C190.463 214.715 191.1 213.3 192.179 211.638C192.781 210.71 193.156 209.492 193.391 208.225C193.628 206.95 193.73 205.586 193.762 204.342C193.794 203.096 193.757 201.958 193.711 201.133C193.689 200.72 193.664 200.384 193.645 200.151C193.642 200.111 193.638 200.073 193.635 200.039L197.18 196.837L201.628 198.234L203.228 200.156L203.324 200.272L203.467 200.314L203.466 200.315L203.465 200.314Z" fill="#2D2B34" stroke="#2D2B34"/>
<path d="M168.349 209.052L168.875 219.799C168.815 219.827 168.725 219.863 168.593 219.9C168.008 220.066 166.746 220.238 164.107 220.172C163.646 220.16 162.369 220.161 160.859 220.286C159.364 220.41 157.605 220.658 156.177 221.15C156.175 221.151 156.172 221.152 156.169 221.152C156.156 221.156 156.134 221.162 156.106 221.169C156.05 221.183 155.966 221.203 155.859 221.228C155.644 221.277 155.333 221.346 154.953 221.42C154.19 221.567 153.154 221.734 152.052 221.814C150.947 221.895 149.797 221.887 148.8 221.695C147.795 221.502 147.017 221.138 146.56 220.566C145.516 219.26 145.591 218.415 145.787 217.941C145.894 217.682 146.056 217.485 146.197 217.352C146.266 217.285 146.328 217.237 146.371 217.206C146.378 217.201 146.384 217.196 146.39 217.191C146.41 217.184 146.436 217.176 146.466 217.166C146.553 217.136 146.681 217.091 146.843 217.033C147.169 216.918 147.637 216.749 148.205 216.539C149.34 216.118 150.879 215.527 152.49 214.847C154.099 214.167 155.789 213.395 157.222 212.611C158.634 211.84 159.87 211.02 160.502 210.229C161.664 208.774 162.247 207.559 162.539 206.689C162.621 206.444 162.679 206.226 162.721 206.039L168.349 209.052Z" fill="#2D2B34" stroke="#2D2B34"/>
<path d="M156.949 130.782L180.374 176.518L193.712 201.614C193.712 201.614 200.987 205.054 203.615 199.183C203.615 199.183 197.552 178.744 194.723 173.887C191.894 169.03 188.862 166.698 188.862 166.698C188.862 166.698 184.979 122.896 178.604 116.218C172.229 109.54 159.155 118.437 158.548 122.484C157.942 126.532 156.949 130.782 156.949 130.782Z" fill="#444C61"/>
<path d="M165.704 139.079C165.704 139.079 167.202 164.578 165.704 173.28C167.705 180.609 168.83 188.149 169.055 195.743C169.459 208.493 169.055 210.114 169.055 210.114C169.055 210.114 162.588 213.959 159.355 210.114L154.504 177.127C154.504 177.127 145.905 146.299 149.698 117.495C149.698 117.495 168.311 107.831 167.83 118.758C167.512 125.567 166.802 132.352 165.704 139.079Z" fill="#444C61"/>
<path d="M172.22 53.4732C172.247 54.2508 172.441 55.0134 172.788 55.7096C173.134 56.4059 173.626 57.0197 174.23 57.5096C176.242 59.0243 178.254 65.4572 178.254 65.4572C178.254 65.4572 169.431 70.9301 166.599 69.9812C163.768 69.0323 165.565 65.3922 165.565 65.3922L164.423 59.494C164.423 59.494 162.14 60.8629 161.374 60.9432C160.608 61.0235 159.646 61.8651 159.045 60.0514C158.444 58.2377 156.029 55.2061 156.029 55.2061C155.215 54.0837 154.818 52.7128 154.904 51.3288C154.904 51.3288 153.778 48.6629 153.013 47.733C152.248 46.8032 152.708 36.2595 158.188 34.6571C163.552 33.0885 166.419 31.7592 170.725 37.1745C175.031 42.5898 172.22 53.4732 172.22 53.4732Z" fill="#DAA98C"/>
<path d="M153.927 40.9816C153.927 40.9816 156.739 46.2807 160.531 46.175C162.87 46.1079 164.678 44.2398 164.678 44.2398C164.678 44.2398 166.882 45.1337 166.666 48.9915C166.45 52.8493 164.492 58.3121 171.15 60.3594C174.701 61.4514 180.653 57.2999 181.162 54.393C181.505 52.4383 179.337 45.0544 174.862 40.5294C170.387 36.0043 170.289 32.2152 164.497 32.53C158.705 32.8449 151.571 38.4282 151.571 38.4282C151.571 38.4282 147.916 42.5095 152.046 46.8983C152.046 46.8983 153.003 48.3823 152.845 52.0161C152.686 55.6499 153.076 64.0798 157.695 64.0798C162.314 64.0798 162.997 60.2786 162.997 60.2786C162.997 60.2786 160.104 61.6068 158.97 59.625C157.865 57.8312 156.862 55.9773 155.963 54.0718C155.29 52.5159 154.85 50.8692 154.657 49.1849C154.657 49.1849 151.609 43.9233 153.927 40.9816Z" fill="#444C61"/>
<path d="M153.927 40.9808C153.927 40.9808 156.739 46.2799 160.531 46.1742C162.87 46.1071 164.678 44.239 164.678 44.239C164.678 44.239 166.881 45.1329 166.666 48.9907C166.45 52.8485 164.403 58.6273 171.15 60.3586C173.763 61.029 176.278 59.4573 176.278 59.4573C163.447 56.8854 171.819 42.9842 166.567 41.6645C156.24 39.0688 166.915 32.7358 161.141 33.29C155.615 33.8184 151.573 38.4274 151.573 38.4274C151.573 38.4274 147.917 42.5087 152.047 46.8975C152.047 46.8975 153.005 48.3815 152.846 52.0153C152.687 55.6491 153.078 64.079 157.697 64.079C162.316 64.079 162.998 60.2778 162.998 60.2778C162.998 60.2778 160.105 61.606 158.971 59.6242C157.867 57.8304 156.863 55.9765 155.964 54.071C155.292 52.5151 154.852 50.8684 154.658 49.1841C154.658 49.1841 151.608 43.9225 153.927 40.9808Z" fill="#30384D"/>
<path d="M178.001 64.3028L185.962 72.9335C185.962 72.9335 177.899 102.215 178.969 109.077C180.04 115.939 179.151 116.896 179.151 116.896C179.151 116.896 177.72 118.39 168.898 118.846C168.898 118.846 152.985 119.191 149.698 117.495C149.698 117.495 149.698 109.618 152.447 102.543C153.836 98.9687 153.09 93.1793 151.804 90.4632C150.519 87.7471 149.092 84.5307 150.663 81.3143C152.233 78.0978 152.376 67.6614 157.515 66.4462C162.654 65.2311 165.295 63.5156 165.295 63.5156C165.295 63.5156 165.448 66.7886 167.313 67.6894C169.177 68.5902 172.475 66.4209 178.001 64.3028Z" fill="#4573D2"/>
<path d="M178.222 74.123C178.222 74.123 176.229 99.5285 165.257 100.935C154.284 102.342 153.055 101.902 153.055 101.902C153.939 101.161 154.902 100.519 155.925 99.9865C157.48 99.1375 159.591 97.674 162.535 97.4189C173.076 96.5065 169.912 89.8834 171.316 84.9367C173.077 78.7311 178.222 74.123 178.222 74.123Z" fill="#4369B6"/>
<path d="M156.616 118.631C156.616 118.631 151.83 140.503 154.886 146.795C157.942 153.086 158.503 161.088 156.949 164.652C155.396 168.215 162.133 175.324 161.678 180.631C160.717 191.839 159.19 202.226 161.877 206.477C164.565 210.729 164.055 211.82 164.055 211.82C164.055 211.82 159.666 212.227 159.355 210.111C159.043 207.996 154.184 175.918 154.184 175.918C154.184 175.918 146.112 149.789 149.696 117.492L156.614 118.629" fill="#30384D"/>
<path d="M161.237 134.246C161.686 137.534 162.46 140.769 163.549 143.903C166.849 153.145 178.11 175.535 180.372 176.518C180.372 176.518 182.699 180.864 184.787 184.824C188.691 192.229 193.71 201.612 193.71 201.612C195.902 202.71 198.439 202.894 200.767 202.125C200.767 202.125 199.251 190.787 190.106 182.351C190.106 182.351 186.283 180.634 185.962 175.212C185.64 169.789 181.549 170.15 179.503 167.861C177.457 165.571 176.615 163.402 174.208 152.798C171.801 142.193 161.237 134.246 161.237 134.246Z" fill="#30384D"/>
<path d="M175.948 42.9219L142.261 42.2705L151.063 39.2331C151.063 39.2331 151.897 30.976 156.01 29.9653C160.124 28.9546 172.914 29.0825 174.68 32.9419C176.447 36.8013 175.948 42.9219 175.948 42.9219Z" fill="#4573D2"/>
<path d="M167.998 42.7678L142.261 42.2701L151.063 39.2328C151.063 39.2328 151.897 30.9756 156.01 29.9649C160.124 28.9543 163.723 29.3959 165.49 33.2548C166.151 34.7013 163.176 37.3895 163.638 38.8223C164.409 41.2129 167.998 42.7678 167.998 42.7678Z" fill="#4369B6"/>
<path d="M82.697 64.8652C82.697 64.8652 88.4097 69.2794 88.5004 71.4693C88.5912 73.6592 88.8138 99.0905 88.8138 99.0905L103.349 111.41L97.9431 114.388L75.2681 98.1553L82.697 64.8652Z" fill="#4369B6"/>
<path d="M102.941 109.303C102.941 109.303 105.017 110.876 110.613 112.2C110.613 112.2 111.995 113.31 109.565 113.602C109.565 113.602 106.969 113.678 105.354 112.795C105.354 112.795 106.57 116.432 110.185 117.356C110.185 117.356 111.011 117.572 110.823 117.978C110.635 118.384 108.592 118.924 105.555 118.273C102.989 117.722 98.3923 116.212 97.5276 114.366C96.6629 112.521 96.2725 110.09 97.8969 108.962C99.5213 107.833 102.482 108.745 102.941 109.303Z" fill="#D1A79C"/>
<path d="M63.5593 60.5945C63.5593 60.5945 51.5504 67.7527 51.342 71.0552C51.1336 74.3578 54.4263 111.039 54.5603 111.41C55.5711 114.215 79.8469 113.882 80.2262 112.247C80.2262 112.247 81.5658 97.4359 82.3767 93.3404C83.1876 89.2448 84.478 86.2847 83.1586 80.9481C81.8391 75.6115 84.5086 67.0405 82.3782 65.8C80.2479 64.5595 73.5148 58.7733 69.8697 59.6482C67.8008 60.1626 65.6879 60.4794 63.5593 60.5945Z" fill="#4573D2"/>
<path d="M74.9141 60.7422C74.9141 60.7422 84.075 63.7748 85.5903 68.6633C86.7225 72.3151 82.4522 83.394 82.4522 83.394L80.1018 76.8866L74.9141 60.7422Z" fill="#4573D2"/>
<path d="M63.2403 60.7791C65.3724 58.6225 66.6577 55.7691 66.8611 52.7412C66.8611 52.7412 64.9011 45.6527 68.8332 42.6873C72.7653 39.7218 81.5121 36.7923 84.0736 38.5616C86.635 40.331 85.287 39.7487 85.5028 40.5661C85.7186 41.3834 87.7324 43.4428 86.7321 47.3022C86.4319 48.4592 85.7724 49.5137 86.0531 50.4356C86.4651 51.7908 88.2689 52.9568 87.1082 54.0229C86.5179 54.565 84.6766 54.4044 84.6766 54.4044C84.6766 54.4044 82.9065 61.2572 80.792 60.8557C78.6774 60.4542 77.7125 58.7858 76.5797 59.7853C75.447 60.7849 74.7332 61.7549 74.8809 63.1872C75.0825 65.1288 73.3979 67.6357 69.2194 66.0317C65.0409 64.4277 62.2484 61.8009 63.2403 60.7791Z" fill="#EABBAE"/>
<path d="M85.2231 39.697C85.1956 39.5332 87.2168 31.5154 78.3956 31.9148C74.4867 32.0918 70.3024 32.9498 68.0697 34.38C65.2234 36.2037 65.8955 37.515 64.4072 37.8828C64.4072 37.8828 62.4266 43.8729 63.5372 45.5487C63.5372 45.5487 60.1606 42.8474 57.0632 43.4602C50.6641 44.7282 53.6835 52.5474 56.896 52.9378C63.1041 53.6886 63.7182 47.6144 63.9419 47.5732C64.1655 47.532 66.6853 54.1065 66.5307 54.7151C66.5307 54.7151 67.8059 54.6881 68.7007 51.8336C69.4029 49.593 72.2645 49.7473 71.5174 48.6964C68.6822 44.7092 71.6546 42.5066 72.9161 43.5437C74.1775 44.5808 74.3865 46.2102 75.8289 46.1325C77.2713 46.0548 77.333 45.9508 78.0774 44.669C78.8219 43.3873 79.4323 41.599 80.8124 41.6312C82.1926 41.6634 85.9084 41.6169 86.5225 42.6598C86.5241 42.6625 85.384 40.6527 85.2231 39.697Z" fill="#444C61"/>
<path d="M61.4705 112.574C61.4705 112.574 65.9054 101.568 67.1684 96.6556C67.9688 93.547 67.2518 92.7941 68.346 92.0428C69.6302 91.1611 71.1058 87.6171 69.1469 85.703C68.3882 84.9633 63.5202 81.031 62.2587 79.584C57.2382 73.8253 54.1107 69.5744 56.4025 67.8446C58.2106 66.48 59.5612 66.994 61.8926 66.2264C64.511 65.3642 65.3646 64.0317 65.3646 64.0317L63.5577 60.5977C63.5577 60.5977 54.7755 66.0103 52.1238 69.2252C50.6994 70.9528 51.6675 82.0338 52.5433 89.4424C53.4697 97.2753 53.867 109.327 54.5586 111.415L61.4705 112.574Z" fill="#4369B6"/>
<path d="M65.368 64.0299C65.368 64.0299 70.1521 59.7674 70.1605 54.9427L70.169 50.1191C70.169 50.1191 69.3823 50.3204 68.7482 51.8341C68.114 53.3477 67.7569 54.4361 66.5782 54.7161C66.5782 54.7161 63.4317 60.4954 63.1489 60.9006C62.3707 62.0101 65.3701 64.0283 65.3701 64.0283" fill="#D1A79C"/>
<path d="M67.7368 34.3638C64.8904 36.1876 65.8955 37.5158 64.4072 37.8835C64.4072 37.8835 62.4266 43.8736 63.5372 45.5494C63.5372 45.5494 60.1606 42.8481 57.0632 43.461C50.6641 44.729 53.6835 52.5481 56.896 52.9385C63.104 53.6893 63.7182 47.6152 63.9419 47.574C64.1655 47.5328 66.6853 54.1072 66.5307 54.7158C66.5307 54.7158 67.8059 54.6889 68.7007 51.8344C69.4029 49.5937 72.2645 49.748 71.5174 48.6972C68.6822 44.7099 71.6546 42.5074 72.9161 43.5445C74.1775 44.5815 74.3865 46.2109 75.8289 46.1332C77.2713 46.0556 77.333 45.9515 78.0774 44.6698C78.183 44.4912 74.3522 45.3159 72.7029 41.6684C72.2867 40.7475 73.9406 38.2343 72.6391 38.0404C70.1162 37.6663 69.8366 37.0593 69.2314 36.1384C66.6441 32.2046 69.1322 33.4699 67.7368 34.3638Z" fill="#30384D"/>
<path d="M69.0942 145.372L75.4727 170.968C75.4727 170.968 72.7868 177.409 73.4394 184.345C74.0921 191.281 77.5045 203.922 77.5045 203.922L76.6144 209.695C80.1603 211.333 95.5394 219.262 95.9573 219.4C96.3873 219.542 97.0304 217.506 93.4987 215.515C89.2464 213.119 84.4343 207.002 83.7173 202.638C82.9787 198.151 84.3757 172.893 84.0339 169.314C83.692 165.735 81.6239 142.812 81.6239 142.812L69.0942 145.372Z" fill="#8A90A7"/>
<path d="M52.025 150.075L53.8552 174.496C53.8552 174.496 49.7616 182.385 49.5469 189.347C49.3322 196.31 51.776 207.446 51.776 207.446C51.2836 208.9 50.6287 210.293 49.8239 211.599C45.7947 218.199 61.4086 221.774 62.4996 222.294C62.9855 222.524 68.5748 223.965 70.0394 221.541C70.4931 220.79 70.3691 220.231 68.962 219.418C61.3991 215.049 58.6636 208.839 58.1001 206.946C56.8017 202.588 62.4495 177.515 62.554 173.921C62.6584 170.327 67.0791 146.861 67.0791 146.861L52.025 150.075Z" fill="#8A90A7"/>
<path d="M54.5607 111.412C54.5607 111.412 46.0872 120.615 49.8182 161.837L49.8499 207.227L59.3607 206.112L65.325 168.727L67.8717 139.631L71.9958 168.763L74.6812 203.527L85.752 205.129C85.752 205.129 84.6082 171.366 84.3761 168.42C83.255 154.219 80.2267 112.252 80.2267 112.252C67.8738 114.615 54.5607 111.412 54.5607 111.412Z" fill="#444C61"/>
<path d="M54.9941 111.416C54.9941 111.416 46.4382 120.542 49.7963 161.796L49.4185 207.184L53.3485 206.762C54.8305 200.604 55.902 195.418 54.3029 189.538C52.9101 184.417 56.9255 172.588 57.9295 167.716C58.9335 162.844 55.1212 152.772 57.7095 148.69C61.2765 143.064 62.9326 140.986 62.7316 137.303C62.4842 132.768 59.3023 133.304 59.1525 128.29C59.0021 123.235 66.2564 117.973 63.5367 115.187C62.8537 114.434 62.2985 113.574 61.8933 112.641L54.9941 111.416Z" fill="#30384D"/>
<path d="M67.8716 139.631C67.8716 139.631 73.1211 142.194 73.1749 147.866C73.2287 153.539 71.0862 160.023 73.8797 163.745C76.6733 167.467 77.5158 172.056 75.8925 174.943C74.2691 177.83 73.6318 183.149 75.8112 186.071C77.9907 188.993 79.5328 204.255 79.5328 204.255L74.679 203.524L71.9936 168.76L67.8716 139.631Z" fill="#30384D"/>
<path d="M56.1089 208.12C57.1305 208.063 57.5799 208.179 57.8511 208.372V208.373C58.1541 208.589 58.4908 208.955 58.8882 209.461C59.2849 209.966 59.7005 210.555 60.1909 211.213C61.1555 212.508 62.3507 213.993 63.939 215.149C65.4573 216.253 67.1448 217.302 68.6177 218.215C70.1093 219.139 71.3491 219.905 72.0278 220.467C72.166 220.581 72.1914 220.671 72.1938 220.729C72.1969 220.801 72.1686 220.926 72.0288 221.104C71.7421 221.467 71.0994 221.894 70.0854 222.216C68.0835 222.851 64.8499 223.009 60.9302 221.685C58.4938 220.861 56.798 220.474 55.7017 220.293C55.1533 220.202 54.754 220.163 54.4868 220.146C54.3535 220.138 54.253 220.137 54.1831 220.137C54.1613 220.137 54.1424 220.136 54.1265 220.137C54.1211 220.136 54.1152 220.135 54.1089 220.134C54.0676 220.127 54.0061 220.117 53.9282 220.104C53.7725 220.077 53.5493 220.039 53.2808 219.989C52.7423 219.889 52.0242 219.746 51.3013 219.571C50.5743 219.396 49.8601 219.193 49.3208 218.978C49.0495 218.869 48.8431 218.766 48.7065 218.673C48.6281 218.619 48.5946 218.584 48.5825 218.57C48.5134 218.23 48.6067 217.901 48.7798 217.459C48.9418 217.045 49.2016 216.48 49.1968 215.862V215.861C49.1842 214.354 49.815 212.534 50.4829 211.047C50.8128 210.313 51.1435 209.677 51.3921 209.225C51.5133 209.004 51.6145 208.828 51.686 208.706C53.7471 208.377 55.1345 208.175 56.1089 208.12Z" fill="#2D2B34" stroke="#2D2B34"/>
<path d="M83.8398 206.113C84.2309 206.117 84.4164 206.181 84.498 206.239C84.8011 206.455 85.1378 206.821 85.5352 207.327C85.932 207.832 86.3475 208.421 86.8379 209.079C87.8025 210.374 88.9974 211.859 90.5859 213.016V213.017C92.1039 214.12 93.7918 215.169 95.2646 216.081C96.57 216.89 97.6822 217.578 98.3945 218.113L98.6748 218.333C98.8128 218.447 98.8383 218.537 98.8408 218.596C98.8438 218.667 98.8156 218.793 98.6758 218.971C98.3888 219.334 97.7452 219.76 96.7314 220.082C94.7294 220.717 91.4966 220.875 87.5771 219.551C85.141 218.728 83.4449 218.34 82.3486 218.159C81.8006 218.069 81.4019 218.03 81.1348 218.014C81.0012 218.006 80.9001 218.003 80.8301 218.003C80.8095 218.003 80.7917 218.003 80.7764 218.003C80.7702 218.002 80.7633 218.001 80.7559 218C80.7147 217.993 80.6538 217.984 80.5762 217.971C80.4204 217.944 80.1966 217.905 79.9277 217.855C79.3892 217.756 78.6712 217.613 77.9482 217.438C77.2212 217.263 76.5071 217.06 75.9678 216.845C75.6965 216.736 75.49 216.633 75.3535 216.54C75.2753 216.487 75.2416 216.451 75.2295 216.438C75.1604 216.097 75.2536 215.768 75.4268 215.325C75.5888 214.911 75.8489 214.347 75.8438 213.729C75.831 212.187 76.2461 210.481 76.6777 209.139C76.892 208.473 77.1081 207.906 77.2695 207.506C77.3326 207.35 77.3875 207.219 77.4307 207.118C78.418 206.957 79.3073 206.798 80.0977 206.653C80.9627 206.495 81.7033 206.357 82.333 206.26C82.9657 206.162 83.4611 206.11 83.8398 206.113Z" fill="#2D2B34" stroke="#2D2B34"/>
<path d="M63.1753 45.0273L94.8758 43.7561L86.6512 40.8472C86.6512 40.8472 86.0181 32.5203 82.1668 31.5746C78.3154 30.6289 66.2812 30.9898 64.5502 34.921C62.8192 38.8523 63.1753 45.0273 63.1753 45.0273Z" fill="#4573D2"/>
<path d="M63.1756 45.0273L73.9642 44.77C73.9642 44.77 75.6862 41.6001 75.2668 40.0589C74.8284 38.4497 73.8951 37.9251 75.2668 34.9812C76.9229 31.4204 86.0169 32.5203 82.1655 31.5746C78.3141 30.6289 66.2799 30.9898 64.5489 34.921C62.8179 38.8523 63.1756 45.0273 63.1756 45.0273Z" fill="#4369B6"/>
<path d="M139.911 77.8635L108.486 65.3887L90.5045 110.812L121.93 123.287L139.911 77.8635Z" fill="#D5A882"/>
<path d="M132.249 74.822L108.486 65.3887L90.5045 110.812L114.268 120.246L132.249 74.822Z" fill="#BA8B67"/>
<path d="M137.278 77.916L129.276 82.4284L125.126 92.9124L132.987 89.7335L137.278 77.916Z" fill="#4573D2"/>
<path d="M101.033 83.9385L130.257 82.4284L137.28 77.916L133.516 89.733L126.617 92.9119L96.812 94.3059L101.033 83.9385Z" fill="#DAA98C"/>
<path d="M129.277 82.4279L125.127 92.9119L132.988 89.733L137.277 77.916L129.277 82.4279Z" fill="#F5BE9D"/>
<path d="M96.2269 94.5618L105.288 88.7988C105.389 89.3256 105.349 89.87 105.172 90.3762C104.994 90.8824 104.686 91.3324 104.278 91.6803C103.566 92.4106 102.794 93.0791 101.97 93.6784L110.914 90.9406C110.914 90.9406 114.997 90.5581 113.285 93.4317C111.574 96.3052 108.372 99.7906 104.228 100.526C101.578 100.996 95.4477 99.7467 95.4477 99.7467L93.4165 94.9126L96.2269 94.5618Z" fill="#EABBAE"/>
<path d="M96.7533 96.995C97.8141 97.4052 98.949 97.5884 100.085 97.5329C101.221 97.4774 102.332 97.1844 103.348 96.6727C106.808 94.9292 109.631 96.491 110.497 94.7179C111.363 92.9449 114.997 90.5606 113.286 93.4341C111.574 96.3076 108.373 99.793 104.229 100.528C101.578 100.999 95.4481 99.7491 95.4481 99.7491L94.356 97.1487L96.7533 96.995Z" fill="#D1A79C"/>
<path d="M56.4048 67.842C56.4048 67.842 59.0222 67.477 61.7018 75.5122C62.3876 77.5727 67.5896 93.146 71.9163 96.9536C73.7481 98.5655 93.4017 93.3827 95.3411 93.2295C97.2805 93.0763 96.6791 100.326 96.6791 100.326C93.552 101.891 90.3313 103.262 87.0353 104.429C81.597 106.312 71.7454 107.546 69.7923 107.557C60.2641 107.602 55.0906 88.4112 52.5582 82.6535C47.5234 71.2022 51.9351 66.8319 56.4048 67.842Z" fill="#4573D2"/>
<path d="M56.4046 67.842C56.4046 67.842 51.3493 72.6498 58.3567 79.7462C63.6679 85.1256 58.8183 90.2228 62.7478 92.987C66.5406 95.6555 64.6202 102.867 70.2627 101.728C74.6116 100.849 76.3568 105.237 85.8075 100.195C92.3617 96.6984 95.572 97.0873 96.7527 96.9943C96.7527 96.9943 96.8451 99.9312 96.681 100.326C96.5639 100.609 92.0936 102.68 87.0373 104.43C81.5989 106.312 71.7473 107.547 69.7942 107.558C60.266 107.603 55.0925 88.4117 52.5601 82.6541C47.5233 71.2022 51.9349 66.8319 56.4046 67.842Z" fill="#4369B6"/>
<path d="M136.818 101.395C136.767 101.391 136.719 101.372 136.677 101.343C136.308 101.086 134.325 99.7745 132.272 99.6984C130.64 99.5811 129.022 99.3119 127.439 98.8943C127.386 98.8807 127.331 98.8817 127.278 98.8971C127.226 98.9126 127.179 98.9421 127.142 98.9823C127.105 99.0225 127.079 99.0721 127.068 99.1256C127.057 99.1792 127.061 99.2347 127.079 99.2864C127.345 100.019 128.232 101.37 131.178 102.256C131.234 102.272 131.285 102.305 131.323 102.349C131.361 102.393 131.385 102.448 131.393 102.506C131.401 102.564 131.392 102.623 131.367 102.676C131.342 102.729 131.302 102.773 131.252 102.804C129.638 103.781 125.23 106.439 123.931 107.123C122.33 107.969 125.628 111.788 127.217 111.595C129.997 111.258 134.884 109.233 136.317 107.63C137.441 106.371 139.246 106.309 139.97 106.34C140.011 106.342 140.051 106.335 140.09 106.32C140.128 106.305 140.163 106.283 140.192 106.254C140.221 106.225 140.244 106.191 140.259 106.153C140.275 106.115 140.282 106.075 140.282 106.034L140.236 101.996C140.235 101.921 140.207 101.849 140.156 101.794C140.105 101.739 140.036 101.704 139.962 101.697L136.818 101.395Z" fill="#DAA98C"/>
<path d="M136.818 101.395C136.767 101.391 136.719 101.372 136.677 101.343C136.308 101.086 134.325 99.7745 132.272 99.6984C130.64 99.5811 129.022 99.3119 127.439 98.8943C127.386 98.8807 127.331 98.8817 127.278 98.8971C127.226 98.9126 127.179 98.9421 127.142 98.9823C127.105 99.0225 127.08 99.0721 127.068 99.1256C127.057 99.1792 127.061 99.2347 127.079 99.2864C127.345 100.019 128.232 101.37 131.178 102.256C131.234 102.272 131.285 102.305 131.323 102.349C131.361 102.393 131.386 102.448 131.393 102.506C131.401 102.564 131.392 102.623 131.367 102.676C131.342 102.729 131.302 102.773 131.252 102.804C129.638 103.781 125.23 106.439 123.931 107.123C123.278 107.467 123.685 109.029 126.984 107.973C129.105 107.295 129.166 105.878 135.531 105.244C138.208 104.977 140.237 101.996 140.237 101.996C140.236 101.921 140.207 101.849 140.157 101.794C140.106 101.739 140.037 101.704 139.963 101.697L136.818 101.395Z" fill="#D5A882"/>
<path d="M183.256 71.5732C187.553 70.9355 188.175 78.7008 182.782 90.2108C177.388 101.721 175.234 105.655 173.274 106.694C171.314 107.734 138.535 107.019 138.535 107.019L138.647 101.258C138.647 101.258 166.336 99.0386 169.539 97.6882C172.741 96.3378 175.561 68.0208 183.256 71.5738" fill="#4573D2"/>
<path d="M174.969 100.864C170.475 102.938 169.345 102.842 165.49 103.136C161.03 103.477 155.426 102.384 151.319 103.611C143.663 105.899 138.597 103.932 138.597 103.932L138.537 107.019C138.537 107.019 171.315 107.734 173.276 106.695C175.236 105.655 177.391 101.721 182.784 90.2109C182.784 90.2125 177.211 99.829 174.969 100.864Z" fill="#4369B6"/>
<path d="M137.394 181.279H95.8096V200.636H137.394V181.279Z" fill="#D5A882"/>
<path d="M127.256 181.279H95.8096V200.636H127.256V181.279Z" fill="#BA8B67"/>
<path d="M141.887 169.15H100.302V181.445H141.887V169.15Z" fill="#D5A882"/>
<path d="M131.748 169.15H100.302V181.445H131.748V169.15Z" fill="#BA8B67"/>
<path d="M104.067 186.9H95.8096V195.169H104.067V186.9Z" fill="#DAA98C"/>
<path d="M125.023 177.135H114.742V181.445H125.023V177.135Z" fill="#DAA98C"/>
<mask id="mask1_69_7293" style="mask-type:alpha" maskUnits="userSpaceOnUse" x="214" y="95" width="27" height="30">
<path d="M240.751 109.772C235.671 113.408 231.937 118.567 228.353 123.704C230.193 120.35 230.905 119.675 232.996 115.938C234.291 113.227 235.38 110.422 236.255 107.548C236.255 107.548 236.866 104.444 236.999 102.885C233.117 107.813 230.571 113.728 228.615 119.756C230.261 111.72 233.693 104.122 232.865 95.9043C230.501 100.173 228.858 104.802 228 109.607C227.764 110.911 227.583 112.223 227.445 113.539C227.381 108.048 226.671 102.584 225.329 97.26C224.005 101.062 223.545 105.113 223.984 109.116C224.229 111.17 224.609 113.206 225.122 115.21C223.651 111.125 221.884 107.153 219.836 103.326C219.467 102.554 218.948 101.863 218.31 101.294C217.892 103.316 217.85 105.399 218.187 107.436C218.846 111.268 220.233 114.938 222.273 118.246C220.052 116.183 217.416 114.619 214.542 113.661C216.48 118.915 222.741 122.595 227.829 124.454L227.816 124.474L227.836 124.457C227.865 124.467 227.895 124.48 227.924 124.49H227.927C227.964 124.421 227.997 124.361 228.032 124.294C232.973 120.204 238.92 115.891 240.751 109.772Z" fill="#B0B5C0"/>
</mask>
<g mask="url(#mask1_69_7293)">
<path d="M240.751 109.772C235.671 113.408 231.937 118.567 228.353 123.704C230.193 120.35 230.905 119.675 232.996 115.938C234.291 113.227 235.38 110.422 236.255 107.548C236.255 107.548 236.866 104.444 236.999 102.885C233.117 107.813 230.571 113.728 228.615 119.756C230.261 111.72 233.693 104.122 232.865 95.9043C230.501 100.173 228.858 104.802 228 109.607C227.764 110.911 227.583 112.223 227.445 113.539C227.381 108.048 226.671 102.584 225.329 97.26C224.005 101.062 223.545 105.113 223.984 109.116C224.229 111.17 224.609 113.206 225.122 115.21C223.651 111.125 221.884 107.153 219.836 103.326C219.467 102.554 218.948 101.863 218.31 101.294C217.892 103.316 217.85 105.399 218.187 107.436C218.846 111.268 220.233 114.938 222.273 118.246C220.052 116.183 217.416 114.619 214.542 113.661C216.48 118.915 222.741 122.595 227.829 124.454L227.816 124.474L227.836 124.457C227.865 124.467 227.895 124.48 227.924 124.49H227.927C227.964 124.421 227.997 124.361 228.032 124.294C232.973 120.204 238.92 115.891 240.751 109.772Z" fill="#B0B5C0"/>
<path d="M219.649 122.599C221.708 121.649 223.889 120.99 226.128 120.641C228.381 120.493 230.643 120.637 232.859 121.067C233.123 121.103 233.168 120.716 232.947 120.623C228.899 118.952 222.984 119.757 219.422 122.254C219.216 122.398 219.447 122.682 219.653 122.599H219.649Z" fill="#8A90A7"/>
<path d="M220.129 120.934C225.41 118.91 230.496 119.032 235.867 120.581C235.879 120.587 235.892 120.59 235.905 120.59C235.917 120.59 235.93 120.588 235.942 120.583C235.954 120.579 235.965 120.572 235.974 120.563C235.983 120.554 235.991 120.543 235.996 120.532C236.001 120.52 236.004 120.507 236.004 120.494C236.004 120.481 236.001 120.469 235.997 120.457C235.992 120.445 235.985 120.434 235.976 120.425C235.967 120.416 235.956 120.409 235.944 120.404C235.939 120.402 235.934 120.4 235.928 120.399C231.008 118.285 224.887 118.658 220.051 120.776C219.945 120.828 220.023 120.979 220.129 120.934Z" fill="#8A90A7"/>
<path d="M216.377 119.47C219.895 117.929 223.662 117.041 227.497 116.847C229.236 116.794 230.977 116.91 232.694 117.191C234.638 117.513 236.446 118.191 238.344 118.676C238.535 118.726 238.706 118.452 238.509 118.343C235.276 116.543 230.922 116.143 227.29 116.301C223.437 116.402 219.665 117.434 216.296 119.309C216.278 119.321 216.264 119.34 216.259 119.361C216.253 119.382 216.255 119.405 216.265 119.425C216.275 119.445 216.292 119.46 216.313 119.468C216.333 119.476 216.356 119.476 216.377 119.468V119.47Z" fill="#8A90A7"/>
<path d="M216.958 117.94C225.119 114.847 234.749 115.807 242.921 118.253C242.945 118.26 242.971 118.258 242.994 118.246C243.016 118.234 243.033 118.213 243.04 118.189C243.047 118.165 243.045 118.14 243.034 118.118C243.023 118.096 243.005 118.079 242.982 118.07C238.727 116.104 233.574 115.858 228.963 115.821C224.847 115.649 220.741 116.333 216.903 117.828C216.829 117.862 216.885 117.966 216.958 117.94Z" fill="#8A90A7"/>
<path d="M217.053 112.981C220.794 111.422 225.293 111.283 229.283 111.602C233.26 111.93 237.153 112.926 240.8 114.548C240.906 114.596 240.966 114.421 240.859 114.372C237.033 112.674 232.938 111.663 228.762 111.386C224.932 111.14 220.551 111.286 216.997 112.862C216.918 112.897 216.977 113.012 217.054 112.98L217.053 112.981Z" fill="#8A90A7"/>
<path d="M217.161 111.476C226.202 109.354 235.694 110.356 244.095 114.319C244.253 114.391 244.386 114.122 244.23 114.043C235.814 109.919 226.197 108.972 217.14 111.375C217.077 111.392 217.096 111.492 217.161 111.476Z" fill="#8A90A7"/>
<path d="M215.184 107.926C222.897 103.879 233.151 102.284 240.693 107.454C240.79 107.52 240.92 107.381 240.832 107.295C237.526 104.115 232.134 103.711 227.812 104.022C223.359 104.338 219.035 105.653 215.16 107.87C215.156 107.872 215.153 107.874 215.15 107.877C215.147 107.88 215.145 107.883 215.144 107.887C215.142 107.891 215.142 107.895 215.142 107.899C215.142 107.903 215.143 107.907 215.144 107.91C215.146 107.914 215.148 107.917 215.151 107.92C215.154 107.923 215.157 107.925 215.161 107.926C215.165 107.928 215.168 107.929 215.172 107.929C215.176 107.928 215.18 107.928 215.184 107.926Z" fill="#8A90A7"/>
</g>
<path d="M233.819 120.461H218.993V132.877H233.819V120.461Z" fill="#DBA53B"/>
<path d="M228.44 120.461H233.818V132.877H228.44V120.461Z" fill="#FFBD3B"/>
</g>
<defs>
<clipPath id="clip0_69_7293">
<rect width="254" height="242.253" fill="white"/>
</clipPath>
</defs>
</svg>
