<svg width="160" height="121" viewBox="0 0 160 121" fill="none" xmlns="http://www.w3.org/2000/svg">
<g clip-path="url(#clip0_304_10107)">
<path d="M159.725 74.409C162.625 42.7412 142.24 28.696 114.023 30.2013C85.8058 31.7067 90.4048 7.08088 63.8029 0.872712C37.201 -5.33545 2.53172 22.7324 0.175696 48.4627C-2.72525 80.1314 30.6423 111.612 74.7005 118.776C118.759 125.941 156.826 106.078 159.725 74.409Z" fill="#BEBEBE" fill-opacity="0.14"/>
<path d="M75.5388 40.7415L66.4916 74.5483C66.1327 75.8894 66.929 77.2675 68.2701 77.6264L126.839 93.3002C128.18 93.6591 129.558 92.8628 129.917 91.5217L138.964 57.715C139.323 56.3739 138.527 54.9958 137.186 54.6369L78.6169 38.9631C77.2758 38.6042 75.8977 39.4004 75.5388 40.7415Z" fill="#CED3DF"/>
<path d="M78.796 39.0106L137.009 54.589C137.7 54.7741 138.289 55.2262 138.647 55.8458C139.005 56.4654 139.102 57.2018 138.918 57.8931L136.886 62.0047L102.787 65.9138L75.1985 45.4963L75.4923 40.9194C75.6773 40.2282 76.1293 39.6388 76.7488 39.2808C77.3684 38.9228 78.1048 38.8256 78.796 39.0106Z" fill="#E2E5EC"/>
<path d="M71.7774 11.4837L22.4153 24.7184C21.5215 24.9581 20.9912 25.8769 21.2308 26.7708L40.9745 100.409C41.2141 101.303 42.133 101.833 43.0268 101.594L92.3889 88.359C93.2828 88.1194 93.8131 87.2005 93.5734 86.3067L73.8298 12.6682C73.5901 11.7743 72.6712 11.244 71.7774 11.4837Z" fill="white"/>
<path d="M71.7774 11.4837L22.4153 24.7184C21.5215 24.9581 20.9912 25.8769 21.2308 26.7708L40.9745 100.409C41.2141 101.303 42.133 101.833 43.0268 101.594L92.3889 88.359C93.2828 88.1194 93.8131 87.2005 93.5734 86.3067L73.8298 12.6682C73.5901 11.7743 72.6712 11.244 71.7774 11.4837Z" fill="white"/>
<path d="M59.7857 23.372L32.2724 30.7488C31.602 30.9285 31.2043 31.6177 31.384 32.288C31.5638 32.9584 32.2529 33.3562 32.9233 33.1764L60.4366 25.7997C61.107 25.6199 61.5047 24.9308 61.325 24.2604C61.1452 23.59 60.4561 23.1923 59.7857 23.372Z" fill="#E2E5EC"/>
<path d="M67.7987 22.5238C67.6189 21.8535 66.9299 21.4558 66.2596 21.6355C65.5893 21.8152 65.1916 22.5043 65.3713 23.1746C65.551 23.8449 66.2401 24.2426 66.9104 24.0629C67.5807 23.8832 67.9784 23.1941 67.7987 22.5238Z" fill="#E2E5EC"/>
<path d="M62.0172 31.6943L34.5039 39.071C33.8335 39.2508 33.4357 39.9399 33.6155 40.6103C33.7952 41.2807 34.4844 41.6784 35.1548 41.4987L62.6681 34.1219C63.3384 33.9422 63.7362 33.253 63.5564 32.5827C63.3767 31.9123 62.6875 31.5145 62.0172 31.6943Z" fill="#E2E5EC"/>
<path d="M70.0301 30.848C69.8504 30.1777 69.1613 29.78 68.491 29.9597C67.8207 30.1395 67.423 30.8285 67.6028 31.4988C67.7825 32.1691 68.4715 32.5668 69.1418 32.3871C69.8121 32.2074 70.2098 31.5183 70.0301 30.848Z" fill="#E2E5EC"/>
<path d="M64.2486 40.0185L36.7353 47.3953C36.0649 47.575 35.6672 48.2641 35.8469 48.9345C36.0267 49.6049 36.7158 50.0026 37.3862 49.8229L64.8995 42.4461C65.5699 42.2664 65.9676 41.5773 65.7879 40.9069C65.6081 40.2365 64.919 39.8388 64.2486 40.0185Z" fill="#E2E5EC"/>
<path d="M72.2616 39.1722C72.0818 38.5019 71.3928 38.1043 70.7225 38.284C70.0522 38.4637 69.6545 39.1528 69.8342 39.8231C70.0139 40.4933 70.703 40.891 71.3733 40.7113C72.0436 40.5316 72.4413 39.8425 72.2616 39.1722Z" fill="#E2E5EC"/>
<path d="M66.481 48.3427L38.9677 55.7195C38.2974 55.8992 37.8996 56.5884 38.0794 57.2587C38.2591 57.9291 38.9482 58.3269 39.6186 58.1471L67.1319 50.7704C67.8023 50.5906 68.2 49.9015 68.0203 49.2311C67.8406 48.5607 67.1514 48.163 66.481 48.3427Z" fill="#E2E5EC"/>
<path d="M74.493 47.4945C74.3133 46.8242 73.6242 46.4265 72.9539 46.6062C72.2836 46.786 71.8859 47.475 72.0656 48.1453C72.2454 48.8156 72.9344 49.2133 73.6047 49.0336C74.275 48.8539 74.6727 48.1648 74.493 47.4945Z" fill="#E2E5EC"/>
<path d="M68.7125 56.665L41.1992 64.0417C40.5288 64.2215 40.1311 64.9106 40.3108 65.581C40.4905 66.2514 41.1797 66.6491 41.8501 66.4694L69.3634 59.0926C70.0337 58.9129 70.4315 58.2237 70.2517 57.5534C70.072 56.883 69.3828 56.4852 68.7125 56.665Z" fill="#E2E5EC"/>
<path d="M76.7244 55.8187C76.5447 55.1484 75.8557 54.7507 75.1854 54.9305C74.5151 55.1102 74.1174 55.7992 74.2971 56.4695C74.4768 57.1398 75.1659 57.5375 75.8362 57.3578C76.5065 57.1781 76.9042 56.489 76.7244 55.8187Z" fill="#E2E5EC"/>
<path d="M57.1873 68.6776L43.4306 72.366C42.7602 72.5457 42.3625 73.2349 42.5422 73.9052C42.722 74.5756 43.4111 74.9733 44.0815 74.7936L57.8382 71.1052C58.5085 70.9255 58.9063 70.2363 58.7265 69.566C58.5468 68.8956 57.8576 68.4978 57.1873 68.6776Z" fill="#E2E5EC"/>
<path d="M59.4187 76.9998L45.6621 80.6882C44.9917 80.868 44.5939 81.5571 44.7737 82.2275C44.9534 82.8979 45.6426 83.2956 46.313 83.1159L60.0696 79.4275C60.74 79.2478 61.1377 78.5586 60.958 77.8882C60.7782 77.2179 60.0891 76.8201 59.4187 76.9998Z" fill="#E2E5EC"/>
<path d="M61.6502 85.3241L47.8935 89.0124C47.2231 89.1922 46.8254 89.8813 47.0051 90.5517C47.1849 91.2221 47.874 91.6198 48.5444 91.4401L62.301 87.7517C62.9714 87.572 63.3692 86.8828 63.1894 86.2124C63.0097 85.5421 62.3205 85.1443 61.6502 85.3241Z" fill="#E2E5EC"/>
<path d="M75.0932 80.9262C75.1044 80.8985 75.1197 80.8731 75.1293 80.8441L79.4587 67.2754C79.56 66.9578 79.531 66.613 79.3781 66.3169C79.2252 66.0207 78.9609 65.7974 78.6434 65.6961C78.3258 65.5948 77.9811 65.6237 77.6849 65.7766C77.3887 65.9295 77.1654 66.1938 77.0641 66.5113L73.2798 78.3683L68.0711 74.3437C67.8074 74.1398 67.4735 74.0491 67.1429 74.0914C66.8122 74.1337 66.512 74.3057 66.3081 74.5694C66.1043 74.8331 66.0135 75.167 66.0558 75.4976C66.0982 75.8282 66.2701 76.1285 66.5338 76.3323L73.1631 81.4563C73.1844 81.4727 73.2081 81.4832 73.2302 81.4977C73.2688 81.5252 73.3089 81.5503 73.3505 81.573C73.3889 81.5921 73.4282 81.6092 73.4684 81.6242C73.496 81.635 73.5189 81.651 73.5498 81.6596C73.5603 81.6629 73.5707 81.6631 73.5806 81.6661C73.6227 81.6773 73.6654 81.6862 73.7084 81.693C73.7486 81.7005 73.7881 81.7089 73.8281 81.7125C73.8681 81.7161 73.9008 81.7134 73.9377 81.7135C73.9829 81.7143 74.028 81.7127 74.0731 81.7089C74.1063 81.7052 74.1387 81.6965 74.1717 81.6902C74.2177 81.6826 74.2631 81.6723 74.3079 81.6594C74.3419 81.6502 74.3734 81.6336 74.4058 81.6201C74.4479 81.6043 74.4891 81.5862 74.5291 81.5658C74.5601 81.5488 74.5887 81.5277 74.6183 81.5085C74.6576 81.4838 74.6956 81.4571 74.7321 81.4285C74.757 81.408 74.7787 81.3839 74.8009 81.3615C74.8385 81.3266 74.8739 81.2893 74.9067 81.2499C74.9122 81.2427 74.9195 81.2378 74.925 81.2306C74.9404 81.2105 74.9504 81.1878 74.9644 81.1672C74.9927 81.1273 75.0187 81.0857 75.042 81.0427C75.0612 81.0048 75.0782 80.9659 75.0932 80.9262Z" fill="#4573D2"/>
</g>
<defs>
<clipPath id="clip0_304_10107">
<rect width="160" height="120.238" fill="white"/>
</clipPath>
</defs>
</svg>
