<svg width="160" height="110" viewBox="0 0 160 110" fill="none" xmlns="http://www.w3.org/2000/svg">
<g clip-path="url(#clip0_9_51101)">
<path d="M49.4031 5.52083C54.8319 0.681908 63.351 -0.310231 71.11 0.0751146C95.4736 1.2887 117.463 13.0659 136.486 26.3904C143.373 31.2122 150.152 36.4106 154.623 43.0528C163.729 56.5741 161.023 75.3046 148.371 86.4433C144.066 90.2321 138.846 93.1431 133.488 95.7137C123.961 100.292 113.683 103.968 102.87 105.019C95.1635 105.763 87.3565 105.158 79.6901 104.118C58.2786 101.205 37.2595 94.7716 19.6357 83.7684C11.9084 78.9424 4.62514 72.9425 1.43804 65.1384C-1.74905 57.3343 0.292343 47.4355 8.18078 42.8051C11.4443 40.8938 15.3471 40.0301 19.1666 39.2185C24.7924 38.0258 30.505 36.8497 35.5787 34.4242C40.8214 31.9191 47.0265 27.0751 45.9847 21.5285C44.8758 15.5853 43.9822 10.3589 49.4031 5.52083Z" fill="#BEBEBE" fill-opacity="0.14"/>
<path d="M75.2158 71.1226L66.0928 51.045L125.915 3.98828L75.2158 71.1226Z" fill="#CED3DF"/>
<path d="M38.8789 45.2582L66.0919 51.0463L125.917 3.98828L38.8789 45.2582Z" fill="white"/>
<path d="M90.512 59.8678L75.2139 71.1233L75.4259 53.8086L90.512 59.8678Z" fill="#B0B5C0"/>
<path d="M75.4277 53.8079L104.134 70.771L125.917 3.98828L75.4277 53.8079Z" fill="white"/>
<path d="M66.0202 109.759C65.8536 109.763 65.6922 109.7 65.5715 109.586C65.4508 109.471 65.3807 109.313 65.3766 109.146C65.3725 108.98 65.4348 108.819 65.5497 108.698C65.6646 108.577 65.8227 108.507 65.9893 108.503C68.0451 108.394 70.0896 108.129 72.1047 107.708C72.2649 107.682 72.4288 107.719 72.5621 107.812C72.6955 107.904 72.7881 108.044 72.8204 108.203C72.8527 108.362 72.8224 108.527 72.7357 108.664C72.649 108.801 72.5126 108.899 72.3551 108.938C70.2784 109.371 68.1714 109.645 66.0527 109.756L66.0202 109.759ZM59.767 109.538C59.7409 109.538 59.7149 109.537 59.689 109.533C57.5774 109.271 55.4931 108.823 53.4605 108.194C53.3012 108.145 53.168 108.034 53.0901 107.887C53.0123 107.74 52.9961 107.568 53.0452 107.409C53.0943 107.25 53.2046 107.117 53.3519 107.039C53.4992 106.961 53.6714 106.945 53.8307 106.994C55.7921 107.601 57.8033 108.034 59.8409 108.287C60.0005 108.305 60.147 108.384 60.2502 108.507C60.3534 108.63 60.4055 108.788 60.3957 108.948C60.386 109.108 60.3152 109.259 60.1979 109.369C60.0805 109.478 59.9256 109.539 59.765 109.538L59.767 109.538ZM78.2698 107.286C78.1211 107.286 77.9773 107.233 77.864 107.137C77.7507 107.04 77.6752 106.907 77.651 106.761C77.6268 106.614 77.6553 106.463 77.7316 106.336C77.808 106.208 77.9271 106.112 78.0678 106.064C79.9255 105.429 81.8659 104.653 83.8347 103.757C83.9851 103.696 84.1535 103.695 84.3043 103.755C84.4552 103.815 84.577 103.931 84.6441 104.079C84.7111 104.227 84.7184 104.395 84.6642 104.548C84.61 104.701 84.4987 104.827 84.3535 104.9C82.3501 105.812 80.3692 106.604 78.4726 107.253C78.4074 107.275 78.3388 107.286 78.2698 107.287V107.286ZM47.843 105.868C47.7438 105.868 47.6461 105.844 47.5579 105.799C45.6215 104.846 43.8426 103.601 42.2831 102.11C42.2219 102.055 42.1722 101.988 42.1368 101.914C42.1014 101.839 42.0811 101.758 42.0769 101.676C42.0728 101.594 42.0849 101.511 42.1125 101.434C42.1402 101.356 42.1829 101.285 42.2382 101.224C42.2935 101.162 42.3604 101.113 42.4349 101.077C42.5094 101.042 42.5901 101.022 42.6725 101.018C42.7549 101.013 42.8373 101.025 42.915 101.053C42.9927 101.081 43.0642 101.123 43.1254 101.179C43.14 101.192 43.1539 101.206 43.1671 101.22C44.6351 102.62 46.3088 103.788 48.1301 104.682C48.2558 104.746 48.3561 104.851 48.415 104.979C48.4739 105.107 48.4879 105.251 48.4548 105.388C48.4217 105.525 48.3433 105.647 48.2324 105.734C48.1215 105.821 47.9845 105.869 47.8434 105.868H47.843ZM89.7059 102.146C89.5661 102.146 89.4302 102.099 89.3198 102.014C89.2094 101.928 89.1308 101.808 89.0965 101.672C89.0621 101.537 89.074 101.394 89.1301 101.266C89.1863 101.138 89.2837 101.032 89.4067 100.966C91.0862 100.054 92.8555 99.0326 94.8176 97.8462C94.9599 97.7659 95.1281 97.7442 95.2862 97.7858C95.4443 97.8273 95.5799 97.9289 95.6643 98.0688C95.7487 98.2087 95.7752 98.376 95.7381 98.5351C95.701 98.6942 95.6033 98.8326 95.4658 98.9209C93.4878 100.118 91.701 101.148 90.0052 102.07C89.914 102.119 89.8119 102.146 89.708 102.146H89.7059ZM123.172 100.871C123.051 100.87 122.933 100.835 122.832 100.77C122.73 100.704 122.65 100.611 122.6 100.501C122.551 100.391 122.534 100.269 122.551 100.15C122.569 100.03 122.621 99.9187 122.7 99.8279C122.705 99.8233 122.742 99.7779 122.808 99.6982C122.857 99.6321 122.919 99.5764 122.99 99.5342C123.061 99.492 123.14 99.4641 123.221 99.4522C123.303 99.4403 123.386 99.4446 123.466 99.4649C123.546 99.4851 123.621 99.5209 123.688 99.5702C123.754 99.6195 123.81 99.6813 123.852 99.7522C123.894 99.823 123.922 99.9014 123.934 99.983C123.946 100.065 123.941 100.148 123.921 100.228C123.901 100.308 123.865 100.383 123.816 100.449C123.806 100.462 123.795 100.476 123.784 100.491C123.693 100.602 123.641 100.661 123.641 100.661C123.583 100.727 123.511 100.78 123.43 100.817C123.35 100.853 123.262 100.872 123.174 100.873L123.172 100.871ZM39.7012 96.9087C39.5557 96.9086 39.4147 96.858 39.3025 96.7653C39.1903 96.6727 39.1139 96.5439 39.0864 96.4011C38.9615 95.7552 38.8989 95.0989 38.8994 94.441C38.9207 92.892 39.2137 91.3586 39.7651 89.9107C39.8145 89.7538 39.9236 89.6226 40.0689 89.5452C40.2142 89.4679 40.3841 89.4505 40.542 89.497C40.6999 89.5434 40.8333 89.6499 40.9135 89.7935C40.9937 89.9372 41.0143 90.1065 40.9709 90.2652C40.963 90.2917 40.9534 90.3176 40.9421 90.3428C40.4416 91.6523 40.1746 93.0394 40.1532 94.441C40.1524 95.0186 40.207 95.595 40.3164 96.1622C40.3326 96.243 40.3325 96.3263 40.3164 96.4071C40.3002 96.4879 40.2682 96.5648 40.2222 96.6332C40.1762 96.7017 40.1171 96.7604 40.0483 96.8059C39.9795 96.8515 39.9024 96.883 39.8214 96.8986C39.7821 96.9061 39.7421 96.9099 39.702 96.9099L39.7012 96.9087ZM100.471 95.6992C100.335 95.699 100.203 95.6546 100.094 95.5727C99.9857 95.4908 99.9066 95.3759 99.8689 95.2453C99.8313 95.1146 99.8371 94.9753 99.8855 94.8482C99.9339 94.7211 100.022 94.6132 100.137 94.5407L100.621 94.235C102.321 93.1607 103.927 92.1461 105.472 91.2106C105.614 91.1316 105.782 91.1108 105.939 91.1525C106.096 91.1943 106.231 91.2955 106.315 91.4346C106.399 91.5738 106.426 91.7402 106.39 91.8987C106.354 92.0573 106.257 92.1956 106.121 92.2845C104.586 93.2141 102.985 94.2258 101.29 95.298L100.806 95.6037C100.705 95.667 100.588 95.6999 100.469 95.6984L100.471 95.6992ZM125.742 95.037H125.704C125.539 95.0256 125.385 94.9494 125.275 94.825C125.166 94.7006 125.11 94.538 125.12 94.3726C125.127 94.2563 125.131 94.1399 125.131 94.0227C125.131 92.2766 124.3 90.779 122.662 89.5708C122.528 89.4723 122.439 89.3245 122.414 89.16C122.389 88.9956 122.43 88.8278 122.529 88.6938C122.627 88.5597 122.775 88.4703 122.94 88.4452C123.104 88.4201 123.272 88.4614 123.406 88.5599C125.382 90.0175 126.384 91.8545 126.384 94.0231C126.384 94.1654 126.38 94.3072 126.371 94.4485C126.362 94.6082 126.292 94.7584 126.175 94.8681C126.059 94.9779 125.905 95.0389 125.745 95.0386L125.742 95.037ZM111.286 89.3402C111.143 89.3403 111.005 89.2918 110.893 89.2028C110.782 89.1137 110.704 88.9895 110.673 88.8504C110.641 88.7114 110.658 88.5658 110.721 88.4376C110.783 88.3095 110.887 88.2064 111.016 88.1454C113.495 86.9664 115.527 86.3659 117.227 86.3104C117.308 86.3066 117.389 86.3188 117.466 86.3463C117.542 86.3738 117.612 86.416 117.672 86.4706C117.732 86.5252 117.781 86.5911 117.815 86.6645C117.85 86.7379 117.87 86.8174 117.874 86.8984V86.9168C117.879 87.0829 117.818 87.2444 117.705 87.366C117.591 87.4875 117.434 87.5592 117.268 87.5653C115.742 87.6162 113.875 88.1779 111.553 89.281C111.47 89.321 111.378 89.342 111.286 89.3423L111.286 89.3402ZM43.3645 85.2657C43.2337 85.2659 43.1062 85.2247 43.0002 85.1481C42.8648 85.0511 42.7735 84.9044 42.7464 84.7402C42.7192 84.576 42.7584 84.4077 42.8553 84.2723C44.1035 82.5524 45.4723 80.9233 46.9515 79.3971C47.0058 79.3351 47.0717 79.2843 47.1457 79.2477C47.2196 79.2112 47.3 79.1895 47.3823 79.184C47.4646 79.1785 47.5472 79.1892 47.6253 79.2156C47.7035 79.242 47.7757 79.2835 47.8378 79.3377C47.8999 79.3919 47.9507 79.4579 47.9873 79.5317C48.0239 79.6056 48.0455 79.6859 48.0511 79.7682C48.0566 79.8504 48.0458 79.9329 48.0195 80.011C47.9931 80.0891 47.9515 80.1612 47.8972 80.2233C47.884 80.2379 47.8701 80.2518 47.8555 80.265C46.4181 81.7477 45.0878 83.3305 43.8746 85.0013C43.8165 85.0831 43.7396 85.1497 43.6505 85.1955C43.5613 85.2414 43.4623 85.2652 43.362 85.2649L43.3645 85.2657ZM51.9625 76.1375C51.834 76.1386 51.7083 76.1001 51.6025 76.0274C51.4966 75.9546 51.4158 75.8511 51.3708 75.7308C51.3259 75.6105 51.3191 75.4794 51.3513 75.3551C51.3835 75.2308 51.4532 75.1195 51.551 75.0361C53.0623 73.7195 54.7126 72.3763 56.4547 71.0438C56.5875 70.9478 56.7526 70.9075 56.9148 70.9315C57.0769 70.9555 57.2233 71.0419 57.3226 71.1722C57.4219 71.3025 57.4663 71.4664 57.4463 71.6289C57.4263 71.7915 57.3435 71.9398 57.2156 72.0422C55.4939 73.3575 53.8649 74.6837 52.374 75.9837C52.2602 76.0833 52.1139 76.138 51.9625 76.1375ZM61.9311 68.4899C61.7968 68.49 61.6659 68.4471 61.5577 68.3675C61.4496 68.2879 61.3698 68.1757 61.3301 68.0474C61.2905 67.9191 61.2931 67.7815 61.3375 67.6548C61.3818 67.5281 61.4657 67.419 61.5768 67.3434C64.6842 65.2165 66.8871 63.9191 66.9092 63.9062C67.0531 63.8221 67.2245 63.7986 67.3858 63.8408C67.547 63.8831 67.6849 63.9876 67.769 64.1314C67.8531 64.2752 67.8766 64.4464 67.8344 64.6076C67.7921 64.7687 67.6875 64.9064 67.5436 64.9905C67.5223 65.0038 65.3536 66.2833 62.2847 68.3806C62.1808 68.4523 62.0578 68.491 61.9316 68.4915L61.9311 68.4899Z" fill="#8A90A7"/>
<path d="M92.8793 54.8952L92.2298 55.93L92.9916 56.4074L93.6411 55.3726C94.4616 55.8094 95.1936 55.9643 95.8373 55.8373C96.4888 55.7153 97.0833 55.226 97.6208 54.3697C97.8299 54.0366 97.9708 53.7327 98.0437 53.458C98.1166 53.1833 98.1394 52.9269 98.1119 52.6887C98.0895 52.4427 98.0218 52.2069 97.909 51.9815C97.8041 51.7611 97.6704 51.5337 97.5079 51.2993L96.8064 50.3294L98.2173 48.0814C98.3838 48.2742 98.4421 48.4985 98.392 48.7544C98.347 49.0023 98.2338 49.2795 98.0526 49.5857L99.6954 50.6151L99.7999 50.4486C99.9641 50.1869 100.094 49.9093 100.19 49.6158C100.286 49.3223 100.315 49.0202 100.278 48.7096C100.24 48.399 100.121 48.0868 99.9202 47.773C99.732 47.4562 99.4281 47.1388 99.0086 46.8206L99.5237 45.9999L98.7619 45.5226L98.2468 46.3433C97.4828 45.975 96.7794 45.8712 96.1367 46.032C95.507 46.1897 94.9607 46.6374 94.4978 47.3748C94.1544 47.9219 93.9878 48.4693 93.9979 49.017C94.0129 49.5568 94.2454 50.1112 94.6953 50.6804L95.1562 51.2675L93.6482 53.6701C93.5143 53.531 93.4272 53.388 93.3867 53.2411C93.3591 53.0912 93.3613 52.938 93.3934 52.7812C93.4254 52.6245 93.4807 52.4659 93.5594 52.3053C93.651 52.1417 93.7491 51.9767 93.8536 51.8101L92.2109 50.7808L92.0541 51.0306C91.86 51.3398 91.7036 51.6506 91.585 51.9629C91.4743 52.2803 91.4326 52.6021 91.4599 52.9286C91.4922 53.2471 91.6168 53.5683 91.8337 53.892C92.0636 54.2128 92.4121 54.5472 92.8793 54.8952ZM97.4554 47.604L96.261 49.5071C96.0115 49.0414 96.0261 48.5865 96.3048 48.1425C96.6134 47.6509 96.9969 47.4714 97.4554 47.604ZM94.41 54.1475L95.7314 52.0422C95.8869 52.3054 95.9654 52.559 95.967 52.803C95.9766 53.0521 95.8868 53.3273 95.6977 53.6286C95.5583 53.8506 95.3759 54.018 95.1503 54.1308C94.9376 54.2406 94.6909 54.2461 94.41 54.1475Z" fill="#C98A30"/>
<path d="M82.861 46.457L81.4307 47.8775L87.0164 50.8414L88.0974 49.222L82.861 46.457Z" fill="#E2E5EC"/>
<path d="M84.5469 44.7942L89.1551 47.3502L90.2361 45.7308L85.9731 43.3691L84.5469 44.7942Z" fill="#E2E5EC"/>
<path d="M87.8115 41.5827L91.4469 43.4206L92.5279 41.8012L89.239 40.1602L87.8115 41.5827Z" fill="#E2E5EC"/>
<path d="M58.9286 39.2383L56.416 40.4477L73.9459 44.8833L75.8241 43.3908L58.9286 39.2383Z" fill="#E2E5EC"/>
<path d="M68.5569 34.3809L66.0781 35.5461L81.5628 38.8741L83.3346 37.4849L68.5569 34.3809Z" fill="#E2E5EC"/>
<path d="M73.9482 44.8813L77.4434 51.8096L79.1868 50.0918L75.8256 43.3887L73.9482 44.8813Z" fill="#8A90A7"/>
<path d="M63.7337 36.7754L61.2549 37.9406L77.667 41.9083L79.4855 40.4904L63.7337 36.7754Z" fill="#E2E5EC"/>
<path d="M77.7021 41.9194L81.062 48.2125L82.5517 46.7466L79.4965 40.5098L77.7021 41.9194Z" fill="#8A90A7"/>
<path d="M83.3267 37.4863L81.585 38.8822L84.4185 44.9051L86.1001 43.249L83.3267 37.4863Z" fill="#8A90A7"/>
<path d="M73.9763 31.5566L71.4971 32.7223L85.5819 35.7533L87.3537 34.3642L73.9763 31.5566Z" fill="#E2E5EC"/>
<path d="M80.2566 28.6094L77.502 29.8284L89.4657 32.6351L91.2374 31.2459L80.2566 28.6094Z" fill="#E2E5EC"/>
<path d="M85.4667 25.8477L83.1035 26.9954L93.6356 29.4075L95.4074 28.0184L85.4667 25.8477Z" fill="#E2E5EC"/>
<path d="M90.4515 23.3301L87.9727 24.4953L97.2259 26.5626L98.9622 25.1705L90.4515 23.3301Z" fill="#E2E5EC"/>
<path d="M96.1243 20.6172L93.6455 21.7824L101.246 23.4176L103.017 22.0285L96.1243 20.6172Z" fill="#E2E5EC"/>
<path d="M101.372 17.9453L98.8936 19.1105L104.983 20.4801L106.755 19.0909L101.372 17.9453Z" fill="#E2E5EC"/>
<path d="M106.532 15.2012L104.053 16.3664L108.858 17.4373L110.63 16.0482L106.532 15.2012Z" fill="#E2E5EC"/>
<path d="M91.6045 37.7634L100.722 42.5698L101.803 40.9504L93.0294 36.3926L91.6045 37.7634Z" fill="#E2E5EC"/>
<path d="M94.9863 34.4843L102.981 38.59L104.062 36.9707L96.4981 33.043L94.9863 34.4843Z" fill="#E2E5EC"/>
<path d="M98.3047 31.2246L105.378 34.6906L106.459 33.0712L99.7321 29.8008L98.3047 31.2246Z" fill="#E2E5EC"/>
<path d="M104.728 24.9082L109.781 27.2828L110.862 25.6634L106.155 23.4844L104.728 24.9082Z" fill="#E2E5EC"/>
<path d="M107.874 21.7688L112.066 23.663L113.147 22.0436L109.302 20.3438L107.874 21.7688Z" fill="#E2E5EC"/>
<path d="M111.166 18.5154L114.296 19.9334L115.377 18.314L112.594 17.0938L111.166 18.5154Z" fill="#E2E5EC"/>
<path d="M103.81 42.043L102.767 43.6277L105.644 45.1645L106.429 43.488L103.81 42.043Z" fill="#E2E5EC"/>
<path d="M105.943 38.127L104.899 39.7117L107.36 41.0358L108.201 39.401L105.943 38.127Z" fill="#E2E5EC"/>
<path d="M108.226 34.2109L107.183 35.7957L109.429 37.0168L110.183 35.2706L108.226 34.2109Z" fill="#E2E5EC"/>
<path d="M110.208 30.3223L109.165 31.907L111.115 32.9279L111.844 31.2181L110.208 30.3223Z" fill="#E2E5EC"/>
<path d="M112.426 26.4102L111.383 27.9949L113.038 28.854L113.783 27.1625L112.426 26.4102Z" fill="#E2E5EC"/>
<path d="M114.542 22.7246L113.499 24.3094L114.816 24.9883L115.536 23.2551L114.542 22.7246Z" fill="#E2E5EC"/>
<path d="M116.543 18.9414L115.5 20.5262L116.791 21.1672L117.386 19.3826L116.543 18.9414Z" fill="#E2E5EC"/>
<path d="M87.3237 34.4355L85.582 35.8314L88.128 41.2587L89.8096 39.6027L87.3237 34.4355Z" fill="#8A90A7"/>
<path d="M91.2661 31.2734L89.5244 32.6693L91.82 37.5728L93.5016 35.9168L91.2661 31.2734Z" fill="#8A90A7"/>
<path d="M95.3736 28L93.6318 29.3958L95.7233 33.7894L97.4024 32.1466L95.3736 28Z" fill="#8A90A7"/>
<path d="M98.9634 25.1699L97.2217 26.5645L99.0581 30.4759L100.74 28.8199L98.9634 25.1699Z" fill="#8A90A7"/>
<path d="M103.036 22.0645L101.294 23.4603L102.835 26.7616L104.517 25.1055L103.036 22.0645Z" fill="#8A90A7"/>
<path d="M106.74 19.0801L105.013 20.5201L106.307 23.3118L107.997 21.6636L106.74 19.0801Z" fill="#8A90A7"/>
<path d="M110.641 16.0742L108.899 17.4701L109.935 19.7559L111.601 18.0777L110.641 16.0742Z" fill="#8A90A7"/>
<path d="M101.487 28.1035L107.55 31.0152L108.631 29.3959L102.913 26.6797L101.487 28.1035Z" fill="#E2E5EC"/>
</g>
<defs>
<clipPath id="clip0_9_51101">
<rect width="160" height="109.76" fill="white"/>
</clipPath>
</defs>
</svg>
