<svg width="160" height="153" viewBox="0 0 160 153" fill="none" xmlns="http://www.w3.org/2000/svg">
<g clip-path="url(#clip0_9_51163)">
<path d="M8.33057 28.4257C47.3864 -11.7462 105.279 -5.88646 119.84 24.5126C124.989 29.4548 130.183 29.1535 143.311 28.4257C162.378 27.3681 161.894 56.3034 157.461 66.7623C108.23 158.321 -18.3587 146.748 8.02443 78.2947C12.6366 58.0561 -12.3861 54.1855 8.33057 28.4257Z" fill="#BEBEBE" fill-opacity="0.14"/>
<path d="M58.7397 93.7644L46.0596 65.8361L129.204 0.373047L58.7397 93.7644Z" fill="#CED3DF"/>
<path d="M8.2373 57.7845L46.0602 65.8361L129.206 0.373047L8.2373 57.7845Z" fill="white"/>
<path d="M79.9998 78.1069L58.7373 93.7642L59.0324 69.6777L79.9998 78.1069Z" fill="#B0B5C0"/>
<path d="M59.0342 69.6779L98.931 93.2776L129.207 0.373047L59.0342 69.6779Z" fill="white"/>
<path d="M66.0552 143.345C65.8564 143.337 65.668 143.253 65.5285 143.111C65.389 142.969 65.3088 142.78 65.3042 142.581C65.2996 142.382 65.371 142.188 65.5038 142.04C65.6367 141.892 65.821 141.8 66.0192 141.783C68.4179 141.647 70.8015 141.316 73.1464 140.793C73.244 140.778 73.3436 140.783 73.4394 140.806C73.5352 140.83 73.6252 140.873 73.7041 140.933C73.783 140.992 73.8493 141.066 73.8989 141.152C73.9484 141.237 73.9804 141.332 73.9928 141.43C74.028 141.621 73.9908 141.818 73.8885 141.983C73.7861 142.148 73.626 142.27 73.4393 142.323C71.0219 142.862 68.5647 143.203 66.0919 143.342L66.0552 143.345ZM58.7669 143.07C58.7365 143.07 58.7062 143.068 58.6761 143.064C56.2095 142.737 53.7791 142.179 51.4166 141.398C51.2262 141.328 51.0698 141.188 50.9797 141.006C50.8896 140.824 50.8727 140.615 50.9324 140.421C50.9565 140.326 50.9997 140.236 51.0593 140.158C51.119 140.08 51.194 140.015 51.2796 139.966C51.3653 139.918 51.4599 139.888 51.5576 139.877C51.6554 139.867 51.7543 139.876 51.8483 139.905C54.1285 140.66 56.4745 141.199 58.8554 141.515C59.0543 141.548 59.2324 141.658 59.3516 141.82C59.4709 141.983 59.5219 142.186 59.4937 142.385C59.4781 142.569 59.3953 142.741 59.2612 142.867C59.1271 142.994 58.951 143.067 58.7666 143.072L58.7669 143.07ZM80.3329 140.269C80.1323 140.262 79.9426 140.176 79.8053 140.03C79.668 139.883 79.5944 139.688 79.6006 139.488C79.5979 139.328 79.644 139.172 79.7328 139.04C79.8216 138.908 79.9487 138.806 80.0971 138.748C82.3847 137.906 84.6281 136.948 86.8186 135.878C86.9088 135.839 87.0059 135.82 87.104 135.82C87.202 135.821 87.2989 135.841 87.3886 135.881C87.4784 135.921 87.559 135.978 87.6257 136.05C87.6923 136.122 87.7434 136.207 87.7759 136.299C87.8487 136.481 87.853 136.682 87.788 136.867C87.7229 137.051 87.593 137.205 87.4225 137.301C85.1887 138.392 82.901 139.369 80.5684 140.228C80.4926 140.255 80.4127 140.269 80.3323 140.269H80.3329ZM44.8683 138.504C44.7521 138.504 44.6378 138.475 44.5359 138.419C42.2602 137.219 40.1857 135.67 38.3875 133.83C38.2427 133.686 38.1571 133.493 38.1475 133.289C38.1378 133.085 38.2048 132.885 38.3353 132.727C38.397 132.652 38.4738 132.59 38.5607 132.546C38.6477 132.502 38.7428 132.477 38.8402 132.471C38.9375 132.466 39.0348 132.481 39.126 132.516C39.2171 132.55 39.3001 132.604 39.3695 132.672C39.3864 132.688 39.4019 132.704 39.4178 132.723C41.1098 134.452 43.0616 135.905 45.2024 137.031C45.3782 137.133 45.5087 137.299 45.5677 137.494C45.6266 137.689 45.6096 137.899 45.5202 138.082C45.4627 138.207 45.371 138.313 45.2557 138.389C45.1403 138.464 45.006 138.505 44.8683 138.507V138.504ZM93.6581 133.873C93.4575 133.867 93.2678 133.78 93.1305 133.634C92.9932 133.488 92.9196 133.293 92.9258 133.092C92.9243 132.954 92.9589 132.818 93.0262 132.698C93.0935 132.577 93.1912 132.476 93.3095 132.405C95.267 131.27 97.3289 129.999 99.6155 128.523C99.6997 128.474 99.7933 128.442 99.8904 128.43C99.9874 128.418 100.086 128.427 100.18 128.455C100.273 128.483 100.36 128.53 100.434 128.594C100.509 128.657 100.57 128.735 100.612 128.823C100.704 128.996 100.731 129.196 100.686 129.387C100.642 129.578 100.53 129.746 100.371 129.861C98.066 131.35 95.9837 132.632 94.0071 133.779C93.9018 133.84 93.7822 133.873 93.6604 133.874L93.6581 133.873ZM35.3777 127.354C35.2032 127.349 35.036 127.284 34.905 127.168C34.774 127.053 34.6877 126.895 34.661 126.723C34.5155 125.917 34.4427 125.1 34.4434 124.282C34.467 122.36 34.8079 120.456 35.4523 118.645C35.4751 118.55 35.5171 118.46 35.5757 118.381C35.6343 118.302 35.7083 118.236 35.7932 118.187C35.878 118.137 35.9721 118.106 36.0696 118.094C36.167 118.082 36.266 118.089 36.3603 118.117C36.5515 118.184 36.7096 118.322 36.8019 118.503C36.8942 118.683 36.9136 118.892 36.8562 119.086C36.8474 119.12 36.8366 119.152 36.8237 119.184C36.2388 120.821 35.9281 122.544 35.904 124.283C35.9033 125 35.967 125.717 36.0944 126.423C36.1355 126.621 36.0984 126.827 35.9908 126.998C35.8832 127.169 35.7135 127.291 35.5174 127.34C35.4716 127.349 35.425 127.354 35.3783 127.354L35.3777 127.354ZM106.205 125.85C106.004 125.843 105.815 125.757 105.678 125.61C105.54 125.464 105.467 125.269 105.473 125.068C105.472 124.938 105.503 124.811 105.562 124.696C105.622 124.581 105.708 124.482 105.815 124.409L106.378 124.028C108.359 122.691 110.231 121.429 112.032 120.265C112.117 120.217 112.21 120.186 112.308 120.175C112.405 120.165 112.503 120.174 112.597 120.204C112.69 120.233 112.776 120.281 112.85 120.345C112.924 120.409 112.984 120.488 113.026 120.576C113.115 120.747 113.139 120.945 113.096 121.133C113.052 121.321 112.943 121.487 112.788 121.602C110.999 122.758 109.133 124.017 107.158 125.351L106.593 125.732C106.479 125.81 106.343 125.851 106.205 125.851V125.85ZM135.658 125.025H135.614C135.414 125.005 135.231 124.907 135.103 124.752C134.975 124.597 134.913 124.399 134.93 124.199C134.939 124.054 134.943 123.909 134.943 123.764C134.943 121.591 133.975 119.728 132.066 118.225C131.912 118.091 131.814 117.904 131.791 117.701C131.768 117.498 131.822 117.293 131.942 117.128C131.996 117.051 132.064 116.986 132.143 116.937C132.223 116.887 132.311 116.853 132.403 116.838C132.496 116.823 132.59 116.827 132.681 116.849C132.772 116.871 132.858 116.91 132.933 116.966C135.236 118.78 136.403 121.067 136.403 123.763C136.403 123.94 136.398 124.116 136.388 124.292C136.383 124.484 136.304 124.667 136.169 124.804C136.034 124.94 135.851 125.02 135.659 125.026L135.658 125.025ZM118.809 117.938C118.608 117.931 118.419 117.845 118.281 117.698C118.144 117.552 118.071 117.357 118.077 117.156C118.075 117.012 118.113 116.869 118.187 116.745C118.261 116.62 118.367 116.519 118.495 116.451C121.384 114.984 123.752 114.237 125.734 114.165C125.831 114.164 125.928 114.181 126.019 114.217C126.11 114.253 126.193 114.306 126.263 114.374C126.333 114.442 126.389 114.524 126.427 114.613C126.466 114.703 126.486 114.799 126.487 114.897V114.92C126.499 115.12 126.432 115.317 126.3 115.468C126.168 115.619 125.981 115.712 125.781 115.727C124.003 115.792 121.827 116.489 119.121 117.861C119.024 117.911 118.918 117.937 118.81 117.938H118.809ZM39.6471 112.868C39.4933 112.868 39.344 112.816 39.2226 112.722C39.0632 112.595 38.9574 112.412 38.9262 112.21C38.8949 112.008 38.9405 111.802 39.054 111.633C40.5017 109.502 42.097 107.475 43.828 105.567C43.8884 105.491 43.9641 105.428 44.0502 105.382C44.1363 105.337 44.2311 105.309 44.3283 105.303C44.4255 105.296 44.5231 105.309 44.6149 105.342C44.7066 105.375 44.7905 105.426 44.8612 105.494C45.0085 105.635 45.0974 105.827 45.1102 106.031C45.1231 106.236 45.059 106.437 44.9306 106.596C44.915 106.615 44.8982 106.633 44.882 106.65C43.1997 108.504 41.6492 110.473 40.2419 112.543C40.1773 112.643 40.0891 112.724 39.9853 112.781C39.8814 112.838 39.7651 112.868 39.6468 112.869L39.6471 112.868ZM49.668 101.511C49.4674 101.504 49.2777 101.418 49.1406 101.271C49.0034 101.125 48.93 100.93 48.9364 100.729C48.9358 100.619 48.9579 100.51 49.0012 100.408C49.0446 100.307 49.1083 100.216 49.1884 100.14C50.95 98.5018 52.8734 96.8302 54.9038 95.1728C54.9815 95.1138 55.0706 95.0715 55.1655 95.0487C55.2604 95.0259 55.359 95.0232 55.455 95.0406C55.551 95.0579 55.6423 95.0951 55.7232 95.1497C55.8041 95.2043 55.8727 95.2751 55.9247 95.3577C56.0326 95.5208 56.0783 95.7171 56.0538 95.911C56.0292 96.105 55.9359 96.2837 55.7908 96.4147C53.784 98.0513 51.8852 99.7015 50.148 101.319C50.0182 101.442 49.8465 101.51 49.668 101.511Z" fill="#8A90A7"/>
<path d="M69.3652 59.4531L67.377 61.429L75.1404 65.5523L76.6429 63.2991L69.3652 59.4531Z" fill="#E2E5EC"/>
<path d="M71.708 57.1366L78.113 60.6927L79.6154 58.4395L73.6905 55.1543L71.708 57.1366Z" fill="#E2E5EC"/>
<path d="M76.2451 52.6705L81.2977 55.2276L82.8002 52.9744L78.2276 50.6895L76.2451 52.6705Z" fill="#E2E5EC"/>
<path d="M36.1034 49.4082L32.6113 51.0883L56.9777 57.2584L59.587 55.1827L36.1034 49.4082Z" fill="#E2E5EC"/>
<path d="M49.4851 42.6523L46.04 44.274L67.5616 48.9036L70.024 46.9709L49.4851 42.6523Z" fill="#E2E5EC"/>
<path d="M56.9775 57.2597L61.8352 66.898L64.2581 64.5079L59.5882 55.1836L56.9775 57.2597Z" fill="#8A90A7"/>
<path d="M42.781 45.9824L39.3359 47.6041L62.1463 53.124L64.6736 51.1485L42.781 45.9824Z" fill="#E2E5EC"/>
<path d="M62.1953 53.1403L66.8652 61.8948L68.9353 59.8557L64.6892 51.1797L62.1953 53.1403Z" fill="#8A90A7"/>
<path d="M70.0124 46.9727L67.5918 48.9145L71.5298 57.2927L73.8673 54.9899L70.0124 46.9727Z" fill="#8A90A7"/>
<path d="M57.0173 38.7246L53.5723 40.3463L73.1474 44.5627L75.6098 42.6299L57.0173 38.7246Z" fill="#E2E5EC"/>
<path d="M65.7457 34.6211L61.9189 36.3167L78.5449 40.2211L81.0073 38.2884L65.7457 34.6211Z" fill="#E2E5EC"/>
<path d="M72.9857 30.7812L69.7012 32.377L84.3391 35.7322L86.8016 33.7995L72.9857 30.7812Z" fill="#E2E5EC"/>
<path d="M79.9158 27.2793L76.4707 28.901L89.3312 31.7765L91.744 29.8403L79.9158 27.2793Z" fill="#E2E5EC"/>
<path d="M87.7995 23.5078L84.3545 25.1295L94.9173 27.4044L97.3797 25.4717L87.7995 23.5078Z" fill="#E2E5EC"/>
<path d="M95.0925 19.7871L91.6475 21.4088L100.112 23.3139L102.574 21.3812L95.0925 19.7871Z" fill="#E2E5EC"/>
<path d="M102.263 15.9707L98.8184 17.5924L105.499 19.0821L107.961 17.1493L102.263 15.9707Z" fill="#E2E5EC"/>
<path d="M81.5166 47.3573L94.188 54.0428L95.6905 51.7897L83.4968 45.4492L81.5166 47.3573Z" fill="#E2E5EC"/>
<path d="M86.2168 42.7941L97.3273 48.5057L98.8298 46.2525L88.3192 40.7891L86.2168 42.7941Z" fill="#E2E5EC"/>
<path d="M90.8291 38.2603L100.659 43.0819L102.162 40.8288L92.8129 36.2793L90.8291 38.2603Z" fill="#E2E5EC"/>
<path d="M99.7549 29.4752L106.778 32.7786L108.28 30.5254L101.739 27.4941L99.7549 29.4752Z" fill="#E2E5EC"/>
<path d="M104.129 25.106L109.955 27.7429L111.457 25.4897L106.113 23.125L104.129 25.106Z" fill="#E2E5EC"/>
<path d="M108.705 20.5829L113.054 22.5526L114.557 20.2995L110.689 18.6016L108.705 20.5829Z" fill="#E2E5EC"/>
<path d="M98.4812 53.3105L97.0332 55.516L101.033 57.6541L102.123 55.3218L98.4812 53.3105Z" fill="#E2E5EC"/>
<path d="M101.446 47.8633L99.998 50.0688L103.417 51.9107L104.585 49.6361L101.446 47.8633Z" fill="#E2E5EC"/>
<path d="M104.619 42.416L103.171 44.6215L106.293 46.3204L107.34 43.8921L104.619 42.416Z" fill="#E2E5EC"/>
<path d="M107.374 37.0059L105.926 39.2113L108.636 40.6316L109.649 38.2539L107.374 37.0059Z" fill="#E2E5EC"/>
<path d="M110.457 31.5625L109.009 33.768L111.309 34.9635L112.344 32.6101L110.457 31.5625Z" fill="#E2E5EC"/>
<path d="M113.397 26.4375L111.949 28.643L113.78 29.5875L114.78 27.1763L113.397 26.4375Z" fill="#E2E5EC"/>
<path d="M116.178 21.1719L114.73 23.3774L116.524 24.2693L117.352 21.7865L116.178 21.1719Z" fill="#E2E5EC"/>
<path d="M75.568 42.7266L73.1475 44.6684L76.6875 52.2186L79.0251 49.9158L75.568 42.7266Z" fill="#8A90A7"/>
<path d="M81.0466 38.3281L78.626 40.2699L81.8148 47.091L84.1524 44.7883L81.0466 38.3281Z" fill="#8A90A7"/>
<path d="M86.7565 33.7754L84.3359 35.7172L87.2427 41.8293L89.5776 39.5444L86.7565 33.7754Z" fill="#8A90A7"/>
<path d="M91.7448 29.8379L89.3242 31.7797L91.8774 37.2211L94.215 34.9183L91.7448 29.8379Z" fill="#8A90A7"/>
<path d="M97.404 25.5176L94.9834 27.4594L97.1257 32.052L99.4633 29.7492L97.404 25.5176Z" fill="#8A90A7"/>
<path d="M102.552 21.3672L100.152 23.3706L101.947 27.2542L104.297 24.9615L102.552 21.3672Z" fill="#8A90A7"/>
<path d="M107.974 17.1836L105.554 19.1254L106.993 22.3039L109.309 19.9687L107.974 17.1836Z" fill="#8A90A7"/>
<path d="M95.2539 33.9189L103.679 37.9692L105.181 35.716L97.236 31.9375L95.2539 33.9189Z" fill="#E2E5EC"/>
<path d="M85.4384 74.7693L80.1591 71.632C79.6587 71.3343 79.2968 70.8501 79.153 70.2858C79.0092 69.7215 79.0952 69.1231 79.3922 68.6222C79.5389 68.3742 79.7331 68.1576 79.9636 67.9848C80.1941 67.812 80.4565 67.6863 80.7356 67.615C81.0148 67.5437 81.3052 67.5282 81.5904 67.5693C81.8755 67.6104 82.1498 67.7073 82.3975 67.8545L87.6768 70.9918C88.1772 71.2895 88.539 71.7737 88.6828 72.338C88.8266 72.9023 88.7406 73.5007 88.4437 74.0016C88.297 74.2496 88.1028 74.4662 87.8723 74.639C87.6417 74.8118 87.3794 74.9375 87.1003 75.0088C86.8211 75.0801 86.5307 75.0956 86.2455 75.0545C85.9603 75.0135 85.6861 74.9165 85.4384 74.7693Z" fill="#4573D2"/>
<path d="M86.4792 74.4462C87.3619 74.4392 88.0717 73.7168 88.0646 72.8328C88.0575 71.9489 87.3363 71.238 86.4536 71.245C85.571 71.2521 84.8612 71.9744 84.8683 72.8584C84.8753 73.7424 85.5966 74.4533 86.4792 74.4462Z" fill="white"/>
</g>
<defs>
<clipPath id="clip0_9_51163">
<rect width="160" height="152.32" fill="white"/>
</clipPath>
</defs>
</svg>
