<svg width="254" height="207" viewBox="0 0 254 207" fill="none" xmlns="http://www.w3.org/2000/svg">
<g clip-path="url(#clip0_69_10141)">
<mask id="mask0_69_10141" style="mask-type:alpha" maskUnits="userSpaceOnUse" x="0" y="0" width="254" height="207">
<path d="M254 153.347C254 112.954 225.227 83.7827 189.758 86.2276C140.96 89.5977 169.237 -13.449 94.0602 1.47944C55.6457 9.10831 50.9375 56.491 19.7502 78.5156C-16.4066 104.049 -19.3566 213.918 156.155 205.964C171.268 205.28 254 208.658 254 153.347Z" fill="#F6F6F6"/>
</mask>
<g mask="url(#mask0_69_10141)">
<path d="M254 153.347C254 112.954 225.227 83.7827 189.758 86.2276C140.96 89.5977 169.237 -13.449 94.0602 1.47944C55.6457 9.10831 50.9375 56.491 19.7502 78.5156C-16.4066 104.049 -19.3566 213.918 156.155 205.964C171.268 205.28 254 208.658 254 153.347Z" fill="#BEBEBE" fill-opacity="0.14"/>
<path d="M128.998 194.993C128.998 194.993 130.741 210.266 130.433 212.419C130.433 212.419 144.603 213.858 144.758 213.396C144.912 212.935 145.218 201.399 142.451 193.555L128.998 194.993Z" fill="#BA8B67"/>
<path d="M86.765 145.433C86.232 144.099 83.0312 130.224 84.6316 122.753C86.232 115.282 98.7667 85.1316 98.7667 85.1316L93.4028 81.1211C93.4028 81.1211 74.6289 109.563 73.1639 114.48C70.02 125.032 66.4963 141.696 71.03 153.703L86.765 145.433Z" fill="#B5896B"/>
<path d="M86.7647 145.432C86.2317 144.098 83.0309 130.223 84.6313 122.752C86.2317 115.281 98.7664 85.1308 98.7664 85.1308L96.2313 83.1836C96.2313 83.1836 81.2779 104.749 80.7925 114.561C80.2486 125.558 75.0936 136.749 79.6274 148.756L86.7647 145.432Z" fill="#A7795A"/>
<path d="M118.032 156.014C118.032 156.014 125.542 160.331 128.77 161.408C131.999 162.485 139.071 164.946 140.608 169.252C142.145 173.559 143.99 196.939 143.99 196.939L129.078 197.554L128.616 195.401C128.616 195.401 124.619 206.629 125.695 211.705L82.9549 213.55C82.9549 213.55 72.808 175.405 70.963 163.715C69.1181 152.026 68.6567 148.642 68.6567 148.642L85.722 139.721C86.0293 141.769 86.8351 143.71 88.0686 145.372C89.3021 147.035 90.9254 148.369 92.7956 149.257C99.2505 152.333 118.032 156.014 118.032 156.014Z" fill="#CED3DF"/>
<path d="M95.9637 90.9497C95.9637 90.9497 101.68 89.072 104.155 86.084C106.629 83.096 108.591 80.4499 109.701 79.5111C109.088 79.2261 108.4 79.1469 107.739 79.2854C107.077 79.4239 106.479 79.7726 106.032 80.2795C104.24 82.072 104.496 81.3036 104.496 81.3036C104.496 81.3036 107.653 71.7432 107.482 68.2429C107.482 68.2429 103.387 65.0845 100.656 68.4991C97.9257 71.9136 93.9161 77.6329 92.892 80.7061C91.8679 83.7793 90.1614 87.9622 91.5267 90.5231C92.892 93.084 95.9637 90.9497 95.9637 90.9497Z" fill="#BA8B67"/>
<path d="M118.032 156.014C118.032 156.014 125.542 160.331 128.77 161.407C131.999 162.484 139.071 164.945 140.608 169.252C142.145 173.558 143.99 196.938 143.99 196.938L129.078 197.553L128.616 195.4C128.616 195.4 124.619 206.628 125.696 211.704L107.617 213.67C107.617 213.67 102.499 198.919 106.52 189.044C110.541 179.169 102.198 165.738 100.492 151.354C99.6492 144.246 118.032 156.014 118.032 156.014Z" fill="#B0B5C0"/>
<path d="M119.148 143.127C119.148 143.127 116.445 154.104 117.717 155.297C118.653 156.131 119.665 156.877 120.739 157.524C120.739 157.524 120.977 162.217 118.194 163.569L118.111 163.61C116.059 164.579 113.763 164.907 111.523 164.551C109.282 164.195 107.201 163.172 105.55 161.615C102.875 159.103 100.147 156.101 99.9873 154.183C99.9873 154.183 102.532 153.945 102.85 151.558C103.167 149.172 105.791 139.309 105.791 139.309L119.148 143.127Z" fill="#A7795A"/>
<path d="M119.148 143.126C119.148 143.126 116.445 154.103 117.717 155.296C118.653 156.13 119.664 156.876 120.738 157.523C120.738 157.523 120.977 162.216 118.194 163.568L118.11 163.609C113.93 165.609 107.782 165.793 101.519 157.373C101.354 157.151 104.791 153.328 105.972 151.792C107.152 150.256 107.807 148.353 108.125 145.967C108.39 144.38 108.983 142.867 109.867 141.523L119.148 143.126Z" fill="#A7795A"/>
<path d="M170.114 127.539L181.285 123.664C181.498 126.021 189.161 148.376 193.659 153.946C198.156 159.517 208.863 161.874 208.863 161.874C208.863 161.874 223.855 164.874 227.281 165.302C230.708 165.731 239.703 164.017 246.556 171.732C253.409 179.447 257.906 214.156 257.906 214.156L245.913 217.156L240.774 189.516L242.916 216.084L189.375 213.941L188.09 187.159C188.09 187.159 186.163 173.231 181.451 165.946C176.739 158.661 173.741 143.449 171.6 135.092C171 132.753 170.478 129.857 170.114 127.539Z" fill="#8A90A7"/>
<path d="M174.615 125.767L181.284 123.664C181.498 126.021 189.161 148.376 193.658 153.946C198.156 159.517 208.863 161.874 208.863 161.874C208.863 161.874 223.854 164.874 227.281 165.302C230.707 165.731 239.702 164.017 246.555 171.732C253.408 179.447 257.906 214.156 257.906 214.156L245.913 217.156L240.773 189.516L242.916 216.084L223.092 215.1C220.623 209.793 219.553 203.942 219.985 198.104C220.655 189.64 215.064 176.851 205.897 173.647C201.424 172.083 193.148 160.284 191.603 157.895C189.247 154.252 182.221 151.935 179.866 146.586C177.512 141.237 180.244 135.75 179.172 131.572C178.573 129.232 174.979 128.085 174.615 125.767Z" fill="#7B8093"/>
<path d="M57.2562 213.837L72.6772 215.827L69.444 179.497L62.7283 168.049L50.5405 172.529L57.2562 213.837Z" fill="#30384D"/>
<path d="M108.44 112.932C108.818 112.757 105.563 100.434 106.214 95.8133C106.601 93.0616 107.327 85.3752 107.188 82.313C107.049 79.2508 105.052 68.3344 103.431 66.0297C99.636 60.6313 93.6142 61.2926 93.2761 63.3851C92.1345 70.4588 95.0051 81.5639 92.7197 81.8959C91.9171 82.0124 90.4938 80.9215 90.4938 79.1123C90.4938 77.3031 90.3548 73.2665 89.1029 72.9884C88.2147 72.7913 87.1895 75.7359 86.6665 77.4709C86.4271 78.2669 86.3698 79.1066 86.4988 79.9277C86.8076 81.9141 87.596 85.6653 88.4075 87.0443C91.3335 92.0224 93.9716 92.1938 95.0845 94.8378C96.1974 97.4819 97.7278 113.21 97.7278 113.21C97.7278 113.21 100.928 116.414 108.44 112.932Z" fill="#F5BE9D"/>
<path d="M12.9834 158.595C12.9834 158.595 55.5147 150.881 55.5147 151.627C55.5147 152.374 60.9868 188.951 61.4842 191.441C61.9816 193.931 63.2252 201.643 63.2252 205.625C63.2252 209.607 64.9661 215.33 64.4687 216.076C63.9713 216.823 21.44 221.798 21.44 220.555C21.44 219.312 12.9834 158.595 12.9834 158.595Z" fill="white"/>
<path d="M39.7099 159.194C39.7099 159.194 55.5175 150.882 55.5175 151.627C55.5175 152.373 60.9896 188.951 61.487 191.441C61.9844 193.932 63.228 201.644 63.228 205.625C63.228 209.607 64.9689 215.33 64.4715 216.076C63.9741 216.823 48.1639 222.398 48.1639 221.154C48.1639 220.733 53.0497 216.7 51.7691 207.302C50.8808 200.788 40.6127 191.393 41.6692 184.378C43.3271 173.369 38.7991 169.826 38.2019 165.527C37.5493 160.842 39.7099 159.194 39.7099 159.194Z" fill="#F6F6F6"/>
<path d="M19.8166 139.641C19.8166 140.056 21.7525 148.771 20.6463 150.846C19.5402 152.92 16.9131 157.763 16.9131 157.763C16.9131 157.763 24.0713 167.373 34.1962 166.478C42.0248 165.786 45.5689 160.508 45.6724 154.997C45.6724 154.997 43.875 148.08 43.875 141.578L19.8166 139.641Z" fill="#F5BE9D"/>
<path d="M21.0676 148.799C21.0676 148.799 18.0418 152.605 15.1838 153.678C12.3257 154.75 -3.53105 157.075 -5.89639 161.661C-11.0628 171.681 -14.3002 207.126 -13.3796 210.074C-12.459 213.022 -1.22683 226.285 -1.22683 226.285L13.8733 216.706C13.8733 216.706 5.58758 213.942 5.21922 210.995C4.85085 208.048 5.40365 189.257 5.40365 189.257L6.50821 210.074L7.42886 228.127C7.42886 228.127 26.7612 202.889 26.0266 196.441C25.292 189.993 23.4486 167.704 22.5259 164.756C21.6032 161.808 21.0676 148.799 21.0676 148.799Z" fill="#444C61"/>
<path d="M10.5838 190.131C9.92811 185.419 6.03812 180.252 6.03812 180.252C6.01164 180.183 5.96103 180.126 5.89573 180.092C5.83042 180.057 5.75487 180.048 5.68314 180.065C5.61142 180.082 5.54841 180.125 5.50587 180.185C5.46332 180.246 5.44413 180.319 5.45188 180.393L7.0016 194.325C7.03243 194.599 11.2396 194.844 10.5838 190.131Z" fill="#30384D"/>
<path d="M208.919 148.708C208.919 148.708 209.856 155.294 209.566 157.611C209.381 158.995 208.722 160.272 207.701 161.224C206.325 162.559 206.511 164.506 207.532 166.128C209.844 169.802 214.552 172.468 220.374 172.424C229.152 172.357 232.482 168.652 232.542 165.867C232.56 165.048 225.77 162.204 225.77 156.447C225.77 152.396 225.423 146.604 225.423 146.604L208.919 148.708Z" fill="#D1A79C"/>
<path d="M39.101 143.448C37.9948 145.522 36.8229 144.349 37.361 150.409C37.8992 156.469 42.354 159.034 37.9107 165.615C37.8908 165.644 45.1436 163.966 45.6724 154.996C45.6724 154.996 43.875 148.08 43.875 141.578C43.875 141.578 40.2071 141.372 39.101 143.448Z" fill="#DAA98C"/>
<path d="M14.9178 126.871C14.9178 126.871 10.6772 125.994 11.5064 131.043C12.4161 136.579 15.9032 138.096 18.0899 136.975C18.0899 136.975 18.6537 141.865 21.6617 144.686C24.6697 147.507 30.4971 152.961 41.9643 148.259C41.9643 148.259 47.6037 144.122 47.7918 135.094C47.9799 126.066 47.6674 123.231 46.4542 116.937C45.3151 111.024 45.7227 105.566 35.7607 105.002C25.7988 104.438 18.2775 103.685 17.5256 111.397C16.9648 116.602 16.094 121.77 14.9178 126.871Z" fill="#F5BE9D"/>
<path d="M40.0594 115.712C43.2519 121.066 41.8432 124.166 41.7497 129.427C41.6494 135.037 41.8803 139.934 41.0428 142.615C41.0428 142.615 33.2053 146.407 36.3523 149.071C37.3367 149.907 40.5292 148.777 41.9624 148.26C41.9624 148.26 47.6017 144.122 47.7898 135.095C47.9779 126.067 47.6654 123.232 46.4522 116.937C45.3131 111.025 45.7207 105.567 35.7588 105.003C28.3801 104.584 24.6463 104.294 24.4247 104.849C24.0851 105.698 28.286 107.478 29.3603 109.177C34.5173 117.332 37.7139 111.778 40.0594 115.712Z" fill="#DAA98C"/>
<path d="M14.3431 126.825C14.3431 126.073 11.9182 117.35 11.5707 114.107C11.2233 110.865 11.7196 105.593 17.359 101.829C22.9983 98.0653 30.1267 97.1824 35.7665 98.1228C41.4064 99.0632 44.406 103.497 46.0979 109.139C47.7897 114.781 47.2259 121.364 47.2259 121.364C47.2259 121.364 45.3449 108.575 42.1504 108.951C38.9559 109.327 39.8572 112.767 36.3705 113.751C32.4654 114.855 26.0251 114.331 22.9528 112.158C20.0038 110.073 18.0878 113.653 19.9678 116.288C21.8477 118.923 19.2363 121.411 18.4635 124.187C17.7984 126.57 17.523 127.951 19.0278 130.77C20.1836 132.938 22.6712 138.216 25.9796 141.225C26.2292 141.454 26.5371 141.609 26.8692 141.674C27.2014 141.739 27.5451 141.711 27.8624 141.593C28.1798 141.476 28.4586 141.273 28.6681 141.007C28.8775 140.741 29.0096 140.422 29.0498 140.086C29.2588 138.265 30.2516 135.946 32.5668 135.904C34.8819 135.861 37.4589 136.85 40.8431 134.406C40.8431 134.406 42.7053 133.259 43.6453 134.576C44.2101 135.582 44.5823 136.686 44.7425 137.83C44.775 137.998 44.8597 138.153 44.9847 138.27C45.1097 138.388 45.2686 138.464 45.4389 138.486C45.6092 138.509 45.7822 138.477 45.9335 138.396C46.0848 138.314 46.2066 138.187 46.2818 138.033C46.9647 136.629 47.7202 135.106 47.7923 135.093C48.412 134.961 47.9914 142.71 45.3857 146.677C42.3589 151.285 30.134 155.497 23.1796 147.598C16.2251 139.698 18.9144 134.343 17.2226 131.144C15.5307 127.945 14.3431 126.825 14.3431 126.825Z" fill="#444C61"/>
<path d="M24.382 104.704C24.0351 101.463 11.7198 105.593 17.3591 101.829C22.9984 98.0653 30.1269 97.1824 35.7667 98.1228C41.4065 99.0632 44.4062 103.497 46.098 109.139C47.7899 114.781 47.2261 121.364 47.2261 121.364C47.2261 121.364 45.3451 108.575 42.1506 108.951C38.956 109.327 39.8573 112.767 36.3707 113.751C32.4656 114.855 36.0661 109.442 32.9928 107.269C30.0438 105.184 24.7289 107.948 24.382 104.704Z" fill="#30384D"/>
<path d="M18.6755 131.448C19.8313 133.616 22.671 138.215 25.9795 141.226C26.2291 141.455 26.5369 141.61 26.8691 141.675C27.2013 141.74 27.5449 141.712 27.8623 141.594C28.1797 141.477 28.4584 141.274 28.6679 141.008C28.8774 140.742 29.0095 140.423 29.0497 140.087C29.2587 138.266 30.2514 135.947 32.5666 135.905C34.8818 135.863 37.4587 136.852 40.843 134.407C40.843 134.407 42.7051 133.26 43.6451 134.577C44.21 135.584 44.5821 136.687 44.7424 137.831C44.7748 137.999 44.8596 138.154 44.9845 138.272C45.1095 138.389 45.2684 138.465 45.4387 138.488C45.609 138.51 45.7821 138.478 45.9334 138.397C46.0846 138.316 46.2065 138.189 46.2816 138.034C46.9645 136.63 47.7201 135.107 47.7922 135.094C48.4119 134.962 47.9912 142.712 45.3855 146.679C42.3587 151.287 30.1339 155.498 23.1794 147.599C16.225 139.699 19.3129 134.115 17.6211 130.918" fill="#444C61"/>
<path d="M108.44 112.932C108.819 112.757 105.563 100.434 106.214 95.8133C106.601 93.0616 107.327 85.3752 107.188 82.313C107.049 79.2508 105.052 68.3344 103.432 66.0296C99.6362 60.6313 95.7682 61.5221 97.284 67.1415C99.1498 74.0589 96.4814 79.0939 98.3535 82.394C98.7543 83.0997 99.7726 86.991 100.582 88.37C103.508 93.3485 100.45 98.9293 101.563 101.571C102.676 104.213 102.811 113.167 102.811 113.167C102.811 113.167 100.928 116.414 108.44 112.932Z" fill="#DAA98C"/>
<path d="M125.111 131.992C125.111 131.992 127.764 131.494 126.126 136.224C125.047 139.338 123.124 139.308 123.124 139.308C123.124 139.308 120.182 155.296 105.711 142.728C105.711 142.728 104.121 142.967 103.726 134.137C103.726 134.137 101.023 131.194 102.613 128.967C104.203 126.739 104.598 127.774 104.598 127.774C104.598 127.137 103.486 119.263 106.268 117.672C109.05 116.081 118.353 114.967 121.295 117.274C124.237 119.581 126.463 126.344 125.111 131.992Z" fill="#B5896B"/>
<path d="M127.764 123.811C128.56 120.721 127.178 120.774 124.952 117.274C122.727 113.775 124.611 112.419 121.452 111.706C118.027 110.933 114.502 106.44 112.035 108.826C108.748 112.004 104.198 111.231 103.324 114.57C102.451 117.908 102.609 128.967 102.609 128.967C102.609 128.967 103.484 125.308 105.312 129.206C105.312 129.206 104.994 117.035 107.459 117.752C109.923 118.468 111.354 116.079 113.66 116.797C115.966 117.515 120.975 118.07 122.088 119.502C123.201 120.933 125.347 123.399 124.95 126.581C124.722 128.41 124.417 130.419 124.199 131.801C124.179 131.934 124.199 132.07 124.257 132.192C124.315 132.313 124.408 132.414 124.525 132.481C124.641 132.548 124.775 132.579 124.909 132.568C125.043 132.558 125.171 132.507 125.276 132.423L125.798 132.005C126.43 131.103 126.875 130.084 127.109 129.008C127.478 127.452 127.407 125.202 127.764 123.811Z" fill="#444C61"/>
<path d="M127.765 123.811C128.561 120.721 127.179 120.774 124.953 117.274C122.727 113.775 124.612 112.419 121.452 111.706C118.027 110.933 114.503 106.44 112.036 108.826C108.749 112.004 116.64 108.87 115.765 112.211C114.89 115.551 111.355 116.079 113.661 116.797C115.966 117.515 120.975 118.07 122.088 119.502C123.201 120.933 125.348 123.399 124.951 126.581C124.722 128.41 124.418 130.419 124.2 131.801C124.179 131.934 124.199 132.07 124.257 132.192C124.315 132.313 124.409 132.414 124.525 132.481C124.642 132.548 124.776 132.579 124.91 132.568C125.044 132.558 125.171 132.507 125.276 132.423L125.799 132.005C126.43 131.103 126.876 130.084 127.11 129.008C127.478 127.452 127.407 125.202 127.765 123.811Z" fill="#30384D"/>
<path d="M44.4809 149.389C47.7225 148.999 50.8084 147.778 53.4391 145.843C57.6891 142.655 62.2045 139.466 66.7205 143.983C71.2364 148.5 67.7827 150.36 77.8763 145.312C87.9699 140.263 93.0167 138.402 94.0795 134.416C95.1422 130.431 96.7353 109.436 96.7353 109.436C96.7353 109.436 108.975 108.145 108.954 108.107C108.954 108.107 114.267 136.276 111.61 142.654C109.161 148.535 96.5509 161.421 77.9432 171.516C76.5415 172.272 75.4136 173.45 74.7195 174.884C74.0254 176.318 73.8005 177.934 74.0767 179.503L80.5327 215.734L70.1716 231.147C70.1716 231.147 66.7189 213.873 67.2497 209.356C67.7806 204.838 68.0466 198.726 64.8593 194.208C61.6721 189.691 58.2189 163.647 53.4375 160.459C48.6562 157.27 43.6094 158.598 43.8758 155.41C44.1423 152.221 44.4809 149.389 44.4809 149.389Z" fill="#444C61"/>
<path d="M82.6663 158.89C85.3597 154.309 84.0739 151.135 94.9251 148.033C106.179 144.816 103.64 137.571 104.703 133.585C105.765 129.599 102.247 109.005 102.247 109.005C102.247 109.005 108.976 108.145 108.955 108.107C108.955 108.107 114.267 136.276 111.611 142.654C109.162 148.535 96.5516 161.421 77.9439 171.516C76.5423 172.272 75.4143 173.45 74.7202 174.884C74.0261 176.318 73.8012 177.934 74.0775 179.503L80.5324 215.734L70.1713 231.147C70.1713 231.147 73.2054 215.512 73.7363 210.995C74.2671 206.477 74.9997 199.196 71.8124 194.678C68.6252 190.16 65.4735 175.811 67.7929 170.551C70.8092 163.715 78.6467 165.726 82.6663 158.89Z" fill="#30384D"/>
<path d="M126.57 88.8906L126.127 90.1253C126.127 90.1253 124.554 94.2775 124.91 109.423C125.308 126.285 127.17 147.497 130.819 157.928C134.468 168.359 134.468 213.386 134.468 213.908C134.468 214.43 190.249 216.864 190.249 216.864L192.681 194.089C192.681 194.089 192.334 210.778 199.631 215.992H219.267C219.267 215.992 215.792 217.209 213.011 198.085C210.231 178.961 207.333 169.433 203.801 165.227C193.142 152.531 174.464 147.088 174.464 147.088L153.233 142.454C153.233 142.454 142.654 140.918 142.293 99.9507C142.287 99.1734 142.319 98.3919 142.385 97.6172C142.466 96.6669 142.594 95.1886 142.776 93.3182" fill="#4573D2"/>
<path d="M142.777 93.318C142.597 95.1883 142.467 96.6666 142.386 97.617C142.32 98.3917 142.288 99.1732 142.295 99.9505C142.655 140.918 153.235 142.454 153.235 142.454L174.465 147.087C174.465 147.087 193.141 152.532 203.803 165.227C207.335 169.433 210.229 178.961 213.013 198.084C215.796 217.208 219.268 215.995 219.268 215.995H199.632C201.055 206.665 193.793 183.899 193.793 183.899L190.249 216.864C190.249 216.864 175.747 220.554 178.269 210.612C180.791 200.67 172.953 199.205 165.776 178.177C157.448 153.776 136.935 159.968 138.393 144.218C140.857 117.558 133.413 98.2166 133.513 90.3906L142.777 93.318Z" fill="#4369B6"/>
<path d="M41.7601 134.022C41.7601 134.022 42.7053 133.26 43.6453 134.577C44.2102 135.584 44.5823 136.688 44.7425 137.831C44.775 138 44.8597 138.154 44.9847 138.272C45.1097 138.39 45.2686 138.466 45.4389 138.488C45.6092 138.511 45.7823 138.479 45.9335 138.398C46.0848 138.316 46.2067 138.189 46.2818 138.035C46.9647 136.631 47.7202 135.107 47.7924 135.094C48.412 134.962 47.9914 142.712 45.3857 146.679C44.0764 148.672 41.049 150.591 37.4673 151.488C37.4673 151.488 40.4142 147.565 40.9074 143.363C41.3479 139.589 42.6771 135.561 41.7601 134.022Z" fill="#30384D"/>
<path d="M204.632 136.039C204.632 136.039 201.885 134.858 202.751 138.866C203.458 142.141 204.674 143.615 205.827 142.405C205.951 144.602 206.499 146.755 207.44 148.744C209.112 152.122 212.508 157.735 217.346 157.33C224.4 156.742 226.713 151.537 227.886 146.843C228.22 145.251 228.386 143.629 228.38 142.003C228.38 142.003 229.876 142.658 230.634 140.87C233.232 134.744 230.255 134.37 229.299 135.695C229.299 135.695 229.947 128.386 227.713 125.233C225.48 122.079 221.307 119.906 216.424 119.413C208.168 118.579 204.655 126.658 204.632 136.039Z" fill="#EABBAE"/>
<path d="M219.051 131.136C219.051 131.136 220.585 139.594 219.227 144.945C218.301 148.599 212.509 157.733 217.346 157.33C224.4 156.742 226.714 151.537 227.887 146.843C228.221 145.251 228.386 143.629 228.381 142.003C228.381 142.003 229.876 142.658 230.634 140.87C233.232 134.744 230.255 134.37 229.3 135.695C229.3 135.695 229.947 128.386 227.714 125.233C225.481 122.079 221.308 119.906 216.425 119.413C208.168 118.579 219.075 121.755 219.051 131.136Z" fill="#D1A79C"/>
</g>
<path d="M178.79 125.021C179.679 122.825 173.008 96.9497 174.293 89.0245C174.293 89.0245 171.295 82.5948 167.866 86.025C167.866 86.025 166.366 86.8818 166.581 93.3099C166.795 99.738 166.153 113.451 166.366 115.379C166.523 116.768 166.784 122.046 167.725 128.013C167.724 128.013 175.193 133.89 178.79 125.021Z" fill="#EABBAE"/>
<path d="M128.382 194.049L129.061 197.577L131.443 197.484L128.382 194.049Z" fill="#B0B5C0"/>
<path d="M148.277 48.4581C148.277 48.4581 156.066 44.9615 159.421 40.9107C162.124 37.6462 164.377 34.6823 165.937 32.9886C166.049 32.8659 166.127 32.7151 166.161 32.552C166.195 32.389 166.184 32.2197 166.13 32.0622C166.076 31.9046 165.981 31.7645 165.854 31.6566C165.727 31.5487 165.574 31.477 165.41 31.4492C164.365 31.2573 161.522 32.5333 160.223 33.8334C157.793 36.2641 157.865 33.6766 157.865 33.6766C157.865 33.6766 162.824 20.2129 161.79 18.0111C160.757 15.8093 157.433 14.6237 153.731 19.2526C150.029 23.8815 145.539 29.4533 144.151 33.6196C142.762 37.7858 141.161 43.5725 143.012 47.0467C144.862 50.5208 148.277 48.4581 148.277 48.4581Z" fill="#DAA98C"/>
<path d="M148.277 48.4581C148.277 48.4581 156.066 44.9615 159.421 40.9107C162.124 37.6462 164.377 34.6823 165.937 32.9886C166.049 32.8659 166.127 32.7151 166.161 32.552C166.195 32.389 166.184 32.2197 166.13 32.0622C166.076 31.9046 165.981 31.7645 165.854 31.6566C165.727 31.5487 165.574 31.477 165.41 31.4492C164.365 31.2573 161.522 32.5333 160.223 33.8334C157.793 36.2641 157.865 33.6766 157.865 33.6766C157.865 33.6766 162.824 20.2129 161.79 18.0111C160.757 15.8093 157.433 14.6237 153.731 19.2526C150.029 23.8815 145.539 29.4533 144.151 33.6196C142.762 37.7858 141.161 43.5725 143.012 47.0467C144.862 50.5208 148.277 48.4581 148.277 48.4581Z" fill="#DAA98C"/>
<path d="M148.277 48.4574C148.277 48.4574 156.066 44.9608 159.421 40.9101C162.124 37.6456 164.377 34.6817 165.937 32.988C166.049 32.8653 166.127 32.7144 166.161 32.5514C166.195 32.3883 166.184 32.2191 166.13 32.0615C166.076 31.904 165.981 31.7638 165.854 31.656C165.727 31.5481 165.574 31.4764 165.41 31.4485C164.365 31.2567 161.522 32.5327 160.223 33.8328C157.793 36.2635 157.865 33.6759 157.865 33.6759C157.865 33.6759 162.824 20.2123 161.79 18.0105C160.757 15.8087 161.103 18.2274 157.401 22.8568C153.699 27.4862 153.999 28.6341 152.61 32.8009C151.222 36.9676 147.391 42.6728 146.533 46.6075C145.694 50.4543 148.277 48.4574 148.277 48.4574Z" fill="#D5A882"/>
<path d="M142.777 93.3191C143.839 82.2595 151.431 47.0676 151.15 46.8366C147.545 43.869 142.288 45.0979 142.288 45.0979L126.57 88.891" fill="#4573D2"/>
<path d="M142.777 93.3188C143.839 82.2592 151.435 47.0616 151.15 46.8363C149.956 45.8633 148.518 45.2364 146.993 45.0234C146.993 45.0234 143.44 53.083 143.238 57.5519C142.68 69.8797 135.996 76.1275 134.794 79.8405C133.051 85.2279 133.447 91.1782 133.447 91.1782L142.777 93.3188Z" fill="#4369B6"/>
<path d="M178.791 125.021C179.679 122.825 173.008 96.9497 174.293 89.0245C174.293 89.0245 171.295 82.5948 167.866 86.025C167.866 86.025 169.093 86.6685 169.307 93.0966C169.521 99.5248 169.796 112.537 170.01 114.466C170.164 115.855 171.181 119.887 172.118 125.854C172.12 125.854 175.193 133.89 178.791 125.021Z" fill="#D1A79C"/>
<path d="M173.521 89.9691C173.521 89.9691 173.678 89.8614 173.928 89.6826C174.685 89.1452 176.322 87.9654 177.257 87.152C178.502 86.0689 179.444 85.6957 180.758 83.6915C182.325 81.2974 182.924 80.0621 183.086 78.1662C183.154 77.3752 183.212 76.565 183.257 75.8896C183.27 75.7012 183.233 75.5126 183.151 75.3427C183.068 75.1728 182.943 75.0275 182.787 74.9212C182.631 74.8148 182.449 74.7512 182.261 74.7366C182.073 74.722 181.884 74.7569 181.714 74.8379C180.948 75.2716 180.365 75.9668 180.07 76.7961C179.637 78.312 177.989 80.6643 177.556 80.6643C177.123 80.6643 181.266 71.9288 180.615 68.9497C179.965 65.9706 177.76 65.106 176.5 64.3993C173.758 62.8619 171.256 72.944 171.14 74.2582C170.956 76.3543 168.153 79.1583 167.025 81.8959C166.309 83.634 165.076 90.8347 168.325 93.3794C171.573 95.9241 173.521 89.9691 173.521 89.9691Z" fill="#EABBAE"/>
<path d="M173.521 89.9704C173.521 89.9704 173.678 89.8627 173.928 89.6839C174.685 89.1466 176.322 87.9667 177.257 87.1534C178.502 86.0702 179.444 85.697 180.758 83.6928C182.325 81.2987 182.924 80.0634 183.086 78.1675C183.154 77.3766 183.212 76.5663 183.257 75.8909C183.27 75.7025 183.233 75.5139 183.151 75.3441C183.068 75.1742 182.943 75.0288 182.787 74.9225C182.63 74.8162 182.449 74.7525 182.261 74.7379C182.073 74.7233 181.884 74.7582 181.713 74.8392C180.948 75.2729 180.364 75.9681 180.07 76.7974C179.637 78.3133 177.989 80.6656 177.556 80.6656C177.123 80.6656 181.266 71.9301 180.615 68.951C179.965 65.9719 176.122 63.7236 176.503 65.1157C177.579 69.0634 177.114 70.4999 176.998 71.8162C176.814 73.9124 175.843 81.1617 173.633 83.1324C169.849 86.5062 168.682 88.5167 169.471 94.6165C170 98.7132 173.521 89.9704 173.521 89.9704Z" fill="#D1A79C"/>
<path d="M32.7602 141.203C34.1814 140.348 35.7235 139.714 37.3342 139.321C38.8724 139.032 40.848 138.424 42.2456 138.917C44.5326 139.725 43.5237 144.57 38.7475 145.445C35.9647 145.955 35.0477 146.857 33.2315 145.445C31.4153 144.034 30.8756 142.414 32.7602 141.203Z" fill="#F5BE9D"/>
<path d="M42.2444 138.913C44.5314 139.721 43.5355 144.642 38.7463 145.441C38.3351 145.51 39.9355 144.062 40.9492 142.334C41.9962 140.549 41.5344 138.662 42.2444 138.913Z" fill="#DAA98C"/>
<path d="M181.497 120.007L189.474 116.508" stroke="#DBA53B" stroke-width="1.756" stroke-linecap="round" stroke-linejoin="round"/>
<path d="M160.029 128.979C159.917 129.315 161.039 138.071 158.907 140.652C156.776 143.233 156.214 143.458 156.214 143.458C156.214 143.458 158.375 149.772 168.444 153.56C172.954 155.257 176.122 154.967 178.047 154.372C178.643 154.185 179.148 153.783 179.462 153.244C179.776 152.704 179.878 152.067 179.746 151.456C179.337 149.534 178.818 145.559 178.541 137.395L160.029 128.979Z" fill="#DAA98C"/>
<path d="M164.62 132.717C164.508 133.053 163.822 133.514 164.753 137.771C165.683 142.027 166.272 150.186 165.229 152.013C165.183 152.092 172.596 156.252 178.127 154.36C178.71 154.165 179.199 153.759 179.498 153.222C179.798 152.685 179.886 152.055 179.746 151.456C179.337 149.534 178.818 145.559 178.541 137.395L164.62 132.717Z" fill="#D5A882"/>
<path d="M157.846 119.739C157.846 119.739 154.37 115.948 153.501 119.671C152.633 123.394 155.547 128.594 157.559 126.837C157.559 126.837 158.22 133.762 163.182 136.864C168.143 139.967 174.345 142.448 179.431 139.098C179.431 139.098 180.92 138.353 181.912 134.506C182.904 130.659 186.876 127.557 185.013 119.987C185.771 116.524 185.939 112.958 185.509 109.439C184.765 103.854 179.803 99.6351 174.718 99.2629C169.632 98.8907 163.306 100.007 160.577 102.738C157.848 105.468 157.846 119.739 157.846 119.739Z" fill="#DAA98C"/>
<path d="M165.478 113.278C164.505 114.949 163.971 116.838 163.926 118.771C163.88 120.703 164.324 122.616 165.217 124.331C166.946 127.745 165.619 132.774 166.229 136.175C167.022 140.597 174.344 142.448 179.43 139.097C179.43 139.097 180.918 138.352 181.911 134.505C182.903 130.658 186.874 127.556 185.012 119.986C185.77 116.523 185.937 112.957 185.507 109.438C184.763 103.853 179.802 99.6342 174.716 99.262C169.631 98.8898 169.425 108.947 166.696 111.677C166.227 112.16 165.818 112.697 165.478 113.278Z" fill="#D5A882"/>
<path d="M154.499 118.125L154.029 112.87C153.936 111.931 153.715 111.009 153.374 110.128C153.054 109.336 152.908 108.484 152.948 107.63C152.988 106.776 153.212 105.941 153.605 105.182C153.77 104.864 153.855 104.511 153.852 104.154C153.857 103.198 154.084 101.306 155.723 100.566C156.01 100.437 156.247 100.217 156.395 99.9387C156.543 99.6609 156.595 99.3416 156.542 99.0312C156.285 97.5153 156.226 95.0061 158.219 93.6783C161.198 91.6919 161.816 92.5613 164.173 92.8096C166.53 93.0579 165.661 89.4593 168.267 89.5832C170.872 89.7071 170.252 91.1964 172.238 91.1964C174.223 91.1964 176.331 90.0798 177.323 91.5686C178.216 92.9089 178.406 93.7468 180.334 93.4504C181.108 93.3091 181.906 93.3986 182.63 93.7076C183.689 94.1943 184.947 95.2758 185.289 97.6737C185.91 102.017 186.424 100.335 187.615 102.029C189.472 104.669 188.859 108.572 185.634 111.674C185.634 111.674 185.882 107.331 183.277 105.715L182.278 105.07C181.62 104.64 180.866 104.378 180.083 104.307C178.961 104.209 177.202 103.906 175.985 102.979C175.677 102.735 175.304 102.583 174.913 102.541C174.521 102.499 174.125 102.57 173.772 102.745C171.813 103.748 167.884 105.332 163.542 104.701C163.467 104.688 163.391 104.691 163.318 104.709C163.245 104.726 163.176 104.759 163.116 104.804C163.055 104.848 163.005 104.905 162.967 104.97C162.929 105.035 162.904 105.107 162.895 105.182C162.778 106.329 162.398 107.433 161.784 108.409C160.806 109.94 160.121 111.64 159.766 113.422L158.434 119.538C158.413 119.634 158.366 119.722 158.297 119.791C158.228 119.861 158.14 119.91 158.044 119.931C157.948 119.953 157.849 119.947 157.756 119.914C157.664 119.88 157.583 119.821 157.523 119.744C156.818 118.852 155.649 117.715 154.499 118.125Z" fill="#444C61"/>
<path fill-rule="evenodd" clip-rule="evenodd" d="M172.932 113.137C174.212 113.375 175.44 113.825 176.362 114.632C176.376 114.644 176.388 114.657 176.4 114.67C176.698 114.999 177.102 115.212 177.541 115.271C177.981 115.33 178.427 115.231 178.8 114.992L178.806 114.988C178.883 114.941 178.98 114.91 179.038 114.892C179.114 114.868 179.209 114.843 179.317 114.816C179.536 114.764 179.827 114.705 180.173 114.649C180.865 114.538 181.787 114.436 182.801 114.425C184.755 114.403 187.152 114.714 188.844 116.044L189.772 116.073C190.026 116.08 190.225 116.292 190.217 116.546C190.209 116.799 189.997 116.998 189.744 116.99L188.662 116.957C188.559 116.954 188.461 116.916 188.382 116.851C186.945 115.652 184.759 115.321 182.811 115.343C181.85 115.354 180.973 115.45 180.319 115.556C179.992 115.608 179.724 115.663 179.531 115.709C179.435 115.732 179.361 115.752 179.31 115.768C179.289 115.775 179.275 115.779 179.268 115.782C178.717 116.126 178.063 116.267 177.419 116.181C176.774 116.094 176.18 115.785 175.739 115.307C174.99 114.66 173.949 114.26 172.764 114.039C171.574 113.818 170.276 113.785 169.064 113.844C167.855 113.902 166.746 114.05 165.939 114.184C165.535 114.251 165.208 114.314 164.983 114.36C164.87 114.383 164.783 114.402 164.725 114.415C164.707 114.419 164.692 114.423 164.68 114.425L156.361 118.171C156.13 118.275 155.858 118.171 155.754 117.94C155.65 117.709 155.753 117.437 155.984 117.333L164.344 113.57C164.371 113.558 164.399 113.548 164.427 113.542L164.533 113.988C164.427 113.542 164.427 113.542 164.427 113.542L164.429 113.541L164.434 113.54L164.454 113.535C164.47 113.532 164.495 113.526 164.526 113.519C164.589 113.505 164.681 113.485 164.799 113.461C165.034 113.413 165.372 113.347 165.789 113.278C166.62 113.141 167.766 112.987 169.02 112.927C170.273 112.867 171.647 112.898 172.932 113.137Z" fill="#FFBD3B"/>
<path fill-rule="evenodd" clip-rule="evenodd" d="M165.805 113.514C166.059 113.51 166.267 113.712 166.271 113.965L166.343 118.444C166.343 118.464 166.342 118.483 166.34 118.503C166.34 118.504 166.34 118.504 166.339 118.505L166.339 118.505L166.34 118.504C166.339 118.506 166.339 118.51 166.339 118.517C166.338 118.531 166.336 118.554 166.336 118.586C166.335 118.65 166.338 118.746 166.352 118.863C166.382 119.098 166.46 119.41 166.649 119.724C167.012 120.323 167.86 121.053 169.949 121.12C172.161 121.192 173.245 121.057 173.852 120.773C174.393 120.518 174.587 120.132 174.91 119.344C175.196 118.644 175.313 117.545 175.351 116.571C175.369 116.094 175.368 115.664 175.362 115.353C175.359 115.198 175.355 115.073 175.352 114.987C175.35 114.944 175.349 114.911 175.348 114.889L175.347 114.865L175.346 114.859L175.346 114.858C175.333 114.604 175.527 114.388 175.78 114.374C176.033 114.361 176.249 114.555 176.263 114.808L175.804 114.833C176.263 114.808 176.263 114.808 176.263 114.808L176.263 114.811L176.263 114.818L176.264 114.847C176.266 114.871 176.267 114.907 176.269 114.952C176.272 115.043 176.277 115.174 176.28 115.336C176.286 115.66 176.287 116.108 176.268 116.607C176.23 117.584 176.112 118.828 175.759 119.692C175.441 120.467 175.138 121.183 174.241 121.604C173.409 121.994 172.113 122.109 169.919 122.038C167.603 121.963 166.426 121.129 165.864 120.199C165.592 119.75 165.483 119.307 165.442 118.978C165.421 118.812 165.417 118.674 165.418 118.574C165.419 118.524 165.421 118.483 165.423 118.453C165.424 118.446 165.424 118.44 165.425 118.434L165.354 113.98C165.35 113.726 165.552 113.518 165.805 113.514ZM166.34 118.503C166.34 118.503 166.34 118.502 166.34 118.503V118.503Z" fill="#FFBD3B"/>
<path fill-rule="evenodd" clip-rule="evenodd" d="M179.133 115.029C179.386 115.037 179.586 115.248 179.579 115.501L179.469 119.425C179.479 119.809 179.564 120.187 179.719 120.538C179.876 120.893 180.102 121.212 180.383 121.479C180.664 121.746 180.996 121.954 181.358 122.091C181.72 122.229 182.106 122.294 182.493 122.281C182.504 122.281 182.516 122.281 182.527 122.281C184.256 122.352 185.272 122.285 185.878 122.167C186.474 122.051 186.616 121.898 186.666 121.835C186.689 121.805 186.769 121.67 186.877 121.379C186.98 121.105 187.096 120.726 187.208 120.243C187.43 119.279 187.63 117.914 187.664 116.167C187.669 115.913 187.878 115.712 188.131 115.717C188.385 115.722 188.586 115.931 188.581 116.185C188.546 117.992 188.339 119.42 188.102 120.45C187.983 120.965 187.856 121.383 187.737 121.701C187.623 122.004 187.503 122.256 187.384 122.406C187.15 122.701 186.774 122.928 186.053 123.068C185.344 123.206 184.249 123.269 182.506 123.199C182.003 123.213 181.502 123.128 181.032 122.949C180.557 122.769 180.121 122.495 179.752 122.145C179.383 121.795 179.087 121.375 178.881 120.91C178.675 120.444 178.563 119.943 178.552 119.434C178.552 119.426 178.552 119.419 178.552 119.411L178.662 115.475C178.669 115.222 178.88 115.022 179.133 115.029Z" fill="#FFBD3B"/>
<path d="M169.446 94.264C172.343 92.8683 165.664 89.4595 168.269 89.5834C170.874 89.7073 170.254 91.1965 172.24 91.1965C174.225 91.1965 176.333 90.08 177.325 91.5687C178.219 92.909 178.408 93.747 180.336 93.4506C181.11 93.3093 181.909 93.3987 182.632 93.7078C183.691 94.1945 184.949 95.276 185.292 97.6738C185.912 102.017 186.426 100.336 187.617 102.029C189.474 104.67 188.861 108.572 185.636 111.674C185.636 111.674 185.884 107.331 183.279 105.715L182.278 105.071C181.62 104.64 180.866 104.378 180.083 104.307C178.961 104.21 177.202 103.906 175.985 102.98C175.677 102.735 175.304 102.583 174.913 102.541C174.521 102.5 174.125 102.57 173.772 102.745C171.81 103.749 175.511 99.8176 171.123 99.7031C167.049 99.5943 167.31 95.2922 169.446 94.264Z" fill="#30384D"/>
<path d="M221.017 120.072C225.048 120.072 228.316 116.803 228.316 112.769C228.316 108.736 225.048 105.467 221.017 105.467C216.986 105.467 213.718 108.736 213.718 112.769C213.718 116.803 216.986 120.072 221.017 120.072Z" fill="#444C61"/>
<path d="M219.758 112.046C219.758 108.013 216.988 105.467 221.017 105.467C222.953 105.467 224.81 106.236 226.179 107.606C227.548 108.975 228.317 110.833 228.317 112.769C228.317 114.706 227.548 116.564 226.179 117.933C224.81 119.303 222.953 120.072 221.017 120.072C218.834 120.072 215.66 117.154 216.472 115.617C217.16 114.316 219.758 113.894 219.758 112.046Z" fill="#30384D"/>
<path d="M204.1 135.546C204.1 135.546 200.322 123.095 207.959 117.107C210.09 115.434 215.182 114.32 216.887 114.398C222.525 114.656 228.406 117.451 229.616 121.486C230.644 124.915 229.91 131.969 229.558 135.489C229.496 135.762 229.39 136.024 229.245 136.264C229.185 136.377 229.089 136.467 228.973 136.521C228.856 136.575 228.725 136.588 228.6 136.56C228.475 136.532 228.363 136.464 228.281 136.365C228.198 136.267 228.151 136.144 228.145 136.016C228.005 132.469 227.332 125.181 224.181 123.605C222.077 122.553 220.583 122.86 219.451 123.54C218.64 124.047 217.716 124.346 216.762 124.411C215.808 124.477 214.852 124.306 213.979 123.914C212.502 123.225 210.751 122.761 209.459 123.503C205.456 125.803 205.609 133.166 205.912 136.564C205.923 136.686 205.895 136.809 205.831 136.914C205.767 137.02 205.671 137.102 205.558 137.149C205.444 137.196 205.318 137.206 205.199 137.177C205.079 137.147 204.972 137.08 204.893 136.986C204.401 136.402 203.978 135.791 204.1 135.546Z" fill="#444C61"/>
<path d="M215.621 117.442C213.902 115.351 216.588 114.37 218.293 114.448C223.931 114.705 228.405 117.452 229.616 121.487C230.644 124.916 229.91 131.97 229.558 135.49C229.496 135.763 229.39 136.025 229.245 136.265C229.185 136.378 229.089 136.469 228.973 136.522C228.856 136.576 228.725 136.59 228.6 136.562C228.475 136.533 228.363 136.465 228.281 136.367C228.198 136.268 228.15 136.146 228.145 136.017C228.005 132.471 227.332 125.183 224.181 123.607C222.076 122.554 220.583 122.862 219.451 123.541C218.64 124.048 217.716 124.347 216.762 124.412C215.808 124.478 214.852 124.307 213.979 123.916C212.502 123.227 217.227 121.66 217.313 120.172C217.431 118.062 216.256 118.216 215.621 117.442Z" fill="#30384D"/>
</g>
<defs>
<clipPath id="clip0_69_10141">
<rect width="254" height="206.375" fill="white"/>
</clipPath>
</defs>
</svg>
