<svg width="254" height="192" viewBox="0 0 254 192" fill="none" xmlns="http://www.w3.org/2000/svg">
<g clip-path="url(#clip0_9_50989)">
<mask id="mask0_9_50989" style="mask-type:alpha" maskUnits="userSpaceOnUse" x="4" y="-1" width="240" height="193">
<path d="M70.757 28.0867C154.097 10.1157 187.857 -15.5183 212.368 12.2561C239.27 42.7377 246.444 63.3728 242.966 98.775C236.924 160.267 191.996 210.553 136.122 184.932C78.1164 158.332 71.7613 205.543 26.6355 160.427C-18.4902 115.31 8.37467 41.5393 70.757 28.0867Z" fill="#F6F6F6"/>
</mask>
<g mask="url(#mask0_9_50989)">
<path d="M70.757 28.0867C154.097 10.1157 187.857 -15.5183 212.368 12.2561C239.27 42.7377 246.444 63.3728 242.966 98.775C236.924 160.267 191.996 210.553 136.122 184.932C78.1164 158.332 71.7613 205.543 26.6355 160.427C-18.4902 115.31 8.37467 41.5393 70.757 28.0867Z" fill="#BEBEBE" fill-opacity="0.14"/>
<path d="M99.6062 101.984L101.458 127.254L80.1548 133.003L81.3913 141.184C81.3913 141.184 104.247 141.811 106.242 136.709C108.237 131.608 109.023 107.385 109.023 107.385L99.6062 101.984Z" fill="#EABBAE"/>
<path d="M108.982 108.49C108.982 108.49 107.665 116.067 106.072 121.676C105.645 123.176 105.286 124.456 104.992 125.546C104.461 127.459 103.466 129.21 102.094 130.644C100.723 132.079 99.0173 133.152 97.1304 133.768L81.0698 139.034L81.3965 141.193C81.3965 141.193 104.252 141.819 106.247 136.718C108.242 131.617 110.097 111.076 110.097 111.076L108.982 108.49Z" fill="#D1A79C"/>
<path d="M116.396 68.1187L139.803 67.8164L138.866 91.5177L114.441 91.0184L116.396 68.1187Z" fill="#A7795A"/>
<path d="M119.031 76.9444L119.228 90.7506C117.142 92.2102 114.979 93.5572 112.749 94.7859L127.373 118.914L136.687 91.4524C136.687 91.4524 133.353 91.7223 133.353 89.0825C133.353 86.4428 133.561 76.3965 133.561 76.3965L119.031 76.9444Z" fill="#D1A79C"/>
<path d="M157.82 55.2649C156.953 56.5475 156.422 58.0267 156.274 59.5675C156.126 61.1083 156.366 62.6616 156.973 64.0858C157.236 64.6505 157.383 65.2623 157.406 65.8849C157.428 66.5075 157.326 67.1283 157.105 67.7107C156.397 69.3707 151.886 69.2924 155.92 75.2684C158.079 78.4615 154.429 78.2941 155.355 80.4832C156.468 83.0986 159.192 81.2929 159.192 83.6763C159.192 91.3149 185.633 88.5725 186.04 82.6587C186.375 77.8245 185.077 79.0202 185.309 77.3818C185.541 75.7434 188.192 76.9904 187.199 72.6907C186.929 71.4626 185.633 71.2493 185.633 69.9051C185.633 69.2196 186.745 67.0386 186.138 65.7916C185.515 64.3289 185.216 62.7489 185.26 61.1599C185.09 59.8121 184.769 58.4876 184.304 57.211L157.907 55.1191L157.82 55.2649Z" fill="#444C61"/>
<path d="M157.82 55.2649C156.953 56.5475 156.422 58.0267 156.273 59.5675C156.125 61.1083 156.366 62.6616 156.972 64.0858C157.434 65.2275 164.588 65.7592 164.072 66.9712C163.365 68.6311 159.788 66.6338 163.824 72.5989C165.984 75.792 162.067 78.2671 162.995 80.4643C164.108 83.0798 159.191 81.274 159.191 83.6655C159.191 91.3041 185.632 88.5617 186.04 82.6479C186.375 77.8137 185.076 79.0094 185.308 77.371C185.541 75.7326 188.192 76.9796 187.198 72.6799C186.928 71.4518 185.632 71.2385 185.632 69.8943C185.632 69.2088 186.745 67.0278 186.137 65.7808C185.515 64.3181 185.215 62.7381 185.26 61.1491C185.089 59.8013 184.769 58.4768 184.304 57.2002L157.906 55.1191L157.82 55.2649Z" fill="#30384D"/>
<path d="M164.005 78.3048L165.056 95.0801L165.417 111.982H180.603L180.484 72.0859L164.005 78.3048Z" fill="#BA8B67"/>
<path d="M142.902 134.445C142.902 134.445 144.897 133.281 144.592 131.862C144.287 130.442 141.198 130.901 141.198 130.901L141.503 134.445H142.902Z" fill="#EABBAE"/>
<path d="M73.4701 66.1055L72.6602 82.5488C72.6602 82.5488 79.3177 110.998 88.9043 102.825C88.9043 102.825 92.9404 95.1592 92.4356 93.2428C91.9307 91.3264 92.4788 92.5357 92.4788 92.5357C92.4788 92.5357 88.0782 89.9688 88.0782 87.8499C88.0782 86.8026 88.3212 83.5852 88.683 80.3408C89.0501 77.0317 89.5334 73.7036 89.5334 73.7036L73.4701 66.1055Z" fill="#D1A79C"/>
<path d="M142.364 110.453L150.237 135.917C150.237 135.917 155.949 142.395 176.016 134.683L174.164 128.354L155.906 128.664L149.929 99.4941L142.364 110.453Z" fill="#EABBAE"/>
<path d="M147.553 105.006C147.504 108.074 147.815 111.136 148.479 114.132C149.619 118.253 151.892 122.599 151.581 125.298C151.318 126.583 151.326 127.909 151.605 129.19C151.884 130.471 152.428 131.681 153.201 132.74C153.201 132.74 154.74 134.227 159.562 131.765C162.836 130.095 168.02 131.817 176.03 134.683L174.178 128.354L155.92 128.664L149.929 99.4941L147.553 105.006Z" fill="#D1A79C"/>
<path d="M119.225 89.0801C119.225 89.0801 108.931 92.1868 102.86 93.1774C100.477 95.9037 98.8997 99.2393 98.3052 102.811L105.594 107.515C105.594 107.515 108.327 127.697 108.327 133.767C108.327 139.838 101.342 158.959 101.342 158.959C101.342 158.959 114.549 172.314 149.003 160.781C145.153 152.151 142.891 142.898 142.327 133.465C142.514 124.159 143.94 114.92 146.568 105.99L151.895 105.383C151.895 105.383 151.697 93.7172 144.449 91.423C140.868 90.1629 137.138 89.3761 133.353 89.0828L127.214 110.244C127.165 110.401 127.068 110.538 126.937 110.635C126.806 110.733 126.647 110.787 126.484 110.789C126.32 110.792 126.16 110.742 126.026 110.647C125.892 110.553 125.792 110.418 125.74 110.263L119.225 89.0801Z" fill="#4573D2"/>
<path d="M144.006 116.68C143.089 119.29 141.414 121.567 139.195 123.22C133.663 126.631 137.993 131.927 137.726 137.957C137.459 143.987 130.499 144.203 130.742 150.041C130.985 155.88 131.76 163.078 131.76 163.078C137.581 163.044 143.374 162.271 149 160.776C149.764 160.595 143.15 148.851 142.548 137.431C142.192 130.48 142.681 123.512 144.006 116.68Z" fill="#4369B6"/>
<path d="M141.978 138.947C141.978 138.947 138.293 141.025 139.522 141.97C139.861 142.243 140.265 142.426 140.695 142.501C141.124 142.576 141.566 142.541 141.978 142.399C141.978 142.399 140.256 143.208 140.629 144.426C141.001 145.643 142.972 145.287 142.972 145.287C142.972 145.287 141.555 146.097 142.364 147.211C142.533 147.516 142.802 147.753 143.125 147.882C143.448 148.011 143.806 148.025 144.138 147.921C144.138 147.921 142.667 150.148 144.138 150.148C145.61 150.148 147.024 149.441 146.365 148.577C145.707 147.713 145.099 147.819 145.099 147.819C145.099 147.819 146.719 146.35 146.012 145.438C145.85 145.189 145.634 144.979 145.379 144.825C145.125 144.671 144.839 144.576 144.543 144.547C144.543 144.547 145.909 143.311 145.353 142.55C145.2 142.333 144.994 142.158 144.754 142.043C144.515 141.928 144.25 141.875 143.984 141.891C144.278 141.653 144.496 141.335 144.613 140.976C144.729 140.617 144.74 140.232 144.643 139.867C144.166 138.965 143.45 138.212 142.572 137.691L141.978 138.947Z" fill="#EABBAE"/>
<path d="M86.8015 99.8468L78.7645 86.5535L68.5757 82.5371L66.3269 84.1971L46.8403 94.3756C47.6158 103.769 49.1196 113.089 51.3381 122.25C54.6371 134.539 58.0873 159.568 58.0873 159.568C58.0873 159.568 87.5655 161.067 98.3131 160.616C98.3131 160.616 102.419 134.904 101.466 123.3C100.708 114.055 100.254 107.915 100.254 107.915L102.233 93.9573L88.7939 84.6587L86.8015 99.8468Z" fill="#8A90A7"/>
<path d="M164.427 85.2429L156.246 87.9906L147.853 93.6589L151.346 101.111L151.886 105.389L151.152 105.473L151.298 108.21L149.948 114.496C149.575 116.246 149.679 118.063 150.249 119.759C150.819 121.454 151.834 122.966 153.188 124.135L153.728 127.085L155.131 138.897L151.006 158.687C151.006 158.687 183.133 164.085 200.784 159.281L194.653 137.885L197.25 117.39L197.614 114.502L197.949 111.867L200.778 89.5292L180.493 82.0039C180.493 82.0039 180.271 97.0328 172.31 97.0328C167.159 97.0274 164.427 85.2429 164.427 85.2429Z" fill="#FFBD3B"/>
<path d="M189.968 86.9082C193.642 87.4377 197.258 88.3134 200.767 89.5237C206.102 92.1635 223.715 109.422 223.715 109.422L237.057 91.3078L242.974 95.8559L227.84 121.768C226.819 122.693 225.516 123.246 224.141 123.337C222.766 123.428 221.401 123.052 220.267 122.27C214.436 119.452 203.856 114.01 198.669 109.265C191.305 102.515 174.31 93.1784 189.968 86.9082Z" fill="#FFBD3B"/>
<path d="M91.869 53.9239V63.3926C91.869 63.3926 93.3835 60.9121 94.2124 62.8528C94.4923 63.7051 94.5631 64.6123 94.4189 65.4978C94.2747 66.3833 93.9196 67.2212 93.3835 67.9407C92.6762 69.0042 91.869 68.6155 91.869 68.6155C91.869 68.6155 90.8512 78.6024 84.3854 79.9762C77.9196 81.3501 76.7506 78.5484 74.6286 76.4511C72.4976 74.0982 71.3725 71.0046 71.4942 67.8327C71.4942 67.8327 69.7529 69.5359 68.7513 67.6357C67.9279 66.0756 66.9695 59.4815 70.9489 61.6705C70.9489 61.6705 70.3361 49.6188 72.8252 47.9264C75.3143 46.234 79.8823 45.292 87.2714 48.0938C90.1574 49.1815 91.869 50.4582 91.869 53.9239Z" fill="#EABBAE"/>
<path d="M80.7218 53.2299C78.2184 52.0571 76.0202 50.3213 74.2992 48.1582C74.2992 48.1582 76.6587 52.8088 74.2992 54.3662C70.6114 56.7955 75.7192 59.2706 73.7268 60.9765C72.9298 61.9903 72.3283 63.1436 71.9531 64.3774L69.9958 61.2734C69.9958 61.2734 66.4511 46.8275 72.8872 45.54C73.3748 44.9651 73.7867 44.3301 74.1129 43.6506C75.1523 39.7746 81.3616 42.9515 86.0726 43.1836C99.5145 43.8476 93.2539 62.1506 93.2539 62.1506C92.2057 62.8296 91.3966 63.8197 90.9402 64.982C90.5458 63.6313 90.4537 62.2103 90.6702 60.8199C91.1886 57.8293 89.6471 55.7239 87.9705 55.7941C82.4496 56.0343 82.3146 53.956 80.7218 53.2299Z" fill="#444C61"/>
<path d="M71.6535 77.793L67.7524 82.1116L72.6632 94.8652C72.6632 94.8652 77.9277 86.989 80.1549 90.363C82.3822 93.7369 86.8016 99.8397 86.8016 99.8397L81.2591 89.6126L71.6535 77.793Z" fill="#B0B5C0"/>
<path d="M86.8013 99.8467L88.6911 80.3398L95.3243 89.2471C95.5367 91.1802 95.5367 93.1307 95.3243 95.0638C95.3243 95.0638 93.5425 89.4954 92.5193 91.3254L86.8067 99.8413" fill="#B0B5C0"/>
<path d="M63.4867 96.6646C58.3124 94.6513 52.7579 93.8025 47.2183 94.1786C45.9737 94.5241 44.8695 96.3218 41.1925 101.223C38.5306 104.776 35.4799 109.172 32.9503 112.903L18.0964 96.6862L9.30615 103.434L30.7284 130.291C31.057 130.705 31.4685 131.045 31.9364 131.291C32.4044 131.537 32.9185 131.682 33.4458 131.718C33.9732 131.753 34.5021 131.678 34.9988 131.498C35.4955 131.317 35.9491 131.035 36.3303 130.669C42.8852 124.401 55.6711 112.741 60.5899 107.629C67.5417 100.395 63.4867 96.6646 63.4867 96.6646Z" fill="#8A90A7"/>
<path d="M160.936 64.8142C160.936 64.8142 158.109 62.0692 158.349 65.624C158.59 69.1788 158.916 73.2977 160.936 72.1667C161.486 74.1025 162.174 75.9967 162.993 77.835C163.56 78.5611 166.797 83.5788 171.322 83.3359C173.283 83.3102 175.186 82.6662 176.759 81.4957C178.333 80.3253 179.497 78.688 180.085 76.8174C180.249 75.2883 180.601 73.7852 181.132 72.3422C181.132 72.3422 182.507 72.99 183.152 71.2112C183.797 69.4325 185.738 64.3473 182.426 64.6685C182.921 61.7832 183.11 58.8536 182.99 55.9286C182.587 53.1835 177.901 47.4478 173.781 47.2913C169.661 47.1347 164.732 48.101 162.31 51.7341C159.888 55.3672 160.531 56.2525 160.936 64.8142Z" fill="#D5A882"/>
<path d="M176.783 50.1336C176.783 50.1336 176.243 53.9124 172.971 54.4927C171.656 54.7222 169.621 55.8288 169.707 57.1622C169.765 57.4518 169.758 57.7507 169.684 58.0368C169.611 58.3229 169.474 58.5887 169.283 58.8144C169.093 59.0401 168.854 59.22 168.584 59.3405C168.314 59.461 168.021 59.5191 167.726 59.5105C164.005 59.9127 164.796 61.7481 163.814 63.0599C162.958 64.2043 162.113 64.9007 160.936 64.8143L159.834 63.1706C159.834 63.1706 157.855 64.952 157.019 61.6563C156.182 58.3606 155.04 52.8031 159.597 50.4251C160.963 49.7125 162.013 44.6705 165.131 44.8109C168.249 44.9512 167.75 45.9607 172.245 44.7083C172.769 44.4799 173.336 44.3658 173.908 44.3734C174.48 44.3811 175.043 44.5103 175.561 44.7527C176.079 44.995 176.539 45.3448 176.912 45.7788C177.284 46.2128 177.559 46.7211 177.72 47.2698C178.634 47.1849 179.556 47.2879 180.429 47.5725C181.302 47.857 182.107 48.3171 182.795 48.9244C183.241 49.4372 183.535 51.5965 183.994 52.2389C184.963 53.2027 185.54 54.4914 185.614 55.8558C185.42 57.7803 184.739 58.7223 185.301 60.0071C186.437 62.6145 183.527 64.8197 183.527 64.8197L182.077 65.7806C182.077 65.7806 183.306 60.1934 181.084 59.7372C178.268 59.1569 179.442 57.3512 177.771 55.6885C176.1 54.0258 176.783 50.1336 176.783 50.1336Z" fill="#444C61"/>
<path d="M57.6122 156.273L50.2339 196.799H106.342C106.342 196.799 100.543 156.233 98.9043 156.673C85.4139 160.303 57.6122 156.273 57.6122 156.273Z" fill="#444C61"/>
<path d="M98.8933 156.672C93.7894 157.648 88.6069 158.156 83.4105 158.189C82.9976 160.894 82.7407 163.621 82.641 166.356C82.3046 170.872 81.6879 175.362 80.7944 179.801L103.537 178.47C103.537 178.47 100.276 157.249 98.8933 156.672Z" fill="#30384D"/>
<path d="M148.998 160.776L160.126 199.374L91.1509 200.351L101.337 158.951C116.762 163.881 133.24 164.511 148.998 160.776Z" fill="#30384D"/>
<path d="M153.365 147.34C150.366 155.674 148.613 164.405 148.163 173.251C148.071 185.414 149.451 199.328 149.451 199.328L172.293 196.926L174.636 178.601L175.287 196.613L203.405 194.316C203.405 194.316 203.64 180.456 203.858 170.393C204.077 160.331 197.195 146.775 197.195 146.775C197.195 146.775 167.285 157.008 153.365 147.34Z" fill="#444C61"/>
<path d="M174.645 178.601C174.645 178.601 173.625 176.96 172.272 177.792C169.842 179.309 169.775 180.11 169.572 187.819C169.37 195.528 163.903 197.045 163.903 197.045L172.68 196.316L174.645 178.601Z" fill="#30384D"/>
<path d="M80.7217 53.2308C88.0919 52.2995 88.3349 48.7124 87.2712 48.0808C85.2761 46.8931 80.9593 46.167 85.1546 45.3249C85.1546 45.3249 81.3615 42.9389 86.0725 43.1656C99.5144 43.8296 93.2538 62.1326 93.2538 62.1326C92.2056 62.8116 91.3965 63.8017 90.9401 64.964C90.5457 63.6133 90.4535 62.1923 90.6701 60.8019C91.1885 57.8112 89.6469 55.7059 87.9704 55.7761C82.4495 56.0352 80.7217 53.2308 80.7217 53.2308Z" fill="#30384D"/>
<path d="M117.411 70.2479C117.411 70.2479 116.288 79.1876 121.833 83.3524C123.368 84.3919 125.183 84.9386 127.036 84.9193C128.89 84.9 130.693 84.3157 132.205 83.2444C134.905 80.7882 135.483 79.7355 135.602 74.4262C135.721 69.117 136.844 60.8225 131.536 58.0477C130.482 57.4365 129.316 57.0422 128.107 56.888C126.898 56.7337 125.671 56.8227 124.497 57.1496C123.323 57.4766 122.227 58.0348 121.272 58.7917C120.317 59.5485 119.523 60.4886 118.936 61.5566C117.55 64.2291 117.017 67.263 117.411 70.2479Z" fill="#EABBAE"/>
<path d="M131.314 54.4181C130.428 52.7208 129.071 51.315 127.405 50.3693C126.442 49.9709 125.409 49.7724 124.367 49.7858C123.325 49.7992 122.296 50.0244 121.344 50.4475C120.392 50.8706 119.536 51.4829 118.828 52.2471C118.119 53.0114 117.574 53.9116 117.225 54.8931C116.396 57.3224 113.367 57.2846 112.095 59.6139C110.316 62.8529 111.739 65.347 112.735 69.7682C113.418 72.8128 109.579 76.9804 108.718 79.5095C107.4 83.3774 110.805 84.9078 107.997 87.7284C103.429 92.317 109.309 97.0378 113.189 97.1188C117.068 97.1998 119.876 96.8948 119.938 91.4775C119.97 88.6002 117.702 88.1063 117.303 86.5705C117.542 84.824 117.897 83.0954 118.367 81.3962C118.531 79.0762 118.162 76.7492 117.287 74.5943C116.207 72.4862 115.37 70.8155 117.36 69.5226C118.519 69.063 119.506 68.2549 120.186 67.2101C120.866 66.1653 121.205 64.9352 121.155 63.6897C120.885 60.6261 125.378 62.3968 127.716 61.3954C128.447 61.0565 129.099 60.5671 129.628 59.9592C130.158 59.3513 130.553 58.6386 130.788 57.8676C131.39 58.4938 135.799 59.757 135.302 68.065C134.916 70.1799 135.024 72.3553 135.618 74.4215C135.642 74.4701 135.699 74.516 135.688 74.5673C135.229 76.7806 135.013 77.7469 135.958 79.1316C136.644 80.1249 134.919 81.8119 134.929 82.9104C134.948 85.0913 135.953 85.0077 135.788 86.6892C135.71 87.499 134.087 89.7393 134.246 91.5666C134.381 92.3413 134.668 93.0814 135.092 93.7438C135.515 94.4062 136.067 94.9776 136.714 95.4246C137.36 95.8717 138.09 96.1853 138.859 96.3474C139.629 96.5094 140.423 96.5166 141.195 96.3684C142.189 96.3661 143.166 96.1183 144.04 95.6472C144.914 95.1761 145.658 94.4962 146.206 93.6681C146.754 92.84 147.089 91.8893 147.181 90.9006C147.273 89.9119 147.119 88.9158 146.732 88.001C145.628 85.5718 142.07 86.8998 143.239 82.5487C144.395 78.249 142.802 77.6201 142.362 75.3015C142.138 74.1084 143.66 72.6914 143.08 69.617C142.362 65.822 139.387 66.1972 139.57 63.7167C140.121 56.8284 137.138 52.3451 131.314 54.4181Z" fill="#B5896B"/>
<path d="M131.314 54.4182C130.428 52.7209 129.07 51.3152 127.405 50.3695C125.032 49.0982 131.158 51.6678 129.338 56.9959C128.512 59.4252 123.18 56.0108 121.906 58.3455C120.127 61.5845 113.745 59.3874 114.738 63.8086C115.514 67.3484 115.514 71.0142 114.738 74.554C113.421 78.4219 118.264 80.8754 115.456 83.688C110.886 88.2765 109.306 97.0434 113.186 97.1244C117.065 97.2054 119.873 96.9003 119.935 91.4831C119.967 88.6058 117.7 88.1119 117.3 86.5761C117.539 84.8296 117.895 83.101 118.364 81.4018C118.529 79.0817 118.159 76.7548 117.284 74.5999C116.204 72.4918 115.367 70.8211 117.357 69.5282C118.516 69.0685 119.503 68.2605 120.183 67.2157C120.863 66.1709 121.202 64.9408 121.153 63.6953C120.883 60.6317 125.375 62.4024 127.713 61.401C128.444 61.0621 129.096 60.5727 129.625 59.9648C130.155 59.3569 130.55 58.6442 130.785 57.8732C131.387 58.4994 135.796 59.7626 135.299 68.0706C134.913 70.1855 135.021 72.3609 135.615 74.4271C135.639 74.4757 135.696 74.5216 135.685 74.5729C135.226 76.7862 135.01 77.7525 135.955 79.1372C136.641 80.1305 134.916 81.8174 134.927 82.916C134.945 85.0969 135.95 85.0132 135.785 86.6948C135.707 87.5046 134.084 89.7449 134.244 91.5722C134.378 92.3469 134.665 93.087 135.089 93.7494C135.512 94.4118 136.064 94.9832 136.711 95.4302C137.358 95.8772 138.087 96.1909 138.857 96.353C139.626 96.515 140.42 96.5222 141.193 96.374C142.186 96.3717 143.163 96.1239 144.037 95.6528C144.911 95.1817 145.656 94.5018 146.204 93.6737C146.752 92.8456 147.086 91.8949 147.178 90.9062C147.27 89.9175 147.116 88.9214 146.73 88.0066C145.626 85.5774 142.067 86.9054 143.236 82.5543C144.392 78.2545 142.799 77.6256 142.359 75.3071C142.135 74.114 143.657 72.697 143.077 69.6226C142.359 65.8276 139.384 66.2028 139.567 63.7223C140.121 56.8286 137.138 52.3453 131.314 54.4182Z" fill="#A7795A"/>
<path d="M117.325 68.9502C117.325 68.9502 115.667 66.556 114.746 68.2133C113.826 69.8706 114.992 75.7035 117.325 74.4214C119.657 73.1393 117.325 68.9502 117.325 68.9502Z" fill="#EABBAE"/>
<path d="M135.769 68.9502C135.769 68.9502 137.429 66.556 138.35 68.2133C139.27 69.8706 138.104 75.7035 135.769 74.4214C133.434 73.1393 135.769 68.9502 135.769 68.9502Z" fill="#EABBAE"/>
<path d="M176.783 50.1336C176.783 50.1336 176.243 53.9124 172.971 54.4927C171.656 54.7222 169.62 55.8288 169.707 57.1622C169.765 57.4518 169.757 57.7507 169.684 58.0368C169.61 58.3229 169.473 58.5887 169.283 58.8144C169.092 59.0401 168.853 59.22 168.584 59.3405C168.314 59.461 168.021 59.5191 167.725 59.5105C164.005 59.9127 164.796 61.7481 163.813 63.0599C162.958 64.2043 162.113 64.9007 160.935 64.8143L159.834 63.1706C159.834 63.1706 164.248 61.5726 163.411 58.277C162.574 54.9813 162.31 51.7288 170.187 51.6775C171.726 51.6775 171.807 48.1227 174.92 48.2604C178.033 48.398 167.75 45.9607 172.245 44.7083C172.769 44.4799 173.336 44.3658 173.907 44.3734C174.479 44.3811 175.043 44.5103 175.561 44.7527C176.079 44.995 176.539 45.3448 176.911 45.7788C177.284 46.2128 177.559 46.7211 177.72 47.2698C178.634 47.1849 179.556 47.2879 180.428 47.5725C181.301 47.857 182.107 48.3171 182.795 48.9244C183.241 49.4372 183.535 51.5965 183.994 52.2389C184.963 53.2027 185.54 54.4914 185.614 55.8558C185.419 57.7803 184.739 58.7223 185.3 60.0071C186.437 62.6145 183.527 64.8197 183.527 64.8197L182.077 65.7806C182.077 65.7806 183.305 60.1934 181.083 59.7372C178.268 59.1569 179.442 57.3512 177.771 55.6885C176.1 54.0258 176.783 50.1336 176.783 50.1336Z" fill="#30384D"/>
<path d="M185.271 149.796C185.271 149.796 185.363 153.669 190.006 160.973C194.515 168.072 185.366 174.496 186.621 179.959C187.876 185.422 189.888 192.2 189.888 192.2C189.888 192.2 204.012 181.778 204.012 181.465C204.012 181.152 204.201 172.865 203.761 168.66C203.004 161.01 200.775 153.579 197.196 146.775L183.26 150.306" fill="#30384D"/>
</g>
<path d="M237.688 91.792C237.375 89.4404 237.687 87.0477 238.593 84.8551C239.671 82.4373 240.461 79.9005 240.944 77.2975C241.406 76.4067 242.272 77.4108 242.534 80.0614C242.763 81.2376 242.698 82.4521 242.345 83.5973C244.618 81.2171 247.061 79.006 249.656 76.9817C253.727 73.7427 254.34 78.3987 253.854 82.6499C253.892 83.8685 253.661 85.0804 253.178 86.1999C252.696 87.3194 251.972 88.319 251.06 89.1279C248.344 91.4403 245.456 93.5427 242.421 95.4169L237.688 91.792Z" fill="#D5A882"/>
<path d="M239.775 81.9707C239.413 83.8839 239.37 85.844 239.648 87.7712C239.945 89.2395 240.637 88.0627 240.85 91.1559C240.878 91.597 240.818 92.0393 240.672 92.4565C240.527 92.8738 240.299 93.2576 240.002 93.5852L237.688 91.8064C237.609 91.1799 237.571 90.5487 237.575 89.917C237.624 87.1317 238.382 84.4046 239.775 81.9923" fill="#BA8B67"/>
<path d="M16.3064 98.0362C16.62 95.6847 16.308 93.292 15.402 91.0994C14.3235 88.6814 13.5342 86.1447 13.0505 83.5417C12.5889 82.651 11.7223 83.6551 11.4604 86.3057C11.2321 87.4811 11.297 88.6945 11.6494 89.8389C9.37534 87.4651 6.93198 85.2595 4.33854 83.2394C0.267367 80.0139 -0.345468 84.6592 0.137781 88.9077C0.101584 90.1263 0.333292 91.338 0.816557 92.4573C1.29982 93.5766 2.02287 94.5762 2.93469 95.3857C5.65063 97.6981 8.53867 99.8005 11.5738 101.675L16.3064 98.0362Z" fill="#EABBAE"/>
<path d="M102.225 93.9629C100.144 97.5843 99.0963 101.707 99.1959 105.882C99.5077 113.316 97.5877 120.673 93.6831 127.006C85.7891 138.845 91.6421 146.734 87.6951 150.273C85.3836 152.273 83.864 155.034 83.4106 158.057C88.6095 158.254 93.8122 157.789 98.8935 156.673C100.308 148.07 101.203 139.39 101.574 130.68C101.458 122.18 100.246 107.92 100.246 107.92L102.225 93.9629Z" fill="#7B8093"/>
<path d="M86.8015 99.8468C85.0845 97.5807 82.5428 96.0832 79.7282 95.6793C74.3153 94.4296 74.1074 93.0773 74.1074 93.0773C74.1074 93.0773 76.6047 90.0596 78.4783 89.6439C80.3519 89.2283 82.0176 93.1771 82.0176 93.1771L86.8015 99.8414" fill="#7B8093"/>
<path d="M50.2173 117.613C50.2173 117.613 56.9477 118.509 58.743 131.069C60.5383 143.628 63.1165 144.527 65.1359 151.366C67.1553 158.206 66.1456 157.196 66.1456 157.196L57.6118 156.273C57.6118 156.273 54.032 132.75 53.4704 130.845C52.9089 128.939 50.2308 117.619 50.2308 117.619" fill="#7B8093"/>
<path d="M11.582 101.674C11.582 101.674 15.4939 112.368 21.1174 113.901C26.7409 115.434 24.2842 119.216 28.2717 122.484C32.2592 125.753 31.3359 124.017 35.2207 125.453C37.1788 126.327 39.3717 126.524 41.4544 126.015L36.3249 130.663C35.941 131.024 35.4868 131.301 34.9907 131.479C34.4946 131.656 33.9673 131.729 33.4416 131.694C32.916 131.658 32.4033 131.515 31.9355 131.273C31.4678 131.03 31.055 130.694 30.723 130.285C27.8586 127.292 9.30078 103.428 9.30078 103.428L11.5793 101.679" fill="#7B8093"/>
<path d="M107.03 119.77C108.91 121.868 111.317 123.426 114.001 124.283C114.218 124.343 114.416 124.459 114.576 124.619C114.735 124.779 114.849 124.978 114.909 125.195C114.968 125.413 114.969 125.643 114.913 125.861C114.856 126.08 114.744 126.28 114.587 126.442C112.802 128.264 109.905 130.901 108.159 130.831L107.03 119.77Z" fill="#4369B6"/>
<path d="M197.022 119.119C196.509 121.235 195.373 123.149 193.761 124.615C189.477 128.898 180.624 124.733 180.624 124.733C180.492 128.261 189.92 129.462 185.622 134.31C182.147 138.224 189.28 140.893 186.645 145.717C184.585 149.496 185.271 149.795 185.271 149.795C185.271 149.795 188.567 149.142 197.195 146.775L194.647 137.868L196.699 121.673" fill="#DBA53B"/>
<path d="M153.333 124.107C153.333 124.107 155.706 126.78 164.089 125.408C164.089 125.408 156.902 128.777 153.697 127.703L153.333 124.107Z" fill="#DBA53B"/>
<path d="M14.2168 88.2246C14.582 90.1375 14.6258 92.0978 14.3464 94.0251C14.0494 95.4907 13.3583 94.3166 13.145 97.4072C13.1166 97.8482 13.177 98.2904 13.3226 98.7077C13.4682 99.1249 13.6961 99.5087 13.9927 99.8364L16.3064 98.0361C16.3862 97.4095 16.424 96.7783 16.4198 96.1467C16.37 93.3618 15.6118 90.6355 14.2168 88.2246Z" fill="#D1A79C"/>
</g>
<defs>
<clipPath id="clip0_9_50989">
<rect width="254" height="191.77" fill="white"/>
</clipPath>
</defs>
</svg>
