<svg width="600" height="327" viewBox="0 0 600 327" fill="none" xmlns="http://www.w3.org/2000/svg">
<g clip-path="url(#clip0_69_6374)">
<mask id="mask0_69_6374" style="mask-type:alpha" maskUnits="userSpaceOnUse" x="-1" y="0" width="601" height="327">
<path d="M380.412 86.8712C279.973 121.989 211.912 52.2443 176.073 18.9211C126.581 -27.0946 91.1232 20.5988 55.4225 58.3279C35.9396 78.916 31.2943 91.2166 16.7642 107.553C-14.1057 142.26 2.91175 184.825 25.7035 201.005C90.8438 247.248 -8.10517 285.516 31.3589 306.462C85.5522 335.233 165.232 337.689 293.289 288.406C420.309 239.523 518.224 366.307 584.479 308.28C594.486 299.511 623.18 233.186 562.093 196.816C492.769 155.542 525.033 150.965 506.727 129.036C471.535 86.8712 481.729 51.4471 380.412 86.8712Z" fill="#F6F6F6"/>
</mask>
<g mask="url(#mask0_69_6374)">
<path d="M380.412 86.8712C279.973 121.989 211.912 52.2443 176.073 18.9211C126.581 -27.0946 91.1233 20.5988 55.4226 58.3279C35.9397 78.916 31.2944 91.2166 16.7643 107.553C-14.1056 142.26 2.91187 184.825 25.7036 201.005C90.844 247.248 -8.10504 285.516 31.3591 306.462C85.5523 335.233 165.232 337.689 293.289 288.406C420.309 239.523 518.224 366.307 584.479 308.28C594.487 299.511 623.18 233.186 562.094 196.816C492.769 155.542 525.033 150.965 506.727 129.036C471.535 86.8712 481.729 51.4471 380.412 86.8712Z" fill="#BEBEBE" fill-opacity="0.14"/>
<path d="M696.248 273.75H-22.3383V380.732H696.248V273.75Z" fill="#CED3DF"/>
<path d="M338.444 147.918H-54.6676V151.16H338.444V147.918Z" fill="#B0B5C0"/>
<path d="M338.444 194.484H-54.6676V197.726H338.444V194.484Z" fill="#B0B5C0"/>
<path d="M338.444 241.051H-54.6676V244.293H338.444V241.051Z" fill="#B0B5C0"/>
<path d="M145.963 103.734H-54.6676V100.492H146.208" fill="#B0B5C0"/>
<path d="M202.234 295.419L202.876 290.067H190.46L182.315 293.932H115.655L114.355 291.416L119.614 291.404L122.613 290.025L146.66 290.175L153.104 286.034L153.297 284.317H129.069L122.729 283.84L121.722 284.317H-39.8342V287.61H-69.8899L-70.1203 289.877L-442.936 289.511V291.794C-442.936 294.299 -441.94 296.702 -440.168 298.473C-438.396 300.245 -435.992 301.24 -433.486 301.24H89.035L89.1507 300.247H202.584L220.209 297.186L220.407 295.423L202.234 295.419Z" fill="#8A90A7"/>
<path d="M278.83 213.744H206.885V241.051H278.83V213.744Z" fill="#D5A882"/>
<path d="M261.289 213.744H206.885V241.051H261.289V213.744Z" fill="#BA8B67"/>
<path d="M347.638 220.555L319.368 371.184H325.652L359.029 220.555H347.638Z" fill="#444C61"/>
<path d="M378.281 220.555L397.73 371.184H393.41L370.443 220.555H378.281Z" fill="#444C61"/>
<path d="M551.306 220.555L531.856 371.184H536.176L559.142 220.551L551.306 220.555Z" fill="#444C61"/>
<path d="M587.262 220.555L615.531 371.184H609.249L575.864 220.555H587.262Z" fill="#444C61"/>
<path d="M25.7034 95.9297H22.4206V283.114H25.7034V95.9297Z" fill="#B0B5C0"/>
<path d="M329.433 95.9297H326.15V283.189H329.433V95.9297Z" fill="#B0B5C0"/>
</g>
<path d="M144.382 103.734H336.862V100.492H144.628L144.382 103.734Z" fill="#B0B5C0"/>
<path d="M481.236 186.303H458.443V214.133H481.236V186.303Z" fill="#B0B5C0"/>
<path d="M481.236 186.303H458.443V214.133H481.236V186.303Z" fill="#393939" fill-opacity="0.18"/>
<path d="M531.048 183.632V193.752C531.048 194.564 530.725 195.343 530.15 195.918C529.575 196.493 528.795 196.815 527.982 196.815H411.317C410.915 196.815 410.516 196.736 410.144 196.582C409.772 196.428 409.434 196.203 409.15 195.918C408.865 195.634 408.639 195.296 408.485 194.924C408.331 194.552 408.252 194.154 408.252 193.752V183.632C408.252 183.632 531.16 183.52 531.048 183.632Z" fill="#CED3DF"/>
<path d="M408.252 183.493V114.106C408.209 113.248 408.507 112.409 409.082 111.771C409.656 111.133 410.46 110.749 411.317 110.701H527.982C528.84 110.749 529.643 111.133 530.218 111.771C530.792 112.409 531.091 113.248 531.048 114.106V183.497L408.252 183.493Z" fill="#30384D"/>
<path d="M525.23 116.562H414.447V177.44H525.23V116.562Z" fill="white"/>
<path d="M525.218 116.01H414.452V177.393H525.218V116.01Z" fill="#F6F6F6"/>
<path d="M429.118 120.656H414.45V177.42H429.118V120.656Z" fill="#DBDBDB"/>
<path d="M525.23 115.834H414.447V120.717H525.23V115.834Z" fill="#444C61"/>
<path d="M506.486 116.988H504.173C504.036 116.988 503.925 117.099 503.925 117.236V119.54C503.925 119.677 504.036 119.788 504.173 119.788H506.486C506.623 119.788 506.735 119.677 506.735 119.54V117.236C506.735 117.099 506.623 116.988 506.486 116.988Z" fill="#7B8093"/>
<path d="M502.968 116.988H500.655C500.518 116.988 500.407 117.099 500.407 117.236V119.54C500.407 119.677 500.518 119.788 500.655 119.788H502.968C503.105 119.788 503.216 119.677 503.216 119.54V117.236C503.216 117.099 503.105 116.988 502.968 116.988Z" fill="#7B8093"/>
<path d="M499.527 116.988H497.214C497.077 116.988 496.965 117.099 496.965 117.236V119.54C496.965 119.677 497.077 119.788 497.214 119.788H499.527C499.664 119.788 499.775 119.677 499.775 119.54V117.236C499.775 117.099 499.664 116.988 499.527 116.988Z" fill="#7B8093"/>
<path d="M496.085 116.988H483.772C483.635 116.988 483.524 117.099 483.524 117.236V119.54C483.524 119.677 483.635 119.788 483.772 119.788H496.085C496.222 119.788 496.333 119.677 496.333 119.54V117.236C496.333 117.099 496.222 116.988 496.085 116.988Z" fill="#7B8093"/>
<path d="M510.084 116.988H507.771C507.634 116.988 507.523 117.099 507.523 117.236V119.54C507.523 119.677 507.634 119.788 507.771 119.788H510.084C510.221 119.788 510.332 119.677 510.332 119.54V117.236C510.332 117.099 510.221 116.988 510.084 116.988Z" fill="#7B8093"/>
<path d="M513.603 116.988H511.29C511.153 116.988 511.042 117.099 511.042 117.236V119.54C511.042 119.677 511.153 119.788 511.29 119.788H513.603C513.74 119.788 513.852 119.677 513.852 119.54V117.236C513.852 117.099 513.74 116.988 513.603 116.988Z" fill="#C98A30"/>
<path d="M427.649 132.229H415.428C415.278 132.229 415.156 132.35 415.156 132.5V135.026C415.156 135.177 415.278 135.298 415.428 135.298H427.649C427.799 135.298 427.921 135.177 427.921 135.026V132.5C427.921 132.35 427.799 132.229 427.649 132.229Z" fill="white"/>
<path d="M427.649 135.852H415.428C415.278 135.852 415.156 135.973 415.156 136.124V138.65C415.156 138.8 415.278 138.921 415.428 138.921H427.649C427.799 138.921 427.921 138.8 427.921 138.65V136.124C427.921 135.973 427.799 135.852 427.649 135.852Z" fill="white"/>
<path d="M427.649 139.568H415.428C415.278 139.568 415.156 139.69 415.156 139.84V142.366C415.156 142.517 415.278 142.638 415.428 142.638H427.649C427.799 142.638 427.921 142.517 427.921 142.366V139.84C427.921 139.69 427.799 139.568 427.649 139.568Z" fill="white"/>
<path d="M427.649 121.297H415.428C415.278 121.297 415.156 121.419 415.156 121.569V124.095C415.156 124.245 415.278 124.367 415.428 124.367H427.649C427.799 124.367 427.921 124.245 427.921 124.095V121.569C427.921 121.419 427.799 121.297 427.649 121.297Z" fill="white"/>
<path d="M427.649 124.92H415.428C415.278 124.92 415.156 125.042 415.156 125.192V127.718C415.156 127.868 415.278 127.99 415.428 127.99H427.649C427.799 127.99 427.921 127.868 427.921 127.718V125.192C427.921 125.042 427.799 124.92 427.649 124.92Z" fill="#4573D2"/>
<path d="M427.649 128.637H415.428C415.278 128.637 415.156 128.758 415.156 128.909V131.435C415.156 131.585 415.278 131.707 415.428 131.707H427.649C427.799 131.707 427.921 131.585 427.921 131.435V128.909C427.921 128.758 427.799 128.637 427.649 128.637Z" fill="white"/>
<path d="M434.015 118.561H418.245C418.206 118.561 418.174 118.592 418.174 118.631V119.294C418.174 119.333 418.206 119.365 418.245 119.365H434.015C434.055 119.365 434.086 119.333 434.086 119.294V118.631C434.086 118.592 434.055 118.561 434.015 118.561Z" fill="white"/>
<path d="M520.154 118.1H515.578C515.539 118.1 515.507 118.131 515.507 118.17V118.833C515.507 118.872 515.539 118.904 515.578 118.904H520.154C520.194 118.904 520.225 118.872 520.225 118.833V118.17C520.225 118.131 520.194 118.1 520.154 118.1Z" fill="white"/>
<path d="M440.049 119.555H437.744C437.733 119.555 437.723 119.564 437.723 119.576V119.775C437.723 119.786 437.733 119.795 437.744 119.795H440.049C440.061 119.795 440.07 119.786 440.07 119.775V119.576C440.07 119.564 440.061 119.555 440.049 119.555Z" fill="white"/>
<path d="M443.094 119.555H440.789C440.778 119.555 440.769 119.564 440.769 119.576V119.775C440.769 119.786 440.778 119.795 440.789 119.795H443.094C443.106 119.795 443.115 119.786 443.115 119.775V119.576C443.115 119.564 443.106 119.555 443.094 119.555Z" fill="white"/>
<path d="M446.309 119.555H444.004C443.993 119.555 443.984 119.564 443.984 119.576V119.775C443.984 119.786 443.993 119.795 444.004 119.795H446.309C446.321 119.795 446.33 119.786 446.33 119.775V119.576C446.33 119.564 446.321 119.555 446.309 119.555Z" fill="white"/>
<path d="M449.452 119.555H447.147C447.136 119.555 447.127 119.564 447.127 119.576V119.775C447.127 119.786 447.136 119.795 447.147 119.795H449.452C449.464 119.795 449.473 119.786 449.473 119.775V119.576C449.473 119.564 449.464 119.555 449.452 119.555Z" fill="white"/>
<path d="M287.734 117.402H239.77V147.933H287.734V117.402Z" fill="#D5A882"/>
<path d="M276.04 117.402H239.77V147.933H276.04V117.402Z" fill="#BA8B67"/>
<path d="M319.545 110.697H292.982V148.135H319.545V110.697Z" fill="#D5A882"/>
<path d="M313.068 110.697H292.982V148.135H313.068V110.697Z" fill="#BA8B67"/>
<path d="M250.672 172.258H202.709V194.545H250.672V172.258Z" fill="#D5A882"/>
<path d="M238.979 172.258H202.709V194.545H238.979V172.258Z" fill="#BA8B67"/>
<path d="M309.387 167.424H261.424V194.544H309.387V167.424Z" fill="#D5A882"/>
<path d="M297.693 167.424H261.424V194.544H297.693V167.424Z" fill="#BA8B67"/>
<path d="M176.073 95.9297H172.79V286.102H176.073V95.9297Z" fill="#B0B5C0"/>
<path d="M287.734 83.1016H239.77V100.493H287.734V83.1016Z" fill="#D5A882"/>
<path d="M276.04 83.1016H239.77V100.493H276.04V83.1016Z" fill="#BA8B67"/>
<path d="M255.855 158.293H207.891V172.448H255.855V158.293Z" fill="#D5A882"/>
<path d="M244.161 158.293H207.891V172.448H244.161V158.293Z" fill="#BA8B67"/>
<path d="M200.891 277.183L193.43 277.387L193.697 287.133L201.158 286.929L200.891 277.183Z" fill="#F5BE9D"/>
<path d="M217.948 276.714L210.785 276.91L211.17 290.985L218.334 290.789L217.948 276.714Z" fill="#F5BE9D"/>
<path d="M200.181 288.067L193.697 287.129L193.43 277.384L197.161 277.279L200.181 288.067Z" fill="#DAA98C"/>
<path d="M217.416 291.442L211.17 290.986L210.785 276.91L214.367 276.812L217.416 291.442Z" fill="#DAA98C"/>
<path d="M192.138 171.302C192.138 171.302 189.749 171.58 188.576 170.573C187.403 169.565 184.239 168.482 181.064 168.25C177.889 168.018 174.87 169.566 174.714 170.647C174.559 171.727 173.491 177.303 176.852 177.226C180.213 177.149 184.477 177.306 185.481 177.226C186.485 177.147 192.68 176.778 192.68 176.778L192.138 171.302Z" fill="#DAA98C"/>
<path d="M214.177 134.553C216.015 135.666 217.702 137.009 219.199 138.549C220.634 140.341 227.21 147.633 227.449 152.652C227.688 157.672 218.96 180.859 217.286 182.413C215.612 183.966 190.637 179.305 190.637 179.305C189.595 177.192 189.337 174.779 189.907 172.493C190.983 169.146 192.179 167.612 191.82 167.179C191.462 166.745 187.396 163.763 188.114 161.851C188.833 159.938 194.45 151.093 195.169 149.54C194.872 148.568 194.783 147.544 194.906 146.535C195.03 145.527 195.364 144.555 195.886 143.683C197.679 141.054 201.983 136.87 203.896 136.273C205.809 135.676 209.753 133.904 214.177 134.553Z" fill="#444C61"/>
<path d="M190.215 180.994C191.026 183.108 190.989 185.454 190.111 187.541C188.686 191.408 193.405 229.029 193.405 229.029L221.608 222.951C221.608 222.951 221.934 218.295 222.554 214.681C223.173 211.067 222.756 200.405 221.047 194.424C219.339 188.442 216.557 178.35 216.557 178.35L190.215 180.994Z" fill="#DBDBDB"/>
<path d="M173.04 169.299H184.743C184.743 169.299 184.229 176.04 181.706 176.913H176.224C176.224 176.913 173.009 175.846 173.04 169.299Z" fill="white"/>
<path d="M173.04 169.299H178.442C178.442 169.299 176.612 171.549 177.692 173.737C178.339 175.05 178.642 176.59 177.697 176.917H176.224C176.224 176.917 173.009 175.846 173.04 169.299Z" fill="#393939" fill-opacity="0.18"/>
<path d="M170.208 176.186L188.027 176.574C188.027 176.574 184.408 179.726 176.58 178.95C176.58 178.95 172.294 179.047 170.208 176.186Z" fill="white"/>
<path d="M197.106 207.129L204.072 249.58C204.072 249.58 208.259 279.904 207.001 285.312L221.201 284.56C221.201 284.56 222.505 202.947 222.338 201.578C222.171 200.209 197.106 207.129 197.106 207.129Z" fill="#DBDBDB"/>
<path d="M190.889 206.346C191.061 208.117 190.841 281.658 190.841 281.658L203.315 281.847L209.146 207.154L190.889 206.346Z" fill="#DBDBDB"/>
<path d="M194.473 200.022C197.559 207.051 197.93 214.531 195.6 218.789C193.27 223.047 189.989 227.11 194.189 233.839C198.389 240.567 199.217 249.816 195.985 255.201C192.753 260.586 199.997 281.846 199.997 281.846L190.844 281.657L190.891 206.345L189.932 194.66L189.844 190.54C189.788 189.532 189.878 188.521 190.112 187.538C190.423 186.713 190.627 185.852 190.721 184.975C190.677 183.635 190.509 182.301 190.217 180.992L200.183 179.92C200.183 179.92 189.784 189.342 194.473 200.022Z" fill="#C3C3C3"/>
<path d="M198.617 203.861L201.815 239.627C201.815 239.627 208.442 276.85 207.001 285.313L218.167 284.722C218.167 284.722 211.471 273.118 211.452 267.534C211.434 261.949 214.9 259.059 211.05 252.81C207.2 246.562 201.311 238.833 204.421 232.408C207.53 225.982 207.06 220.007 203.633 215.579C200.205 211.152 198.617 203.861 198.617 203.861Z" fill="#C3C3C3"/>
<path d="M208.785 140.87C209.611 141.903 208.483 149.092 202.947 154.594C190.958 166.509 201.34 165.953 202.947 168.517C202.947 168.517 195.024 173.102 199.152 180.625L190.636 179.305C189.594 177.192 189.335 174.778 189.906 172.493C190.982 169.146 192.178 167.612 191.819 167.178C191.461 166.745 188.234 165.806 188.113 161.85C188.028 159.098 194.449 151.093 195.168 149.539C194.871 148.567 194.782 147.544 194.905 146.535C195.029 145.526 195.363 144.555 195.885 143.683C197.678 141.054 201.982 136.87 203.895 136.273C205.808 135.675 207.348 139.077 208.785 140.87Z" fill="#30384D"/>
<path d="M200.363 133.612C200.363 133.612 203.634 138.822 203.149 141.723C202.664 144.624 215.259 137.123 215.259 137.123C215.259 137.123 212.474 130.706 212.353 129.375C212.353 129.375 215.865 122.959 214.654 118.964C213.442 114.97 201.333 105.285 195.883 109.4C195.883 109.4 193.582 110.896 193.461 115.595L193.339 120.296C193.339 120.296 191.402 122.846 190.797 123.932C190.191 125.018 191.402 125.839 193.097 126.276C193.097 126.276 192.492 132.528 193.827 133.37C195.163 134.212 200.363 133.612 200.363 133.612Z" fill="#F5BE9D"/>
<path d="M193.891 112.131C193.891 112.131 197.257 109.329 199.252 111.862C201.247 114.395 199.521 115.688 200.492 116.927C201.462 118.166 203.086 117.574 202.948 118.813C202.809 120.052 205.182 121.835 206.476 121.023C206.476 121.023 208.039 118.706 209.499 120.107C210.958 121.507 210.2 124.649 209.121 125.396L209.089 125.418C208.976 125.494 208.889 125.603 208.84 125.731C208.792 125.858 208.784 125.998 208.819 126.13C208.853 126.262 208.928 126.38 209.032 126.468C209.137 126.555 209.266 126.608 209.402 126.62C210.417 126.679 211.375 126.923 211.63 127.591C212.223 129.154 212.457 129.904 212.502 130.055C212.547 130.206 212.999 128.244 214.239 127.544C215.563 126.805 216.605 125.649 217.204 124.256C217.474 123.179 219.522 119.463 219.253 117.789C218.984 116.116 220.331 116.066 220.385 114.502C220.44 112.939 218.983 110.946 219.199 109.652C219.415 108.357 214.239 99.2517 209.765 103.94C208.549 104.114 207.325 104.222 206.098 104.263C204.583 104.117 203.06 104.437 201.731 105.179C200.384 106.095 193.429 107.335 193.913 110.892L193.889 112.131" fill="#8A90A7"/>
<path d="M193.891 112.132C193.891 112.132 197.257 109.329 199.252 111.863C201.247 114.396 199.521 115.689 200.492 116.928C201.462 118.167 203.086 117.575 202.948 118.814C202.809 120.053 209.042 118.887 207.348 116.337C204.14 111.508 207.876 114.159 208.511 109.043C209.027 104.889 213.784 111.765 216.984 108.939C217.967 108.07 214.239 99.2537 209.765 103.942C208.549 104.116 207.325 104.224 206.098 104.265C204.583 104.119 203.06 104.439 201.731 105.181C200.384 106.097 193.429 107.337 193.913 110.894L193.889 112.133" fill="#7B8093"/>
<path d="M209.146 140.451C209.146 140.451 209.37 139.104 207.139 136.863C205.194 134.911 206.629 131.387 206.629 131.387C204.822 132.699 200.362 133.612 200.362 133.612C200.362 133.612 203.565 138.848 203.183 141.427C203.183 141.427 202.162 143.082 205.758 141.941L209.146 140.454" fill="#DAA98C"/>
<path d="M225.624 161.073L223.242 153.562L224.121 165.734L225.624 161.073Z" fill="#30384D"/>
<path d="M201.12 284.561C201.12 284.561 203.6 287.767 203.275 290.211C202.95 292.654 202.802 294.153 202.802 294.153L198.229 294.973L197.508 293.332C197.508 293.332 196.541 295.194 191.714 296.303C186.887 297.411 179.886 297.85 180.572 295.696C181.258 293.542 185.055 292.141 188.009 290.075C192.909 286.649 192.917 287.003 192.917 287.003C192.917 287.003 201.328 284.846 201.12 284.561Z" fill="#30384D"/>
<path d="M219.015 287.322C219.015 287.322 221.496 290.529 221.171 292.972C220.847 295.416 220.697 296.914 220.697 296.914L216.126 297.735L215.403 296.093C215.403 296.093 214.436 297.956 209.609 299.064C204.783 300.173 197.781 300.612 198.467 298.457C199.153 296.302 202.95 294.901 205.905 292.837C210.805 289.411 210.813 289.765 210.813 289.765C210.813 289.765 219.223 287.609 219.015 287.322Z" fill="#30384D"/>
<path d="M182.587 179.304H175.225L174.432 177.342H183.87L182.587 179.304Z" fill="white"/>
<path d="M170.208 176.186L177.811 176.351C177.811 176.351 176.539 177.32 176.972 178.116C177.309 178.735 178.529 179.337 175.225 179.303L175.034 178.818C174.093 178.73 173.18 178.451 172.35 177.999C171.52 177.546 170.791 176.929 170.208 176.186Z" fill="#393939" fill-opacity="0.18"/>
<path d="M197.927 178.346L192.761 177.99C192.761 177.99 190.173 175.863 185.212 177.99C183.357 178.231 181.478 178.231 179.622 177.99C179.622 177.99 175.988 177.634 178.364 179.609L181.578 180.606H175.709C175.709 180.606 172.984 177.392 170.329 177.183C170.329 177.183 169.56 177.043 169.21 177.391C168.86 177.739 172.146 180.256 172.495 180.605C172.936 181.3 173.538 181.879 174.251 182.293C174.963 182.706 175.765 182.942 176.588 182.98C179.272 183.049 182.836 183.119 183.676 182.98C184.517 182.84 188.777 181.861 189.477 182.211C189.753 182.349 193.11 183.211 197.11 184.205" fill="#F5BE9D"/>
<path d="M189.495 182.257C190.193 182.606 210.528 187.565 211.296 187.635C212.064 187.704 221.009 189.101 222.756 189.31C224.503 189.52 226.948 187.774 226.668 185.958C226.389 184.142 224.851 164.026 224.781 163.188C224.712 162.35 224.573 154.386 222.756 152.152C220.939 149.918 216.892 147.294 212.556 149.933C212.556 149.933 205.504 153.665 212.556 169.562C212.556 169.562 216.29 177.856 216.29 179.652L192.885 177.777L189.495 182.257Z" fill="#444C61"/>
<path d="M190.731 180.627C191.429 180.976 195.885 183.763 204.941 181.68C209.52 180.627 212.544 182.755 214.254 183.168C218.553 184.21 221.969 181.807 217.695 175.353C213.499 169.002 219.655 165.16 214.762 159.11C213.554 157.714 212.883 155.933 212.867 154.087C212.851 152.242 213.492 150.45 214.676 149.033C214.676 149.033 204.406 152.477 212.553 169.562C212.553 169.562 216.287 177.856 216.287 179.652L192.882 177.777L190.731 180.627Z" fill="#30384D"/>
<path d="M375.731 214.183C375.731 214.183 375.598 187.506 375.594 187.024L397.514 186.84L397.471 191.586C398.049 191.43 398.645 191.351 399.244 191.352C399.82 191.334 400.393 191.436 400.928 191.651C401.463 191.866 401.947 192.19 402.35 192.602C403.49 193.799 404.012 195.821 403.9 198.615C403.907 201.403 403.189 204.144 401.815 206.57C400.83 208.154 399.539 209.133 398.456 209.123C398.237 209.127 398.02 209.08 397.823 208.984C397.625 208.889 397.453 208.749 397.319 208.575L397.27 214.13L375.731 214.183ZM398.655 207.544C399.407 207.55 400.21 206.867 400.852 205.673C401.722 203.876 402.193 201.912 402.231 199.916C402.44 196.453 401.665 194.851 400.98 194.12C400.777 193.888 400.528 193.701 400.249 193.571C399.969 193.441 399.666 193.369 399.358 193.362C398.982 193.363 398.611 193.456 398.278 193.633C397.946 193.81 397.663 194.067 397.453 194.379L397.348 206.382C397.614 207.116 398.071 207.538 398.659 207.544H398.655Z" fill="#B0B5C0"/>
<path d="M545.915 207.893L559.967 161.33L588.923 170.062L545.915 207.889V207.893ZM575.772 172.822L564.532 169.433L558.936 187.975L575.772 172.822Z" fill="#E2E5EC"/>
<path d="M548.497 199.335L548.65 198.832L550.412 199.363C550.445 199.373 550.476 199.39 550.503 199.412C550.53 199.433 550.552 199.46 550.568 199.491C550.584 199.521 550.594 199.554 550.598 199.589C550.601 199.623 550.598 199.658 550.587 199.691C550.578 199.724 550.561 199.755 550.539 199.781C550.518 199.808 550.491 199.83 550.46 199.847C550.43 199.863 550.397 199.873 550.362 199.877C550.328 199.88 550.293 199.877 550.26 199.867L548.497 199.335Z" fill="white"/>
<path fill-rule="evenodd" clip-rule="evenodd" d="M548.8 199.242C548.8 199.243 548.8 199.244 548.8 199.245L548.716 199.218L548.674 199.205L548.8 199.242ZM548.549 199.167L548.6 198.994C548.615 198.951 548.646 198.916 548.685 198.896C548.725 198.875 548.771 198.869 548.814 198.881L548.818 198.882L550.411 199.364C550.444 199.373 550.475 199.389 550.502 199.411C550.529 199.433 550.551 199.46 550.568 199.49C550.584 199.521 550.594 199.554 550.598 199.588C550.601 199.623 550.598 199.657 550.588 199.691C550.578 199.724 550.562 199.755 550.54 199.782C550.518 199.809 550.49 199.831 550.46 199.847C550.429 199.863 550.396 199.873 550.361 199.877C550.327 199.88 550.292 199.876 550.259 199.866L548.666 199.386C548.666 199.386 548.666 199.386 548.666 199.386" fill="#8A90A7"/>
<path d="M549.029 197.576L549.181 197.072L550.944 197.604C550.977 197.614 551.008 197.63 551.035 197.652C551.061 197.674 551.083 197.701 551.1 197.731C551.116 197.762 551.126 197.795 551.129 197.83C551.133 197.864 551.129 197.899 551.119 197.932C551.109 197.965 551.093 197.996 551.071 198.022C551.049 198.049 551.022 198.071 550.992 198.088C550.961 198.104 550.928 198.114 550.894 198.117C550.859 198.121 550.825 198.117 550.792 198.107L549.029 197.576Z" fill="white"/>
<path fill-rule="evenodd" clip-rule="evenodd" d="M549.206 197.444L549.08 197.406L549.13 197.238C549.137 197.216 549.148 197.195 549.163 197.177C549.177 197.159 549.196 197.145 549.216 197.134C549.237 197.123 549.26 197.116 549.283 197.114C549.305 197.112 549.328 197.114 549.35 197.121L550.943 197.601M549.587 197.467L550.867 197.853L550.868 197.853L549.587 197.467Z" fill="#8A90A7"/>
<path d="M549.561 195.812L549.713 195.309L552.736 196.219C552.769 196.229 552.8 196.246 552.827 196.267C552.853 196.289 552.876 196.316 552.892 196.346C552.908 196.377 552.919 196.41 552.922 196.445C552.925 196.479 552.922 196.514 552.912 196.547C552.902 196.58 552.886 196.61 552.864 196.637C552.842 196.664 552.815 196.686 552.785 196.702C552.755 196.719 552.721 196.729 552.687 196.732C552.653 196.736 552.618 196.733 552.585 196.723L549.562 195.812H549.561Z" fill="white"/>
<path fill-rule="evenodd" clip-rule="evenodd" d="M549.864 195.719L549.738 195.682L549.779 195.695L549.863 195.722C549.863 195.721 549.863 195.72 549.864 195.719ZM549.612 195.643L549.663 195.473C549.677 195.43 549.708 195.393 549.748 195.372C549.789 195.35 549.836 195.346 549.88 195.359L552.734 196.219C552.733 196.219 552.734 196.22 552.734 196.219C552.767 196.229 552.798 196.246 552.825 196.267C552.852 196.289 552.874 196.316 552.89 196.347C552.907 196.378 552.917 196.411 552.92 196.446C552.923 196.48 552.92 196.514 552.91 196.547C552.9 196.58 552.884 196.611 552.862 196.637C552.84 196.664 552.813 196.686 552.782 196.703C552.752 196.719 552.718 196.729 552.684 196.733C552.65 196.736 552.615 196.732 552.582 196.722L549.73 195.862C549.708 195.855 549.688 195.845 549.67 195.831C549.652 195.816 549.636 195.798 549.625 195.777C549.614 195.756 549.607 195.734 549.605 195.711C549.603 195.688 549.605 195.665 549.612 195.643Z" fill="#8A90A7"/>
<path d="M550.092 194.05L550.244 193.547L552.007 194.078C552.04 194.088 552.071 194.105 552.098 194.126C552.125 194.148 552.147 194.175 552.163 194.206C552.179 194.236 552.189 194.269 552.193 194.304C552.196 194.338 552.193 194.373 552.182 194.406C552.173 194.439 552.156 194.469 552.134 194.496C552.113 194.523 552.086 194.545 552.055 194.561C552.025 194.578 551.992 194.588 551.957 194.591C551.923 194.595 551.888 194.592 551.855 194.582L550.092 194.05Z" fill="white"/>
<path fill-rule="evenodd" clip-rule="evenodd" d="M550.395 193.957C550.395 193.958 550.395 193.959 550.395 193.96L550.311 193.933L550.27 193.92L550.395 193.957ZM550.144 193.881L550.195 193.709C550.21 193.666 550.241 193.631 550.28 193.61C550.32 193.589 550.366 193.584 550.409 193.596L550.413 193.597L552.006 194.078C552.04 194.088 552.07 194.104 552.097 194.126C552.124 194.148 552.146 194.175 552.163 194.205C552.179 194.236 552.189 194.269 552.193 194.303C552.196 194.338 552.193 194.372 552.183 194.405C552.163 194.472 552.117 194.528 552.056 194.561C551.994 194.594 551.922 194.601 551.856 194.581C551.856 194.581 551.856 194.581 551.856 194.581L550.261 194.101C550.261 194.101 550.261 194.101 550.261 194.101" fill="#8A90A7"/>
<path d="M550.624 192.288L550.776 191.785L552.539 192.317C552.572 192.327 552.603 192.343 552.63 192.365C552.656 192.387 552.678 192.414 552.695 192.444C552.711 192.475 552.721 192.508 552.724 192.543C552.728 192.577 552.724 192.612 552.714 192.645C552.704 192.678 552.688 192.709 552.666 192.735C552.644 192.762 552.617 192.784 552.587 192.8C552.557 192.817 552.523 192.827 552.489 192.83C552.454 192.834 552.42 192.83 552.387 192.82L550.624 192.288Z" fill="white"/>
<path fill-rule="evenodd" clip-rule="evenodd" d="M550.801 192.158L550.675 192.121L550.725 191.953C550.732 191.931 550.743 191.91 550.758 191.892C550.773 191.874 550.791 191.859 550.811 191.848C550.832 191.838 550.854 191.831 550.878 191.829C550.9 191.827 550.923 191.829 550.945 191.836L552.538 192.316" fill="#8A90A7"/>
<path d="M551.158 190.527L551.31 190.023L554.333 190.934C554.366 190.944 554.397 190.96 554.424 190.982C554.451 191.004 554.473 191.031 554.489 191.061C554.505 191.092 554.516 191.125 554.519 191.159C554.523 191.194 554.519 191.228 554.509 191.261C554.499 191.294 554.483 191.325 554.461 191.352C554.439 191.379 554.413 191.401 554.382 191.417C554.352 191.434 554.318 191.444 554.284 191.447C554.25 191.451 554.215 191.447 554.182 191.438L551.159 190.527H551.158Z" fill="white"/>
<path fill-rule="evenodd" clip-rule="evenodd" d="M551.459 190.434L551.333 190.396L551.458 190.437C551.458 190.436 551.458 190.435 551.459 190.434ZM551.207 190.358L551.258 190.188C551.272 190.145 551.303 190.108 551.343 190.087C551.384 190.065 551.431 190.061 551.475 190.074L554.329 190.934C554.328 190.934 554.329 190.934 554.329 190.934C554.362 190.944 554.393 190.961 554.42 190.982C554.447 191.004 554.469 191.031 554.485 191.062C554.502 191.092 554.512 191.126 554.515 191.16C554.518 191.195 554.515 191.229 554.505 191.262C554.484 191.329 554.439 191.384 554.377 191.417C554.316 191.45 554.244 191.457 554.177 191.437C554.177 191.437 554.177 191.437 554.177 191.437L551.325 190.577C551.303 190.57 551.283 190.56 551.265 190.545C551.246 190.53 551.231 190.512 551.22 190.492C551.209 190.472 551.202 190.449 551.2 190.425C551.198 190.403 551.2 190.38 551.207 190.358Z" fill="#8A90A7"/>
<path d="M551.687 188.763L551.839 188.26L553.602 188.791C553.669 188.811 553.725 188.857 553.758 188.919C553.791 188.98 553.798 189.052 553.778 189.118C553.758 189.185 553.712 189.241 553.651 189.274C553.589 189.307 553.517 189.315 553.45 189.295L551.687 188.763Z" fill="white"/>
<path d="M551.957 188.301C551.975 188.301 551.993 188.304 552.009 188.309L553.601 188.79C553.661 188.808 553.713 188.847 553.747 188.9C553.78 188.954 553.794 189.017 553.784 189.079C553.775 189.141 553.744 189.198 553.696 189.239C553.649 189.28 553.588 189.303 553.525 189.303C553.499 189.303 553.474 189.299 553.449 189.292L551.854 188.811C551.832 188.805 551.811 188.794 551.793 188.779C551.775 188.764 551.761 188.746 551.75 188.725C551.739 188.705 551.732 188.682 551.73 188.659C551.728 188.636 551.73 188.613 551.737 188.59L551.786 188.425C551.798 188.388 551.82 188.357 551.851 188.334C551.882 188.312 551.919 188.3 551.957 188.301ZM553.527 189.041L552.016 188.585L553.527 189.041Z" fill="#8A90A7"/>
<path d="M552.219 187.001L552.371 186.498L554.134 187.029C554.201 187.05 554.257 187.096 554.29 187.157C554.323 187.219 554.33 187.291 554.31 187.358C554.29 187.424 554.244 187.48 554.182 187.513C554.121 187.546 554.049 187.553 553.982 187.533L552.219 187.001Z" fill="white"/>
<path d="M552.489 186.541C552.505 186.541 552.521 186.543 552.536 186.547L554.133 187.03C554.194 187.047 554.246 187.086 554.28 187.14C554.315 187.193 554.329 187.257 554.32 187.319C554.311 187.382 554.279 187.439 554.231 187.481C554.184 187.522 554.122 187.545 554.059 187.545C554.032 187.544 554.006 187.54 553.981 187.532L552.388 187.053C552.343 187.039 552.306 187.009 552.284 186.968C552.272 186.948 552.265 186.925 552.263 186.902C552.261 186.879 552.263 186.855 552.27 186.833L552.319 186.667C552.33 186.631 552.352 186.599 552.383 186.576C552.414 186.553 552.451 186.541 552.489 186.541ZM554.053 187.281L552.542 186.825L554.053 187.281Z" fill="#8A90A7"/>
<path d="M552.751 185.24L552.903 184.736L555.926 185.648C555.993 185.668 556.048 185.714 556.081 185.776C556.114 185.837 556.121 185.909 556.101 185.975C556.091 186.008 556.075 186.039 556.053 186.066C556.031 186.093 556.004 186.115 555.974 186.131C555.944 186.148 555.91 186.158 555.876 186.161C555.842 186.165 555.807 186.161 555.774 186.151L552.751 185.24Z" fill="white"/>
<path d="M553.021 184.779C553.038 184.779 553.056 184.782 553.073 184.788L555.924 185.647C555.957 185.657 555.988 185.674 556.015 185.696C556.042 185.718 556.064 185.745 556.08 185.775C556.097 185.806 556.107 185.84 556.11 185.874C556.113 185.909 556.109 185.944 556.099 185.977C556.079 186.043 556.033 186.098 555.972 186.131C555.911 186.163 555.839 186.171 555.773 186.151L552.919 185.29C552.897 185.284 552.877 185.273 552.859 185.259C552.841 185.244 552.826 185.227 552.815 185.207C552.804 185.186 552.797 185.163 552.795 185.14C552.792 185.116 552.795 185.093 552.802 185.07L552.851 184.904C552.862 184.868 552.884 184.836 552.915 184.814C552.945 184.791 552.983 184.779 553.021 184.779Z" fill="#8A90A7"/>
<path d="M553.282 183.478L553.434 182.975L555.197 183.506C555.264 183.526 555.32 183.572 555.353 183.633C555.386 183.695 555.393 183.767 555.374 183.833C555.353 183.9 555.307 183.956 555.246 183.989C555.184 184.022 555.112 184.029 555.045 184.009L553.282 183.478Z" fill="white"/>
<path d="M553.555 183.018C553.573 183.018 553.591 183.021 553.607 183.026L555.199 183.506C555.26 183.525 555.311 183.564 555.345 183.617C555.378 183.67 555.392 183.734 555.382 183.796C555.373 183.858 555.342 183.915 555.294 183.956C555.247 183.997 555.186 184.02 555.123 184.02C555.098 184.02 555.072 184.016 555.047 184.009L553.452 183.528C553.43 183.521 553.409 183.51 553.391 183.496C553.374 183.481 553.359 183.463 553.348 183.442C553.337 183.422 553.33 183.399 553.328 183.376C553.326 183.353 553.328 183.329 553.335 183.307L553.384 183.142C553.396 183.105 553.418 183.074 553.449 183.051C553.48 183.029 553.517 183.017 553.555 183.018ZM555.125 183.757L553.614 183.302L555.125 183.757Z" fill="#8A90A7"/>
<path d="M553.815 181.716L553.966 181.213L555.729 181.744C555.796 181.765 555.852 181.81 555.885 181.872C555.918 181.933 555.925 182.005 555.905 182.072C555.885 182.138 555.839 182.194 555.777 182.228C555.716 182.261 555.644 182.268 555.577 182.248L553.815 181.716Z" fill="white"/>
<path d="M554.085 181.256C554.101 181.256 554.117 181.258 554.132 181.262L555.73 181.745C555.764 181.754 555.796 181.769 555.824 181.791C555.852 181.812 555.876 181.84 555.893 181.87C555.91 181.901 555.921 181.935 555.925 181.97C555.929 182.005 555.925 182.041 555.915 182.075C555.905 182.109 555.888 182.14 555.865 182.167C555.842 182.194 555.814 182.216 555.783 182.233C555.752 182.249 555.717 182.258 555.682 182.261C555.647 182.263 555.611 182.258 555.578 182.247L553.983 181.766C553.938 181.753 553.901 181.722 553.879 181.68C553.857 181.639 553.853 181.591 553.866 181.547L553.916 181.38C553.927 181.344 553.95 181.312 553.98 181.29C554.011 181.268 554.047 181.256 554.085 181.256ZM555.649 181.996L554.137 181.54L555.649 181.996Z" fill="#8A90A7"/>
<path d="M554.347 179.954L554.498 179.451L557.521 180.363C557.554 180.373 557.585 180.389 557.612 180.411C557.638 180.433 557.66 180.46 557.677 180.49C557.693 180.521 557.703 180.554 557.706 180.588C557.71 180.623 557.706 180.657 557.696 180.69C557.676 180.757 557.63 180.813 557.569 180.846C557.507 180.879 557.436 180.886 557.369 180.866L554.346 179.954H554.347Z" fill="white"/>
<path d="M554.615 179.494C554.633 179.494 554.651 179.497 554.668 179.502L557.519 180.361C557.582 180.384 557.635 180.43 557.665 180.49C557.696 180.551 557.702 180.62 557.682 180.685C557.663 180.749 557.619 180.804 557.561 180.838C557.502 180.871 557.433 180.881 557.368 180.866L554.514 180.005C554.47 179.991 554.432 179.96 554.411 179.919C554.389 179.878 554.384 179.83 554.398 179.785L554.447 179.619C554.457 179.583 554.479 179.551 554.51 179.529C554.54 179.506 554.577 179.494 554.615 179.494Z" fill="#8A90A7"/>
<path d="M554.878 178.193L555.029 177.689L556.792 178.221C556.859 178.241 556.915 178.287 556.948 178.348C556.981 178.41 556.988 178.481 556.968 178.548C556.948 178.615 556.902 178.671 556.841 178.704C556.779 178.737 556.707 178.744 556.64 178.724L554.878 178.193Z" fill="white"/>
<path d="M555.147 177.732C555.165 177.732 555.183 177.735 555.2 177.741L556.793 178.22C556.853 178.239 556.904 178.279 556.937 178.332C556.97 178.385 556.983 178.448 556.974 178.51C556.965 178.572 556.934 178.628 556.887 178.67C556.84 178.711 556.78 178.734 556.717 178.735C556.691 178.735 556.666 178.731 556.641 178.723L555.046 178.243C555.024 178.236 555.003 178.225 554.985 178.21C554.967 178.196 554.953 178.177 554.942 178.157C554.931 178.136 554.924 178.114 554.922 178.091C554.92 178.068 554.922 178.044 554.929 178.022L554.98 177.855C554.991 177.82 555.013 177.788 555.043 177.766C555.073 177.744 555.11 177.732 555.147 177.732ZM556.717 178.472L555.207 178.017L556.717 178.472Z" fill="#8A90A7"/>
<path d="M555.41 176.431L555.561 175.928L557.324 176.459C557.391 176.479 557.447 176.525 557.48 176.586C557.513 176.648 557.52 176.72 557.5 176.786C557.48 176.853 557.434 176.909 557.372 176.942C557.311 176.975 557.239 176.983 557.172 176.963L555.41 176.431Z" fill="white"/>
<path d="M555.679 175.971C555.695 175.971 555.711 175.973 555.726 175.977L557.324 176.459C557.358 176.468 557.39 176.484 557.418 176.506C557.446 176.527 557.469 176.554 557.487 176.585C557.504 176.616 557.515 176.65 557.519 176.685C557.523 176.72 557.519 176.756 557.509 176.79C557.499 176.823 557.482 176.855 557.459 176.882C557.436 176.909 557.409 176.931 557.377 176.947C557.346 176.963 557.311 176.973 557.276 176.975C557.241 176.978 557.205 176.973 557.172 176.962L555.577 176.481C555.532 176.467 555.495 176.436 555.473 176.395C555.451 176.354 555.447 176.306 555.46 176.261L555.511 176.094C555.522 176.058 555.544 176.027 555.575 176.004C555.605 175.982 555.641 175.97 555.679 175.971ZM557.243 176.711L555.732 176.255L557.243 176.711Z" fill="#8A90A7"/>
<path d="M555.942 174.669L556.093 174.166L559.116 175.078C559.149 175.088 559.18 175.104 559.207 175.126C559.233 175.148 559.255 175.175 559.272 175.205C559.288 175.235 559.298 175.269 559.301 175.303C559.305 175.337 559.301 175.372 559.291 175.405C559.271 175.472 559.225 175.528 559.164 175.561C559.102 175.594 559.031 175.601 558.964 175.581L555.941 174.669H555.942Z" fill="white"/>
<path d="M556.21 174.209C556.228 174.209 556.246 174.212 556.263 174.217L559.114 175.076C559.181 175.096 559.237 175.142 559.27 175.204C559.303 175.265 559.31 175.337 559.29 175.404C559.27 175.471 559.224 175.527 559.162 175.56C559.101 175.593 559.029 175.6 558.962 175.58L556.108 174.72C556.086 174.713 556.065 174.701 556.048 174.686C556.03 174.671 556.015 174.653 556.004 174.632C555.994 174.612 555.987 174.59 555.985 174.567C555.983 174.544 555.986 174.521 555.993 174.5L556.043 174.335C556.053 174.299 556.075 174.267 556.105 174.244C556.135 174.221 556.172 174.209 556.21 174.209Z" fill="#8A90A7"/>
<path d="M556.474 172.908L556.626 172.404L558.388 172.936C558.455 172.956 558.511 173.002 558.544 173.063C558.577 173.124 558.584 173.196 558.565 173.263C558.544 173.33 558.498 173.386 558.437 173.419C558.375 173.452 558.303 173.459 558.236 173.439L556.474 172.908Z" fill="white"/>
<path d="M556.742 172.447C556.76 172.447 556.778 172.45 556.795 172.456L558.388 172.935C558.448 172.954 558.499 172.994 558.532 173.047C558.565 173.1 558.578 173.163 558.569 173.225C558.56 173.287 558.529 173.343 558.482 173.384C558.435 173.426 558.375 173.449 558.312 173.45C558.286 173.45 558.261 173.446 558.236 173.438L556.641 172.957C556.619 172.951 556.599 172.94 556.581 172.926C556.563 172.911 556.548 172.894 556.537 172.873C556.526 172.853 556.519 172.83 556.516 172.807C556.514 172.783 556.516 172.759 556.523 172.737L556.574 172.571C556.585 172.535 556.607 172.504 556.638 172.481C556.668 172.459 556.705 172.447 556.742 172.447Z" fill="#8A90A7"/>
<path d="M557.005 171.146L557.156 170.643L558.919 171.174C558.986 171.194 559.042 171.24 559.075 171.301C559.108 171.363 559.115 171.435 559.095 171.501C559.075 171.568 559.029 171.624 558.967 171.657C558.906 171.69 558.834 171.697 558.767 171.677L557.005 171.146Z" fill="white"/>
<path d="M557.275 170.691C557.291 170.691 557.307 170.693 557.322 170.698L558.92 171.18C558.954 171.189 558.986 171.205 559.014 171.226C559.042 171.248 559.066 171.275 559.083 171.306C559.1 171.337 559.111 171.371 559.115 171.406C559.119 171.441 559.115 171.477 559.105 171.51C559.095 171.544 559.078 171.576 559.055 171.603C559.032 171.63 559.005 171.652 558.973 171.668C558.942 171.684 558.907 171.694 558.872 171.696C558.837 171.699 558.801 171.694 558.768 171.682L557.173 171.202C557.128 171.188 557.091 171.157 557.069 171.116C557.047 171.075 557.043 171.027 557.056 170.982L557.107 170.814C557.118 170.779 557.14 170.747 557.171 170.725C557.201 170.703 557.237 170.691 557.275 170.691ZM558.839 171.431L557.328 170.976L558.839 171.431Z" fill="#8A90A7"/>
<path d="M557.537 169.384L557.688 168.881L560.711 169.792C560.744 169.802 560.775 169.818 560.802 169.84C560.828 169.862 560.85 169.889 560.867 169.919C560.883 169.95 560.893 169.983 560.896 170.018C560.9 170.052 560.896 170.087 560.886 170.12C560.866 170.186 560.82 170.242 560.759 170.275C560.697 170.308 560.626 170.316 560.559 170.296L557.536 169.384H557.537Z" fill="white"/>
<path d="M557.805 168.92C557.823 168.92 557.841 168.923 557.858 168.928L560.709 169.787C560.776 169.807 560.831 169.853 560.864 169.914C560.897 169.976 560.905 170.047 560.885 170.114C560.865 170.181 560.819 170.237 560.757 170.27C560.696 170.303 560.624 170.31 560.557 170.29L557.703 169.429C557.659 169.416 557.621 169.385 557.6 169.344C557.578 169.302 557.573 169.254 557.587 169.21L557.638 169.043C557.649 169.007 557.671 168.976 557.701 168.954C557.731 168.932 557.767 168.92 557.805 168.92Z" fill="#8A90A7"/>
<path d="M558.068 167.622L558.219 167.119L559.982 167.651C560.049 167.671 560.105 167.717 560.138 167.778C560.171 167.84 560.178 167.912 560.158 167.979C560.138 168.046 560.092 168.102 560.031 168.135C559.969 168.168 559.897 168.175 559.83 168.155L558.068 167.622Z" fill="white"/>
<path d="M558.337 167.162C558.355 167.162 558.373 167.165 558.39 167.17L559.983 167.65C560.043 167.669 560.094 167.708 560.127 167.761C560.16 167.815 560.173 167.878 560.164 167.94C560.155 168.001 560.124 168.058 560.077 168.099C560.03 168.14 559.97 168.164 559.907 168.165C559.881 168.165 559.856 168.161 559.831 168.153L558.236 167.672C558.214 167.665 558.194 167.655 558.176 167.64C558.158 167.626 558.143 167.608 558.132 167.588C558.121 167.568 558.114 167.545 558.111 167.521C558.109 167.498 558.111 167.474 558.118 167.452L558.169 167.285C558.18 167.249 558.203 167.218 558.233 167.196C558.263 167.173 558.3 167.162 558.337 167.162Z" fill="#8A90A7"/>
<path d="M558.6 165.861L558.751 165.357L560.514 165.889C560.581 165.909 560.637 165.955 560.67 166.016C560.703 166.077 560.71 166.149 560.69 166.216C560.68 166.249 560.664 166.28 560.642 166.307C560.62 166.334 560.593 166.356 560.563 166.372C560.532 166.389 560.499 166.399 560.464 166.402C560.43 166.406 560.395 166.402 560.362 166.392L558.6 165.861Z" fill="white"/>
<path d="M558.872 165.4C558.89 165.4 558.908 165.403 558.925 165.409L560.518 165.889C560.551 165.899 560.582 165.915 560.609 165.937C560.635 165.959 560.658 165.986 560.674 166.017C560.69 166.047 560.7 166.08 560.704 166.115C560.707 166.149 560.704 166.184 560.694 166.217C560.684 166.25 560.667 166.281 560.646 166.307C560.624 166.334 560.597 166.356 560.566 166.373C560.536 166.389 560.502 166.399 560.468 166.402C560.434 166.406 560.399 166.402 560.366 166.392L558.771 165.912C558.726 165.898 558.689 165.866 558.667 165.825C558.656 165.804 558.65 165.782 558.648 165.759C558.646 165.736 558.648 165.713 558.655 165.691L558.706 165.525C558.717 165.489 558.738 165.458 558.768 165.435C558.798 165.413 558.835 165.401 558.872 165.4ZM560.442 166.14L558.927 165.689L560.442 166.14Z" fill="#8A90A7"/>
<path d="M559.132 164.099L559.283 163.596L562.306 164.506C562.339 164.516 562.37 164.533 562.397 164.555C562.423 164.577 562.445 164.604 562.462 164.634C562.478 164.665 562.488 164.698 562.491 164.733C562.495 164.767 562.491 164.802 562.481 164.835C562.471 164.868 562.455 164.899 562.433 164.925C562.411 164.952 562.384 164.974 562.354 164.99C562.323 165.007 562.29 165.017 562.256 165.02C562.221 165.023 562.187 165.02 562.154 165.01L559.131 164.099H559.132Z" fill="white"/>
<path d="M559.401 163.639C559.416 163.639 559.432 163.641 559.447 163.645L562.304 164.507C562.371 164.527 562.426 164.573 562.459 164.634C562.492 164.695 562.5 164.767 562.48 164.834C562.46 164.901 562.414 164.957 562.352 164.99C562.291 165.023 562.219 165.03 562.152 165.01L559.298 164.149C559.254 164.135 559.217 164.104 559.195 164.063C559.173 164.022 559.168 163.974 559.182 163.929L559.233 163.762C559.244 163.726 559.266 163.694 559.296 163.672C559.327 163.65 559.363 163.638 559.401 163.639ZM562.228 164.759L559.459 163.925L562.228 164.759Z" fill="#8A90A7"/>
<path d="M563.204 172.377L545.563 202.139L548.73 204.015L566.372 174.254L563.204 172.377Z" fill="#8A90A7"/>
<path d="M564.788 173.317L547.146 203.078L548.73 204.016L566.372 174.255L564.788 173.317Z" fill="#7B8093"/>
<path d="M543.956 208.46L545.563 202.139L548.731 204.014L543.956 208.46Z" fill="#F6F6F6"/>
<path d="M543.965 208.462L544.809 205.113L546.498 206.114L543.965 208.462Z" fill="#30384D"/>
<path d="M563.205 172.377L564.206 170.687C564.289 170.549 564.423 170.448 564.579 170.408C564.735 170.368 564.901 170.391 565.04 170.473L567.157 171.723C567.295 171.805 567.396 171.939 567.436 172.096C567.476 172.252 567.453 172.418 567.371 172.557L566.369 174.248L563.201 172.372L563.205 172.377Z" fill="#4573D2"/>
<path d="M543.952 175.465L540.385 176.377L548.963 209.891L552.53 208.979L543.952 175.465Z" fill="#E2E5EC"/>
<path d="M542.168 175.921L540.385 176.377L548.963 209.891L550.747 209.435L542.168 175.921Z" fill="#CED3DF"/>
<path d="M540.617 169.857L543.953 175.463L540.387 176.375L540.617 169.857Z" fill="#F6F6F6"/>
<path d="M540.612 169.857L542.384 172.823L540.483 173.31L540.612 169.857Z" fill="#30384D"/>
<path d="M552.531 208.979L553.017 210.883C553.037 210.961 553.042 211.042 553.03 211.121C553.019 211.2 552.992 211.277 552.951 211.346C552.91 211.414 552.856 211.475 552.792 211.523C552.728 211.571 552.655 211.606 552.578 211.625L550.193 212.235C550.116 212.255 550.035 212.259 549.956 212.248C549.876 212.237 549.8 212.21 549.731 212.169C549.662 212.128 549.602 212.074 549.554 212.01C549.506 211.946 549.471 211.873 549.451 211.795L548.963 209.891L552.531 208.979Z" fill="#4573D2"/>
<path d="M570.55 189.326H540.796V214.198H570.55V189.326Z" fill="#E89C2E"/>
<path d="M564.704 189.326H570.548V214.198H564.703L564.704 189.326Z" fill="#C98A30"/>
<path d="M91.8612 47.6445H43.8977V101.087H91.8612V47.6445Z" fill="#D5A882"/>
<path d="M80.1677 47.6445H43.8977V101.087H80.1677V47.6445Z" fill="#BA8B67"/>
<path d="M63.4787 122.689H35.7007V147.878H63.4787V122.689Z" fill="#D5A882"/>
<path d="M56.7057 122.689H35.7007V147.878H56.7057V122.689Z" fill="#BA8B67"/>
<path d="M595.618 214.133H337.91V221.754H595.618V214.133Z" fill="#8A90A7"/>
<path d="M118.089 77.4434H85.7835V100.464H118.089V77.4434Z" fill="#D5A882"/>
<path d="M110.213 77.4434H85.7835V100.464H110.213V77.4434Z" fill="#BA8B67"/>
<path d="M132.207 267.036L131.303 279.317C131.303 280.181 132.242 281 132.45 281.839L132.986 284.038L124.522 283.204C124.522 282.73 125.833 267.035 125.833 267.035L132.207 267.036Z" fill="#7B8093"/>
<path d="M145.339 268.46C145.756 268.934 146.676 281.258 146.676 281.258C146.676 281.258 153.317 281.919 153.002 281.258C152.686 280.598 153.201 267.037 153.201 267.037L145.339 268.46Z" fill="#7B8093"/>
<path d="M155.354 289.478C154.111 291.122 146.783 290.429 145.535 289.895C144.771 289.582 144.832 288.149 145.039 286.674C145.169 285.736 145.359 284.776 145.435 284.08C145.493 283.061 145.435 282.038 145.264 281.032C145.202 280.68 145.275 280.317 145.468 280.017C145.661 279.716 145.961 279.499 146.307 279.408C146.557 279.357 146.772 279.144 146.885 278.645C146.977 278.312 147.158 278.01 147.408 277.772C147.659 277.535 147.97 277.37 148.307 277.296C149.162 277.038 150.081 277.095 150.897 277.457C152.192 278.017 154.352 279.215 153.964 280.83C153.415 283.122 155.36 286.366 155.36 286.366C155.51 286.556 155.633 286.767 155.722 286.992C155.898 287.399 155.957 287.848 155.892 288.287C155.827 288.726 155.641 289.139 155.354 289.478Z" fill="#30384D"/>
<path d="M134.819 286.77C134.761 287.267 134.54 287.731 134.189 288.089C133.839 288.446 133.379 288.677 132.883 288.744C130.179 289.16 123.654 290.177 122.007 290.961C119.898 291.96 111.639 291.26 111.238 290.266C111.181 290.066 111.165 289.857 111.19 289.651C111.215 289.445 111.28 289.246 111.382 289.065C111.574 288.668 111.845 288.314 112.178 288.024C112.51 287.734 112.898 287.514 113.317 287.377C114.881 286.856 117.822 285.754 118.615 284.599C118.615 284.599 122.587 279.57 123.631 277.837C123.827 277.495 124.105 277.207 124.44 276.999C124.775 276.79 125.156 276.668 125.55 276.643C126.424 276.602 127.393 277.044 127.794 278.954C127.794 278.954 130.983 280.773 132.859 280.139C132.974 280.101 133.097 280.09 133.217 280.108C133.338 280.126 133.452 280.172 133.551 280.243C133.651 280.313 133.732 280.406 133.788 280.514C133.845 280.621 133.875 280.741 133.877 280.862C133.91 282.566 134.046 285.135 134.564 285.788C134.669 285.927 134.746 286.086 134.789 286.254C134.833 286.423 134.842 286.599 134.818 286.771L134.819 286.77Z" fill="#30384D"/>
<path d="M123.543 175.076C123.543 175.076 120.292 182.805 120.3 185.198C120.308 187.592 119.334 195.636 120.3 197.839C121.266 200.042 121.287 241.71 121.287 241.71L123.423 276.132L131.678 276.641L134.666 240.843L139.322 208.467L139.948 197.504C140.272 197.504 140.593 197.569 140.891 197.695C141.19 197.821 141.461 198.005 141.687 198.237C141.913 198.469 142.091 198.744 142.21 199.045C142.328 199.347 142.385 199.669 142.378 199.993L141.281 230.281L143.716 276.132L154.019 276.165L156.768 240.988C156.768 240.988 160.064 205.599 160.926 201.96L162.459 193.916C162.459 193.916 163.316 188.844 163.699 187.312C164.083 185.78 163.59 179.551 161.927 175.575C161.327 173.979 160.624 172.423 159.822 170.918L123.352 172.151L123.543 175.076Z" fill="#444C61"/>
<path d="M123.352 172.151L123.543 175.077C123.543 175.077 120.35 181.239 120.3 185.199C120.278 186.956 119.715 191.139 119.873 194.148C120.725 210.484 121.287 241.711 121.287 241.711L123.423 276.133L127.953 276.413C127.953 276.413 134.157 267.263 128.082 259.307C123.005 252.656 130.033 245.883 128.752 235.496C128.023 229.541 121.788 219.559 125.696 212.851C130.749 204.177 129.498 194.788 127.02 187.661C124.542 180.533 131.839 172.117 131.839 172.117L123.352 172.151Z" fill="#30384D"/>
<path d="M139.947 197.503C139.947 197.503 142.683 197.031 142.449 201.514C142.152 207.108 141.283 230.275 141.283 230.275L143.718 276.126L149.273 276.144C149.273 276.144 152.209 269.283 149.273 263.222C146.336 257.161 152.555 255.229 150.411 247.292C148.267 239.355 144.427 236.142 146.777 231.205C149.127 226.267 152.775 216.235 148.576 211.046C144.377 205.856 151.986 201.112 147.762 197.679C146.704 196.703 145.327 196.147 143.888 196.115C142.449 196.082 141.047 196.576 139.947 197.503Z" fill="#30384D"/>
<path d="M164.085 114.707C170.121 116.93 185.314 137.719 185.733 144.399C185.981 148.348 176.664 165.372 176.664 165.372C176.664 165.372 172.21 162.289 168.596 161.49C168.596 161.49 176.135 151.667 175.798 146.316C175.643 143.86 163.08 135.393 162.366 134.843C162.366 134.843 160.786 146.919 161.038 151.032C161.29 155.145 161.626 167.066 161.455 168.33C161.284 169.594 160.867 172.863 159.355 173.031C157.058 173.729 154.677 174.114 152.277 174.177C143.259 174.735 128.05 174.784 124.67 173.37C124.67 173.37 121.777 172.321 123.022 168.964C124.267 165.606 124.334 154.23 123.746 150.871C123.158 147.513 123.606 140.887 123.606 140.887L118.868 152.768C118.868 152.768 125.935 157.048 131.561 158.278C131.561 158.278 127.192 161.711 128.132 165.319L128.506 166.749C128.342 166.582 110.147 161.888 108.97 160.056C105.5 154.657 114.138 132.389 114.849 129.203C115.464 126.393 116.758 123.777 118.617 121.582C120.475 119.386 122.843 117.679 125.513 116.608L136.096 112.632C136.096 112.632 142.192 109.316 144.913 109.808C147.463 110.01 150.023 110.049 152.577 109.923C154.851 109.917 158.736 112.737 164.085 114.707Z" fill="#8A90A7"/>
<path d="M168.657 169.811C168.657 169.811 156.997 167.287 156.209 164.931C155.688 163.362 170.387 163.394 169.529 162.907L170.668 161.458C170.668 161.458 172.888 161.085 176.804 164.713C174.746 167.287 171.873 169.085 168.657 169.811Z" fill="#BA8B67"/>
<path d="M136.606 89.9986C136.606 89.9986 139.155 90.2206 139.502 89.4255C139.68 88.7107 140.046 88.0566 140.563 87.5313C141.079 87.0061 141.727 86.6288 142.439 86.4389C145.267 85.3364 144.379 81.1014 146.963 82.6072C150.542 84.6913 151.112 82.3008 153.538 84.2485C154.799 85.2614 157.083 84.4371 157.456 87.284C157.699 89.1597 159.497 89.712 158.947 91.8691C157.973 95.6966 159.977 95.6873 157.623 98.629C156.223 100.38 156.929 102.129 156.016 103.235C155.926 103.346 155.084 105.104 155.089 105.025C155.214 102.698 152.653 103.382 151.256 102.5C145.993 99.1813 137.458 92.7538 137.458 92.7538C137.217 92.6333 137.003 92.4652 136.828 92.2597C136.654 92.0542 136.523 91.8155 136.444 91.5581C136.364 91.3006 136.337 91.0297 136.365 90.7617C136.393 90.4936 136.475 90.2341 136.606 89.9986Z" fill="#444C61"/>
<path d="M136.606 89.9989C136.606 89.9989 139.358 89.9687 139.706 89.1726C140.18 88.0857 139.928 86.854 142.288 85.9338C145.115 84.8303 144.867 81.7468 147.451 83.2516C151.031 85.3357 150.925 82.3231 153.352 84.2717C154.612 85.2846 149.003 83.9591 150.876 86.135C153.169 88.8027 149.385 87.5345 147.391 88.5317C144.785 89.8353 145.446 90.8389 148.175 91.9893C151.537 93.4086 148.175 98.2876 146.774 97.4081C143.851 95.5174 140.727 93.9585 137.458 92.7604C137.216 92.64 137.001 92.4716 136.826 92.2656C136.651 92.0597 136.52 91.8203 136.44 91.5621C136.361 91.3039 136.334 91.0322 136.363 90.7635C136.392 90.4948 136.474 90.2347 136.606 89.9989Z" fill="#30384D"/>
<path d="M145.008 114.142C143.219 115.299 142.527 113.946 139.976 114.902C136.319 116.271 136.047 118.286 132.802 118.653C126.855 118.873 122.572 118.456 122.572 123.703C122.572 128.95 121.414 129.539 119.278 130.653C115.414 132.664 114.812 138.418 115.279 143.546C115.746 148.674 111.743 152.876 112.327 156.259C112.911 159.643 119.188 157.479 121.017 161.654C122.301 164.584 128.15 162.959 128.15 162.959L128.506 166.76C128.506 166.76 110.133 161.583 108.979 160.701C108.033 159.971 107.827 154.277 108.979 149.436C110.131 144.594 114.63 125.389 118.827 120.994C122.184 117.478 124.578 116.782 133.95 113.451L141.248 110.482C141.248 110.482 142.322 112.43 142.741 112.426C143.054 112.426 150.169 107.562 150.169 107.562C149.304 110.309 147.47 112.647 145.008 114.142Z" fill="#7B8093"/>
<path d="M155.259 101.957C155.259 101.957 154.909 108.08 154.909 108.796C154.909 109.512 155.366 110.033 155.236 110.814C155.105 111.594 152.305 115.631 148.659 117.127C148.659 117.127 142.404 113.678 141.951 111.172C141.499 108.666 143.644 103.461 143.644 103.461L155.259 101.957Z" fill="#BA8B67"/>
<path d="M137.067 91.2861C136.963 91.0381 135.158 95.1678 135.569 97.3395L136.252 99.0693C135.795 100.149 135.562 101.31 135.567 102.482C135.567 102.482 135.83 111.92 137.588 112.375C139.347 112.831 145.207 113.091 148.398 109.576C151.589 106.062 151.459 105.736 151.459 105.736C151.983 105.734 152.502 105.622 152.982 105.41C153.461 105.197 153.892 104.887 154.246 104.501C155.157 103.264 156.2 100.197 154.385 99.5163C152.169 98.6827 151.338 101.132 151.338 101.132C151.338 101.132 149.439 100.529 149.18 98.9672C148.92 97.4051 145.403 98.2106 145.662 95.172C145.922 92.1333 146.053 92.9784 143.839 92.9784C141.625 92.9784 137.719 92.8492 137.067 91.2861Z" fill="#D5A882"/>
<path d="M124.011 137.553C123.77 138.645 123.635 139.758 123.61 140.876C123.574 142.194 123.475 143.71 123.45 145.253C123.436 146.19 123.484 147.128 123.488 148.066C123.501 148.689 123.546 149.312 123.622 149.93C123.859 152.271 124.062 153.935 124.087 155.532C124.087 155.532 130.371 158.352 131.561 158.272C131.561 158.272 134.271 151.902 129.008 147.264C125.404 144.097 124.011 137.553 124.011 137.553Z" fill="#7B8093"/>
<path d="M132.217 168.071C132.446 168.071 136.142 169.76 137.59 169.456C139.038 169.152 143.076 167.779 143.649 167.017C144.223 166.254 147.12 165.704 146.739 164.684C146.359 163.663 145.571 163.587 142.762 163.663C139.954 163.739 136.142 163.107 135.986 161.475C136.891 161.378 137.806 161.5 138.655 161.829C139.722 162.363 143.383 162.796 143.077 161.475C142.772 160.154 141.705 159.411 139.95 159.439C138.194 159.467 137.891 158.531 136.442 158.351C134.889 158.261 133.333 158.261 131.781 158.351C130.474 158.351 128.32 160.852 128.146 162.945C127.928 164.222 128.051 165.533 128.502 166.747L132.217 168.071Z" fill="#D5A882"/>
<path d="M132.054 168.013C132.054 168.013 132.585 172.148 130.244 174.253C128.359 174.178 126.489 173.879 124.674 173.362C122.988 172.642 122.221 171.122 123.026 168.956C123.378 167.787 123.615 166.586 123.732 165.371C130.502 167.192 132.054 168.013 132.054 168.013Z" fill="#7B8093"/>
<path d="M176.972 135.285H145.433V163.885H176.972V135.285Z" fill="#D5A882"/>
<path d="M169.283 135.285H145.433V163.885H169.283V135.285Z" fill="#BA8B67"/>
<path d="M128.224 90.6379L158.388 98.295C159.544 95.1036 159.651 91.6269 158.695 88.3703C157.036 83.2913 147.388 81.7261 144.943 82.1179C140.184 82.8744 138.157 86.3424 136.925 88.9831L128.236 90.3732C128.206 90.3791 128.179 90.3949 128.16 90.418C128.14 90.4411 128.128 90.4702 128.127 90.5006C128.125 90.5311 128.134 90.5611 128.152 90.586C128.169 90.6109 128.195 90.6291 128.224 90.6379Z" fill="#8A90A7"/>
<path d="M128.224 90.6374L149.066 95.929C149.066 95.929 143.094 92.1213 150.173 87.432C154.071 84.8498 147.388 81.7257 144.943 82.1175C140.184 82.874 138.157 86.342 136.925 88.9826L128.236 90.3727C128.206 90.3787 128.179 90.3945 128.16 90.4175C128.14 90.4406 128.128 90.4697 128.127 90.5002C128.125 90.5306 128.134 90.5607 128.152 90.5856C128.169 90.6104 128.195 90.6287 128.224 90.6374Z" fill="#7B8093"/>
<path d="M158.419 146.344H145.339V160.309H158.419V146.344Z" fill="white"/>
<path fill-rule="evenodd" clip-rule="evenodd" d="M146.383 149.584V157.215H146.086V149.584H146.383Z" fill="#444C61"/>
<path fill-rule="evenodd" clip-rule="evenodd" d="M148.238 149.584V157.215H147.645V149.584H148.238Z" fill="#444C61"/>
<path fill-rule="evenodd" clip-rule="evenodd" d="M146.983 149.584V157.215H146.864V149.584H146.983Z" fill="#444C61"/>
<path fill-rule="evenodd" clip-rule="evenodd" d="M149.757 149.584V157.215H149.46V149.584H149.757Z" fill="#444C61"/>
<path fill-rule="evenodd" clip-rule="evenodd" d="M149.108 149.584V157.215H148.811V149.584H149.108Z" fill="#444C61"/>
<path fill-rule="evenodd" clip-rule="evenodd" d="M150.889 149.584V157.215H150.771V149.584H150.889Z" fill="#444C61"/>
<path fill-rule="evenodd" clip-rule="evenodd" d="M151.441 149.584V157.215H151.322V149.584H151.441Z" fill="#444C61"/>
<path fill-rule="evenodd" clip-rule="evenodd" d="M152.082 149.584V157.215H151.784V149.584H152.082Z" fill="#444C61"/>
<path fill-rule="evenodd" clip-rule="evenodd" d="M153.972 149.584V157.215H153.082V149.584H153.972Z" fill="#444C61"/>
<path fill-rule="evenodd" clip-rule="evenodd" d="M155.209 149.584V157.215H154.616V149.584H155.209Z" fill="#444C61"/>
<path fill-rule="evenodd" clip-rule="evenodd" d="M157.245 157.215V149.584H157.364V157.215H157.245Z" fill="#444C61"/>
<path fill-rule="evenodd" clip-rule="evenodd" d="M156.694 157.215V149.584H156.813V157.215H156.694Z" fill="#444C61"/>
<path fill-rule="evenodd" clip-rule="evenodd" d="M156.054 157.215V149.584H156.352V157.215H156.054Z" fill="#444C61"/>
<path fill-rule="evenodd" clip-rule="evenodd" d="M152.77 149.584V157.215H152.299V149.584H152.77Z" fill="#444C61"/>
<path fill-rule="evenodd" clip-rule="evenodd" d="M155.512 157.215V149.584H155.826V157.215H155.512Z" fill="#444C61"/>
<path fill-rule="evenodd" clip-rule="evenodd" d="M150.455 149.584V157.215H150.063V149.584H150.455Z" fill="#444C61"/>
<g filter="url(#filter0_d_69_6374)">
<path d="M498.372 132.061H450.538V166.195H498.372V132.061Z" fill="white"/>
</g>
<path fill-rule="evenodd" clip-rule="evenodd" d="M457.467 136.582V161.679H456.491V136.582H457.467Z" fill="#444C61"/>
<path fill-rule="evenodd" clip-rule="evenodd" d="M463.569 136.582V161.679H461.617V136.582H463.569Z" fill="#444C61"/>
<path fill-rule="evenodd" clip-rule="evenodd" d="M459.442 136.582V161.679H459.051V136.582H459.442Z" fill="#444C61"/>
<path fill-rule="evenodd" clip-rule="evenodd" d="M468.562 136.582V161.679H467.586V136.582H468.562Z" fill="#444C61"/>
<path fill-rule="evenodd" clip-rule="evenodd" d="M466.428 136.582V161.679H465.452V136.582H466.428Z" fill="#444C61"/>
<path fill-rule="evenodd" clip-rule="evenodd" d="M472.289 136.582V161.679H471.899V136.582H472.289Z" fill="#444C61"/>
<path fill-rule="evenodd" clip-rule="evenodd" d="M474.101 136.582V161.679H473.71V136.582H474.101Z" fill="#444C61"/>
<path fill-rule="evenodd" clip-rule="evenodd" d="M476.207 136.582V161.679H475.231V136.582H476.207Z" fill="#444C61"/>
<path fill-rule="evenodd" clip-rule="evenodd" d="M482.428 136.582V161.679H479.499V136.582H482.428Z" fill="#444C61"/>
<path fill-rule="evenodd" clip-rule="evenodd" d="M486.496 136.582V161.679H484.544V136.582H486.496Z" fill="#444C61"/>
<path fill-rule="evenodd" clip-rule="evenodd" d="M493.191 161.679V136.582H493.582V161.679H493.191Z" fill="#444C61"/>
<path fill-rule="evenodd" clip-rule="evenodd" d="M491.379 161.679V136.582H491.77V161.679H491.379Z" fill="#444C61"/>
<path fill-rule="evenodd" clip-rule="evenodd" d="M489.274 161.679V136.582H490.25V161.679H489.274Z" fill="#444C61"/>
<path fill-rule="evenodd" clip-rule="evenodd" d="M478.471 136.582V161.679H476.925V136.582H478.471Z" fill="#444C61"/>
<path fill-rule="evenodd" clip-rule="evenodd" d="M487.495 161.679V136.582H488.525V161.679H487.495Z" fill="#444C61"/>
<path fill-rule="evenodd" clip-rule="evenodd" d="M470.856 136.582V161.679H469.569V136.582H470.856Z" fill="#444C61"/>
<path d="M473.285 167.316C473.06 167.316 472.839 167.264 472.639 167.163C472.439 167.063 472.265 166.917 472.131 166.738L458.246 148.181C458.129 148.029 458.043 147.856 457.993 147.672C457.944 147.487 457.931 147.294 457.957 147.104C457.983 146.915 458.046 146.732 458.143 146.567C458.24 146.403 458.369 146.259 458.522 146.144C458.676 146.03 458.85 145.947 459.036 145.9C459.222 145.854 459.415 145.845 459.604 145.874C459.793 145.903 459.974 145.969 460.138 146.069C460.301 146.169 460.443 146.3 460.555 146.455L473.043 163.146L490.751 127.985C490.927 127.651 491.227 127.399 491.587 127.284C491.947 127.168 492.338 127.199 492.676 127.369C493.014 127.539 493.271 127.835 493.393 128.192C493.514 128.55 493.49 128.941 493.326 129.282L474.57 166.521C474.46 166.74 474.295 166.928 474.092 167.066C473.888 167.204 473.653 167.287 473.409 167.309C473.367 167.314 473.326 167.316 473.285 167.316Z" fill="#4573D2"/>
<path d="M121.884 150.836C121.884 150.836 125.22 151.266 125.588 153.031C125.726 154.464 125.609 155.91 125.245 157.303C125.2 157.602 125.068 157.88 124.866 158.104C124.663 158.328 124.4 158.487 124.107 158.562C123.625 158.658 123.133 158.703 122.641 158.697C123.117 157.845 123.419 156.907 123.528 155.938C123.664 154.434 123.728 153.456 123.124 152.764C122.117 151.959 120.968 151.348 119.736 150.963C119.736 150.966 121.424 150.828 121.884 150.836Z" fill="#30384D"/>
<path d="M91.8612 136.209L93.576 161.447L101.937 161.919V167.754L88.5534 168.227L91.8612 136.209Z" fill="#4369B6"/>
<path d="M91.8612 136.209L93.575 138.594V161.447L101.936 161.919V167.754L88.5524 168.227L91.8612 136.209Z" fill="#4369B6"/>
<path d="M119.055 154.765L158.091 146.344V160.307L119.055 154.765Z" fill="url(#paint0_linear_69_6374)"/>
<path d="M81.0799 217.688L89.427 243.948C87.9969 248.495 87.5733 253.298 88.1854 258.025C89.3238 265.215 93.721 278.165 93.721 278.165C93.8568 278.979 93.8204 279.813 93.6143 280.613C93.4082 281.412 93.0368 282.16 92.5242 282.807C91.4181 284.149 99.9123 289.669 106.558 292.239C108.95 293.066 111.495 293.353 114.011 293.082C114.469 293.202 115.007 291.037 111.188 289.195C106.589 286.978 101.161 280.919 100.124 276.416C99.0585 271.788 98.852 245.363 98.2578 241.658C97.6636 237.954 93.9941 214.191 93.9941 214.191L81.0799 217.688Z" fill="#EABBAE"/>
<path d="M93.0924 281.646C93.0924 281.646 90.1348 285.815 90.6696 288.871C91.2044 291.928 91.4703 293.811 91.4703 293.811L97.2685 294.609L98.0962 292.508C98.0962 292.508 99.4108 294.801 105.546 295.947C111.681 297.093 120.519 297.286 119.544 294.608C118.57 291.93 113.725 290.344 109.889 287.913L105.994 285.447C106.542 286.008 107.131 286.526 107.758 286.997C108.116 287.274 114.167 291.508 112.013 291.931C109.323 292.458 98.0671 289.68 93.0924 281.646Z" fill="#444C61"/>
<path d="M87.9394 239.267L95.367 240.168C95.367 240.168 95.5995 246.888 92.5096 251.944C89.2696 257.249 93.0778 262.79 94.5049 267.138C95.1627 269.141 95.6714 269.631 95.5474 275.312C95.4317 280.581 97.0361 285.676 97.7053 286.663C95.8867 285.271 94.3253 283.572 93.0913 281.643L93.7168 278.162C93.7168 278.162 92.0624 273.504 90.5998 268.403C89.7366 265.393 89.0215 261.978 88.5346 259.951C87.4697 254.626 87.7753 249.119 89.4228 243.945L87.9352 239.262" fill="#D1A79C"/>
<path d="M93.0924 281.646C93.0924 281.646 90.1348 285.815 90.6696 288.871C91.2044 291.928 91.4703 293.811 91.4703 293.811L97.2685 294.609L98.0962 292.508C98.0962 292.508 99.4108 294.801 105.546 295.947C104.154 295.407 102.94 294.492 102.037 293.303C101.331 292.404 101.137 290.67 100.039 289.463C99.157 288.624 98.3751 287.686 97.7095 286.666C95.8987 285.265 94.3378 283.568 93.0924 281.646Z" fill="#30384D"/>
<path d="M63.5641 223.715L67.0846 249.054C67.0846 249.054 63.3317 257.548 63.5641 264.819C63.7966 272.091 67.0846 283.54 67.0846 283.54C66.6659 285.088 66.0735 286.583 65.3186 287.997C61.548 295.142 78.0879 297.84 79.2618 298.313C79.783 298.522 85.7158 299.656 87.0856 297.032C87.5099 296.219 87.3441 295.645 85.8211 294.89C77.6345 290.834 74.3694 284.54 73.6553 282.605C72.0134 278.148 76.2615 251.639 76.1312 247.886C76.0009 244.132 79.0731 219.379 79.0731 219.379L63.5641 223.715Z" fill="#EABBAE"/>
<path d="M65.9879 286.238C65.9879 286.238 63.0293 290.407 63.5652 293.463C64.101 296.519 64.3648 298.403 64.3648 298.403L70.1641 299.202L70.9918 297.093C70.9918 297.093 72.3053 299.386 78.4414 300.532C84.5774 301.679 93.4145 301.871 92.4398 299.194C91.465 296.517 86.6196 294.929 82.7843 292.5L78.8896 290.032C79.4368 290.594 80.0265 291.112 80.6535 291.583C81.0111 291.859 87.0626 296.094 84.9089 296.516C82.2182 297.051 70.9616 294.272 65.9879 286.238Z" fill="#444C61"/>
<path d="M74.1286 237.591C74.3879 242.057 73.4272 246.508 71.3494 250.469C67.9269 256.646 72.7202 258.936 70.163 265.183C68.2699 269.808 64.3668 276.835 70.4935 286.239C71.7919 288.228 72.6194 290.487 72.9131 292.844C72.9131 292.844 68.2303 289.891 65.9868 286.239L67.0846 283.538C67.0846 283.538 62.6019 268.243 63.6329 262.251C64.6639 256.259 64.8161 254.852 67.0846 249.052L65.3436 236.525L74.1286 237.591Z" fill="#D1A79C"/>
<path d="M65.9879 286.238C65.9879 286.238 63.0293 290.407 63.5652 293.463C64.101 296.519 64.3648 298.403 64.3648 298.403L70.1641 299.202L70.9918 297.093C70.9918 297.093 72.8391 299.613 78.4414 300.532C78.4414 300.532 78.1766 300.672 77.0319 298.063C76.4513 296.739 73.4239 296.739 72.9173 292.836C72.9131 292.843 67.6089 289.557 65.9879 286.238Z" fill="#30384D"/>
<path d="M107.166 159.485C107.166 159.485 109.72 160.433 115.726 160.071C115.726 160.071 117.445 160.764 115.1 161.788C113.664 162.264 112.141 162.421 110.637 162.251C111.363 163.213 112.302 163.994 113.38 164.532C114.458 165.071 115.646 165.353 116.851 165.356C116.851 165.356 117.744 165.324 117.677 165.786C117.61 166.249 115.728 167.405 112.489 167.669C109.751 167.892 104.691 167.774 103.269 166.182C101.847 164.591 100.723 162.284 102.012 160.665C103.3 159.045 106.54 159.065 107.166 159.485Z" fill="#D1A79C"/>
<path d="M67.8789 131.448C67.8789 131.448 57.6439 137.933 57.6439 141.391C57.6439 144.85 63.6444 180.174 63.6944 180.591C63.8154 181.494 89.3551 175.98 89.6438 174.251C89.6438 174.251 90.9407 166.901 91.5203 162.58C92.0999 158.258 93.2508 155.086 91.5203 149.61C89.7898 144.134 92.0144 135.021 89.7085 133.875C87.4025 132.729 79.9884 127.134 76.2396 128.286C72.4909 129.439 67.8789 131.448 67.8789 131.448Z" fill="#4573D2"/>
<path d="M82.2954 129.416C82.2954 129.416 91.3472 131.639 93.2519 136.634C94.6748 140.367 90.9448 152.198 90.9448 152.198L88.0624 145.569L82.2954 129.416Z" fill="#4573D2"/>
<path d="M67.8789 131.447C69.4794 130.165 70.7752 128.543 71.6728 126.699C72.5704 124.855 73.0474 122.835 73.0695 120.784C73.0695 120.784 70.4747 113.29 74.5112 109.832C78.5477 106.373 87.7736 102.626 90.6571 104.356C93.5406 106.086 93.8283 106.95 94.1171 107.814C94.4059 108.679 94.6936 112.426 94.1171 113.578C93.5008 114.605 93.3136 115.833 93.5959 116.996C94.1327 118.426 96.1583 119.557 94.9792 120.784C94.3798 121.409 92.3845 121.36 92.3845 121.36C92.3845 121.36 90.9428 128.854 88.6316 128.565C86.3204 128.276 85.1716 126.548 84.0186 127.7C83.4297 128.294 83.0126 129.037 82.8114 129.848C82.6103 130.66 82.6326 131.511 82.8761 132.311C83.4525 133.753 84.0301 140.67 79.4161 139.229C74.8021 137.787 67.8789 131.447 67.8789 131.447Z" fill="#EABBAE"/>
<path d="M94.3235 105.857C94.2829 105.684 93.5656 96.5603 84.0853 97.5909C79.8841 98.0473 74.9907 96.7385 72.6817 98.4246C69.7366 100.581 70.9928 104.462 69.4135 104.959C65.9149 106.061 67.6871 111.539 68.9965 113.267C68.9965 113.267 65.1706 110.59 61.8764 111.46C55.0658 113.259 58.8532 121.47 62.3403 121.672C69.083 122.057 69.3322 115.48 69.5709 115.42C69.8096 115.359 72.9715 122.262 72.8464 122.923C72.8464 122.923 74.2193 122.807 74.9897 119.674C75.5943 117.216 78.6884 117.188 77.8117 116.108C74.4851 112.011 77.5386 109.439 78.9688 110.469C80.3991 111.498 80.7348 113.238 82.285 113.058C83.8351 112.879 83.8935 112.761 84.6087 111.332C85.3238 109.902 85.8596 107.936 87.3504 107.876C88.8411 107.817 93.3332 106.73 94.066 107.808C94.3592 107.202 94.4495 106.518 94.3235 105.857Z" fill="#444C61"/>
<path d="M63.6642 178.997C63.2159 178.82 64.1761 181.977 63.6642 183.245C63.1523 184.513 55.4224 193.397 62.0348 236.123L62.6249 283.113L74.9178 281.646L78.6822 242.28L79.4244 211.781L85.6511 241.878L87.8966 275.811L101.536 277.467C101.536 277.467 98.997 243.757 98.5602 240.701C96.4533 225.973 89.8325 177.945 89.7502 176.269C89.6739 175.297 89.6928 174.32 89.8065 173.352C89.8065 173.352 70.7062 181.766 63.6642 178.997Z" fill="#444C61"/>
<path d="M63.4046 179.072C63.4046 179.072 64.1761 181.978 63.6642 183.246C63.1523 184.514 55.4224 193.398 62.0348 236.123L62.6249 283.113L68.8276 282.374C69.9107 275.847 70.9386 270.688 68.8276 264.683C66.9876 259.453 70.2871 246.828 70.9678 241.677C71.6486 236.526 66.9115 226.319 69.3061 221.871C72.6045 215.742 74.1766 213.452 73.6897 209.63C73.0893 204.924 69.8086 205.722 69.2748 200.51C68.738 195.256 75.9123 189.226 72.8683 186.53C68.6337 182.779 70.8771 179.224 70.8771 179.224C70.8771 179.224 69.9045 179.85 63.4046 179.072Z" fill="#30384D"/>
<path d="M70.8729 179.224C70.8729 179.224 74.8625 172.235 75.8602 167.032C76.4909 163.739 75.6923 163.001 76.7859 162.145C78.0692 161.142 79.3765 157.352 77.2029 155.483C76.3616 154.76 71.0189 150.985 69.6063 149.559C63.9832 143.886 60.4325 139.66 62.7166 137.708C64.5149 136.166 65.9587 136.613 68.346 135.659C71.0241 134.587 71.1763 134.223 71.1763 134.223L67.88 131.449C67.88 131.449 60.8954 135.901 58.3423 139.427C56.9673 141.322 58.2037 152.919 60.1146 160.477C62.0254 168.035 63.4078 179.076 63.4078 179.076C65.865 179.591 68.3972 179.642 70.8729 179.224Z" fill="#4369B6"/>
<path d="M71.1753 134.219C71.1753 134.219 77.0924 128.116 76.7734 122.926L76.4544 117.736C76.4544 117.736 75.6204 118.006 75.0397 119.678C74.4591 121.349 74.1484 122.544 72.8974 122.926C72.4888 125.182 71.549 127.309 70.1557 129.13C69.4553 129.957 68.6943 130.731 67.8789 131.445L71.1753 134.219Z" fill="#D1A79C"/>
<path d="M72.6817 98.4295C69.7366 100.585 70.9928 104.467 69.4135 104.964C65.9149 106.066 67.6871 111.544 68.9965 113.272C68.9965 113.272 65.1706 110.595 61.8764 111.465C55.0658 113.264 58.8532 121.475 62.3403 121.677C69.083 122.061 69.3322 115.485 69.5709 115.425C69.8096 115.364 72.9715 122.267 72.8464 122.927C72.8464 122.927 74.2193 122.812 74.9897 119.679C75.5943 117.221 78.6884 117.193 77.8117 116.113C74.4851 112.016 77.5386 109.444 78.9688 110.474C80.3991 111.503 80.7348 113.242 82.285 113.063C83.8351 112.884 83.8935 112.766 84.6087 111.337C84.7129 111.136 80.6379 112.285 78.6123 108.473C78.1005 107.51 79.7121 104.692 78.2996 104.573C75.5547 104.342 75.2117 103.709 74.4966 102.758C71.439 98.7014 74.1244 97.3728 72.6817 98.4295Z" fill="#30384D"/>
<path d="M125.722 153.44L125.263 156.879C125.195 157.388 124.94 157.854 124.55 158.187C124.159 158.52 123.658 158.697 123.145 158.684L117.424 158.874L114.818 168.044C114.787 168.28 114.685 168.5 114.526 168.676C114.366 168.852 114.157 168.975 113.925 169.029L111.001 169.758C110.818 169.801 110.627 169.799 110.444 169.751C110.262 169.704 110.094 169.613 109.954 169.487C109.815 169.361 109.708 169.202 109.643 169.025C109.578 168.849 109.557 168.659 109.581 168.472L113.928 157.502L112.658 157.178C111.336 156.762 110.853 152.845 112.686 152.132C114.518 151.418 121.311 150.868 121.311 150.868C122.099 150.675 125.653 151.661 125.722 153.44Z" fill="#444C61"/>
<path d="M104.436 162.063C104.436 162.063 108.084 158.848 111.067 158.604C113.753 158.379 116.453 158.379 119.14 158.604C120.293 158.893 118.852 160.045 117.41 160.333C117.41 160.333 119.14 161.198 119.429 162.063C119.727 163 119.727 164.007 119.429 164.945C119.049 165.651 118.274 166.098 117.698 165.521C117.698 165.521 117.987 167.25 116.256 166.962C116.256 166.962 116.256 168.98 113.662 168.115C113.662 168.115 113.374 170.132 107.607 168.98C107.607 168.98 104.724 168.691 104.436 168.691C104.147 168.691 103.57 162.928 103.57 162.928L104.436 162.063Z" fill="#EABBAE"/>
<path d="M79.4244 211.783C79.4244 211.783 85.0757 214.109 85.5052 220.016C85.9347 225.922 84.1249 232.827 87.2878 236.522C90.4507 240.217 91.6329 244.946 90.1275 248.062C88.6222 251.178 88.3074 256.766 90.776 259.667C93.2446 262.568 95.5568 276.739 95.5568 276.739L87.8966 275.81L85.6511 241.877L79.4244 211.783Z" fill="#30384D"/>
<path d="M62.7187 137.707C62.7187 137.707 65.4291 137.154 68.7557 145.354C69.6095 147.457 76.0666 163.347 80.8359 167.029C82.8552 168.592 103.703 161.743 105.721 161.455C107.739 161.166 107.45 168.372 107.45 168.372C104.146 170.441 100.694 172.264 97.1205 173.824C91.5651 176.145 81.3582 178.083 79.3191 178.222C69.3718 178.898 62.7041 159.234 59.6799 153.399C53.6658 141.796 57.9848 136.951 62.7187 137.707Z" fill="#4573D2"/>
<path d="M62.7187 137.707C62.7187 137.707 57.7565 143.052 65.5417 149.988C71.4432 155.245 66.7145 160.879 71.0001 163.501C75.1367 166.032 73.6063 173.677 79.4244 172.116C83.9071 170.914 86.0191 175.373 95.5568 169.493C102.171 165.416 106.164 165.547 107.391 165.372L107.45 168.374C104.146 170.444 100.694 172.266 97.1205 173.826C91.5651 176.147 81.3582 178.085 79.3191 178.224C69.3718 178.9 62.7041 159.236 59.6799 153.401C53.6658 141.796 57.9848 136.951 62.7187 137.707Z" fill="#4369B6"/>
<path d="M388.354 186.917L397.514 186.84C397.514 186.944 397.496 188.837 397.471 191.586C398.049 191.43 398.645 191.351 399.243 191.352C399.82 191.334 400.393 191.436 400.928 191.651C401.463 191.866 401.947 192.19 402.35 192.602C403.489 193.799 404.012 195.821 403.9 198.615C403.907 201.403 403.189 204.144 401.815 206.57C400.83 208.154 399.538 209.133 398.456 209.123C398.237 209.127 398.02 209.08 397.823 208.984C397.625 208.889 397.453 208.749 397.319 208.575C397.29 211.835 397.27 214.13 397.27 214.13L388.355 214.164C388.355 214.164 383.165 206.348 387.073 198.933C388.928 195.211 389.382 190.946 388.354 186.917ZM398.654 207.544C399.407 207.55 400.21 206.867 400.852 205.673C401.722 203.876 402.193 201.912 402.231 199.916C402.44 196.453 401.665 194.851 400.98 194.12C400.777 193.888 400.528 193.701 400.249 193.571C399.969 193.441 399.666 193.369 399.358 193.362C398.981 193.363 398.611 193.456 398.278 193.633C397.946 193.81 397.662 194.067 397.452 194.379L397.348 206.382C397.614 207.116 398.071 207.538 398.659 207.544H398.654Z" fill="#CED3DF"/>
</g>
<defs>
<filter id="filter0_d_69_6374" x="450.538" y="132.061" width="52.1622" height="39.5438" filterUnits="userSpaceOnUse" color-interpolation-filters="sRGB">
<feFlood flood-opacity="0" result="BackgroundImageFix"/>
<feColorMatrix in="SourceAlpha" type="matrix" values="0 0 0 0 0 0 0 0 0 0 0 0 0 0 0 0 0 0 127 0" result="hardAlpha"/>
<feOffset dx="2.164" dy="3.245"/>
<feGaussianBlur stdDeviation="1.082"/>
<feColorMatrix type="matrix" values="0 0 0 0 0 0 0 0 0 0 0 0 0 0 0 0 0 0 0.141 0"/>
<feBlend mode="normal" in2="BackgroundImageFix" result="effect1_dropShadow_69_6374"/>
<feBlend mode="normal" in="SourceGraphic" in2="effect1_dropShadow_69_6374" result="shape"/>
</filter>
<linearGradient id="paint0_linear_69_6374" x1="119.055" y1="153.326" x2="158.091" y2="153.326" gradientUnits="userSpaceOnUse">
<stop offset="0.256" stop-color="#E89C2E"/>
<stop offset="0.325" stop-color="#E9A038" stop-opacity="0.949"/>
<stop offset="0.449" stop-color="#ECAE54" stop-opacity="0.82"/>
<stop offset="0.612" stop-color="#F1C380" stop-opacity="0.604"/>
<stop offset="0.808" stop-color="#F7E0BE" stop-opacity="0.31"/>
<stop offset="0.995" stop-color="white" stop-opacity="0"/>
</linearGradient>
<clipPath id="clip0_69_6374">
<rect width="600" height="327" fill="white"/>
</clipPath>
</defs>
</svg>
