<svg width="160" height="121" viewBox="0 0 160 121" fill="none" xmlns="http://www.w3.org/2000/svg">
<g clip-path="url(#clip0_304_10111)">
<path d="M159.725 74.4092C162.625 42.7413 142.24 28.6965 114.023 30.2018C85.8057 31.7072 90.4046 7.08141 63.8027 0.872821C37.2008 -5.33576 2.53153 22.7321 0.175508 48.4628C-2.72376 80.131 30.6421 111.612 74.7007 118.776C118.759 125.941 156.826 106.077 159.725 74.4092Z" fill="#BEBEBE" fill-opacity="0.14"/>
<path d="M61.9161 30.4386C61.9161 30.4386 114.278 43.5192 114.838 43.6419C115.398 43.7647 116.743 41.6864 118.051 42.0131C119.359 42.3398 140.078 47.4581 142.078 47.9548C144.077 48.4516 143.35 51.6826 143.083 52.7574L129.571 106.915C129.421 107.444 129.068 107.892 128.588 108.16C128.108 108.428 127.542 108.495 127.013 108.346L47.434 88.493C46.8971 88.3761 46.4284 88.0508 46.131 87.5887C45.8335 87.1266 45.7316 86.5653 45.8474 86.0281L59.3586 31.8711C59.5083 31.3423 59.8617 30.8945 60.3412 30.626C60.8206 30.3574 61.387 30.29 61.9161 30.4386Z" fill="#B0B5C0"/>
<path d="M140.104 55.8724C140.104 55.8724 115.903 49.8808 115.419 49.7602C114.935 49.6395 114.307 47.1918 113.311 46.9434L61.0526 33.9059C59.0421 33.4033 58.2559 36.29 58.0138 37.2626L45.7994 86.213C45.5569 87.1855 46.2882 88.2054 47.4329 88.4911L127.012 108.344C128.156 108.63 129.28 108.073 129.525 107.1L141.737 58.1501C141.979 57.1772 141.248 56.1581 140.104 55.8724Z" fill="#E2E5EC"/>
<path d="M71.7764 11.4837L22.4143 24.7184C21.5205 24.9581 20.9902 25.8769 21.2298 26.7708L40.9735 100.409C41.2131 101.303 42.132 101.833 43.0258 101.594L92.3879 88.359C93.2818 88.1194 93.8121 87.2005 93.5724 86.3067L73.8288 12.6682C73.5891 11.7743 72.6703 11.244 71.7764 11.4837Z" fill="white"/>
<path d="M71.7764 11.4837L22.4143 24.7184C21.5205 24.9581 20.9902 25.8769 21.2298 26.7708L40.9735 100.409C41.2131 101.303 42.132 101.833 43.0258 101.594L92.3879 88.359C93.2818 88.1194 93.8121 87.2005 93.5724 86.3067L73.8288 12.6682C73.5891 11.7743 72.6703 11.244 71.7764 11.4837Z" fill="white"/>
<path d="M59.7847 23.372L32.2714 30.7488C31.6011 30.9285 31.2033 31.6177 31.3831 32.288C31.5628 32.9584 32.252 33.3562 32.9223 33.1764L60.4356 25.7997C61.106 25.6199 61.5037 24.9308 61.324 24.2604C61.1443 23.59 60.4551 23.1923 59.7847 23.372Z" fill="#E2E5EC"/>
<path d="M67.7977 22.5238C67.618 21.8535 66.9289 21.4558 66.2586 21.6355C65.5883 21.8152 65.1906 22.5043 65.3703 23.1746C65.55 23.8449 66.2391 24.2426 66.9094 24.0629C67.5797 23.8832 67.9774 23.1941 67.7977 22.5238Z" fill="#E2E5EC"/>
<path d="M62.0162 31.6943L34.5029 39.071C33.8325 39.2508 33.4348 39.9399 33.6145 40.6103C33.7942 41.2807 34.4834 41.6784 35.1538 41.4987L62.6671 34.1219C63.3374 33.9422 63.7352 33.253 63.5555 32.5827C63.3757 31.9123 62.6866 31.5145 62.0162 31.6943Z" fill="#E2E5EC"/>
<path d="M70.0291 30.848C69.8494 30.1777 69.1603 29.78 68.49 29.9597C67.8197 30.1395 67.4221 30.8285 67.6018 31.4988C67.7815 32.1691 68.4706 32.5668 69.1409 32.3871C69.8112 32.2074 70.2088 31.5183 70.0291 30.848Z" fill="#E2E5EC"/>
<path d="M64.2476 40.0185L36.7343 47.3953C36.064 47.575 35.6662 48.2641 35.846 48.9345C36.0257 49.6049 36.7148 50.0026 37.3852 49.8229L64.8985 42.4461C65.5689 42.2664 65.9666 41.5773 65.7869 40.9069C65.6072 40.2365 64.918 39.8388 64.2476 40.0185Z" fill="#E2E5EC"/>
<path d="M72.2606 39.1722C72.0809 38.5019 71.3918 38.1043 70.7215 38.284C70.0512 38.4637 69.6535 39.1528 69.8332 39.8231C70.0129 40.4933 70.702 40.891 71.3723 40.7113C72.0426 40.5316 72.4403 39.8425 72.2606 39.1722Z" fill="#E2E5EC"/>
<path d="M66.4801 48.3427L38.9668 55.7195C38.2964 55.8992 37.8986 56.5884 38.0784 57.2587C38.2581 57.9291 38.9473 58.3269 39.6176 58.1471L67.1309 50.7704C67.8013 50.5906 68.1991 49.9015 68.0193 49.2311C67.8396 48.5607 67.1504 48.163 66.4801 48.3427Z" fill="#E2E5EC"/>
<path d="M74.492 47.4945C74.3123 46.8242 73.6232 46.4265 72.9529 46.6062C72.2826 46.786 71.8849 47.475 72.0647 48.1453C72.2444 48.8156 72.9335 49.2133 73.6037 49.0336C74.274 48.8539 74.6717 48.1648 74.492 47.4945Z" fill="#E2E5EC"/>
<path d="M68.7115 56.665L41.1982 64.0417C40.5278 64.2215 40.1301 64.9106 40.3098 65.581C40.4896 66.2514 41.1787 66.6491 41.8491 66.4694L69.3624 59.0926C70.0328 58.9129 70.4305 58.2237 70.2508 57.5534C70.071 56.883 69.3819 56.4852 68.7115 56.665Z" fill="#E2E5EC"/>
<path d="M76.7235 55.8187C76.5437 55.1484 75.8547 54.7507 75.1844 54.9305C74.5141 55.1102 74.1164 55.7992 74.2961 56.4695C74.4758 57.1398 75.1649 57.5375 75.8352 57.3578C76.5055 57.1781 76.9032 56.489 76.7235 55.8187Z" fill="#E2E5EC"/>
<path d="M57.1863 68.6776L43.4296 72.366C42.7593 72.5457 42.3615 73.2349 42.5413 73.9052C42.721 74.5756 43.4102 74.9733 44.0805 74.7936L57.8372 71.1052C58.5076 70.9255 58.9053 70.2363 58.7256 69.566C58.5458 68.8956 57.8567 68.4978 57.1863 68.6776Z" fill="#E2E5EC"/>
<path d="M59.4177 76.9998L45.6611 80.6882C44.9907 80.868 44.593 81.5571 44.7727 82.2275C44.9524 82.8979 45.6416 83.2956 46.312 83.1159L60.0686 79.4275C60.739 79.2478 61.1367 78.5586 60.957 77.8882C60.7773 77.2179 60.0881 76.8201 59.4177 76.9998Z" fill="#E2E5EC"/>
<path d="M61.6492 85.3241L47.8925 89.0124C47.2222 89.1922 46.8244 89.8813 47.0042 90.5517C47.1839 91.2221 47.873 91.6198 48.5434 91.4401L62.3001 87.7517C62.9704 87.572 63.3682 86.8828 63.1884 86.2124C63.0087 85.5421 62.3196 85.1443 61.6492 85.3241Z" fill="#E2E5EC"/>
<path d="M80.5432 71.5314L71.9069 66.547C71.7587 66.4445 71.59 66.3754 71.4125 66.3446C71.235 66.3138 71.0529 66.322 70.8789 66.3686C70.7049 66.4153 70.5431 66.4993 70.4048 66.6148C70.2665 66.7302 70.155 66.8744 70.078 67.0374L65.0936 75.6737C64.9303 75.9622 64.8876 76.3035 64.9748 76.6234C65.062 76.9432 65.272 77.2157 65.5592 77.3813C65.8463 77.547 66.1873 77.5925 66.5079 77.5079C66.8284 77.4234 67.1026 77.2155 67.2706 76.9297L70.7794 70.8501L73.6789 81.6645C73.7652 81.9864 73.9758 82.2609 74.2645 82.4275C74.5532 82.5941 74.8962 82.6392 75.2181 82.5529C75.5401 82.4665 75.8145 82.2559 75.9811 81.9672C76.1477 81.6785 76.1928 81.3355 76.1065 81.0136L73.207 70.1993L79.2866 73.708C79.5751 73.8715 79.9164 73.9143 80.2363 73.8271C80.5561 73.74 80.8286 73.53 80.9944 73.2429C81.1601 72.9558 81.2057 72.6148 81.1212 72.2943C81.0367 71.9737 80.8289 71.6995 80.5432 71.5314Z" fill="#4573D2"/>
</g>
<defs>
<clipPath id="clip0_304_10111">
<rect width="160" height="120.238" fill="white"/>
</clipPath>
</defs>
</svg>
