<svg width="254" height="239" viewBox="0 0 254 239" fill="none" xmlns="http://www.w3.org/2000/svg">
<g clip-path="url(#clip0_69_7052)">
<mask id="mask0_69_7052" style="mask-type:alpha" maskUnits="userSpaceOnUse" x="0" y="0" width="254" height="239">
<path d="M246.832 169.495C263.838 109.459 254.001 74.6047 176.243 102.872C135.239 117.779 139.764 10.8481 98.6809 1.49126C57.5977 -7.86561 -5.67961 25.83 0.409467 130.39C3.36475 196.22 47.4648 225.558 115.513 236.356C183.561 247.154 218.617 220.989 246.832 169.495Z" fill="#F6F6F6"/>
</mask>
<g mask="url(#mask0_69_7052)">
<path d="M246.832 169.495C263.838 109.459 254.001 74.6047 176.243 102.872C135.239 117.779 139.764 10.8481 98.6809 1.49126C57.5977 -7.86561 -5.67961 25.83 0.409467 130.39C3.36475 196.22 47.4648 225.558 115.513 236.356C183.561 247.154 218.617 220.989 246.832 169.495Z" fill="#BEBEBE" fill-opacity="0.14"/>
<path d="M267.467 206.199H15.8564V251.092H267.467V206.199Z" fill="#CED3DF"/>
<path d="M17.1681 217.992C15.6986 217.992 -11.5368 230.841 -12.9665 230.841C-19.1198 230.841 262.482 231.098 267.812 230.761C283.808 229.752 283.808 219.523 267.812 218.514C262.482 218.178 23.3214 217.992 17.1681 217.992Z" fill="#8A90A7"/>
<mask id="mask1_69_7052" style="mask-type:alpha" maskUnits="userSpaceOnUse" x="-14" y="119" width="71" height="76">
<path d="M56.653 156.148C42.9765 165.683 32.9171 179.214 23.2773 192.687C28.224 183.904 30.1398 182.131 35.7706 172.326C39.2547 165.22 42.1899 157.859 44.5505 150.306C44.5505 150.306 46.1952 142.159 46.5522 138.067C36.1298 150.96 29.2521 166.424 23.993 182.195C28.4385 161.158 37.6434 141.263 35.4179 119.746C29.0637 130.917 24.6344 143.073 22.3151 155.709C21.6885 159.089 21.1918 162.485 20.825 165.896C20.4151 151.497 18.9429 137.187 15.1207 123.305C11.555 133.266 10.3157 143.909 11.4976 154.421C12.1402 159.711 13.1358 164.953 14.4779 170.111C10.5235 159.484 5.79398 149.161 0.327399 139.224C-0.673409 137.191 -2.07101 135.378 -3.78332 133.892C-4.90988 139.197 -5.02215 144.666 -4.11423 150.012C-2.33713 160.077 1.38689 169.699 6.8497 178.341C1.63959 173.614 -4.4103 169.708 -13.9336 166.35C-8.7126 180.139 8.15046 189.8 21.8558 194.68L21.8204 194.729L21.8748 194.686L22.1132 194.773L22.1219 194.778V194.775V194.772C22.2188 194.596 22.3118 194.428 22.4065 194.257C35.6982 183.527 51.7199 172.206 56.653 156.148Z" fill="#B0B5C0"/>
</mask>
<g mask="url(#mask1_69_7052)">
<path d="M56.653 156.148C42.9765 165.683 32.9171 179.214 23.2773 192.687C28.224 183.904 30.1398 182.131 35.7706 172.326C39.2547 165.22 42.1899 157.859 44.5505 150.306C44.5505 150.306 46.1952 142.159 46.5522 138.067C36.1298 150.96 29.2521 166.424 23.993 182.195C28.4385 161.158 37.6434 141.263 35.4179 119.746C29.0637 130.917 24.6344 143.073 22.3151 155.709C21.6885 159.089 21.1918 162.485 20.825 165.896C20.4151 151.497 18.9429 137.187 15.1207 123.305C11.555 133.266 10.3157 143.909 11.4976 154.421C12.1402 159.711 13.1358 164.953 14.4779 170.111C10.5235 159.484 5.79398 149.161 0.327399 139.224C-0.673409 137.191 -2.07101 135.378 -3.78332 133.892C-4.90988 139.197 -5.02215 144.666 -4.11423 150.012C-2.33713 160.077 1.38689 169.699 6.8497 178.341C1.63959 173.614 -4.4103 169.708 -13.9336 166.35C-8.7126 180.139 8.15046 189.8 21.8558 194.68L21.8204 194.729L21.8748 194.686L22.1132 194.773L22.1219 194.778V194.775V194.772C22.2188 194.596 22.3118 194.428 22.4065 194.257C35.6982 183.527 51.7199 172.206 56.653 156.148Z" fill="#B0B5C0"/>
<path d="M-0.186063 189.81C5.37014 187.314 11.2411 185.585 17.2648 184.672C23.3311 184.284 29.4222 184.66 35.3943 185.792C36.1018 185.886 36.2276 184.868 35.6311 184.626C24.7286 180.238 8.79679 182.351 -0.799433 188.905C-1.35294 189.285 -0.730313 190.029 -0.17681 189.81H-0.186063Z" fill="#8A90A7"/>
<path d="M1.1039 185.443C15.329 180.132 29.0288 180.457 43.4977 184.519C43.5609 184.546 43.6321 184.547 43.6961 184.522C43.76 184.497 43.8117 184.448 43.8401 184.386C43.8535 184.355 43.8607 184.322 43.8611 184.288C43.8615 184.255 43.8552 184.221 43.8425 184.19C43.8298 184.159 43.811 184.131 43.7872 184.107C43.7635 184.084 43.7352 184.065 43.704 184.052C43.6903 184.046 43.6761 184.042 43.6616 184.039C30.4085 178.496 13.9215 179.474 0.896 185.03C0.60918 185.154 0.817628 185.556 1.1039 185.443Z" fill="#8A90A7"/>
<path d="M-9.00127 181.599C0.496329 177.553 10.6382 175.222 20.9521 174.715C25.6361 174.578 30.3226 174.881 34.9497 175.621C40.187 176.463 45.0575 178.244 50.1685 179.519C50.6845 179.648 51.1438 178.93 50.6137 178.641C41.9057 173.919 30.1766 172.868 20.3953 173.284C10.0384 173.542 -0.109789 176.248 -9.21679 181.179C-9.24496 181.192 -9.27018 181.211 -9.29098 181.234C-9.31177 181.257 -9.32771 181.284 -9.33786 181.313C-9.34801 181.343 -9.35215 181.374 -9.35006 181.405C-9.34796 181.436 -9.33965 181.466 -9.32564 181.494C-9.29633 181.551 -9.24584 181.593 -9.18513 181.613C-9.12441 181.633 -9.05835 181.628 -9.00127 181.599Z" fill="#8A90A7"/>
<path d="M-7.43709 177.583C14.5457 169.465 40.4847 171.987 62.4958 178.406C62.5608 178.425 62.6308 178.419 62.6909 178.387C62.751 178.355 62.7962 178.302 62.8169 178.237C62.8347 178.175 62.8285 178.109 62.7995 178.052C62.7706 177.994 62.721 177.95 62.6607 177.927C51.1993 172.765 37.3199 172.12 24.8979 172.023C13.8246 171.572 2.77452 173.366 -7.58513 177.297C-7.78161 177.378 -7.63357 177.653 -7.43709 177.583Z" fill="#8A90A7"/>
<path d="M-7.17905 164.569C2.89775 160.475 15.0166 160.114 25.7628 160.949C36.4591 161.806 46.9406 164.419 56.7851 168.682C57.0762 168.806 57.2319 168.349 56.9429 168.22C46.6132 163.758 35.5904 161.106 24.3586 160.382C14.0429 159.736 2.24356 160.119 -7.33634 164.257C-7.54751 164.347 -7.39076 164.65 -7.18068 164.565L-7.17905 164.569Z" fill="#8A90A7"/>
<path d="M-6.8883 160.619C17.4567 155.046 42.9643 157.67 65.6603 168.08C66.0837 168.269 66.4462 167.563 66.0249 167.355C43.2838 156.524 17.4463 154.044 -6.9449 160.351C-6.98048 160.359 -7.01162 160.38 -7.03148 160.41C-7.05133 160.441 -7.05826 160.478 -7.05076 160.513C-7.04325 160.549 -7.02192 160.58 -6.99145 160.6C-6.96099 160.62 -6.92388 160.627 -6.8883 160.619Z" fill="#8A90A7"/>
<path d="M-12.2147 151.3C8.56102 140.678 36.1806 136.492 56.4969 150.06C56.7576 150.233 57.1076 149.869 56.8708 149.647C47.9658 141.299 33.4425 140.239 21.7988 141.059C9.83314 141.878 -1.80336 145.327 -12.2789 151.159C-12.2895 151.162 -12.2994 151.168 -12.3078 151.175C-12.3162 151.182 -12.3229 151.191 -12.3275 151.201C-12.3321 151.212 -12.3345 151.223 -12.3345 151.234C-12.3345 151.245 -12.3321 151.256 -12.3275 151.266C-12.3229 151.276 -12.3161 151.285 -12.3077 151.293C-12.2993 151.3 -12.2895 151.305 -12.2788 151.309C-12.2681 151.312 -12.2569 151.313 -12.2458 151.311C-12.2347 151.31 -12.2241 151.306 -12.2147 151.3Z" fill="#8A90A7"/>
</g>
<path d="M37.9789 184.199H-1.95605V216.786H37.9789V184.199Z" fill="#C98A30"/>
<path d="M30.1333 184.199H37.9781V216.786H30.1333V184.199Z" fill="#E89C2E"/>
<path d="M165.676 72.6647L188.529 67.1055L192.708 83.4572L169.856 89.017L165.676 72.6647Z" fill="#A4A4A4" fill-opacity="0.4"/>
<path d="M195.141 80.1842L218.339 76.1855L221.345 92.785L198.146 96.7837L195.141 80.1842Z" fill="#A4A4A4" fill-opacity="0.4"/>
<path d="M202.441 111.279H178.98V127.715H202.441V111.279Z" fill="#A4A4A4" fill-opacity="0.4"/>
<path d="M206.779 103.946L228.91 96.0859L234.817 111.922L212.686 119.782L206.779 103.946Z" fill="#A4A4A4" fill-opacity="0.4"/>
<path d="M257.183 116.561H233.121V132.996H257.183V116.561Z" fill="#A4A4A4" fill-opacity="0.4"/>
</g>
<path d="M75.2889 41.351L72.7305 70.0449L78.2291 70.5336L80.7875 41.8396L75.2889 41.351Z" fill="#CED3DF"/>
<path d="M145.469 47.5057L142.906 76.1992L148.146 76.6658L150.709 47.9723L145.469 47.5057Z" fill="#CED3DF"/>
<path d="M143.184 72.2877L145.796 43.5977L148.501 43.8373C148.501 43.8373 146.047 51.1283 147.252 58.8632C147.97 63.3844 148.378 67.9495 148.472 72.5263L143.184 72.2877Z" fill="#B0B5C0"/>
<path d="M72.5005 72.2652L75.0949 43.5996L77.8026 43.8066C77.8026 43.8066 75.4813 49.0605 76.775 57.8898C78.0687 66.719 78.287 72.525 78.287 72.525L72.5005 72.2652Z" fill="#B0B5C0"/>
<path d="M78.3408 46.4582C81.2961 46.4582 83.6919 44.1205 83.6919 41.2369C83.6919 38.3533 81.2961 36.0156 78.3408 36.0156C75.3855 36.0156 72.9897 38.3533 72.9897 41.2369C72.9897 44.1205 75.3855 46.4582 78.3408 46.4582Z" fill="#444C61"/>
<path d="M76.8113 95.6545C68.5223 94.9612 62.3788 87.8425 63.0891 79.7544C63.7993 71.6663 71.095 65.6718 79.3839 66.3651L76.8113 95.6545Z" fill="#30384D"/>
<path d="M76.8113 95.6545C68.5223 94.9612 62.3788 87.8425 63.0891 79.7544C63.7993 71.6663 71.095 65.6718 79.3839 66.3651L76.8113 95.6545Z" fill="#30384D"/>
<path d="M178.448 173.071L165.299 182.029L133.002 136.887L146.151 127.93L178.448 173.071Z" fill="#CED3DF"/>
<path d="M175.063 175.476L166.329 181.425L134.032 136.283L142.766 130.334L175.063 175.476Z" fill="#B0B5C0"/>
<path d="M139.733 147.013C148.589 147.013 155.769 140.007 155.769 131.366C155.769 122.724 148.589 115.719 139.733 115.719C130.877 115.719 123.697 122.724 123.697 131.366C123.697 140.007 130.877 147.013 139.733 147.013Z" fill="#444C61"/>
<path d="M123.796 131.262C123.794 128.577 124.5 125.938 125.843 123.612C127.173 121.315 129.059 119.388 131.328 118.006C132.634 117.21 138.839 114.19 138.71 118.031C138.523 123.667 138.227 127.726 141.809 132.104C144.408 135.28 151.898 141.531 151.236 142.164C150.455 142.901 149.627 143.586 148.757 144.216C146.1 145.964 142.987 146.892 139.805 146.885C130.965 146.885 123.796 139.89 123.796 131.262Z" fill="#30384D"/>
<path d="M116.849 95.5059H94.2983V128.763H116.849V95.5059Z" fill="#CED3DF"/>
<path d="M109.279 128.535H94.2329V95.2773H103.715C103.715 95.2773 99.4604 105.597 103.715 113.35C106.305 118.112 108.18 123.229 109.279 128.535Z" fill="#B0B5C0"/>
<path d="M153.082 166.474V206.178H69.3926V145.943C69.3926 129.062 83.4174 115.377 100.718 115.377" fill="#B0B5C0"/>
<path d="M175.116 190.134C182.567 190.134 188.607 184.241 188.607 176.97C188.607 169.7 182.567 163.807 175.116 163.807C167.665 163.807 161.625 169.7 161.625 176.97C161.625 184.241 167.665 190.134 175.116 190.134Z" fill="#CED3DF"/>
<path d="M100.891 115.068C114.775 115.068 128.09 120.575 137.908 130.376C147.725 140.178 153.24 153.472 153.24 167.333V205.87H69.5488V146.36C69.5488 138.061 72.851 130.102 78.7288 124.233C84.6066 118.365 92.5786 115.068 100.891 115.068V115.068Z" fill="#444C61"/>
<path d="M143.221 69.5117C151.51 70.2051 157.654 77.3238 156.943 85.4119C156.233 93.5 148.937 99.4945 140.648 98.8011L143.221 69.5117Z" fill="#30384D"/>
<path d="M122.272 109.695L93.2639 107.27C78.9158 106.07 68.2828 93.7477 69.5117 79.7477C70.7412 65.7477 83.3689 55.3693 97.7164 56.5713L126.725 58.9974C141.072 60.1972 151.706 72.5187 150.477 86.5187C149.248 100.519 136.62 110.895 122.272 109.695Z" fill="#444C61"/>
<path d="M131.452 90.6698C134.943 90.6698 137.774 87.9079 137.774 84.5009C137.774 81.0939 134.943 78.332 131.452 78.332C127.96 78.332 125.13 81.0939 125.13 84.5009C125.13 87.9079 127.96 90.6698 131.452 90.6698Z" fill="#30384D"/>
<path d="M132.725 88.8906C135.905 88.8906 138.484 86.3744 138.484 83.2705C138.484 80.1666 135.905 77.6504 132.725 77.6504C129.544 77.6504 126.965 80.1666 126.965 83.2705C126.965 86.3744 129.544 88.8906 132.725 88.8906Z" fill="#B0B5C0"/>
<path d="M133.373 87.1119C135.983 87.1119 138.099 85.0472 138.099 82.5003C138.099 79.9534 135.983 77.8887 133.373 77.8887C130.763 77.8887 128.646 79.9534 128.646 82.5003C128.646 85.0472 130.763 87.1119 133.373 87.1119Z" fill="#CED3DF"/>
<path d="M119.424 109.457L93.2639 107.269C78.9158 106.069 68.2828 93.7471 69.5117 79.7471C70.6002 67.3707 80.5937 57.8258 92.81 56.6076C93.3035 56.5533 93.8028 56.6241 94.2616 56.8135C94.7204 57.0029 95.124 57.3048 95.4349 57.6913C95.7459 58.0777 95.9542 58.5363 96.0406 59.0244C96.1269 59.5126 96.0886 60.0146 95.9291 60.484C94.7176 63.9257 89.3012 63.3096 89.3012 82.4363C89.3277 85.0576 90.0801 87.6204 91.4749 89.8413C97.386 99.6465 113.71 105.646 119.697 108.525C119.807 108.572 119.896 108.657 119.947 108.766C119.998 108.874 120.008 108.997 119.974 109.111C119.94 109.226 119.866 109.325 119.764 109.388C119.663 109.452 119.542 109.476 119.424 109.457Z" fill="#30384D"/>
<path d="M91.1579 87.7558C94.6495 87.7558 97.48 84.9939 97.48 81.5869C97.48 78.1799 94.6495 75.418 91.1579 75.418C87.6664 75.418 84.8359 78.1799 84.8359 81.5869C84.8359 84.9939 87.6664 87.7558 91.1579 87.7558Z" fill="#30384D"/>
<path d="M92.3574 85.8457C95.5382 85.8457 98.1167 83.3295 98.1167 80.2256C98.1167 77.1217 95.5382 74.6055 92.3574 74.6055C89.1767 74.6055 86.5981 77.1217 86.5981 80.2256C86.5981 83.3295 89.1767 85.8457 92.3574 85.8457Z" fill="#B0B5C0"/>
<path d="M92.9963 84.1548C95.6065 84.1548 97.7226 82.0902 97.7226 79.5432C97.7226 76.9963 95.6065 74.9316 92.9963 74.9316C90.386 74.9316 88.27 76.9963 88.27 79.5432C88.27 82.0902 90.386 84.1548 92.9963 84.1548Z" fill="#CED3DF"/>
<path d="M77.6505 41.8511C79.5429 44.067 84.0073 43.4693 81.7373 45.3167C80.6404 46.2046 79.2405 46.6315 77.8339 46.5071C76.4273 46.3827 75.1244 45.7166 74.201 44.65C73.7518 44.1271 73.4124 43.5194 73.2031 42.8629C72.9937 42.2064 72.9187 41.5147 72.9825 40.8287C73.0462 40.1427 73.2475 39.4765 73.5743 38.8698C73.901 38.263 74.3466 37.728 74.8846 37.2965C77.1541 35.4485 75.7603 39.6363 77.6505 41.8511Z" fill="#30384D"/>
<path d="M149.109 52.9542C152.065 52.9542 154.46 50.6166 154.46 47.733C154.46 44.8494 152.065 42.5117 149.109 42.5117C146.154 42.5117 143.758 44.8494 143.758 47.733C143.758 50.6166 146.154 52.9542 149.109 52.9542Z" fill="#444C61"/>
<path d="M148.418 48.3461C150.31 50.5609 154.775 49.9637 152.505 51.8106C151.408 52.6984 150.009 53.1252 148.602 53.0008C147.195 52.8763 145.893 52.2104 144.969 51.1439C144.52 50.6209 144.181 50.0132 143.971 49.3567C143.762 48.7002 143.687 48.0085 143.751 47.3225C143.814 46.6365 144.015 45.9702 144.342 45.3634C144.669 44.7566 145.114 44.2215 145.652 43.7899C147.924 41.9435 146.527 46.1324 148.418 48.3461Z" fill="#30384D"/>
<path d="M107.964 174.423C103.672 170.122 106.652 160.4 103.151 154.504C101.914 152.421 96.8996 148.101 94.6605 143.396C92.4215 138.692 91.0026 128.415 94.2736 123.825C96.8896 120.098 100.482 117.162 104.658 115.337C101.442 114.458 94.0455 115.777 94.0455 115.777C85.5525 117.535 74.4922 126.65 74.4922 126.65L84.4346 135.042C79.7118 132.127 74.6192 129.856 69.2925 128.29L69.5026 205.781L139.674 207.216C139.674 207.216 123.511 190.005 107.964 174.423Z" fill="#30384D"/>
<path d="M75.8865 124.996L100.995 174.298L86.6343 181.262L61.5259 131.959" fill="#CED3DF"/>
<path d="M141.64 212.369L92.7773 184.842L100.796 171.291L149.659 198.818" fill="#CED3DF"/>
<path d="M71.0533 128.213L96.1618 177.515L84.9649 182.945L59.8564 133.642" fill="#B0B5C0"/>
<path d="M141.59 212.328L92.7271 184.801L95.5027 180.113L144.366 207.641" fill="#B0B5C0"/>
<path d="M96.4484 189.964C103.899 189.964 109.939 184.071 109.939 176.8C109.939 169.53 103.899 163.637 96.4484 163.637C88.9976 163.637 82.9575 169.53 82.9575 176.8C82.9575 184.071 88.9976 189.964 96.4484 189.964Z" fill="#444C61"/>
<path d="M93.213 181.555C97.9823 187.256 108.407 184.245 105.176 187.005C99.5018 191.853 90.7307 190.809 85.9614 185.108C81.1922 179.408 81.8083 169.996 89.7168 165.333C92.5654 163.652 88.4416 175.854 93.213 181.555Z" fill="#30384D"/>
<path d="M72.881 146.872C81.7373 146.872 88.9168 139.867 88.9168 131.225C88.9168 122.584 81.7373 115.578 72.881 115.578C64.0247 115.578 56.8452 122.584 56.8452 131.225C56.8452 139.867 64.0247 146.872 72.881 146.872Z" fill="#444C61"/>
<path d="M68.0065 136.776C72.0884 144.224 83.6134 143.618 79.0276 145.664C72.9456 148.377 62.9319 146.761 58.8506 139.313C54.7692 131.865 57.0344 120.851 66.1316 117.397C69.7737 116.013 63.9246 129.328 68.0065 136.776Z" fill="#30384D"/>
<path d="M128.422 228.002L96.587 219.308C96.1016 219.182 95.6791 218.884 95.3992 218.468C95.1193 218.053 95.0015 217.549 95.0679 217.053C95.1343 216.557 95.3805 216.102 95.7598 215.775C96.1392 215.447 96.6255 215.27 97.1269 215.276L207.78 213.899C208.22 213.891 208.651 214.021 209.013 214.27C209.375 214.519 209.649 214.876 209.798 215.289L213.057 224.61C213.162 224.921 213.19 225.253 213.141 225.577C213.091 225.902 212.964 226.21 212.771 226.475C212.579 226.741 212.325 226.957 212.032 227.105C211.738 227.253 211.414 227.329 211.085 227.327L129.008 228.078C128.81 228.08 128.613 228.054 128.422 228.002Z" fill="#393939" fill-opacity="0.18"/>
<path d="M128.422 228.002L96.587 219.308C96.1016 219.182 95.6791 218.884 95.3992 218.468C95.1193 218.053 95.0015 217.549 95.0679 217.053C95.1343 216.557 95.3805 216.102 95.7598 215.775C96.1392 215.447 96.6255 215.27 97.1269 215.276L207.78 213.899C208.22 213.891 208.651 214.021 209.013 214.27C209.375 214.519 209.649 214.876 209.798 215.289L213.057 224.61C213.162 224.921 213.19 225.253 213.141 225.577C213.091 225.902 212.964 226.21 212.771 226.475C212.579 226.741 212.325 226.957 212.032 227.105C211.738 227.253 211.414 227.329 211.085 227.327L129.008 228.078C128.81 228.08 128.613 228.054 128.422 228.002Z" fill="#B0B5C0"/>
<path d="M128.396 228.002L96.5616 219.308C96.0762 219.182 95.6537 218.884 95.3738 218.468C95.0939 218.053 94.9761 217.549 95.0425 217.053C95.109 216.557 95.3551 216.102 95.7344 215.775C96.1138 215.447 96.6001 215.27 97.1015 215.276L207.755 213.899C208.195 213.891 208.626 214.02 208.988 214.27C209.35 214.519 209.624 214.876 209.773 215.289L213.032 224.61C213.136 224.921 213.165 225.253 213.115 225.577C213.066 225.902 212.939 226.21 212.747 226.475C212.554 226.741 212.3 226.957 212.007 227.105C211.714 227.253 211.389 227.329 211.06 227.327L128.983 228.078C128.785 228.08 128.588 228.054 128.396 228.002Z" fill="#393939" fill-opacity="0.18"/>
<path d="M97.0054 215.278L129.35 224.464L184.141 222.6L149.165 214.596L97.0054 215.278Z" fill="#CED3DF"/>
<path d="M243.859 228.306L131.312 228.586C130.41 228.599 129.515 228.428 128.681 228.084C127.847 227.739 127.092 227.229 126.463 226.583C125.833 225.938 125.342 225.171 125.02 224.329C124.697 223.488 124.55 222.589 124.588 221.689L128.03 156.916C128.139 155.222 128.892 153.634 130.137 152.478C131.381 151.322 133.021 150.685 134.721 150.698L247.267 150.419C248.17 150.406 249.065 150.577 249.899 150.921C250.733 151.265 251.487 151.776 252.117 152.422C252.746 153.067 253.237 153.834 253.56 154.676C253.882 155.517 254.029 156.415 253.992 157.316L250.55 222.086C250.442 223.78 249.688 225.368 248.444 226.525C247.2 227.682 245.559 228.319 243.859 228.306Z" fill="#CED3DF"/>
<path d="M244.117 228.41L131.307 228.698C130.404 228.71 129.508 228.538 128.674 228.193C127.84 227.848 127.085 227.336 126.455 226.69C125.826 226.043 125.335 225.276 125.013 224.433C124.691 223.591 124.545 222.692 124.582 221.792L128.03 156.927C128.137 155.232 128.89 153.643 130.135 152.485C131.379 151.327 133.02 150.688 134.721 150.7C140.357 149.531 155.642 173.196 168.706 188.837C178.707 200.811 204.447 211.407 215.566 213.744C243.539 219.624 247.685 228.401 244.117 228.41Z" fill="#B0B5C0"/>
<path d="M131.003 140.448C132.907 140.448 134.452 138.941 134.452 137.082C134.452 135.224 132.907 133.717 131.003 133.717C129.098 133.717 127.554 135.224 127.554 137.082C127.554 138.941 129.098 140.448 131.003 140.448Z" fill="#30384D"/>
<path d="M131.697 139.478C133.432 139.478 134.839 138.105 134.839 136.412C134.839 134.719 133.432 133.346 131.697 133.346C129.961 133.346 128.555 134.719 128.555 136.412C128.555 138.105 129.961 139.478 131.697 139.478Z" fill="#DBA53B"/>
<path d="M132.051 138.506C133.475 138.506 134.629 137.38 134.629 135.99C134.629 134.601 133.475 133.475 132.051 133.475C130.627 133.475 129.472 134.601 129.472 135.99C129.472 137.38 130.627 138.506 132.051 138.506Z" fill="#FFBD3B"/>
<path d="M120.777 140.448C122.682 140.448 124.226 138.941 124.226 137.082C124.226 135.224 122.682 133.717 120.777 133.717C118.872 133.717 117.328 135.224 117.328 137.082C117.328 138.941 118.872 140.448 120.777 140.448Z" fill="#30384D"/>
<path d="M121.471 139.478C123.206 139.478 124.613 138.105 124.613 136.412C124.613 134.719 123.206 133.346 121.471 133.346C119.736 133.346 118.329 134.719 118.329 136.412C118.329 138.105 119.736 139.478 121.471 139.478Z" fill="#4369B6"/>
<path d="M121.825 138.506C123.249 138.506 124.403 137.38 124.403 135.99C124.403 134.601 123.249 133.475 121.825 133.475C120.401 133.475 119.246 134.601 119.246 135.99C119.246 137.38 120.401 138.506 121.825 138.506Z" fill="#4573D2"/>
</g>
<defs>
<clipPath id="clip0_69_7052">
<rect width="254" height="238.76" fill="white"/>
</clipPath>
</defs>
</svg>
