<svg width="254" height="236" viewBox="0 0 254 236" fill="none" xmlns="http://www.w3.org/2000/svg">
<g clip-path="url(#clip0_9_51035)">
<mask id="mask0_9_51035" style="mask-type:alpha" maskUnits="userSpaceOnUse" x="0" y="32" width="255" height="204">
<path d="M41.1905 43.3384C-0.680329 67.4943 -11.7674 169.8 13.1844 212.752C32.0615 245.245 184.369 240.991 220.549 215.74C249.255 195.704 289.509 147.693 194.054 136.805C129.42 129.423 126.348 -5.7928 41.1905 43.3384Z" fill="#F6F6F6"/>
</mask>
<g mask="url(#mask0_9_51035)">
<path d="M41.191 43.3384C-0.679841 67.4943 -11.767 169.8 13.1848 212.752C32.062 245.245 184.369 240.991 220.55 215.74C249.255 195.704 289.509 147.693 194.054 136.805C129.42 129.423 126.348 -5.7928 41.191 43.3384Z" fill="#BEBEBE" fill-opacity="0.14"/>
<path d="M184.738 164.335C187.882 196.377 183.365 288.8 181.626 351.883C181.626 351.883 165.809 350.943 166.491 350.135C167.173 349.327 152.827 207.215 152.827 207.215C152.827 207.215 149.101 256.926 150.439 273.09C151.777 289.254 165.11 332.521 165.11 332.521L147.547 335.681L128.408 280.333C127.559 277.706 127.026 274.988 126.821 272.235C125.352 252.468 120.09 167.104 122.556 160.699C125.351 153.435 165.694 154.334 165.881 153.568C166.068 152.802 184.738 164.335 184.738 164.335Z" fill="#444C61"/>
<path d="M132.906 169.223L132.567 224.942L121.095 222.27L122.258 165.225L132.906 169.223Z" fill="#30384D"/>
<path d="M253.439 179.547L-94.814 231.845L-5.87025 290.75L388.282 216.311L253.439 179.547Z" fill="#CED3DF"/>
<path d="M52.3151 36.0643L49.9717 50.8828L70.1477 54.0833L72.4911 39.2648L52.3151 36.0643Z" fill="#A4A4A4" fill-opacity="0.4"/>
<path d="M104.244 42.4701L83.8984 44.25L85.2017 59.1936L105.548 57.4137L104.244 42.4701Z" fill="#A4A4A4" fill-opacity="0.4"/>
<path d="M39.4012 62.916H19.0527V77.5478H39.4012V62.916Z" fill="#A4A4A4" fill-opacity="0.4"/>
<path d="M66.9553 85.61L46.7793 88.8105L49.1227 103.629L69.2987 100.429L66.9553 85.61Z" fill="#A4A4A4" fill-opacity="0.4"/>
<path d="M54.7319 60.3674L52.9043 75.2656L73.1888 77.7616L75.0164 62.8634L54.7319 60.3674Z" fill="#A4A4A4" fill-opacity="0.4"/>
<path d="M98.5238 69.3917L78.208 71.541L79.7818 86.4624L100.098 84.313L98.5238 69.3917Z" fill="#A4A4A4" fill-opacity="0.4"/>
<path d="M134.509 51.364L114.333 54.5645L116.676 69.383L136.852 66.1825L134.509 51.364Z" fill="#A4A4A4" fill-opacity="0.4"/>
<path d="M76.3608 209.986L248.208 241.588L388.281 216.308L132.482 194.062L76.3608 209.986Z" fill="#B0B5C0"/>
</g>
<path opacity="0.18" d="M145.623 69.8456C145.623 69.8456 151.812 66.2511 151.857 60.1685L144.973 58.3262L145.623 69.8456Z" fill="#444C61"/>
<path d="M102.345 128.743C102.424 127.072 102.92 125.447 103.788 124.018C104.656 122.589 105.868 121.4 107.314 120.561C108.391 119.899 109.655 119.607 110.913 119.731C112.171 119.854 113.354 120.385 114.283 121.244C117.06 123.539 118.598 124.59 118.114 128.164C116.789 137.967 116.669 159.32 116.684 168.749C118.101 170.691 122.729 177.228 123.355 180.596C124.096 184.577 124.122 195.864 124.122 195.864C124.122 195.864 121.341 198.034 120.032 191.53C118.723 185.025 118.517 186.904 118.517 186.904C118.517 186.904 116.219 191.53 111.488 187.723C107.899 184.841 108.308 175.778 108.714 171.564C101.224 158.879 101.753 137.49 102.345 128.743Z" fill="#B5896B"/>
<path d="M121.723 99.2969C121.723 99.2969 132.998 116.986 132.847 125.855C132.695 134.724 129.991 139.345 132.521 148.438C135.05 157.53 132.906 169.223 132.906 169.223C132.906 169.223 125.88 168.482 122.26 165.231C120.973 164.075 121.723 99.2969 121.723 99.2969Z" fill="#DBA53B"/>
<path opacity="0.997" d="M124.88 67.3923C130.455 64.1693 145.51 59.7582 145.51 59.7582C147.273 59.1346 149.151 58.9016 151.013 59.0754C151.013 59.0754 163.012 59.0754 164.203 59.5698L184.793 67.2899C184.954 67.3554 185.106 67.4346 185.263 67.507C188.147 68.6651 193.371 71.1055 196.68 74.6891C199.788 78.0554 202.46 83.3419 204.154 90.9787C209.136 113.438 213.275 138.966 210.95 146.997C207.226 156.984 194.849 139.819 195.014 137.327C195.224 134.175 192.519 124.965 189.178 114.993C187.179 135.333 185.087 158.841 185.224 167.15C185.36 176.207 119.404 171.58 121.788 163.437C125.118 152.057 132.375 126.974 125.825 107.666C122.144 116.325 118.941 124.361 118.116 128.167C115.469 127.298 112.707 126.83 109.922 126.78C106.132 126.808 102.101 127.178 102.101 127.178C100.994 91.4471 115.631 73.1417 124.88 67.3923Z" fill="#FFBD3B"/>
<path d="M105.063 126.955C104.763 124.446 108.617 105.787 116.107 96.0498C120.381 90.4915 114.843 80.7693 128.322 74.5555C134.13 71.8775 138.097 73.773 145.62 69.844L147.552 59.0156C142.307 59.0074 126.611 66.3138 124.878 67.3926C115.631 73.1421 100.994 91.4475 102.098 127.173L105.063 126.955Z" fill="#DBA53B"/>
<path d="M166.708 56.7604C166.708 56.7604 166.994 67.2843 166.106 70.3789C164.053 77.5309 146.01 78.7217 145.517 68.4751C145.495 68.0245 144.746 52.8027 144.746 52.8027L166.708 56.7604Z" fill="#A7795A"/>
<path d="M169.202 40.4952C169.202 40.4952 172.454 38.3825 172.591 42.0835C172.683 44.5594 170.969 49.1385 168.82 48.6141C168.82 48.6141 167.74 56.7903 166.489 58.6517C165.239 60.5131 162.865 68.4845 154.176 68.3124C146.787 68.1595 142.26 54.3321 142.26 54.3321L141.306 48.8421C141.306 48.8421 138.46 49.0784 138.138 43.3877C137.898 39.176 139.941 39.7222 139.941 39.7222L142.163 27.6197L161.69 26L169.202 40.4952Z" fill="#B5896B"/>
<path opacity="0.18" d="M149.527 66.3507C144.934 62.5009 142.26 54.3328 142.26 54.3328L141.306 48.8428C141.306 48.8428 138.46 49.0791 138.138 43.3884C137.898 39.1766 139.941 39.7229 139.941 39.7229L142.163 27.6204L147.866 27.1465C147.191 35.1768 147.105 43.2459 147.611 51.2887C148.306 58.8614 149.527 66.3507 149.527 66.3507Z" fill="#A7795A"/>
<path d="M168.99 23.3146C168.99 23.3146 176.989 21.8615 171.963 33.0108C170.556 36.1817 169.476 39.4877 168.738 42.8777C168.718 42.9439 168.677 43.0013 168.62 43.04C168.562 43.0787 168.494 43.0963 168.425 43.0899C168.356 43.0834 168.292 43.0533 168.243 43.0046C168.194 42.956 168.164 42.8918 168.157 42.8231C168.043 40.018 165.603 35.0238 158.862 37.9463C151.603 41.0873 147.445 35.6943 142.997 38.0829C141.47 38.9023 142.142 42.356 141.889 44.436C141.873 44.5312 141.826 44.6184 141.755 44.6843C141.685 44.7503 141.595 44.7914 141.499 44.8015C141.403 44.8115 141.306 44.7899 141.224 44.74C141.141 44.69 141.077 44.6145 141.041 44.5247C139.541 40.3663 134.998 32.216 136.854 31.2327C139.37 29.8998 136.55 25.0872 136.011 23.5932C135.329 21.7126 139.218 22.5921 140.511 20.7253C142.648 17.647 141.303 13.8409 146.283 15.1902C149.365 16.0246 151.689 13.1103 153.818 12.8126C157.519 12.2964 158.637 15.589 164.793 15.9782C169.238 16.2527 168.99 23.3146 168.99 23.3146Z" fill="#444C61"/>
<path d="M149.872 20.6437C144.307 20.2668 150.826 26.131 145.667 27.8408C138.965 30.0614 147.606 37.7105 147.123 37.5903C145.893 37.344 144.618 37.4447 143.441 37.8812C141.914 38.7006 142.143 42.3565 141.891 44.4364C141.874 44.5316 141.827 44.6188 141.757 44.6847C141.686 44.7507 141.596 44.7918 141.5 44.8019C141.404 44.8119 141.308 44.7903 141.225 44.7404C141.143 44.6904 141.079 44.6149 141.043 44.5251C139.543 40.3667 135 32.2164 136.855 31.2331C139.371 29.9002 136.551 25.0876 136.013 23.5936C135.331 21.713 139.22 22.5925 140.512 20.7257C142.649 17.6475 141.305 13.8413 146.284 15.1906C149.366 16.025 151.691 13.1107 153.819 12.813C157.52 12.2968 159.293 13.1872 164.795 15.9786C168.045 17.6283 161.98 16.0087 157.288 17.0875C154.19 17.7977 153.86 20.9141 149.872 20.6437Z" fill="#30384D"/>
<path d="M86.6135 114.001C86.6135 114.001 84.9936 121.533 87.538 127.391C90.0824 133.25 85.6291 135.144 86.7935 138.704C87.958 142.265 89.8684 146.404 87.099 151.76C82.5188 160.615 71.4807 147.904 69.6072 148.903C67.7337 149.903 80.1066 107.102 80.1066 107.102L86.6135 114.001Z" fill="#30384D"/>
<path d="M46.4555 143.812C47.9398 143.265 49.2716 142.37 50.3392 141.201C51.4068 140.033 52.1792 138.625 52.5916 137.096C53.8188 131.98 54.8387 129.115 54.8387 129.115C53.1038 126.963 51.9795 124.383 51.5841 121.646C51.1887 118.909 51.5367 116.115 52.5916 113.56C55.4673 103.947 59.5457 99.6298 68.5275 99.3294C69.0911 99.3103 69.6474 99.3057 70.1965 99.3157C78.4419 99.4591 85.1957 102.715 86.9192 106.873C88.7573 111.309 86.3083 115.69 86.3083 117.526C86.3083 117.575 86.3083 117.64 86.2974 117.715L86.2906 117.782C86.2906 117.844 86.2783 117.909 86.2688 117.983L86.2579 118.073C86.2456 118.163 86.232 118.263 86.2156 118.369V118.419C86.1951 118.555 86.1733 118.692 86.1474 118.846L86.1338 118.927C86.112 119.055 86.0874 119.19 86.0629 119.336L86.037 119.473C86.0124 119.61 85.9852 119.761 85.9565 119.914L85.9347 120.026C85.8597 120.425 85.7738 120.86 85.6797 121.326L85.6565 121.445C85.6156 121.646 85.5734 121.855 85.5297 122.061L85.5025 122.188C85.3961 122.697 85.2816 123.234 85.1588 123.794L85.1438 123.858C85.0875 124.118 85.0293 124.381 84.9693 124.647L84.9434 124.766C84.9216 124.861 84.9011 124.953 84.8793 125.048V125.057C84.6284 126.172 84.353 127.346 84.0612 128.549C84.2932 129.782 84.6364 130.991 85.0866 132.161C85.8365 134.005 84.2098 134.553 82.5149 134.458C81.8053 137.512 80.7107 140.462 79.2573 143.238C76.882 146.555 73.4268 144.857 70.4719 142.856L66.6308 161.175L43.7993 150.405L46.4555 143.812Z" fill="#EABBAE"/>
<path d="M49.7253 140.984C49.7253 140.984 62.8059 165.674 70.3396 146.857C70.3396 146.857 81.3981 148.573 83.8498 150.407C86.3015 152.242 100.136 167.769 100.136 167.769L93.0743 182.342L89.8685 179.462L87.1196 207.294L38.6614 214.502L37.97 185.493L21.9346 181.143C21.9346 181.143 22.5468 156.541 28.0706 152.038C33.5944 147.535 49.7308 140.986 49.7308 140.986" fill="#8A90A7"/>
<path d="M87.4454 228.762L47.3403 223.517L68.286 216.668L108.391 221.92L87.4454 228.762Z" fill="white"/>
<path d="M80.4515 231.106L46.5562 221.091L75.3477 217.59L77.7681 218.503L98.2992 225.224L80.4515 231.106Z" fill="#30384D"/>
<path d="M78.6369 233.587L45.5283 221.091L66.474 214.242L99.5826 226.738L78.6369 233.587Z" fill="white"/>
<path d="M70.4584 142.863L64.9619 139.598C64.9619 139.598 65.146 153.415 65.4923 153.379C65.9557 153.162 66.3804 152.87 66.7495 152.515C66.9132 152.368 67.0959 152.205 67.2813 152.014C67.4395 151.852 67.5963 151.661 67.7668 151.468C67.9972 151.203 68.2317 150.899 68.4785 150.574C68.8864 150.04 69.2633 149.484 69.6076 148.907C69.9175 148.25 70.1628 147.564 70.3398 146.859L70.4584 142.867V142.863Z" fill="#D1A79C"/>
<path d="M62.9722 119.77C62.9722 119.77 57.053 112.494 56.2635 120.503C56.0185 121.892 56.1925 123.322 56.7633 124.612C57.3341 125.901 58.2757 126.991 59.4679 127.741C59.4679 127.741 64.0631 131.002 56.6849 136.658C54.2141 138.552 64.9344 145.28 59.8115 152.721C56.798 157.091 52.7469 157.408 48.1858 154.305C45.8596 152.723 46.1541 150.452 42.092 150.436C40.4271 150.436 37.8895 150.751 36.1578 147.158C35.3983 145.581 34.3852 138.869 36.9269 135.668C43.1679 127.796 43.3356 123.986 41.852 120.487C39.819 115.695 42.092 111.015 46.1582 106.11C48.9889 102.696 46.2782 100 51.1829 96.6463C55.5081 93.6883 56.8785 96.7488 58.7179 95.3162C60.5574 93.8836 61.8282 91.3749 67.9111 92.6859C71.3036 93.4165 69.411 94.7085 75.9438 94.2496C79.305 94.0147 83.1202 96.5262 84.6706 100.259C85.5187 102.307 87.5341 101.078 88.7613 103.126C89.9885 105.175 92.9188 110.774 90.7739 115.102C88.6917 119.281 86.0696 120.179 86.3041 117.533C87.1223 108.383 78.0805 104.137 78.0396 106.725C77.8528 118.388 71.924 115.91 70.2387 115.099C68.376 114.202 68.6978 117.268 67.2675 118.388C65.9588 119.168 64.49 119.641 62.9722 119.77Z" fill="#444C61"/>
<path d="M62.9722 119.769C62.9722 119.769 57.0529 112.493 56.2634 120.503C56.0184 121.891 56.1924 123.322 56.7632 124.611C57.334 125.9 58.2756 126.99 59.4678 127.741C59.4678 127.741 64.063 131.002 56.6848 136.657C54.214 138.551 64.9343 145.28 59.8114 152.72C56.798 157.09 52.7468 157.407 48.1857 154.304C45.8595 152.723 46.154 150.452 42.092 150.435C40.4271 150.435 37.8895 150.751 36.1577 147.158C35.7991 146.412 40.6875 153.576 45.9045 147.368C46.3585 146.822 47.6076 146.032 49.8506 148.126C52.335 150.448 55.5598 143.428 51.7787 140.984C47.4289 138.172 53.9413 134.051 52.3378 131.007C47.9007 122.583 48.7598 116.362 54.0449 116.974C58.272 117.461 56.1121 113.164 54.9367 108.052C53.9427 103.728 63.4167 104.588 61.2159 99.9561C60.0091 97.4146 64.8075 95.9165 66.647 94.4839C68.4864 93.0513 74.2147 99.8209 78.9708 97.9746C82.1138 96.755 83.1201 96.5256 84.6664 100.258C85.5145 102.306 87.5299 101.077 88.7571 103.126C89.9843 105.174 92.9146 110.774 90.7697 115.101C88.6916 119.28 86.0695 120.179 86.3041 117.532C87.1222 108.382 78.0804 104.136 78.0395 106.724C77.8527 118.387 71.9239 115.91 70.2386 115.099C68.376 114.201 68.6978 117.267 67.2674 118.387C65.9587 119.168 64.49 119.64 62.9722 119.769Z" fill="#30384D"/>
<path d="M119.405 216.093C118.618 215.554 75.5825 209.878 68.8547 208.992C68.5828 208.956 68.3239 208.854 68.101 208.694C67.8781 208.535 67.6981 208.322 67.577 208.076C67.4653 207.85 67.4055 207.603 67.402 207.351C67.3985 207.1 67.4514 206.851 67.5567 206.623C67.662 206.394 67.8171 206.193 68.0106 206.032C68.2041 205.872 68.431 205.757 68.6747 205.697L122.586 192.287C122.586 192.287 160.926 197.709 160.073 197.923C159.219 198.138 119.405 216.093 119.405 216.093Z" fill="#30384D"/>
<path d="M39.4889 183.798L40.0848 174.969L43.2551 194.735L38.5522 194.759L38.3804 183.738L39.4889 183.798Z" fill="#7B8093"/>
<path d="M74.9458 168.482C82.6199 178.569 81.4186 186.329 76.3666 191.716L88.5282 190.397L89.8686 179.461L93.0743 182.341L100.136 167.768L83.8498 150.406C83.8498 150.406 80.3905 148.128 70.3396 146.855C69.7706 148.685 68.8022 150.364 67.5048 151.772C67.4544 151.828 67.3684 151.936 67.2935 152.008C67.0876 152.203 66.8844 152.418 66.6567 152.606C66.2899 152.897 65.9005 153.157 65.4922 153.385C65.4922 153.385 67.108 158.181 74.9458 168.482Z" fill="#7B8093"/>
<path d="M99.7882 168.482L111.843 178.042L119.813 183.682C120.242 183.503 120.708 183.431 121.171 183.472C121.634 183.514 122.079 183.667 122.47 183.92C123.9 184.78 130.031 186.879 130.44 188.388C130.849 189.897 133.504 192.895 132.485 194.057C132.172 194.403 131.794 194.683 131.373 194.882C130.952 195.081 130.496 195.196 130.031 195.218L122.667 191.542C122.667 191.542 125.733 195.831 124.713 197.06C123.693 198.289 122.785 197.88 121.092 195.628C119.4 193.376 116.949 189.482 116.54 190.511C116.13 191.539 118.007 191.945 117.767 194.061C117.527 196.178 118.38 198.629 116.745 197.749C115.111 196.868 111.428 196.383 111.228 194.061C111.029 191.74 105.092 189.282 105.092 189.282C105.092 189.282 104.667 192.629 93.3345 181.783L99.7882 168.482Z" fill="#EABBAE"/>
<path d="M140.858 151.105L119.409 216.093L160.073 197.929L178.013 149.253C178.086 149.056 178.109 148.845 178.082 148.638C178.055 148.43 177.977 148.233 177.856 148.062C177.735 147.891 177.575 147.752 177.388 147.658C177.202 147.563 176.995 147.516 176.786 147.52L144.76 148.222C143.892 148.239 143.05 148.526 142.351 149.042C141.652 149.558 141.131 150.279 140.858 151.105Z" fill="#444C61"/>
<path fill-rule="evenodd" clip-rule="evenodd" d="M77.9365 230.716L92.5498 225.973L92.5846 226.08L77.9713 230.823L77.9365 230.716Z" fill="#8A90A7"/>
<path fill-rule="evenodd" clip-rule="evenodd" d="M74.8643 229.616L89.4775 224.873L89.5123 224.98L74.899 229.723L74.8643 229.616Z" fill="#8A90A7"/>
<path fill-rule="evenodd" clip-rule="evenodd" d="M72.1494 228.604L86.7627 223.861L86.7974 223.969L72.1842 228.712L72.1494 228.604Z" fill="#8A90A7"/>
<path fill-rule="evenodd" clip-rule="evenodd" d="M69.042 227.657L83.6553 222.914L83.69 223.021L69.0767 227.764L69.042 227.657Z" fill="#8A90A7"/>
<path fill-rule="evenodd" clip-rule="evenodd" d="M65.4746 226.481L80.0879 221.738L80.1226 221.846L65.5094 226.589L65.4746 226.481Z" fill="#8A90A7"/>
<path d="M94.7978 221.79L74.8818 227.076L75.4431 229.198L95.3591 223.912L94.7978 221.79Z" fill="#E2E5EC"/>
<path d="M95.0786 222.853L75.1626 228.139L75.4434 229.2L95.3594 223.914L95.0786 222.853Z" fill="#B0B5C0"/>
<path d="M71.5601 229.093L74.8817 227.076L75.4435 229.198L71.5601 229.093Z" fill="#F6F6F6"/>
<path d="M71.5327 228.99L73.3053 227.953L73.5862 229.013L71.5327 228.99Z" fill="#30384D"/>
<path d="M94.7964 221.785L95.9281 221.485C95.9743 221.473 96.0225 221.47 96.0699 221.476C96.1173 221.482 96.163 221.498 96.2043 221.522C96.2456 221.546 96.2818 221.578 96.3106 221.616C96.3395 221.655 96.3606 221.698 96.3727 221.744L96.7476 223.162C96.7722 223.255 96.7589 223.354 96.7106 223.438C96.6623 223.521 96.5829 223.582 96.4899 223.607L95.3582 223.908L94.7964 221.785Z" fill="#C98A30"/>
<path d="M26.0209 212C31.947 219.982 76.2886 201.562 85.0754 201.562C85.0754 201.562 94.0667 202.791 97.3365 201.972C100.606 201.152 109.392 203.814 111.436 203.814C113.48 203.814 114.909 202.994 111.436 201.356C107.963 199.717 103.67 197.668 102.444 197.668H103.672C107.965 198.836 112.166 200.316 116.244 202.097C117.261 202.659 118.433 202.876 119.584 202.717C120.655 202.544 121.563 202.088 120.836 200.942C119.406 198.69 114.7 191.747 112.867 191.535C112.867 191.535 105.307 186.825 103.876 186.822C102.446 186.82 94.8576 189.723 91.8195 190.1C88.7815 190.477 84.0554 191.547 80.5811 191.541C77.1067 191.534 62.8971 193.093 60.0363 193.503C57.1756 193.913 37.7585 195.37 38.5548 194.755L38.3816 183.735L22.417 181.215C22.417 181.215 20.0949 204.019 26.0209 212Z" fill="#EABBAE"/>
<path d="M25.0913 210.489C28.9118 211.555 32.9295 211.703 36.8179 210.922C45.2025 209.133 56.0823 202.661 62.4256 202.264C75.2949 201.459 83.4135 196.499 85.2652 197.611C88.7805 199.719 97.8441 196.861 98.9227 197.611C100.001 198.361 113.034 202.294 113.034 202.294C113.034 202.294 114.235 203.501 112.64 203.695C110.486 203.956 105.004 202.945 100.142 201.869L97.3491 202.089C93.8857 202.362 88.0646 202.498 85.0771 201.562C85.0771 201.562 54.397 209.727 50.9226 210.74C47.9446 211.609 43.3876 212.606 40.1818 213.186C37.7165 213.633 36.1416 213.776 36.1416 213.776C34.1706 213.996 32.1834 214.03 30.206 213.879C28.8949 213.776 27.6352 213.324 26.5585 212.568C25.8974 212.014 25.3917 211.298 25.0913 210.489Z" fill="#D1A79C"/>
<path d="M204.515 149.061C212.737 154.234 200.184 138.185 199.92 126.462C199.691 116.278 192.087 112.463 191.219 110.093C187.453 99.8247 189.118 117.733 189.118 117.733L194.99 137.797C196.896 142.466 200.231 146.409 204.515 149.061Z" fill="#DBA53B"/>
<path d="M193.248 101.512C190.749 100.33 188.784 98.2525 187.739 95.69C187.739 95.69 184.126 88.6691 185.558 85.2645C185.558 85.2645 187.656 81.3928 189.839 82.5632C189.839 82.5632 190.214 80.8424 190.488 79.22C190.762 77.5976 190.437 63.4179 194.242 62.1943C194.242 62.1943 196.574 60.5363 195.784 68.0584C194.995 75.5805 195.307 77.1961 195.307 77.1961C195.307 77.1961 197.677 78.6396 198.863 79.5082C200.032 80.308 200.88 81.4976 201.255 82.865C202.038 82.8108 202.817 83.0245 203.463 83.4711C204.109 83.9176 204.585 84.5706 204.813 85.3232C204.813 85.3232 207.471 86.3215 207.057 88.5339C206.086 91.8419 204.948 95.0986 203.648 98.2915L203.817 100.089C203.817 100.089 208.444 116.774 212.068 125.864C213.628 130.142 214.333 134.685 214.141 139.236C213.891 142.923 209.751 152.98 205.462 150.677C201.172 148.375 195.476 139.464 195.581 135.928C195.686 132.392 193.248 101.512 193.248 101.512Z" fill="#B5896B"/>
<path opacity="0.18" d="M193.266 101.492C194.425 102.108 195.67 102.545 196.96 102.79C196.96 102.79 195.323 105.985 197.632 111.53C199.94 117.074 201.075 128.827 201.792 136.329C202.509 143.831 207.462 150.981 209.155 149.93C208.537 150.509 207.729 150.842 206.883 150.867C206.036 150.892 205.21 150.608 204.559 150.066C202.311 148.078 195.815 141.045 195.601 135.9C195.387 130.756 193.266 101.492 193.266 101.492Z" fill="#A7795A"/>
<path d="M204.218 25.7844C204.218 24.1691 203.832 22.5771 203.092 21.1419C202.352 19.7066 201.279 18.4697 199.964 17.5347C198.649 16.5997 197.129 15.9938 195.532 15.7676C193.935 15.5414 192.307 15.7016 190.785 16.2347C189.262 16.7679 187.889 17.6584 186.781 18.8319C185.672 20.0054 184.861 21.4277 184.414 22.9798C183.967 24.5319 183.897 26.1686 184.211 27.7531C184.525 29.3375 185.214 30.8236 186.219 32.087C186.492 32.5144 186.869 33.114 187.302 33.8528C188.26 36.0365 188.832 38.3707 188.991 40.7508C189.017 41.2707 189.241 41.7607 189.618 42.1194C189.995 42.4781 190.495 42.678 191.014 42.6777C192.02 42.9359 193.052 43.0734 194.089 43.0874C195.112 43.0757 196.129 42.9381 197.118 42.6777C197.638 42.678 198.138 42.4781 198.514 42.1194C198.891 41.7607 199.115 41.2707 199.141 40.7508C199.36 38.3573 200.001 36.0217 201.035 33.8528C201.938 32.3137 202.535 31.3645 202.535 31.3645C203.633 29.7114 204.219 27.77 204.218 25.7844Z" fill="#FFBD3B"/>
<path fill-rule="evenodd" clip-rule="evenodd" d="M194.617 0.107422C194.81 0.107422 194.965 0.263317 194.965 0.455623V9.25188C194.965 9.44419 194.81 9.60008 194.617 9.60008C194.425 9.60008 194.27 9.44419 194.27 9.25188V0.455623C194.27 0.263317 194.425 0.107422 194.617 0.107422Z" fill="#30384D"/>
<path fill-rule="evenodd" clip-rule="evenodd" d="M182.41 3.32986C182.576 3.23376 182.789 3.29088 182.885 3.45745L187.276 11.0751C187.372 11.2417 187.315 11.4546 187.148 11.5508C186.982 11.6469 186.769 11.5897 186.673 11.4232L182.282 3.80547C182.186 3.6389 182.244 3.42596 182.41 3.32986Z" fill="#30384D"/>
<path fill-rule="evenodd" clip-rule="evenodd" d="M173.448 12.2347C173.544 12.0681 173.757 12.0111 173.923 12.1073L181.529 16.5047C181.696 16.6009 181.753 16.8139 181.656 16.9804C181.56 17.1469 181.348 17.204 181.181 17.1078L173.575 12.7103C173.409 12.6141 173.352 12.4012 173.448 12.2347Z" fill="#30384D"/>
<path fill-rule="evenodd" clip-rule="evenodd" d="M215.685 12.4065C215.781 12.5731 215.724 12.786 215.558 12.8822L207.952 17.2796C207.786 17.3758 207.573 17.3188 207.477 17.1523C207.381 16.9858 207.438 16.7728 207.604 16.6766L215.21 12.2792C215.376 12.183 215.589 12.24 215.685 12.4065Z" fill="#30384D"/>
<path fill-rule="evenodd" clip-rule="evenodd" d="M206.796 3.43142C206.962 3.52752 207.019 3.74046 206.923 3.90703L202.533 11.5247C202.437 11.6913 202.224 11.7484 202.057 11.6523C201.891 11.5562 201.834 11.3433 201.93 11.1767L206.321 3.55902C206.417 3.39244 206.629 3.33532 206.796 3.43142Z" fill="#30384D"/>
<path fill-rule="evenodd" clip-rule="evenodd" d="M191.65 31.8832C191.738 31.921 191.779 32.0232 191.741 32.1114C191.588 32.4701 191.526 32.8613 191.562 33.2498C191.597 33.6373 191.728 34.0099 191.943 34.3341C192.159 34.6363 192.32 35.1435 192.444 35.7434C192.569 36.3529 192.662 37.0846 192.727 37.8538C192.856 39.3925 192.878 41.096 192.836 42.3025C192.833 42.3984 192.753 42.4735 192.657 42.4702C192.561 42.4669 192.486 42.3864 192.489 42.2904C192.531 41.0961 192.509 39.4065 192.38 37.8831C192.316 37.1212 192.225 36.4045 192.104 35.8137C191.98 35.2153 191.83 34.7715 191.659 34.5346L191.655 34.5293L191.655 34.5292C191.408 34.1563 191.256 33.7275 191.216 33.2815C191.175 32.8355 191.246 32.3863 191.422 31.9746C191.46 31.8864 191.562 31.8454 191.65 31.8832Z" fill="white"/>
<path fill-rule="evenodd" clip-rule="evenodd" d="M192.008 25.69C192.005 25.6977 192.001 25.7062 191.997 25.7154C191.952 25.8176 191.908 25.9754 191.87 26.1824C191.795 26.5939 191.751 27.1679 191.77 27.805L191.77 27.8081C191.778 28.477 191.867 29.1425 192.037 29.7895C192.059 29.8661 192.092 29.9552 192.134 30.0502C192.198 29.7655 192.245 29.4767 192.275 29.1852C192.316 28.7193 192.33 28.2514 192.316 27.7839C192.297 27.1474 192.236 26.5758 192.151 26.1681C192.109 25.9629 192.062 25.8078 192.017 25.7084C192.014 25.7018 192.011 25.6957 192.008 25.69ZM192.003 30.548C191.857 31.0369 191.659 31.5103 191.413 31.9602C191.367 32.0444 191.398 32.15 191.482 32.1961C191.566 32.2423 191.672 32.2114 191.718 32.1272C191.933 31.7341 192.113 31.3238 192.255 30.9013C192.493 31.183 192.815 31.4346 193.191 31.4281C193.425 31.4241 193.613 31.2732 193.753 31.1029C193.839 30.9984 193.917 30.8751 193.986 30.745C194.054 30.8833 194.131 31.0142 194.218 31.1231C194.364 31.3068 194.574 31.4721 194.84 31.4256C195.215 31.3601 195.532 31.0397 195.759 30.7319C195.927 31.2234 196.142 31.7 196.403 32.1547C196.45 32.238 196.556 32.2668 196.64 32.2191C196.723 32.1714 196.752 32.0651 196.704 31.9818C196.408 31.4656 196.174 30.92 196.003 30.3561C196.114 30.1622 196.196 29.9831 196.241 29.862L196.243 29.8561C196.469 29.1762 196.592 28.466 196.605 27.7495C196.629 27.1154 196.596 26.5348 196.523 26.1069C196.486 25.8942 196.439 25.7102 196.379 25.5743C196.349 25.5068 196.312 25.442 196.265 25.3911C196.217 25.3399 196.146 25.2896 196.052 25.2861C195.959 25.2826 195.884 25.3276 195.833 25.3754C195.782 25.4228 195.741 25.4849 195.707 25.5501C195.637 25.6812 195.577 25.8614 195.526 26.0708C195.424 26.4924 195.35 27.0693 195.327 27.7033C195.287 28.5864 195.389 29.4657 195.627 30.308C195.582 30.3794 195.534 30.4517 195.482 30.522C195.262 30.8215 195.014 31.0423 194.781 31.0831C194.707 31.096 194.611 31.0593 194.489 30.9067C194.374 30.7613 194.269 30.5495 194.179 30.3201C194.334 29.925 194.428 29.5434 194.449 29.4321L194.45 29.4264C194.537 28.864 194.584 28.2961 194.589 27.727L194.589 27.7255C194.589 27.0918 194.54 26.5136 194.462 26.09C194.423 25.8795 194.375 25.6988 194.318 25.5666C194.29 25.5012 194.255 25.4379 194.212 25.3881C194.169 25.3395 194.098 25.2832 193.999 25.2832C193.901 25.2832 193.83 25.3397 193.787 25.3886C193.743 25.4385 193.709 25.5019 193.681 25.5673C193.625 25.6996 193.578 25.8803 193.54 26.0907C193.463 26.5139 193.417 27.0915 193.417 27.7244C193.41 28.2965 193.456 28.8679 193.555 29.4313L193.556 29.4359L193.727 29.4011C193.556 29.4359 193.556 29.4359 193.556 29.4359L193.557 29.4378L193.558 29.4425L193.561 29.46C193.565 29.4751 193.57 29.4969 193.576 29.5246C193.589 29.5798 193.607 29.6582 193.632 29.7519C193.673 29.9081 193.732 30.1085 193.806 30.3147C193.802 30.3232 193.799 30.3317 193.795 30.3402C193.704 30.5505 193.599 30.7436 193.485 30.882C193.368 31.0243 193.267 31.0791 193.185 31.0805C192.954 31.0845 192.705 30.9116 192.481 30.6279C192.446 30.584 192.413 30.5387 192.381 30.4925C192.496 30.0767 192.576 29.6508 192.62 29.2193L192.62 29.2172C192.663 28.7373 192.678 28.2552 192.663 27.7736M194 29.7786C194.059 29.5835 194.096 29.4287 194.108 29.3701C194.192 28.8256 194.237 28.2757 194.241 27.7247C194.241 27.1064 194.194 26.5506 194.12 26.1533C194.083 25.9543 194.042 25.8033 194 25.7058C193.959 25.8033 193.918 25.954 193.882 26.1526C193.81 26.5503 193.764 27.1065 193.764 27.7255V27.7275C193.757 28.2774 193.802 28.8268 193.897 29.3684L193.898 29.3711L193.901 29.3865C193.904 29.4002 193.908 29.4206 193.914 29.4467C193.926 29.4988 193.944 29.5735 193.968 29.6629C193.978 29.6993 193.988 29.738 194 29.7786ZM195.869 29.8546C195.887 29.813 195.903 29.7755 195.915 29.7434C196.129 29.0971 196.245 28.4221 196.258 27.7412L196.258 27.7381C196.281 27.1205 196.248 26.5641 196.18 26.1654C196.146 25.9647 196.104 25.8129 196.061 25.7151C196.053 25.697 196.045 25.682 196.039 25.6696C196.031 25.6813 196.023 25.6954 196.014 25.7126C195.964 25.8068 195.912 25.9552 195.864 26.153C195.768 26.5459 195.696 27.0987 195.674 27.7167L195.674 27.7184C195.641 28.4397 195.707 29.1583 195.869 29.8546ZM192.003 30.548C191.861 30.3137 191.756 30.0724 191.702 29.883L191.701 29.8795C191.525 29.2049 191.431 28.5111 191.423 27.8137C191.404 27.1581 191.448 26.5596 191.528 26.1199C191.568 25.9012 191.618 25.7137 191.678 25.5762C191.708 25.508 191.744 25.4431 191.789 25.3921C191.833 25.3425 191.903 25.2861 192.001 25.2833C192.1 25.2804 192.173 25.3344 192.219 25.3835C192.266 25.4332 192.302 25.4973 192.333 25.5637C192.394 25.698 192.447 25.8825 192.491 26.0977C192.581 26.5309 192.644 27.1236 192.663 27.7736" fill="white"/>
<path fill-rule="evenodd" clip-rule="evenodd" d="M196.487 31.9071C196.576 31.8713 196.677 31.9146 196.713 32.0037C196.877 32.4125 196.941 32.8547 196.9 33.2934C196.859 33.7321 196.714 34.1546 196.477 34.5259C196.475 34.5286 196.474 34.5312 196.472 34.5338C196.301 34.7717 196.148 35.2163 196.021 35.8148C195.895 36.4058 195.799 37.1225 195.729 37.8842C195.59 39.4075 195.558 41.0964 195.599 42.2899C195.602 42.3858 195.527 42.4663 195.431 42.4696C195.335 42.473 195.255 42.3979 195.252 42.3019C195.21 41.0946 195.243 39.3911 195.383 37.8526C195.454 37.0834 195.551 36.3518 195.681 35.7424C195.808 35.1432 195.972 34.6371 196.187 34.335C196.392 34.0113 196.518 33.6431 196.554 33.261C196.59 32.8774 196.534 32.4907 196.39 32.1332C196.355 32.0441 196.398 31.9429 196.487 31.9071Z" fill="white"/>
<path d="M193.933 50.6733C195.711 50.6733 197.152 49.2297 197.152 47.4489C197.152 45.6682 195.711 44.2246 193.933 44.2246C192.155 44.2246 190.713 45.6682 190.713 47.4489C190.713 49.2297 192.155 50.6733 193.933 50.6733Z" fill="#B0B5C0"/>
<path d="M198.722 47.3354C198.712 47.6354 198.614 47.9257 198.442 48.1713C198.269 48.4168 198.03 48.607 197.752 48.7189C196.605 49.2394 195.356 49.4924 194.097 49.459C192.899 49.3237 191.717 49.068 190.57 48.6956C189.821 48.5714 189.435 48.1562 189.493 47.5608C189.517 47.2986 189.336 47.0486 189.322 46.77L189.306 46.4341C189.169 46.2283 189.09 45.9891 189.079 45.7421C189.067 45.4951 189.122 45.2495 189.239 45.0316L189.191 44.0414C189.073 43.8379 189.006 43.609 188.995 43.3739C188.984 43.1389 189.029 42.9046 189.127 42.6908L189.075 41.6133C189.07 41.5704 189.076 41.5269 189.091 41.4864C189.106 41.4459 189.13 41.4095 189.162 41.3804C189.194 41.3512 189.232 41.3299 189.274 41.3184C189.315 41.3069 189.359 41.3055 189.401 41.3142C192.469 42.3864 195.808 42.395 198.882 41.3388C199.399 41.1558 199.477 42.6266 199.119 42.8233L199.04 43.7792C199.127 43.9798 199.163 44.1986 199.145 44.4164C199.127 44.6341 199.055 44.844 198.937 45.0275L198.859 45.9643C198.943 46.1879 198.975 46.428 198.951 46.6659C198.928 46.9038 198.849 47.133 198.722 47.3354Z" fill="#CED3DF"/>
<path d="M199.081 43.7482C195.726 44.3647 192.265 43.9987 189.112 42.6939C189.022 42.6552 188.947 42.5884 188.898 42.5036C188.849 42.4187 188.828 42.3202 188.839 42.2228C188.846 42.1544 188.868 42.0885 188.904 42.03C188.94 41.9715 188.989 41.9219 189.047 41.8851C189.105 41.8483 189.171 41.8251 189.239 41.8173C189.307 41.8096 189.376 41.8175 189.441 41.8404C192.48 42.9527 195.746 43.2979 198.95 42.8455C199.018 42.8369 199.087 42.8438 199.152 42.8657C199.217 42.8876 199.276 42.924 199.325 42.9721C199.374 43.0201 199.412 43.0787 199.435 43.1434C199.458 43.208 199.466 43.2771 199.459 43.3453C199.448 43.4446 199.406 43.5376 199.338 43.6103C199.269 43.6831 199.179 43.7315 199.081 43.7482Z" fill="#B0B5C0"/>
<path d="M198.843 45.9493C195.488 46.5659 192.026 46.1998 188.874 44.8951C188.784 44.8562 188.709 44.7894 188.66 44.7045C188.611 44.6197 188.59 44.5213 188.601 44.4239C188.608 44.3555 188.63 44.2895 188.667 44.231C188.703 44.1725 188.752 44.123 188.81 44.0862C188.868 44.0494 188.933 44.0263 189.002 44.0185C189.07 44.0108 189.139 44.0186 189.204 44.0415C192.243 45.1538 195.508 45.499 198.712 45.0466C198.78 45.038 198.849 45.0449 198.914 45.0668C198.979 45.0887 199.038 45.1251 199.087 45.1732C199.136 45.2213 199.173 45.2799 199.196 45.3445C199.22 45.4092 199.228 45.4782 199.22 45.5465C199.21 45.6458 199.168 45.7389 199.099 45.8117C199.031 45.8845 198.941 45.9328 198.843 45.9493Z" fill="#B0B5C0"/>
<path d="M198.601 48.2424C195.246 48.8589 191.785 48.4928 188.632 47.1881C188.542 47.1493 188.467 47.0826 188.418 46.9977C188.369 46.9128 188.348 46.8144 188.359 46.7169C188.366 46.6485 188.389 46.5826 188.425 46.5241C188.461 46.4656 188.509 46.4161 188.567 46.3792C188.625 46.3424 188.691 46.3192 188.759 46.3115C188.827 46.3037 188.896 46.3116 188.961 46.3345C192 47.4479 195.266 47.7936 198.47 47.341C198.538 47.3321 198.607 47.3388 198.672 47.3606C198.737 47.3823 198.796 47.4185 198.845 47.4665C198.894 47.5145 198.932 47.573 198.955 47.6376C198.978 47.7022 198.986 47.7713 198.979 47.8395C198.968 47.9386 198.925 48.0316 198.857 48.1042C198.789 48.1769 198.699 48.2254 198.601 48.2424Z" fill="#B0B5C0"/>
<path opacity="0.51" d="M199.036 41.3047C199.229 41.5066 199.344 41.7709 199.359 42.05C199.374 42.329 199.289 42.6043 199.119 42.826L199.04 43.782C199.124 43.9833 199.158 44.2016 199.14 44.4187C199.122 44.6359 199.052 44.8455 198.937 45.0302L198.843 45.9548C198.932 46.1791 198.968 46.4214 198.947 46.6622C198.926 46.9029 198.849 47.1354 198.723 47.3409C198.707 47.5785 198.645 47.8107 198.538 48.0238C198.388 48.2783 198.176 48.4902 197.921 48.6397C196.859 49.1478 195.703 49.4269 194.527 49.4591C195.007 48.9726 195.327 48.35 195.442 47.6755C195.558 47.0011 195.463 46.3074 195.172 45.6885C194.649 44.5808 194.465 43.3431 194.643 42.1309C196.143 42.1024 197.628 41.8232 199.036 41.3047Z" fill="#B0B5C0"/>
<g opacity="0.63">
<path d="M199.036 41.3026C199.092 41.1224 199.128 40.9364 199.143 40.7482C199.361 38.3547 200.003 36.0191 201.037 33.8502C201.939 32.3111 202.536 31.3619 202.536 31.3619C203.595 29.7627 198.905 32.3179 197.355 33.943C195.037 36.3849 195.126 37.4788 194.749 40.8274C194.699 41.2808 194.655 41.771 194.633 42.1207C196.131 42.0779 197.614 41.8014 199.027 41.3013" fill="#DBA53B"/>
</g>
</g>
<defs>
<clipPath id="clip0_9_51035">
<rect width="254" height="235.902" fill="white"/>
</clipPath>
</defs>
</svg>
