<svg width="254" height="169" viewBox="0 0 254 169" fill="none" xmlns="http://www.w3.org/2000/svg">
<g clip-path="url(#clip0_9_50984)">
<mask id="mask0_9_50984" style="mask-type:alpha" maskUnits="userSpaceOnUse" x="0" y="0" width="254" height="169">
<path d="M253.223 94.726C243.373 41.7928 187.216 67.0338 138.596 19.9787C89.9765 -27.0764 -0.659579 15.2462 0.00361953 81.9279C0.666818 148.61 41.6884 165.371 109.454 168.065C177.221 170.759 263.077 147.657 253.223 94.726Z" fill="#F6F6F6"/>
</mask>
<g mask="url(#mask0_9_50984)">
<path d="M253.222 94.726C243.372 41.7928 187.215 67.0338 138.596 19.9787C89.976 -27.0764 -0.660068 15.2462 0.00313125 81.9279C0.66633 148.61 41.688 165.371 109.454 168.065C177.22 170.759 263.077 147.657 253.222 94.726Z" fill="#BEBEBE" fill-opacity="0.14"/>
<path d="M48.9755 81.6868C40.632 90.5519 48.1022 141.398 47.146 146.372C46.1897 151.345 44.8501 156.509 44.8501 156.509H107.405C107.405 156.509 109.509 123.99 110.274 119.973C111.039 115.956 122.043 93.7307 115.248 85.3508C106.465 74.5192 98.3804 71.2115 98.3804 71.2115C98.3804 71.2115 70.3188 59.0057 48.9755 81.6868Z" fill="#4573D2"/>
<path d="M110.352 120.027L106.403 110.355C106.403 110.355 105.455 121.377 101.871 128.201C97.4411 136.636 87.9318 143.195 88.0768 149.375C88.234 156.083 106.856 147.706 107.65 149.165L110.352 120.027Z" fill="#4369B6"/>
<path d="M305.961 148.297H-14.0015V231.584H305.961V148.297Z" fill="#CED3DF"/>
<path d="M291 155.93C291 155.93 153.044 154.292 126.945 154.292C100.845 154.292 90.1926 150.032 125.88 150.032C140.221 150.032 291.104 149.252 291.104 149.252L291 155.93Z" fill="#8A90A7"/>
<path d="M320.431 164.232C320.431 164.232 182.475 162.594 156.376 162.594C130.276 162.594 119.623 158.334 155.311 158.334C169.652 158.334 321.293 158.637 321.293 158.637L320.431 164.232Z" fill="#8A90A7"/>
<path d="M35.9545 -5.26768L19.5654 -1.18164L22.562 10.8364L38.9511 6.75034L35.9545 -5.26768Z" fill="#A4A4A4" fill-opacity="0.4"/>
<path d="M57.3361 1.40678L40.6982 4.3457L42.8535 16.5456L59.4913 13.6067L57.3361 1.40678Z" fill="#A4A4A4" fill-opacity="0.4"/>
<path d="M45.9332 27.1992H29.1074V39.2789H45.9332V27.1992Z" fill="#A4A4A4" fill-opacity="0.4"/>
<path d="M64.9218 16.0342L49.0444 21.8105L53.2807 33.4533L69.1581 27.677L64.9218 16.0342Z" fill="#A4A4A4" fill-opacity="0.4"/>
<path d="M85.1935 31.0801H67.9365V43.1598H85.1935V31.0801Z" fill="#A4A4A4" fill-opacity="0.4"/>
<path d="M40.415 46.5401L38.0615 58.7031L54.6483 61.9122L57.0018 49.7492L40.415 46.5401Z" fill="#A4A4A4" fill-opacity="0.4"/>
<path d="M9.98041 11.8937L7.62695 24.0566L24.2138 27.2657L26.5672 15.1027L9.98041 11.8937Z" fill="#A4A4A4" fill-opacity="0.4"/>
<path d="M20.7956 36.5856L4.271 40.084L6.83659 52.2013L23.3611 48.703L20.7956 36.5856Z" fill="#A4A4A4" fill-opacity="0.4"/>
<path d="M55.2088 129.606C55.2088 129.606 56.4891 136.904 70.4981 135.516C73.8826 135.181 76.0898 133.49 83.043 132.764C83.043 132.764 87.9778 137.896 82.4506 142.042C76.9234 146.187 40.798 163.163 38.4291 142.436C36.0601 121.709 55.2088 129.606 55.2088 129.606Z" fill="#D5A882"/>
<path d="M64.4698 147.07C67.5636 145.657 74.1915 138.974 81.1448 138.248C81.1448 138.248 87.9771 137.897 82.4499 142.042C79.0268 144.61 63.9551 151.861 52.3705 152.49C49.6399 152.639 48.8242 152.538 47.3752 152.209C47.3475 152.203 50.8339 153.299 64.4698 147.07Z" fill="#BA8B67"/>
<path d="M78.7549 134.138C82.4894 132.558 86.3572 131.314 90.3125 130.42C92.8415 129.855 97.3596 128.693 100.254 129.693C110.519 133.246 116.402 146.977 112.652 147.964C108.901 148.952 104.362 147.767 96.4644 143.227C96.4644 143.227 94.2422 141.598 89.2619 143.351C85.928 144.524 82.3501 142.437 80.8694 140.463C77.9092 136.515 78.7549 134.138 78.7549 134.138Z" fill="#D5A882"/>
<path d="M90.0383 137.963C92.5673 137.398 97.3715 139.55 99.7992 141.417C108.184 147.864 116.403 146.975 112.652 147.962C108.902 148.949 104.362 147.765 96.4648 143.224C96.4648 143.224 94.2426 141.596 89.2623 143.349C85.9285 144.522 81.548 142.472 80.0644 140.498C77.1042 136.551 83.598 139.403 90.0383 137.963Z" fill="#BA8B67"/>
<path d="M53.607 78.2637C53.607 78.2637 48.333 81.0925 45.5404 85.7473C42.7477 90.4021 30.1193 118.752 39.5946 146.584C39.5946 146.584 48.2835 137.117 58.9425 134.012C58.9425 134.012 65.2751 95.6532 60.9327 86.9677C56.5902 78.2821 53.607 78.2637 53.607 78.2637Z" fill="#4573D2"/>
<path d="M59.617 117.229C57.1456 131.864 48.779 134.851 49.4175 138.505C49.4175 138.505 51.7461 136.726 58.9423 134.015C58.9423 134.015 63.4753 116.531 61.6078 107.66C61.2733 106.071 60.4644 112.209 59.617 117.229Z" fill="#4369B6"/>
<mask id="mask1_9_50984" style="mask-type:alpha" maskUnits="userSpaceOnUse" x="22" y="109" width="39" height="42">
<path fill-rule="evenodd" clip-rule="evenodd" d="M42.576 143.776C45.4091 135.064 49.1143 126.521 54.7321 119.398C54.5398 121.657 53.6544 126.152 53.6544 126.152C52.3849 130.315 50.8046 134.376 48.9268 138.303C47.4196 140.992 46.4076 142.585 45.4433 144.103C44.4682 145.638 43.542 147.096 42.2023 149.534C47.3919 142.101 52.8085 134.636 60.171 129.375C57.7926 137.309 50.6273 143.145 44.0153 148.531L44.0145 148.532C43.2424 149.161 42.4779 149.784 41.7294 150.403C41.6788 150.497 41.6275 150.592 41.5757 150.689L41.5746 150.688L41.5751 150.69L41.5757 150.691L41.5753 150.691L41.5756 150.692L41.5712 150.689L41.4411 150.642L41.4138 150.665L41.4319 150.638C34.0522 147.945 24.9729 142.614 22.1616 135.005C27.279 136.854 30.5344 139.003 33.3362 141.605C30.4114 136.848 28.4027 131.552 27.4486 125.99C26.9599 123.039 27.0204 120.024 27.6271 117.095C28.5522 117.919 29.3046 118.919 29.8407 120.037C32.7865 125.524 35.3296 131.211 37.4528 137.053C36.7652 134.235 36.1828 131.386 35.8563 128.422C35.2196 122.625 35.8862 116.759 37.8073 111.253C39.861 118.896 40.6588 126.774 40.8816 134.701C41.0801 132.838 41.3465 130.98 41.6806 129.133C42.9246 122.175 45.3085 115.471 48.7363 109.289C49.5756 117.605 47.3943 125.481 45.1895 133.443C44.2439 136.858 43.2939 140.289 42.576 143.776Z" fill="#B0B5C0"/>
</mask>
<g mask="url(#mask1_9_50984)">
<path fill-rule="evenodd" clip-rule="evenodd" d="M42.576 143.776C45.4091 135.064 49.1143 126.521 54.7321 119.398C54.5398 121.657 53.6544 126.152 53.6544 126.152C52.3849 130.315 50.8046 134.376 48.9268 138.303C47.4196 140.992 46.4076 142.585 45.4433 144.103C44.4682 145.638 43.542 147.096 42.2023 149.534C47.3919 142.101 52.8085 134.636 60.171 129.375C57.7926 137.309 50.6273 143.145 44.0153 148.531L44.0145 148.532C43.2424 149.161 42.4779 149.784 41.7294 150.403C41.6788 150.497 41.6275 150.592 41.5757 150.689L41.5746 150.688L41.5751 150.69L41.5757 150.691L41.5753 150.691L41.5756 150.692L41.5712 150.689L41.4411 150.642L41.4138 150.665L41.4319 150.638C34.0522 147.945 24.9729 142.614 22.1616 135.005C27.279 136.854 30.5344 139.003 33.3362 141.605C30.4114 136.848 28.4027 131.552 27.4486 125.99C26.9599 123.039 27.0204 120.024 27.6271 117.095C28.5522 117.919 29.3046 118.919 29.8407 120.037C32.7865 125.524 35.3296 131.211 37.4528 137.053C36.7652 134.235 36.1828 131.386 35.8563 128.422C35.2196 122.625 35.8862 116.759 37.8073 111.253C39.861 118.896 40.6588 126.774 40.8816 134.701C41.0801 132.838 41.3465 130.98 41.6806 129.133C42.9246 122.175 45.3085 115.471 48.7363 109.289C49.5756 117.605 47.3943 125.481 45.1895 133.443C44.2439 136.858 43.2939 140.289 42.576 143.776Z" fill="#B0B5C0"/>
<path fill-rule="evenodd" clip-rule="evenodd" d="M60.084 126.02C49.1441 118.533 34.2722 120.843 23.0854 126.704C23.08 126.706 23.0742 126.707 23.0685 126.707C23.0627 126.707 23.057 126.706 23.0516 126.704C23.0463 126.702 23.0415 126.698 23.0375 126.694C23.0334 126.69 23.0302 126.685 23.0281 126.68C23.0259 126.674 23.0248 126.669 23.0249 126.663C23.025 126.657 23.0262 126.651 23.0284 126.646C23.0307 126.641 23.034 126.636 23.0381 126.632C23.0423 126.628 23.0472 126.625 23.0525 126.622C28.6731 123.411 34.9448 121.506 41.4022 121.049C47.6698 120.598 55.49 121.184 60.2849 125.789C60.4127 125.914 60.2239 126.115 60.084 126.02ZM32.3689 124.694C32.3742 124.696 32.3797 124.696 32.3852 124.695C32.3906 124.694 32.3958 124.692 32.4004 124.689C32.4051 124.686 32.4092 124.683 32.4124 124.678C32.4156 124.674 32.4179 124.669 32.4192 124.663C32.4219 124.654 32.4209 124.644 32.4164 124.635C32.412 124.626 32.4044 124.619 32.3952 124.615C32.3897 124.614 32.384 124.614 32.3784 124.614C32.3728 124.615 32.3675 124.617 32.3627 124.62C32.3579 124.623 32.3538 124.627 32.3505 124.632C32.3472 124.637 32.3449 124.642 32.3437 124.647C32.3418 124.657 32.3433 124.667 32.3479 124.675C32.3525 124.684 32.3599 124.691 32.3689 124.694ZM65.0194 135.96C52.8359 130.22 39.0689 128.769 25.9563 131.843C25.8625 131.866 25.8342 131.72 25.9264 131.693C39.0612 128.213 53.0105 129.585 65.2157 135.557C65.4425 135.672 65.2497 136.064 65.0194 135.96ZM25.7999 134.023C31.2258 131.764 37.7513 131.564 43.5376 132.026C49.3057 132.5 54.9527 133.943 60.2419 136.292C60.3991 136.361 60.4832 136.109 60.3271 136.038C54.7775 133.579 48.8386 132.114 42.7817 131.712C37.2274 131.355 30.8735 131.567 25.7153 133.85C25.6002 133.9 25.6877 134.067 25.7993 134.02L25.7999 134.023ZM63.317 141.658C51.4646 138.116 37.4977 136.725 25.6609 141.205C25.555 141.243 25.4744 141.091 25.5809 141.045C31.1476 138.878 37.1029 137.887 43.0716 138.135C49.7617 138.188 57.2342 138.544 63.4057 141.393C63.4389 141.406 63.466 141.431 63.4816 141.463C63.4972 141.495 63.5001 141.531 63.4897 141.566C63.4845 141.583 63.4759 141.599 63.4644 141.613C63.4529 141.627 63.4387 141.639 63.4226 141.648C63.4066 141.656 63.389 141.662 63.3709 141.664C63.3527 141.665 63.3344 141.664 63.317 141.658ZM24.8187 143.42C29.921 141.19 35.3853 139.903 40.9467 139.621C43.4695 139.545 45.9936 139.712 48.4843 140.121C50.303 140.42 52.039 140.935 53.7806 141.452L53.7806 141.452L53.7807 141.452L53.7807 141.452L53.7807 141.452L53.7807 141.452L53.7808 141.452L53.7808 141.452L53.7808 141.452C54.7403 141.736 55.7016 142.021 56.6793 142.271C56.9568 142.343 57.2043 141.947 56.9188 141.787C52.2292 139.182 45.9138 138.601 40.6474 138.831C35.0583 138.976 29.5872 140.471 24.7007 143.188C24.6739 143.205 24.6545 143.232 24.6461 143.262C24.6377 143.293 24.641 143.326 24.6552 143.354C24.6695 143.383 24.6937 143.405 24.7234 143.417C24.753 143.429 24.7859 143.429 24.8158 143.418L24.8187 143.42ZM53.0872 145.033C45.2964 142.791 37.9165 142.612 30.2598 145.542C30.109 145.604 29.9938 145.383 30.1476 145.314C37.1618 142.247 46.0396 141.709 53.1753 144.767C53.1832 144.769 53.1909 144.772 53.1983 144.775C53.2315 144.79 53.2573 144.818 53.2704 144.852C53.2834 144.886 53.2826 144.924 53.2681 144.958C53.2537 144.991 53.2267 145.018 53.1929 145.032C53.1591 145.046 53.1212 145.046 53.0872 145.033ZM38.9619 145.117C35.7135 145.622 32.5511 146.576 29.5654 147.952L29.57 147.951C29.2718 148.071 28.9368 147.66 29.235 147.451C34.4013 143.836 42.9791 142.673 48.8512 145.091C49.1724 145.225 49.1062 145.787 48.7239 145.734C45.5099 145.11 42.2289 144.903 38.9619 145.117ZM50.1946 147.237C43.7481 145.631 36.9564 146.134 30.8168 148.672H30.8093C30.6383 148.748 30.5088 148.482 30.6815 148.403C36.8129 145.534 43.7914 145.045 50.2631 147.03C50.3995 147.076 50.3218 147.266 50.1946 147.237ZM35.4523 149.511C39.7598 148.367 44.274 148.239 48.6397 149.135C48.8124 149.164 48.8562 148.89 48.6973 148.837C44.3332 147.558 39.6779 147.679 35.3861 149.183C35.1834 149.248 35.2445 149.572 35.4523 149.511Z" fill="#8A90A7"/>
</g>
<path d="M50.1156 144.854H28.6123V162.835H50.1156V144.854Z" fill="#E89C2E"/>
<path d="M45.8911 144.854H50.1156V162.835H45.8911V144.854Z" fill="#C98A30"/>
</g>
<path d="M108.705 115.393C108.705 115.393 115.812 138.88 123.313 139.673C123.313 139.673 119.168 120.328 129.63 113.617C129.63 113.617 127.292 97.7698 117.771 89.3623C115.511 87.3263 112.816 85.8324 109.892 84.9941L108.705 115.393Z" fill="#4573D2"/>
<path d="M248.577 131.428H151.177C150.271 131.428 149.401 131.068 148.76 130.427C148.119 129.785 147.759 128.916 147.759 128.009V52.6991C147.759 52.2096 147.864 51.7257 148.067 51.2804C148.27 50.835 148.567 50.4384 148.937 50.1176C149.306 49.7967 149.741 49.5591 150.21 49.4207C150.68 49.2823 151.174 49.2464 151.659 49.3154L249.061 63.1687C249.876 63.2848 250.621 63.6911 251.161 64.3128C251.7 64.9345 251.997 65.7299 251.997 66.553V128.009C251.997 128.458 251.908 128.903 251.737 129.318C251.565 129.733 251.313 130.11 250.995 130.427C250.678 130.745 250.301 130.996 249.886 131.168C249.471 131.34 249.026 131.428 248.577 131.428Z" fill="#B0B5C0"/>
<path d="M248.577 131.428H151.177C150.271 131.428 149.401 131.068 148.76 130.427C148.119 129.786 147.759 128.917 147.759 128.01C157.976 125.444 161.551 104.304 200.184 96.7517C215.914 93.6759 230.595 77.3439 249.06 63.1699C249.875 63.2861 250.621 63.6923 251.16 64.314C251.699 64.9357 251.996 65.7312 251.996 66.5542V128.01C251.996 128.459 251.908 128.904 251.736 129.318C251.564 129.733 251.312 130.11 250.995 130.428C250.677 130.745 250.3 130.997 249.886 131.168C249.471 131.34 249.026 131.429 248.577 131.428Z" fill="#393939" fill-opacity="0.18"/>
<path d="M210.693 152.015C205.572 154.248 200.328 156.188 194.987 157.826L195.652 99.6509C195.652 97.1835 196.632 94.8172 198.377 93.0725C200.122 91.3278 202.488 90.3477 204.956 90.3477C206.476 90.3477 207.935 90.9516 209.01 92.0266C210.085 93.1017 210.689 94.5598 210.689 96.0801L210.693 152.015Z" fill="#CED3DF"/>
<path d="M119.041 117.563C118.544 127.162 118.826 139.199 123.313 139.672C123.313 139.672 119.168 120.327 129.63 113.616C129.63 113.616 123.782 95.2729 114.963 84.9207C113.046 82.6693 108.445 78.3254 108.445 78.0957L115.772 90.0482C119.419 97.4995 119.47 109.277 119.041 117.563Z" fill="#4369B6"/>
<path d="M119.549 133.566C119.549 133.566 119.944 142.449 131.195 141.265C142.447 140.081 137.315 120.143 135.736 115.406C134.157 110.668 127.84 87.1782 125.271 81.0589C122.702 74.9396 113.225 78.1288 115.375 83.0489C120.661 95.1436 120.633 110.398 119.546 119.157C118.49 127.691 119.154 131.987 119.549 133.566Z" fill="#D5A882"/>
<path d="M124.484 84.4153C124.896 83.9904 128.037 77.5073 125.668 69.2178C123.299 60.9283 120.142 58.1651 120.142 58.1651C120.142 58.1651 111.852 55.7963 110.271 57.5728C108.691 59.3492 110.666 63.692 112.443 64.0869C114.22 64.4818 116.983 65.8634 116.786 68.4297C116.589 70.996 114.417 69.8113 114.417 69.8113C114.417 69.8113 114.908 64.1267 114.124 63.479C113.34 62.8314 111.843 61.1632 111.13 61.7762C110.418 62.3893 110.653 66.442 110.722 67.9398C110.79 69.4377 109.394 73.0483 110.347 74.4782C111.3 75.9081 114.434 82.9916 115.524 83.7751C116.613 84.5586 120.949 88.0546 124.484 84.4153Z" fill="#D5A882"/>
<path d="M124.484 84.4142C124.896 83.9894 128.037 77.5063 125.668 69.2168C123.299 60.9272 120.142 58.1641 120.142 58.1641C120.965 59.5872 121.361 61.2175 121.281 62.8597C121.084 65.426 123.048 69.192 123.048 69.192C123.048 69.192 125.056 72.509 122.961 78.1821C122.496 79.437 120.949 88.0535 124.484 84.4142Z" fill="#BA8B67"/>
<path d="M176.382 150.481H104.575L92.9463 149.072L162.705 148.924L176.382 150.481Z" fill="#F6F6F6"/>
<path d="M176.329 150.48H104.488V152.666H176.329V150.48Z" fill="#7B8093"/>
<path d="M104.506 150.624V152.466C104.505 152.489 104.5 152.512 104.49 152.533C104.48 152.555 104.465 152.573 104.446 152.588C104.428 152.602 104.407 152.612 104.384 152.618C104.361 152.623 104.337 152.623 104.314 152.618L92.9301 149.387C92.8915 149.378 92.8574 149.355 92.8349 149.323C92.8123 149.29 92.803 149.25 92.8088 149.211C92.8146 149.172 92.835 149.137 92.866 149.112C92.897 149.087 92.9362 149.075 92.9756 149.079L104.359 150.467C104.399 150.469 104.436 150.487 104.464 150.516C104.491 150.545 104.506 150.584 104.506 150.624Z" fill="#DBDBDB"/>
<path d="M131.195 141.266C142.448 140.081 137.315 120.145 135.736 115.407C134.157 110.669 127.84 87.1771 125.271 81.0578C123.236 76.2061 121.774 79.591 122.434 84.6361C122.607 85.9544 131.002 102.854 131.447 112.947C131.678 118.209 134.867 121.013 133.475 131.993C132.672 138.344 124.656 141.952 131.195 141.266Z" fill="#BA8B67"/>
<path d="M204.717 154.945V97.436C204.717 93.9038 202.069 91.6621 202.285 90.7388C203.147 90.4808 204.04 90.3465 204.94 90.3398L204.959 90.3467C206.48 90.3467 207.938 90.9507 209.013 92.0257C210.088 93.1007 210.692 94.5588 210.692 96.0792V152.011C210.692 152.011 210.345 152.248 204.717 154.945Z" fill="#B0B5C0"/>
<path d="M79.2387 68.0659C79.1437 67.6923 82.3871 66.5629 82.3158 62.5557C82.2444 58.5485 76.7695 44.5715 76.7695 44.5715C76.7695 44.5715 86.7164 39.2754 86.9311 39.2754C87.1458 39.2754 100.528 71.4767 100.528 71.4767C100.427 72.9055 100.403 74.3387 100.456 75.77C100.599 77.6906 100.039 79.5976 98.8819 81.1369C98.8013 81.2409 98.7152 81.3472 98.6234 81.4558C97.7199 82.4983 96.5882 83.3185 95.3163 83.8527C94.0444 84.3869 92.6664 84.6209 91.2895 84.5363C89.9125 84.4517 88.5735 84.0509 87.3766 83.365C86.1796 82.6791 85.1568 81.7266 84.3877 80.5814C82.6007 77.9403 80.4592 72.875 79.2387 68.0659Z" fill="#D5A882"/>
<path d="M95.3724 69.1365C95.3845 68.7514 94.6292 63.289 94.5578 59.2818C94.4864 55.2746 100.528 71.476 100.528 71.476C100.427 72.9048 100.403 74.338 100.456 75.7693C100.599 77.6899 100.039 79.5969 98.8819 81.1362C98.8013 81.2402 98.7151 81.3465 98.6234 81.4551C97.618 82.6979 96.2859 83.6357 94.7768 84.1631C93.2677 84.6905 91.6414 84.7866 90.0807 84.4405C88.6794 84.1377 95.1168 77.2182 95.3724 69.1365Z" fill="#BA8B67"/>
<path d="M109.335 33.6461C109.335 33.6461 110.941 35.178 111.452 39.3371C111.962 43.4963 112.911 44.445 112.258 47.656C111.604 50.8671 111.382 50.9373 111.746 52.3989C112.111 53.8605 111.601 58.8929 108.098 64.4383C108.098 64.4383 106.566 66.3379 106.711 68.1599C106.857 69.9819 106.128 73.3409 100.29 73.2672C94.4526 73.1935 89.4901 72.6835 86.4251 62.249C83.3601 51.8146 81.0982 42.5482 83.9444 36.7835C86.7907 31.0188 94.452 26.8597 101.968 28.1733C109.484 29.487 109.335 33.6461 109.335 33.6461Z" fill="#D5A882"/>
<path d="M82.8855 62.7239C81.9373 59.3673 82.6276 55.683 82.0438 54.88C81.4601 54.0769 74.5276 45.4673 80.8032 44.5181C80.8032 44.5181 83.5032 46.2692 85.2545 51.0852C85.2545 51.0852 85.3276 48.8977 86.5682 48.0918C87.8088 47.2858 85.9113 44.2976 86.787 43.057C87.6626 41.8165 89.7057 41.0871 89.487 38.2411C89.2682 35.395 92.4178 30.7793 96.1276 31.3089C96.6382 31.3821 102.914 34.6656 108.387 33.5713C108.387 33.5713 110.409 32.915 111.65 41.014C111.65 41.014 112.619 37.8761 111.963 36.0518C111.963 36.0518 113.86 36.7086 114.006 33.5713C114.152 30.4339 115.218 26.9817 110.211 27.1498C103.849 27.3639 105.103 24.5231 101.673 24.1564C98.2433 23.7897 95.0165 25.7682 89.6332 26.2725C87.951 26.4296 81.6788 28.46 78.6144 35.7582C78.6144 35.7582 78.0307 36.9262 77.2276 38.9693C76.4245 41.0123 74.8195 48.7469 79.3438 56.7733C79.3438 56.7733 79.8205 61.8437 82.8855 62.7199" fill="#444C61"/>
<path d="M96.1277 31.3109C96.6383 31.384 102.914 34.6676 108.387 33.5732C108.387 33.5732 110.409 32.917 111.65 41.016C111.65 41.016 112.619 37.878 111.963 36.0538C111.963 36.0538 113.86 36.7106 114.006 33.5732C114.152 30.4359 115.218 26.9837 110.211 27.1517C103.849 27.3659 105.103 24.525 101.673 24.1583C98.2433 23.7916 95.0166 25.7702 89.6332 26.2744C88.4243 26.3896 92.776 26.1017 96.1288 27.4897C96.502 27.6504 96.82 27.9169 97.0434 28.2563C97.2667 28.5957 97.3858 28.9931 97.3858 29.3994C97.3858 29.8057 97.2667 30.2031 97.0434 30.5426C96.82 30.882 96.502 31.1485 96.1288 31.3092L96.1277 31.3109Z" fill="#30384D"/>
<path d="M84.6715 28.3711C84.6715 28.3711 79.066 31.8884 81.7038 43.6474L82.1436 45.5742L80.108 46.0191C80.108 46.0191 76.8645 33.3632 82.6525 29.2927C83.2671 28.871 83.9503 28.5592 84.6715 28.3711Z" fill="#8A90A7"/>
<path d="M101.298 55.3135C99.1984 55.3135 96.2566 56.2587 94.4247 56.972C91.2169 58.2206 86.7208 51.4456 85.3535 48.1816L83.8101 55.4137C83.8101 55.4137 87.6027 71.9052 95.3637 72.9633C103.125 74.0213 104.845 72.611 105.859 71.3319C106.873 70.0527 106.608 67.6281 106.829 67.2308C107.051 66.8336 109.916 60.9694 109.916 60.9694C109.916 60.9694 110.664 58.6322 109.475 57.8389C109.019 57.535 108.496 57.2115 108.029 56.9277C107.715 56.733 107.365 56.6053 106.999 56.5526C106.633 56.4999 106.26 56.5233 105.904 56.6214C105.571 56.6924 105.227 56.6878 104.896 56.6081C104.565 56.5284 104.257 56.3756 103.993 56.1609C103.198 55.6193 102.26 55.3245 101.298 55.3135Z" fill="#444C61"/>
<path d="M106.725 60.1289C105.791 62.8846 104.279 61.5042 104.62 62.1437C105.279 63.3814 105.018 65.2471 103.991 68.7034C102.591 73.414 91.602 72.4613 95.3636 72.9633C103.129 73.9995 104.845 72.611 105.859 71.3319C106.873 70.0528 106.607 67.6281 106.829 67.2309C107.051 66.8337 109.916 60.9694 109.916 60.9694C109.916 60.9694 110.664 58.6322 109.475 57.839C109.018 57.5344 108.496 57.2103 108.028 56.9271C107.703 56.7364 107.343 56.6124 106.97 56.5623C106.597 56.5122 106.217 56.537 105.853 56.6352C105.415 56.7458 107.692 57.2788 106.725 60.1289Z" fill="#30384D"/>
<path d="M95.3497 62.4139C95.2883 62.2542 95.2658 62.0823 95.2839 61.9121C95.302 61.742 95.3602 61.5786 95.4538 61.4354C95.5474 61.2922 95.6737 61.1733 95.8222 61.0884C95.9707 61.0035 96.1373 60.9551 96.3082 60.9471C98.3456 60.8596 101.938 60.7411 102.897 60.9431C104.258 61.2309 106.478 61.6592 106.836 62.304C107.195 62.9487 106.12 66.0285 105.762 67.1747C105.404 68.3208 104.186 69.6811 100.891 68.4636C98.0278 67.4055 96.4625 65.3734 95.3497 62.4139Z" fill="#D5A882"/>
<path d="M85.0388 54.6303L96.9695 61.8836C97.1006 61.6897 97.2789 61.5323 97.4875 61.4262C97.6962 61.3201 97.9284 61.2687 98.1623 61.2769C98.8785 61.3759 100.71 62.6038 101.541 63.1351C102.692 63.872 101.679 66.0819 100.057 65.4804C99.131 65.1065 98.2532 64.6217 97.4433 64.0366C97.2756 63.9184 97.1336 63.7677 97.0255 63.5935C96.9173 63.4192 96.8454 63.2249 96.814 63.0223L96.7668 62.7218L83.2622 54.94L83.6727 53.8555L85.0388 54.6303Z" fill="#7B8093"/>
<path d="M81.9123 56.3716C84.4012 56.3716 86.4188 53.885 86.4188 50.8177C86.4188 47.7503 84.4012 45.2637 81.9123 45.2637C79.4234 45.2637 77.4058 47.7503 77.4058 50.8177C77.4058 53.885 79.4234 56.3716 81.9123 56.3716Z" fill="#7B8093"/>
<path d="M80.3225 54.1338C82.0654 54.1338 83.4784 52.3926 83.4784 50.2446C83.4784 48.0967 82.0654 46.3555 80.3225 46.3555C78.5795 46.3555 77.1665 48.0967 77.1665 50.2446C77.1665 52.3926 78.5795 54.1338 80.3225 54.1338Z" fill="#8A90A7"/>
<mask id="mask2_9_50984" style="mask-type:alpha" maskUnits="userSpaceOnUse" x="131" y="138" width="24" height="24">
<path d="M132.455 160.597C132.455 160.597 131.409 139.879 131.403 139.507C131.397 139.136 135.372 138.764 140.283 138.678C145.195 138.592 149.182 138.825 149.188 139.196V142.885C149.635 142.759 150.097 142.694 150.562 142.69C151.009 142.672 151.455 142.747 151.872 142.91C152.289 143.073 152.667 143.321 152.983 143.638C153.877 144.559 154.297 146.129 154.23 148.301C154.134 151.464 153.326 153.415 152.666 154.498C151.911 155.736 150.915 156.506 150.075 156.506C149.905 156.51 149.736 156.475 149.582 156.402C149.428 156.33 149.293 156.222 149.188 156.088V160.405C146.311 160.81 143.413 161.047 140.508 161.116C140.339 161.116 140.169 161.116 140 161.116C137.476 161.106 134.956 160.933 132.455 160.597ZM150.218 155.279C150.803 155.279 151.421 154.743 151.912 153.81C152.576 152.407 152.927 150.878 152.944 149.326C153.08 146.633 152.469 145.394 151.931 144.83C151.771 144.652 151.576 144.509 151.358 144.41C151.14 144.311 150.904 144.258 150.664 144.254C150.372 144.258 150.084 144.333 149.827 144.474C149.57 144.614 149.352 144.816 149.191 145.06V154.389C149.403 154.958 149.761 155.283 150.217 155.283L150.218 155.279Z" fill="white"/>
</mask>
<g mask="url(#mask2_9_50984)">
<path d="M132.455 160.597C132.455 160.597 131.409 139.879 131.403 139.507C131.397 139.136 135.372 138.764 140.283 138.678C145.195 138.592 149.182 138.825 149.188 139.196V142.885C149.635 142.759 150.097 142.694 150.562 142.69C151.009 142.672 151.455 142.747 151.872 142.91C152.289 143.073 152.667 143.321 152.983 143.638C153.877 144.559 154.297 146.129 154.23 148.301C154.134 151.464 153.326 153.415 152.666 154.498C151.911 155.736 150.915 156.506 150.075 156.506C149.905 156.51 149.736 156.475 149.582 156.402C149.428 156.33 149.293 156.222 149.188 156.088V160.405C146.311 160.81 143.413 161.047 140.508 161.116C140.339 161.116 140.169 161.116 140 161.116C137.476 161.106 134.956 160.933 132.455 160.597ZM150.218 155.279C150.803 155.279 151.421 154.743 151.912 153.81C152.576 152.407 152.927 150.878 152.944 149.326C153.08 146.633 152.469 145.394 151.931 144.83C151.771 144.652 151.576 144.509 151.358 144.41C151.14 144.311 150.904 144.258 150.664 144.254C150.372 144.258 150.084 144.333 149.827 144.474C149.57 144.614 149.352 144.816 149.191 145.06V154.389C149.403 154.958 149.761 155.283 150.217 155.283L150.218 155.279Z" fill="white"/>
<path d="M155.925 133.605H128.246V165.802H155.925V133.605Z" fill="white"/>
<path d="M143.866 161.595L143.872 140.513C143.872 140.513 150.9 140.447 149.205 138.485C147.51 136.524 155.123 143.295 155.123 143.295L154.289 155.241L153.208 159.181L149.437 161.595H143.866Z" fill="#B0B5C0"/>
</g>
<path d="M140.173 140.306C144.564 140.209 148.116 139.829 148.108 139.455C148.1 139.082 144.534 138.858 140.143 138.954C135.753 139.051 132.2 139.431 132.209 139.805C132.217 140.178 135.783 140.402 140.173 140.306Z" fill="#8A90A7"/>
</g>
<defs>
<clipPath id="clip0_9_50984">
<rect width="254" height="168.275" fill="white"/>
</clipPath>
</defs>
</svg>
