<svg width="600" height="324" viewBox="0 0 600 324" fill="none" xmlns="http://www.w3.org/2000/svg">
<g clip-path="url(#clip0_9_51001)">
<mask id="mask0_9_51001" style="mask-type:alpha" maskUnits="userSpaceOnUse" x="14" y="8" width="587" height="317">
<path d="M584.441 231.768C558.47 185.061 534.206 173.588 574.001 113.905C595.336 81.9074 598.244 16.9206 498.205 9.00573C460.039 5.97863 437.757 19.5456 392.083 40.1039C372.035 49.1265 338.42 87.5365 319.228 99.3684C280.867 123.011 268.074 124.278 242.154 124.278C173.93 124.278 138.596 104.133 109.492 178.747C103.209 201.419 10.2734 187.925 15.0236 241.696C20.3509 302.008 76.2458 346.698 188.352 311.664C297.558 277.536 304.061 324.001 434.006 300.637C524.707 284.33 642.79 336.692 584.441 231.768Z" fill="#F6F6F6"/>
</mask>
<g mask="url(#mask0_9_51001)">
<path d="M584.441 231.768C558.47 185.061 534.206 173.588 574.001 113.905C595.336 81.9074 598.244 16.9206 498.205 9.00573C460.039 5.97863 437.757 19.5456 392.083 40.1039C372.035 49.1265 338.42 87.5365 319.228 99.3684C280.867 123.011 268.074 124.278 242.154 124.278C173.93 124.278 138.596 104.133 109.492 178.747C103.209 201.419 10.2734 187.925 15.0236 241.696C20.3509 302.008 76.2458 346.698 188.352 311.664C297.558 277.536 304.061 324.001 434.006 300.637C524.707 284.33 642.79 336.692 584.441 231.768Z" fill="#BEBEBE" fill-opacity="0.14"/>
<path d="M766.98 286.182H-23.5771V366.251H766.98V286.182Z" fill="#CED3DF"/>
<path d="M621.322 289.152H101.173V293.596H621.322V289.152Z" fill="#8A90A7"/>
<path d="M593.78 298.176H148.609V306.738H593.78V298.176Z" fill="#8A90A7"/>
<path d="M884.006 292.682H421.895L462.016 302.827L884.006 301.57V292.682Z" fill="#8A90A7"/>
<path d="M448.058 299.622L418.175 291.259C417.72 291.129 417.328 290.839 417.069 290.444C416.81 290.048 416.701 289.573 416.762 289.104C416.823 288.636 417.051 288.204 417.403 287.889C417.755 287.573 418.209 287.395 418.682 287.385L522.548 286.061C522.965 286.055 523.372 286.182 523.712 286.422C524.053 286.662 524.308 287.004 524.443 287.398L527.502 296.364C527.603 296.66 527.634 296.976 527.589 297.286C527.545 297.596 527.428 297.891 527.247 298.147C527.066 298.402 526.827 298.612 526.55 298.757C526.272 298.902 525.964 298.979 525.651 298.982L448.608 299.704C448.422 299.703 448.237 299.675 448.058 299.622Z" fill="#393939" fill-opacity="0.18"/>
<path d="M448.058 299.622L418.175 291.259C417.72 291.129 417.328 290.839 417.069 290.444C416.81 290.048 416.701 289.573 416.762 289.104C416.823 288.636 417.051 288.204 417.403 287.889C417.755 287.573 418.209 287.395 418.682 287.385L522.548 286.061C522.965 286.055 523.372 286.182 523.712 286.422C524.053 286.662 524.308 287.004 524.443 287.398L527.502 296.364C527.603 296.66 527.634 296.976 527.589 297.286C527.545 297.596 527.428 297.891 527.247 298.147C527.066 298.402 526.827 298.612 526.55 298.757C526.272 298.902 525.964 298.979 525.651 298.982L448.608 299.704C448.422 299.703 448.237 299.675 448.058 299.622Z" fill="#B0B5C0"/>
<path d="M448.034 299.622L418.152 291.259C417.698 291.129 417.305 290.839 417.046 290.444C416.787 290.048 416.678 289.573 416.739 289.104C416.8 288.636 417.028 288.204 417.38 287.889C417.732 287.573 418.186 287.395 418.659 287.385L522.525 286.061C522.941 286.056 523.349 286.182 523.689 286.422C524.029 286.662 524.284 287.004 524.419 287.398L527.479 296.364C527.58 296.66 527.61 296.976 527.566 297.286C527.521 297.596 527.404 297.891 527.223 298.146C527.043 298.402 526.804 298.611 526.526 298.756C526.249 298.901 525.941 298.979 525.628 298.982L448.584 299.704C448.398 299.703 448.213 299.675 448.034 299.622Z" fill="#393939" fill-opacity="0.18"/>
<path d="M418.568 287.385L448.929 296.22L500.359 294.427L467.529 286.729L418.568 287.385Z" fill="#CED3DF"/>
<path d="M556.415 299.915L450.771 300.184C449.914 300.186 449.065 300.014 448.277 299.677C447.489 299.34 446.778 298.846 446.187 298.225C445.596 297.604 445.138 296.869 444.841 296.066C444.544 295.262 444.414 294.406 444.458 293.55L447.69 231.249C447.773 229.638 448.471 228.12 449.64 227.007C450.809 225.895 452.36 225.273 453.973 225.269L559.617 225C560.474 224.998 561.322 225.171 562.11 225.508C562.898 225.845 563.609 226.338 564.2 226.959C564.791 227.58 565.249 228.315 565.546 229.118C565.844 229.922 565.974 230.778 565.93 231.633L562.698 293.934C562.615 295.546 561.917 297.064 560.748 298.177C559.579 299.289 558.028 299.911 556.415 299.915Z" fill="#B0B5C0"/>
<path d="M449.597 300.014L556.415 299.916C557.274 299.911 558.124 299.732 558.912 299.389C559.701 299.047 560.412 298.549 561.002 297.924C561.592 297.299 562.05 296.561 562.347 295.755C562.645 294.949 562.775 294.09 562.732 293.232L565.935 230.99C565.853 229.377 565.156 227.857 563.987 226.743C562.818 225.629 561.267 225.005 559.652 225C554.361 223.876 539.991 262.977 508.853 273.346C483.372 281.833 446.248 300.006 449.597 300.014Z" fill="#393939" fill-opacity="0.18"/>
<path d="M461.847 7.0882L427.822 15.5703L434.043 40.5175L468.068 32.0354L461.847 7.0882Z" fill="#A4A4A4" fill-opacity="0.4"/>
<path d="M506.234 20.9423L471.694 27.043L476.168 52.3681L510.708 46.2675L506.234 20.9423Z" fill="#A4A4A4" fill-opacity="0.4"/>
<path d="M482.563 74.4824H447.631V99.5578H482.563V74.4824Z" fill="#A4A4A4" fill-opacity="0.4"/>
<path d="M521.973 51.3052L489.021 63.2969L497.816 87.4573L530.768 75.4656L521.973 51.3052Z" fill="#A4A4A4" fill-opacity="0.4"/>
<path d="M564.069 82.543H528.242V107.618H564.069V82.543Z" fill="#A4A4A4" fill-opacity="0.4"/>
</g>
<path d="M155.896 162.42C156.838 160.529 156.19 150.314 155.896 140.679C155.763 138.228 155.955 135.77 156.468 133.369C156.614 132.806 156.585 132.213 156.386 131.667C156.186 131.121 155.825 130.649 155.351 130.313C154.276 129.594 152.716 129.719 151.003 133.621C149.841 136.333 149.254 139.257 149.278 142.207V142.568C146.495 143.114 129.424 121.771 124.697 122.716C119.97 123.662 117.134 144.458 124.697 151.075C132.26 157.693 146.775 170.732 150.557 167.896C152.652 166.407 154.46 164.552 155.896 162.42Z" fill="#F5BE9D"/>
<path d="M152 66.4551L164.271 82.2555L183.091 75.4704L171.85 92.0215L184.121 107.822L164.905 102.25L153.671 118.802L153.033 98.8024L133.817 93.2309L152.639 86.4459L152 66.4551Z" fill="#E89C2E"/>
<path d="M183.092 75.4707L171.851 92.0218L184.121 107.822L164.905 102.251L153.671 118.802C153.671 118.802 156.828 102.488 159.772 99.3409C166.055 92.6281 164.145 90.0826 167.919 87.2472C178.527 79.28 183.092 75.4707 183.092 75.4707Z" fill="#393939" fill-opacity="0.18"/>
<path d="M232.36 23.9785L241.157 41.9453L260.97 39.1349L246.595 53.0527L255.392 71.0195L237.713 61.6544L223.343 75.5722L226.787 55.8662L209.107 46.5011L228.915 43.6876L232.36 23.9785Z" fill="#E89C2E"/>
<path d="M241.158 41.9483L260.97 39.1348L246.595 53.0525L255.392 71.0193L237.713 61.6542L223.343 75.572C223.343 75.572 227.618 63.3013 232.962 58.2031C238.306 53.1049 238.512 50.3196 238.895 48.4873C239.28 46.1969 240.045 43.9868 241.158 41.9483Z" fill="#393939" fill-opacity="0.18"/>
<path d="M320.214 0L326.409 19.0212L346.416 19.0076L330.238 30.7767L336.433 49.7979L320.243 38.0508L304.064 49.8199L310.234 30.7903L294.036 19.0432L314.043 19.0296L320.214 0Z" fill="#E89C2E"/>
<path d="M320.214 0L326.409 19.0212L346.417 19.0076L330.239 30.7767L336.434 49.7979L320.243 38.0508L304.061 49.8209L315.656 34.2017C319.025 30.8259 319.704 30.0867 320.416 28.3548C321.992 24.5246 320.815 23.5069 320.652 19.3678L320.214 0Z" fill="#393939" fill-opacity="0.18"/>
<path d="M488.638 61.5215L476.367 77.3219L457.545 70.5368L468.783 87.0879L456.513 102.888L475.725 97.3158L486.962 113.867L487.6 93.8678L506.815 88.2963L487.993 81.5112L488.638 61.5215Z" fill="#E89C2E"/>
<path d="M488.676 61.5234L488.009 81.5163L506.822 88.3223L487.599 93.8718L486.936 113.871L475.719 97.3062L456.496 102.856L472.728 92.1263C477.047 90.1013 477.937 89.6385 479.197 88.2522C481.984 85.1884 481.225 83.8314 482.484 79.885L488.676 61.5234Z" fill="#393939" fill-opacity="0.18"/>
<path d="M408.273 19.0449L399.476 37.0117L379.668 34.1982L394.039 48.1159L385.242 66.0827L402.922 56.7177L417.291 70.6354L413.846 50.9294L431.526 41.5686L411.717 38.7551L408.273 19.0449Z" fill="#E89C2E"/>
<path d="M408.257 19.0449L411.702 38.7509L431.511 41.5686L413.831 50.9336L417.276 70.6386L402.904 56.7177L385.225 66.0827L398.911 52.2613C402.724 49.3944 403.5 48.7589 404.45 47.1453C406.55 43.5758 405.53 42.4021 405.953 38.2818L408.257 19.0449Z" fill="#393939" fill-opacity="0.18"/>
<path d="M477.242 151.233C477.661 150.384 483.193 135.264 484.534 127.761C485.874 120.259 488.722 127.076 489.048 129.163C490.03 135.426 485.963 139.094 490.135 138.41C494.307 137.726 509.164 118.584 513.056 118.803C516.947 119.021 519.184 140.503 513.672 148.689C508.159 156.875 483.996 170.154 480.602 167.124C477.208 164.094 471.79 162.408 477.242 151.233Z" fill="#F5BE9D"/>
<path d="M491.426 159.083C497.404 154.587 498.581 151.877 510.953 143.487C513.513 141.751 509.164 118.585 513.056 118.804C516.947 119.023 519.184 140.505 513.672 148.691C508.159 156.877 483.996 170.156 480.602 167.126C479.241 165.907 479.394 165.604 479.524 164.718C483.823 163.64 487.868 161.726 491.426 159.083Z" fill="#DAA98C"/>
<path d="M155.896 162.421C156.838 160.53 156.19 150.315 155.896 140.68C155.784 136.993 155.495 149.083 154.411 153.569C153.327 158.055 152.002 155.14 147.625 161.183C146.019 163.398 132.405 157.717 133.817 158.922C135.366 160.245 148.478 170.662 150.879 168.869C153.112 167.221 154.848 164.99 155.896 162.421Z" fill="#DAA98C"/>
<path d="M473.916 155.563C447.399 175.075 433.834 188.266 426.624 193.927C423.901 196.063 420.452 196.954 417.326 195.474C402.652 188.528 387.88 176.911 372.534 166.624C362.104 159.633 336.586 154.354 332.254 153.414C331.767 153.31 338.476 207.055 349.169 214.522C351.205 215.944 352.82 216.393 358.894 217.285C382.98 220.821 404.858 222.972 407.245 223.202C407.393 223.217 407.538 223.235 407.686 223.258C421.552 225.445 431.981 225.353 440.224 215.18C440.42 214.938 440.602 214.702 440.773 214.47C441.076 214.05 441.416 213.657 441.787 213.294C454.888 200.754 474.809 178.798 484.854 167.581L473.916 155.563Z" fill="#4573D2"/>
<path d="M304.232 154.567C304.16 154.537 304.095 154.504 304.022 154.474C304.022 154.474 271.997 160.233 254.014 171.303C254.014 171.303 229.655 184.985 214.389 194.698C212.81 195.752 210.938 196.279 209.041 196.206C207.143 196.132 205.318 195.461 203.825 194.288C195.628 187.642 158.318 155.723 158.318 155.723L145.323 168.33C145.323 168.33 189.108 220.474 199.373 226.715C205.335 231.75 216.349 227.393 220.953 226.296C220.953 226.296 240.054 220.243 246.837 217.866C248.183 217.411 249.614 217.272 251.022 217.459C252.43 217.645 253.776 218.153 254.956 218.942C256.137 219.731 257.12 220.781 257.83 222.011C258.54 223.24 258.958 224.616 259.052 226.033C260.728 249.654 262.516 275.665 263.032 286.493H371.944L376.133 171.489C376.104 171.479 335.608 146.685 304.232 154.567Z" fill="#4573D2"/>
<path d="M309.953 286.49C309.323 268.238 306.682 250.112 302.078 232.44C294.48 203.54 290.947 156.835 290.947 156.835C290.947 156.835 304.814 152.172 318.327 152.172C336.873 152.676 346.112 156.648 346.112 156.648C346.112 156.648 338.479 209.054 331.622 231.089C325.339 251.287 321.896 286.49 321.896 286.49H309.953Z" fill="#E3EEF9"/>
<path d="M301.06 124.277L301.508 158.35C301.761 166.145 310.152 178.939 318.327 178.744C326.501 178.549 334.461 165.368 334.461 155.409C334.461 152.709 335.593 124.277 335.593 124.277H301.06Z" fill="#DAA98C"/>
<path d="M445.823 209.433C447.449 208.025 448.92 206.448 450.21 204.728L484.854 167.581L481.042 163.393C481.042 163.393 471.53 171.514 467.962 176.308C464.394 181.103 459.135 195.669 449.451 198.831C432.676 204.307 436.835 211.254 430.939 215.89C419.218 225.104 415.867 205.474 397.46 213.257C387.849 217.321 374.575 208.378 370.123 210.56C363.221 213.942 358.894 217.287 356.814 253.7C355.979 265.025 353.186 276.12 348.56 286.491C348.601 285.364 369.158 286.282 371.945 286.491L374.11 227.033C374.144 226.112 374.368 225.208 374.768 224.378C375.169 223.547 375.736 222.809 376.436 222.209C377.136 221.609 377.952 221.161 378.833 220.891C379.715 220.622 380.643 220.539 381.558 220.646C394.569 222.164 410.306 223.632 410.738 223.696C428.461 226.313 433.784 220.945 433.784 220.945C435.742 219.684 437.554 218.209 439.186 216.547V216.555L439.265 216.471C439.824 215.911 440.399 215.298 440.98 214.631L445.823 209.433Z" fill="#4369B6"/>
<path d="M179.198 207.066C179.198 207.066 192.393 222.464 201.19 227.903C203.22 229.16 206.157 229.143 207.343 229.089C217.109 228.634 242.46 219.141 245.125 218.454C248.922 217.482 253.903 216.884 258.021 222.389C258.797 223.427 259.11 226.851 259.11 226.851C259.11 226.851 260.157 206.355 251.457 207.666C242.756 208.977 237.273 214.577 228.847 213.258C218.552 211.644 221.412 222.736 209.054 224.405C196.999 226.033 179.198 207.066 179.198 207.066Z" fill="#4369B6"/>
<path d="M296.769 120.608C296.769 120.608 289.848 119.129 291.591 125.934C293.769 134.438 298.79 131.945 298.79 131.945C298.79 131.945 299.716 141.599 304.522 146.281C306.77 148.472 312.761 152.679 318.857 152.122C326.619 151.412 330.778 148.159 333.528 143.457C335.413 140.238 336.377 129.008 336.377 129.008C336.377 129.008 340.64 130.195 341.966 125.023C344.374 115.61 337.842 115.846 336.961 118.015C336.961 118.015 341.236 94.6027 330.387 90.1997C319.539 85.7968 303.54 87.7244 300.816 93.1902C298.092 98.6559 295.871 109.126 296.769 120.608Z" fill="#F5BE9D"/>
<path d="M316.245 80.2777C311.637 80.8411 309.356 77.3941 303.364 80.929C300.544 82.5928 298.023 89.3056 294.632 90.8354C288.693 93.5149 290.712 102.012 292.713 108.828C293.747 112.349 293.807 116.996 294.44 120.524L298.629 122.689C297.719 121.912 297.732 99.1408 301.263 95.7493C304.03 93.0929 307.448 94.3703 309.447 95.4028C315.662 98.611 319.076 99.1345 327.418 93.9704C337.434 87.7685 336.494 117.587 336.326 119.31L339.061 116.821C339.061 116.821 340.003 111.481 340.841 104.937C341.557 99.3429 344.474 94.9316 339.689 91.116C334.904 87.3005 334.953 82.464 332.842 80.8432C326.059 75.6392 320.848 79.7144 316.245 80.2777Z" fill="#444C61"/>
<path d="M325.239 85.0419C320.631 85.6041 316.903 82.9938 312.935 85.0638C307.55 87.8731 320.141 86.6125 316.903 90.5537C314.468 93.5179 307.446 94.3703 309.445 95.4027C315.66 98.6109 319.074 99.1345 327.415 93.9703C337.432 87.7684 336.492 117.587 336.324 119.31L339.058 116.821C339.058 116.821 340.001 111.481 340.839 104.937C341.555 99.3428 344.472 94.9315 339.687 91.1159C334.902 87.3004 334.951 82.4639 332.84 80.8431C326.059 75.6391 329.844 84.4785 325.239 85.0419Z" fill="#30384D"/>
<path d="M0 188.718L28.4941 221.094C28.4941 221.094 30.1361 219.652 34.3837 216.476C38.6313 213.3 38.9915 210.815 38.049 204.086C37.1065 197.358 39.4942 194.207 41.9238 191.392C43.0386 189.958 44.4113 188.743 45.9713 187.811L33.9805 175.938C33.9805 175.938 25.498 183.058 19.7267 181.196C13.9554 179.334 8.68992 179.912 6.51796 181.824C4.346 183.736 0 188.718 0 188.718Z" fill="#B0B5C0"/>
<path d="M37.8049 175.993L45.5544 183.545L47.6897 181.555C47.6897 181.555 51.5121 177.932 48.8029 175.513C46.0938 173.093 43.8443 171.244 41.7017 172.644C40.2801 173.609 38.9728 174.733 37.8049 175.993Z" fill="#B0B5C0"/>
<path d="M56.8918 194.493L137.126 229.152C137.126 229.152 139.526 228.885 139.231 227.815C138.937 226.746 138.441 226.272 135.671 224.831C132.901 223.391 57.9579 191.127 57.9579 191.127L56.8918 194.493Z" fill="#B0B5C0"/>
<path d="M54.4424 194.491C55.0851 192.636 55.9183 190.853 56.9286 189.171L52.1354 186.85C52.1354 186.85 49.51 186.607 48.8209 188.127C48.1318 189.646 49.4314 192.397 52.1354 193.592C54.8393 194.788 54.4424 194.491 54.4424 194.491Z" fill="#B0B5C0"/>
<path d="M116.781 226.942C120.806 226.942 124.07 223.68 124.07 219.655C124.07 215.63 120.806 212.367 116.781 212.367C112.755 212.367 109.492 215.63 109.492 219.655C109.492 223.68 112.755 226.942 116.781 226.942Z" fill="#B0B5C0"/>
<path d="M116.78 222.893C118.569 222.893 120.019 221.443 120.019 219.655C120.019 217.866 118.569 216.416 116.78 216.416C114.991 216.416 113.541 217.866 113.541 219.655C113.541 221.443 114.991 222.893 116.78 222.893Z" fill="#CED3DF"/>
<path d="M103.723 289.063L117.95 224.471L113.506 223.67L99.7224 289.063H103.723Z" fill="#B0B5C0"/>
<path d="M71.5991 293.683L75.8394 289.092H129.961L134.285 293.683H71.5991Z" fill="#B0B5C0"/>
<path d="M36.4163 174.016C38.007 172.281 42.0064 168.886 42.0064 168.886C42.0064 168.886 46.0236 168.3 50.0407 172.132C54.0579 175.963 53.4055 179.756 51.7666 181.496C50.1276 183.235 46.9828 185.91 46.9828 185.91L46.2613 185.072L50.9927 180.684C50.9927 180.684 53.749 177.06 49.558 173.336C45.3669 169.611 43.8977 169.382 42.064 170.309C40.2303 171.235 37.0373 174.57 37.0373 174.57L36.4163 174.016Z" fill="#B0B5C0"/>
<path fill-rule="evenodd" clip-rule="evenodd" d="M63.5163 180.531C63.1729 183.352 62.2834 186.189 60.8373 188.473C59.4797 190.618 59.195 192.592 59.5668 194.299C59.9406 196.014 60.9876 197.503 62.3699 198.644C63.7528 199.785 65.4527 200.562 67.0922 200.86C68.7375 201.159 70.2739 200.969 71.3731 200.244L71.8188 200.92C70.4885 201.797 68.7187 201.978 66.9474 201.657C65.1703 201.334 63.3432 200.497 61.8546 199.268C60.3654 198.039 59.1965 196.401 58.7759 194.471C58.3534 192.532 58.696 190.342 60.1533 188.04C61.5222 185.878 62.3806 183.162 62.7127 180.433C63.045 177.704 62.847 174.992 62.1329 172.842C61.4161 170.684 60.2079 169.164 58.5691 168.663C56.9327 168.163 54.7116 168.631 51.8563 170.81L51.365 170.167C54.3134 167.916 56.8084 167.278 58.8058 167.889C60.8008 168.499 62.1439 170.307 62.9011 172.587C63.661 174.875 63.8596 177.711 63.5163 180.531Z" fill="#8A90A7"/>
<path fill-rule="evenodd" clip-rule="evenodd" d="M139.595 238.202C142.296 235.066 142.057 231.543 140.369 229.404L141.005 228.902C142.952 231.37 143.142 235.324 140.209 238.731C137.287 242.123 131.305 244.945 120.943 245.384C115.836 245.6 112.157 246.758 109.684 248.467C107.221 250.17 105.934 252.432 105.615 254.923C104.973 259.934 108.25 265.989 114.141 270.261C120.185 274.645 122.01 279.198 122.286 282.698C122.424 284.438 122.177 285.901 121.894 286.93C121.753 287.445 121.603 287.852 121.487 288.133C121.429 288.274 121.379 288.383 121.343 288.458C121.325 288.496 121.311 288.525 121.301 288.545L121.288 288.569L121.285 288.576L121.283 288.579C121.283 288.579 121.283 288.58 120.926 288.389C120.569 288.199 120.569 288.199 120.568 288.199L120.57 288.196L120.578 288.18C120.586 288.165 120.597 288.142 120.612 288.11C120.642 288.047 120.686 287.951 120.739 287.824C120.843 287.571 120.982 287.195 121.114 286.716C121.376 285.758 121.608 284.391 121.479 282.762C121.223 279.521 119.537 275.175 113.665 270.917C107.641 266.547 104.119 260.235 104.812 254.82C105.161 252.097 106.575 249.632 109.224 247.801C111.862 245.977 115.706 244.796 120.909 244.575C131.167 244.141 136.883 241.353 139.595 238.202Z" fill="#8A90A7"/>
<mask id="mask1_9_51001" style="mask-type:alpha" maskUnits="userSpaceOnUse" x="128" y="217" width="64" height="70">
<path fill-rule="evenodd" clip-rule="evenodd" d="M162.357 274.887C167.089 260.336 173.279 246.067 182.662 234.174C182.342 237.944 180.862 245.457 180.862 245.457C178.741 252.411 176.101 259.196 172.964 265.754C170.448 270.242 168.757 272.903 167.148 275.436L167.147 275.436L167.147 275.437L167.147 275.437L167.147 275.437C165.515 278.007 163.966 280.444 161.724 284.523C170.396 272.104 179.446 259.63 191.749 250.842C187.774 264.099 175.796 273.853 164.746 282.852L164.746 282.852C163.459 283.9 162.185 284.938 160.937 285.97C160.853 286.126 160.768 286.285 160.682 286.445L160.681 286.444L160.681 286.447L160.682 286.448L160.681 286.448L160.682 286.449L160.679 286.447C160.605 286.42 160.532 286.394 160.458 286.367L160.412 286.406L160.443 286.361C148.114 281.863 132.945 272.956 128.248 260.246C136.799 263.335 142.238 266.925 146.919 271.274C142.032 263.325 138.675 254.477 137.081 245.185C136.265 240.255 136.366 235.218 137.379 230.325C138.925 231.703 140.182 233.373 141.077 235.24C145.998 244.407 150.247 253.907 153.794 263.665C152.646 258.958 151.673 254.199 151.128 249.249C150.064 239.565 151.177 229.765 154.387 220.566C157.819 233.338 159.151 246.502 159.523 259.747C159.855 256.631 160.3 253.526 160.859 250.438C162.936 238.814 166.919 227.613 172.646 217.287C174.048 231.179 170.404 244.338 166.72 257.639C165.142 263.339 163.556 269.065 162.357 274.887Z" fill="#B0B5C0"/>
</mask>
<g mask="url(#mask1_9_51001)">
<path fill-rule="evenodd" clip-rule="evenodd" d="M162.357 274.887C167.089 260.336 173.279 246.067 182.662 234.174C182.342 237.944 180.862 245.457 180.862 245.457C178.741 252.411 176.101 259.196 172.964 265.754C170.448 270.242 168.757 272.903 167.148 275.436L167.147 275.436L167.147 275.437L167.147 275.437L167.147 275.437C165.515 278.007 163.966 280.444 161.724 284.523C170.396 272.104 179.446 259.63 191.749 250.842C187.774 264.099 175.796 273.853 164.746 282.852L164.746 282.852C163.459 283.9 162.185 284.938 160.937 285.97C160.853 286.126 160.768 286.285 160.682 286.445L160.681 286.444L160.681 286.447L160.682 286.448L160.681 286.448L160.682 286.449L160.679 286.447C160.605 286.42 160.532 286.394 160.458 286.367L160.412 286.406L160.443 286.361C148.114 281.863 132.945 272.956 128.248 260.246C136.799 263.335 142.238 266.925 146.919 271.274C142.032 263.325 138.675 254.477 137.081 245.185C136.265 240.255 136.366 235.218 137.379 230.325C138.925 231.703 140.182 233.373 141.077 235.24C145.998 244.407 150.247 253.907 153.794 263.665C152.646 258.958 151.673 254.199 151.128 249.249C150.064 239.565 151.177 229.765 154.387 220.566C157.819 233.338 159.151 246.502 159.523 259.747C159.855 256.631 160.3 253.526 160.859 250.438C162.936 238.814 166.919 227.613 172.646 217.287C174.048 231.179 170.404 244.338 166.72 257.639C165.142 263.339 163.556 269.065 162.357 274.887Z" fill="#B0B5C0"/>
<path fill-rule="evenodd" clip-rule="evenodd" d="M191.608 245.234C173.332 232.726 148.486 236.586 129.797 246.377C129.788 246.382 129.778 246.385 129.768 246.386C129.758 246.387 129.748 246.385 129.739 246.382C129.729 246.379 129.721 246.374 129.713 246.367C129.706 246.36 129.7 246.352 129.696 246.343C129.692 246.333 129.69 246.324 129.69 246.314C129.69 246.304 129.692 246.294 129.696 246.284C129.7 246.275 129.706 246.267 129.714 246.26C129.721 246.254 129.73 246.248 129.739 246.245C139.129 240.88 149.607 237.698 160.395 236.935C170.869 236.181 183.933 237.158 191.945 244.853C192.157 245.057 191.842 245.394 191.608 245.234ZM145.301 243.027C145.31 243.029 145.319 243.029 145.328 243.028C145.337 243.026 145.346 243.023 145.354 243.018C145.362 243.013 145.369 243.007 145.374 242.999C145.38 242.992 145.383 242.983 145.386 242.974C145.39 242.958 145.389 242.941 145.381 242.926C145.374 242.911 145.361 242.9 145.346 242.894C145.337 242.891 145.327 242.891 145.318 242.892C145.308 242.894 145.299 242.897 145.291 242.902C145.283 242.907 145.276 242.914 145.27 242.921C145.265 242.929 145.261 242.938 145.259 242.947C145.255 242.963 145.258 242.98 145.265 242.994C145.273 243.009 145.286 243.02 145.301 243.027ZM199.849 261.841C179.495 252.252 156.496 249.828 134.589 254.963C134.431 255.001 134.385 254.754 134.538 254.719C156.482 248.906 179.786 251.197 200.177 261.172C200.556 261.364 200.23 262.015 199.849 261.841ZM134.327 258.604C143.392 254.835 154.293 254.496 163.964 255.266C173.6 256.06 183.034 258.47 191.87 262.395C192.132 262.51 192.272 262.088 192.013 261.97C182.741 257.861 172.819 255.416 162.701 254.745C153.421 254.149 142.803 254.502 134.189 258.317C133.998 258.399 134.142 258.679 134.329 258.6L134.327 258.604ZM197.005 271.36C177.204 265.442 153.869 263.117 134.095 270.602C133.918 270.67 133.784 270.412 133.966 270.336C143.265 266.715 153.213 265.06 163.184 265.474C174.357 265.565 186.844 266.159 197.154 270.919C197.208 270.94 197.253 270.981 197.279 271.034C197.305 271.087 197.31 271.147 197.294 271.204C197.276 271.263 197.236 271.312 197.181 271.341C197.127 271.37 197.064 271.377 197.005 271.36ZM132.684 274.303C141.209 270.578 150.338 268.428 159.629 267.958C163.844 267.832 168.06 268.113 172.221 268.796C175.259 269.296 178.159 270.156 181.068 271.019C182.672 271.494 184.278 271.971 185.913 272.388C186.377 272.507 186.789 271.846 186.313 271.58C178.478 267.227 167.927 266.258 159.129 266.642C149.792 266.885 140.653 269.382 132.49 273.919C132.441 273.946 132.405 273.991 132.388 274.044C132.371 274.098 132.376 274.156 132.401 274.206C132.426 274.256 132.469 274.294 132.522 274.313C132.575 274.332 132.633 274.329 132.684 274.306V274.303ZM179.914 276.996C166.898 273.251 154.574 272.951 141.778 277.847C141.522 277.95 141.333 277.58 141.591 277.466C153.308 272.342 168.14 271.444 180.062 276.553C180.075 276.556 180.087 276.56 180.099 276.565C180.154 276.592 180.195 276.638 180.216 276.694C180.237 276.751 180.236 276.813 180.212 276.869C180.188 276.924 180.144 276.968 180.088 276.992C180.033 277.015 179.97 277.017 179.914 276.996ZM156.316 277.137C150.888 277.981 145.605 279.575 140.617 281.873L140.621 281.876C140.123 282.075 139.563 281.387 140.062 281.039C148.694 275 163.025 273.051 172.834 277.094C173.374 277.317 173.263 278.257 172.624 278.17C167.255 277.127 161.774 276.78 156.316 277.137ZM175.082 280.678C164.312 277.995 152.966 278.835 142.708 283.074H142.691C142.411 283.202 142.189 282.757 142.482 282.625C152.726 277.833 164.384 277.016 175.196 280.333C175.425 280.41 175.292 280.727 175.082 280.678ZM150.452 284.477C157.649 282.566 165.191 282.351 172.485 283.849C172.774 283.896 172.846 283.438 172.578 283.351C165.287 281.215 157.51 281.417 150.34 283.931C150.004 284.036 150.106 284.58 150.452 284.477Z" fill="#8A90A7"/>
</g>
<path d="M174.95 276.699H139.025V306.738H174.95V276.699Z" fill="#E89C2E"/>
<path d="M167.892 276.699H174.949V306.738H167.892V276.699Z" fill="#C98A30"/>
</g>
<defs>
<clipPath id="clip0_9_51001">
<rect width="600" height="324" fill="white"/>
</clipPath>
</defs>
</svg>
