<svg width="600" height="305" viewBox="0 0 600 305" fill="none" xmlns="http://www.w3.org/2000/svg">
<g clip-path="url(#clip0_9_42783)">
<path d="M314.231 145.268C313.209 148.841 301.93 166.412 293.757 171.012C285.584 175.611 284.269 153.643 284.269 153.643C285.291 153.133 293.502 142.927 296.31 137.564" fill="#B5896B"/>
<path d="M282.159 155.048C282.159 155.048 262.308 158.15 256.932 154.842C251.556 151.535 241.63 150.5 236.875 143.884C232.119 137.268 233.156 139.749 233.156 139.749C233.156 139.749 231.444 143.786 224.62 145.44C220.265 146.526 215.998 147.94 211.857 149.673C211.857 149.673 212.064 157.116 215.166 163.117C218.268 169.117 223.023 180.897 223.023 180.897C223.023 180.897 225.708 207.98 224.469 213.773C223.229 219.565 207.202 285.65 207.202 285.65L282.271 287.183C282.271 287.183 287.633 188.886 291.208 182.247C293.736 177.173 295.788 171.874 297.335 166.42C297.335 166.42 295.557 151.551 286.355 150.556L282.159 155.048Z" fill="#FFBD3B"/>
<path d="M224.373 157.861C219.618 151.245 231.436 143.784 224.613 145.438C220.257 146.524 215.99 147.939 211.849 149.671C211.849 149.671 212.056 157.115 215.158 163.115C218.26 169.115 223.016 180.896 223.016 180.896C223.016 180.896 225.708 207.978 224.469 213.771C223.229 219.563 207.202 285.649 207.202 285.649C207.202 285.649 216.382 333.34 222.077 262.062C222.575 254.502 224.335 247.079 227.284 240.1C232.267 228.578 233.344 215.743 230.35 203.552C227.575 192.031 225.248 178.815 226.615 170.745C227.308 168.576 227.466 166.271 227.075 164.028C226.685 161.785 225.758 159.669 224.373 157.861Z" fill="#DBA53B"/>
<path d="M232.22 137.051C232.22 136.03 226.093 123.264 218.177 109.988C216.237 98.3695 213.68 86.8627 210.517 75.5163C205.665 58.6653 204.12 33.7535 205.654 29.4132C205.654 29.4132 204.902 25.2179 198.518 29.0481C192.135 32.8782 192.13 33.8994 192.39 36.962C192.65 40.0246 193.669 59.4347 193.409 67.6023C193.15 75.7699 195.707 101.56 199.027 107.942L202.346 114.323C202.346 114.323 209.731 140.87 212.25 149.546C213.12 152.543 221.881 148.402 223.684 147.428C233.433 142.161 233.283 139.948 233.283 139.948L232.22 137.051Z" fill="#B5896B"/>
<path d="M296.31 137.561C299.119 132.199 300.792 126.166 303.99 119.893C307.178 113.647 317.003 96.515 321.737 86.6531C322.609 84.8336 323.016 82.8257 322.919 80.8102C322.822 78.7947 322.226 76.8349 321.183 75.1073C319.955 73.0697 318.887 71.2276 318.524 70.4123C317.503 68.1154 322.099 60.4551 324.653 60.4551C327.207 60.4551 327.972 64.0297 329.759 65.0509C331.546 66.0721 337.419 68.1154 337.419 70.9234C337.419 73.7314 333.845 74.498 334.867 77.3061C335.534 79.152 335.216 84.1893 333.684 86.8495C332.49 89.0157 331.606 91.3388 331.059 93.7509C330.493 96.0592 329.943 98.1369 329.759 99.5185C329.249 103.349 322.075 127.192 319.992 132.191C317.144 139.029 314.467 144.838 312.799 148.133" fill="#B5896B"/>
<path d="M280.185 147.965L278.165 167.696C278.165 167.696 277.116 174.09 268.037 174.09C264.724 174.09 258.399 172.886 257.966 167.696V148.431L280.185 147.965Z" fill="#A7795A"/>
<path d="M280.185 147.965L278.165 167.696C278.165 167.696 276.469 174.994 268.037 174.241C265.12 173.981 258.098 173.037 257.966 167.696V148.431L280.185 147.965Z" fill="#A7795A"/>
<path d="M212.797 128.587C212.797 127.566 206.63 120.902 204.928 106.127C203.226 91.3517 204.447 88.3149 199.595 71.4639C194.743 54.6129 195.399 38.253 196.925 33.9127C196.925 33.9127 204.896 25.2226 198.513 29.0499C192.13 32.8772 192.124 33.9013 192.384 36.9639C192.645 40.0265 193.669 59.4347 193.409 67.6023C193.15 75.7698 195.707 101.56 199.027 107.942L202.346 114.323C202.346 114.323 209.088 141.083 212.25 149.546C213.489 152.854 225.459 146.971 226.708 145.759C228.657 143.873 218.435 135.243 218.435 135.243L212.797 128.587Z" fill="#A7795A"/>
<path d="M203.878 34.1586C204.641 33.903 208.475 28.0305 208.475 23.1801C208.475 18.3297 203.549 7.71454 202.785 5.27838C201.181 0.159106 197.24 -1.33024 197.494 1.22224C197.634 3.43278 197.634 5.64989 197.494 7.86042C197.494 7.86042 195.452 6.32912 192.132 9.64821C188.813 12.9673 182.43 16.0309 183.707 20.6267C184.984 25.2225 191.111 36.9666 194.942 37.2173C198.772 37.4681 203.878 34.1586 203.878 34.1586Z" fill="#B5896B"/>
<path d="M296.31 137.561C299.293 132.295 300.792 126.166 303.99 119.893C307.175 113.654 316.985 96.5461 321.726 86.6804C322.603 84.8574 323.013 82.8448 322.918 80.8241C322.823 78.8035 322.227 76.8381 321.184 75.105C319.956 73.0684 318.889 71.2282 318.526 70.4129C317.505 68.116 321.366 61.0449 323.92 61.0449C326.473 61.0449 321.254 65.4653 323.042 66.4865C324.83 67.5077 325.324 69.2964 325.324 72.1044C325.324 74.9124 328.868 79.4777 329.889 82.2867C330.556 84.1317 326.41 87.2572 324.88 89.9146C323.648 92.0542 322.843 91.608 322.255 94.006C321.683 96.3144 321.265 98.4159 320.955 99.7737C319.143 107.705 314.517 107.394 311.873 115.906C310.263 121.093 310.564 128.097 310.01 130.072C306.595 142.234 302.035 139.114 300.503 142.372C299.413 144.691 298.824 152.961 297.334 155.046L294.689 157.84C293.912 156.172 292.953 154.596 291.828 153.139C290.398 151.504 287.025 150.789 287.025 150.789C287.025 150.789 291.189 146.608 296.31 137.561Z" fill="#A7795A"/>
<path d="M289.34 137.302C289.34 137.302 290.349 122.157 287.32 119.127C287.32 119.127 281.364 110.641 276.333 108.962C271.302 107.283 258.225 108.295 254.2 119.693C250.175 131.091 251.518 135.789 251.518 135.789C251.518 135.789 248.736 133.486 248.255 138.935C247.775 144.384 250.985 148.367 252.832 147.506C252.832 147.506 253.622 154.292 255.83 158.791C259.056 165.37 262.283 168.594 268.715 168.681C274.66 168.76 279.395 166.945 282.761 160.529C284.708 156.991 285.97 153.118 286.48 149.112C286.48 149.112 289.707 150.476 290.823 147.25C293.316 140.057 291.84 136.715 289.34 137.302Z" fill="#B5896B"/>
<path d="M289.216 139.642C289.216 139.642 287.033 144.23 287.19 142.072C287.667 135.588 286.499 122.939 283.879 121.735C281.633 120.702 275.643 125.422 271.167 125.366C264.148 125.278 263.032 123.649 261.195 122.213C260.835 121.922 260.416 121.71 259.968 121.593C259.52 121.475 259.051 121.454 258.594 121.531C258.137 121.608 257.701 121.781 257.316 122.04C256.931 122.298 256.606 122.635 256.361 123.029C255.282 124.767 255.154 139.933 254.178 143.22C253.748 144.668 251.721 139.281 251.413 137.751C250.806 133.639 250.513 129.487 250.535 125.33C250.484 119.376 251.68 110.682 262.55 108.522C270.668 106.908 277.566 107.31 281.791 110.075C287.259 113.652 290.42 118.608 290.702 124.116C290.878 129.334 290.379 134.552 289.216 139.642Z" fill="#444C61"/>
<path d="M271.171 125.366C264.153 125.278 263.037 123.649 261.2 122.213C260.84 121.922 260.421 121.71 259.973 121.593C259.524 121.475 259.056 121.454 258.599 121.531C258.142 121.608 257.706 121.781 257.321 122.04C256.936 122.298 256.61 122.635 256.365 123.029C255.287 124.767 255.159 139.933 254.183 143.22C253.753 144.668 251.725 139.281 251.417 137.751C250.811 133.639 250.517 129.487 250.54 125.33C250.489 119.376 251.684 110.682 262.555 108.522C270.673 106.908 277.571 107.31 281.796 110.075C287.264 113.652 265.346 108.657 265.629 114.164C266.033 122.062 275.647 125.422 271.171 125.366Z" fill="#30384D"/>
<path d="M193.655 24.7077C193.655 19.8573 196.681 15.8345 195.918 13.3974C194.313 8.27811 197.494 7.86048 197.494 7.86048C197.494 7.86048 195.452 6.32918 192.132 9.64827C188.813 12.9674 182.43 16.0309 183.707 20.6267C184.984 25.2225 191.111 36.9666 194.942 37.2174C198.772 37.4682 193.655 29.558 193.655 24.7077Z" fill="#A7795A"/>
<path d="M326.754 166.166C326.754 166.166 301.309 178.963 297.604 181.721C293.9 184.48 284.459 200.856 282.607 206.243C280.754 211.63 254.344 233.799 271.846 247.104C278.006 251.788 285.988 250.134 300.13 227.748L305.207 299.841L357.694 291.135L373.506 286.893C373.983 269.564 375.197 228.035 376.796 224.153C376.796 224.153 399.891 245.212 406.07 246.315C413.876 247.709 419.312 245.897 418.615 237.116C417.918 228.335 417.37 225.219 405.095 211.609C392.819 197.999 381.677 180.946 375.404 178.714C369.132 176.482 350.593 170.629 350.593 170.629L326.754 166.17" fill="#444C61"/>
<path d="M304.257 286.344C304.257 286.344 333.774 294.811 373.463 286.344L373.506 286.89C344.915 304.95 301.808 302.296 301.808 302.296L304.257 286.344Z" fill="#2D2B34"/>
<path d="M349.404 175.494C348.568 189.638 357.502 194.639 356.689 214.169C355.163 250.796 346.82 243.25 344.915 279.034V289.954L360.012 291.321L373.433 286.542C373.909 269.215 375.197 228.027 376.796 224.143C376.796 224.143 399.891 245.202 406.07 246.305C413.876 247.699 419.312 245.886 418.615 237.106C417.918 228.325 417.37 225.209 405.095 211.599C392.819 197.989 381.677 180.936 375.405 178.704C369.132 176.472 350.593 170.619 350.593 170.619L344.918 181.836" fill="#30384D"/>
<path d="M412.672 222.196C410.359 219.794 396.44 205.104 391.051 199.351C390.765 198.875 390.448 198.419 390.103 197.984C389.506 197.126 385.153 194.571 383.532 192.95C381.911 191.329 380.118 187.745 379.431 184.161C379.188 182.884 379.773 179.211 379.858 177.249C379.944 175.287 378.749 174.347 376.445 175.201C374.141 176.054 373.8 182.369 374.226 184.416C374.519 186.193 374.662 187.991 374.653 189.792C374.653 189.792 367.058 192.95 363.763 195.254C360.469 197.557 364.156 200.629 364.156 200.629C362.535 204.729 366.46 205.322 366.46 205.322C365.697 208.992 370.56 209.589 370.56 209.589C371.926 213.258 378.155 212.491 378.155 212.491C380.679 213.433 383.433 213.569 386.037 212.88C390.768 224.268 396.65 235.143 403.59 245.337C407.576 251.111 416.334 252.224 420.435 248.007C424.535 243.79 421.72 231.6 412.672 222.196Z" fill="#EABBAE"/>
<path d="M412.672 222.197C410.359 219.795 396.44 205.104 391.051 199.351C390.765 198.876 390.448 198.419 390.103 197.985C389.506 197.127 385.153 194.571 383.532 192.95C381.911 191.329 380.118 187.745 379.431 184.161C379.188 182.884 379.773 179.211 379.858 177.249C379.944 175.287 378.681 176.301 377.999 178.662C376.345 184.389 377.7 186.032 378.126 188.08C378.552 190.128 374.653 189.537 374.653 189.796C374.653 189.796 377.497 191.29 376.51 193.064C376.297 193.407 376.187 193.804 376.194 194.208C376.201 194.613 376.324 195.006 376.55 195.342C376.877 195.731 377.101 196.196 377.201 196.695C377.301 197.194 377.274 197.71 377.122 198.195C376.968 198.627 376.927 199.091 377.002 199.543C377.076 199.995 377.264 200.421 377.548 200.78C377.855 201.125 378.068 201.543 378.168 201.993C378.268 202.444 378.252 202.912 378.12 203.355C377.992 203.811 377.987 204.293 378.106 204.752C378.225 205.211 378.463 205.631 378.797 205.967C379.168 206.356 379.462 206.811 379.665 207.309C380.006 208.107 380.568 208.792 381.284 209.283C382.001 209.774 382.842 210.052 383.71 210.083L387.155 210.282C390.467 210.427 393.622 211.734 396.067 213.973C398.214 215.998 399.621 218.683 400.063 221.601C403.382 229.555 402.552 232.268 415.355 240.091C421.341 243.749 420.423 248.017 420.423 248.017C424.535 243.8 421.72 231.601 412.672 222.197Z" fill="#D1A79C"/>
<path d="M328.572 197.058C328.401 193.645 316.49 189.751 316.49 189.751C316.598 187.809 316.841 185.876 317.218 183.968C318.267 180.63 317.218 176.606 315.513 175.667C313.808 174.727 311.844 176.264 312.356 179.592C312.726 182.013 312.401 184.489 311.419 186.733C310.533 188.83 308.177 190.232 306.64 192.024C305.103 193.815 303.654 199.191 303.654 199.191C303.649 199.319 303.654 199.429 303.648 199.554C299.305 202.83 271.065 224.181 267.167 228.614C261.564 234.988 263.323 254.724 271.388 252.701C285.031 249.276 302.819 221.561 308.195 212.72C309.219 212.976 314.661 213.441 314.661 213.441C318.415 214.465 319.866 213.1 320.549 212.672C321.232 212.245 320.89 209.943 320.89 209.943H323.194C325.925 209.686 324.815 205.761 324.815 205.761C325.373 205.817 325.934 205.699 326.423 205.425C326.911 205.15 327.303 204.731 327.545 204.225C328.74 202.348 327.119 200.385 327.119 200.385C327.119 200.385 328.743 200.472 328.572 197.058Z" fill="#EABBAE"/>
<path d="M328.572 197.059C328.401 193.645 316.49 189.752 316.49 189.752C316.598 187.809 316.841 185.877 317.218 183.968C318.267 180.631 317.218 176.606 315.513 175.667C313.808 174.728 314.457 177.812 314.969 181.141C315.328 183.58 314.988 186.072 313.988 188.326C313.102 190.423 329.414 190.813 323.924 198.111C323.604 198.538 324.865 202.432 320.836 203.133C320.15 203.252 321.939 206.578 317.326 207.688C317.281 208.139 317.146 208.576 316.928 208.973C316.71 209.37 316.414 209.719 316.058 209.999C315.701 210.279 315.292 210.483 314.855 210.601C314.417 210.718 313.96 210.745 313.512 210.681C311.328 210.69 309.151 210.918 307.012 211.36C299.896 216.802 296.349 225.935 286.052 235.215C275.937 244.332 263.402 238.328 264.149 243.807C264.897 249.286 267.352 253.713 271.385 252.701C285.029 249.276 302.816 221.561 308.193 212.721C309.216 212.976 314.658 213.441 314.658 213.441C318.412 214.465 319.863 213.1 320.546 212.673C321.229 212.246 320.887 209.943 320.887 209.943H323.191C325.922 209.687 324.812 205.761 324.812 205.761C325.37 205.817 325.931 205.7 326.42 205.425C326.909 205.15 327.301 204.732 327.542 204.226C328.737 202.349 327.116 200.385 327.116 200.385C327.116 200.385 328.743 200.472 328.572 197.059Z" fill="#D1A79C"/>
<path d="M326.659 154.314C326.659 154.314 328.637 160.623 327.884 162.882C327.332 164.369 326.465 165.718 325.341 166.838C325.341 166.838 338.061 188.645 349.774 179.681C351.047 178.707 352.98 177.393 351.894 169.802C351.842 168.217 351.874 166.63 351.99 165.049L326.659 154.314Z" fill="#D1A79C"/>
<path d="M321.247 145.079C321.247 145.079 319.593 146.549 320.342 150.543C321.09 154.537 323.708 157.446 328.329 155.387C328.329 155.387 331.77 160.747 332.202 161.68C333.214 163.861 340.134 174.647 351.778 171.623C351.778 171.623 354.707 170.648 355.614 166.49C356.474 162.729 357.533 159.015 358.787 155.366C359.619 152.947 360.823 149.63 358.934 143.092C358.934 143.092 359.043 136.201 358.665 134.765C358.286 133.329 359.177 123.297 351.99 121.861C344.803 120.425 332.115 122.706 330.074 125.655C328.032 128.604 322.437 135.559 322.064 138.735C321.691 141.911 321.247 145.079 321.247 145.079Z" fill="#EABBAE"/>
<path d="M354.249 125.23C354.249 125.23 346.57 130.558 333.091 130.402C333.091 130.402 330.336 132.976 330.33 140.636C330.324 150.023 327.935 149.07 327.935 149.07C327.935 149.07 325.339 141.052 321.244 145.079C321.244 145.079 320.411 141.223 319.656 138.956C319.656 138.956 316.056 131.042 319.814 125.344C323.572 119.646 323.359 116.56 327.816 114.821C332.273 113.082 351.567 112.192 355.557 117.732C359.987 123.881 359.333 128.668 359.635 130.256C359.938 131.844 359.159 142.487 358.932 143.093C358.705 143.698 358.485 128.406 354.249 125.23Z" fill="#444C61"/>
<path d="M354.249 125.23C354.249 125.23 347.304 129.357 341.03 129.838C341.516 128.195 342.562 126.774 343.986 125.822C350.393 121.845 329.947 118.957 334.266 116.985C340.472 114.151 323.355 116.56 327.812 114.821C332.269 113.082 351.563 112.192 355.553 117.732C359.983 123.881 359.329 128.668 359.632 130.256C359.934 131.844 359.155 142.487 358.928 143.093C358.701 143.698 358.485 128.406 354.249 125.23Z" fill="#30384D"/>
<path opacity="0.195" d="M344.917 289.946C344.917 289.946 363.446 288.406 373.469 286.355L373.511 286.902C363.046 295.293 344.91 298.287 344.91 298.287L344.917 289.946Z" fill="#30384D"/>
<path d="M142.099 177.146L191.421 190.541C191.421 190.541 202.381 216.722 200.554 218.549C198.727 220.376 198.119 241.077 198.119 241.077L211.516 287.959L127.235 292.134L122.006 239.25L142.099 177.146Z" fill="white"/>
<path d="M115.286 127.569C115.286 127.569 111.61 107.492 111.044 101.837C110.479 96.182 107.085 65.6428 107.367 61.6839C107.367 61.6839 108.782 54.897 113.023 56.311C115.675 57.1949 120.087 55.2193 119.928 57.2893C119.809 58.8234 118.511 60.4758 118.962 64.5119C119.465 69.0162 124.052 99.8577 126.315 104.664C128.578 109.471 131.97 130.962 128.294 131.528C124.618 132.093 115.286 127.569 115.286 127.569Z" fill="#EABBAE"/>
<path d="M124.788 126.196C125.97 114.383 120.974 113.76 120.547 100.464C120.476 98.2836 121.083 91.0247 119.937 85.2627C118.099 76.0139 114.146 67.3171 114.321 64.8781C114.321 64.8781 108.778 54.897 113.019 56.311C115.671 57.1949 120.083 55.2193 119.924 57.2893C119.806 58.8235 118.507 60.4759 118.958 64.512C119.461 69.0163 124.048 99.8578 126.311 104.664C128.574 109.471 131.966 130.962 128.29 131.528C124.614 132.093 123.607 138.009 124.788 126.196Z" fill="#D1A79C"/>
<path d="M143.561 171.68C142.713 171.966 133.946 167.438 132.532 154.714C131.118 141.989 130.036 127.635 130.036 127.635L113.617 122.91C113.617 122.91 114.717 171.111 117.262 183.552C119.807 195.993 121.786 204.195 120.655 207.022C119.524 209.849 109.909 251.134 110.757 257.355C111.606 263.575 104.819 296.943 104.819 296.943L132.532 299.205C132.532 299.205 122.178 304.442 128.573 253.962C130.117 241.782 131.118 217.485 143.561 190.339L148.651 180.159L143.561 171.68Z" fill="#8A90A7"/>
<path d="M143.561 171.681C142.713 171.967 133.946 167.439 132.532 154.715C131.118 141.99 130.036 127.635 130.036 127.635L124.567 126.01C124.567 126.01 117.043 152.126 129.42 179.825C134.601 191.419 132.347 200.635 125 214.594C116.159 231.39 121.032 256.937 121.168 263.214C121.759 290.322 117.633 295.332 108.497 300.635L132.527 299.205C132.527 299.205 122.173 304.442 128.568 253.962C130.112 241.782 131.113 217.484 143.556 190.339L148.646 180.159L143.561 171.681Z" fill="#7B8093"/>
<path d="M180.319 187.515C180.319 187.515 186.422 199.508 187.552 210.818C188.682 222.128 183.673 227.438 198.136 264.428C201.263 272.425 211.427 291.574 210.013 294.685L217.083 291.857C215.489 283.202 212.428 274.882 208.034 267.257C200.963 255.38 199.547 227.669 199.547 227.669C199.547 227.669 214.524 245.419 219.059 247.746C221.452 248.938 224.102 249.52 226.775 249.438C229.447 249.357 232.057 248.615 234.372 247.278L225.563 224.842C225.563 224.842 215.666 216.076 209.162 206.745C202.658 197.414 192.475 184.406 186.539 184.971C180.603 185.536 180.319 187.515 180.319 187.515Z" fill="#8A90A7"/>
<path d="M107.64 66.8038C106.774 62.7067 106.49 58.5076 106.799 54.3312C107.145 50.3571 109.001 42.8198 108.878 37.0092C108.82 34.3023 111.104 35.4646 111.324 36.2341C111.889 38.2135 113.02 43.3032 113.02 43.3032C113.02 43.3032 115.929 34.4548 118.111 30.8621C121.735 24.8942 131.402 18.42 129.422 24.0752C127.787 28.4251 125.899 32.6754 123.766 36.8042C123.766 36.8042 129.4 32.7195 129.4 35.7783C129.4 38.0028 123.767 43.7227 122.353 47.3984C120.939 51.0741 119.523 62.537 116.978 64.7986C114.433 67.0603 107.64 66.8038 107.64 66.8038Z" fill="#EABBAE"/>
<path d="M213.98 202.501C212.849 202.215 207.193 192.604 203.799 189.777C200.406 186.95 192.488 177.618 194.75 176.486C197.012 175.355 205.214 183.273 205.496 183.273C205.778 183.273 202.668 168.286 201.82 165.458C200.971 162.63 197.578 156.693 200.689 157.258C203.799 157.824 215.959 163.197 218.222 169.7C220.485 176.204 225.292 198.826 221.049 201.087C216.807 203.349 213.98 202.501 213.98 202.501Z" fill="#EABBAE"/>
<path d="M152.69 178.94C152.69 178.94 152.36 193.784 155.33 198.072C156.806 200.205 159.888 203.636 163.631 203.449C170.026 203.13 173.223 198.491 173.143 195.104V176.299L152.69 178.94Z" fill="#D1A79C"/>
<path d="M146.955 140.293C146.955 140.293 144.41 158.39 146.669 165.743C148.928 173.095 152.042 189.495 160.526 186.95C169.01 184.405 178.059 178.185 179.19 160.935C180.321 143.686 177.493 133.507 169.01 131.528C160.526 129.548 152.328 130.962 146.955 140.293Z" fill="#EABBAE"/>
<path d="M138.026 182.872C141.168 177.734 139.02 177.223 137.618 171.365C136.474 166.582 141.583 161.038 141.583 155.506C141.583 135.461 142.207 134.576 149.072 128.192C152.288 125.203 161.39 122.329 170 124.888C173.477 125.849 176.617 127.759 179.068 130.405C181.52 133.051 183.185 136.327 183.878 139.867C184.742 143.839 183.475 154.169 186.301 161.233C188.064 165.639 190.02 170.425 188.724 173.568C187.183 177.312 187.307 180.855 190.346 182.391C195.993 185.242 196.597 195.318 191.169 198.371C183.577 202.641 172.202 201.327 171.541 193.173C171.105 187.783 171.314 184.643 171.928 181.878C172.903 177.492 174.895 174.044 176.93 164.047C178.025 158.667 179.011 147.671 172.202 147.797C160.306 148.017 154.763 131.569 151.936 137.224C149.109 142.879 150.43 149.372 148.939 154.247C146.46 162.352 152.817 164.944 152.817 176.212C152.817 184.583 161.187 184.362 160.643 191.255C159.412 206.852 141.582 203.966 138.184 198.847C134.529 193.337 134.249 189.049 138.026 182.872Z" fill="#444C61"/>
<path d="M153.92 126.313C149.545 126.68 160.15 121.821 170 124.883C173.466 125.865 176.595 127.782 179.043 130.424C181.491 133.067 183.164 136.332 183.878 139.862C184.742 143.835 183.475 154.165 186.301 161.228C188.064 165.634 190.02 170.421 188.724 173.563C187.183 177.308 187.307 180.851 190.346 182.386C195.993 185.238 196.597 195.313 191.169 198.367C183.577 202.636 172.202 201.322 171.541 193.168C171.105 187.778 171.314 184.638 171.928 181.873C172.903 177.487 174.895 174.039 176.93 164.043C178.025 158.662 179.011 147.667 172.202 147.793C165.774 147.912 163.992 139.522 170.271 135.597C174.622 132.878 172.756 127.749 169.617 126.311C164.183 123.823 157.953 125.976 153.92 126.313Z" fill="#30384D"/>
<path d="M114.72 67.3331C114.72 67.3331 112.449 62.7974 116.818 54.2703C118.637 50.7195 118.69 42.2068 118.69 42.2068C118.69 42.2068 119.834 34.9832 122.019 31.3904C125.642 25.4226 131.402 18.423 129.422 24.0762C127.787 28.4255 125.899 32.6752 123.766 36.8034C123.766 36.8034 129.4 32.7186 129.4 35.7774C129.4 38.0019 123.767 43.7219 122.353 47.3976C120.939 51.0733 119.523 62.5361 116.978 64.7978C114.433 67.0594 114.72 67.3331 114.72 67.3331Z" fill="#D1A79C"/>
<path d="M199.258 227.373C198.437 223.39 205.116 228.545 209.452 233.114C213.788 237.683 217.068 242.84 219.763 244.831C223.989 247.353 228.953 248.346 233.824 247.643C233.824 247.643 219.528 259.007 199.258 227.373Z" fill="#7B8093"/>
<path d="M224.29 244.855C223.145 243.678 222.305 242.24 221.843 240.664C219.538 233.24 213.752 204.543 212.543 199.466C211.129 193.528 218.218 185.814 221.894 193.732C225.57 201.649 239.704 232.92 239.865 239.333C240.022 245.643 231.207 251.73 224.29 244.855Z" fill="#EABBAE"/>
<path d="M222.727 195.539C222.88 187.807 219.872 174.454 218.218 169.7C215.955 163.196 203.796 157.823 200.685 157.258C197.575 156.692 206.809 164.522 208.897 166.609C216.408 174.12 213.279 181.007 215.469 188.826C218.672 200.263 222.879 198.327 222.355 213.548C222.042 222.623 234.259 235.097 233.308 240.461C231.607 250.06 239.568 247.346 239.865 239.334C240.086 233.342 227.329 205.571 222.727 195.539Z" fill="#D1A79C"/>
<path d="M411.146 202.297C410.209 203.076 390.702 211.627 390.688 226.827C390.674 242.026 392.53 260.119 390.132 267.826C387.734 275.533 383.325 283.317 390.628 287.623C397.931 291.929 468.269 304.499 468.269 304.499C468.269 304.499 460.808 266.016 462.288 259.105C463.768 252.194 470.882 238.764 463.477 231.446C456.071 224.128 437.377 206.667 434.687 200.608C431.997 194.548 414.481 199.522 411.146 202.297Z" fill="#4573D2"/>
<path d="M443.924 214.615C444.459 215.269 446.352 216.378 449.966 225.318C451.564 229.273 457.527 239 457.004 243.684C456.128 251.523 452.023 257.939 449.624 265.65C447.225 273.361 441.262 294.194 448.566 298.499C455.869 302.804 468.269 304.506 468.269 304.506C468.269 304.506 460.809 266.022 462.288 259.111C463.768 252.2 470.882 238.77 463.477 231.452C456.071 224.134 439.79 204.85 434.688 200.614C428.855 195.772 441.267 211.376 443.924 214.615Z" fill="#4369B6"/>
<path d="M411.491 248.156L409.42 288.574L430.451 290.753C430.451 290.753 429.946 275.928 422.918 268.033C415.889 260.138 411.491 248.156 411.491 248.156Z" fill="#4369B6"/>
<path d="M464.728 113.115C464.728 113.115 468.301 103.413 466.291 99.9919C464.282 96.5708 459.31 86.0357 454.033 83.9076C448.756 81.7794 453.692 80.844 456.74 81.746C456.74 81.746 440.226 69.2372 444.057 68.811C447.889 68.3848 457.847 77.7452 462.374 78.7149C466.902 79.6846 472.078 82.2885 473.423 85.3178C474.769 88.347 478.105 96.0407 476.2 102.611C474.295 109.182 472.95 116.62 472.95 116.62L464.728 113.115Z" fill="#D5A882"/>
<path d="M469.352 115.248C469.352 115.248 473.531 104.759 471.522 101.335C469.513 97.9114 472.939 87.4488 467.661 85.3216C462.383 83.1943 454.448 77.9912 457.495 78.8922C457.495 78.8922 440.226 69.2372 444.056 68.811C447.887 68.3848 457.846 77.7452 462.373 78.7149C466.901 79.6846 472.077 82.2885 473.422 85.3178C474.768 88.347 478.104 96.0407 476.199 102.611C474.294 109.182 472.949 116.62 472.949 116.62L469.352 115.248Z" fill="#BA8B67"/>
<path d="M450.388 221.698C450.388 221.698 446.162 207.551 455.181 187.55C464.199 167.549 467.958 172.093 472.369 153.846C476.779 135.599 475.529 107.668 475.529 107.668L464.021 106.695C464.021 106.695 458.086 149.538 453.818 157.845C449.55 166.152 442.453 199.023 442.453 199.023L450.388 221.698Z" fill="#4573D2"/>
<path d="M418.974 185.529C418.974 185.529 413.789 205.768 414.23 213.448C414.643 220.621 432.286 225.092 434.966 212.573C436.635 204.783 440.086 197.524 440.255 192.078C440.425 186.632 440.678 174.915 434.039 174.492C427.4 174.069 418.974 185.529 418.974 185.529Z" fill="#BA8B67"/>
<path d="M452.19 228.283C453.344 227.287 454.066 225.881 454.204 224.363C454.341 222.844 453.884 221.332 452.927 220.145C446.854 211.764 449.955 199.139 455.181 187.551C464.199 167.55 467.958 172.094 472.369 153.847C476.779 135.6 475.529 107.669 475.529 107.669L471.351 107.287C471.351 107.287 467.578 114.944 465.82 130.165C464.649 140.33 465.892 158.918 464.182 162.245C461.989 166.517 451.881 185.295 444.893 197.746C438.629 208.907 440.506 210.013 440.506 210.013C440.506 210.013 441.018 211.825 445.369 218.281C449.72 224.737 452.19 228.283 452.19 228.283Z" fill="#4369B6"/>
<path d="M418.497 185.381C418.497 185.381 417.887 168.435 419.759 163.572C421.632 158.71 436.568 144.622 446.503 148.689C456.438 152.755 463.58 159.158 464.072 165.912C464.564 172.667 463.6 177.17 462.768 175.884C461.936 174.598 454.115 170.281 447.549 164.719C447.549 164.719 444.75 157.235 444.732 166.373C444.715 175.511 436.125 169.906 434.347 171.742C432.569 173.577 424.845 180.977 424.845 180.977C424.845 180.977 416.547 192.241 418.497 185.381Z" fill="#444C61"/>
<path d="M436.939 155.584C439.079 154.115 443.643 154.249 443.635 151.652C443.635 150.549 442.606 147.86 444.923 148.675C455.049 152.239 463.58 159.158 464.072 165.913C464.564 172.667 463.601 177.171 462.768 175.885C461.936 174.598 454.115 170.282 447.549 164.72C447.549 164.72 444.75 157.235 444.732 166.374C444.715 175.512 436.125 169.907 434.347 171.743C432.569 173.578 424.845 180.978 424.845 180.978C424.845 180.978 428.245 161.546 436.939 155.584Z" fill="#30384D"/>
<path d="M429.445 172.351C429.445 172.351 429.69 166.031 426.489 166.732C423.288 167.433 417.181 179.145 425.128 180.844C425.128 180.844 420.569 191.78 421.725 196.737C422.88 201.694 428.028 213.879 433.364 212.251C438.7 210.624 445.265 204.548 449.352 200.991C453.439 197.433 455.293 193.951 455.86 191.302C455.86 191.302 459.38 190.394 460.798 183.77C462.216 177.146 467.041 174.025 460.644 167.668C454.248 161.311 445.468 158.324 440.585 161.711C435.703 165.098 429.445 172.351 429.445 172.351Z" fill="#D5A882"/>
<path fill-rule="evenodd" clip-rule="evenodd" d="M299.991 33.849C404.184 33.849 504.824 23.5544 599.811 4.40039L600 5.33506C504.95 24.5017 404.247 34.8025 299.991 34.8025C195.735 34.8025 95.0427 24.5084 0.00109863 5.34078L0.189628 4.40611C95.1684 23.5611 195.798 33.849 299.991 33.849Z" fill="#8A90A7"/>
<path d="M104.611 18.6145L61.1787 12.4785L52.9078 71.0134L96.3403 77.1494L104.611 18.6145Z" fill="#4573D2"/>
<path d="M90.5313 28.98L96.2975 29.7942L79.5902 62.1031L73.7305 61.2755L66.6741 25.6094L72.3955 26.4179L76.5006 48.5531C76.7307 49.6134 76.9427 50.9674 77.1366 52.615C77.3305 54.2626 77.4348 55.4831 77.4494 56.2764C77.8175 55.1265 78.32 53.8059 78.957 52.3146C79.594 50.8234 80.0971 49.7247 80.4665 49.0184L90.5313 28.98Z" fill="white"/>
<path d="M159.999 24.4564L116.389 19.7461L110.04 78.5204L153.65 83.2307L159.999 24.4564Z" fill="#4573D2"/>
<path d="M142.793 69.4293L123.486 67.344L127.173 33.2148L146.48 35.3001L145.97 40.0151L132.239 38.5324L131.236 47.8242L144.1 49.2134L143.595 53.8855L130.733 52.4934L129.576 63.2077L143.307 64.6904L142.793 69.4293Z" fill="white"/>
<path d="M212.909 27.9581L169.113 25.5273L165.836 84.5527L209.633 86.9835L212.909 27.9581Z" fill="#4573D2"/>
<path d="M177.869 72.6451L179.771 38.3691L185.376 38.68L183.739 68.1504L198.252 68.9561L197.985 73.7616L177.869 72.6451Z" fill="white"/>
<path d="M265.893 30.4791L222.066 28.6875L219.651 87.7544L263.478 89.5459L265.893 30.4791Z" fill="#4573D2"/>
<path d="M256.106 76.6782L249.608 76.4131L239.473 60.4422L236.055 63.0042L235.53 75.8372L229.922 75.6084L231.325 41.3086L236.932 41.5384L236.264 57.9136C237.874 56.0994 239.473 54.3552 241.062 52.6808L250.777 42.1038L257.159 42.3651C250.877 49.1577 246.377 53.9947 243.661 56.8762L256.106 76.6782Z" fill="white"/>
<path d="M319.057 30.5117H275.193V89.6279H319.057V30.5117Z" fill="#4573D2"/>
<path d="M312.803 59.8618C312.803 65.4511 311.404 69.7949 308.607 72.8931C305.81 75.9913 301.853 77.541 296.736 77.5423C291.555 77.5423 287.575 76.0043 284.796 72.9283C282.017 69.8524 280.63 65.4813 280.634 59.815C280.634 54.1488 282.032 49.7971 284.829 46.7599C287.626 43.7227 291.614 42.2044 296.794 42.2051C301.896 42.2051 305.841 43.7469 308.628 46.8304C311.416 49.914 312.807 54.2578 312.803 59.8618ZM286.597 59.8618C286.597 64.0882 287.45 67.2932 289.157 69.4767C290.863 71.6602 293.391 72.7523 296.741 72.7529C300.076 72.7529 302.593 71.6723 304.291 69.5111C305.988 67.3498 306.838 64.1331 306.838 59.8608C306.838 55.6502 305.997 52.457 304.314 50.2811C302.632 48.1053 300.123 47.0176 296.789 47.0183C293.42 47.0183 290.879 48.1059 289.168 50.2811C287.457 52.4563 286.6 55.6499 286.597 59.8618Z" fill="white"/>
<path d="M372.728 29.0693L328.864 30.0781L330.224 89.1943L374.088 88.1855L372.728 29.0693Z" fill="#4573D2"/>
<path d="M349.046 76.1832L338.42 47.7492L338.229 47.754C338.595 52.0046 338.821 55.9921 338.908 59.7164L339.297 76.4024L334.203 76.5216L333.403 42.2028L341.317 42.0178L351.485 69.0968H351.625L360.805 41.5716L368.743 41.3809L369.543 75.6997L364.143 75.8256L363.748 58.8535C363.708 57.1474 363.699 54.9242 363.721 52.1839C363.744 49.4435 363.779 47.7829 363.828 47.2019L363.637 47.2067L353.999 76.064L349.046 76.1832Z" fill="white"/>
<path d="M426.179 24.0205L382.467 27.6738L387.392 86.5846L431.103 82.9312L426.179 24.0205Z" fill="#4573D2"/>
<path d="M405.382 72.4804L393.071 44.7396L392.88 44.7549C393.5 48.9769 393.965 52.9437 394.275 56.6553L395.667 73.2918L390.589 73.717L387.728 39.5078L395.614 38.848L407.39 65.2672L407.53 65.2558L415.036 37.2233L422.951 36.5625L425.812 70.7717L420.426 71.2246L419.012 54.3079C418.869 52.6075 418.727 50.3887 418.586 47.6516C418.444 44.9144 418.38 43.2547 418.395 42.6724L418.204 42.6887L410.318 72.0675L405.382 72.4804Z" fill="white"/>
<path d="M478.161 19.9165L434.517 24.2148L440.311 83.0355L483.955 78.7372L478.161 19.9165Z" fill="#4573D2"/>
<path d="M470.025 67.514L450.699 69.4143L447.345 35.2461L466.674 33.3496L467.137 38.0703L453.395 39.4186L454.308 48.7189L467.181 47.4555L467.64 52.1276L454.765 53.3957L455.814 64.1215L469.555 62.7733L470.025 67.514Z" fill="white"/>
<path d="M530.73 12.7946L487.217 18.1895L494.489 76.8327L538.002 71.4379L530.73 12.7946Z" fill="#4573D2"/>
<path d="M528.92 59.9236L522.093 60.7722L501.962 35.7108L501.771 35.7346L502.077 37.2344C502.653 40.0949 503.09 42.7218 503.388 45.115L505.591 62.8241L500.537 63.4534L496.301 29.3872L503.058 28.5472L523.125 53.4742L523.265 53.4571C523.189 53.1043 522.966 51.8113 522.597 49.5783C522.229 47.3452 521.964 45.5994 521.804 44.3408L519.584 26.4924L524.687 25.8574L528.92 59.9236Z" fill="white"/>
</g>
<defs>
<clipPath id="clip0_9_42783">
<rect width="600" height="304.5" fill="white"/>
</clipPath>
</defs>
</svg>
