<svg width="600" height="330" viewBox="0 0 600 330" fill="none" xmlns="http://www.w3.org/2000/svg">
<g clip-path="url(#clip0_9_51230)">
<mask id="mask0_9_51230" style="mask-type:alpha" maskUnits="userSpaceOnUse" x="0" y="33" width="601" height="297">
<path d="M329.256 49.4361C217.311 99.2406 309.354 166.975 216.273 197.482C177.576 210.165 101.032 138.309 18.37 199.549C4.44692 209.864 -17.6596 246.56 24.5126 286.098C92.9107 350.233 508.612 333.95 560.442 297.788C598.639 271.132 610.496 215.002 590.205 184.991C566.87 150.488 479.562 -17.4258 329.256 49.4361Z" fill="#F6F6F6"/>
</mask>
<g mask="url(#mask0_9_51230)">
<path d="M329.256 49.4401C217.311 99.2445 309.354 166.979 216.273 197.486C177.576 210.169 101.032 138.313 18.37 199.553C4.44692 209.868 -17.6596 246.564 24.5126 286.102C92.9107 350.237 508.612 333.954 560.442 297.792C598.639 271.136 610.496 215.006 590.205 184.995C566.87 150.492 479.562 -17.4219 329.256 49.4401Z" fill="#BEBEBE" fill-opacity="0.14"/>
<path d="M472.348 34.4648L469.317 59.1484L502.978 63.2815L506.009 38.5978L472.348 34.4648Z" fill="#A4A4A4" fill-opacity="0.4"/>
<path d="M438.895 10.3367L433.301 34.5684L466.345 42.1972L471.94 17.9656L438.895 10.3367Z" fill="#A4A4A4" fill-opacity="0.4"/>
<path d="M544.859 147.115H511.076V171.369H544.859V147.115Z" fill="#A4A4A4" fill-opacity="0.4"/>
<path d="M568.678 75.4765L560.172 98.8457L592.04 110.445L600.546 87.0756L568.678 75.4765Z" fill="#A4A4A4" fill-opacity="0.4"/>
<path d="M562.613 105.688H527.965V129.941H562.613V105.688Z" fill="#A4A4A4" fill-opacity="0.4"/>
<path d="M510.979 79.7809L477.689 86.252L482.434 110.664L515.725 104.193L510.979 79.7809Z" fill="#A4A4A4" fill-opacity="0.4"/>
<path d="M468.555 74.6362L435.059 79.9414L438.949 104.504L472.445 99.199L468.555 74.6362Z" fill="#A4A4A4" fill-opacity="0.4"/>
<path d="M577.936 145.985L572.342 170.217L605.386 177.846L610.98 153.614L577.936 145.985Z" fill="#A4A4A4" fill-opacity="0.4"/>
<path d="M388.778 126.959C388.778 126.959 391.483 139.511 387.228 149.275C382.974 159.039 390.427 162.2 388.472 168.135C386.518 174.069 383.337 180.973 387.961 189.896C395.607 204.656 414.037 183.477 417.164 185.135C420.292 186.793 399.624 115.457 399.624 115.457L388.778 126.959Z" fill="#30384D"/>
<path d="M455.819 176.648C453.344 175.735 451.123 174.242 449.342 172.295C447.562 170.347 446.274 168.001 445.586 165.454C443.539 156.925 441.823 152.148 441.823 152.148C444.721 148.564 446.6 144.264 447.262 139.702C447.924 135.14 447.345 130.484 445.586 126.224C439.787 110.532 433.987 103.004 418.977 102.503C403.967 102.003 391.346 107.683 388.276 115.076C385.205 122.469 389.296 129.774 389.296 132.844C389.296 135.914 396.669 169.545 401.085 175.703C405.05 181.236 410.825 178.401 415.75 175.065L422.169 205.601L460.262 187.638L455.819 176.648Z" fill="#B5896B"/>
<path d="M450.361 171.936C450.361 171.936 428.524 213.087 415.947 181.719C415.947 181.719 397.486 184.581 393.393 187.638C389.301 190.695 366.205 216.578 366.205 216.578L377.994 240.867L383.344 236.066L387.935 282.459L468.833 294.472L469.986 246.12L496.754 238.868C496.754 238.868 495.732 197.86 486.521 190.357C477.311 182.853 450.361 171.936 450.361 171.936Z" fill="#4573D2"/>
<path d="M-89.5663 266.847L749.615 264.576L701.603 392.377L-131.506 367.142L-89.5663 266.847Z" fill="#CED3DF"/>
<path opacity="0.18" d="M467.728 297.129L-138.6 297.129V266.848L496.298 266.848V268.559C496.298 276.136 493.288 283.403 487.93 288.761C482.572 294.119 475.305 297.129 467.728 297.129V297.129Z" fill="#2D2B34"/>
<path d="M571.102 291.598L503.826 232.395L549.122 218.73L571.102 291.598ZM550.738 260.427L541.983 231.41L524.401 236.722L550.738 260.427Z" fill="#E2E5EC"/>
<path d="M567.063 278.204L566.826 277.416L564.068 278.248C564.016 278.264 563.968 278.289 563.926 278.323C563.884 278.357 563.85 278.399 563.824 278.447C563.799 278.494 563.783 278.547 563.778 278.6C563.772 278.654 563.778 278.708 563.793 278.76C563.809 278.811 563.834 278.86 563.868 278.902C563.902 278.944 563.944 278.979 563.991 279.004C564.039 279.03 564.091 279.046 564.145 279.052C564.199 279.057 564.253 279.052 564.305 279.036L567.063 278.204Z" fill="white"/>
<path fill-rule="evenodd" clip-rule="evenodd" d="M566.561 277.497C566.595 277.486 566.631 277.482 566.666 277.485C566.702 277.488 566.737 277.499 566.77 277.516C566.802 277.533 566.83 277.556 566.853 277.584C566.876 277.612 566.893 277.644 566.903 277.678M566.983 277.941C566.994 277.976 566.997 278.012 566.994 278.048C566.99 278.083 566.98 278.119 566.962 278.152C566.945 278.184 566.921 278.212 566.893 278.235C566.865 278.258 566.833 278.275 566.798 278.285C566.798 278.285 566.799 278.285 566.798 278.285L564.305 279.037M563.793 278.762C563.778 278.71 563.772 278.656 563.778 278.603C563.783 278.549 563.799 278.497 563.824 278.449C563.85 278.401 563.884 278.359 563.926 278.325C563.968 278.291 564.016 278.265 564.068 278.249L566.561 277.497M566.589 278.062C566.589 278.062 566.59 278.063 566.589 278.062L566.72 278.022L566.786 278.001L566.589 278.062Z" fill="#8A90A7"/>
<path d="M566.219 275.446L565.982 274.658L563.224 275.49C563.173 275.506 563.124 275.532 563.083 275.566C563.041 275.601 563.006 275.643 562.981 275.69C562.955 275.738 562.939 275.79 562.934 275.844C562.929 275.898 562.934 275.952 562.95 276.004C562.966 276.056 562.991 276.104 563.026 276.146C563.06 276.188 563.102 276.222 563.15 276.248C563.197 276.273 563.25 276.289 563.304 276.294C563.357 276.3 563.412 276.294 563.463 276.278L566.219 275.446Z" fill="white"/>
<path fill-rule="evenodd" clip-rule="evenodd" d="M565.73 274.739C565.764 274.728 565.801 274.724 565.836 274.728C565.873 274.731 565.908 274.742 565.94 274.759C565.972 274.777 566.001 274.8 566.024 274.829C566.046 274.857 566.063 274.889 566.074 274.924C566.073 274.924 566.074 274.924 566.074 274.924L566.15 275.183C566.15 275.182 566.15 275.181 566.149 275.18L565.954 275.243L566.15 275.183C566.172 275.252 566.165 275.326 566.132 275.389C566.099 275.454 566.042 275.503 565.972 275.525L565.969 275.527L563.474 276.279M562.961 276.005C562.945 275.953 562.94 275.899 562.945 275.845C562.95 275.791 562.966 275.739 562.992 275.691C563.017 275.643 563.052 275.601 563.094 275.567C563.135 275.533 563.184 275.507 563.235 275.491L565.73 274.739" fill="#8A90A7"/>
<path d="M565.398 272.69L565.161 271.902L560.435 273.328C560.383 273.343 560.335 273.369 560.293 273.403C560.251 273.437 560.216 273.479 560.19 273.527C560.165 273.575 560.149 273.627 560.143 273.681C560.138 273.735 560.143 273.79 560.159 273.841C560.191 273.946 560.263 274.033 560.359 274.084C560.455 274.136 560.568 274.147 560.672 274.116L565.398 272.69Z" fill="white"/>
<path fill-rule="evenodd" clip-rule="evenodd" d="M564.886 271.987C564.955 271.966 565.029 271.972 565.093 272.005C565.157 272.038 565.206 272.096 565.229 272.165L565.23 272.168L565.23 272.168L565.31 272.432L565.112 272.491L565.311 272.436C565.33 272.505 565.322 272.579 565.288 272.642C565.254 272.704 565.197 272.752 565.129 272.774L565.125 272.775L565.125 272.775L560.661 274.121C560.661 274.121 560.661 274.121 560.661 274.121" fill="#8A90A7"/>
<path d="M564.568 269.933L564.329 269.145L561.573 269.977C561.521 269.992 561.473 270.018 561.431 270.052C561.389 270.086 561.354 270.128 561.328 270.176C561.302 270.224 561.286 270.276 561.281 270.33C561.275 270.384 561.281 270.438 561.296 270.49C561.312 270.542 561.338 270.59 561.372 270.632C561.406 270.674 561.449 270.708 561.496 270.734C561.544 270.759 561.596 270.775 561.65 270.781C561.704 270.786 561.758 270.781 561.81 270.765L564.568 269.933Z" fill="white"/>
<path fill-rule="evenodd" clip-rule="evenodd" d="M564.065 269.225C564.1 269.214 564.136 269.211 564.172 269.214C564.208 269.218 564.244 269.228 564.276 269.246C564.308 269.263 564.336 269.287 564.359 269.315C564.382 269.343 564.399 269.375 564.409 269.409C564.409 269.409 564.409 269.41 564.409 269.409L564.488 269.668L564.291 269.73L564.094 269.79C564.089 269.772 564.088 269.754 564.089 269.737C564.091 269.719 564.096 269.701 564.105 269.685C564.114 269.669 564.126 269.655 564.14 269.643C564.153 269.632 564.169 269.624 564.185 269.619C564.186 269.619 564.187 269.618 564.188 269.618L564.079 269.651L564.185 269.619C564.168 269.624 564.15 269.626 564.133 269.624C564.114 269.622 564.097 269.617 564.081 269.608C564.065 269.6 564.05 269.588 564.039 269.574C564.028 269.56 564.02 269.545 564.015 269.528C564.014 269.527 564.014 269.526 564.014 269.525L564.054 269.658L561.693 270.371M561.493 270.431L561.691 270.374L561.693 270.371M561.693 270.371L564.054 269.658L564.094 269.79C564.094 269.789 564.095 269.79 564.094 269.79L564.226 269.75L564.291 269.73L564.488 269.668" fill="#8A90A7"/>
<path d="M563.736 267.179L563.499 266.391L560.741 267.221C560.689 267.236 560.641 267.262 560.599 267.296C560.557 267.331 560.523 267.373 560.497 267.421C560.472 267.468 560.456 267.521 560.45 267.574C560.445 267.628 560.451 267.682 560.466 267.734C560.482 267.786 560.507 267.834 560.541 267.876C560.575 267.918 560.617 267.952 560.665 267.978C560.712 268.003 560.764 268.019 560.818 268.024C560.872 268.03 560.926 268.024 560.978 268.009L563.736 267.179Z" fill="white"/>
<path fill-rule="evenodd" clip-rule="evenodd" d="M563.246 266.463C563.314 266.446 563.385 266.456 563.446 266.49C563.507 266.523 563.553 266.579 563.575 266.645L563.576 266.65L563.656 266.913L563.459 266.973L563.396 266.993L563.263 267.035C563.262 267.034 563.263 267.035 563.263 267.035L563.459 266.973M560.977 268.007L563.47 267.255L560.977 268.007Z" fill="#8A90A7"/>
<path d="M562.899 264.419L562.662 263.631L557.936 265.056C557.832 265.088 557.744 265.16 557.692 265.256C557.64 265.352 557.629 265.465 557.66 265.57C557.675 265.622 557.701 265.67 557.735 265.712C557.77 265.753 557.812 265.788 557.86 265.814C557.907 265.839 557.959 265.855 558.013 265.86C558.067 265.865 558.121 265.86 558.173 265.844L562.899 264.419Z" fill="white"/>
<path fill-rule="evenodd" clip-rule="evenodd" d="M562.402 263.712C562.471 263.69 562.545 263.697 562.609 263.729C562.674 263.763 562.723 263.82 562.745 263.889L562.747 263.895L562.824 264.156C562.845 264.225 562.838 264.299 562.806 264.362C562.772 264.427 562.715 264.476 562.646 264.498L562.642 264.5L558.177 265.845C558.177 265.845 558.178 265.845 558.177 265.845M557.664 265.571C557.648 265.519 557.643 265.465 557.648 265.411C557.654 265.357 557.669 265.305 557.695 265.257C557.72 265.209 557.755 265.167 557.797 265.133C557.839 265.099 557.887 265.073 557.938 265.057L562.402 263.712" fill="#8A90A7"/>
<path d="M562.071 261.661L561.834 260.875L559.076 261.705C558.972 261.737 558.885 261.809 558.834 261.905C558.782 262.002 558.771 262.114 558.802 262.219C558.818 262.27 558.843 262.319 558.878 262.36C558.912 262.402 558.954 262.437 559.002 262.462C559.049 262.488 559.102 262.504 559.156 262.509C559.209 262.514 559.264 262.509 559.315 262.493L562.071 261.661Z" fill="#8A90A7"/>
<path d="M561.241 258.905L561.002 258.117L558.246 258.949C558.194 258.965 558.146 258.99 558.104 259.024C558.062 259.058 558.027 259.1 558.001 259.148C557.976 259.195 557.959 259.247 557.954 259.301C557.949 259.355 557.954 259.409 557.969 259.461C558.001 259.565 558.073 259.653 558.169 259.705C558.265 259.757 558.378 259.768 558.483 259.737L561.241 258.905Z" fill="#8A90A7"/>
<path d="M560.409 256.147L560.172 255.359L555.444 256.785C555.392 256.801 555.344 256.826 555.302 256.861C555.26 256.895 555.226 256.937 555.2 256.985C555.175 257.032 555.159 257.085 555.154 257.139C555.148 257.192 555.154 257.247 555.169 257.298C555.185 257.35 555.211 257.398 555.245 257.44C555.279 257.482 555.322 257.517 555.369 257.542C555.417 257.568 555.469 257.583 555.523 257.589C555.577 257.594 555.631 257.589 555.683 257.573L560.409 256.147Z" fill="#8A90A7"/>
<path d="M559.579 253.392L559.342 252.604L556.584 253.436C556.532 253.451 556.484 253.477 556.442 253.511C556.4 253.545 556.366 253.587 556.34 253.634C556.315 253.682 556.299 253.734 556.294 253.788C556.288 253.841 556.294 253.896 556.309 253.947C556.325 253.999 556.351 254.047 556.385 254.089C556.419 254.131 556.461 254.165 556.509 254.191C556.557 254.216 556.609 254.232 556.663 254.237C556.717 254.243 556.771 254.237 556.823 254.222L559.579 253.392Z" fill="#8A90A7"/>
<path d="M558.744 250.634L558.507 249.846L555.752 250.678C555.7 250.693 555.651 250.719 555.609 250.753C555.567 250.787 555.532 250.83 555.507 250.877C555.481 250.925 555.465 250.977 555.459 251.031C555.454 251.085 555.459 251.14 555.475 251.192C555.507 251.296 555.579 251.383 555.675 251.434C555.771 251.486 555.884 251.497 555.988 251.466L558.744 250.634Z" fill="#8A90A7"/>
<path d="M557.914 247.878L557.675 247.09L552.949 248.515C552.897 248.531 552.849 248.556 552.808 248.59C552.766 248.624 552.731 248.666 552.706 248.714C552.68 248.762 552.664 248.814 552.659 248.867C552.654 248.921 552.659 248.975 552.675 249.027C552.69 249.079 552.715 249.127 552.749 249.169C552.783 249.211 552.825 249.246 552.873 249.272C552.92 249.297 552.972 249.313 553.026 249.319C553.08 249.324 553.134 249.319 553.186 249.303L557.914 247.878Z" fill="#8A90A7"/>
<path d="M557.082 245.118L556.845 244.33L554.087 245.162C554.035 245.178 553.987 245.203 553.946 245.237C553.904 245.272 553.869 245.314 553.844 245.361C553.818 245.409 553.802 245.461 553.797 245.514C553.792 245.568 553.797 245.622 553.813 245.674C553.828 245.726 553.853 245.774 553.887 245.816C553.921 245.858 553.963 245.893 554.011 245.919C554.058 245.944 554.11 245.96 554.164 245.966C554.218 245.971 554.272 245.966 554.324 245.95L557.082 245.118Z" fill="#8A90A7"/>
<path d="M556.259 242.36L556.022 241.572L553.264 242.405C553.212 242.42 553.164 242.446 553.122 242.48C553.08 242.515 553.046 242.557 553.02 242.604C552.995 242.652 552.979 242.704 552.973 242.758C552.968 242.812 552.973 242.866 552.989 242.918C553.005 242.97 553.031 243.018 553.065 243.06C553.099 243.102 553.141 243.136 553.189 243.162C553.237 243.187 553.289 243.203 553.343 243.208C553.397 243.214 553.451 243.208 553.503 243.193L556.259 242.36Z" fill="#8A90A7"/>
<path d="M555.417 239.604L555.18 238.816L550.455 240.242C550.403 240.258 550.355 240.283 550.313 240.318C550.271 240.352 550.236 240.394 550.211 240.442C550.185 240.49 550.17 240.542 550.164 240.596C550.159 240.649 550.164 240.704 550.18 240.755C550.196 240.807 550.221 240.855 550.255 240.897C550.289 240.939 550.331 240.973 550.379 240.999C550.426 241.024 550.478 241.04 550.532 241.046C550.586 241.051 550.64 241.046 550.691 241.03L555.417 239.604Z" fill="#8A90A7"/>
<path d="M554.587 236.854L554.348 236.066L551.592 236.899C551.541 236.914 551.492 236.94 551.451 236.974C551.409 237.009 551.374 237.051 551.349 237.099C551.323 237.146 551.307 237.199 551.302 237.252C551.297 237.306 551.302 237.36 551.318 237.412C551.333 237.464 551.359 237.512 551.393 237.554C551.427 237.596 551.469 237.63 551.516 237.656C551.564 237.681 551.616 237.697 551.67 237.702C551.723 237.708 551.778 237.702 551.829 237.687L554.587 236.854Z" fill="#8A90A7"/>
<path d="M553.755 234.091L553.518 233.303L550.76 234.133C550.708 234.149 550.66 234.174 550.618 234.209C550.576 234.243 550.542 234.285 550.516 234.333C550.491 234.38 550.475 234.433 550.47 234.486C550.464 234.54 550.47 234.595 550.486 234.646C550.501 234.698 550.526 234.746 550.561 234.788C550.595 234.83 550.637 234.864 550.684 234.89C550.732 234.915 550.784 234.931 550.837 234.936C550.891 234.942 550.945 234.936 550.997 234.921L553.755 234.091Z" fill="#8A90A7"/>
<path d="M552.923 231.333L552.686 230.545L547.96 231.97C547.855 232.002 547.768 232.074 547.716 232.17C547.664 232.266 547.652 232.379 547.683 232.484C547.699 232.536 547.725 232.584 547.759 232.626C547.793 232.667 547.836 232.702 547.883 232.728C547.931 232.753 547.983 232.769 548.037 232.774C548.091 232.78 548.145 232.774 548.197 232.758L552.923 231.333Z" fill="#8A90A7"/>
<path d="M552.09 228.575L551.854 227.789L549.098 228.619C548.993 228.651 548.905 228.723 548.853 228.819C548.802 228.915 548.79 229.028 548.821 229.133C548.837 229.184 548.862 229.233 548.897 229.274C548.931 229.316 548.973 229.351 549.021 229.376C549.069 229.402 549.121 229.418 549.175 229.423C549.228 229.428 549.283 229.423 549.335 229.407L552.09 228.575Z" fill="#8A90A7"/>
<path d="M551.26 225.819L551.021 225.031L548.265 225.864C548.214 225.879 548.166 225.904 548.124 225.939C548.082 225.973 548.047 226.015 548.022 226.062C547.996 226.11 547.98 226.162 547.975 226.215C547.97 226.269 547.975 226.323 547.991 226.375C548.006 226.427 548.031 226.475 548.065 226.517C548.099 226.559 548.141 226.594 548.189 226.62C548.236 226.645 548.289 226.661 548.342 226.667C548.396 226.672 548.45 226.667 548.502 226.652L551.26 225.819Z" fill="#8A90A7"/>
<path d="M550.428 223.061L550.191 222.273L545.463 223.701C545.411 223.717 545.363 223.742 545.322 223.776C545.28 223.81 545.245 223.852 545.22 223.9C545.194 223.947 545.178 223.999 545.173 224.053C545.168 224.107 545.173 224.161 545.189 224.212C545.204 224.264 545.23 224.312 545.264 224.354C545.299 224.396 545.341 224.431 545.388 224.456C545.436 224.482 545.488 224.497 545.542 224.503C545.596 224.508 545.65 224.503 545.702 224.487L550.428 223.061Z" fill="#8A90A7"/>
<path d="M544.056 236.019L539.101 238.955L566.698 285.529L571.653 282.593L544.056 236.019Z" fill="#8A90A7"/>
<path d="M541.579 237.487L539.101 238.955L566.698 285.529L569.176 284.061L541.579 237.487Z" fill="#7B8093"/>
<path d="M574.166 292.484L571.654 282.592L566.698 285.529L574.166 292.484Z" fill="#F6F6F6"/>
<path d="M574.159 292.49L572.831 287.248L570.188 288.813L574.159 292.49Z" fill="#30384D"/>
<path d="M544.057 236.02L542.488 233.364C542.359 233.146 542.148 232.989 541.903 232.926C541.658 232.864 541.398 232.901 541.18 233.029L537.86 234.991C537.752 235.055 537.657 235.139 537.582 235.24C537.507 235.341 537.452 235.455 537.421 235.577C537.39 235.698 537.383 235.825 537.401 235.949C537.419 236.074 537.461 236.193 537.525 236.301L539.092 238.946L544.049 236.011L544.057 236.02Z" fill="#4573D2"/>
<path d="M574.173 240.848L560.754 293.295L566.334 294.723L579.753 242.276L574.173 240.848Z" fill="#E2E5EC"/>
<path d="M576.962 241.561L563.543 294.008L566.333 294.722L579.752 242.275L576.962 241.561Z" fill="#CED3DF"/>
<path d="M579.39 232.078L574.173 240.85L579.753 242.278L579.39 232.078Z" fill="#F6F6F6"/>
<path d="M579.399 232.08L576.625 236.728L579.6 237.49L579.399 232.08Z" fill="#30384D"/>
<path d="M560.754 293.301L559.99 296.28C559.928 296.526 559.966 296.786 560.095 297.004C560.225 297.222 560.435 297.38 560.681 297.442L564.409 298.396C564.53 298.428 564.657 298.435 564.781 298.417C564.905 298.399 565.025 298.357 565.132 298.293C565.24 298.229 565.335 298.145 565.41 298.044C565.485 297.944 565.54 297.829 565.571 297.708L566.334 294.729L560.754 293.301Z" fill="#4573D2"/>
<path d="M579.111 262.541H532.567V301.464H579.111V262.541Z" fill="#E89C2E"/>
<path d="M541.711 262.531H532.573V301.454H541.718L541.711 262.531Z" fill="#C98A30"/>
</g>
<path d="M415.75 175.064L424.925 169.623C424.925 169.623 424.617 192.644 424.04 192.593C423.265 192.232 422.555 191.746 421.939 191.154C421.667 190.908 421.364 190.638 421.054 190.32C420.788 190.047 420.527 189.729 420.241 189.401C419.856 188.958 419.467 188.451 419.055 187.909C418.374 187.021 417.745 186.094 417.171 185.133C416.653 184.037 416.243 182.893 415.947 181.718L415.75 175.064Z" fill="#A7795A"/>
<path d="M394.051 144.33C393.703 148.73 392.796 153.068 391.352 157.239C389.234 162.441 398.482 161.478 400.408 159.55C402.334 157.622 394.051 144.33 394.051 144.33Z" fill="#B5896B"/>
<path d="M445.582 126.224C440.781 110.198 433.983 103.004 418.973 102.503C403.963 102.003 391.341 107.683 388.271 115.076C385.201 122.469 389.292 129.774 389.292 132.844C389.856 137.065 390.656 141.252 391.687 145.384C394.228 156.611 455.463 159.187 445.582 126.224Z" fill="#B5896B"/>
<path d="M428.245 136.568C428.245 136.568 438.127 124.441 439.446 137.788C439.857 140.104 439.568 142.491 438.615 144.642C437.662 146.793 436.09 148.611 434.098 149.863C434.098 149.863 426.424 155.299 438.746 164.727C442.87 167.883 424.974 179.099 433.529 191.511C438.558 198.802 445.32 199.322 452.935 194.149C456.818 191.513 456.326 187.73 463.117 187.699C465.895 187.688 470.132 188.228 473.023 182.231C474.291 179.602 475.976 168.415 471.739 163.08C461.32 149.958 461.039 143.601 463.518 137.777C466.911 129.788 463.117 121.988 456.328 113.813C451.603 108.125 456.129 103.631 447.941 98.0375C440.721 93.1058 438.423 98.208 435.362 95.824C432.3 93.44 430.169 89.252 420.015 91.439C414.351 92.6564 417.505 94.8102 406.606 94.0465C400.992 93.6525 394.624 97.8405 392.043 104.061C390.629 107.467 387.266 105.424 385.219 108.835C383.171 112.246 378.279 121.592 381.861 128.797C385.323 135.767 389.701 137.272 389.309 132.854C387.955 117.594 403.033 110.526 403.106 114.84C403.416 134.28 413.315 130.149 416.128 128.797C419.227 127.303 418.701 132.411 421.089 134.28C423.271 135.573 425.718 136.356 428.245 136.568Z" fill="#444C61"/>
<path d="M428.245 136.569C428.245 136.569 438.127 124.441 439.446 137.789C439.857 140.105 439.568 142.492 438.615 144.643C437.662 146.794 436.09 148.612 434.098 149.864C434.098 149.864 426.424 155.3 438.746 164.728C442.87 167.884 424.974 179.1 433.529 191.512C438.558 198.803 445.321 199.323 452.935 194.15C456.818 191.514 456.326 187.731 463.117 187.7C465.895 187.689 470.132 188.229 473.023 182.232C473.623 180.991 465.462 192.922 456.754 182.584C455.994 181.683 453.909 180.358 450.166 183.846C446.018 187.711 440.635 176.017 446.945 171.944C454.208 167.253 443.337 160.387 446.013 155.314C453.42 141.271 451.99 130.901 443.162 131.921C436.115 132.736 439.712 125.57 441.675 117.051C443.333 109.843 427.508 111.278 431.192 103.548C433.206 99.3113 425.195 96.8122 422.116 94.426C419.037 92.0398 409.484 103.32 401.53 100.245C396.284 98.2111 394.604 97.8304 392.023 104.05C390.609 107.457 387.246 105.414 385.199 108.825C383.151 112.236 378.259 121.582 381.841 128.787C385.303 135.757 389.681 137.262 389.29 132.844C387.935 117.584 403.013 110.516 403.086 114.83C403.396 134.27 413.295 130.139 416.109 128.787C419.208 127.293 418.681 132.401 421.069 134.27C423.256 135.57 425.71 136.356 428.245 136.569Z" fill="#30384D"/>
<path d="M334.037 297.128C335.35 296.229 407.195 286.768 418.426 285.294C418.88 285.234 419.312 285.063 419.684 284.796C420.056 284.529 420.357 284.175 420.56 283.764C420.747 283.389 420.847 282.977 420.853 282.557C420.859 282.138 420.77 281.723 420.594 281.343C420.418 280.962 420.159 280.626 419.836 280.359C419.513 280.092 419.134 279.901 418.727 279.8L328.734 257.443C328.734 257.443 264.727 266.481 266.153 266.838C267.578 267.194 334.037 297.128 334.037 297.128Z" fill="#30384D"/>
<path d="M467.449 243.294L466.453 228.578L461.161 261.527L469.012 261.564L469.3 243.192L467.449 243.294Z" fill="#393939" fill-opacity="0.18"/>
<path d="M408.257 217.768C395.448 234.591 397.451 247.516 405.887 256.505L385.582 254.307L383.344 236.076L377.994 240.878L366.205 216.577L393.393 187.638C393.393 187.638 399.166 183.839 415.947 181.719C416.898 184.766 418.514 187.563 420.68 189.909C420.764 190.002 420.901 190.181 421.032 190.305C421.377 190.628 421.718 190.991 422.096 191.301C422.708 191.786 423.358 192.219 424.04 192.598C424.04 192.598 421.341 200.596 408.257 217.768Z" fill="#393939" fill-opacity="0.18"/>
<path d="M366.78 217.768L346.655 233.705L333.351 243.106C332.636 242.81 331.86 242.691 331.089 242.761C330.318 242.83 329.575 243.085 328.924 243.504C326.536 244.936 316.307 248.436 315.621 250.951C314.935 253.465 310.503 258.477 312.21 260.4C313.264 261.562 314.736 262.258 316.303 262.335L328.583 256.206C328.583 256.206 323.466 263.357 325.172 265.405C326.879 267.453 328.393 266.769 331.217 263.017C334.042 259.265 338.135 252.783 338.816 254.488C339.498 256.192 336.368 256.878 336.771 260.4C337.174 263.922 335.746 268.015 338.476 266.538C341.205 265.062 347.345 264.265 347.686 260.4C348.027 256.535 357.921 252.431 357.921 252.431C357.921 252.431 358.632 258.012 377.549 239.932L366.78 217.768Z" fill="#A7795A"/>
<path d="M489.932 290.305C480.04 303.608 406.015 272.907 391.346 272.907C391.346 272.907 376.336 274.954 370.88 273.591C365.423 272.227 350.752 276.661 347.341 276.661C343.93 276.661 341.541 275.295 347.341 272.566C353.14 269.837 360.303 266.426 362.351 266.426H360.303C353.136 268.371 346.121 270.839 339.315 273.808C337.616 274.744 335.66 275.107 333.739 274.841C331.952 274.554 330.436 273.79 331.649 271.884C334.037 268.132 341.882 256.558 344.952 256.203C344.952 256.203 357.57 248.354 359.962 248.35C362.355 248.345 375.014 253.184 380.09 253.804C385.166 254.424 393.052 256.217 398.852 256.203C404.651 256.19 428.372 258.793 433.148 259.475C437.925 260.157 470.336 262.587 469.008 261.562L469.295 243.19L495.949 238.984C495.949 238.984 499.813 277.002 489.932 290.305Z" fill="#B5896B"/>
<path d="M491.495 287.786C485.117 289.563 478.41 289.81 471.918 288.507C457.92 285.526 439.758 274.737 429.168 274.075C407.684 272.736 394.13 264.468 391.038 266.328C385.17 269.843 370.041 265.079 368.239 266.328C366.437 267.576 344.682 274.133 344.682 274.133C344.682 274.133 342.677 276.145 345.346 276.468C348.946 276.911 358.103 275.219 366.213 273.424L370.875 273.792C376.657 274.245 386.37 274.471 391.355 272.906C391.355 272.906 442.565 286.515 448.373 288.206C453.345 289.652 460.95 291.305 466.303 292.284C470.415 293.027 473.047 293.266 473.047 293.266C476.337 293.632 479.654 293.689 482.955 293.437C485.144 293.268 487.248 292.512 489.045 291.25C490.148 290.327 490.992 289.133 491.495 287.786Z" fill="#A7795A"/>
<path fill-rule="evenodd" clip-rule="evenodd" d="M358.999 50.2974C359.075 50.5084 359.187 50.8205 359.328 51.2264L358.46 51.528C358.321 51.1262 358.21 50.8179 358.135 50.6105C358.098 50.5068 358.069 50.4284 358.049 50.376L358.028 50.3172L358.022 50.3027L358.021 50.2993L358.88 49.9746L358.888 49.9961L358.911 50.0575C358.931 50.1116 358.961 50.1918 358.999 50.2974ZM360.203 53.8492C360.449 54.6137 360.72 55.4803 361.008 56.4387L360.129 56.7035C359.842 55.7508 359.573 54.8896 359.329 54.1303L360.203 53.8492ZM361.774 59.0654C362.009 59.9 362.251 60.7821 362.496 61.7072L361.608 61.9418C361.364 61.0219 361.124 60.1448 360.89 59.3149L361.774 59.0654ZM363.174 64.3637C363.387 65.2266 363.599 66.1186 363.809 67.0369L362.914 67.2417C362.705 66.3286 362.494 65.4417 362.282 64.5836L363.174 64.3637ZM364.397 69.7091C364.58 70.5804 364.76 71.4709 364.935 72.3787L364.033 72.5523C363.859 71.6501 363.68 70.7648 363.498 69.8986L364.397 69.7091ZM365.428 75.0711C365.583 75.9617 365.731 76.866 365.873 77.7823L364.965 77.9221C364.824 77.0118 364.677 76.1133 364.523 75.2282L365.428 75.0711ZM366.261 80.4843C366.381 81.3803 366.493 82.2856 366.595 83.1988L365.682 83.3013C365.581 82.3947 365.47 81.4958 365.351 80.606L366.261 80.4843ZM366.871 85.9288C366.952 86.8322 367.023 87.7416 367.083 88.6557L366.167 88.7161C366.107 87.8095 366.036 86.9073 365.956 86.0108L366.871 85.9288ZM367.229 91.3903C367.266 92.3013 367.291 93.2155 367.303 94.1316L366.385 94.1439C366.373 93.2364 366.348 92.3305 366.311 91.4275L367.229 91.3903ZM367.301 96.8705C367.287 97.7841 367.259 98.6982 367.216 99.6115L366.299 99.5686C366.341 98.6652 366.368 97.7606 366.383 96.8563L367.301 96.8705ZM367.042 102.347C366.969 103.26 366.879 104.172 366.772 105.079L365.86 104.972C365.965 104.076 366.054 103.176 366.127 102.273L367.042 102.347ZM366.399 107.799C366.256 108.704 366.095 109.605 365.914 110.499L365.014 110.317C365.192 109.436 365.351 108.549 365.492 107.656L366.399 107.799ZM365.307 113.183C365.083 114.074 364.838 114.957 364.571 115.831L363.692 115.563C363.955 114.704 364.196 113.836 364.416 112.959L365.307 113.183ZM363.696 118.437C363.379 119.301 363.038 120.155 362.672 120.996L361.83 120.629C362.189 119.805 362.523 118.969 362.834 118.121L363.696 118.437ZM361.494 123.484C361.074 124.302 360.627 125.106 360.153 125.893L359.366 125.42C359.829 124.65 360.266 123.865 360.676 123.065L361.494 123.484ZM358.649 128.203C358.121 128.952 357.566 129.685 356.98 130.398L356.27 129.815C356.841 129.12 357.383 128.406 357.897 127.675L358.649 128.203ZM355.144 132.469C354.515 133.126 353.857 133.764 353.169 134.381L352.555 133.697C353.226 133.096 353.867 132.475 354.48 131.834L355.144 132.469ZM351.046 136.143C350.323 136.699 349.57 137.234 348.787 137.748L348.283 136.979C349.047 136.478 349.781 135.957 350.487 135.415L351.046 136.143ZM346.446 139.166C345.652 139.61 344.83 140.033 343.98 140.435L343.587 139.604C344.419 139.211 345.222 138.798 345.998 138.364L346.446 139.166ZM341.47 141.525C340.631 141.858 339.768 142.172 338.879 142.465L338.591 141.593C339.463 141.305 340.309 140.997 341.13 140.671L341.47 141.525ZM336.246 143.255C335.38 143.49 334.492 143.706 333.582 143.904L333.386 143.007C334.282 142.812 335.155 142.599 336.006 142.368L336.246 143.255ZM330.882 144.425C330.422 144.503 329.956 144.577 329.484 144.646C329.005 144.716 328.531 144.789 328.062 144.863L327.919 143.955C328.391 143.881 328.869 143.808 329.351 143.737C329.816 143.669 330.275 143.597 330.729 143.52L330.882 144.425ZM325.303 145.331C324.367 145.501 323.452 145.68 322.556 145.866L322.369 144.967C323.272 144.779 324.196 144.599 325.139 144.427L325.303 145.331ZM319.835 146.47C318.904 146.69 317.996 146.919 317.11 147.157L316.872 146.27C317.767 146.03 318.684 145.798 319.624 145.576L319.835 146.47ZM314.458 147.913C313.535 148.193 312.638 148.483 311.767 148.782L311.469 147.913C312.351 147.61 313.258 147.317 314.192 147.034L314.458 147.913ZM309.154 149.734C308.27 150.076 307.416 150.428 306.59 150.79L306.222 149.948C307.06 149.581 307.927 149.224 308.822 148.877L309.154 149.734ZM304.044 151.976C303.191 152.399 302.371 152.834 301.583 153.277L301.132 152.477C301.934 152.025 302.768 151.583 303.636 151.153L304.044 151.976ZM299.209 154.706C298.412 155.218 297.653 155.741 296.93 156.273L296.386 155.534C297.124 154.99 297.899 154.456 298.713 153.933L299.209 154.706ZM294.748 158.001C294.023 158.618 293.342 159.245 292.702 159.88L292.055 159.228C292.712 158.576 293.41 157.933 294.153 157.301L294.748 158.001ZM290.817 161.91C290.202 162.63 289.634 163.357 289.112 164.089L288.364 163.556C288.902 162.802 289.486 162.054 290.118 161.314L290.817 161.91ZM287.609 166.408C287.132 167.223 286.704 168.041 286.322 168.859L285.49 168.471C285.884 167.627 286.324 166.784 286.816 165.944L287.609 166.408ZM285.267 171.422C284.949 172.309 284.679 173.193 284.452 174.068L283.563 173.838C283.796 172.937 284.074 172.026 284.402 171.112L285.267 171.422ZM283.878 176.773C283.721 177.707 283.61 178.626 283.536 179.524L282.621 179.448C282.696 178.526 282.811 177.582 282.972 176.621L283.878 176.773ZM283.42 182.298C283.418 183.259 283.455 184.185 283.519 185.068L282.603 185.136C282.537 184.231 282.499 183.281 282.502 182.296L283.42 182.298ZM283.824 187.825C283.972 188.829 284.147 189.746 284.328 190.557L283.431 190.757C283.246 189.926 283.066 188.987 282.915 187.959L283.824 187.825ZM285.478 194.522L284.626 194.865L284.623 194.857L284.616 194.839L284.589 194.771C284.567 194.712 284.534 194.625 284.493 194.511C284.412 194.284 284.298 193.951 284.164 193.524L285.042 193.251C285.17 193.665 285.281 193.985 285.358 194.201C285.397 194.308 285.427 194.39 285.448 194.444L285.471 194.504L285.477 194.518L285.478 194.522Z" fill="#4573D2"/>
<path fill-rule="evenodd" clip-rule="evenodd" d="M107.575 93.9102L108.426 94.2563L108.424 94.2608L108.418 94.2754L108.394 94.3348C108.373 94.3877 108.342 94.4669 108.3 94.5716C108.218 94.7811 108.097 95.0927 107.942 95.4993L107.084 95.1734C107.239 94.7631 107.362 94.448 107.446 94.2352C107.488 94.1288 107.52 94.0479 107.542 93.9934L107.566 93.9316L107.573 93.9158L107.575 93.9102ZM105.213 100.427C105.537 99.4638 105.839 98.5937 106.111 97.8262L106.977 98.1336C106.706 98.8965 106.406 99.7618 106.083 100.72L105.213 100.427ZM103.517 105.736C103.8 104.802 104.077 103.912 104.346 103.071L105.221 103.351C104.954 104.188 104.678 105.073 104.396 106.003L103.517 105.736ZM101.978 111.096C102.227 110.176 102.477 109.283 102.725 108.42L103.608 108.674C103.361 109.533 103.113 110.421 102.864 111.337L101.978 111.096ZM100.601 116.479C100.822 115.558 101.046 114.656 101.272 113.774L102.162 114.002C101.937 114.879 101.714 115.777 101.495 116.694L100.601 116.479ZM99.3877 121.917C99.577 121.001 99.7714 120.097 99.9697 119.209L100.866 119.409C100.669 120.293 100.476 121.191 100.287 122.103L99.3877 121.917ZM98.3509 127.402C98.5097 126.474 98.6755 125.556 98.8472 124.648L99.7498 124.819C99.5791 125.721 99.4143 126.635 99.2564 127.557L98.3509 127.402ZM97.5135 132.9C97.6368 131.973 97.7685 131.053 97.9077 130.14L98.8158 130.278C98.6775 131.186 98.5466 132.1 98.4241 133.021L97.5135 132.9ZM96.8921 138.437C96.9763 137.51 97.0705 136.587 97.1737 135.669L98.0866 135.771C97.9841 136.683 97.8905 137.6 97.8069 138.52L96.8921 138.437ZM96.5151 144.001C96.5558 143.072 96.608 142.144 96.6709 141.219L97.5874 141.282C97.525 142.199 97.4732 143.119 97.4329 144.041L96.5151 144.001ZM96.4167 149.578C96.4077 148.648 96.412 147.718 96.4287 146.789L97.3472 146.806C97.3307 147.727 97.3264 148.648 97.3352 149.569L96.4167 149.578ZM96.6375 155.154C96.5716 154.228 96.5209 153.299 96.4844 152.368L97.4023 152.332C97.4384 153.253 97.4886 154.173 97.5538 155.089L96.6375 155.154ZM97.2272 160.709C97.0955 159.79 96.981 158.865 96.8828 157.936L97.7964 157.84C97.8934 158.757 98.0065 159.671 98.1366 160.579L97.2272 160.709ZM98.243 166.206C98.035 165.299 97.8467 164.384 97.6771 163.463L98.5806 163.297C98.7478 164.205 98.9335 165.107 99.1384 166.001L98.243 166.206ZM242.464 166.838C241.562 166.778 240.641 166.746 239.703 166.741L239.708 165.822C240.664 165.827 241.604 165.86 242.525 165.922L242.464 166.838ZM236.941 166.802C236.033 166.847 235.113 166.914 234.185 167.003L234.098 166.088C235.039 165.998 235.973 165.93 236.896 165.885L236.941 166.802ZM247.897 167.623C247.03 167.42 246.13 167.253 245.203 167.122L245.332 166.212C246.284 166.347 247.211 166.519 248.107 166.729L247.897 167.623ZM231.438 167.326C230.531 167.452 229.619 167.597 228.704 167.761L228.542 166.856C229.468 166.691 230.392 166.544 231.312 166.416L231.438 167.326ZM225.986 168.298C225.086 168.493 224.185 168.705 223.288 168.932L223.062 168.041C223.97 167.812 224.881 167.598 225.791 167.4L225.986 168.298ZM253.024 169.465C252.24 169.058 251.405 168.7 250.524 168.388L250.831 167.522C251.748 167.847 252.622 168.222 253.448 168.65L253.024 169.465ZM99.7481 171.592C99.4536 170.709 99.1812 169.817 98.93 168.916L99.8149 168.669C100.062 169.556 100.33 170.434 100.619 171.301L99.7481 171.592ZM220.612 169.657C219.723 169.914 218.839 170.186 217.962 170.471L217.678 169.597C218.564 169.309 219.458 169.034 220.357 168.775L220.612 169.657ZM257.283 172.731C256.696 172.061 256.036 171.452 255.311 170.903L255.867 170.171C256.638 170.756 257.343 171.406 257.974 172.125L257.283 172.731ZM215.341 171.372C214.467 171.689 213.603 172.019 212.752 172.361L212.409 171.508C213.27 171.162 214.144 170.829 215.028 170.508L215.341 171.372ZM210.201 173.438C209.348 173.817 208.511 174.207 207.694 174.608L207.289 173.784C208.117 173.377 208.965 172.982 209.828 172.599L210.201 173.438ZM101.807 176.798C101.416 175.953 101.049 175.095 100.705 174.225L101.56 173.888C101.897 174.741 102.257 175.583 102.641 176.412L101.807 176.798ZM259.412 176.138C259.235 175.717 259.038 175.312 258.824 174.923L259.628 174.479C259.858 174.896 260.069 175.33 260.259 175.781L260.768 176.99L259.921 177.346L259.412 176.138ZM205.233 175.879C204.406 176.329 203.605 176.789 202.832 177.259L202.355 176.474C203.141 175.996 203.955 175.529 204.794 175.072L205.233 175.879ZM200.51 178.757C199.732 179.292 198.992 179.836 198.296 180.387L197.726 179.667C198.44 179.102 199.196 178.546 199.99 178L200.51 178.757ZM104.473 181.729C103.976 180.936 103.507 180.128 103.063 179.306L103.871 178.87C104.306 179.675 104.766 180.466 105.251 181.241L104.473 181.729ZM261.889 182.043C261.578 181.297 261.25 180.514 260.906 179.693L261.753 179.338C262.098 180.16 262.425 180.943 262.737 181.69L261.889 182.043ZM196.211 182.181C195.874 182.499 195.553 182.818 195.247 183.138C194.928 183.473 194.609 183.803 194.29 184.129L193.634 183.485C193.95 183.163 194.267 182.836 194.582 182.505C194.9 182.172 195.233 181.841 195.581 181.513L196.211 182.181ZM107.766 186.267C107.164 185.548 106.59 184.811 106.044 184.058L106.788 183.518C107.322 184.255 107.882 184.974 108.471 185.677L107.766 186.267ZM263.848 186.762C263.546 186.029 263.221 185.243 262.871 184.401L263.719 184.049C264.069 184.891 264.395 185.678 264.698 186.412L263.848 186.762ZM192.342 186.056C191.675 186.696 191.005 187.318 190.334 187.921L189.72 187.238C190.384 186.641 191.046 186.027 191.706 185.393L192.342 186.056ZM111.668 190.305C110.964 189.673 110.29 189.023 109.643 188.353L110.304 187.715C110.935 188.369 111.594 189.004 112.281 189.621L111.668 190.305ZM265.772 191.481C265.493 190.785 265.174 189.997 264.81 189.106L265.661 188.759C266.025 189.651 266.345 190.441 266.625 191.139L265.772 191.481ZM188.264 189.717C187.554 190.311 186.842 190.885 186.127 191.439L185.564 190.713C186.27 190.166 186.974 189.599 187.675 189.013L188.264 189.717ZM116.101 193.753C115.309 193.221 114.547 192.668 113.812 192.097L114.376 191.372C115.094 191.93 115.839 192.47 116.613 192.99L116.101 193.753ZM183.92 193.077C183.166 193.613 182.409 194.128 181.648 194.62L181.149 193.849C181.898 193.364 182.645 192.857 183.388 192.328L183.92 193.077ZM266.703 192.726C266.802 192.934 266.939 193.221 267.092 193.536L266.266 193.937C266.111 193.619 265.973 193.33 265.874 193.121L265.756 192.872L265.714 192.782L266.544 192.39L266.547 192.396L266.587 192.48L266.703 192.726ZM267.402 195.762C267.296 195.419 267.077 194.809 266.699 193.829L267.556 193.499C267.934 194.479 268.163 195.115 268.279 195.49C268.333 195.661 268.377 195.824 268.386 195.943C268.388 195.974 268.391 196.037 268.375 196.109C268.363 196.164 268.305 196.372 268.074 196.456C267.86 196.533 267.691 196.431 267.655 196.408C267.599 196.373 267.56 196.332 267.54 196.311L268.213 195.686C268.21 195.683 268.187 195.657 268.146 195.631C268.124 195.617 267.966 195.518 267.761 195.592C267.538 195.673 267.487 195.871 267.478 195.911C267.466 195.967 267.47 196.008 267.47 196.01C267.47 196.01 267.47 196.011 267.47 196.01C267.468 195.998 267.453 195.928 267.402 195.762ZM120.936 196.563C120.084 196.138 119.259 195.692 118.46 195.228L118.922 194.434C119.704 194.888 120.511 195.324 121.346 195.741L120.936 196.563ZM179.309 196.06C178.512 196.526 177.71 196.968 176.903 197.388L176.479 196.573C177.272 196.16 178.061 195.725 178.846 195.267L179.309 196.06ZM126.076 198.762C125.184 198.438 124.316 198.096 123.472 197.735L123.833 196.89C124.661 197.244 125.513 197.58 126.39 197.899L126.076 198.762ZM174.432 198.597C173.594 198.981 172.751 199.341 171.902 199.677L171.564 198.823C172.398 198.492 173.226 198.139 174.049 197.762L174.432 198.597ZM130.11 200.049C129.645 199.92 129.185 199.786 128.731 199.647L128.999 198.769C129.445 198.905 129.898 199.037 130.356 199.164C130.797 199.287 131.236 199.406 131.673 199.522L131.438 200.41C130.997 200.293 130.555 200.173 130.11 200.049ZM169.32 200.622C168.449 200.914 167.572 201.183 166.689 201.428L166.443 200.542C167.311 200.302 168.172 200.038 169.027 199.751L169.32 200.622ZM136.766 201.674C135.882 201.49 134.992 201.291 134.093 201.078L134.306 200.184C135.196 200.395 136.078 200.592 136.954 200.775L136.766 201.674ZM164.019 202.091C163.125 202.288 162.225 202.462 161.317 202.612L161.167 201.706C162.059 201.558 162.943 201.388 163.821 201.194L164.019 202.091ZM142.163 202.626C141.268 202.498 140.365 202.353 139.455 202.192L139.615 201.288C140.515 201.447 141.408 201.59 142.293 201.716L142.163 202.626ZM147.622 203.205C146.718 203.144 145.806 203.064 144.887 202.966L144.985 202.053C145.892 202.15 146.792 202.228 147.684 202.289L147.622 203.205ZM158.595 202.993C157.689 203.096 156.777 203.177 155.857 203.236L155.798 202.319C156.703 202.261 157.601 202.181 158.491 202.08L158.595 202.993ZM153.108 203.348C152.201 203.364 151.286 203.36 150.364 203.335L150.388 202.417C151.297 202.441 152.198 202.445 153.092 202.43L153.108 203.348Z" fill="#4573D2"/>
<path fill-rule="evenodd" clip-rule="evenodd" d="M191.848 175.956C190.927 175.964 189.999 176.002 189.066 176.073L188.997 175.157C189.95 175.084 190.899 175.045 191.84 175.037L191.848 175.956ZM197.387 176.271C196.473 176.16 195.552 176.077 194.624 176.023L194.677 175.106C195.624 175.161 196.565 175.245 197.498 175.359L197.387 176.271ZM186.317 176.374C185.412 176.503 184.502 176.664 183.588 176.858L183.397 175.96C184.332 175.762 185.261 175.597 186.187 175.464L186.317 176.374ZM202.853 177.277C201.954 177.056 201.047 176.86 200.133 176.691L200.3 175.788C201.232 175.96 202.157 176.16 203.072 176.385L202.853 177.277ZM180.88 177.526C180.004 177.773 179.125 178.05 178.242 178.359L177.938 177.493C178.839 177.177 179.737 176.893 180.631 176.642L180.88 177.526ZM208.172 178.902C207.302 178.585 206.422 178.289 205.534 178.018L205.803 177.139C206.707 177.416 207.602 177.716 208.487 178.039L208.172 178.902ZM175.655 179.356C174.806 179.712 173.955 180.099 173.1 180.518L172.696 179.693C173.566 179.267 174.434 178.873 175.299 178.509L175.655 179.356ZM213.307 181.061C212.469 180.662 211.622 180.281 210.764 179.92L211.12 179.073C211.991 179.44 212.852 179.827 213.702 180.232L213.307 181.061ZM170.664 181.795C169.864 182.242 169.062 182.717 168.258 183.221L167.77 182.443C168.587 181.931 169.402 181.448 170.216 180.993L170.664 181.795ZM218.235 183.672C217.434 183.205 216.621 182.752 215.798 182.315L216.229 181.504C217.063 181.946 217.886 182.405 218.697 182.878L218.235 183.672ZM165.944 184.752C165.557 185.021 165.17 185.297 164.783 185.58C164.427 185.84 164.071 186.102 163.712 186.367L163.166 185.628C163.526 185.362 163.884 185.099 164.241 184.838C164.634 184.551 165.027 184.271 165.419 183.998L165.944 184.752ZM222.95 186.661C222.184 186.137 221.406 185.623 220.616 185.122L221.109 184.346C221.908 184.853 222.695 185.373 223.469 185.903L222.95 186.661ZM161.542 187.987C160.829 188.525 160.111 189.072 159.387 189.628L158.827 188.9C159.553 188.342 160.274 187.794 160.989 187.254L161.542 187.987ZM227.454 189.968C226.727 189.398 225.985 188.834 225.229 188.279L225.773 187.538C226.537 188.099 227.286 188.669 228.021 189.245L227.454 189.968ZM157.244 191.286C156.538 191.837 155.826 192.396 155.11 192.961L154.541 192.241C155.258 191.674 155.971 191.114 156.68 190.562L157.244 191.286ZM231.748 193.537C231.057 192.929 230.349 192.323 229.626 191.721L230.213 191.015C230.943 191.622 231.657 192.234 232.354 192.847L231.748 193.537ZM48.1763 193.87V192.585H49.0949V193.87H48.1763ZM152.992 194.644C152.289 195.206 151.582 195.773 150.871 196.346L150.295 195.631C151.006 195.058 151.714 194.489 152.418 193.927L152.992 194.644ZM235.856 197.346C235.2 196.706 234.523 196.061 233.827 195.415L234.452 194.742C235.154 195.393 235.836 196.043 236.498 196.689L235.856 197.346ZM48.1763 199.012V196.441H49.0949V199.012H48.1763ZM148.772 198.046C148.071 198.616 147.367 199.19 146.66 199.769L146.078 199.058C146.786 198.479 147.49 197.904 148.192 197.334L148.772 198.046ZM239.768 201.352C239.15 200.689 238.506 200.012 237.837 199.326L238.494 198.684C239.169 199.376 239.818 200.058 240.441 200.726L239.768 201.352ZM144.574 201.48C143.876 202.055 143.175 202.632 142.473 203.213L141.887 202.505C142.591 201.924 143.291 201.346 143.99 200.771L144.574 201.48ZM48.1763 204.154V201.583H49.0949V204.154H48.1763ZM243.488 205.535C242.913 204.859 242.301 204.153 241.653 203.423L242.339 202.813C242.993 203.548 243.609 204.259 244.188 204.941L243.488 205.535ZM140.39 204.936C139.695 205.512 138.999 206.09 138.301 206.67L137.714 205.964C138.412 205.383 139.109 204.805 139.804 204.229L140.39 204.936ZM48.1763 209.296V206.725H49.0949V209.296H48.1763ZM247.007 209.89C246.5 209.229 245.918 208.487 245.265 207.679L245.979 207.102C246.638 207.916 247.224 208.664 247.736 209.33L247.007 209.89ZM136.215 208.404L134.131 210.138L133.543 209.432L135.628 207.698L136.215 208.404ZM132.043 211.875C131.349 212.453 130.654 213.03 129.959 213.608L129.372 212.901C130.067 212.324 130.762 211.746 131.456 211.169L132.043 211.875ZM249.259 212.955C249.13 212.768 248.936 212.492 248.681 212.137L249.426 211.6C249.685 211.96 249.882 212.241 250.014 212.432C250.081 212.528 250.131 212.601 250.165 212.651L250.203 212.707L250.213 212.722L250.215 212.726L249.453 213.238L249.45 213.234L249.441 213.221L249.405 213.168C249.373 213.12 249.324 213.049 249.259 212.955ZM48.1763 214.439V211.867H49.0949V214.439H48.1763ZM127.87 215.341C127.173 215.919 126.476 216.496 125.779 217.072L125.194 216.363C125.891 215.788 126.587 215.211 127.284 214.634L127.87 215.341ZM48.1763 219.581V217.01H49.0949V219.581H48.1763ZM123.687 218.797C122.987 219.373 122.287 219.947 121.587 220.52L121.005 219.809C121.704 219.237 122.403 218.663 123.103 218.087L123.687 218.797ZM119.485 222.236C118.782 222.808 118.08 223.378 117.379 223.945L116.801 223.23C117.502 222.664 118.203 222.095 118.905 221.524L119.485 222.236ZM48.1763 224.723V222.152H49.0949V224.723H48.1763ZM115.261 225.65C114.555 226.216 113.851 226.778 113.148 227.337L112.576 226.617C113.278 226.06 113.981 225.498 114.686 224.933L115.261 225.65ZM48.1763 228.579V227.294H49.0949V228.579C49.0949 229.061 49.0987 229.534 49.1063 230L48.1878 230.015C48.1801 229.544 48.1763 229.065 48.1763 228.579ZM111.007 229.028C110.295 229.588 109.585 230.143 108.876 230.694L108.313 229.968C109.02 229.419 109.729 228.865 110.439 228.306L111.007 229.028ZM106.718 232.36C105.997 232.912 105.278 233.459 104.562 234L104.008 233.267C104.722 232.728 105.439 232.182 106.159 231.631L106.718 232.36ZM48.4744 235.453C48.3929 234.585 48.3278 233.685 48.2795 232.752L49.1969 232.705C49.2445 233.626 49.3087 234.513 49.389 235.367L48.4744 235.453ZM102.383 235.631C101.65 236.175 100.921 236.711 100.195 237.24L99.6546 236.497C100.378 235.97 101.105 235.436 101.835 234.894L102.383 235.631ZM49.2829 240.882C49.0995 240.024 48.9383 239.124 48.7997 238.179L49.7086 238.046C49.8445 238.972 50.0023 239.853 50.1812 240.69L49.2829 240.882ZM97.9905 238.828C97.2449 239.359 96.5032 239.881 95.7657 240.394L95.2414 239.64C95.9759 239.129 96.7147 238.609 97.4575 238.08L97.9905 238.828ZM93.526 241.929C92.7649 242.443 92.0088 242.946 91.258 243.437L90.7552 242.668C91.502 242.18 92.2543 241.68 93.0117 241.168L93.526 241.929ZM50.8943 246.132C50.546 245.312 50.2298 244.431 49.9466 243.487L50.8265 243.223C51.1009 244.138 51.4058 244.986 51.7398 245.773L50.8943 246.132ZM88.9701 244.906C88.1917 245.396 87.4196 245.872 86.6543 246.333L86.1803 245.546C86.9401 245.089 87.707 244.616 88.4806 244.129L88.9701 244.906ZM84.2996 247.716C83.5027 248.172 82.7139 248.609 81.9338 249.028L81.4995 248.218C82.272 247.804 83.0536 247.37 83.8438 246.919L84.2996 247.716ZM53.7959 250.839C53.2026 250.178 52.6536 249.434 52.1503 248.604L52.9357 248.127C53.4117 248.912 53.9273 249.61 54.4798 250.226L53.7959 250.839ZM79.4882 250.291C78.662 250.7 77.8465 251.086 77.0424 251.447L76.6661 250.609C77.4588 250.254 78.2637 249.873 79.0803 249.468L79.4882 250.291ZM74.5115 252.515C73.6334 252.86 72.7703 253.172 71.9235 253.448L71.6385 252.575C72.4667 252.305 73.3126 251.999 74.1753 251.66L74.5115 252.515ZM58.3511 254.031C57.4792 253.688 56.6545 253.247 55.8807 252.702L56.4097 251.951C57.1224 252.453 57.8821 252.86 58.687 253.176L58.3511 254.031ZM69.2995 254.201C68.3833 254.426 67.4884 254.603 66.6163 254.729L66.4851 253.82C67.3248 253.699 68.1904 253.528 69.0806 253.309L69.2995 254.201ZM63.8377 254.955C62.8761 254.967 61.9472 254.904 61.054 254.76L61.1997 253.853C62.0359 253.988 62.9118 254.048 63.8261 254.036L63.8377 254.955Z" fill="#4573D2"/>
<path d="M28.3909 198.938L68.8211 198.983C72.2318 198.987 74.9999 196.225 75.0037 192.814L75.0489 152.384C75.0527 148.974 72.2908 146.206 68.88 146.202L28.4499 146.157C25.0391 146.153 22.2711 148.915 22.2672 152.325L22.2221 192.756C22.2183 196.166 24.9802 198.934 28.3909 198.938Z" fill="#444C61"/>
<path d="M28.3908 198.938L68.8232 198.985C69.6347 198.985 70.4385 198.826 71.1884 198.516C71.9383 198.205 72.6198 197.75 73.1937 197.177C73.7677 196.603 74.2229 195.922 74.5335 195.172C74.844 194.422 75.0036 193.618 75.0033 192.807V191.085L22.2571 161.693L22.2217 192.756C22.2208 193.567 22.3797 194.37 22.6892 195.12C22.9988 195.869 23.453 196.551 24.0258 197.125C24.5987 197.699 25.279 198.154 26.0279 198.466C26.7769 198.777 27.5798 198.937 28.3908 198.938Z" fill="#30384D"/>
<path fill-rule="evenodd" clip-rule="evenodd" d="M48.6358 157.247C40.1731 157.247 33.3127 164.107 33.3127 172.57C33.3127 181.033 40.1731 187.893 48.6358 187.893C57.0986 187.893 63.959 181.033 63.959 172.57C63.959 164.107 57.0986 157.247 48.6358 157.247ZM31.8628 172.57C31.8628 163.306 39.3723 155.797 48.6358 155.797C57.8993 155.797 65.4089 163.306 65.4089 172.57C65.4089 181.833 57.8993 189.343 48.6358 189.343C39.3723 189.343 31.8628 181.833 31.8628 172.57Z" fill="white"/>
<path d="M48.6359 173.648C49.2312 173.648 49.7138 173.166 49.7138 172.57C49.7138 171.975 49.2312 171.492 48.6359 171.492C48.0405 171.492 47.5579 171.975 47.5579 172.57C47.5579 173.166 48.0405 173.648 48.6359 173.648Z" fill="white"/>
<path fill-rule="evenodd" clip-rule="evenodd" d="M48.6359 172.217C48.4409 172.217 48.2829 172.376 48.2829 172.57C48.2829 172.765 48.4409 172.924 48.6359 172.924C48.8309 172.924 48.989 172.765 48.989 172.57C48.989 172.376 48.8309 172.217 48.6359 172.217ZM46.833 172.57C46.833 171.575 47.6402 170.768 48.6359 170.768C49.6317 170.768 50.4389 171.575 50.4389 172.57C50.4389 173.566 49.6317 174.373 48.6359 174.373C47.6402 174.373 46.833 173.566 46.833 172.57Z" fill="white"/>
<path fill-rule="evenodd" clip-rule="evenodd" d="M48.6217 159.141C49.0221 159.14 49.347 159.464 49.3474 159.865L49.3607 172.568C49.3609 172.761 49.2847 172.945 49.1489 173.081L43.8054 178.436C43.5226 178.719 43.0636 178.719 42.7802 178.437C42.4968 178.154 42.4964 177.695 42.7792 177.411L47.9105 172.269L47.8976 159.866C47.8971 159.466 48.2214 159.141 48.6217 159.141Z" fill="white"/>
<path fill-rule="evenodd" clip-rule="evenodd" d="M215.72 66.0664L215.754 64.5723L216.672 64.593L216.639 66.0871L215.72 66.0664ZM215.619 70.5488L215.653 69.0547L216.571 69.0754L216.537 70.5682C216.537 70.5684 216.537 70.5686 216.537 70.5688C216.53 70.9223 216.519 71.2755 216.502 71.6284L215.585 71.5858C215.601 71.2409 215.612 70.8956 215.619 70.5501L215.619 70.5488ZM215.171 75.7081C215.277 75.0254 215.364 74.3399 215.433 73.6525L216.347 73.7442C216.277 74.4479 216.187 75.1496 216.079 75.8486L215.171 75.7081ZM214.574 78.7573C214.653 78.4214 214.729 78.0845 214.8 77.7468L215.699 77.9356C215.626 78.2816 215.549 78.6266 215.467 78.9707L215.467 78.972C215.367 79.3842 215.263 79.8271 215.155 80.2984L214.26 80.0935C214.368 79.6188 214.473 79.1726 214.574 78.7573ZM213.153 85.4673C213.327 84.5178 213.504 83.6155 213.679 82.7682L214.578 82.9534C214.405 83.7945 214.23 84.6903 214.057 85.633L213.153 85.4673ZM212.281 90.9065C212.409 89.9706 212.546 89.0591 212.687 88.1771L213.594 88.3227C213.454 89.1981 213.318 90.1026 213.191 91.0311L212.281 90.9065ZM211.671 96.3674C211.75 95.441 211.841 94.5275 211.942 93.6307L212.855 93.733C212.755 94.6223 212.665 95.5278 212.586 96.4458L211.671 96.3674ZM211.36 101.866C211.384 100.943 211.423 100.024 211.475 99.1137L212.392 99.1659C212.34 100.067 212.302 100.976 212.279 101.89L211.36 101.866ZM211.415 107.378C211.371 106.46 211.345 105.54 211.337 104.622L212.255 104.614C212.264 105.521 212.289 106.429 212.332 107.334L211.415 107.378ZM211.926 112.876C211.797 111.968 211.691 111.052 211.606 110.131L212.521 110.047C212.604 110.953 212.708 111.854 212.835 112.746L211.926 112.876ZM213.028 118.297C212.788 117.413 212.577 116.514 212.393 115.602L213.294 115.42C213.474 116.313 213.68 117.193 213.914 118.057L213.028 118.297ZM214.9 123.517C214.515 122.682 214.168 121.823 213.854 120.944L214.72 120.635C215.024 121.491 215.362 122.325 215.734 123.133L214.9 123.517ZM217.75 128.301C217.187 127.563 216.668 126.79 216.192 125.986L216.982 125.518C217.441 126.293 217.94 127.036 218.48 127.744L217.75 128.301ZM221.686 132.261C220.937 131.687 220.237 131.069 219.585 130.41L220.237 129.764C220.861 130.393 221.529 130.984 222.245 131.531L221.686 132.261ZM226.526 135.023C225.643 134.662 224.806 134.254 224.015 133.804L224.469 133.005C225.226 133.436 226.027 133.826 226.873 134.173L226.526 135.023ZM231.882 136.522C230.937 136.363 230.032 136.162 229.165 135.922L229.41 135.037C230.245 135.268 231.12 135.462 232.034 135.617L231.882 136.522ZM236.05 136.937C235.57 136.92 235.1 136.893 234.637 136.857L234.708 135.941C235.158 135.976 235.616 136.002 236.083 136.019C236.541 136.036 236.999 136.055 237.456 136.077L237.413 136.994C236.959 136.973 236.504 136.954 236.05 136.937ZM242.845 137.365C241.943 137.285 241.037 137.213 240.13 137.151L240.193 136.235C241.107 136.297 242.018 136.369 242.927 136.45L242.845 137.365ZM248.258 137.963C247.36 137.845 246.458 137.736 245.553 137.636L245.654 136.723C246.565 136.823 247.473 136.933 248.378 137.052L248.258 137.963ZM253.642 138.784C252.749 138.629 251.852 138.483 250.952 138.345L251.09 137.437C251.997 137.575 252.9 137.723 253.8 137.879L253.642 138.784ZM258.988 139.825C258.102 139.633 257.211 139.45 256.316 139.276L256.491 138.374C257.392 138.55 258.29 138.734 259.182 138.927L258.988 139.825ZM264.287 141.084C263.409 140.856 262.526 140.636 261.638 140.426L261.851 139.532C262.744 139.744 263.633 139.965 264.517 140.194L264.287 141.084ZM269.528 142.56C268.661 142.297 267.789 142.041 266.911 141.794L267.16 140.91C268.044 141.159 268.923 141.416 269.795 141.681L269.528 142.56ZM274.701 144.255C273.848 143.955 272.989 143.664 272.123 143.38L272.409 142.507C273.281 142.793 274.146 143.087 275.005 143.388L274.701 144.255ZM279.794 146.169C278.957 145.834 278.113 145.506 277.262 145.186L277.585 144.326C278.443 144.648 279.293 144.979 280.136 145.317L279.794 146.169ZM284.799 148.309C283.98 147.936 283.152 147.571 282.315 147.214L282.676 146.369C283.519 146.729 284.354 147.097 285.179 147.473L284.799 148.309ZM289.703 150.681C288.902 150.269 288.09 149.865 287.269 149.468L287.669 148.641C288.497 149.041 289.315 149.449 290.123 149.864L289.703 150.681ZM294.481 153.291C293.7 152.838 292.908 152.392 292.105 151.954L292.545 151.147C293.355 151.59 294.155 152.04 294.942 152.497L294.481 153.291ZM299.108 156.147C298.354 155.652 297.587 155.164 296.808 154.683L297.29 153.901C298.077 154.387 298.851 154.879 299.612 155.379L299.108 156.147ZM303.552 159.259C302.836 158.724 302.105 158.195 301.359 157.673L301.886 156.921C302.639 157.448 303.378 157.982 304.102 158.523L303.552 159.259ZM307.802 162.662C307.122 162.078 306.425 161.5 305.712 160.929L306.286 160.212C307.008 160.789 307.713 161.374 308.401 161.966L307.802 162.662ZM311.78 166.355C311.146 165.718 310.492 165.086 309.818 164.461L310.442 163.788C311.125 164.421 311.788 165.061 312.431 165.707L311.78 166.355ZM315.426 170.36C314.858 169.674 314.266 168.994 313.652 168.32L314.331 167.701C314.955 168.386 315.556 169.077 316.133 169.774L315.426 170.36ZM318.659 174.707C318.167 173.962 317.647 173.222 317.099 172.487L317.836 171.938C318.393 172.687 318.924 173.441 319.426 174.201L318.659 174.707ZM321.346 179.39C320.957 178.592 320.535 177.798 320.081 177.008L320.877 176.55C321.341 177.358 321.773 178.17 322.172 178.987L321.346 179.39ZM323.334 184.391C323.073 183.542 322.774 182.695 322.438 181.851L323.291 181.511C323.636 182.377 323.944 183.248 324.212 184.122L323.334 184.391ZM324.447 189.651C324.345 188.766 324.199 187.881 324.012 186.999L324.91 186.808C325.104 187.718 325.254 188.631 325.359 189.546L324.447 189.651ZM324.524 195.008C324.603 194.115 324.635 193.222 324.621 192.329L325.54 192.315C325.554 193.239 325.52 194.164 325.439 195.089L324.524 195.008ZM323.508 200.271C323.769 199.404 323.983 198.534 324.151 197.664L325.053 197.838C324.879 198.739 324.658 199.639 324.388 200.536L323.508 200.271ZM321.477 205.243C321.897 204.434 322.273 203.623 322.607 202.81L323.457 203.159C323.112 203.998 322.725 204.834 322.292 205.667L321.477 205.243ZM319.398 208.695C319.656 208.321 319.903 207.945 320.14 207.569L320.917 208.059C320.669 208.451 320.411 208.843 320.143 209.234L320.132 209.25L320.12 209.265L319.765 208.974L320.119 209.265L320.119 209.265L320.119 209.265L320.119 209.266L320.117 209.268L320.113 209.273L320.098 209.29C320.086 209.305 320.068 209.326 320.044 209.353C319.997 209.407 319.927 209.485 319.835 209.582C319.652 209.777 319.38 210.053 319.018 210.381L318.401 209.701C318.743 209.39 318.998 209.132 319.166 208.953C319.25 208.863 319.313 208.794 319.353 208.748C319.373 208.725 319.388 208.707 319.398 208.696L319.398 208.695ZM313.524 212.931C314.498 212.467 315.352 211.971 316.084 211.488L316.59 212.255C315.825 212.76 314.934 213.277 313.919 213.76L313.524 212.931ZM307.936 214.733C308.955 214.545 309.906 214.299 310.789 214.015L311.071 214.89C310.151 215.185 309.162 215.441 308.103 215.636L307.936 214.733ZM297.658 214.544C298.153 214.643 298.64 214.729 299.118 214.802L298.979 215.71C298.487 215.635 297.986 215.547 297.477 215.445L297.658 214.544ZM302.062 215.104C303.091 215.156 304.073 215.148 305.009 215.09L305.065 216.007C304.095 216.067 303.079 216.075 302.016 216.021L302.062 215.104Z" fill="#4573D2"/>
<path fill-rule="evenodd" clip-rule="evenodd" d="M291.472 107.789C291.508 108.033 291.558 108.39 291.613 108.843L290.701 108.953C290.647 108.51 290.599 108.161 290.563 107.923C290.546 107.804 290.532 107.714 290.522 107.653L290.511 107.585L290.508 107.568L290.507 107.564L291.413 107.408L291.414 107.415L291.417 107.435L291.429 107.508C291.439 107.572 291.454 107.666 291.472 107.789ZM291.884 111.706C291.943 112.577 291.991 113.549 292.009 114.591L291.091 114.607C291.072 113.583 291.026 112.627 290.967 111.769L291.884 111.706ZM291.982 117.48C291.946 118.418 291.882 119.385 291.781 120.363L290.867 120.268C290.966 119.312 291.029 118.365 291.064 117.446L291.982 117.48ZM291.371 123.229C291.195 124.181 290.976 125.129 290.705 126.057L289.823 125.8C290.084 124.905 290.297 123.987 290.468 123.062L291.371 123.229ZM289.715 128.802C289.317 129.706 288.853 130.572 288.316 131.382L287.55 130.874C288.056 130.113 288.494 129.294 288.874 128.432L289.715 128.802ZM286.432 133.658C285.729 134.336 284.941 134.936 284.06 135.438L283.605 134.641C284.416 134.177 285.143 133.624 285.794 132.996L286.432 133.658ZM281.324 136.582C280.429 136.836 279.466 137.008 278.43 137.088L278.359 136.172C279.338 136.097 280.24 135.935 281.072 135.698L281.324 136.582ZM274.039 136.913C273.549 136.844 273.07 136.797 272.602 136.773L272.65 135.855C273.146 135.881 273.652 135.93 274.168 136.004M269.737 136.905C268.758 137.054 267.841 137.307 266.987 137.651L266.644 136.799C267.565 136.428 268.551 136.156 269.599 135.997L269.737 136.905ZM264.498 139.027C263.724 139.589 263.026 140.24 262.409 140.963L261.71 140.368C262.372 139.591 263.123 138.889 263.959 138.283L264.498 139.027ZM260.81 143.331C260.368 144.17 260.01 145.062 259.74 145.99L258.858 145.734C259.145 144.748 259.526 143.798 259.998 142.903L260.81 143.331ZM259.208 148.813C259.121 149.759 259.12 150.723 259.209 151.69L258.295 151.774C258.2 150.751 258.201 149.731 258.293 148.729L259.208 148.813ZM259.734 154.518C259.99 155.428 260.331 156.328 260.76 157.205L259.936 157.609C259.481 156.682 259.12 155.73 258.849 154.766L259.734 154.518ZM262.254 159.665C262.536 160.048 262.837 160.423 263.16 160.789C263.458 161.129 263.764 161.455 264.075 161.771L263.421 162.415C263.099 162.088 262.781 161.75 262.47 161.396C262.13 161.01 261.812 160.614 261.514 160.21L262.254 159.665ZM266.779 164.28C267.213 164.665 267.651 165.054 268.085 165.45L267.465 166.128C267.036 165.736 266.608 165.356 266.178 164.975C265.929 164.755 265.68 164.534 265.43 164.31L266.043 163.626C266.285 163.843 266.531 164.061 266.779 164.28ZM270.066 167.382C270.678 168.033 271.28 168.735 271.858 169.513L271.121 170.061C270.567 169.315 269.989 168.641 269.397 168.012L270.066 167.382ZM273.376 171.852C273.807 172.618 274.216 173.449 274.598 174.36L273.751 174.715C273.383 173.837 272.989 173.037 272.576 172.303L273.376 171.852ZM275.544 176.969C275.803 177.802 276.042 178.692 276.26 179.644L275.364 179.849C275.152 178.918 274.918 178.052 274.667 177.242L275.544 176.969ZM276.789 182.352C276.931 183.214 277.057 184.121 277.167 185.076L276.254 185.181C276.146 184.24 276.022 183.348 275.882 182.502L276.789 182.352ZM277.424 187.823C277.489 188.7 277.541 189.614 277.58 190.565L276.662 190.603C276.624 189.661 276.572 188.758 276.508 187.891L277.424 187.823ZM277.653 193.305C277.659 193.76 277.662 194.223 277.662 194.694L276.744 194.695C276.743 194.227 276.74 193.768 276.734 193.316L277.653 193.305Z" fill="#4573D2"/>
<path fill-rule="evenodd" clip-rule="evenodd" d="M180.664 149.763L180.69 148.484L181.608 148.503L181.583 149.781L180.664 149.763ZM180.562 154.876L180.613 152.319L181.532 152.338L181.481 154.894L180.562 154.876ZM180.511 157.433L181.43 157.451L181.404 158.729C181.404 158.729 181.404 158.729 181.404 158.729C181.394 159.24 181.375 159.749 181.35 160.258L180.432 160.211C180.458 159.711 180.476 159.211 180.486 158.711L180.511 157.433ZM180.081 164.725C180.127 164.222 180.173 163.72 180.217 163.218L181.132 163.298C181.088 163.802 181.042 164.306 180.995 164.809C180.956 165.259 180.922 165.71 180.893 166.161L179.976 166.102C180.005 165.644 180.04 165.183 180.081 164.725ZM179.885 171.614C179.857 170.696 179.85 169.776 179.865 168.857L180.784 168.872C180.769 169.777 180.775 170.682 180.803 171.585L179.885 171.614ZM180.317 177.109C180.201 176.198 180.108 175.283 180.036 174.366L180.952 174.295C181.022 175.197 181.115 176.097 181.228 176.994L180.317 177.109ZM181.266 182.539C181.065 181.642 180.885 180.741 180.727 179.835L181.632 179.677C181.788 180.568 181.965 181.455 182.163 182.338L181.266 182.539ZM182.726 187.855C182.44 186.98 182.176 186.1 181.933 185.214L182.819 184.971C183.058 185.843 183.318 186.709 183.599 187.57L182.726 187.855ZM184.147 191.738C183.974 191.312 183.806 190.884 183.643 190.455L184.501 190.129C184.662 190.552 184.827 190.973 184.998 191.392C185.168 191.811 185.344 192.228 185.524 192.642L184.682 193.009C184.499 192.588 184.32 192.164 184.147 191.738ZM187.117 197.954C186.673 197.15 186.247 196.336 185.841 195.51L186.665 195.104C187.065 195.917 187.484 196.719 187.921 197.51L187.117 197.954ZM190.009 202.647C189.491 201.888 188.99 201.117 188.507 200.335L189.289 199.853C189.764 200.623 190.257 201.382 190.768 202.128L190.009 202.647ZM193.333 207.045C192.744 206.338 192.173 205.618 191.619 204.885L192.352 204.331C192.897 205.053 193.46 205.761 194.039 206.457L193.333 207.045ZM197.058 211.108C196.405 210.46 195.768 209.797 195.147 209.12L195.824 208.5C196.435 209.166 197.062 209.818 197.705 210.456L197.058 211.108ZM200.095 213.914C199.746 213.614 199.402 213.31 199.061 213.003L199.676 212.321C200.011 212.623 200.351 212.922 200.694 213.218C201.037 213.513 201.384 213.804 201.733 214.09L201.151 214.801C200.796 214.509 200.444 214.214 200.095 213.914ZM205.575 218.089C204.813 217.577 204.062 217.046 203.324 216.497L203.872 215.76C204.599 216.3 205.337 216.822 206.087 217.327L205.575 218.089ZM210.291 220.944C209.483 220.506 208.685 220.049 207.899 219.572L208.375 218.787C209.149 219.255 209.934 219.705 210.729 220.137L210.291 220.944ZM215.255 223.34C214.409 222.98 213.572 222.6 212.744 222.201L213.144 221.373C213.958 221.766 214.782 222.14 215.615 222.494L215.255 223.34ZM220.424 225.255C219.547 224.976 218.678 224.678 217.817 224.358L218.136 223.497C218.984 223.811 219.839 224.105 220.702 224.379L220.424 225.255ZM253.824 225.83C253.723 225.855 253.623 225.88 253.522 225.905L253.301 225.013C253.499 224.964 253.698 224.914 253.898 224.864L254.121 225.755C254.022 225.78 253.923 225.805 253.824 225.83ZM224.407 226.365C223.96 226.257 223.515 226.144 223.071 226.026L223.307 225.139C223.744 225.255 224.182 225.366 224.623 225.472C225.063 225.578 225.504 225.678 225.945 225.774L225.752 226.672C225.303 226.575 224.855 226.473 224.407 226.365ZM252.322 226.2C252.122 226.249 251.922 226.297 251.722 226.345C251.275 226.453 250.828 226.556 250.379 226.654L250.184 225.756C250.626 225.66 251.066 225.559 251.506 225.452C251.705 225.404 251.905 225.356 252.105 225.307L252.322 226.2ZM247.672 227.175C246.765 227.328 245.855 227.459 244.943 227.568L244.834 226.656C245.731 226.548 246.627 226.42 247.519 226.269L247.672 227.175ZM231.189 227.578C230.277 227.47 229.367 227.341 228.46 227.189L228.611 226.283C229.504 226.432 230.399 226.56 231.297 226.666L231.189 227.578ZM242.199 227.831C241.282 227.897 240.363 227.941 239.445 227.964L239.422 227.045C240.326 227.023 241.23 226.98 242.133 226.915L242.199 227.831ZM236.688 227.966C235.769 227.945 234.851 227.902 233.934 227.837L233.998 226.921C234.901 226.984 235.805 227.027 236.709 227.047L236.688 227.966Z" fill="#4573D2"/>
<path d="M298.231 188.804L334.037 297.127L266.153 266.846L236.201 185.711C236.08 185.383 236.041 185.03 236.087 184.684C236.133 184.337 236.264 184.006 236.467 183.721C236.67 183.437 236.94 183.206 237.253 183.049C237.566 182.893 237.912 182.815 238.262 182.823L291.726 183.994C293.174 184.025 294.577 184.504 295.742 185.366C296.907 186.227 297.777 187.428 298.231 188.804Z" fill="#444C61"/>
<path d="M235.808 71.5619L196.675 71.6062C195.805 71.6073 194.944 71.4372 194.14 71.1056C193.337 70.7739 192.606 70.2872 191.99 69.6733C191.375 69.0593 190.886 68.3301 190.552 67.5273C190.219 66.7245 190.046 65.8638 190.045 64.9943L190.003 25.8591C190.002 24.9898 190.172 24.1287 190.504 23.3251C190.835 22.5215 191.322 21.7912 191.936 21.1758C192.55 20.5603 193.279 20.0719 194.082 19.7383C194.885 19.4048 195.745 19.2326 196.615 19.2318L217.809 19.2074L235.754 19.1875C237.51 19.1857 239.194 19.8813 240.437 21.1212C241.68 22.3611 242.379 24.0438 242.382 25.7993L242.426 64.9346C242.427 65.8045 242.257 66.666 241.925 67.4701C241.593 68.2741 241.105 69.0047 240.491 69.6203C239.876 70.2358 239.146 70.7241 238.342 71.0572C237.539 71.3904 236.677 71.5619 235.808 71.5619Z" fill="#B0B5C0"/>
<path d="M237.014 71.5613L195.468 71.6078C194.756 71.6084 194.052 71.4687 193.394 71.1967C192.736 70.9248 192.139 70.5259 191.635 70.0229C191.132 69.5199 190.732 68.9225 190.46 68.2651C190.187 67.6076 190.047 66.9029 190.047 66.1913V61.8151L242.379 32.3242L242.417 66.1404C242.418 67.5754 241.85 68.9522 240.837 69.9686C239.824 70.9849 238.449 71.5578 237.014 71.5613Z" fill="#7B8093"/>
<path fill-rule="evenodd" clip-rule="evenodd" d="M198.149 49.0597C197.859 50.0171 198.399 51.029 199.356 51.3199L227.513 59.8728C228.47 60.1636 229.482 59.6233 229.773 58.6658L234.753 42.2706C235.044 41.3132 234.504 40.3013 233.546 40.0105L205.39 31.4575C204.432 31.1667 203.421 31.7071 203.13 32.6645L198.149 49.0597ZM198.894 52.8427C197.095 52.2964 196.08 50.3956 196.627 48.5971L201.607 32.2019C202.153 30.4035 204.054 29.3884 205.852 29.9347L234.009 38.4876C235.807 39.034 236.822 40.9348 236.276 42.7332L231.296 59.1284C230.749 60.9269 228.849 61.9419 227.05 61.3956L198.894 52.8427Z" fill="white"/>
<path d="M201.936 33.8581L200.528 38.4922L233.674 48.5609L235.082 43.9268L201.936 33.8581Z" fill="white"/>
<path d="M201.412 40.7078L200.546 43.5586L226.921 51.5705L227.787 48.7197L201.412 40.7078Z" fill="white"/>
<path d="M380.25 0.00772298L340.188 0.0525104C336.218 0.0569488 333.003 3.28169 333.008 7.25518L333.053 47.3509C333.057 51.3244 336.279 54.542 340.249 54.5375L380.311 54.4927C384.281 54.4883 387.496 51.2636 387.492 47.2901L387.447 7.19432C387.443 3.22083 384.221 0.00328456 380.25 0.00772298Z" fill="#FFBD3B"/>
<path d="M380.31 54.4934L340.25 54.5376C339.306 54.5391 338.371 54.3544 337.498 53.994C336.625 53.6335 335.831 53.1045 335.163 52.4371C334.494 51.7696 333.963 50.9769 333.601 50.1041C333.239 49.2314 333.052 48.2957 333.051 47.3506L387.454 16.5645L387.49 47.2848C387.491 48.23 387.307 49.1663 386.947 50.0401C386.587 50.914 386.059 51.7083 385.392 52.3777C384.725 53.0471 383.933 53.5785 383.061 53.9415C382.189 54.3045 381.254 54.492 380.31 54.4934Z" fill="#DBA53B"/>
<path fill-rule="evenodd" clip-rule="evenodd" d="M376.807 13.2958C376.918 13.5638 376.857 13.8725 376.652 14.0779L370.425 20.3188L370.45 42.599C370.45 42.7893 370.375 42.9719 370.24 43.1066C370.106 43.2413 369.924 43.3171 369.734 43.3173L345.57 43.3438C345.174 43.3442 344.852 43.0234 344.852 42.6272L344.827 20.1413C344.797 19.8926 344.899 19.6414 345.103 19.4849L353.554 13.0261C353.679 12.9307 353.831 12.879 353.988 12.8788L376.144 12.8535C376.434 12.8532 376.695 13.0278 376.807 13.2958ZM346.261 20.7717L346.285 41.9081L369.015 41.8832L368.991 20.7456L346.261 20.7717ZM369.405 19.3102L374.414 14.2904L354.232 14.3134L347.661 19.3352L369.405 19.3102Z" fill="white"/>
<path fill-rule="evenodd" clip-rule="evenodd" d="M376.424 12.904C376.691 13.0149 376.866 13.2763 376.867 13.5665L376.884 34.5258C376.884 34.6887 376.829 34.8467 376.728 34.974L370.293 43.0434C370.103 43.2816 369.784 43.3737 369.496 43.2732C369.209 43.1727 369.016 42.9014 369.016 42.5967L368.991 20.0242C368.991 19.8338 369.066 19.6512 369.2 19.5164L375.642 13.0601C375.847 12.8548 376.156 12.7932 376.424 12.904ZM365.339 14.1154L358.097 20.573L357.144 19.5016L364.385 13.044L365.339 14.1154ZM370.425 20.32L370.447 40.5496L375.45 34.2755L375.434 15.2993L370.425 20.32ZM361.655 25.5866L353.599 25.5954L353.598 24.1605L361.653 24.1517L361.655 25.5866Z" fill="white"/>
<path d="M201.129 103.005L159.002 103.053C156.028 103.056 153.62 105.471 153.623 108.448L153.67 150.61C153.674 153.587 156.087 155.997 159.061 155.993L201.188 155.946C204.162 155.943 206.57 153.527 206.567 150.551L206.52 108.389C206.516 105.412 204.103 103.002 201.129 103.005Z" fill="#4573D2"/>
<path d="M201.189 155.947L159.061 155.994C158.354 155.995 157.654 155.856 157.001 155.586C156.347 155.316 155.753 154.92 155.252 154.42C154.752 153.92 154.355 153.327 154.083 152.673C153.812 152.02 153.672 151.319 153.671 150.611L206.535 120.662L206.568 150.552C206.569 151.26 206.43 151.961 206.16 152.615C205.89 153.269 205.495 153.864 204.995 154.365C204.496 154.866 203.903 155.263 203.25 155.535C202.597 155.806 201.897 155.946 201.189 155.947Z" fill="#4369B6"/>
<path fill-rule="evenodd" clip-rule="evenodd" d="M175.884 112.981C176.013 112.611 176.395 112.392 176.779 112.468L196.305 116.34C196.527 116.384 196.719 116.522 196.833 116.718C196.946 116.914 196.97 117.149 196.897 117.363L196.152 117.112C196.897 117.363 196.897 117.363 196.897 117.363L196.693 117.97C196.56 118.362 196.368 118.931 196.128 119.639C195.648 121.056 194.976 123.03 194.211 125.26C192.681 129.719 190.776 135.209 189.276 139.315L189.273 139.322C188.013 142.673 186.994 144.565 185.938 145.603C185.388 146.145 184.826 146.459 184.227 146.628C184.2 146.635 184.174 146.642 184.147 146.649L184.144 146.735C184.039 146.731 183.936 146.725 183.834 146.717C183.39 146.796 182.952 146.805 182.539 146.806C182.444 146.806 182.35 146.789 182.261 146.755L167.118 141.04L167.114 141.038C167.099 141.033 167.079 141.027 167.055 141.018C167.006 141 166.94 140.975 166.858 140.941C166.695 140.873 166.471 140.77 166.21 140.623C165.69 140.332 165.014 139.864 164.39 139.155C163.113 137.702 162.151 135.34 162.987 131.722C163.039 131.498 163.186 131.307 163.39 131.201C163.594 131.095 163.834 131.083 164.047 131.169L168.859 133.112L175.884 112.981ZM170.319 133.701L179.07 137.233C179.402 137.367 179.601 137.709 179.555 138.065L179.555 138.066L179.554 138.077C179.553 138.084 179.552 138.094 179.55 138.107C179.549 138.114 179.549 138.122 179.548 138.131C179.543 138.18 179.536 138.255 179.529 138.352C179.515 138.546 179.501 138.828 179.503 139.168C179.508 139.853 179.578 140.752 179.827 141.644C180.077 142.538 180.494 143.384 181.165 144.016C181.748 144.566 182.566 144.997 183.744 145.128C183.763 145.123 183.783 145.118 183.802 145.112C184.133 145.019 184.465 144.846 184.836 144.481C185.621 143.708 186.543 142.115 187.8 138.771C189.294 134.681 191.195 129.206 192.724 124.749C193.488 122.521 194.159 120.549 194.639 119.134C194.833 118.561 194.996 118.08 195.121 117.71L177.144 114.145L170.319 133.701ZM179.062 143.866C178.719 143.282 178.479 142.665 178.313 142.068C178.014 140.997 177.936 139.949 177.931 139.179C177.929 138.911 177.936 138.673 177.946 138.476L164.346 132.987C163.964 135.585 164.737 137.167 165.571 138.116C166.05 138.66 166.573 139.024 166.978 139.25C167.179 139.363 167.348 139.44 167.463 139.488C167.52 139.512 167.563 139.528 167.59 139.538C167.603 139.543 167.612 139.546 167.617 139.547C167.618 139.548 167.619 139.548 167.619 139.548C167.619 139.548 167.62 139.548 167.619 139.548L167.618 139.548C167.617 139.548 167.617 139.547 167.617 139.547L167.38 140.298C167.616 139.547 167.617 139.548 167.618 139.548" fill="white"/>
<path fill-rule="evenodd" clip-rule="evenodd" d="M178.849 121.222C179.111 121.359 179.441 121.314 179.656 121.091C179.918 120.82 179.911 120.388 179.64 120.126C179.54 120.029 179.42 119.956 179.288 119.912C179.156 119.867 179.016 119.853 178.878 119.87C178.504 119.916 178.238 120.257 178.284 120.631C178.321 120.939 178.558 121.174 178.849 121.222ZM182.4 121.592C182.499 121.228 182.874 121.014 183.238 121.113L188.973 122.678C189.337 122.777 189.551 123.153 189.452 123.517C189.353 123.881 188.978 124.095 188.614 123.996L182.879 122.431C182.515 122.332 182.3 121.956 182.4 121.592ZM176.807 126.69C177.068 126.826 177.397 126.782 177.612 126.561C177.875 126.291 177.87 125.858 177.6 125.595C177.5 125.497 177.379 125.423 177.246 125.379C177.113 125.334 176.972 125.32 176.834 125.338C176.46 125.385 176.195 125.727 176.242 126.101C176.281 126.408 176.517 126.641 176.807 126.69ZM180.097 126.957C180.215 126.599 180.602 126.405 180.959 126.524L186.695 128.429C187.053 128.548 187.246 128.935 187.128 129.293C187.009 129.651 186.623 129.844 186.265 129.726L180.529 127.82C180.172 127.701 179.978 127.315 180.097 126.957ZM174.698 131.747C174.96 131.884 175.29 131.839 175.506 131.615C175.767 131.344 175.759 130.911 175.488 130.65C175.388 130.553 175.267 130.48 175.135 130.436C175.003 130.392 174.863 130.378 174.725 130.395C174.351 130.442 174.085 130.783 174.131 131.157C174.17 131.465 174.407 131.699 174.698 131.747ZM177.917 132.288C178.035 131.93 178.422 131.736 178.779 131.855L184.515 133.762C184.873 133.881 185.066 134.267 184.948 134.625C184.829 134.983 184.443 135.177 184.085 135.058L178.349 133.151C177.992 133.033 177.798 132.646 177.917 132.288Z" fill="white"/>
<path d="M129.483 39.5078L90.4746 39.5514C86.9074 39.5554 84.0189 42.4504 84.0228 46.0176L84.0664 85.0261C84.0704 88.5933 86.9654 91.4818 90.5326 91.4778L129.541 91.4343C133.108 91.4303 135.997 88.5353 135.993 84.9681L135.949 45.9596C135.945 42.3924 133.05 39.5038 129.483 39.5078Z" fill="#4573D2"/>
<path d="M84 79.5245V85.128C84.0012 85.9766 84.1695 86.8166 84.4953 87.6002C84.8211 88.3837 85.2981 89.0954 85.899 89.6946C86.4999 90.2937 87.213 90.7687 87.9975 91.0923C88.782 91.4158 89.6225 91.5817 90.4711 91.5804L129.48 91.5365C130.328 91.5355 131.168 91.3673 131.952 91.0415C132.735 90.7157 133.447 90.2387 134.046 89.6378C134.645 89.0368 135.12 88.3237 135.443 87.5392C135.767 86.7546 135.932 85.914 135.931 85.0655L135.893 50.6953L84 79.5245Z" fill="#4369B6"/>
<path fill-rule="evenodd" clip-rule="evenodd" d="M105.462 49.4668C106.146 49.4661 106.823 49.6014 107.455 49.865C108.086 50.1286 108.659 50.5151 109.139 51.0021C109.62 51.4891 109.999 52.0668 110.254 52.7016C110.509 53.3364 110.635 54.0157 110.626 54.6998L109.425 54.6825C109.432 54.1577 109.335 53.6366 109.14 53.1495C108.944 52.6625 108.653 52.2193 108.284 51.8457C107.916 51.4721 107.476 51.1755 106.992 50.9733C106.508 50.7711 105.988 50.6672 105.463 50.6678C104.938 50.6684 104.419 50.7733 103.935 50.9766C103.451 51.1798 103.012 51.4774 102.644 51.8518C102.276 52.2262 101.987 52.67 101.792 53.1575C101.597 53.6449 101.501 54.1663 101.51 54.6911L101.51 54.7097C101.502 55.2967 101.627 55.8779 101.876 56.4095L100.788 56.9191C100.463 56.2255 100.299 55.4674 100.309 54.7017C100.299 54.0207 100.424 53.3445 100.677 52.712C100.93 52.0767 101.308 51.4981 101.788 51.0101C102.267 50.522 102.839 50.1343 103.47 49.8693C104.1 49.6044 104.778 49.4675 105.462 49.4668Z" fill="white"/>
<path fill-rule="evenodd" clip-rule="evenodd" d="M121.159 51.5723L120.89 52.6879C120.643 53.7123 120.35 55.5548 120.174 57.4993C122.11 58.927 123.564 60.9717 124.245 63.3449H125.38C126.809 63.3449 127.968 64.5036 127.968 65.9329V69.2267C127.968 70.656 126.809 71.8147 125.38 71.8147H123.733C122.987 73.5009 121.832 74.9649 120.395 76.0816L120.605 76.8669C120.975 78.2475 120.156 79.6666 118.775 80.0366L116.503 80.6455C115.122 81.0154 113.703 80.1961 113.333 78.8155L113.222 78.4023H107.97C107.856 78.4023 107.743 78.4006 107.631 78.3972L107.519 78.8155C107.149 80.1961 105.729 81.0154 104.349 80.6455L102.076 80.0365C100.696 79.6666 99.8764 78.2475 100.246 76.8669L100.591 75.5806C98.3337 73.5569 96.9119 70.6165 96.9119 67.3445V66.4034C96.9119 60.2964 101.863 55.3457 107.97 55.3457H113.616C113.952 55.3457 114.285 55.3607 114.613 55.39C116.246 53.2642 118.61 52.1726 120.042 51.8354L121.159 51.5723ZM119.268 53.5759C118.055 54.086 116.561 55.0418 115.522 56.5381L115.278 56.8901L114.853 56.8357C114.448 56.784 114.035 56.7573 113.616 56.7573H107.97C102.642 56.7573 98.3235 61.076 98.3235 66.4034V67.3445C98.3235 70.3421 99.69 73.02 101.837 74.7903L102.187 75.0791L101.61 77.2323C101.442 77.8598 101.814 78.5048 102.442 78.673L104.714 79.2819C105.342 79.4501 105.987 79.0777 106.155 78.4501L106.568 76.9078L107.156 76.9569C107.424 76.9792 107.695 76.9907 107.97 76.9907H113.616C113.662 76.9907 113.708 76.9904 113.754 76.9897L114.303 76.982L114.696 78.4502C114.865 79.0777 115.51 79.4501 116.137 79.282L118.41 78.673C119.037 78.5049 119.41 77.8598 119.242 77.2323L118.78 75.5086L119.181 75.2247C120.712 74.1413 121.913 72.6234 122.605 70.8521L122.78 70.4031H125.38C126.029 70.4031 126.556 69.8764 126.556 69.2267V65.9329C126.556 65.2832 126.029 64.7565 125.38 64.7565H123.139L123.012 64.2105C122.456 61.819 121.01 59.7668 119.039 58.4246L118.699 58.1934L118.733 57.7839C118.857 56.2575 119.058 54.7469 119.268 53.5759Z" fill="white"/>
<path fill-rule="evenodd" clip-rule="evenodd" d="M118.792 66.4051C119.312 66.4051 119.733 65.9838 119.733 65.464C119.733 64.9443 119.312 64.523 118.792 64.523C118.272 64.523 117.851 64.9443 117.851 65.464C117.851 65.9838 118.272 66.4051 118.792 66.4051ZM118.792 67.8168C120.092 67.8168 121.145 66.7634 121.145 65.464C121.145 64.1647 120.092 63.1113 118.792 63.1113C117.493 63.1113 116.439 64.1647 116.439 65.464C116.439 66.7634 117.493 67.8168 118.792 67.8168Z" fill="white"/>
<path fill-rule="evenodd" clip-rule="evenodd" d="M96.2703 59.0347C95.9424 59.193 95.6676 59.443 95.4791 59.7545C95.2907 60.066 95.1968 60.4255 95.2089 60.7894L95.2092 60.8084C95.2105 61.7363 95.7161 62.3267 96.2826 62.7133C96.5675 62.9076 96.8564 63.0408 97.0762 63.1253C97.1851 63.1671 97.2746 63.1961 97.3348 63.2141C97.3648 63.2231 97.3874 63.2293 97.4012 63.233L97.4151 63.2366C97.4162 63.2369 97.4168 63.237 97.4168 63.237L97.4151 63.2366C97.4148 63.2365 97.4148 63.2365 97.2772 63.821C97.1396 64.4056 97.1393 64.4055 97.1391 64.4054L97.1372 64.405L97.1337 64.4042L97.124 64.4018L97.0933 64.3938C97.0681 64.3871 97.0333 64.3775 96.9905 64.3647C96.9049 64.3391 96.7862 64.3005 96.6452 64.2463C96.3651 64.1386 95.9876 63.9659 95.6057 63.7053C94.8405 63.1832 94.0138 62.2706 94.0082 60.8195C93.9905 60.2264 94.1443 59.6407 94.4515 59.1329C94.7604 58.6223 95.2109 58.2125 95.7483 57.9531L96.2703 59.0347Z" fill="white"/>
<path d="M312.071 61.0065L270.871 61.0526C267.905 61.0559 265.503 63.4651 265.506 66.4338L265.552 107.669C265.555 110.638 267.963 113.042 270.929 113.038L312.129 112.992C315.095 112.989 317.497 110.58 317.494 107.611L317.448 66.3757C317.445 63.4071 315.037 61.0032 312.071 61.0065Z" fill="#B0B5C0"/>
<path d="M312.13 112.991L270.929 113.036C270.224 113.037 269.525 112.899 268.873 112.63C268.221 112.36 267.629 111.965 267.13 111.467C266.63 110.968 266.234 110.376 265.963 109.724C265.693 109.072 265.553 108.374 265.552 107.668V103.323L317.457 74.0449L317.494 107.61C317.495 108.316 317.357 109.015 317.088 109.667C316.819 110.32 316.424 110.913 315.926 111.412C315.427 111.912 314.836 112.309 314.185 112.58C313.533 112.851 312.835 112.99 312.13 112.991Z" fill="#7B8093"/>
<path fill-rule="evenodd" clip-rule="evenodd" d="M300.017 70.4757C300.17 70.469 300.323 70.4935 300.467 70.5479C300.616 70.6046 300.752 70.6923 300.865 70.8053C300.978 70.9184 301.065 71.0541 301.122 71.2034C301.176 71.347 301.201 71.5 301.194 71.6533V72.974H305.672C305.825 72.9673 305.978 72.9918 306.121 73.0463C306.271 73.1029 306.406 73.1906 306.519 73.3036C306.632 73.4166 306.72 73.5523 306.776 73.7018C306.831 73.8452 306.855 73.9982 306.849 74.1513L306.878 100.491C306.885 100.644 306.861 100.797 306.806 100.94C306.75 101.09 306.663 101.225 306.55 101.338C306.438 101.451 306.303 101.539 306.154 101.596C306.01 101.651 305.857 101.676 305.704 101.67L276.876 101.702C276.722 101.709 276.569 101.685 276.426 101.63C276.276 101.573 276.141 101.486 276.028 101.373C275.915 101.26 275.827 101.124 275.771 100.975C275.716 100.831 275.692 100.678 275.699 100.525L275.675 79.9092C275.671 79.8822 275.669 79.8545 275.669 79.8263C275.669 79.7981 275.671 79.7704 275.675 79.7434L275.669 74.186C275.662 74.0329 275.686 73.8799 275.74 73.7363C275.796 73.5867 275.884 73.4508 275.997 73.3376C276.109 73.2244 276.245 73.1364 276.394 73.0794C276.537 73.0247 276.69 72.9998 276.844 73.0063H281.305V71.6731C281.298 71.5201 281.323 71.3672 281.377 71.2238C281.433 71.0742 281.52 70.9383 281.633 70.8251C281.746 70.7119 281.881 70.6239 282.03 70.5669C282.174 70.5121 282.327 70.4873 282.48 70.4938H283.708C283.861 70.4871 284.014 70.5116 284.157 70.5659C284.307 70.6225 284.442 70.7102 284.555 70.8229C284.668 70.9358 284.756 71.0713 284.813 71.2206C284.868 71.3642 284.892 71.5174 284.886 71.6708V72.9889L297.614 72.9746V71.6545C297.607 71.5013 297.631 71.3483 297.686 71.2047C297.742 71.0552 297.83 70.9196 297.942 70.8066C298.055 70.6936 298.19 70.6057 298.34 70.5488C298.483 70.494 298.636 70.4692 298.79 70.4757H300.017ZM298.685 73.6088C298.691 73.5766 298.694 73.5435 298.694 73.5095C298.694 73.476 298.691 73.4432 298.685 73.4114V71.6409C298.685 71.6301 298.684 71.6193 298.684 71.6085C298.683 71.6003 298.685 71.5921 298.687 71.5844C298.69 71.5768 298.695 71.5698 298.701 71.5639C298.707 71.5581 298.714 71.5536 298.721 71.5507C298.729 71.5478 298.737 71.5465 298.745 71.547C298.756 71.5476 298.766 71.5479 298.776 71.5479H300.031C300.042 71.5479 300.053 71.5476 300.064 71.5469C300.072 71.5464 300.08 71.5476 300.087 71.5505C300.095 71.5533 300.101 71.5578 300.107 71.5634C300.113 71.5691 300.117 71.5759 300.12 71.5835C300.123 71.591 300.124 71.5991 300.124 71.6071C300.123 71.6179 300.123 71.6288 300.123 71.6396V75.4052C300.123 75.416 300.123 75.4268 300.124 75.4376C300.124 75.4458 300.123 75.454 300.12 75.4617C300.117 75.4694 300.113 75.4763 300.107 75.4821C300.101 75.4879 300.094 75.4925 300.086 75.4954C300.079 75.4983 300.07 75.4996 300.062 75.4991C300.052 75.4985 300.041 75.4982 300.031 75.4982H298.776C298.765 75.4982 298.754 75.4986 298.743 75.4993C298.735 75.4998 298.727 75.4986 298.72 75.4958C298.712 75.493 298.706 75.4887 298.7 75.4831C298.694 75.4776 298.69 75.4709 298.687 75.4635C298.685 75.4561 298.683 75.4482 298.684 75.4404C298.684 75.4296 298.685 75.4187 298.685 75.4078V73.6088ZM297.614 74.0468L284.886 74.0611V75.4109C284.893 75.564 284.868 75.7171 284.814 75.8607C284.757 76.0102 284.669 76.1459 284.557 76.2589C284.444 76.3719 284.308 76.4596 284.159 76.5163C284.015 76.5707 283.862 76.5952 283.709 76.5885H282.482C282.329 76.5952 282.176 76.5707 282.033 76.5164C281.884 76.4599 281.748 76.3724 281.636 76.2597C281.523 76.147 281.435 76.0116 281.378 75.8624C281.324 75.719 281.299 75.5659 281.305 75.4127V74.0785H276.831C276.82 74.0785 276.81 74.0782 276.799 74.0776C276.791 74.0771 276.783 74.0784 276.776 74.0812C276.768 74.0841 276.761 74.0885 276.756 74.0942C276.75 74.1 276.745 74.1068 276.743 74.1143C276.74 74.1218 276.739 74.1299 276.739 74.1379C276.74 74.1489 276.74 74.1599 276.74 74.1709L276.746 79.289L305.783 79.2579L305.777 74.1385C305.777 74.1275 305.778 74.1164 305.778 74.1054C305.779 74.0974 305.778 74.0894 305.775 74.0818C305.772 74.0744 305.767 74.0675 305.762 74.0618C305.756 74.0561 305.749 74.0517 305.742 74.0488C305.734 74.046 305.726 74.0448 305.718 74.0452C305.707 74.0459 305.696 74.0462 305.686 74.0462H301.194V75.3916C301.201 75.5448 301.176 75.6978 301.122 75.8413C301.065 75.9907 300.978 76.1264 300.865 76.2395C300.752 76.3526 300.617 76.4405 300.468 76.4973C300.324 76.5521 300.171 76.5769 300.018 76.5704H298.791C298.638 76.5774 298.485 76.5531 298.342 76.499C298.192 76.4426 298.056 76.355 297.943 76.2421C297.83 76.1291 297.742 75.9934 297.686 75.844C297.631 75.7005 297.607 75.5474 297.614 75.3941V74.0468ZM305.784 80.3301L276.747 80.3612L276.77 100.538C276.77 100.549 276.77 100.56 276.769 100.571C276.768 100.579 276.77 100.587 276.772 100.594C276.775 100.602 276.78 100.609 276.785 100.615C276.791 100.62 276.798 100.625 276.805 100.627C276.813 100.63 276.821 100.632 276.829 100.631C276.84 100.63 276.85 100.63 276.861 100.63L305.716 100.598C305.722 100.598 305.728 100.598 305.735 100.598C305.739 100.598 305.743 100.598 305.747 100.599C305.755 100.599 305.763 100.598 305.771 100.595C305.778 100.592 305.785 100.587 305.791 100.582C305.797 100.576 305.801 100.569 305.804 100.561C305.807 100.554 305.808 100.545 305.808 100.537C305.807 100.527 305.807 100.516 305.807 100.505L305.784 80.3301ZM282.377 73.6337V75.4259C282.377 75.4363 282.376 75.4468 282.376 75.4572C282.375 75.4652 282.377 75.4733 282.379 75.4808C282.382 75.4883 282.387 75.4951 282.392 75.5008C282.398 75.5065 282.405 75.5109 282.412 75.5137C282.42 75.5165 282.428 75.5178 282.436 75.5173C282.447 75.5166 282.458 75.5163 282.468 75.5163H283.723C283.734 75.5163 283.745 75.5166 283.755 75.5173C283.763 75.5178 283.771 75.5165 283.779 75.5137C283.787 75.5108 283.793 75.5064 283.799 75.5007C283.805 75.495 283.809 75.4882 283.812 75.4807C283.815 75.4733 283.816 75.4653 283.816 75.4571C283.815 75.4463 283.815 75.4354 283.815 75.4246V71.6577C283.815 71.6473 283.815 71.6368 283.815 71.6264C283.816 71.6182 283.815 71.61 283.812 71.6023C283.809 71.5946 283.804 71.5877 283.799 71.5819C283.793 71.576 283.786 71.5715 283.778 71.5687C283.77 71.5658 283.762 71.5645 283.754 71.565C283.743 71.5657 283.732 71.566 283.722 71.566H282.467C282.457 71.566 282.446 71.5657 282.436 71.5651C282.428 71.5646 282.42 71.5658 282.412 71.5687C282.405 71.5715 282.398 71.576 282.392 71.5817C282.386 71.5874 282.382 71.5943 282.379 71.6018C282.376 71.6093 282.375 71.6173 282.376 71.6254C282.376 71.6366 282.377 71.6478 282.377 71.659V73.4511C282.382 73.4808 282.384 73.5113 282.384 73.5424C282.384 73.5736 282.382 73.6041 282.377 73.6337ZM280.508 84.752L280.512 88.072L285.098 88.067L285.094 84.7471L280.508 84.752ZM286.166 84.7459L286.169 88.0658L290.739 88.0608L290.734 84.7409L286.166 84.7459ZM291.209 83.6682L279.972 83.6804C279.676 83.6808 279.436 83.921 279.436 84.2171L279.441 88.5376C279.438 88.5611 279.436 88.5849 279.436 88.6092C279.437 88.6335 279.438 88.6574 279.441 88.6808L279.451 97.3947C279.451 97.5369 279.507 97.6732 279.608 97.7736C279.709 97.8741 279.845 97.9304 279.987 97.9302L285.554 97.9239C285.584 97.9289 285.614 97.9316 285.645 97.9315C285.677 97.9315 285.707 97.9288 285.737 97.9237L291.207 97.9174C291.235 97.9216 291.263 97.9238 291.291 97.9238C291.32 97.9237 291.347 97.9215 291.374 97.9172L296.898 97.9109C296.91 97.9117 296.923 97.9122 296.935 97.9121C296.948 97.9121 296.96 97.9117 296.973 97.9108L302.574 97.9044C302.87 97.9041 303.11 97.6638 303.109 97.3677L303.105 93.0091C303.105 92.9989 303.106 92.9886 303.106 92.9782C303.106 92.9678 303.105 92.9575 303.105 92.9473L303.095 84.1914C303.095 84.0492 303.038 83.9129 302.938 83.8125C302.837 83.7121 302.701 83.6557 302.559 83.6559L291.327 83.6681C291.307 83.666 291.288 83.6649 291.268 83.6649C291.248 83.665 291.228 83.6661 291.209 83.6682ZM291.805 84.7398L291.81 88.0597L296.389 88.0547L296.385 84.7348L291.805 84.7398ZM297.457 84.7336L297.46 88.0535L302.028 88.0486L302.024 84.7287L297.457 84.7336ZM302.029 89.1208L297.461 89.1257L297.465 92.4482L302.033 92.4433L302.029 89.1208ZM302.034 93.5155L297.466 93.5204L297.47 96.838L302.038 96.8328L302.034 93.5155ZM296.398 96.8393L296.395 93.5216L291.82 93.5266L291.825 96.8445L296.398 96.8393ZM290.754 96.8457L290.748 93.5277L286.176 93.5327L286.18 96.851L290.754 96.8457ZM285.109 96.8522L285.105 93.5339L280.518 93.5388L280.521 96.8574L285.109 96.8522ZM280.517 92.4667L285.103 92.4617L285.099 89.1392L280.513 89.1441L280.517 92.4667ZM286.171 89.138L286.175 92.4605L290.746 92.4555L290.741 89.133L286.171 89.138ZM291.812 89.1319L291.818 92.4544L296.394 92.4494L296.39 89.1269L291.812 89.1319Z" fill="white"/>
</g>
<defs>
<clipPath id="clip0_9_51230">
<rect width="600" height="329.579" fill="white"/>
</clipPath>
</defs>
</svg>
