<svg width="600" height="314" viewBox="0 0 600 314" fill="none" xmlns="http://www.w3.org/2000/svg">
<g clip-path="url(#clip0_9_51015)">
<mask id="mask0_9_51015" style="mask-type:alpha" maskUnits="userSpaceOnUse" x="-1" y="0" width="602" height="314">
<path d="M600 210.153C600 142.612 512.745 84.1818 423.683 118.787C347.348 148.446 377.705 0 186.408 0C120.826 0 0.0906175 53.8587 0.0906175 149.933C-2.29319 236.889 40.1108 327.882 377.583 312.23C480.766 307.452 600 302.636 600 210.153Z" fill="#F6F6F6"/>
</mask>
<g mask="url(#mask0_9_51015)">
<path d="M600 210.153C600 142.612 512.746 84.1818 423.683 118.787C347.349 148.446 377.705 0 186.408 0C120.826 0 0.0908998 53.8587 0.0908998 149.933C-2.29291 236.889 40.1111 327.882 377.583 312.23C480.766 307.452 600 302.636 600 210.153Z" fill="#BEBEBE" fill-opacity="0.14"/>
<path d="M565.733 337.319L16.3714 341.538V247.391L565.736 243.172L565.733 337.319Z" fill="#CED3DF"/>
<path d="M563.253 293.63C563.253 293.63 360.188 279.925 290.511 273.822C289.891 273.845 289.273 273.741 288.695 273.515C288.118 273.289 287.593 272.947 287.153 272.509C286.714 272.072 286.369 271.549 286.141 270.973C285.912 270.396 285.805 269.779 285.826 269.16C287.23 267.757 293.622 257.832 302.046 257.832C362.126 257.832 561.147 258.571 561.147 258.571L563.253 293.63Z" fill="#B0B5C0"/>
<path d="M464.052 159.577C462.959 161.467 456.064 194.68 445.915 223.506C440.647 238.483 461.361 245.136 465.365 256.702C471.711 275.594 476.588 294.948 479.952 314.59L587.288 328.974C587.288 328.974 561.55 188.012 556.705 174.408C551.859 160.803 535.814 140.527 517.645 140.83C499.477 141.132 471.926 145.958 464.052 159.577Z" fill="#4573D2"/>
<path d="M487.902 210.289C480.545 218.689 462.935 225.92 470.654 240.339C484.215 265.67 468.201 265.082 468.201 265.082L479.963 314.589L536.035 323.298C536.035 323.298 523.609 317.093 519.571 304.057C515.533 291.022 529.703 282.513 520.443 260.857C516.384 251.36 503.399 237.857 500.002 223.994C497.527 212.35 497.998 200.273 501.373 188.857C501.373 188.857 493.137 204.301 487.902 210.289Z" fill="#4369B6"/>
<path d="M132.261 4.87393L99.01 13.1562L105.089 37.5149L138.34 29.2326L132.261 4.87393Z" fill="#A4A4A4" fill-opacity="0.4"/>
<path d="M175.637 18.4043L141.883 24.3613L146.255 49.0891L180.01 43.1322L175.637 18.4043Z" fill="#A4A4A4" fill-opacity="0.4"/>
<path d="M152.505 70.6816H118.368V95.1665H152.505V70.6816Z" fill="#A4A4A4" fill-opacity="0.4"/>
<path d="M191.017 48.0505L158.815 59.7598L167.41 83.3502L199.612 71.6409L191.017 48.0505Z" fill="#A4A4A4" fill-opacity="0.4"/>
<path d="M232.154 78.5508H197.143V103.036H232.154V78.5508Z" fill="#A4A4A4" fill-opacity="0.4"/>
<path d="M141.299 109.89L136.533 134.539L170.18 141.033L174.946 116.384L141.299 109.89Z" fill="#A4A4A4" fill-opacity="0.4"/>
<path d="M79.5558 39.6658L74.7894 64.3145L108.436 70.8082L113.202 46.1595L79.5558 39.6658Z" fill="#A4A4A4" fill-opacity="0.4"/>
<path d="M101.506 89.7058L67.9806 96.7969L73.1854 121.357L106.711 114.266L101.506 89.7058Z" fill="#A4A4A4" fill-opacity="0.4"/>
</g>
<path d="M231.393 181.262C231.107 181.218 230.814 181.257 230.55 181.375C230.286 181.493 230.061 181.684 229.903 181.927C229.745 182.169 229.661 182.452 229.66 182.741C229.659 183.031 229.742 183.314 229.898 183.557L283.576 267.117L285.188 269.801C285.393 270.141 285.681 270.422 286.026 270.618C286.37 270.814 286.76 270.918 287.156 270.921L390.879 271.471C391.492 271.471 392.08 271.227 392.514 270.794C392.948 270.361 393.191 269.773 393.191 269.161V265.563C393.191 265.218 393.113 264.878 392.963 264.567C392.814 264.255 392.597 263.982 392.327 263.766L382.222 255.657C381.819 255.334 381.32 255.155 380.803 255.149L299.277 254.223C298.887 254.218 298.505 254.115 298.166 253.924C297.827 253.732 297.541 253.458 297.337 253.127L255.828 185.838C255.652 185.554 255.417 185.311 255.138 185.126C254.86 184.942 254.544 184.82 254.214 184.769L231.393 181.262Z" fill="#B0B5C0"/>
<path d="M230.224 184.036C230.224 184.076 283.576 267.119 283.576 267.119L285.336 270.059C285.495 270.324 285.719 270.543 285.988 270.696C286.256 270.849 286.559 270.93 286.868 270.931L391.238 271.485C391.488 271.487 391.735 271.436 391.963 271.337C392.192 271.238 392.398 271.093 392.567 270.91C392.736 270.728 392.866 270.512 392.947 270.276C393.029 270.041 393.06 269.791 393.04 269.543C393.003 269.097 392.801 268.681 392.473 268.376C392.145 268.071 391.716 267.9 391.268 267.894L288.159 266.844C287.864 266.841 287.574 266.766 287.314 266.624C287.055 266.483 286.835 266.28 286.673 266.034L231.683 181.751C231.581 181.631 231.454 181.535 231.31 181.47C231.167 181.405 231.01 181.373 230.853 181.375C230.695 181.378 230.54 181.415 230.399 181.485C230.257 181.555 230.133 181.655 230.035 181.778C229.083 182.654 230.224 184.036 230.224 184.036Z" fill="#8A90A7"/>
<path d="M294.497 254.405L288.077 261.883L239.821 187.41L255.351 189.93L294.497 254.405Z" fill="#F6F6F6"/>
<path d="M299.447 256.098L292.357 264.469L371.76 265.113L378.523 256.52L299.447 256.098Z" fill="#8A90A7"/>
<path d="M361.754 232.758C361.754 232.758 338.559 231.733 335.688 233.988C332.816 236.244 305.312 251.629 304.49 254.288C303.668 256.946 312.701 256.749 320.5 251.213C328.299 245.677 344.309 243.01 344.309 245.266C344.309 247.521 334.868 246.906 332.404 250.598C329.941 254.29 334.252 256.543 343.899 253.263C353.545 249.983 357.035 256.543 364.014 251.213C370.993 245.883 375.712 241.985 375.712 241.985L375.922 233.375L361.754 232.758Z" fill="#EABBAE"/>
<path d="M357.382 247.021C352.458 247.463 347.598 248.445 342.89 249.95C334.048 252.936 334.572 247.602 329.068 250.696C316.996 257.487 306.296 259.783 304.415 255.051C303.384 252.458 312.699 256.746 320.498 251.21C328.297 245.674 344.306 243.007 344.306 245.263C344.306 247.518 334.866 246.903 332.402 250.595C329.938 254.287 334.25 256.54 343.897 253.26C353.543 249.98 357.033 256.54 364.012 251.21C370.991 245.88 375.71 241.982 375.71 241.982C375.71 241.982 363.608 247.371 357.382 247.021Z" fill="#D1A79C"/>
<path d="M460.859 174.01C461.207 172.775 432.379 229.312 425.717 230.521C419.056 231.731 363.059 229.427 362.189 230.297C353.293 239.184 360.848 252.797 365.937 254.172C371.026 255.548 426.325 265.303 439.646 260.771C443.569 259.435 453.69 247.07 454.758 243.997C454.758 243.997 442.776 233.02 445.328 225.695C450.167 211.86 455.015 194.698 460.859 174.01Z" fill="#4369B6"/>
<path d="M411.631 253.269C411.631 253.269 386.589 245.478 381.663 243.017C376.738 240.556 373.864 244.042 362.164 246.912C354.72 248.74 351.462 255.151 346.007 256.436C340.403 257.757 337.914 258.925 337.739 259.421C335.616 265.433 348.412 266.393 362.37 263.318C376.328 260.244 376.942 259.421 380.431 262.291C383.921 265.162 396.647 273.365 401.572 271.931C406.498 270.496 413.273 266.599 416.146 267.829L422.51 256.14L411.631 253.269Z" fill="#EABBAE"/>
<path d="M393.786 263.285C384.926 259.853 383.395 253.805 378.468 251.346C373.541 248.887 373.145 252.068 361.916 256.424C346.322 262.468 337.874 259.236 337.742 259.412C337.321 259.969 336.972 263.211 341.223 264.417C345.767 265.706 355.16 264.898 362.372 263.31C376.328 260.233 376.944 259.412 380.434 262.283C383.923 265.154 396.649 273.357 401.575 271.923C406.5 270.488 415.287 271.108 416.149 267.821C408.544 267.181 401.039 265.659 393.786 263.285Z" fill="#D1A79C"/>
<path d="M504.372 175.662C495.102 188.452 493.28 218.958 489.676 238.005C486.866 252.868 486.576 264.611 484.703 266.241C479.21 271.014 415.93 250.898 410.288 249.65C404.646 248.403 397.086 265.22 404.656 275.506C404.656 275.506 458.328 303.379 485.588 302.472C485.588 302.472 516.661 294.836 516.884 294.502C524.609 282.926 546.249 214.26 546.854 205.183C547.46 196.107 550.447 173.443 531.109 167.382C526.35 165.747 521.193 165.669 516.387 167.158C511.58 168.646 507.372 171.625 504.372 175.662Z" fill="#4573D2"/>
<path d="M533.998 219.336C522.034 236.899 516.788 241.564 513.187 260.611C512.308 265.255 512.766 292.461 497.034 293.505C491.358 293.881 483.954 284.527 471.251 280.783C463.053 278.363 437.014 278.473 433.043 277.368C420.159 273.768 404.551 254.38 402.176 259.914C401.307 262.521 401.079 265.298 401.512 268.012C401.946 270.725 403.027 273.294 404.665 275.501C404.665 275.501 458.336 304.112 485.596 303.205C485.596 303.205 514.727 297.535 517.113 294.985C518.134 293.342 518.946 291.579 519.531 289.735C527.706 272.794 546.257 214.258 546.858 205.182C547.46 196.105 548.303 183.322 536.558 174.493C535.793 173.909 549.219 196.987 533.998 219.336Z" fill="#4369B6"/>
<path d="M427.782 69.1089C426.661 69.1089 420.681 91.5104 429.65 104.579C429.65 104.579 433.644 113.211 431.019 118.44C428.393 123.669 428.604 128.495 437.573 128.121C437.573 128.121 443.163 139.985 445.351 143.032C448.378 147.261 451.868 154.582 460.676 148.633C475.485 138.651 499.168 134.445 498.421 110.176C497.675 85.9074 488.331 49.6936 473.007 50.437C457.682 51.1805 427.782 69.1089 427.782 69.1089Z" fill="#EABBAE"/>
<path d="M424.464 82.9185C418.076 79.6213 413.655 70.4713 417.818 65.6495C427.113 54.8719 452.934 39.808 474.514 44.3799C496.643 49.0694 502.493 79.2265 509.525 98.121C512.379 105.788 521.242 107.076 524.62 109.688C535.637 118.21 533.96 142.823 517.868 139.509C517.868 139.509 485.191 143.359 487.293 175.349C488.939 200.431 445.04 186.797 455.494 157.751C461.315 141.565 458.351 139.304 460.207 130.267C461.537 123.784 471.724 117.627 471.853 117.635C475.813 117.912 478.033 109.583 477.675 105.832C477.49 103.877 476.835 97.8522 471.354 98.6922C469.618 98.9547 464.733 104.203 465.027 102.794C467.869 89.1956 458.414 89.3993 458.414 89.3993C458.414 89.3993 438.027 89.916 424.464 82.9185Z" fill="#444C61"/>
<path d="M474.495 44.1187C496.456 47.3129 510.231 64.1891 508.781 90.835C508.287 99.8989 518.612 103.774 524.603 109.427C534.731 118.987 532.434 140.149 522.598 140.928C522.598 140.928 490.049 143.148 487.282 175.086C487.127 176.89 484.716 149.167 493.158 138.494C514.12 111.989 490.81 114.009 486.725 94.9469C482.895 77.0794 491.461 74.658 482.794 64.8402C482.794 64.8402 466.736 42.4407 438.088 50.3811C449.367 44.8354 462.009 42.6609 474.495 44.1187Z" fill="#30384D"/>
<path d="M84.4485 257.544L102.794 196.764L140.613 208.163L84.4485 257.544ZM123.443 211.762L108.764 207.342L101.455 231.545L123.443 211.762Z" fill="#E2E5EC"/>
<path d="M87.8203 246.374L88.0305 245.717L90.3324 246.41C90.4173 246.437 90.4884 246.496 90.5311 246.574C90.5738 246.652 90.5847 246.744 90.5615 246.83C90.5357 246.916 90.4771 246.988 90.3984 247.031C90.3196 247.073 90.2272 247.084 90.1411 247.059L87.8287 246.366L87.8203 246.374Z" fill="white"/>
<path fill-rule="evenodd" clip-rule="evenodd" d="M90.387 246.795L90.5502 246.847C90.5231 246.932 90.4643 247.002 90.3862 247.045C90.308 247.087 90.2166 247.097 90.131 247.073L90.1271 247.072L90.1272 247.072L88.0445 246.442C88.0443 246.442 88.0442 246.442 88.0441 246.442M87.9553 245.942C87.964 245.914 87.9781 245.887 87.9969 245.865C88.0161 245.841 88.0398 245.822 88.0665 245.808C88.0934 245.793 88.1227 245.785 88.1526 245.782C88.182 245.78 88.212 245.783 88.2406 245.791C88.2411 245.792 88.2415 245.792 88.2419 245.792L88.1903 245.955L88.24 245.791L88.2406 245.791L90.3205 246.421C90.3203 246.421 90.32 246.421 90.3198 246.421L90.2714 246.585L90.3211 246.421L90.3205 246.421C90.4067 246.447 90.4793 246.505 90.5226 246.584C90.5661 246.663 90.5765 246.756 90.5517 246.842L90.387 246.795" fill="#8A90A7"/>
<path d="M88.5161 244.073L88.7137 243.416L91.026 244.109C91.1116 244.135 91.1837 244.194 91.2268 244.272C91.27 244.351 91.2809 244.443 91.2573 244.529C91.2301 244.614 91.1712 244.685 91.0929 244.728C91.0147 244.77 90.923 244.781 90.8369 244.758L88.535 244.065L88.5161 244.073Z" fill="white"/>
<path fill-rule="evenodd" clip-rule="evenodd" d="M91.245 244.543C91.2196 244.63 91.161 244.702 91.082 244.746C91.003 244.789 90.91 244.8 90.8233 244.775L90.8208 244.774L88.742 244.145C88.7132 244.137 88.6864 244.123 88.6631 244.105C88.6384 244.085 88.618 244.061 88.6032 244.033C88.591 244.01 88.5829 243.985 88.5793 243.959L88.5595 243.93L88.648 243.645C88.6561 243.616 88.6696 243.59 88.688 243.566C88.7075 243.542 88.7319 243.521 88.7597 243.507C88.7874 243.492 88.818 243.483 88.8495 243.481C88.8791 243.479 88.9086 243.483 88.9364 243.492L91.0168 244.121C91.1025 244.147 91.1751 244.207 91.2177 244.285C91.2603 244.364 91.27 244.457 91.245 244.543Z" fill="#8A90A7"/>
<path d="M89.2099 241.775L89.4201 241.117L93.3658 242.306C93.451 242.333 93.5225 242.391 93.5652 242.47C93.6079 242.548 93.6186 242.64 93.5949 242.726C93.5681 242.811 93.5094 242.882 93.4309 242.925C93.3525 242.968 93.2606 242.978 93.1745 242.955L89.2288 241.766L89.2099 241.775Z" fill="white"/>
<path fill-rule="evenodd" clip-rule="evenodd" d="M93.4204 242.687L93.5842 242.737C93.5579 242.822 93.4995 242.894 93.4213 242.937C93.343 242.98 93.2511 242.991 93.165 242.967L93.1607 242.966L89.434 241.843C89.4339 241.843 89.434 241.843 89.434 241.843M89.3424 241.343C89.3512 241.314 89.3654 241.288 89.3843 241.265C89.4035 241.242 89.4272 241.222 89.4539 241.208C89.4806 241.194 89.5099 241.185 89.54 241.183C89.5696 241.18 89.5995 241.183 89.6279 241.192L93.357 242.314C93.4413 242.341 93.5119 242.399 93.5546 242.476C93.5972 242.554 93.6085 242.645 93.5862 242.73L93.4204 242.687" fill="#8A90A7"/>
<path d="M89.9056 239.476L90.1032 238.818L92.4156 239.511C92.5008 239.538 92.5723 239.597 92.615 239.675C92.6578 239.754 92.6684 239.845 92.6447 239.931C92.6184 240.017 92.5597 240.089 92.4811 240.131C92.4026 240.174 92.3104 240.185 92.2243 240.16L89.9225 239.467L89.9056 239.476Z" fill="white"/>
<path fill-rule="evenodd" clip-rule="evenodd" d="M92.4702 239.897L92.634 239.948C92.6078 240.033 92.5494 240.104 92.4711 240.147C92.3929 240.19 92.301 240.201 92.2149 240.178L92.2104 240.177L90.1218 239.545C90.0661 239.526 90.0198 239.487 89.9923 239.435C89.9806 239.412 89.9726 239.389 89.9686 239.365L89.9465 239.331L90.0379 239.046C90.046 239.018 90.0594 238.992 90.0775 238.969C90.097 238.944 90.1215 238.924 90.1493 238.909C90.1772 238.894 90.2078 238.886 90.2391 238.883C90.2684 238.881 90.298 238.885 90.326 238.894L92.4043 239.523C92.4896 239.55 92.5621 239.608 92.6051 239.686C92.6482 239.765 92.659 239.856 92.6355 239.942L92.4702 239.897Z" fill="#8A90A7"/>
<path d="M90.6015 237.175L90.7991 236.518L93.1009 237.211C93.1865 237.237 93.2585 237.295 93.3017 237.374C93.3448 237.452 93.3557 237.544 93.3321 237.631C93.3054 237.716 93.2466 237.787 93.1682 237.83C93.0898 237.873 92.9978 237.883 92.9117 237.86L90.5994 237.166L90.6015 237.175Z" fill="white"/>
<path fill-rule="evenodd" clip-rule="evenodd" d="M93.1639 237.595L93.329 237.641C93.3527 237.555 93.3424 237.464 93.3002 237.386C93.258 237.308 93.1872 237.249 93.1027 237.222L91.0168 236.591L91.0112 236.59C90.9535 236.574 90.892 236.582 90.8398 236.611C90.7879 236.64 90.7493 236.688 90.732 236.745C90.7319 236.745 90.732 236.745 90.732 236.745M90.6587 237.044C90.661 237.076 90.6698 237.106 90.6844 237.133C90.6991 237.161 90.7194 237.186 90.7442 237.205C90.7677 237.224 90.7946 237.237 90.8232 237.245L92.9041 237.875L92.9066 237.875C92.9932 237.9 93.0862 237.89 93.1652 237.846C93.2442 237.803 93.3028 237.73 93.3283 237.644L93.1639 237.595M90.8232 237.245C90.8248 237.246 90.8264 237.246 90.8279 237.246L90.8705 237.081L90.8209 237.244L90.8232 237.245ZM90.6587 237.044C90.6587 237.044 90.6587 237.045 90.6587 237.044C90.6566 237.014 90.6604 236.984 90.6701 236.955C90.6705 236.954 90.671 236.953 90.6715 236.951L90.8327 237.009L90.6794 237.086L90.6587 237.044Z" fill="#8A90A7"/>
<path d="M91.293 234.876L91.4927 234.219L95.4384 235.407C95.5236 235.434 95.5951 235.493 95.6378 235.571C95.6806 235.65 95.6912 235.741 95.6675 235.827C95.6407 235.913 95.582 235.984 95.5035 236.027C95.4251 236.069 95.3332 236.08 95.2471 236.056L91.3014 234.868L91.293 234.876Z" fill="white"/>
<path fill-rule="evenodd" clip-rule="evenodd" d="M95.5035 235.781L95.6672 235.831C95.641 235.917 95.5826 235.988 95.5043 236.031C95.4261 236.074 95.3342 236.085 95.2481 236.062L95.2437 236.061L91.5112 234.935C91.4555 234.916 91.4091 234.877 91.3816 234.825C91.3546 234.774 91.3478 234.715 91.3624 234.659L91.3598 234.657L91.4269 234.43C91.4458 234.375 91.4854 234.329 91.5374 234.301C91.5891 234.274 91.6493 234.267 91.7057 234.282L91.8672 234.121L91.8135 234.315L95.4373 235.407C95.5227 235.433 95.5953 235.492 95.6383 235.57C95.6814 235.648 95.6923 235.74 95.6687 235.826L95.5035 235.781Z" fill="#8A90A7"/>
<path d="M91.9888 232.575L92.1864 231.918L94.4987 232.611C94.5839 232.638 94.6554 232.696 94.6982 232.775C94.7409 232.853 94.7516 232.945 94.7279 233.031C94.7016 233.116 94.6429 233.188 94.5643 233.231C94.4857 233.274 94.3935 233.284 94.3074 233.26L91.9951 232.567L91.9888 232.575Z" fill="#8A90A7"/>
<path d="M92.6825 230.274L92.8801 229.619L95.1924 230.312C95.278 230.338 95.35 230.397 95.3932 230.475C95.4363 230.554 95.4473 230.646 95.4237 230.732C95.3969 230.817 95.3381 230.889 95.2597 230.931C95.1813 230.974 95.0893 230.985 95.0032 230.961L92.6909 230.266L92.6825 230.274Z" fill="#8A90A7"/>
<path d="M93.3761 227.974L93.5863 227.316L97.532 228.507C97.6175 228.533 97.6894 228.592 97.7322 228.671C97.775 228.749 97.7854 228.841 97.7611 228.927C97.7353 229.013 97.6768 229.085 97.5982 229.128C97.5196 229.172 97.4271 229.182 97.3407 229.158L93.3929 227.967L93.3761 227.974Z" fill="#8A90A7"/>
<path d="M94.072 225.677L94.2696 225.02L96.5714 225.715C96.657 225.741 96.7288 225.8 96.7716 225.878C96.8144 225.957 96.8248 226.049 96.8006 226.135C96.7747 226.22 96.7162 226.293 96.6376 226.336C96.559 226.379 96.4666 226.39 96.3802 226.366L94.0678 225.671L94.072 225.677Z" fill="#8A90A7"/>
<path d="M94.7656 223.376L94.9632 222.719L97.2756 223.414C97.3615 223.44 97.4338 223.498 97.4771 223.577C97.5203 223.655 97.531 223.748 97.5068 223.834C97.4805 223.919 97.4219 223.991 97.3434 224.034C97.265 224.078 97.1728 224.088 97.0864 224.065L94.7846 223.37L94.7656 223.376Z" fill="#8A90A7"/>
<path d="M95.4594 221.077L95.6696 220.42L99.6153 221.611C99.7008 221.637 99.7726 221.696 99.8155 221.774C99.8583 221.853 99.8687 221.945 99.8444 222.031C99.8186 222.116 99.76 222.189 99.6813 222.231C99.6026 222.274 99.5101 222.284 99.424 222.26L95.4762 221.071L95.4594 221.077Z" fill="#8A90A7"/>
<path d="M96.1552 218.776L96.3528 218.119L98.6652 218.812C98.7501 218.839 98.8213 218.898 98.8639 218.976C98.9066 219.055 98.9175 219.146 98.8943 219.232C98.868 219.318 98.8093 219.389 98.7308 219.432C98.6522 219.475 98.56 219.485 98.4739 219.461L96.1615 218.768L96.1552 218.776Z" fill="#8A90A7"/>
<path d="M96.849 216.476L97.0466 215.818L99.3589 216.511C99.4445 216.538 99.5165 216.596 99.5597 216.675C99.6028 216.753 99.6137 216.845 99.5901 216.931C99.5634 217.017 99.5046 217.088 99.4262 217.131C99.3478 217.173 99.2558 217.184 99.1697 217.16L96.8574 216.467L96.849 216.476Z" fill="#8A90A7"/>
<path d="M97.5385 214.177L97.7487 213.52L101.694 214.708C101.78 214.735 101.851 214.794 101.894 214.872C101.937 214.95 101.947 215.042 101.923 215.128C101.897 215.214 101.838 215.285 101.76 215.328C101.681 215.371 101.589 215.381 101.503 215.357L97.5553 214.168L97.5385 214.177Z" fill="#8A90A7"/>
<path d="M98.2384 211.88L98.436 211.223L100.748 211.916C100.834 211.942 100.906 212.001 100.949 212.079C100.991 212.158 101.002 212.25 100.977 212.336C100.951 212.421 100.892 212.493 100.814 212.536C100.735 212.578 100.643 212.589 100.557 212.565L98.2552 211.872L98.2384 211.88Z" fill="#8A90A7"/>
<path d="M98.932 209.587L99.1296 208.93L101.431 209.623C101.517 209.649 101.589 209.708 101.632 209.786C101.675 209.864 101.686 209.956 101.663 210.043C101.636 210.128 101.577 210.199 101.499 210.242C101.42 210.285 101.328 210.295 101.242 210.272L98.9299 209.579L98.932 209.587Z" fill="#8A90A7"/>
<path d="M99.6258 207.276L99.8255 206.619L103.771 207.808C103.856 207.835 103.928 207.893 103.971 207.972C104.013 208.05 104.024 208.142 104 208.228C103.974 208.313 103.915 208.385 103.837 208.428C103.758 208.471 103.666 208.481 103.58 208.457L99.6258 207.276Z" fill="#8A90A7"/>
<path d="M100.322 204.979L100.519 204.324L102.821 205.017C102.907 205.044 102.978 205.102 103.021 205.181C103.064 205.259 103.074 205.351 103.05 205.437C103.024 205.523 102.965 205.594 102.887 205.637C102.808 205.68 102.716 205.69 102.63 205.666L100.317 204.971L100.322 204.979Z" fill="#8A90A7"/>
<path d="M101.015 202.677L101.213 202.021L103.525 202.715C103.611 202.74 103.683 202.799 103.727 202.877C103.77 202.956 103.781 203.048 103.756 203.135C103.73 203.22 103.672 203.292 103.593 203.335C103.515 203.378 103.422 203.389 103.336 203.366L101.034 202.67L101.015 202.677Z" fill="#8A90A7"/>
<path d="M101.709 200.378L101.919 199.721L105.865 200.911C105.95 200.938 106.022 200.996 106.065 201.075C106.108 201.153 106.118 201.245 106.094 201.331C106.068 201.417 106.01 201.49 105.931 201.533C105.852 201.576 105.76 201.587 105.674 201.562L101.726 200.372L101.709 200.378Z" fill="#8A90A7"/>
<path d="M107.029 211.187L83.9881 250.035L88.126 252.485L111.167 213.636L107.029 211.187Z" fill="#8A90A7"/>
<path d="M109.098 212.411L86.0566 251.26L88.1256 252.484L111.167 213.636L109.098 212.411Z" fill="#7B8093"/>
<path d="M81.8903 258.286L83.9924 250.035L88.1293 252.484L81.8903 258.286Z" fill="#F6F6F6"/>
<path d="M81.8945 258.288L82.9981 253.916L85.2053 255.222L81.8945 258.288Z" fill="#30384D"/>
<path d="M107.029 211.188L108.339 208.981C108.392 208.891 108.463 208.812 108.547 208.749C108.631 208.686 108.726 208.641 108.828 208.615C108.929 208.589 109.035 208.583 109.139 208.598C109.242 208.613 109.342 208.648 109.432 208.702L112.197 210.338C112.378 210.446 112.51 210.621 112.562 210.826C112.615 211.031 112.584 211.248 112.476 211.43L111.166 213.637L107.029 211.188Z" fill="#4573D2"/>
<path d="M81.8852 215.211L77.2257 216.402L88.4297 260.149L93.0893 258.958L81.8852 215.211Z" fill="#E2E5EC"/>
<path d="M79.5555 215.807L77.2257 216.402L88.4297 260.149L90.7595 259.554L79.5555 215.807Z" fill="#CED3DF"/>
<path d="M77.5284 207.906L81.884 215.223L77.2257 216.414L77.5284 207.906Z" fill="#F6F6F6"/>
<path d="M77.5221 207.906L79.8344 211.779L77.3518 212.409L77.5221 207.906Z" fill="#30384D"/>
<path d="M93.0883 258.961L93.719 261.445C93.7713 261.65 93.74 261.868 93.632 262.05C93.524 262.231 93.3481 262.363 93.143 262.416L90.0297 263.212C89.9283 263.237 89.8227 263.243 89.7191 263.228C89.6155 263.213 89.5158 263.178 89.4258 263.124C89.3358 263.071 89.2572 263 89.1946 262.917C89.1319 262.833 89.0864 262.737 89.0607 262.636L88.43 260.152L93.0883 258.961Z" fill="#4573D2"/>
<path d="M116.624 233.309H77.7617V265.776H116.624V233.309Z" fill="#E89C2E"/>
<path d="M108.989 233.318H116.621V265.786H108.989V233.318Z" fill="#C98A30"/>
<mask id="mask1_9_51015" style="mask-type:alpha" maskUnits="userSpaceOnUse" x="128" y="216" width="65" height="70">
<path fill-rule="evenodd" clip-rule="evenodd" d="M162.668 274.28C167.411 259.713 173.613 245.43 183.015 233.521C182.693 237.301 181.211 244.815 181.211 244.815C179.086 251.778 176.44 258.572 173.297 265.14C170.781 269.614 169.09 272.275 167.484 274.803L167.484 274.803C165.839 277.391 164.283 279.839 162.022 283.951C170.715 271.511 179.786 259.016 192.119 250.213C188.141 263.465 176.15 273.23 165.09 282.236L165.088 282.238C163.788 283.297 162.501 284.345 161.241 285.387C161.158 285.542 161.074 285.698 160.989 285.857L160.988 285.856L160.989 285.86L160.989 285.861L160.986 285.859C160.913 285.833 160.84 285.807 160.767 285.78L160.717 285.822L160.751 285.774C148.39 281.27 133.194 272.35 128.488 259.624C137.057 262.718 142.508 266.313 147.199 270.667C142.301 262.709 138.937 253.849 137.34 244.544C136.52 239.609 136.621 234.565 137.639 229.667C139.187 231.047 140.446 232.719 141.343 234.588C146.273 243.763 150.53 253.272 154.084 263.039C152.934 258.33 151.96 253.568 151.413 248.616C150.348 238.919 151.464 229.107 154.68 219.897C158.118 232.688 159.453 245.872 159.826 259.137C160.158 256.013 160.605 252.9 161.165 249.803C163.248 238.165 167.239 226.951 172.977 216.611C174.383 230.522 170.731 243.698 167.039 257.014C165.458 262.721 163.869 268.453 162.668 274.28Z" fill="#B0B5C0"/>
</mask>
<g mask="url(#mask1_9_51015)">
<path fill-rule="evenodd" clip-rule="evenodd" d="M162.668 274.28C167.411 259.713 173.613 245.43 183.015 233.521C182.693 237.301 181.211 244.815 181.211 244.815C179.086 251.778 176.44 258.572 173.297 265.14C170.781 269.614 169.09 272.275 167.484 274.803L167.484 274.803C165.839 277.391 164.283 279.839 162.022 283.951C170.715 271.511 179.786 259.016 192.119 250.213C188.141 263.465 176.15 273.23 165.09 282.236L165.088 282.238C163.788 283.297 162.501 284.345 161.241 285.387C161.158 285.542 161.074 285.698 160.989 285.857L160.988 285.856L160.989 285.86L160.989 285.861L160.986 285.859C160.913 285.833 160.84 285.807 160.767 285.78L160.717 285.822L160.751 285.774C148.39 281.27 133.194 272.35 128.488 259.624C137.057 262.718 142.508 266.313 147.199 270.667C142.301 262.709 138.937 253.849 137.34 244.544C136.52 239.609 136.621 234.565 137.639 229.667C139.187 231.047 140.446 232.719 141.343 234.588C146.273 243.763 150.53 253.272 154.084 263.039C152.934 258.33 151.96 253.568 151.413 248.616C150.348 238.919 151.464 229.107 154.68 219.897C158.118 232.688 159.453 245.872 159.826 259.137C160.158 256.013 160.605 252.9 161.165 249.803C163.248 238.165 167.239 226.951 172.977 216.611C174.383 230.522 170.731 243.698 167.039 257.014C165.458 262.721 163.869 268.453 162.668 274.28Z" fill="#B0B5C0"/>
<path fill-rule="evenodd" clip-rule="evenodd" d="M191.978 244.59C173.665 232.067 148.767 235.932 130.039 245.735C130.022 245.742 130.002 245.743 129.984 245.735C129.967 245.728 129.952 245.715 129.945 245.697C129.937 245.679 129.937 245.66 129.944 245.642C129.948 245.633 129.953 245.625 129.959 245.618C129.966 245.612 129.974 245.606 129.983 245.602C139.392 240.231 149.891 237.044 160.701 236.28C171.197 235.526 184.289 236.505 192.317 244.208C192.529 244.414 192.214 244.75 191.978 244.59ZM145.576 242.378C145.585 242.38 145.594 242.381 145.603 242.38C145.613 242.379 145.621 242.376 145.629 242.371C145.637 242.366 145.644 242.36 145.649 242.352C145.655 242.345 145.658 242.336 145.66 242.328C145.665 242.311 145.663 242.294 145.655 242.279C145.647 242.263 145.634 242.252 145.618 242.246C145.6 242.242 145.58 242.245 145.564 242.256C145.548 242.266 145.537 242.282 145.532 242.3C145.529 242.316 145.532 242.333 145.54 242.347C145.548 242.361 145.561 242.372 145.576 242.378ZM200.237 261.218C179.84 251.618 156.792 249.192 134.84 254.334C134.683 254.372 134.636 254.129 134.79 254.089C156.779 248.268 180.132 250.562 200.565 260.551C200.946 260.742 200.62 261.395 200.237 261.218ZM134.58 257.981C143.663 254.2 154.586 253.867 164.274 254.639C173.929 255.435 183.38 257.849 192.233 261.78C192.495 261.895 192.636 261.473 192.376 261.36C183.088 257.243 173.147 254.789 163.009 254.11C153.709 253.514 143.072 253.867 134.437 257.68C134.248 257.764 134.391 258.042 134.578 257.964L134.58 257.981ZM197.387 270.75C177.545 264.826 154.163 262.497 134.347 269.992C134.17 270.055 134.035 269.801 134.214 269.717C143.533 266.092 153.503 264.434 163.495 264.849C174.693 264.948 187.204 265.544 197.536 270.309C197.591 270.331 197.636 270.372 197.662 270.425C197.688 270.478 197.693 270.538 197.677 270.595C197.659 270.653 197.618 270.703 197.564 270.732C197.51 270.761 197.446 270.767 197.387 270.75ZM132.936 273.698C141.478 269.967 150.627 267.813 159.938 267.341C164.159 267.216 168.383 267.498 172.55 268.181C175.593 268.682 178.499 269.543 181.414 270.407C183.022 270.883 184.633 271.36 186.271 271.779C186.736 271.898 187.15 271.235 186.672 270.968C178.821 266.61 168.247 265.64 159.431 266.024C150.074 266.267 140.915 268.767 132.734 273.312C132.709 273.324 132.686 273.342 132.667 273.363C132.649 273.385 132.635 273.41 132.626 273.436C132.617 273.463 132.613 273.492 132.615 273.52C132.617 273.548 132.625 273.576 132.637 273.601C132.65 273.627 132.668 273.649 132.689 273.668C132.711 273.687 132.735 273.701 132.762 273.71C132.789 273.719 132.818 273.722 132.846 273.72C132.874 273.718 132.902 273.711 132.928 273.698H132.936ZM180.261 276.394C167.217 272.646 154.867 272.345 142.044 277.247C141.79 277.352 141.599 276.98 141.857 276.875C153.6 271.747 168.462 270.846 180.408 275.962L180.448 275.974C180.482 275.982 180.515 275.996 180.543 276.018C180.571 276.039 180.594 276.066 180.61 276.097C180.626 276.129 180.635 276.163 180.635 276.198C180.636 276.233 180.63 276.268 180.615 276.3C180.601 276.332 180.58 276.361 180.553 276.384C180.526 276.406 180.495 276.423 180.461 276.432C180.427 276.441 180.391 276.442 180.357 276.436C180.322 276.429 180.289 276.415 180.261 276.394ZM156.614 276.536C151.176 277.382 145.882 278.978 140.882 281.278L140.886 281.282C140.388 281.479 139.827 280.792 140.325 280.442C148.975 274.393 163.337 272.445 173.166 276.494C173.707 276.716 173.597 277.657 172.956 277.569C167.576 276.525 162.084 276.178 156.614 276.536ZM175.418 280.083C164.626 277.395 153.256 278.236 142.978 282.481H142.95C142.669 282.609 142.446 282.164 142.74 282.032C153.008 277.231 164.695 276.413 175.533 279.736C175.762 279.814 175.628 280.131 175.418 280.083ZM150.739 283.885C157.949 281.972 165.504 281.756 172.811 283.255C173.101 283.301 173.175 282.835 172.906 282.755C165.6 280.617 157.808 280.82 150.623 283.335C150.289 283.444 150.39 283.988 150.739 283.885Z" fill="#8A90A7"/>
</g>
<path d="M139.287 276.098H175.285V304.379C175.285 304.379 163.61 302.645 156.724 301.166C151.014 299.942 139.287 296.912 139.287 296.912V276.098Z" fill="#E89C2E"/>
<path d="M168.17 276.049H175.243V304.366L168.17 303.289V276.049Z" fill="#C98A30"/>
<path d="M244.199 279.94C249.169 279.94 259.696 279.717 267.648 280.282C275.659 280.849 281.081 282.206 281.081 283.075C281.081 284.808 263.755 286.542 253.785 286.599C243.064 286.66 213.441 284.829 213.683 283.075C213.918 281.366 234.229 279.94 244.199 279.94Z" fill="#B0B5C0"/>
<mask id="mask2_9_51015" style="mask-type:alpha" maskUnits="userSpaceOnUse" x="211" y="242" width="44" height="43">
<path d="M213.533 283.408C213.533 283.408 211.566 244.455 211.555 243.758C211.545 243.061 219.024 242.359 228.265 242.198C237.506 242.036 245.011 242.473 245.023 243.172V250.102C245.864 249.867 246.733 249.745 247.607 249.739C248.448 249.704 249.288 249.844 250.073 250.151C250.857 250.457 251.57 250.924 252.164 251.52C253.846 253.255 254.636 256.201 254.51 260.286C254.557 264.359 253.543 268.374 251.567 271.937C251.113 272.909 250.434 273.758 249.586 274.416C248.738 275.073 247.745 275.519 246.69 275.717C246.37 275.726 246.052 275.659 245.762 275.523C245.472 275.386 245.218 275.184 245.021 274.932V283.048C239.607 283.809 234.153 284.255 228.688 284.384C228.368 284.384 228.057 284.384 227.731 284.384C222.982 284.365 218.24 284.038 213.533 283.408ZM246.957 273.409C248.059 273.409 249.223 272.401 250.146 270.648C251.394 268.01 252.057 265.135 252.088 262.218C252.345 257.154 251.195 254.825 250.182 253.763C249.881 253.428 249.514 253.158 249.105 252.971C248.695 252.784 248.251 252.684 247.8 252.677C247.249 252.683 246.708 252.824 246.225 253.088C245.742 253.351 245.33 253.73 245.027 254.189V271.729C245.427 272.798 246.099 273.409 246.957 273.409Z" fill="#F6F6F6"/>
</mask>
<g mask="url(#mask2_9_51015)">
<path d="M213.533 283.408C213.533 283.408 211.566 244.455 211.555 243.758C211.545 243.061 219.024 242.359 228.265 242.198C237.506 242.036 245.011 242.473 245.023 243.172V250.102C245.864 249.867 246.733 249.745 247.607 249.739C248.448 249.704 249.288 249.844 250.073 250.151C250.857 250.457 251.57 250.924 252.164 251.52C253.846 253.255 254.636 256.201 254.51 260.286C254.557 264.359 253.543 268.374 251.567 271.937C251.113 272.909 250.434 273.758 249.586 274.416C248.738 275.073 247.745 275.519 246.69 275.717C246.37 275.726 246.052 275.659 245.762 275.523C245.472 275.386 245.218 275.184 245.021 274.932V283.048C239.607 283.809 234.153 284.255 228.688 284.384C228.368 284.384 228.057 284.384 227.731 284.384C222.982 284.365 218.24 284.038 213.533 283.408ZM246.957 273.409C248.059 273.409 249.223 272.401 250.146 270.648C251.394 268.01 252.057 265.135 252.088 262.218C252.345 257.154 251.195 254.825 250.182 253.763C249.881 253.428 249.514 253.158 249.105 252.971C248.695 252.784 248.251 252.684 247.8 252.677C247.249 252.683 246.708 252.824 246.225 253.088C245.742 253.351 245.33 253.73 245.027 254.189V271.729C245.427 272.798 246.099 273.409 246.957 273.409Z" fill="#F6F6F6"/>
<path d="M260.341 288.551H231.332L231.191 246.474L260.337 243.158L260.341 288.551Z" fill="#DBDBDB"/>
</g>
<path d="M213.071 244.317C218.015 245.167 223.037 245.484 228.049 245.26C236.31 245.08 242.999 244.364 242.99 243.662C233.046 242.296 222.946 242.517 213.071 244.317Z" fill="#8A90A7"/>
</g>
<defs>
<clipPath id="clip0_9_51015">
<rect width="600" height="314" fill="white"/>
</clipPath>
</defs>
</svg>
